<svg  class="symbolic" viewbox="0 0 16 16" width="16" height="16"><g fill="#2e3436"><path d="M4 7.028v1c0 .265.093.53.281.718l3 3 .282.282h.875l.28-.282 3-3c.189-.188.282-.453.282-.718v-1h-1c-.265 0-.53.093-.719.281L8 9.59 5.719 7.31A1.015 1.015 0 0 0 5 7.028z"/><path d="M7 3.027v7h2v-7z"/><path d="M2 13v2h12v-2z"/><path d="M5.994 1a1 1 0 0 1-1 1 1 1 0 0 1-1-1 1 1 0 0 1 1-1 1 1 0 0 1 1 1zM8.994 1a1 1 0 0 1-1 1 1 1 0 0 1-1-1 1 1 0 0 1 1-1 1 1 0 0 1 1 1zM11.994 1a1 1 0 0 1-1 1 1 1 0 0 1-1-1 1 1 0 0 1 1-1 1 1 0 0 1 1 1z"/></g></svg>