<svg class="symbolic" viewbox="0 0 16 16" width="16" height="16"><g fill="#474747"><path d="M3 1a1 1 0 0 0-1 1v4a1 1 0 1 0 2 0V3h5.586L12 5.414V14H4v-3s.014-.291.145-.553c.13-.261.188-.447.855-.447h3a1 1 0 1 0 0-2H5c-1.333 0-2.275.814-2.645 1.553C1.986 10.29 2 11 2 11v4a1 1 0 0 0 1 1h10a1 1 0 0 0 1-1V5a1 1 0 0 0-.293-.707l-3-3A1 1 0 0 0 10 1z"/><path d="M7.707 6.293L6.293 7.707 7.586 9l-1.293 1.293 1.414 1.414L10.414 9z"/><path d="M7 11H6v1h1zm0-5H6v1h1z"/><path d="M7 6c-.554 0-1 .446-1 1s.446 1 1 1 1-.446 1-1-.446-1-1-1zm0 4c-.554 0-1 .446-1 1s.446 1 1 1 1-.446 1-1-.446-1-1-1z"/></g></svg>