<svg class="symbolic" viewbox="0 0 16 16" width="16" height="16"><g fill="#474747"><path d="M9 10c0 .554.446 1 1 1s1-.446 1-1-.446-1-1-1-1 .446-1 1zm-4 0c0 .554.446 1 1 1s1-.446 1-1-.446-1-1-1-1 .446-1 1z"/><path d="M3 1a1 1 0 0 0-1 1v13a1 1 0 0 0 1 1h2a1 1 0 1 0 0-2H4V3h5.586L12 5.414V14H9v-4a1 1 0 1 0-2 0v5a1 1 0 0 0 1 1h5a1 1 0 0 0 1-1V5a1 1 0 0 0-.293-.707l-3-3A1 1 0 0 0 10 1z"/><path d="M8 6.586L5.293 9.293l1.414 1.414L8 9.414l1.293 1.293 1.414-1.414z"/><path d="M10 10v1h1v-1zm-5 0v1h1v-1z"/></g></svg>