<svg class="symbolic" viewbox="0 0 16 16" width="16" height="16"><path d="M4.5 0A1.5 1.5 0 0 0 3 1.5 1.5 1.5 0 0 0 4.5 3 1.5 1.5 0 0 0 6 1.5 1.5 1.5 0 0 0 4.5 0zm6 0A1.5 1.5 0 0 0 9 1.5 1.5 1.5 0 0 0 10.5 3 1.5 1.5 0 0 0 12 1.5 1.5 1.5 0 0 0 10.5 0zm-6 6A1.5 1.5 0 0 0 3 7.5 1.5 1.5 0 0 0 4.5 9 1.5 1.5 0 0 0 6 7.5 1.5 1.5 0 0 0 4.5 6zm6 0A1.5 1.5 0 0 0 9 7.5 1.5 1.5 0 0 0 10.5 9 1.5 1.5 0 0 0 12 7.5 1.5 1.5 0 0 0 10.5 6zm-6 6A1.5 1.5 0 0 0 3 13.5 1.5 1.5 0 0 0 4.5 15 1.5 1.5 0 0 0 6 13.5 1.5 1.5 0 0 0 4.5 12zm6 0A1.5 1.5 0 0 0 9 13.5a1.5 1.5 0 0 0 1.5 1.5 1.5 1.5 0 0 0 1.5-1.5 1.5 1.5 0 0 0-1.5-1.5z" fill="#474747"/></svg>