<svg class="symbolic" viewbox="0 0 16 16" width="16.002" height="16"><g fill="#474747"><path d="M8.04 4A1 1 0 0 0 7 5v6a1 1 0 0 0 1.514.857l5-3a1 1 0 0 0 0-1.714l-5-3A1 1 0 0 0 8.04 4zM9 6.768L11.055 8 9 9.232z"/><path d="M14.002 3.998l-.002 1-.013 6-.004 1 2 .004.004-1 .013-6 .002-1z"/><path d="M8 11H7v1h1zm0-7H7v1h1z"/><path d="M1.04 4A1 1 0 0 0 0 5v6a1 1 0 0 0 1.514.857l5-3a1 1 0 0 0 0-1.714l-5-3A1 1 0 0 0 1.04 4zM2 6.768L4.055 8 2 9.232z"/><path d="M1 11H0v1h1zm0-7H0v1h1zm7 1l5 3-5 3zM1 5l5 3-5 3z"/></g></svg>