<svg class="symbolic" viewbox="0 0 16 16" width="16.002" height="16"><g fill="#474747"><path d="M8.002 5l-5 3 5 3zm7 0l-5 3 5 3z"/><path d="M7.973 4a1 1 0 0 0-.484.143l-5 3a1 1 0 0 0 0 1.714l5 3A1 1 0 0 0 9.002 11V5a1 1 0 0 0-1.029-1zm-.97 2.766v2.468L4.945 8z"/><path d="M2 3.998l-2 .004.002 1 .014 6 .004 1 2-.004-.004-1-.014-6z"/><path d="M8.002 11h1v1h-1zm0-7h1v1h-1z"/><path d="M14.973 4a1 1 0 0 0-.484.143l-5 3a1 1 0 0 0 0 1.714l5 3A1 1 0 0 0 16.002 11V5a1 1 0 0 0-1.029-1zm-.97 2.766v2.468L11.945 8z"/><path d="M15.002 11h1v1h-1zm0-7h1v1h-1z"/></g></svg>