<svg class="symbolic" viewbox="0 0 16 16" width="16.003" height="16"><g fill="#2e3436"><path d="M11 1a2 2 0 1 0 0 4 2 2 0 0 0 0-4zM5 4a2 2 0 1 0 0 4 2 2 0 0 0 0-4zm5 2c-1.31 0-2.407.835-2.819 2h7.637A2.985 2.985 0 0 0 12 6h-1zM4 9c-1.662 0-3 1.338-3 3v1c0 .554.446 1 1 1h6c.554 0 1-.446 1-1v-1c0-1.662-1.338-3-3-3z"/><path d="M15.16 15H16v-1c.008-1.673 0-5 0-5h-6v.846A1 1 0 0 0 11 11h1.586l-1.643 1.643-.65.65c-.654.636-.185 1.744.726 1.717.26-.008.507-.117.688-.303l.628-.628L14 12.414V14c0 .681.449 1 1.16 1z"/></g></svg>