<svg class="symbolic" viewbox="0 0 16 16" width="16.014" height="16.01"><g fill="#474747"><path d="M12 1.006l-2 .008.018 4.996H15v-2h-2.99z"/><path d="M14.979 0a1 1 0 0 0-.688.305l-3.984 4a1 1 0 1 0 1.416 1.41l3.986-4A1 1 0 0 0 14.979 0zM1.014 6.01a1 1 0 0 0-1 1v8a1 1 0 0 0 1 1h8a1 1 0 0 0 1-1v-8a1 1 0 0 0-1-1zm1 2h6v6h-6z"/><path d="M1.014 8.01a1 1 0 1 0 0 2h8a1 1 0 1 0 0-2z"/><path d="M15 5.01h1v1h-1zm-5-5h1v1h-1zm-.986 15h1v1h-1zm-9 0h1v1h-1z"/><path d="M11 .01c.554 0 1 .446 1 1s-.446 1-1 1-1-.446-1-1 .446-1 1-1zm4 4c.554 0 1 .446 1 1s-.446 1-1 1-1-.446-1-1 .446-1 1-1z"/></g></svg>