<svg class="symbolic" viewbox="0 0 16 16" width="16.017" height="16.017"><g fill="#2e3436"><path d="M4 2a2 2 0 0 1-2 2 2 2 0 0 1-2-2 2 2 0 0 1 2-2 2 2 0 0 1 2 2zm0 12a2 2 0 0 1-2 2 2 2 0 0 1-2-2 2 2 0 0 1 2-2 2 2 0 0 1 2 2zm12 0a2 2 0 0 1-2 2 2 2 0 0 1-2-2 2 2 0 0 1 2-2 2 2 0 0 1 2 2zm0-12a2 2 0 0 1-2 2 2 2 0 0 1-2-2 2 2 0 0 1 2-2 2 2 0 0 1 2 2z"/><path d="M1 1v14h14V1zm2 2h10v10H3z"/><path d="M5 5v6h6V5zm1 1h4v4H6z"/><path d="M12 10.5a1.5 1.5 0 0 1-1.5 1.5A1.5 1.5 0 0 1 9 10.5 1.5 1.5 0 0 1 10.5 9a1.5 1.5 0 0 1 1.5 1.5zm-5 0A1.5 1.5 0 0 1 5.5 12 1.5 1.5 0 0 1 4 10.5 1.5 1.5 0 0 1 5.5 9 1.5 1.5 0 0 1 7 10.5zm0-4.984A1.5 1.516 0 0 1 5.5 7.03 1.5 1.516 0 0 1 4 5.516 1.5 1.516 0 0 1 5.5 4 1.5 1.516 0 0 1 7 5.516zm5-.016A1.5 1.5 0 0 1 10.5 7 1.5 1.5 0 0 1 9 5.5 1.5 1.5 0 0 1 10.5 4 1.5 1.5 0 0 1 12 5.5z"/><path d="M10.854 10.146l-.708.708 3.5 3.5.708-.708zm-5.708 0l-3.5 3.5.708.708 3.5-3.5zm8.52-8.453l-3.5 3.47.703.71 3.5-3.469zm-11.264.002l-.707.707L5.12 5.826l.707-.707z"/></g></svg>