<svg class="symbolic" viewbox="0 0 16 16" width="16" height="16"><g fill="#474747"><path d="M6 12a2 2 0 0 1-2 2 2 2 0 0 1-2-2 2 2 0 0 1 2-2 2 2 0 0 1 2 2z"/><path d="M2 6h1.014v1.014H2zm7.014 7.014H10V14h-.986zm4 0H14V14h-.986zM2 2h1.014v1.014H2z"/><path d="M3.014 8.014c2.774 0 5 2.227 5 5h2c0-3.854-3.145-7-7-7z"/><path d="M3.014 4.028a8.972 8.972 0 0 1 8.987 8.986h2C14 6.96 9.07 2.028 3.014 2.028z"/><path d="M4 7a1 1 0 0 1-1 1 1 1 0 0 1-1-1 1 1 0 0 1 1-1 1 1 0 0 1 1 1zm0-4a1 1 0 0 1-1 1 1 1 0 0 1-1-1 1 1 0 0 1 1-1 1 1 0 0 1 1 1zm6 10a1 1 0 0 1-1 1 1 1 0 0 1-1-1 1 1 0 0 1 1-1 1 1 0 0 1 1 1zm4 0a1 1 0 0 1-1 1 1 1 0 0 1-1-1 1 1 0 0 1 1-1 1 1 0 0 1 1 1z"/></g></svg>