<svg class="symbolic" viewbox="0 0 16 16" width="16.031" height="16.01"><g fill="#474747"><path d="M3.031 8a1 1 0 0 0-.707 1.707l5 5a1 1 0 0 0 1.414 0l5-5A1 1 0 0 0 13.031 8h-.5a1 1 0 0 0-.707.293l-3.793 3.793-3.793-3.793A1 1 0 0 0 3.531 8z"/><path d="M3.031 9V8h-1v1zm11 0V8h-1v1zm-5-.5v-1c0-.277-.223-.5-.5-.5h-1c-.277 0-.5.223-.5.5v1c0 .277.223.5.5.5h1c.277 0 .5-.223.5-.5zm0-3v-1c0-.277-.223-.5-.5-.5h-1c-.277 0-.5.223-.5.5v1c0 .277.223.5.5.5h1c.277 0 .5-.223.5-.5zm0-3v-1c0-.277-.223-.5-.5-.5h-1c-.277 0-.5.223-.5.5v1c0 .277.223.5.5.5h1c.277 0 .5-.223.5-.5z"/></g></svg>