<svg xmlns="http://www.w3.org/2000/svg" xmlns:svg="http://www.w3.org/2000/svg" xmlns:xlink="http://www.w3.org/1999/xlink" id="svg3660" width="603.159" height="329.5" version="1.1" viewBox="0 0 159.586 87.18"><defs id="defs3654"><clipPath id="clipPath56767" clipPathUnits="userSpaceOnUse"><path id="path56769" fill="#babdb6" stroke="none" stroke-width="1" d="M 228.45991,29.202459 H 1062.0337 V 319.48853 c -330.23641,0 -408.68316,175.76954 -833.57379,175.76954 z" color="#000" display="inline" enable-background="accumulate" overflow="visible" visibility="visible" style="marker:none"/></clipPath><linearGradient id="linearGradient4637" x1="29.09" x2="33.971" y1="11.773" y2="9.709" gradientUnits="userSpaceOnUse" xlink:href="#linearGradient5716-3-1-9"/><linearGradient id="linearGradient5716-3-1-9"><stop id="stop5718-0-3-4" offset="0" stop-color="#000" stop-opacity="1"/><stop id="stop5720-0-39-8" offset="1" stop-color="#484848" stop-opacity="1"/></linearGradient><clipPath id="clipPath6279-7-9-7-97-8" clipPathUnits="userSpaceOnUse"><rect id="rect6281-1-9-2-7-4" width="3.825" height="6.375" x="26.85" y="220.75" fill="#bebebe" fill-opacity="1" fill-rule="nonzero" stroke="none" stroke-width="2" color="#bebebe" display="inline" overflow="visible" visibility="visible" style="marker:none"/></clipPath><clipPath id="clipPath6265-3-4-4-6-1" clipPathUnits="userSpaceOnUse"><rect id="rect6267-1-9-2-7-4" width="2.898" height="5.216" x="26.966" y="221.33" fill="#bebebe" fill-opacity="1" fill-rule="nonzero" stroke="none" stroke-width="2" color="#bebebe" display="inline" overflow="visible" visibility="visible" style="marker:none"/></clipPath><clipPath id="clipPath6259-8-81-2-3-7" clipPathUnits="userSpaceOnUse"><rect id="rect6261-6-6-2-6-1" width="1.876" height="4.873" x="26.999" y="221.502" fill="#bebebe" fill-opacity="1" stroke="none" stroke-width="2" color="#bebebe" display="inline" overflow="visible" visibility="visible" style="marker:none"/></clipPath><linearGradient id="linearGradient4319" x1="29.09" x2="33.971" y1="11.773" y2="9.709" gradientUnits="userSpaceOnUse" xlink:href="#linearGradient5716-3-1-9"/></defs><metadata id="metadata3657"/><g id="layer1" transform="translate(82.06078,-114.31466)"><g id="g3546" clip-path="url(#clipPath56767)" display="inline" transform="matrix(0.19869767,0,0,0.19869767,-129.41856,103.08824)"><g id="g3524" display="inline" transform="matrix(4,0,0,4,172,-591)"><rect id="rect3504" width="16" height="16" x="20" y="276" fill="none" stroke="none" stroke-width="1" color="#bebebe" display="inline" overflow="visible" visibility="visible" style="marker:none"/><rect id="rect3506" width="2" height="2" x="23.062" y="279" fill="#000" fill-opacity="1" fill-rule="nonzero" stroke="none" stroke-width="1" color="#000" display="inline" enable-background="new" overflow="visible" rx=".385" ry=".379" visibility="visible" style="marker:none"/><rect id="rect3508" width="2" height="2" x="27.062" y="279" fill="#000" fill-opacity="1" fill-rule="nonzero" stroke="none" stroke-width="1" color="#000" display="inline" enable-background="new" overflow="visible" rx=".385" ry=".379" visibility="visible" style="marker:none"/><rect id="rect3510" width="2" height="2" x="31.062" y="279" fill="#000" fill-opacity="1" fill-rule="nonzero" stroke="none" stroke-width="1" color="#000" display="inline" enable-background="new" overflow="visible" rx=".385" ry=".379" visibility="visible" style="marker:none"/><rect id="rect3512" width="2" height="2" x="23.062" y="283.016" fill="#000" fill-opacity="1" fill-rule="nonzero" stroke="none" stroke-width="1" color="#000" display="inline" enable-background="new" overflow="visible" rx=".385" ry=".379" visibility="visible" style="marker:none"/><rect id="rect3514" width="2" height="2" x="27.062" y="283.016" fill="#000" fill-opacity="1" fill-rule="nonzero" stroke="none" stroke-width="1" color="#000" display="inline" enable-background="new" overflow="visible" rx=".385" ry=".379" visibility="visible" style="marker:none"/><rect id="rect3516" width="2" height="2" x="31.062" y="283.016" fill="#000" fill-opacity="1" fill-rule="nonzero" stroke="none" stroke-width="1" color="#000" display="inline" enable-background="new" overflow="visible" rx=".385" ry=".379" visibility="visible" style="marker:none"/><rect id="rect3518" width="2" height="2" x="23.062" y="287" fill="#000" fill-opacity="1" fill-rule="nonzero" stroke="none" stroke-width="1" color="#000" display="inline" enable-background="new" overflow="visible" rx=".385" ry=".379" visibility="visible" style="marker:none"/><rect id="rect3520" width="2" height="2" x="27.062" y="287" fill="#000" fill-opacity="1" fill-rule="nonzero" stroke="none" stroke-width="1" color="#000" display="inline" enable-background="new" overflow="visible" rx=".385" ry=".379" visibility="visible" style="marker:none"/><rect id="rect3522" width="2" height="2" x="31.062" y="287" fill="#000" fill-opacity="1" fill-rule="nonzero" stroke="none" stroke-width="1" color="#000" display="inline" enable-background="new" overflow="visible" rx=".385" ry=".379" visibility="visible" style="marker:none"/></g><path id="path3526" fill="#fff" fill-opacity="1" fill-rule="nonzero" stroke="none" stroke-width="3" d="m 239.06066,57.414214 h 800.87864 v 51.485276 c 0,0 -4.0279,-10.606597 -11.0989,-10.96015 L 249,99 c -4.59619,-0.353553 -9.93934,5.5 -9.93934,5.5 z" color="#000" display="inline" enable-background="new" overflow="visible" visibility="visible" style="marker:none"/><g id="g3542" transform="translate(11)"><rect id="rect3528" width="800" height="600" x="229" y="58" fill="#fff" stroke="#3584e4" stroke-dasharray="none" stroke-miterlimit="4" stroke-opacity="1" stroke-width="3" color="#000" display="inline" enable-background="new" overflow="visible" visibility="visible" style="marker:none"/><path id="path3530" fill="none" stroke="#3584e4" stroke-linecap="round" stroke-linejoin="miter" stroke-opacity="1" stroke-width="2.373" d="m 1028.199,108.766 c 0,-5.89806 -4.7813,-10.6794 -10.6794,-10.6794 H 239.52029 c -5.89809,0 -10.6794,4.78134 -10.6794,10.6794"/><text id="text3534" x="628.846" y="86.187" fill="#3584e4" fill-opacity="1" stroke="none" font-family="Cantarell" font-stretch="normal" font-style="normal" font-variant="normal" font-weight="bold" letter-spacing="0" text-anchor="middle" word-spacing="0" writing-mode="lr-tb" xml:space="preserve" style="line-height:0%;-inkscape-font-specification:'Cantarell Bold';text-align:center"><tspan style="line-height:1.25" id="tspan3532" x="628.846" y="86.187" fill="#3584e4" font-size="21.262">14:30</tspan></text><path id="path3536" fill="none" stroke="#3584e4" stroke-dasharray="none" stroke-linecap="square" stroke-linejoin="miter" stroke-miterlimit="4" stroke-opacity="1" stroke-width="5" d="M 370.5196,96.0866 H 240.52029 c -5.89809,0 -10.6794,4.78134 -10.6794,10.6794"/><text id="text3540" x="238.059" y="86.187" fill="#3584e4" fill-opacity="1" stroke="none" font-family="Cantarell" font-stretch="normal" font-style="normal" font-variant="normal" font-weight="bold" letter-spacing="0" text-anchor="start" word-spacing="0" writing-mode="lr-tb" xml:space="preserve" style="line-height:0%;-inkscape-font-specification:'Cantarell Bold';text-align:start"><tspan style="line-height:1.25" id="tspan3538" x="238.059" y="86.187" fill="#3584e4" font-size="21.262">Activities</tspan></text></g><rect id="rect3544" width="32.362" height="32.362" x="733.912" y="129.896" fill="none" stroke="none" stroke-width="2" color="#000" display="inline" enable-background="accumulate" opacity=".706" overflow="visible" visibility="visible" style="marker:none"/></g><g id="g3562" transform="matrix(0.43143154,0,0,0.43192959,-178.03547,12.949828)"><path id="path3548" fill="none" stroke="#3584e4" stroke-dashoffset=".95" stroke-linecap="square" stroke-linejoin="round" stroke-miterlimit="4" stroke-opacity="1" stroke-width=".613" d="M 303.00005,299.86277 290.66717,287.2 m -15.04774,-15.45025 -3.12986,-3.21358 4.94975,-4.94975 -18.38478,-1.41422 1.41422,18.38478 4.94975,-4.94975 7.67189,7.67189 m 7.625,7.625 23.2092,23.20921" color="#000" display="inline" enable-background="accumulate" overflow="visible" visibility="visible" style="marker:none"/><g id="g3554" display="inline" transform="translate(251.65245,268.27952)"><path id="path3550" fill="url(#linearGradient4319)" fill-opacity="1" fill-rule="nonzero" stroke="#fff" stroke-dasharray="none" stroke-dashoffset="0" stroke-linecap="butt" stroke-linejoin="miter" stroke-miterlimit="10" stroke-opacity="1" stroke-width=".613" d="M 26.604893,2.3179921 V 18.758225 l 3.712311,-3.623922 2.12132,4.331029 c 0.519598,1.171377 3.220861,0.229524 2.452777,-1.336875 l -2.099224,-4.496756 h 4.684582 z" color="#000" display="block" enable-background="accumulate" overflow="visible" visibility="visible" style="marker:none"/><path id="path3552" fill="#fff" fill-opacity="1" fill-rule="nonzero" stroke="#3584e4" stroke-dasharray="1.226 .613" stroke-dashoffset="0" stroke-linecap="butt" stroke-linejoin="miter" stroke-miterlimit="10" stroke-opacity="1" stroke-width=".613" d="M 26.604893,2.3179921 V 18.758225 l 3.712311,-3.623922 2.12132,4.331029 c 0.519598,1.171377 3.220861,0.229524 2.452777,-1.336875 l -2.099224,-4.496756 h 4.684582 z" color="#000" display="block" enable-background="accumulate" overflow="visible" visibility="visible" style="marker:none"/></g><g id="g3560" display="inline" transform="translate(281.65245,298.27952)"><path id="path3556" fill="url(#linearGradient4637)" fill-opacity="1" fill-rule="nonzero" stroke="#fff" stroke-dasharray="none" stroke-dashoffset="0" stroke-linecap="butt" stroke-linejoin="miter" stroke-miterlimit="10" stroke-opacity="1" stroke-width=".613" d="M 26.604893,2.3179921 V 18.758225 l 3.712311,-3.623922 2.12132,4.331029 c 0.519598,1.171377 3.220861,0.229524 2.452777,-1.336875 l -2.099224,-4.496756 h 4.684582 z" color="#000" display="block" enable-background="accumulate" overflow="visible" visibility="visible" style="marker:none"/><path id="path3558" fill="#fff" fill-opacity="1" fill-rule="nonzero" stroke="#3584e4" stroke-dasharray="1.226 .613" stroke-dashoffset="0" stroke-linecap="butt" stroke-linejoin="miter" stroke-miterlimit="10" stroke-opacity="1" stroke-width=".613" d="M 26.604893,2.3179921 V 18.758225 l 3.712311,-3.623922 2.12132,4.331029 c 0.519598,1.171377 3.220861,0.229524 2.452777,-1.336875 l -2.099224,-4.496756 h 4.684582 z" color="#000" display="block" enable-background="accumulate" overflow="visible" visibility="visible" style="marker:none"/></g></g><g id="g3584" transform="translate(-1083.1635,211.44096)"><path id="path3564" fill="#3584e4" fill-opacity="1" fill-rule="nonzero" stroke="none" stroke-width=".265" d="m 1143.9374,-93.49403 h 0.6573 l 0.7855,-0.79375 0.1447,0.004 v 2.91042 l -0.1258,2.2e-4 -0.8044,-0.7981 h -0.6573 z" color="#bebebe" display="inline" overflow="visible" visibility="visible" style="marker:none"/><path id="path3566" fill="#3584e4" fill-opacity="1" fill-rule="nonzero" stroke="none" stroke-dasharray="none" stroke-dashoffset="0" stroke-linecap="round" stroke-linejoin="miter" stroke-miterlimit="4" stroke-opacity="1" stroke-width="2.55" d="m 27.177734,220.39648 a 1.2751275,1.2751275 0 0 0 -0.888672,2.18946 c 0.35901,0.35901 0.560547,0.84384 0.560547,1.35156 0,0.50772 -0.201537,0.99255 -0.560547,1.35156 a 1.2761078,1.2761078 0 1 0 1.804688,1.80469 c 0.836535,-0.83653 1.306641,-1.97321 1.306641,-3.15625 0,-1.18304 -0.470106,-2.31972 -1.306641,-3.15625 a 1.2751275,1.2751275 0 0 0 -0.916016,-0.38477 z" baseline-shift="baseline" clip-path="url(#clipPath6279-7-9-7-97-8)" clip-rule="nonzero" color="#000" color-interpolation="sRGB" color-interpolation-filters="linearRGB" color-rendering="auto" direction="ltr" display="inline" dominant-baseline="auto" enable-background="accumulate" font-family="sans-serif" font-size="medium" font-stretch="normal" font-style="normal" font-variant="normal" font-weight="normal" image-rendering="auto" letter-spacing="normal" opacity="1" overflow="visible" shape-rendering="auto" text-anchor="start" text-decoration="none" text-rendering="auto" transform="matrix(0.20751641,0,0,0.20751641,1140.2176,-139.30325)" vector-effect="none" visibility="visible" word-spacing="normal" writing-mode="lr-tb" style="line-height:normal;font-variant-ligatures:normal;font-variant-position:normal;font-variant-caps:normal;font-variant-numeric:normal;font-variant-alternates:normal;font-feature-settings:normal;text-indent:0;text-align:start;text-decoration-line:none;text-decoration-style:solid;text-decoration-color:#000;text-transform:none;text-orientation:mixed;white-space:normal;shape-padding:0;isolation:auto;mix-blend-mode:normal;solid-color:#000;solid-opacity:1"/><path id="path3568" fill="#3584e4" fill-opacity="1" fill-rule="nonzero" stroke="none" stroke-dasharray="none" stroke-dashoffset="0" stroke-linecap="round" stroke-linejoin="miter" stroke-miterlimit="4" stroke-opacity="1" stroke-width="1.159" d="m 27.185547,221.09766 a 0.57960298,0.57960298 0 0 0 -0.404297,0.99609 c 0.489244,0.48924 0.763672,1.15185 0.763672,1.84375 0,0.6919 -0.274428,1.35451 -0.763672,1.84375 a 0.58004747,0.58004747 0 1 0 0.820312,0.82031 c 0.706301,-0.7063 1.103516,-1.6652 1.103516,-2.66406 0,-0.99886 -0.397215,-1.95776 -1.103516,-2.66406 a 0.57960298,0.57960298 0 0 0 -0.416015,-0.17578 z" baseline-shift="baseline" clip-path="url(#clipPath6265-3-4-4-6-1)" clip-rule="nonzero" color="#000" color-interpolation="sRGB" color-interpolation-filters="linearRGB" color-rendering="auto" direction="ltr" display="inline" dominant-baseline="auto" enable-background="accumulate" font-family="sans-serif" font-size="medium" font-stretch="normal" font-style="normal" font-variant="normal" font-weight="normal" image-rendering="auto" letter-spacing="normal" opacity="1" overflow="visible" shape-rendering="auto" text-anchor="start" text-decoration="none" text-rendering="auto" transform="matrix(0.45653589,0,0,0.45653589,1134.0077,-195.0681)" vector-effect="none" visibility="visible" word-spacing="normal" writing-mode="lr-tb" style="line-height:normal;font-variant-ligatures:normal;font-variant-position:normal;font-variant-caps:normal;font-variant-numeric:normal;font-variant-alternates:normal;font-feature-settings:normal;text-indent:0;text-align:start;text-decoration-line:none;text-decoration-style:solid;text-decoration-color:#000;text-transform:none;text-orientation:mixed;white-space:normal;shape-padding:0;isolation:auto;mix-blend-mode:normal;solid-color:#000;solid-opacity:1"/><path id="path3570" fill="#3584e4" fill-opacity="1" fill-rule="nonzero" stroke="none" stroke-dasharray="none" stroke-dashoffset="0" stroke-linecap="round" stroke-linejoin="miter" stroke-miterlimit="4" stroke-opacity="1" stroke-width=".75" d="m 27.1875,221.30469 a 0.3750375,0.3750375 0 0 0 -0.261719,0.64453 c 0.527548,0.52755 0.824219,1.24221 0.824219,1.98828 0,0.74607 -0.296671,1.46073 -0.824219,1.98828 a 0.37565048,0.37565048 0 1 0 0.53125,0.53125 C 28.125028,225.78903 28.5,224.88219 28.5,223.9375 c 0,-0.94469 -0.374972,-1.85153 -1.042969,-2.51953 A 0.3750375,0.3750375 0 0 0 27.1875,221.30469 Z" baseline-shift="baseline" clip-path="url(#clipPath6259-8-81-2-3-7)" clip-rule="nonzero" color="#000" color-interpolation="sRGB" color-interpolation-filters="linearRGB" color-rendering="auto" direction="ltr" display="inline" dominant-baseline="auto" enable-background="accumulate" font-family="sans-serif" font-size="medium" font-stretch="normal" font-style="normal" font-variant="normal" font-weight="normal" image-rendering="auto" letter-spacing="normal" opacity=".35" overflow="visible" shape-rendering="auto" text-anchor="start" text-decoration="none" text-rendering="auto" transform="matrix(0.70555643,0,0,0.70555643,1127.7978,-250.83274)" vector-effect="none" visibility="visible" word-spacing="normal" writing-mode="lr-tb" style="line-height:normal;font-variant-ligatures:normal;font-variant-position:normal;font-variant-caps:normal;font-variant-numeric:normal;font-variant-alternates:normal;font-feature-settings:normal;text-indent:0;text-align:start;text-decoration-line:none;text-decoration-style:solid;text-decoration-color:#000;text-transform:none;text-orientation:mixed;white-space:normal;shape-padding:0;isolation:auto;mix-blend-mode:normal;solid-color:#000;solid-opacity:1"/><path id="path3572" fill="#3584e4" fill-opacity="1" fill-rule="nonzero" stroke="none" stroke-dasharray="none" stroke-dashoffset="0" stroke-linecap="round" stroke-linejoin="miter" stroke-miterlimit="4" stroke-opacity="1" stroke-width=".529" d="m 1150.5623,-94.34073 a 0.26460982,0.26460982 0 0 0 -0.144,0.0373 c -0.7236,0.41878 -1.0776,1.27435 -0.8615,2.08206 0.2161,0.80771 0.9503,1.3718 1.7863,1.37303 0.8361,10e-4 1.5714,-0.56053 1.7899,-1.3676 0.2185,-0.80707 -0.133,-1.66387 -0.8554,-2.08477 a 0.26460982,0.26460982 0 1 0 -0.2662,0.45716 c 0.5178,0.30171 0.7675,0.91045 0.6109,1.48907 -0.1567,0.57862 -0.6791,0.97807 -1.2784,0.97719 -0.5992,-8.8e-4 -1.1206,-0.40161 -1.2756,-0.98069 -0.155,-0.57908 0.096,-1.18732 0.6151,-1.48751 a 0.26460982,0.26460982 0 0 0 -0.1211,-0.49519 z" baseline-shift="baseline" clip-rule="nonzero" color="#000" color-interpolation="sRGB" color-interpolation-filters="linearRGB" color-rendering="auto" direction="ltr" display="inline" dominant-baseline="auto" enable-background="accumulate" font-family="sans-serif" font-size="medium" font-stretch="normal" font-style="normal" font-variant="normal" font-weight="normal" image-rendering="auto" letter-spacing="normal" opacity="1" overflow="visible" shape-rendering="auto" text-anchor="start" text-decoration="none" text-rendering="auto" vector-effect="none" visibility="visible" word-spacing="normal" writing-mode="lr-tb" style="line-height:normal;font-variant-ligatures:normal;font-variant-position:normal;font-variant-caps:normal;font-variant-numeric:normal;font-variant-alternates:normal;font-feature-settings:normal;text-indent:0;text-align:start;text-decoration-line:none;text-decoration-style:solid;text-decoration-color:#000;text-transform:none;text-orientation:mixed;white-space:normal;shape-padding:0;isolation:auto;mix-blend-mode:normal;solid-color:#000;solid-opacity:1;marker:none"/><path id="path3574" fill="#3584e4" fill-opacity="1" fill-rule="nonzero" stroke="none" stroke-dasharray="none" stroke-dashoffset="0" stroke-linecap="round" stroke-linejoin="miter" stroke-miterlimit="4" stroke-opacity="1" stroke-width=".529" d="m 1151.3416,-94.82079 a 0.26460982,0.26460982 0 0 0 -0.2604,0.26855 v 1.32297 a 0.26460982,0.26460982 0 1 0 0.5289,0 v -1.32297 a 0.26460982,0.26460982 0 0 0 -0.2685,-0.26855 z" baseline-shift="baseline" clip-rule="nonzero" color="#000" color-interpolation="sRGB" color-interpolation-filters="linearRGB" color-rendering="auto" direction="ltr" display="inline" dominant-baseline="auto" enable-background="accumulate" font-family="sans-serif" font-size="medium" font-stretch="normal" font-style="normal" font-variant="normal" font-weight="normal" image-rendering="auto" letter-spacing="normal" opacity="1" overflow="visible" shape-rendering="auto" text-anchor="start" text-decoration="none" text-rendering="auto" vector-effect="none" visibility="visible" word-spacing="normal" writing-mode="lr-tb" style="line-height:normal;font-variant-ligatures:normal;font-variant-position:normal;font-variant-caps:normal;font-variant-numeric:normal;font-variant-alternates:normal;font-feature-settings:normal;text-indent:0;text-align:start;text-decoration-line:none;text-decoration-style:solid;text-decoration-color:#000;text-transform:none;text-orientation:mixed;white-space:normal;shape-padding:0;isolation:auto;mix-blend-mode:normal;solid-color:#000;solid-opacity:1"/><path id="path3576" fill="#3584e4" fill-opacity="1" stroke="none" stroke-width=".529" d="m 1139.128,-94.53059 c -0.2519,0 -0.463,0.21109 -0.463,0.46303 v 1.19062 c 0,0.25194 0.2111,0.46302 0.463,0.46302 h 0.033 l -0.2067,0.41341 -0.1902,0.38034 h 0.43 1.5875 0.4299 l -0.1901,-0.38034 -0.2067,-0.41341 h 0.033 c 0.2519,0 0.463,-0.21108 0.463,-0.46302 v -1.19062 c 0,-0.25194 -0.2111,-0.46303 -0.463,-0.46303 z m 0.066,0.52917 h 1.5875 v 1.05833 h -1.5875 z" baseline-shift="baseline" color="#bebebe" direction="ltr" display="inline" enable-background="accumulate" font-family="Sans" font-size="medium" font-stretch="normal" font-style="normal" font-variant="normal" font-weight="normal" letter-spacing="normal" overflow="visible" text-anchor="start" text-decoration="none" visibility="visible" word-spacing="normal" writing-mode="lr-tb" style="line-height:normal;-inkscape-font-specification:Sans;text-indent:0;text-align:start;text-decoration-line:none;text-transform:none;marker:none"/><path id="path3578" fill="#3584e4" fill-opacity="1" fill-rule="nonzero" stroke="none" stroke-dasharray="none" stroke-dashoffset="0" stroke-linecap="butt" stroke-linejoin="miter" stroke-miterlimit="4" stroke-opacity="1" stroke-width=".529" d="m 1139.7232,-92.14924 v 1.0583 h 0.5293 v -1.0583 z" baseline-shift="baseline" clip-rule="nonzero" color="#bebebe" color-interpolation="sRGB" color-interpolation-filters="linearRGB" color-rendering="auto" direction="ltr" display="inline" dominant-baseline="auto" enable-background="accumulate" font-family="sans-serif" font-size="medium" font-stretch="normal" font-style="normal" font-variant="normal" font-weight="normal" image-rendering="auto" letter-spacing="normal" opacity="1" overflow="visible" shape-rendering="auto" text-anchor="start" text-decoration="none" text-rendering="auto" vector-effect="none" visibility="visible" word-spacing="normal" writing-mode="lr-tb" style="line-height:normal;font-variant-ligatures:normal;font-variant-position:normal;font-variant-caps:normal;font-variant-numeric:normal;font-variant-alternates:normal;font-feature-settings:normal;text-indent:0;text-align:start;text-decoration-line:none;text-decoration-style:solid;text-decoration-color:#000;text-transform:none;text-orientation:mixed;white-space:normal;shape-padding:0;isolation:auto;mix-blend-mode:normal;solid-color:#000;solid-opacity:1;marker:none"/><path id="path3580" fill="#3584e4" fill-opacity="1" fill-rule="nonzero" stroke="none" stroke-dasharray="none" stroke-dashoffset="0" stroke-linecap="butt" stroke-linejoin="miter" stroke-miterlimit="4" stroke-opacity="1" stroke-width=".529" d="m 1138.4002,-91.09094 v 0.52896 h 3.1753 v -0.52896 z" baseline-shift="baseline" clip-rule="nonzero" color="#bebebe" color-interpolation="sRGB" color-interpolation-filters="linearRGB" color-rendering="auto" direction="ltr" display="inline" dominant-baseline="auto" enable-background="accumulate" font-family="sans-serif" font-size="medium" font-stretch="normal" font-style="normal" font-variant="normal" font-weight="normal" image-rendering="auto" letter-spacing="normal" opacity="1" overflow="visible" shape-rendering="auto" text-anchor="start" text-decoration="none" text-rendering="auto" vector-effect="none" visibility="visible" word-spacing="normal" writing-mode="lr-tb" style="line-height:normal;font-variant-ligatures:normal;font-variant-position:normal;font-variant-caps:normal;font-variant-numeric:normal;font-variant-alternates:normal;font-feature-settings:normal;text-indent:0;text-align:start;text-decoration-line:none;text-decoration-style:solid;text-decoration-color:#000;text-transform:none;text-orientation:mixed;white-space:normal;shape-padding:0;isolation:auto;mix-blend-mode:normal;solid-color:#000;solid-opacity:1;marker:none"/><path id="path3582" fill="#3584e4" fill-opacity="1" stroke="none" stroke-width=".794" d="m 1157.1949,-92.59014 -0.9922,0.99219 -0.9921,-0.99219 z" color="#000" display="inline" enable-background="accumulate" overflow="visible" visibility="visible" style="marker:none"/></g></g></svg>