<svg xmlns="http://www.w3.org/2000/svg" xmlns:svg="http://www.w3.org/2000/svg" id="svg3660" width="603.159" height="329.5" version="1.1" viewBox="0 0 159.586 87.18"><defs id="defs3654"><clipPath id="clipPath56767" clipPathUnits="userSpaceOnUse"><path id="path56769" fill="#babdb6" stroke="none" stroke-width="1" d="M 228.45991,29.202459 H 1062.0337 V 319.48853 c -330.23641,0 -408.68316,175.76954 -833.57379,175.76954 z" color="#000" display="inline" enable-background="accumulate" overflow="visible" visibility="visible" style="marker:none"/></clipPath><linearGradient id="linearGradient5716-3-1-9"><stop id="stop5718-0-3-4" offset="0" stop-color="#000" stop-opacity="1"/><stop id="stop5720-0-39-8" offset="1" stop-color="#484848" stop-opacity="1"/></linearGradient><clipPath id="clipPath6279-7-9-7-97-8" clipPathUnits="userSpaceOnUse"><rect id="rect6281-1-9-2-7-4" width="3.825" height="6.375" x="26.85" y="220.75" fill="#bebebe" fill-opacity="1" fill-rule="nonzero" stroke="none" stroke-width="2" color="#bebebe" display="inline" overflow="visible" visibility="visible" style="marker:none"/></clipPath><clipPath id="clipPath6265-3-4-4-6-1" clipPathUnits="userSpaceOnUse"><rect id="rect6267-1-9-2-7-4" width="2.898" height="5.216" x="26.966" y="221.33" fill="#bebebe" fill-opacity="1" fill-rule="nonzero" stroke="none" stroke-width="2" color="#bebebe" display="inline" overflow="visible" visibility="visible" style="marker:none"/></clipPath><clipPath id="clipPath6259-8-81-2-3-7" clipPathUnits="userSpaceOnUse"><rect id="rect6261-6-6-2-6-1" width="1.876" height="4.873" x="26.999" y="221.502" fill="#bebebe" fill-opacity="1" stroke="none" stroke-width="2" color="#bebebe" display="inline" overflow="visible" visibility="visible" style="marker:none"/></clipPath><clipPath id="clipPath56767-9" clipPathUnits="userSpaceOnUse"><path id="path56769-1" fill="#babdb6" stroke="none" stroke-width="1" d="M 228.45991,29.202459 H 1062.0337 V 319.48853 c -330.23641,0 -408.68316,175.76954 -833.57379,175.76954 z" color="#000" display="inline" enable-background="accumulate" overflow="visible" visibility="visible" style="marker:none"/></clipPath><clipPath id="clipPath6279-7-9-7-97" clipPathUnits="userSpaceOnUse"><rect id="rect6281-1-9-2-7" width="3.825" height="6.375" x="26.85" y="220.75" fill="#bebebe" fill-opacity="1" fill-rule="nonzero" stroke="none" stroke-width="2" color="#bebebe" display="inline" overflow="visible" visibility="visible" style="marker:none"/></clipPath><clipPath id="clipPath6265-3-4-4-6" clipPathUnits="userSpaceOnUse"><rect id="rect6267-1-9-2-7" width="2.898" height="5.216" x="26.966" y="221.33" fill="#bebebe" fill-opacity="1" fill-rule="nonzero" stroke="none" stroke-width="2" color="#bebebe" display="inline" overflow="visible" visibility="visible" style="marker:none"/></clipPath><clipPath id="clipPath6259-8-81-2-3" clipPathUnits="userSpaceOnUse"><rect id="rect6261-6-6-2-6" width="1.876" height="4.873" x="26.999" y="221.502" fill="#bebebe" fill-opacity="1" stroke="none" stroke-width="2" color="#bebebe" display="inline" overflow="visible" visibility="visible" style="marker:none"/></clipPath><clipPath id="clipPath987-6" clipPathUnits="userSpaceOnUse"><circle id="circle989-3" cx="64" cy="236" r="60" fill="#3584e4" fill-opacity="1" stroke="none" stroke-dasharray="none" stroke-dashoffset="0" stroke-linecap="butt" stroke-linejoin="miter" stroke-miterlimit="4" stroke-opacity="1" stroke-width="4.286" marker-end="none" marker-mid="none" marker-start="none" display="inline" enable-background="new" opacity="1" paint-order="normal" style="marker:none"/></clipPath></defs><metadata id="metadata3657"/><g id="layer1" transform="translate(82.06078,-114.31466)"><g id="g4554" transform="translate(-1078.3466,55.456551)"><g id="g4419" clip-path="none" mask="none" transform="matrix(0.26458333,0,0,0.26458333,964.93847,-105.58043)"><g id="g4415" clip-path="url(#clipPath56767-9)" display="inline" transform="matrix(0.75098334,0,0,0.75098334,-60.56959,579.06944)"><rect id="rect4359" width="800" height="600" x="240" y="58" fill="#fff" stroke="#3584e4" stroke-dasharray="none" stroke-miterlimit="4" stroke-opacity="1" stroke-width="3" color="#000" display="inline" enable-background="new" overflow="visible" visibility="visible" style="marker:none"/><g id="g4381" display="inline" transform="matrix(4,0,0,4,172,-591)"><rect id="rect4361" width="16" height="16" x="20" y="276" fill="none" stroke="none" stroke-width="1" color="#bebebe" display="inline" overflow="visible" visibility="visible" style="marker:none"/><rect id="rect4363" width="2" height="2" x="23.062" y="279" fill="#000" fill-opacity="1" fill-rule="nonzero" stroke="none" stroke-width="1" color="#000" display="inline" enable-background="new" overflow="visible" rx=".385" ry=".379" visibility="visible" style="marker:none"/><rect id="rect4365" width="2" height="2" x="27.062" y="279" fill="#000" fill-opacity="1" fill-rule="nonzero" stroke="none" stroke-width="1" color="#000" display="inline" enable-background="new" overflow="visible" rx=".385" ry=".379" visibility="visible" style="marker:none"/><rect id="rect4367" width="2" height="2" x="31.062" y="279" fill="#000" fill-opacity="1" fill-rule="nonzero" stroke="none" stroke-width="1" color="#000" display="inline" enable-background="new" overflow="visible" rx=".385" ry=".379" visibility="visible" style="marker:none"/><rect id="rect4369" width="2" height="2" x="23.062" y="283.016" fill="#000" fill-opacity="1" fill-rule="nonzero" stroke="none" stroke-width="1" color="#000" display="inline" enable-background="new" overflow="visible" rx=".385" ry=".379" visibility="visible" style="marker:none"/><rect id="rect4371" width="2" height="2" x="27.062" y="283.016" fill="#000" fill-opacity="1" fill-rule="nonzero" stroke="none" stroke-width="1" color="#000" display="inline" enable-background="new" overflow="visible" rx=".385" ry=".379" visibility="visible" style="marker:none"/><rect id="rect4373" width="2" height="2" x="31.062" y="283.016" fill="#000" fill-opacity="1" fill-rule="nonzero" stroke="none" stroke-width="1" color="#000" display="inline" enable-background="new" overflow="visible" rx=".385" ry=".379" visibility="visible" style="marker:none"/><rect id="rect4375" width="2" height="2" x="23.062" y="287" fill="#000" fill-opacity="1" fill-rule="nonzero" stroke="none" stroke-width="1" color="#000" display="inline" enable-background="new" overflow="visible" rx=".385" ry=".379" visibility="visible" style="marker:none"/><rect id="rect4377" width="2" height="2" x="27.062" y="287" fill="#000" fill-opacity="1" fill-rule="nonzero" stroke="none" stroke-width="1" color="#000" display="inline" enable-background="new" overflow="visible" rx=".385" ry=".379" visibility="visible" style="marker:none"/><rect id="rect4379" width="2" height="2" x="31.062" y="287" fill="#000" fill-opacity="1" fill-rule="nonzero" stroke="none" stroke-width="1" color="#000" display="inline" enable-background="new" overflow="visible" rx=".385" ry=".379" visibility="visible" style="marker:none"/></g><path id="path4383" fill="#fff" fill-opacity="1" fill-rule="nonzero" stroke="none" stroke-width="3" d="m 239.06066,57.414214 h 800.87864 v 51.485276 c 0,0 -4.0279,-10.606597 -11.0989,-10.96015 L 249,99 c -4.59619,-0.353553 -9.93934,5.5 -9.93934,5.5 z" color="#000" display="inline" enable-background="new" overflow="visible" visibility="visible" style="marker:none"/><path id="path4385" fill="none" stroke="#3584e4" stroke-linecap="round" stroke-linejoin="miter" stroke-opacity="1" stroke-width="2.373" d="m 1039.199,108.766 c 0,-5.89806 -4.7813,-10.6794 -10.6794,-10.6794 H 250.52029 c -5.89809,0 -10.6794,4.78134 -10.6794,10.6794"/><text id="text4389" x="639.846" y="86.187" fill="#3584e4" fill-opacity="1" stroke="none" font-family="Cantarell" font-stretch="normal" font-style="normal" font-variant="normal" font-weight="bold" letter-spacing="0" text-anchor="middle" word-spacing="0" writing-mode="lr-tb" xml:space="preserve" style="line-height:0%;-inkscape-font-specification:'Cantarell Bold';text-align:center"><tspan id="tspan4387" x="639.846" y="86.187" fill="#3584e4" font-size="21.262" style="line-height:1.25">14:30</tspan></text><text id="text4393" x="249.059" y="86.187" fill="#3584e4" fill-opacity="1" stroke="none" font-family="Cantarell" font-stretch="normal" font-style="normal" font-variant="normal" font-weight="bold" letter-spacing="0" text-anchor="start" word-spacing="0" writing-mode="lr-tb" xml:space="preserve" style="line-height:0%;-inkscape-font-specification:'Cantarell Bold';text-align:start"><tspan id="tspan4391" x="249.059" y="86.187" fill="#3584e4" font-size="21.262" style="line-height:1.25">Activities</tspan></text><path id="path4395" fill="#3584e4" fill-opacity="1" fill-rule="nonzero" stroke="none" stroke-width="1.332" d="m 961.3789,75.087415 h 3.30816 l 3.95316,-3.994763 0.7282,0.02077 v 14.647463 l -0.63289,0.0011 -4.04847,-4.016641 h -3.30816 z" color="#bebebe" display="inline" overflow="visible" visibility="visible" style="marker:none"/><path dominant-baseline="auto" style="line-height:normal;font-variant-ligatures:normal;font-variant-position:normal;font-variant-caps:normal;font-variant-numeric:normal;font-variant-alternates:normal;font-feature-settings:normal;text-indent:0;text-align:start;text-decoration-line:none;text-decoration-style:solid;text-decoration-color:#000;text-transform:none;text-orientation:mixed;white-space:normal;shape-padding:0;isolation:auto;mix-blend-mode:normal;solid-color:#000;solid-opacity:1" id="path4397" fill="#3584e4" fill-opacity="1" fill-rule="nonzero" stroke="none" stroke-dasharray="none" stroke-dashoffset="0" stroke-linecap="round" stroke-linejoin="miter" stroke-miterlimit="4" stroke-opacity="1" stroke-width="2.55" d="m 27.177734,220.39648 a 1.2751275,1.2751275 0 0 0 -0.888672,2.18946 c 0.35901,0.35901 0.560547,0.84384 0.560547,1.35156 0,0.50772 -0.201537,0.99255 -0.560547,1.35156 a 1.2761078,1.2761078 0 1 0 1.804688,1.80469 c 0.836535,-0.83653 1.306641,-1.97321 1.306641,-3.15625 0,-1.18304 -0.470106,-2.31972 -1.306641,-3.15625 a 1.2751275,1.2751275 0 0 0 -0.916016,-0.38477 z" baseline-shift="baseline" clip-path="url(#clipPath6279-7-9-7-97)" clip-rule="nonzero" color="#000" color-interpolation="sRGB" color-interpolation-filters="linearRGB" color-rendering="auto" direction="ltr" display="inline" enable-background="accumulate" font-family="sans-serif" font-size="medium" font-stretch="normal" font-style="normal" font-variant="normal" font-weight="normal" image-rendering="auto" letter-spacing="normal" opacity="1" overflow="visible" shape-rendering="auto" text-anchor="start" text-decoration="none" text-rendering="auto" transform="matrix(1.0443827,0,0,1.0443827,942.65835,-155.45992)" vector-effect="none" visibility="visible" word-spacing="normal" writing-mode="lr-tb"/><path dominant-baseline="auto" style="line-height:normal;font-variant-ligatures:normal;font-variant-position:normal;font-variant-caps:normal;font-variant-numeric:normal;font-variant-alternates:normal;font-feature-settings:normal;text-indent:0;text-align:start;text-decoration-line:none;text-decoration-style:solid;text-decoration-color:#000;text-transform:none;text-orientation:mixed;white-space:normal;shape-padding:0;isolation:auto;mix-blend-mode:normal;solid-color:#000;solid-opacity:1" id="path4399" fill="#3584e4" fill-opacity="1" fill-rule="nonzero" stroke="none" stroke-dasharray="none" stroke-dashoffset="0" stroke-linecap="round" stroke-linejoin="miter" stroke-miterlimit="4" stroke-opacity="1" stroke-width="1.159" d="m 27.185547,221.09766 a 0.57960298,0.57960298 0 0 0 -0.404297,0.99609 c 0.489244,0.48924 0.763672,1.15185 0.763672,1.84375 0,0.6919 -0.274428,1.35451 -0.763672,1.84375 a 0.58004747,0.58004747 0 1 0 0.820312,0.82031 c 0.706301,-0.7063 1.103516,-1.6652 1.103516,-2.66406 0,-0.99886 -0.397215,-1.95776 -1.103516,-2.66406 a 0.57960298,0.57960298 0 0 0 -0.416015,-0.17578 z" baseline-shift="baseline" clip-path="url(#clipPath6265-3-4-4-6)" clip-rule="nonzero" color="#000" color-interpolation="sRGB" color-interpolation-filters="linearRGB" color-rendering="auto" direction="ltr" display="inline" enable-background="accumulate" font-family="sans-serif" font-size="medium" font-stretch="normal" font-style="normal" font-variant="normal" font-weight="normal" image-rendering="auto" letter-spacing="normal" opacity="1" overflow="visible" shape-rendering="auto" text-anchor="start" text-decoration="none" text-rendering="auto" transform="matrix(2.2976409,0,0,2.2976409,911.40522,-436.11169)" vector-effect="none" visibility="visible" word-spacing="normal" writing-mode="lr-tb"/><path dominant-baseline="auto" style="line-height:normal;font-variant-ligatures:normal;font-variant-position:normal;font-variant-caps:normal;font-variant-numeric:normal;font-variant-alternates:normal;font-feature-settings:normal;text-indent:0;text-align:start;text-decoration-line:none;text-decoration-style:solid;text-decoration-color:#000;text-transform:none;text-orientation:mixed;white-space:normal;shape-padding:0;isolation:auto;mix-blend-mode:normal;solid-color:#000;solid-opacity:1" id="path4401" fill="#3584e4" fill-opacity="1" fill-rule="nonzero" stroke="none" stroke-dasharray="none" stroke-dashoffset="0" stroke-linecap="round" stroke-linejoin="miter" stroke-miterlimit="4" stroke-opacity="1" stroke-width=".75" d="m 27.1875,221.30469 a 0.3750375,0.3750375 0 0 0 -0.261719,0.64453 c 0.527548,0.52755 0.824219,1.24221 0.824219,1.98828 0,0.74607 -0.296671,1.46073 -0.824219,1.98828 a 0.37565048,0.37565048 0 1 0 0.53125,0.53125 C 28.125028,225.78903 28.5,224.88219 28.5,223.9375 c 0,-0.94469 -0.374972,-1.85153 -1.042969,-2.51953 A 0.3750375,0.3750375 0 0 0 27.1875,221.30469 Z" baseline-shift="baseline" clip-path="url(#clipPath6259-8-81-2-3)" clip-rule="nonzero" color="#000" color-interpolation="sRGB" color-interpolation-filters="linearRGB" color-rendering="auto" direction="ltr" display="inline" enable-background="accumulate" font-family="sans-serif" font-size="medium" font-stretch="normal" font-style="normal" font-variant="normal" font-weight="normal" image-rendering="auto" letter-spacing="normal" opacity=".35" overflow="visible" shape-rendering="auto" text-anchor="start" text-decoration="none" text-rendering="auto" transform="matrix(3.5509044,0,0,3.5509044,880.15206,-716.7624)" vector-effect="none" visibility="visible" word-spacing="normal" writing-mode="lr-tb"/><path id="path4403" fill="#3584e4" fill-opacity="1" fill-rule="nonzero" stroke="none" stroke-dasharray="none" stroke-dashoffset="0" stroke-linecap="round" stroke-linejoin="miter" stroke-miterlimit="4" stroke-opacity="1" stroke-width="2.663" d="m 994.7207,70.826172 a 1.3317207,1.3317207 0 0 0 -0.72461,0.1875 c -3.64177,2.10759 -5.42372,6.413496 -4.33593,10.478516 1.08779,4.065019 4.78271,6.903972 8.99023,6.910156 4.20751,0.0062 7.90811,-2.821007 9.00781,-6.882813 1.0997,-4.061805 -0.6691,-8.373902 -4.3047,-10.492187 a 1.3317207,1.3317207 0 1 0 -1.3398,2.300781 c 2.606,1.518439 3.8626,4.58207 3.0742,7.494141 -0.7885,2.91207 -3.4177,4.922401 -6.4336,4.917968 -3.01587,-0.0044 -5.64004,-2.02117 -6.41992,-4.935546 -0.77989,-2.914377 0.48519,-5.975557 3.0957,-7.486329 a 1.3317207,1.3317207 0 0 0 -0.60938,-2.492187 z" baseline-shift="baseline" clip-rule="nonzero" color="#000" color-interpolation="sRGB" color-interpolation-filters="linearRGB" color-rendering="auto" direction="ltr" display="inline" dominant-baseline="auto" enable-background="accumulate" font-family="sans-serif" font-size="medium" font-stretch="normal" font-style="normal" font-variant="normal" font-weight="normal" image-rendering="auto" letter-spacing="normal" opacity="1" overflow="visible" shape-rendering="auto" text-anchor="start" text-decoration="none" text-rendering="auto" vector-effect="none" visibility="visible" word-spacing="normal" writing-mode="lr-tb" style="line-height:normal;font-variant-ligatures:normal;font-variant-position:normal;font-variant-caps:normal;font-variant-numeric:normal;font-variant-alternates:normal;font-feature-settings:normal;text-indent:0;text-align:start;text-decoration-line:none;text-decoration-style:solid;text-decoration-color:#000;text-transform:none;text-orientation:mixed;white-space:normal;shape-padding:0;isolation:auto;mix-blend-mode:normal;solid-color:#000;solid-opacity:1;marker:none"/><path id="path4405" fill="#3584e4" fill-opacity="1" fill-rule="nonzero" stroke="none" stroke-dasharray="none" stroke-dashoffset="0" stroke-linecap="round" stroke-linejoin="miter" stroke-miterlimit="4" stroke-opacity="1" stroke-width="2.663" d="m 998.64258,68.410156 a 1.3317207,1.3317207 0 0 0 -1.31055,1.351563 v 6.658203 a 1.3317207,1.3317207 0 1 0 2.66211,0 v -6.658203 a 1.3317207,1.3317207 0 0 0 -1.35156,-1.351563 z" baseline-shift="baseline" clip-rule="nonzero" color="#000" color-interpolation="sRGB" color-interpolation-filters="linearRGB" color-rendering="auto" direction="ltr" display="inline" dominant-baseline="auto" enable-background="accumulate" font-family="sans-serif" font-size="medium" font-stretch="normal" font-style="normal" font-variant="normal" font-weight="normal" image-rendering="auto" letter-spacing="normal" opacity="1" overflow="visible" shape-rendering="auto" text-anchor="start" text-decoration="none" text-rendering="auto" vector-effect="none" visibility="visible" word-spacing="normal" writing-mode="lr-tb" style="line-height:normal;font-variant-ligatures:normal;font-variant-position:normal;font-variant-caps:normal;font-variant-numeric:normal;font-variant-alternates:normal;font-feature-settings:normal;text-indent:0;text-align:start;text-decoration-line:none;text-decoration-style:solid;text-decoration-color:#000;text-transform:none;text-orientation:mixed;white-space:normal;shape-padding:0;isolation:auto;mix-blend-mode:normal;solid-color:#000;solid-opacity:1"/><path id="path4407" fill="#3584e4" fill-opacity="1" stroke="none" stroke-width="2.663" d="m 937.17445,69.87069 c -1.26794,0 -2.33028,1.062341 -2.33028,2.330278 v 5.992144 c 0,1.267937 1.06234,2.330278 2.33028,2.330278 h 0.16645 l -1.0403,2.080605 -0.95708,1.914158 h 2.16383 7.98952 2.16383 l -0.95708,-1.914158 -1.0403,-2.080605 h 0.16645 c 1.26794,0 2.33028,-1.062341 2.33028,-2.330278 v -5.992144 c 0,-1.267937 -1.06234,-2.330278 -2.33028,-2.330278 z m 0.3329,2.663175 h 7.98952 v 5.32635 h -7.98952 z" baseline-shift="baseline" color="#bebebe" direction="ltr" display="inline" enable-background="accumulate" font-family="Sans" font-size="medium" font-stretch="normal" font-style="normal" font-variant="normal" font-weight="normal" letter-spacing="normal" overflow="visible" text-anchor="start" text-decoration="none" visibility="visible" word-spacing="normal" writing-mode="lr-tb" style="line-height:normal;-inkscape-font-specification:Sans;text-indent:0;text-align:start;text-decoration-line:none;text-transform:none;marker:none"/><path id="path4409" fill="#3584e4" fill-opacity="1" fill-rule="nonzero" stroke="none" stroke-dasharray="none" stroke-dashoffset="0" stroke-linecap="butt" stroke-linejoin="miter" stroke-miterlimit="4" stroke-opacity="1" stroke-width="2.663" d="m 940.16992,81.855469 v 5.326172 h 2.66406 v -5.326172 z" baseline-shift="baseline" clip-rule="nonzero" color="#bebebe" color-interpolation="sRGB" color-interpolation-filters="linearRGB" color-rendering="auto" direction="ltr" display="inline" dominant-baseline="auto" enable-background="accumulate" font-family="sans-serif" font-size="medium" font-stretch="normal" font-style="normal" font-variant="normal" font-weight="normal" image-rendering="auto" letter-spacing="normal" opacity="1" overflow="visible" shape-rendering="auto" text-anchor="start" text-decoration="none" text-rendering="auto" vector-effect="none" visibility="visible" word-spacing="normal" writing-mode="lr-tb" style="line-height:normal;font-variant-ligatures:normal;font-variant-position:normal;font-variant-caps:normal;font-variant-numeric:normal;font-variant-alternates:normal;font-feature-settings:normal;text-indent:0;text-align:start;text-decoration-line:none;text-decoration-style:solid;text-decoration-color:#000;text-transform:none;text-orientation:mixed;white-space:normal;shape-padding:0;isolation:auto;mix-blend-mode:normal;solid-color:#000;solid-opacity:1;marker:none"/><path id="path4411" fill="#3584e4" fill-opacity="1" fill-rule="nonzero" stroke="none" stroke-dasharray="none" stroke-dashoffset="0" stroke-linecap="butt" stroke-linejoin="miter" stroke-miterlimit="4" stroke-opacity="1" stroke-width="2.663" d="m 933.51172,87.181641 v 2.662109 h 15.98047 v -2.662109 z" baseline-shift="baseline" clip-rule="nonzero" color="#bebebe" color-interpolation="sRGB" color-interpolation-filters="linearRGB" color-rendering="auto" direction="ltr" display="inline" dominant-baseline="auto" enable-background="accumulate" font-family="sans-serif" font-size="medium" font-stretch="normal" font-style="normal" font-variant="normal" font-weight="normal" image-rendering="auto" letter-spacing="normal" opacity="1" overflow="visible" shape-rendering="auto" text-anchor="start" text-decoration="none" text-rendering="auto" vector-effect="none" visibility="visible" word-spacing="normal" writing-mode="lr-tb" style="line-height:normal;font-variant-ligatures:normal;font-variant-position:normal;font-variant-caps:normal;font-variant-numeric:normal;font-variant-alternates:normal;font-feature-settings:normal;text-indent:0;text-align:start;text-decoration-line:none;text-decoration-style:solid;text-decoration-color:#000;text-transform:none;text-orientation:mixed;white-space:normal;shape-padding:0;isolation:auto;mix-blend-mode:normal;solid-color:#000;solid-opacity:1;marker:none"/><path id="path4413" fill="#3584e4" fill-opacity="1" stroke="none" stroke-width="3.995" d="m 1028.1011,79.636514 -4.9935,4.993458 -4.9934,-4.99346 z" color="#000" display="inline" enable-background="accumulate" overflow="visible" visibility="visible" style="marker:none"/></g><path id="path4417" fill="none" stroke="#3584e4" stroke-dasharray="2 4" stroke-dashoffset="0" stroke-miterlimit="4" stroke-opacity="1" stroke-width="1" d="M 720.5,819 C 472.49798,819 438.08578,951 119,951" color="#000" display="inline" enable-background="accumulate" overflow="visible" visibility="visible" style="marker:none"/></g><rect id="rect4421" width="57.71" height="9.618" x="1045.876" y="70.845" fill="#fff" fill-opacity="1" fill-rule="nonzero" stroke="#3584e4" stroke-dasharray="none" stroke-miterlimit="4" stroke-opacity="1" stroke-width=".596" color="#000" display="inline" enable-background="new" overflow="visible" rx="4.809" ry="4.809" visibility="visible" style="marker:none"/><ellipse id="ellipse4423" cx="1097.199" cy="75.067" fill="none" stroke="#3584e4" stroke-dasharray="none" stroke-dashoffset="0" stroke-linecap="round" stroke-linejoin="round" stroke-miterlimit="4" stroke-opacity="1" stroke-width=".804" color="#000" display="inline" enable-background="new" overflow="visible" rx="1.811" ry="1.809" visibility="visible" style="marker:none"/><path id="path4425" fill="none" stroke="#3584e4" stroke-dasharray="none" stroke-dashoffset="0" stroke-linecap="round" stroke-linejoin="round" stroke-miterlimit="4" stroke-opacity="1" stroke-width=".804" d="m 1098.6068,76.473335 1.6094,1.60755" color="#000" display="inline" enable-background="new" overflow="visible" visibility="visible" style="marker:none"/><rect id="rect4427" width="6.43" height="6.43" x="1094.583" y="72.454" fill="none" stroke="none" stroke-width=".397" color="#000" display="inline" enable-background="accumulate" opacity=".706" overflow="visible" visibility="visible" style="marker:none"/><path id="path4429" fill="none" stroke="#98c1f1" stroke-dashoffset="0" stroke-linecap="square" stroke-linejoin="miter" stroke-miterlimit="4" stroke-opacity="1" stroke-width=".199" d="m 996.38516,84.695059 h 15.02024 c 1.3433,0 2.4247,1.08146 2.4247,2.42479 v 58.488881" color="#000" display="inline" enable-background="new" overflow="visible" visibility="visible" style="marker:none"/><text id="text4433" x="1050.404" y="76.66" fill="#3584e4" fill-opacity="1" stroke="none" stroke-width=".265" font-family="Cantarell" font-size="3.175" font-stretch="normal" font-style="normal" font-variant="normal" font-weight="bold" letter-spacing="0" text-anchor="start" word-spacing="0" writing-mode="lr-tb" xml:space="preserve" style="line-height:0%;-inkscape-font-specification:'Cantarell Bold';text-align:start"><tspan id="tspan4431" x="1050.404" y="76.66" fill="#3584e4" fill-opacity="1" stroke-width=".265" font-size="3.704" style="line-height:1.25">just type</tspan></text><g id="g4455" transform="matrix(0.0873125,0,0,0.0873125,1041.4297,49.319883)"><g id="g4437" stroke-width=".933" display="inline" transform="matrix(0.26785714,0,0,0.26785714,-482.48304,489.73394)"><circle id="circle4435" cx="256" cy="44" r="224" fill="#3584e4" fill-opacity="1" stroke="#3584e4" stroke-dasharray="none" stroke-dashoffset="0" stroke-linecap="butt" stroke-linejoin="miter" stroke-miterlimit="4" stroke-opacity="1" stroke-width="45.253" marker-end="none" marker-mid="none" marker-start="none" display="inline" enable-background="new" opacity="1" paint-order="normal" style="marker:none"/></g><path id="path4439" fill="#fff" fill-opacity="1" fill-rule="nonzero" stroke="none" stroke-dasharray="none" stroke-dashoffset="0" stroke-linecap="butt" stroke-linejoin="miter" stroke-miterlimit="4" stroke-opacity="1" stroke-width=".011" marker-end="none" marker-mid="none" marker-start="none" d="m 38,176 v 4 l 10,8 v 8 l 8,8 h 4 v -4 l 6,-6 v -4 l 4,-4 v -10 z m -4,16 H 4 c 0,0 0.5090211,40.4419 0,40 l 20,18 v -6 l -4,-4 6,-6 h 4 l 4,4 0.12494,-8.4018 L 40,224 h 4 v -4 l 4,-4 v -6 L 43.727619,206.12499 34,206 v 8 h -4 l -4,-4 v -4 l 6,-6 h 6 v -4 z m 60,2 -6,6 v 4 h 6 v -2.14287 h 4 v 4.26786 L 96,208 H 86 v 4 h -4 v 6 h -8 v 8 h 10 v -4 h 8 v 2 l 4,4 h 2 v -2 l -2,-2 v -2 h 4 l 6,6 h 6 v 2 l -2,2 h -4 l 18,18 V 194 H 96 Z m 12,38 H 94 l -2,-2 H 78 l -8,8 v 8 l 8,8 h 6 l 4,4 v 2 l 2,2 v 12 l 14,14 h 8 v -30 l 4,-4 v -8 l -10,-10 z m -2,-12 h 4 l 6,6 h -4 z m -74,28 -4,4 v 10 l 8.12494,8.14285 L 34,296 h 8 v -8 l 6,-6 v -4 l 6,-6 v -4 l 4,-4 v -8 l -4,-4 h -8 l -4,-4 z" clip-path="url(#clipPath987-6)" color="#000" display="inline" enable-background="accumulate" opacity="1" overflow="visible" paint-order="normal" transform="translate(-477.91161,265.51965)" vector-effect="none" visibility="visible" style="marker:none"/><g id="g4447" stroke="#98c1f1" display="inline" opacity="1" transform="matrix(0.33027944,0,0,0.33027944,-722.51179,363.54416)"><circle id="circle4441" cx="883.604" cy="372.218" r="36.271" fill="none" stroke="#98c1f1" stroke-dasharray="none" stroke-dashoffset="0" stroke-linecap="butt" stroke-linejoin="round" stroke-miterlimit="4" stroke-opacity="1" stroke-width="16.926" color="#000" display="inline" opacity=".668" overflow="visible" visibility="visible" style="marker:none"/><circle id="circle4443" cx="883.604" cy="372.218" r="68.972" fill="none" stroke="#98c1f1" stroke-dasharray="none" stroke-dashoffset="0" stroke-linecap="butt" stroke-linejoin="round" stroke-miterlimit="4" stroke-opacity="1" stroke-width="11.693" color="#000" display="inline" opacity=".668" overflow="visible" visibility="visible" style="marker:none"/><circle id="circle4445" cx="883.604" cy="372.218" r="103.121" fill="none" stroke="#98c1f1" stroke-dasharray="none" stroke-dashoffset="0" stroke-linecap="butt" stroke-linejoin="round" stroke-miterlimit="4" stroke-opacity="1" stroke-width="5.995" color="#000" display="inline" opacity=".668" overflow="visible" visibility="visible" style="marker:none"/></g><g id="g4453" display="inline" transform="translate(-477.91161,277.51965)"><g id="g4451"><path id="path4449" fill="#fff" fill-opacity="1" fill-rule="evenodd" stroke="#3584e4" stroke-dasharray="none" stroke-miterlimit="4" stroke-opacity="1" stroke-width="6.061" d="m 47.589745,209.314 -47.7665216,46.36163 21.7759096,0.70244 c 0,0 -9.131831,18.96611 -9.131831,18.96611 -2.8097966,8.42939 9.834282,11.59041 11.941628,5.26838 0,0 8.42939,-18.96612 8.42939,-18.96612 l 15.453872,16.50755 z" color="#000" display="inline" enable-background="new" overflow="visible" visibility="visible" style="marker:none"/></g></g></g><path id="path4457" fill="#3584e4" fill-opacity="1" fill-rule="nonzero" stroke="none" stroke-dasharray="none" stroke-dashoffset="0" stroke-linecap="butt" stroke-linejoin="miter" stroke-miterlimit="4" stroke-opacity="1" stroke-width=".699" d="m 1001.2659,119.14771 a 1.04775,1.04775 0 0 0 -1.0478,1.04774 1.04775,1.04775 0 0 0 0.6985,0.98654 v 5.71044 a 1.04775,1.04775 0 0 0 -0.6985,0.98653 1.04775,1.04775 0 0 0 1.0478,1.04775 1.04775,1.04775 0 0 0 0.9064,-0.52388 h 5.8712 a 1.04775,1.04775 0 0 0 0.9059,0.52388 1.04775,1.04775 0 0 0 1.0477,-1.04775 1.04775,1.04775 0 0 0 -0.6985,-0.98653 v -5.71044 a 1.04775,1.04775 0 0 0 0.6985,-0.98654 1.04775,1.04775 0 0 0 -1.0477,-1.04774 1.04775,1.04775 0 0 0 -1.0319,0.87311 h -5.6187 a 1.04775,1.04775 0 0 0 -1.0329,-0.87311 z m 0.9064,1.57161 h 5.8712 a 1.04775,1.04775 0 0 0 0.023,0.0399 l -0.9053,0.90536 a 0.69849999,0.69849999 0 0 0 -0.3072,-0.0721 0.69849999,0.69849999 0 0 0 -0.6753,0.52387 h -2.1413 a 0.69849999,0.69849999 0 0 0 -0.6759,-0.52387 0.69849999,0.69849999 0 0 0 -0.3074,0.0718 l -0.9057,-0.90569 a 1.04775,1.04775 0 0 0 0.024,-0.0392 z m -0.5571,0.49387 1.0491,1.04911 a 0.69849999,0.69849999 0 0 0 -10e-4,0.0286 0.69849999,0.69849999 0 0 0 0.3492,0.60419 v 2.28445 a 0.69849999,0.69849999 0 0 0 -0.3492,0.60386 0.69849999,0.69849999 0 0 0 0.072,0.30747 l -0.9057,0.90571 a 1.04775,1.04775 0 0 0 -0.2139,-0.1042 z m 6.9849,0 v 5.67924 a 1.04775,1.04775 0 0 0 -0.2145,0.10351 l -0.9053,-0.90536 a 0.69849999,0.69849999 0 0 0 0.072,-0.30713 0.69849999,0.69849999 0 0 0 -0.3493,-0.60419 v -2.28445 a 0.69849999,0.69849999 0 0 0 0.3493,-0.60386 0.69849999,0.69849999 0 0 0 0,-0.029 z m -4.7779,1.60163 h 2.5706 a 0.69849999,0.69849999 0 0 0 0.1119,0.0803 v 2.28445 a 0.69849999,0.69849999 0 0 0 -0.3261,0.42922 h -2.1414 a 0.69849999,0.69849999 0 0 0 -0.3265,-0.42957 v -2.28445 a 0.69849999,0.69849999 0 0 0 0.1115,-0.08 z m 0,3.4925 h 2.5706 a 0.69849999,0.69849999 0 0 0 0.4611,0.17464 0.69849999,0.69849999 0 0 0 0.029,-0.001 l 1.0716,1.07163 a 1.04775,1.04775 0 0 0 -0.037,0.15177 h -5.6187 a 1.04775,1.04775 0 0 0 -0.038,-0.15126 l 1.0725,-1.07248 a 0.69849999,0.69849999 0 0 0 0.029,0.001 0.69849999,0.69849999 0 0 0 0.4608,-0.17463 z" baseline-shift="baseline" clip-rule="nonzero" color="#000" color-interpolation="sRGB" color-interpolation-filters="linearRGB" color-rendering="auto" direction="ltr" display="inline" dominant-baseline="auto" enable-background="new" font-family="sans-serif" font-size="medium" font-stretch="normal" font-style="normal" font-variant="normal" font-weight="normal" image-rendering="auto" letter-spacing="normal" opacity="1" overflow="visible" shape-rendering="auto" text-anchor="start" text-decoration="none" text-rendering="auto" vector-effect="none" visibility="visible" word-spacing="normal" writing-mode="lr-tb" style="line-height:normal;font-variant-ligatures:normal;font-variant-position:normal;font-variant-caps:normal;font-variant-numeric:normal;font-variant-alternates:normal;font-feature-settings:normal;text-indent:0;text-align:start;text-decoration-line:none;text-decoration-style:solid;text-decoration-color:#000;text-transform:none;text-orientation:mixed;white-space:normal;shape-padding:0;isolation:auto;mix-blend-mode:normal;solid-color:#000;solid-opacity:1;marker:none"/><g id="g4469" transform="matrix(0.0873125,0,0,0.0873125,931.32859,194.86809)"><path id="path4459" fill="#fff" fill-opacity="1" stroke="#3584e4" stroke-dasharray="none" stroke-dashoffset="0" stroke-linecap="butt" stroke-linejoin="miter" stroke-miterlimit="4" stroke-opacity="1" stroke-width="4" marker-end="none" marker-mid="none" marker-start="none" d="m 798.33622,-694.6285 c -4.70031,0 -8.48432,3.78401 -8.48432,8.48432 v 10.60536 74.23787 8.48433 c 0,4.70031 3.78401,8.48432 8.48432,8.48432 h 93.32756 c 4.70031,0 8.48432,-3.78401 8.48432,-8.48432 v -8.48433 -74.23787 -10.60536 c 0,-4.70031 -3.78401,-8.48432 -8.48432,-8.48432 z" display="inline" enable-background="new" opacity="1" paint-order="normal" style="marker:none"/><rect id="rect4461" width="96" height="88" x="797" y="599.48" fill="#3584e4" fill-opacity="1" stroke="none" stroke-dasharray="none" stroke-dashoffset="0" stroke-linecap="butt" stroke-linejoin="miter" stroke-miterlimit="4" stroke-opacity="1" stroke-width=".011" marker-end="none" marker-mid="none" marker-start="none" display="inline" enable-background="new" opacity="1" paint-order="normal" rx="4" ry="4" transform="scale(1,-1)" vector-effect="none" style="marker:none"/><g id="g4467" fill="#fff" display="inline" transform="translate(779,-877.48042)"><path id="path4463" fill="#fff" fill-opacity="1" stroke="none" stroke-width=".25" d="M 44.012301,210.88755 30,203.27182 V 208 l 9.710724,4.62951 v 0.1422 L 30,218 v 4.72818 l 14.012301,-8.21451 z" font-family="Source Code Pro" font-size="medium" font-stretch="normal" font-style="normal" font-variant="normal" font-weight="bold" letter-spacing="0" text-anchor="start" word-spacing="0" writing-mode="lr-tb" style="line-height:1.25;-inkscape-font-specification:'Source Code Pro, Bold';font-variant-ligatures:normal;font-variant-caps:normal;font-variant-numeric:normal;font-feature-settings:normal;text-align:start"/><path id="path4465" fill="#fff" fill-opacity="1" stroke="none" stroke-width=".25" d="m 47.999998,226 2e-6,4 h 16.00001 l -2e-6,-4 z" font-family="Source Code Pro" font-size="medium" font-stretch="normal" font-style="normal" font-variant="normal" font-weight="bold" letter-spacing="0" text-anchor="start" word-spacing="0" writing-mode="lr-tb" style="line-height:1.25;-inkscape-font-specification:'Source Code Pro, Bold';font-variant-ligatures:normal;font-variant-caps:normal;font-variant-numeric:normal;font-feature-settings:normal;text-align:start"/></g></g><g id="g4487" display="inline" transform="matrix(0.0873125,0,0,0.0873125,999.41877,88.500909)"><rect id="rect4471" width="98.04" height="120.322" x="14.98" y="173.839" fill="#fff" fill-opacity="1" stroke="#3584e4" stroke-dasharray="none" stroke-dashoffset="0" stroke-linecap="butt" stroke-linejoin="miter" stroke-miterlimit="4" stroke-opacity="1" stroke-width="6.314" marker-end="none" marker-mid="none" marker-start="none" opacity="1" paint-order="normal" rx="8.913" ry="8.913" vector-effect="none" style="marker:none"/><path id="path4473" fill="#3584e4" fill-opacity="1" stroke="none" stroke-dasharray="none" stroke-dashoffset="0" stroke-linecap="butt" stroke-linejoin="miter" stroke-miterlimit="4" stroke-opacity="1" stroke-width=".012" marker-end="none" marker-mid="none" marker-start="none" d="m 525,430.125 c -2.216,0 -4,1.784 -4,4 V 463 h 80 v -28.875 c 0,-2.216 -1.784,-4 -4,-4 z M 521,465 v 30 h 80 v -30 z m 0,32 v 29 c 0,2.216 1.784,4 4,4 h 72 c 2.216,0 4,-1.784 4,-4 v -29 z" display="inline" enable-background="new" opacity="1" paint-order="normal" transform="translate(-497,-247)" vector-effect="none" style="marker:none"/><g id="g4481"><path id="path4475" fill="#fff" fill-opacity="1" stroke="none" stroke-dasharray="none" stroke-dashoffset="0" stroke-linecap="butt" stroke-linejoin="miter" stroke-miterlimit="4" stroke-opacity="1" stroke-width=".012" marker-end="none" marker-mid="none" marker-start="none" d="m 552,443 c -1.662,0 -3,1.338 -3,3 v 4 1 h 4 0.0312 l -0.0156,-2 H 569 v 2 H 569.0312 573 v -1 -4 c 0,-2 -1.338,-3 -3,-3 z" opacity="1" paint-order="normal" transform="translate(-497,-247)" vector-effect="none" style="marker:none"/><path id="path4477" fill="#fff" fill-opacity="1" stroke="none" stroke-dasharray="none" stroke-dashoffset="0" stroke-linecap="butt" stroke-linejoin="miter" stroke-miterlimit="4" stroke-opacity="1" stroke-width=".012" marker-end="none" marker-mid="none" marker-start="none" d="m 55,229.33334 c -1.662,0 -3,1.338 -3,3 v 4 1 h 4 0.0312 l -0.0156,-2 H 72 v 2 H 72.0312 76 v -1 -4 c 0,-2 -1.338,-3 -3,-3 z" opacity="1" paint-order="normal" vector-effect="none" style="marker:none"/><path id="path4479" fill="#fff" fill-opacity="1" stroke="none" stroke-dasharray="none" stroke-dashoffset="0" stroke-linecap="butt" stroke-linejoin="miter" stroke-miterlimit="4" stroke-opacity="1" stroke-width=".012" marker-end="none" marker-mid="none" marker-start="none" d="m 55,259.63639 c -1.662,0 -3,1.338 -3,3 v 4 1 h 4 0.0312 l -0.0156,-2 H 72 v 2 H 72.0312 76 v -1 -4 c 0,-2 -1.338,-3 -3,-3 z" opacity="1" paint-order="normal" vector-effect="none" style="marker:none"/></g></g></g></g></svg>