<svg xmlns="http://www.w3.org/2000/svg" xmlns:svg="http://www.w3.org/2000/svg" id="svg3660" width="603.159" height="329.5" version="1.1" viewBox="0 0 159.586 87.18"><defs id="defs3654"><clipPath id="clipPath56767" clipPathUnits="userSpaceOnUse"><path id="path56769" fill="#babdb6" stroke="none" stroke-width="1" d="M 228.45991,29.202459 H 1062.0337 V 319.48853 c -330.23641,0 -408.68316,175.76954 -833.57379,175.76954 z" color="#000" display="inline" enable-background="accumulate" overflow="visible" visibility="visible" style="marker:none"/></clipPath><linearGradient id="linearGradient5716-3-1-9"><stop id="stop5718-0-3-4" offset="0" stop-color="#000" stop-opacity="1"/><stop id="stop5720-0-39-8" offset="1" stop-color="#484848" stop-opacity="1"/></linearGradient><clipPath id="clipPath6279-7-9-7-97-8" clipPathUnits="userSpaceOnUse"><rect id="rect6281-1-9-2-7-4" width="3.825" height="6.375" x="26.85" y="220.75" fill="#bebebe" fill-opacity="1" fill-rule="nonzero" stroke="none" stroke-width="2" color="#bebebe" display="inline" overflow="visible" visibility="visible" style="marker:none"/></clipPath><clipPath id="clipPath6265-3-4-4-6-1" clipPathUnits="userSpaceOnUse"><rect id="rect6267-1-9-2-7-4" width="2.898" height="5.216" x="26.966" y="221.33" fill="#bebebe" fill-opacity="1" fill-rule="nonzero" stroke="none" stroke-width="2" color="#bebebe" display="inline" overflow="visible" visibility="visible" style="marker:none"/></clipPath><clipPath id="clipPath6259-8-81-2-3-7" clipPathUnits="userSpaceOnUse"><rect id="rect6261-6-6-2-6-1" width="1.876" height="4.873" x="26.999" y="221.502" fill="#bebebe" fill-opacity="1" stroke="none" stroke-width="2" color="#bebebe" display="inline" overflow="visible" visibility="visible" style="marker:none"/></clipPath><clipPath id="clipPath56767-9" clipPathUnits="userSpaceOnUse"><path id="path56769-1" fill="#babdb6" stroke="none" stroke-width="1" d="M 228.45991,29.202459 H 1062.0337 V 319.48853 c -330.23641,0 -408.68316,175.76954 -833.57379,175.76954 z" color="#000" display="inline" enable-background="accumulate" overflow="visible" visibility="visible" style="marker:none"/></clipPath><clipPath id="clipPath6279-7-9-7-97" clipPathUnits="userSpaceOnUse"><rect id="rect6281-1-9-2-7" width="3.825" height="6.375" x="26.85" y="220.75" fill="#bebebe" fill-opacity="1" fill-rule="nonzero" stroke="none" stroke-width="2" color="#bebebe" display="inline" overflow="visible" visibility="visible" style="marker:none"/></clipPath><clipPath id="clipPath6265-3-4-4-6" clipPathUnits="userSpaceOnUse"><rect id="rect6267-1-9-2-7" width="2.898" height="5.216" x="26.966" y="221.33" fill="#bebebe" fill-opacity="1" fill-rule="nonzero" stroke="none" stroke-width="2" color="#bebebe" display="inline" overflow="visible" visibility="visible" style="marker:none"/></clipPath><clipPath id="clipPath6259-8-81-2-3" clipPathUnits="userSpaceOnUse"><rect id="rect6261-6-6-2-6" width="1.876" height="4.873" x="26.999" y="221.502" fill="#bebebe" fill-opacity="1" stroke="none" stroke-width="2" color="#bebebe" display="inline" overflow="visible" visibility="visible" style="marker:none"/></clipPath><clipPath id="clipPath987-6" clipPathUnits="userSpaceOnUse"><circle id="circle989-3" cx="64" cy="236" r="60" fill="#3584e4" fill-opacity="1" stroke="none" stroke-dasharray="none" stroke-dashoffset="0" stroke-linecap="butt" stroke-linejoin="miter" stroke-miterlimit="4" stroke-opacity="1" stroke-width="4.286" marker-end="none" marker-mid="none" marker-start="none" display="inline" enable-background="new" opacity="1" paint-order="normal" style="marker:none"/></clipPath><clipPath id="clipPath56767-9-8" clipPathUnits="userSpaceOnUse"><path id="path56769-1-9" fill="#babdb6" stroke="none" stroke-width="1" d="M 228.45991,29.202459 H 1062.0337 V 319.48853 c -330.23641,0 -408.68316,175.76954 -833.57379,175.76954 z" color="#000" display="inline" enable-background="accumulate" overflow="visible" visibility="visible" style="marker:none"/></clipPath><clipPath id="clipPath6279-7-9-7-97-1" clipPathUnits="userSpaceOnUse"><rect id="rect6281-1-9-2-7-5" width="3.825" height="6.375" x="26.85" y="220.75" fill="#bebebe" fill-opacity="1" fill-rule="nonzero" stroke="none" stroke-width="2" color="#bebebe" display="inline" overflow="visible" visibility="visible" style="marker:none"/></clipPath><clipPath id="clipPath6265-3-4-4-6-4" clipPathUnits="userSpaceOnUse"><rect id="rect6267-1-9-2-7-9" width="2.898" height="5.216" x="26.966" y="221.33" fill="#bebebe" fill-opacity="1" fill-rule="nonzero" stroke="none" stroke-width="2" color="#bebebe" display="inline" overflow="visible" visibility="visible" style="marker:none"/></clipPath><clipPath id="clipPath6259-8-81-2-3-2" clipPathUnits="userSpaceOnUse"><rect id="rect6261-6-6-2-6-5" width="1.876" height="4.873" x="26.999" y="221.502" fill="#bebebe" fill-opacity="1" stroke="none" stroke-width="2" color="#bebebe" display="inline" overflow="visible" visibility="visible" style="marker:none"/></clipPath><clipPath id="clipPath56767-9-7" clipPathUnits="userSpaceOnUse"><path id="path56769-1-4" fill="#babdb6" stroke="none" stroke-width="1" d="M 228.45991,29.202459 H 1062.0337 V 319.48853 c -330.23641,0 -408.68316,175.76954 -833.57379,175.76954 z" color="#000" display="inline" enable-background="accumulate" overflow="visible" visibility="visible" style="marker:none"/></clipPath><clipPath id="clipPath6279-7-9-7-97-9" clipPathUnits="userSpaceOnUse"><rect id="rect6281-1-9-2-7-9" width="3.825" height="6.375" x="26.85" y="220.75" fill="#bebebe" fill-opacity="1" fill-rule="nonzero" stroke="none" stroke-width="2" color="#bebebe" display="inline" overflow="visible" visibility="visible" style="marker:none"/></clipPath><clipPath id="clipPath6265-3-4-4-6-45" clipPathUnits="userSpaceOnUse"><rect id="rect6267-1-9-2-7-93" width="2.898" height="5.216" x="26.966" y="221.33" fill="#bebebe" fill-opacity="1" fill-rule="nonzero" stroke="none" stroke-width="2" color="#bebebe" display="inline" overflow="visible" visibility="visible" style="marker:none"/></clipPath><clipPath id="clipPath6259-8-81-2-3-5" clipPathUnits="userSpaceOnUse"><rect id="rect6261-6-6-2-6-7" width="1.876" height="4.873" x="26.999" y="221.502" fill="#bebebe" fill-opacity="1" stroke="none" stroke-width="2" color="#bebebe" display="inline" overflow="visible" visibility="visible" style="marker:none"/></clipPath><clipPath id="clipPath5378" clipPathUnits="userSpaceOnUse"><path id="path5376" fill="#babdb6" stroke="none" stroke-width="1" d="M 228.45991,29.202459 H 1062.0337 V 319.48853 c -330.23641,0 -408.68316,175.76954 -833.57379,175.76954 z" color="#000" display="inline" enable-background="accumulate" overflow="visible" visibility="visible" style="marker:none"/></clipPath><clipPath id="clipPath5382" clipPathUnits="userSpaceOnUse"><rect id="rect5380" width="3.825" height="6.375" x="26.85" y="220.75" fill="#bebebe" fill-opacity="1" fill-rule="nonzero" stroke="none" stroke-width="2" color="#bebebe" display="inline" overflow="visible" visibility="visible" style="marker:none"/></clipPath><clipPath id="clipPath5386" clipPathUnits="userSpaceOnUse"><rect id="rect5384" width="2.898" height="5.216" x="26.966" y="221.33" fill="#bebebe" fill-opacity="1" fill-rule="nonzero" stroke="none" stroke-width="2" color="#bebebe" display="inline" overflow="visible" visibility="visible" style="marker:none"/></clipPath><clipPath id="clipPath5390" clipPathUnits="userSpaceOnUse"><rect id="rect5388" width="1.876" height="4.873" x="26.999" y="221.502" fill="#bebebe" fill-opacity="1" stroke="none" stroke-width="2" color="#bebebe" display="inline" overflow="visible" visibility="visible" style="marker:none"/></clipPath></defs><metadata id="metadata3657"/><g id="layer1" transform="translate(82.06078,-114.31466)"><g id="g5358" transform="translate(-792.08206,-205.95175)"><g id="g5226" clip-path="none" mask="none" transform="matrix(0.26458333,0,0,0.26458333,678.6579,155.82788)"><g id="g5222" clip-path="url(#clipPath56767-9-7)" display="inline" transform="matrix(0.75098334,0,0,0.75098334,-60.56959,579.06944)"><g id="g5186" display="inline" transform="matrix(4,0,0,4,172,-591)"><rect id="rect5166" width="16" height="16" x="20" y="276" fill="none" stroke="none" stroke-width="1" color="#bebebe" display="inline" overflow="visible" visibility="visible" style="marker:none"/><rect id="rect5168" width="2" height="2" x="23.062" y="279" fill="#000" fill-opacity="1" fill-rule="nonzero" stroke="none" stroke-width="1" color="#000" display="inline" enable-background="new" overflow="visible" rx=".385" ry=".379" visibility="visible" style="marker:none"/><rect id="rect5170" width="2" height="2" x="27.062" y="279" fill="#000" fill-opacity="1" fill-rule="nonzero" stroke="none" stroke-width="1" color="#000" display="inline" enable-background="new" overflow="visible" rx=".385" ry=".379" visibility="visible" style="marker:none"/><rect id="rect5172" width="2" height="2" x="31.062" y="279" fill="#000" fill-opacity="1" fill-rule="nonzero" stroke="none" stroke-width="1" color="#000" display="inline" enable-background="new" overflow="visible" rx=".385" ry=".379" visibility="visible" style="marker:none"/><rect id="rect5174" width="2" height="2" x="23.062" y="283.016" fill="#000" fill-opacity="1" fill-rule="nonzero" stroke="none" stroke-width="1" color="#000" display="inline" enable-background="new" overflow="visible" rx=".385" ry=".379" visibility="visible" style="marker:none"/><rect id="rect5176" width="2" height="2" x="27.062" y="283.016" fill="#000" fill-opacity="1" fill-rule="nonzero" stroke="none" stroke-width="1" color="#000" display="inline" enable-background="new" overflow="visible" rx=".385" ry=".379" visibility="visible" style="marker:none"/><rect id="rect5178" width="2" height="2" x="31.062" y="283.016" fill="#000" fill-opacity="1" fill-rule="nonzero" stroke="none" stroke-width="1" color="#000" display="inline" enable-background="new" overflow="visible" rx=".385" ry=".379" visibility="visible" style="marker:none"/><rect id="rect5180" width="2" height="2" x="23.062" y="287" fill="#000" fill-opacity="1" fill-rule="nonzero" stroke="none" stroke-width="1" color="#000" display="inline" enable-background="new" overflow="visible" rx=".385" ry=".379" visibility="visible" style="marker:none"/><rect id="rect5182" width="2" height="2" x="27.062" y="287" fill="#000" fill-opacity="1" fill-rule="nonzero" stroke="none" stroke-width="1" color="#000" display="inline" enable-background="new" overflow="visible" rx=".385" ry=".379" visibility="visible" style="marker:none"/><rect id="rect5184" width="2" height="2" x="31.062" y="287" fill="#000" fill-opacity="1" fill-rule="nonzero" stroke="none" stroke-width="1" color="#000" display="inline" enable-background="new" overflow="visible" rx=".385" ry=".379" visibility="visible" style="marker:none"/></g><path id="path5188" fill="#fff" fill-opacity="1" fill-rule="nonzero" stroke="none" stroke-width="3" d="m 239.06066,57.414214 h 800.87864 v 51.485276 c 0,0 -4.0279,-10.606597 -11.0989,-10.96015 L 249,99 c -4.59619,-0.353553 -9.93934,5.5 -9.93934,5.5 z" color="#000" display="inline" enable-background="new" overflow="visible" visibility="visible" style="marker:none"/><rect id="rect5190" width="800" height="600" x="240" y="58" fill="#fff" stroke="#3584e4" stroke-dasharray="none" stroke-miterlimit="4" stroke-opacity="1" stroke-width="3" color="#000" display="inline" enable-background="new" overflow="visible" visibility="visible" style="marker:none"/><path id="path5192" fill="none" stroke="#3584e4" stroke-linecap="round" stroke-linejoin="miter" stroke-opacity="1" stroke-width="2.373" d="m 1039.199,108.766 c 0,-5.89806 -4.7813,-10.6794 -10.6794,-10.6794 H 250.52029 c -5.89809,0 -10.6794,4.78134 -10.6794,10.6794"/><text id="text5196" x="639.846" y="86.187" fill="#3584e4" fill-opacity="1" stroke="none" font-family="Cantarell" font-stretch="normal" font-style="normal" font-variant="normal" font-weight="bold" letter-spacing="0" text-anchor="middle" word-spacing="0" writing-mode="lr-tb" xml:space="preserve" style="line-height:0%;-inkscape-font-specification:'Cantarell Bold';text-align:center"><tspan style="line-height:1.25" id="tspan5194" x="639.846" y="86.187" fill="#3584e4" font-size="21.262">14:30</tspan></text><text id="text5200" x="249.059" y="86.187" fill="#3584e4" fill-opacity="1" stroke="none" font-family="Cantarell" font-stretch="normal" font-style="normal" font-variant="normal" font-weight="bold" letter-spacing="0" text-anchor="start" word-spacing="0" writing-mode="lr-tb" xml:space="preserve" style="line-height:0%;-inkscape-font-specification:'Cantarell Bold';text-align:start"><tspan style="line-height:1.25" id="tspan5198" x="249.059" y="86.187" fill="#3584e4" font-size="21.262">Activities</tspan></text><path id="path5202" fill="#3584e4" fill-opacity="1" fill-rule="nonzero" stroke="none" stroke-width="1.332" d="m 961.3789,75.087415 h 3.30816 l 3.95316,-3.994763 0.7282,0.02077 v 14.647463 l -0.63289,0.0011 -4.04847,-4.016641 h -3.30816 z" color="#bebebe" display="inline" overflow="visible" visibility="visible" style="marker:none"/><path id="path5204" fill="#3584e4" fill-opacity="1" fill-rule="nonzero" stroke="none" stroke-dasharray="none" stroke-dashoffset="0" stroke-linecap="round" stroke-linejoin="miter" stroke-miterlimit="4" stroke-opacity="1" stroke-width="2.55" d="m 27.177734,220.39648 a 1.2751275,1.2751275 0 0 0 -0.888672,2.18946 c 0.35901,0.35901 0.560547,0.84384 0.560547,1.35156 0,0.50772 -0.201537,0.99255 -0.560547,1.35156 a 1.2761078,1.2761078 0 1 0 1.804688,1.80469 c 0.836535,-0.83653 1.306641,-1.97321 1.306641,-3.15625 0,-1.18304 -0.470106,-2.31972 -1.306641,-3.15625 a 1.2751275,1.2751275 0 0 0 -0.916016,-0.38477 z" baseline-shift="baseline" clip-path="url(#clipPath6279-7-9-7-97-9)" clip-rule="nonzero" color="#000" color-interpolation="sRGB" color-interpolation-filters="linearRGB" color-rendering="auto" direction="ltr" display="inline" dominant-baseline="auto" enable-background="accumulate" font-family="sans-serif" font-size="medium" font-stretch="normal" font-style="normal" font-variant="normal" font-weight="normal" image-rendering="auto" letter-spacing="normal" opacity="1" overflow="visible" shape-rendering="auto" text-anchor="start" text-decoration="none" text-rendering="auto" transform="matrix(1.0443827,0,0,1.0443827,942.65835,-155.45992)" vector-effect="none" visibility="visible" word-spacing="normal" writing-mode="lr-tb" style="line-height:normal;font-variant-ligatures:normal;font-variant-position:normal;font-variant-caps:normal;font-variant-numeric:normal;font-variant-alternates:normal;font-feature-settings:normal;text-indent:0;text-align:start;text-decoration-line:none;text-decoration-style:solid;text-decoration-color:#000;text-transform:none;text-orientation:mixed;white-space:normal;shape-padding:0;isolation:auto;mix-blend-mode:normal;solid-color:#000;solid-opacity:1"/><path id="path5206" fill="#3584e4" fill-opacity="1" fill-rule="nonzero" stroke="none" stroke-dasharray="none" stroke-dashoffset="0" stroke-linecap="round" stroke-linejoin="miter" stroke-miterlimit="4" stroke-opacity="1" stroke-width="1.159" d="m 27.185547,221.09766 a 0.57960298,0.57960298 0 0 0 -0.404297,0.99609 c 0.489244,0.48924 0.763672,1.15185 0.763672,1.84375 0,0.6919 -0.274428,1.35451 -0.763672,1.84375 a 0.58004747,0.58004747 0 1 0 0.820312,0.82031 c 0.706301,-0.7063 1.103516,-1.6652 1.103516,-2.66406 0,-0.99886 -0.397215,-1.95776 -1.103516,-2.66406 a 0.57960298,0.57960298 0 0 0 -0.416015,-0.17578 z" baseline-shift="baseline" clip-path="url(#clipPath6265-3-4-4-6-45)" clip-rule="nonzero" color="#000" color-interpolation="sRGB" color-interpolation-filters="linearRGB" color-rendering="auto" direction="ltr" display="inline" dominant-baseline="auto" enable-background="accumulate" font-family="sans-serif" font-size="medium" font-stretch="normal" font-style="normal" font-variant="normal" font-weight="normal" image-rendering="auto" letter-spacing="normal" opacity="1" overflow="visible" shape-rendering="auto" text-anchor="start" text-decoration="none" text-rendering="auto" transform="matrix(2.2976409,0,0,2.2976409,911.40522,-436.11169)" vector-effect="none" visibility="visible" word-spacing="normal" writing-mode="lr-tb" style="line-height:normal;font-variant-ligatures:normal;font-variant-position:normal;font-variant-caps:normal;font-variant-numeric:normal;font-variant-alternates:normal;font-feature-settings:normal;text-indent:0;text-align:start;text-decoration-line:none;text-decoration-style:solid;text-decoration-color:#000;text-transform:none;text-orientation:mixed;white-space:normal;shape-padding:0;isolation:auto;mix-blend-mode:normal;solid-color:#000;solid-opacity:1"/><path id="path5208" fill="#3584e4" fill-opacity="1" fill-rule="nonzero" stroke="none" stroke-dasharray="none" stroke-dashoffset="0" stroke-linecap="round" stroke-linejoin="miter" stroke-miterlimit="4" stroke-opacity="1" stroke-width=".75" d="m 27.1875,221.30469 a 0.3750375,0.3750375 0 0 0 -0.261719,0.64453 c 0.527548,0.52755 0.824219,1.24221 0.824219,1.98828 0,0.74607 -0.296671,1.46073 -0.824219,1.98828 a 0.37565048,0.37565048 0 1 0 0.53125,0.53125 C 28.125028,225.78903 28.5,224.88219 28.5,223.9375 c 0,-0.94469 -0.374972,-1.85153 -1.042969,-2.51953 A 0.3750375,0.3750375 0 0 0 27.1875,221.30469 Z" baseline-shift="baseline" clip-path="url(#clipPath6259-8-81-2-3-5)" clip-rule="nonzero" color="#000" color-interpolation="sRGB" color-interpolation-filters="linearRGB" color-rendering="auto" direction="ltr" display="inline" dominant-baseline="auto" enable-background="accumulate" font-family="sans-serif" font-size="medium" font-stretch="normal" font-style="normal" font-variant="normal" font-weight="normal" image-rendering="auto" letter-spacing="normal" opacity=".35" overflow="visible" shape-rendering="auto" text-anchor="start" text-decoration="none" text-rendering="auto" transform="matrix(3.5509044,0,0,3.5509044,880.15206,-716.7624)" vector-effect="none" visibility="visible" word-spacing="normal" writing-mode="lr-tb" style="line-height:normal;font-variant-ligatures:normal;font-variant-position:normal;font-variant-caps:normal;font-variant-numeric:normal;font-variant-alternates:normal;font-feature-settings:normal;text-indent:0;text-align:start;text-decoration-line:none;text-decoration-style:solid;text-decoration-color:#000;text-transform:none;text-orientation:mixed;white-space:normal;shape-padding:0;isolation:auto;mix-blend-mode:normal;solid-color:#000;solid-opacity:1"/><path id="path5210" fill="#3584e4" fill-opacity="1" fill-rule="nonzero" stroke="none" stroke-dasharray="none" stroke-dashoffset="0" stroke-linecap="round" stroke-linejoin="miter" stroke-miterlimit="4" stroke-opacity="1" stroke-width="2.663" d="m 994.7207,70.826172 a 1.3317207,1.3317207 0 0 0 -0.72461,0.1875 c -3.64177,2.10759 -5.42372,6.413496 -4.33593,10.478516 1.08779,4.065019 4.78271,6.903972 8.99023,6.910156 4.20751,0.0062 7.90811,-2.821007 9.00781,-6.882813 1.0997,-4.061805 -0.6691,-8.373902 -4.3047,-10.492187 a 1.3317207,1.3317207 0 1 0 -1.3398,2.300781 c 2.606,1.518439 3.8626,4.58207 3.0742,7.494141 -0.7885,2.91207 -3.4177,4.922401 -6.4336,4.917968 -3.01587,-0.0044 -5.64004,-2.02117 -6.41992,-4.935546 -0.77989,-2.914377 0.48519,-5.975557 3.0957,-7.486329 a 1.3317207,1.3317207 0 0 0 -0.60938,-2.492187 z" baseline-shift="baseline" clip-rule="nonzero" color="#000" color-interpolation="sRGB" color-interpolation-filters="linearRGB" color-rendering="auto" direction="ltr" display="inline" dominant-baseline="auto" enable-background="accumulate" font-family="sans-serif" font-size="medium" font-stretch="normal" font-style="normal" font-variant="normal" font-weight="normal" image-rendering="auto" letter-spacing="normal" opacity="1" overflow="visible" shape-rendering="auto" text-anchor="start" text-decoration="none" text-rendering="auto" vector-effect="none" visibility="visible" word-spacing="normal" writing-mode="lr-tb" style="line-height:normal;font-variant-ligatures:normal;font-variant-position:normal;font-variant-caps:normal;font-variant-numeric:normal;font-variant-alternates:normal;font-feature-settings:normal;text-indent:0;text-align:start;text-decoration-line:none;text-decoration-style:solid;text-decoration-color:#000;text-transform:none;text-orientation:mixed;white-space:normal;shape-padding:0;isolation:auto;mix-blend-mode:normal;solid-color:#000;solid-opacity:1;marker:none"/><path id="path5212" fill="#3584e4" fill-opacity="1" fill-rule="nonzero" stroke="none" stroke-dasharray="none" stroke-dashoffset="0" stroke-linecap="round" stroke-linejoin="miter" stroke-miterlimit="4" stroke-opacity="1" stroke-width="2.663" d="m 998.64258,68.410156 a 1.3317207,1.3317207 0 0 0 -1.31055,1.351563 v 6.658203 a 1.3317207,1.3317207 0 1 0 2.66211,0 v -6.658203 a 1.3317207,1.3317207 0 0 0 -1.35156,-1.351563 z" baseline-shift="baseline" clip-rule="nonzero" color="#000" color-interpolation="sRGB" color-interpolation-filters="linearRGB" color-rendering="auto" direction="ltr" display="inline" dominant-baseline="auto" enable-background="accumulate" font-family="sans-serif" font-size="medium" font-stretch="normal" font-style="normal" font-variant="normal" font-weight="normal" image-rendering="auto" letter-spacing="normal" opacity="1" overflow="visible" shape-rendering="auto" text-anchor="start" text-decoration="none" text-rendering="auto" vector-effect="none" visibility="visible" word-spacing="normal" writing-mode="lr-tb" style="line-height:normal;font-variant-ligatures:normal;font-variant-position:normal;font-variant-caps:normal;font-variant-numeric:normal;font-variant-alternates:normal;font-feature-settings:normal;text-indent:0;text-align:start;text-decoration-line:none;text-decoration-style:solid;text-decoration-color:#000;text-transform:none;text-orientation:mixed;white-space:normal;shape-padding:0;isolation:auto;mix-blend-mode:normal;solid-color:#000;solid-opacity:1"/><path id="path5214" fill="#3584e4" fill-opacity="1" stroke="none" stroke-width="2.663" d="m 937.17445,69.87069 c -1.26794,0 -2.33028,1.062341 -2.33028,2.330278 v 5.992144 c 0,1.267937 1.06234,2.330278 2.33028,2.330278 h 0.16645 l -1.0403,2.080605 -0.95708,1.914158 h 2.16383 7.98952 2.16383 l -0.95708,-1.914158 -1.0403,-2.080605 h 0.16645 c 1.26794,0 2.33028,-1.062341 2.33028,-2.330278 v -5.992144 c 0,-1.267937 -1.06234,-2.330278 -2.33028,-2.330278 z m 0.3329,2.663175 h 7.98952 v 5.32635 h -7.98952 z" baseline-shift="baseline" color="#bebebe" direction="ltr" display="inline" enable-background="accumulate" font-family="Sans" font-size="medium" font-stretch="normal" font-style="normal" font-variant="normal" font-weight="normal" letter-spacing="normal" overflow="visible" text-anchor="start" text-decoration="none" visibility="visible" word-spacing="normal" writing-mode="lr-tb" style="line-height:normal;-inkscape-font-specification:Sans;text-indent:0;text-align:start;text-decoration-line:none;text-transform:none;marker:none"/><path id="path5216" fill="#3584e4" fill-opacity="1" fill-rule="nonzero" stroke="none" stroke-dasharray="none" stroke-dashoffset="0" stroke-linecap="butt" stroke-linejoin="miter" stroke-miterlimit="4" stroke-opacity="1" stroke-width="2.663" d="m 940.16992,81.855469 v 5.326172 h 2.66406 v -5.326172 z" baseline-shift="baseline" clip-rule="nonzero" color="#bebebe" color-interpolation="sRGB" color-interpolation-filters="linearRGB" color-rendering="auto" direction="ltr" display="inline" dominant-baseline="auto" enable-background="accumulate" font-family="sans-serif" font-size="medium" font-stretch="normal" font-style="normal" font-variant="normal" font-weight="normal" image-rendering="auto" letter-spacing="normal" opacity="1" overflow="visible" shape-rendering="auto" text-anchor="start" text-decoration="none" text-rendering="auto" vector-effect="none" visibility="visible" word-spacing="normal" writing-mode="lr-tb" style="line-height:normal;font-variant-ligatures:normal;font-variant-position:normal;font-variant-caps:normal;font-variant-numeric:normal;font-variant-alternates:normal;font-feature-settings:normal;text-indent:0;text-align:start;text-decoration-line:none;text-decoration-style:solid;text-decoration-color:#000;text-transform:none;text-orientation:mixed;white-space:normal;shape-padding:0;isolation:auto;mix-blend-mode:normal;solid-color:#000;solid-opacity:1;marker:none"/><path id="path5218" fill="#3584e4" fill-opacity="1" fill-rule="nonzero" stroke="none" stroke-dasharray="none" stroke-dashoffset="0" stroke-linecap="butt" stroke-linejoin="miter" stroke-miterlimit="4" stroke-opacity="1" stroke-width="2.663" d="m 933.51172,87.181641 v 2.662109 h 15.98047 v -2.662109 z" baseline-shift="baseline" clip-rule="nonzero" color="#bebebe" color-interpolation="sRGB" color-interpolation-filters="linearRGB" color-rendering="auto" direction="ltr" display="inline" dominant-baseline="auto" enable-background="accumulate" font-family="sans-serif" font-size="medium" font-stretch="normal" font-style="normal" font-variant="normal" font-weight="normal" image-rendering="auto" letter-spacing="normal" opacity="1" overflow="visible" shape-rendering="auto" text-anchor="start" text-decoration="none" text-rendering="auto" vector-effect="none" visibility="visible" word-spacing="normal" writing-mode="lr-tb" style="line-height:normal;font-variant-ligatures:normal;font-variant-position:normal;font-variant-caps:normal;font-variant-numeric:normal;font-variant-alternates:normal;font-feature-settings:normal;text-indent:0;text-align:start;text-decoration-line:none;text-decoration-style:solid;text-decoration-color:#000;text-transform:none;text-orientation:mixed;white-space:normal;shape-padding:0;isolation:auto;mix-blend-mode:normal;solid-color:#000;solid-opacity:1;marker:none"/><path id="path5220" fill="#3584e4" fill-opacity="1" stroke="none" stroke-width="3.995" d="m 1028.1011,79.636514 -4.9935,4.993458 -4.9934,-4.99346 z" color="#000" display="inline" enable-background="accumulate" overflow="visible" visibility="visible" style="marker:none"/></g><path id="path5224" fill="none" stroke="#3584e4" stroke-dasharray="2 4" stroke-dashoffset="0" stroke-miterlimit="4" stroke-opacity="1" stroke-width="1" d="M 720.5,819 C 472.49798,819 438.08578,951 119,951" color="#000" display="inline" enable-background="accumulate" overflow="visible" visibility="visible" style="marker:none"/></g><g id="g5290" clip-path="none" mask="none" transform="matrix(0.26458333,0,0,0.26458333,678.65759,155.82787)"><g id="g5286" clip-path="url(#clipPath56767-9-7)" display="inline" transform="matrix(0.75098334,0,0,0.75098334,-60.56959,579.06944)"><rect id="rect5230" width="800" height="600" x="240" y="58" fill="#fff" stroke="#3584e4" stroke-dasharray="none" stroke-miterlimit="4" stroke-opacity="1" stroke-width="3" color="#000" display="inline" enable-background="new" overflow="visible" visibility="visible" style="marker:none"/><g id="g5252" display="inline" transform="matrix(4,0,0,4,172,-591)"><rect id="rect5232" width="16" height="16" x="20" y="276" fill="none" stroke="none" stroke-width="1" color="#bebebe" display="inline" overflow="visible" visibility="visible" style="marker:none"/><rect id="rect5234" width="2" height="2" x="23.062" y="279" fill="#000" fill-opacity="1" fill-rule="nonzero" stroke="none" stroke-width="1" color="#000" display="inline" enable-background="new" overflow="visible" rx=".385" ry=".379" visibility="visible" style="marker:none"/><rect id="rect5236" width="2" height="2" x="27.062" y="279" fill="#000" fill-opacity="1" fill-rule="nonzero" stroke="none" stroke-width="1" color="#000" display="inline" enable-background="new" overflow="visible" rx=".385" ry=".379" visibility="visible" style="marker:none"/><rect id="rect5238" width="2" height="2" x="31.062" y="279" fill="#000" fill-opacity="1" fill-rule="nonzero" stroke="none" stroke-width="1" color="#000" display="inline" enable-background="new" overflow="visible" rx=".385" ry=".379" visibility="visible" style="marker:none"/><rect id="rect5240" width="2" height="2" x="23.062" y="283.016" fill="#000" fill-opacity="1" fill-rule="nonzero" stroke="none" stroke-width="1" color="#000" display="inline" enable-background="new" overflow="visible" rx=".385" ry=".379" visibility="visible" style="marker:none"/><rect id="rect5242" width="2" height="2" x="27.062" y="283.016" fill="#000" fill-opacity="1" fill-rule="nonzero" stroke="none" stroke-width="1" color="#000" display="inline" enable-background="new" overflow="visible" rx=".385" ry=".379" visibility="visible" style="marker:none"/><rect id="rect5244" width="2" height="2" x="31.062" y="283.016" fill="#000" fill-opacity="1" fill-rule="nonzero" stroke="none" stroke-width="1" color="#000" display="inline" enable-background="new" overflow="visible" rx=".385" ry=".379" visibility="visible" style="marker:none"/><rect id="rect5246" width="2" height="2" x="23.062" y="287" fill="#000" fill-opacity="1" fill-rule="nonzero" stroke="none" stroke-width="1" color="#000" display="inline" enable-background="new" overflow="visible" rx=".385" ry=".379" visibility="visible" style="marker:none"/><rect id="rect5248" width="2" height="2" x="27.062" y="287" fill="#000" fill-opacity="1" fill-rule="nonzero" stroke="none" stroke-width="1" color="#000" display="inline" enable-background="new" overflow="visible" rx=".385" ry=".379" visibility="visible" style="marker:none"/><rect id="rect5250" width="2" height="2" x="31.062" y="287" fill="#000" fill-opacity="1" fill-rule="nonzero" stroke="none" stroke-width="1" color="#000" display="inline" enable-background="new" overflow="visible" rx=".385" ry=".379" visibility="visible" style="marker:none"/></g><path id="path5254" fill="#fff" fill-opacity="1" fill-rule="nonzero" stroke="none" stroke-width="3" d="m 239.06066,57.414214 h 800.87864 v 51.485276 c 0,0 -4.0279,-10.606597 -11.0989,-10.96015 L 249,99 c -4.59619,-0.353553 -9.93934,5.5 -9.93934,5.5 z" color="#000" display="inline" enable-background="new" overflow="visible" visibility="visible" style="marker:none"/><path id="path5256" fill="none" stroke="#3584e4" stroke-linecap="round" stroke-linejoin="miter" stroke-opacity="1" stroke-width="2.373" d="m 1039.199,108.766 c 0,-5.89806 -4.7813,-10.6794 -10.6794,-10.6794 H 250.52029 c -5.89809,0 -10.6794,4.78134 -10.6794,10.6794"/><text id="text5260" x="639.846" y="86.187" fill="#3584e4" fill-opacity="1" stroke="none" font-family="Cantarell" font-stretch="normal" font-style="normal" font-variant="normal" font-weight="bold" letter-spacing="0" text-anchor="middle" word-spacing="0" writing-mode="lr-tb" xml:space="preserve" style="line-height:0%;-inkscape-font-specification:'Cantarell Bold';text-align:center"><tspan style="line-height:1.25" id="tspan5258" x="639.846" y="86.187" fill="#3584e4" font-size="21.262">14:30</tspan></text><text id="text5264" x="249.059" y="86.187" fill="#3584e4" fill-opacity="1" stroke="none" font-family="Cantarell" font-stretch="normal" font-style="normal" font-variant="normal" font-weight="bold" letter-spacing="0" text-anchor="start" word-spacing="0" writing-mode="lr-tb" xml:space="preserve" style="line-height:0%;-inkscape-font-specification:'Cantarell Bold';text-align:start"><tspan style="line-height:1.25" id="tspan5262" x="249.059" y="86.187" fill="#3584e4" font-size="21.262">Activities</tspan></text><path id="path5266" fill="#3584e4" fill-opacity="1" fill-rule="nonzero" stroke="none" stroke-width="1.332" d="m 961.3789,75.087415 h 3.30816 l 3.95316,-3.994763 0.7282,0.02077 v 14.647463 l -0.63289,0.0011 -4.04847,-4.016641 h -3.30816 z" color="#bebebe" display="inline" overflow="visible" visibility="visible" style="marker:none"/><path id="path5268" fill="#3584e4" fill-opacity="1" fill-rule="nonzero" stroke="none" stroke-dasharray="none" stroke-dashoffset="0" stroke-linecap="round" stroke-linejoin="miter" stroke-miterlimit="4" stroke-opacity="1" stroke-width="2.55" d="m 27.177734,220.39648 a 1.2751275,1.2751275 0 0 0 -0.888672,2.18946 c 0.35901,0.35901 0.560547,0.84384 0.560547,1.35156 0,0.50772 -0.201537,0.99255 -0.560547,1.35156 a 1.2761078,1.2761078 0 1 0 1.804688,1.80469 c 0.836535,-0.83653 1.306641,-1.97321 1.306641,-3.15625 0,-1.18304 -0.470106,-2.31972 -1.306641,-3.15625 a 1.2751275,1.2751275 0 0 0 -0.916016,-0.38477 z" baseline-shift="baseline" clip-path="url(#clipPath6279-7-9-7-97-9)" clip-rule="nonzero" color="#000" color-interpolation="sRGB" color-interpolation-filters="linearRGB" color-rendering="auto" direction="ltr" display="inline" dominant-baseline="auto" enable-background="accumulate" font-family="sans-serif" font-size="medium" font-stretch="normal" font-style="normal" font-variant="normal" font-weight="normal" image-rendering="auto" letter-spacing="normal" opacity="1" overflow="visible" shape-rendering="auto" text-anchor="start" text-decoration="none" text-rendering="auto" transform="matrix(1.0443827,0,0,1.0443827,942.65835,-155.45992)" vector-effect="none" visibility="visible" word-spacing="normal" writing-mode="lr-tb" style="line-height:normal;font-variant-ligatures:normal;font-variant-position:normal;font-variant-caps:normal;font-variant-numeric:normal;font-variant-alternates:normal;font-feature-settings:normal;text-indent:0;text-align:start;text-decoration-line:none;text-decoration-style:solid;text-decoration-color:#000;text-transform:none;text-orientation:mixed;white-space:normal;shape-padding:0;isolation:auto;mix-blend-mode:normal;solid-color:#000;solid-opacity:1"/><path id="path5270" fill="#3584e4" fill-opacity="1" fill-rule="nonzero" stroke="none" stroke-dasharray="none" stroke-dashoffset="0" stroke-linecap="round" stroke-linejoin="miter" stroke-miterlimit="4" stroke-opacity="1" stroke-width="1.159" d="m 27.185547,221.09766 a 0.57960298,0.57960298 0 0 0 -0.404297,0.99609 c 0.489244,0.48924 0.763672,1.15185 0.763672,1.84375 0,0.6919 -0.274428,1.35451 -0.763672,1.84375 a 0.58004747,0.58004747 0 1 0 0.820312,0.82031 c 0.706301,-0.7063 1.103516,-1.6652 1.103516,-2.66406 0,-0.99886 -0.397215,-1.95776 -1.103516,-2.66406 a 0.57960298,0.57960298 0 0 0 -0.416015,-0.17578 z" baseline-shift="baseline" clip-path="url(#clipPath6265-3-4-4-6-45)" clip-rule="nonzero" color="#000" color-interpolation="sRGB" color-interpolation-filters="linearRGB" color-rendering="auto" direction="ltr" display="inline" dominant-baseline="auto" enable-background="accumulate" font-family="sans-serif" font-size="medium" font-stretch="normal" font-style="normal" font-variant="normal" font-weight="normal" image-rendering="auto" letter-spacing="normal" opacity="1" overflow="visible" shape-rendering="auto" text-anchor="start" text-decoration="none" text-rendering="auto" transform="matrix(2.2976409,0,0,2.2976409,911.40522,-436.11169)" vector-effect="none" visibility="visible" word-spacing="normal" writing-mode="lr-tb" style="line-height:normal;font-variant-ligatures:normal;font-variant-position:normal;font-variant-caps:normal;font-variant-numeric:normal;font-variant-alternates:normal;font-feature-settings:normal;text-indent:0;text-align:start;text-decoration-line:none;text-decoration-style:solid;text-decoration-color:#000;text-transform:none;text-orientation:mixed;white-space:normal;shape-padding:0;isolation:auto;mix-blend-mode:normal;solid-color:#000;solid-opacity:1"/><path id="path5272" fill="#3584e4" fill-opacity="1" fill-rule="nonzero" stroke="none" stroke-dasharray="none" stroke-dashoffset="0" stroke-linecap="round" stroke-linejoin="miter" stroke-miterlimit="4" stroke-opacity="1" stroke-width=".75" d="m 27.1875,221.30469 a 0.3750375,0.3750375 0 0 0 -0.261719,0.64453 c 0.527548,0.52755 0.824219,1.24221 0.824219,1.98828 0,0.74607 -0.296671,1.46073 -0.824219,1.98828 a 0.37565048,0.37565048 0 1 0 0.53125,0.53125 C 28.125028,225.78903 28.5,224.88219 28.5,223.9375 c 0,-0.94469 -0.374972,-1.85153 -1.042969,-2.51953 A 0.3750375,0.3750375 0 0 0 27.1875,221.30469 Z" baseline-shift="baseline" clip-path="url(#clipPath6259-8-81-2-3-5)" clip-rule="nonzero" color="#000" color-interpolation="sRGB" color-interpolation-filters="linearRGB" color-rendering="auto" direction="ltr" display="inline" dominant-baseline="auto" enable-background="accumulate" font-family="sans-serif" font-size="medium" font-stretch="normal" font-style="normal" font-variant="normal" font-weight="normal" image-rendering="auto" letter-spacing="normal" opacity=".35" overflow="visible" shape-rendering="auto" text-anchor="start" text-decoration="none" text-rendering="auto" transform="matrix(3.5509044,0,0,3.5509044,880.15206,-716.7624)" vector-effect="none" visibility="visible" word-spacing="normal" writing-mode="lr-tb" style="line-height:normal;font-variant-ligatures:normal;font-variant-position:normal;font-variant-caps:normal;font-variant-numeric:normal;font-variant-alternates:normal;font-feature-settings:normal;text-indent:0;text-align:start;text-decoration-line:none;text-decoration-style:solid;text-decoration-color:#000;text-transform:none;text-orientation:mixed;white-space:normal;shape-padding:0;isolation:auto;mix-blend-mode:normal;solid-color:#000;solid-opacity:1"/><path id="path5274" fill="#3584e4" fill-opacity="1" fill-rule="nonzero" stroke="none" stroke-dasharray="none" stroke-dashoffset="0" stroke-linecap="round" stroke-linejoin="miter" stroke-miterlimit="4" stroke-opacity="1" stroke-width="2.663" d="m 994.7207,70.826172 a 1.3317207,1.3317207 0 0 0 -0.72461,0.1875 c -3.64177,2.10759 -5.42372,6.413496 -4.33593,10.478516 1.08779,4.065019 4.78271,6.903972 8.99023,6.910156 4.20751,0.0062 7.90811,-2.821007 9.00781,-6.882813 1.0997,-4.061805 -0.6691,-8.373902 -4.3047,-10.492187 a 1.3317207,1.3317207 0 1 0 -1.3398,2.300781 c 2.606,1.518439 3.8626,4.58207 3.0742,7.494141 -0.7885,2.91207 -3.4177,4.922401 -6.4336,4.917968 -3.01587,-0.0044 -5.64004,-2.02117 -6.41992,-4.935546 -0.77989,-2.914377 0.48519,-5.975557 3.0957,-7.486329 a 1.3317207,1.3317207 0 0 0 -0.60938,-2.492187 z" baseline-shift="baseline" clip-rule="nonzero" color="#000" color-interpolation="sRGB" color-interpolation-filters="linearRGB" color-rendering="auto" direction="ltr" display="inline" dominant-baseline="auto" enable-background="accumulate" font-family="sans-serif" font-size="medium" font-stretch="normal" font-style="normal" font-variant="normal" font-weight="normal" image-rendering="auto" letter-spacing="normal" opacity="1" overflow="visible" shape-rendering="auto" text-anchor="start" text-decoration="none" text-rendering="auto" vector-effect="none" visibility="visible" word-spacing="normal" writing-mode="lr-tb" style="line-height:normal;font-variant-ligatures:normal;font-variant-position:normal;font-variant-caps:normal;font-variant-numeric:normal;font-variant-alternates:normal;font-feature-settings:normal;text-indent:0;text-align:start;text-decoration-line:none;text-decoration-style:solid;text-decoration-color:#000;text-transform:none;text-orientation:mixed;white-space:normal;shape-padding:0;isolation:auto;mix-blend-mode:normal;solid-color:#000;solid-opacity:1;marker:none"/><path id="path5276" fill="#3584e4" fill-opacity="1" fill-rule="nonzero" stroke="none" stroke-dasharray="none" stroke-dashoffset="0" stroke-linecap="round" stroke-linejoin="miter" stroke-miterlimit="4" stroke-opacity="1" stroke-width="2.663" d="m 998.64258,68.410156 a 1.3317207,1.3317207 0 0 0 -1.31055,1.351563 v 6.658203 a 1.3317207,1.3317207 0 1 0 2.66211,0 v -6.658203 a 1.3317207,1.3317207 0 0 0 -1.35156,-1.351563 z" baseline-shift="baseline" clip-rule="nonzero" color="#000" color-interpolation="sRGB" color-interpolation-filters="linearRGB" color-rendering="auto" direction="ltr" display="inline" dominant-baseline="auto" enable-background="accumulate" font-family="sans-serif" font-size="medium" font-stretch="normal" font-style="normal" font-variant="normal" font-weight="normal" image-rendering="auto" letter-spacing="normal" opacity="1" overflow="visible" shape-rendering="auto" text-anchor="start" text-decoration="none" text-rendering="auto" vector-effect="none" visibility="visible" word-spacing="normal" writing-mode="lr-tb" style="line-height:normal;font-variant-ligatures:normal;font-variant-position:normal;font-variant-caps:normal;font-variant-numeric:normal;font-variant-alternates:normal;font-feature-settings:normal;text-indent:0;text-align:start;text-decoration-line:none;text-decoration-style:solid;text-decoration-color:#000;text-transform:none;text-orientation:mixed;white-space:normal;shape-padding:0;isolation:auto;mix-blend-mode:normal;solid-color:#000;solid-opacity:1"/><path id="path5278" fill="#3584e4" fill-opacity="1" stroke="none" stroke-width="2.663" d="m 937.17445,69.87069 c -1.26794,0 -2.33028,1.062341 -2.33028,2.330278 v 5.992144 c 0,1.267937 1.06234,2.330278 2.33028,2.330278 h 0.16645 l -1.0403,2.080605 -0.95708,1.914158 h 2.16383 7.98952 2.16383 l -0.95708,-1.914158 -1.0403,-2.080605 h 0.16645 c 1.26794,0 2.33028,-1.062341 2.33028,-2.330278 v -5.992144 c 0,-1.267937 -1.06234,-2.330278 -2.33028,-2.330278 z m 0.3329,2.663175 h 7.98952 v 5.32635 h -7.98952 z" baseline-shift="baseline" color="#bebebe" direction="ltr" display="inline" enable-background="accumulate" font-family="Sans" font-size="medium" font-stretch="normal" font-style="normal" font-variant="normal" font-weight="normal" letter-spacing="normal" overflow="visible" text-anchor="start" text-decoration="none" visibility="visible" word-spacing="normal" writing-mode="lr-tb" style="line-height:normal;-inkscape-font-specification:Sans;text-indent:0;text-align:start;text-decoration-line:none;text-transform:none;marker:none"/><path id="path5280" fill="#3584e4" fill-opacity="1" fill-rule="nonzero" stroke="none" stroke-dasharray="none" stroke-dashoffset="0" stroke-linecap="butt" stroke-linejoin="miter" stroke-miterlimit="4" stroke-opacity="1" stroke-width="2.663" d="m 940.16992,81.855469 v 5.326172 h 2.66406 v -5.326172 z" baseline-shift="baseline" clip-rule="nonzero" color="#bebebe" color-interpolation="sRGB" color-interpolation-filters="linearRGB" color-rendering="auto" direction="ltr" display="inline" dominant-baseline="auto" enable-background="accumulate" font-family="sans-serif" font-size="medium" font-stretch="normal" font-style="normal" font-variant="normal" font-weight="normal" image-rendering="auto" letter-spacing="normal" opacity="1" overflow="visible" shape-rendering="auto" text-anchor="start" text-decoration="none" text-rendering="auto" vector-effect="none" visibility="visible" word-spacing="normal" writing-mode="lr-tb" style="line-height:normal;font-variant-ligatures:normal;font-variant-position:normal;font-variant-caps:normal;font-variant-numeric:normal;font-variant-alternates:normal;font-feature-settings:normal;text-indent:0;text-align:start;text-decoration-line:none;text-decoration-style:solid;text-decoration-color:#000;text-transform:none;text-orientation:mixed;white-space:normal;shape-padding:0;isolation:auto;mix-blend-mode:normal;solid-color:#000;solid-opacity:1;marker:none"/><path id="path5282" fill="#3584e4" fill-opacity="1" fill-rule="nonzero" stroke="none" stroke-dasharray="none" stroke-dashoffset="0" stroke-linecap="butt" stroke-linejoin="miter" stroke-miterlimit="4" stroke-opacity="1" stroke-width="2.663" d="m 933.51172,87.181641 v 2.662109 h 15.98047 v -2.662109 z" baseline-shift="baseline" clip-rule="nonzero" color="#bebebe" color-interpolation="sRGB" color-interpolation-filters="linearRGB" color-rendering="auto" direction="ltr" display="inline" dominant-baseline="auto" enable-background="accumulate" font-family="sans-serif" font-size="medium" font-stretch="normal" font-style="normal" font-variant="normal" font-weight="normal" image-rendering="auto" letter-spacing="normal" opacity="1" overflow="visible" shape-rendering="auto" text-anchor="start" text-decoration="none" text-rendering="auto" vector-effect="none" visibility="visible" word-spacing="normal" writing-mode="lr-tb" style="line-height:normal;font-variant-ligatures:normal;font-variant-position:normal;font-variant-caps:normal;font-variant-numeric:normal;font-variant-alternates:normal;font-feature-settings:normal;text-indent:0;text-align:start;text-decoration-line:none;text-decoration-style:solid;text-decoration-color:#000;text-transform:none;text-orientation:mixed;white-space:normal;shape-padding:0;isolation:auto;mix-blend-mode:normal;solid-color:#000;solid-opacity:1;marker:none"/><path id="path5284" fill="#3584e4" fill-opacity="1" stroke="none" stroke-width="3.995" d="m 1028.1011,79.636514 -4.9935,4.993458 -4.9934,-4.99346 z" color="#000" display="inline" enable-background="accumulate" overflow="visible" visibility="visible" style="marker:none"/></g><path id="path5288" fill="none" stroke="#3584e4" stroke-dasharray="2 4" stroke-dashoffset="0" stroke-miterlimit="4" stroke-opacity="1" stroke-width="1" d="M 720.5,819 C 472.49798,819 438.08578,951 119,951" color="#000" display="inline" enable-background="accumulate" overflow="visible" visibility="visible" style="marker:none"/></g><path id="path5292" fill="#3584e4" fill-opacity="1" stroke="none" stroke-width=".283" d="m 857.48099,330.99481 -3.0509,3.05098 h -38.9103 c -1.4709,0 -2.6541,1.18311 -2.6541,2.6541 v 48.52623 c 0,1.47099 1.1832,2.66237 2.6541,2.66237 h 48.5262 c 1.471,0 2.6624,-1.19138 2.6624,-2.66237 v -48.52623 c 0,-1.47099 -1.1914,-2.6541 -2.6624,-2.6541 h -3.5223 z m -35.9088,44.51615 c 2.1919,0 3.9687,1.77687 3.9687,3.96875 0,2.19188 -1.7768,3.96875 -3.9687,3.96875 -2.1919,0 -3.9688,-1.77687 -3.9688,-3.96875 0,-2.19188 1.7769,-3.96875 3.9688,-3.96875 z m 18.5208,0 c 2.1919,0 3.9688,1.77687 3.9688,3.96875 0,2.19188 -1.7769,3.96875 -3.9688,3.96875 -2.1919,0 -3.9687,-1.77687 -3.9687,-3.96875 0,-2.19188 1.7768,-3.96875 3.9687,-3.96875 z m 17.4624,0 c 2.1919,0 3.9688,1.77687 3.9688,3.96875 0,2.19188 -1.7769,3.96875 -3.9688,3.96875 -2.1918,0 -3.9686,-1.77687 -3.9686,-3.96875 0,-2.19188 1.7768,-3.96875 3.9686,-3.96875 z" color="#000" display="inline" enable-background="accumulate" overflow="visible" visibility="visible" style="marker:none"/></g></g></svg>