<svg xmlns="http://www.w3.org/2000/svg" xmlns:svg="http://www.w3.org/2000/svg" id="svg11004" width="1164" height="235.733" version="1.1" viewBox="0 0 1091.25 221"><metadata id="metadata11009"/><g id="layer1" transform="translate(-4.5,40.6378)"><g id="g10969" transform="translate(0,-201.35208)"><path d="m 9.5,235 260,0 0,86 52.5,0" style="isolation:auto;mix-blend-mode:normal;solid-color:#000;solid-opacity:1;marker:none" id="path10895" fill="none" fill-opacity="1" fill-rule="nonzero" stroke="#a8c74f" stroke-dasharray="none" stroke-dashoffset="0" stroke-linecap="square" stroke-linejoin="miter" stroke-miterlimit="4" stroke-opacity="1" stroke-width="10" marker-end="none" marker-mid="none" marker-start="none" clip-rule="nonzero" color="#000" color-interpolation="sRGB" color-interpolation-filters="linearRGB" color-rendering="auto" display="inline" enable-background="accumulate" image-rendering="auto" opacity="1" overflow="visible" paint-order="normal" shape-rendering="auto" text-rendering="auto" visibility="visible"/><path d="m 9.5,195 243.5,0 0,108 70,0" style="isolation:auto;mix-blend-mode:normal;solid-color:#000;solid-opacity:1;marker:none" id="path10239" fill="none" fill-opacity="1" fill-rule="nonzero" stroke="#c2754a" stroke-dasharray="none" stroke-dashoffset="0" stroke-linecap="square" stroke-linejoin="miter" stroke-miterlimit="4" stroke-opacity="1" stroke-width="10" marker-end="none" marker-mid="none" marker-start="none" clip-rule="nonzero" color="#000" color-interpolation="sRGB" color-interpolation-filters="linearRGB" color-rendering="auto" display="inline" enable-background="accumulate" image-rendering="auto" opacity="1" overflow="visible" paint-order="normal" shape-rendering="auto" text-rendering="auto" visibility="visible"/><path d="m 9.5,216 277.5,0 0,69 36,0" style="isolation:auto;mix-blend-mode:normal;solid-color:#000;solid-opacity:1;marker:none" id="path10241" fill="none" fill-opacity="1" fill-rule="nonzero" stroke="#c4ae4d" stroke-dasharray="none" stroke-dashoffset="0" stroke-linecap="square" stroke-linejoin="miter" stroke-miterlimit="4" stroke-opacity="1" stroke-width="10" marker-end="none" marker-mid="none" marker-start="none" clip-rule="nonzero" color="#000" color-interpolation="sRGB" color-interpolation-filters="linearRGB" color-rendering="auto" display="inline" enable-background="accumulate" image-rendering="auto" opacity="1" overflow="visible" paint-order="normal" shape-rendering="auto" text-rendering="auto" visibility="visible"/><g id="g10897" fill="#418e64" fill-opacity="1" transform="translate(-5,4)"><path id="rect7465-4" fill="#418e64" fill-opacity="1" fill-rule="nonzero" stroke="none" stroke-width="1" d="m 398,281 0,25.03125 c 0,2.32061 -0.2349,4.98821 -1.96875,7.3125 -1.73394,2.32425 -4.92602,3.7728 -9.28125,3.65625 l -18.28125,0 -4.64063,4.5 20.67188,0 13.5,13.5 0,-13.5 4.5,0 c 2.493,0 4.5,-2.007 4.5,-4.5 l 0,-31.5 c 0,-2.493 -2.007,-4.5 -4.5,-4.5 z" color="#000" display="inline" enable-background="accumulate" overflow="visible" visibility="visible" style="marker:none"/><path id="rect7465" fill="#418e64" fill-opacity="1" fill-rule="nonzero" stroke="none" stroke-width="1" d="m 348.5,272 c -2.493,0 -4.5,2.007 -4.5,4.5 l 0,31.5 c 0,2.493 2.007,4.5 4.5,4.5 l 4.5,0 0,13.5 13.5,-13.5 22.5,0 c 2.493,0 4.5,-2.007 4.5,-4.5 l 0,-31.5 c 0,-2.493 -2.007,-4.5 -4.5,-4.5 l -40.5,0 z m 13.5,9 4.5,0 0,4.5 4.5,0 0,-4.5 4.5,0 0,4.5 4.5,0 0,4.5 -4.5,0 0,4.5 4.5,0 0,4.5 -4.5,0 0,4.5 -4.5,0 0,-4.5 -4.5,0 0,4.5 -4.5,0 0,-4.5 -4.5,0 0,-4.5 4.5,0 0,-4.5 -4.5,0 0,-4.5 4.5,0 0,-4.5 z m 4.5,9 0,4.5 4.5,0 0,-4.5 -4.5,0 z" color="#000" display="inline" enable-background="accumulate" overflow="visible" visibility="visible" style="marker:none"/></g><path d="m 421,283 31,0 0,-52 638.75,0" style="isolation:auto;mix-blend-mode:normal;solid-color:#000;solid-opacity:1;marker:none" id="path10901" fill="none" fill-opacity="1" fill-rule="nonzero" stroke="#a8c74f" stroke-dasharray="none" stroke-dashoffset="0" stroke-linecap="square" stroke-linejoin="miter" stroke-miterlimit="4" stroke-opacity="1" stroke-width="10" marker-end="none" marker-mid="none" marker-start="none" clip-rule="nonzero" color="#000" color-interpolation="sRGB" color-interpolation-filters="linearRGB" color-rendering="auto" display="inline" enable-background="accumulate" image-rendering="auto" opacity="1" overflow="visible" paint-order="normal" shape-rendering="auto" text-rendering="auto" visibility="visible"/><path d="m 421,301 57,0 0,-45 612.75,0" style="isolation:auto;mix-blend-mode:normal;solid-color:#000;solid-opacity:1;marker:none" id="path10903" fill="none" fill-opacity="1" fill-rule="nonzero" stroke="#c4ae4d" stroke-dasharray="none" stroke-dashoffset="0" stroke-linecap="square" stroke-linejoin="miter" stroke-miterlimit="4" stroke-opacity="1" stroke-width="10" marker-end="none" marker-mid="none" marker-start="none" clip-rule="nonzero" color="#000" color-interpolation="sRGB" color-interpolation-filters="linearRGB" color-rendering="auto" display="inline" enable-background="accumulate" image-rendering="auto" opacity="1" overflow="visible" paint-order="normal" shape-rendering="auto" text-rendering="auto" visibility="visible"/><path d="m 421,319 31,0 0,201.28572" style="isolation:auto;mix-blend-mode:normal;solid-color:#000;solid-opacity:1;marker:none" id="path10905" fill="none" fill-opacity="1" fill-rule="nonzero" stroke="#c2754a" stroke-dasharray="none" stroke-dashoffset="0" stroke-linecap="square" stroke-linejoin="miter" stroke-miterlimit="4" stroke-opacity="1" stroke-width="10" marker-end="none" marker-mid="none" marker-start="none" clip-rule="nonzero" color="#000" color-interpolation="sRGB" color-interpolation-filters="linearRGB" color-rendering="auto" display="inline" enable-background="accumulate" image-rendering="auto" opacity="1" overflow="visible" paint-order="normal" shape-rendering="auto" text-rendering="auto" visibility="visible"/><g id="g10963" fill="#a8c74f" fill-opacity="1" transform="translate(-5,2)"><path id="path10965" fill="#a8c74f" fill-opacity="1" fill-rule="nonzero" stroke="none" stroke-width="1" d="m 398,281 0,25.03125 c 0,2.32061 -0.2349,4.98821 -1.96875,7.3125 -1.73394,2.32425 -4.92602,3.7728 -9.28125,3.65625 l -18.28125,0 -4.64063,4.5 20.67188,0 13.5,13.5 0,-13.5 4.5,0 c 2.493,0 4.5,-2.007 4.5,-4.5 l 0,-31.5 c 0,-2.493 -2.007,-4.5 -4.5,-4.5 z" color="#000" display="inline" enable-background="accumulate" overflow="visible" visibility="visible" style="marker:none"/><path id="path10967" fill="#a8c74f" fill-opacity="1" fill-rule="nonzero" stroke="none" stroke-width="1" d="m 348.5,272 c -2.493,0 -4.5,2.007 -4.5,4.5 l 0,31.5 c 0,2.493 2.007,4.5 4.5,4.5 l 4.5,0 0,13.5 13.5,-13.5 22.5,0 c 2.493,0 4.5,-2.007 4.5,-4.5 l 0,-31.5 c 0,-2.493 -2.007,-4.5 -4.5,-4.5 l -40.5,0 z m 13.5,9 4.5,0 0,4.5 4.5,0 0,-4.5 4.5,0 0,4.5 4.5,0 0,4.5 -4.5,0 0,4.5 4.5,0 0,4.5 -4.5,0 0,4.5 -4.5,0 0,-4.5 -4.5,0 0,4.5 -4.5,0 0,-4.5 -4.5,0 0,-4.5 4.5,0 0,-4.5 -4.5,0 0,-4.5 4.5,0 0,-4.5 z m 4.5,9 0,4.5 4.5,0 0,-4.5 -4.5,0 z" color="#000" display="inline" enable-background="accumulate" overflow="visible" visibility="visible" style="marker:none"/></g></g></g></svg>