<svg xmlns="http://www.w3.org/2000/svg" xmlns:svg="http://www.w3.org/2000/svg" xmlns:xlink="http://www.w3.org/1999/xlink" id="svg11300" width="512" height="512" display="inline" enable-background="new" version="1.0" viewBox="0 0 512 512"><title id="title4162">Adwaita Icon Template</title><defs id="defs3"><clipPath id="clipPath7991" clipPathUnits="userSpaceOnUse"><path id="path7993" fill="none" fill-opacity="1" fill-rule="evenodd" stroke="#000" stroke-dasharray="none" stroke-dashoffset="0" stroke-linecap="butt" stroke-linejoin="miter" stroke-miterlimit="4" stroke-opacity="1" stroke-width="1.037" d="m 76,-180 c -12,0 -12,12 -12,12 v 276 h 416 v -228 c 0,0 0,-12 -12,-12 H 280 c -3.5093,0 -9.09146,-0.51692 -13.46022,-5.3383 l -33.91554,-37.42936 C 228.8957,-178.88249 223.86532,-180 220,-180 Z" clip-rule="nonzero" color="#000" color-interpolation="sRGB" color-interpolation-filters="linearRGB" color-rendering="auto" display="inline" enable-background="accumulate" image-rendering="auto" opacity="1" overflow="visible" shape-rendering="auto" text-rendering="auto" visibility="visible" style="isolation:auto;mix-blend-mode:normal;solid-color:#000;solid-opacity:1"/></clipPath><linearGradient id="linearGradient6985" x1="17.682" x2="17.682" y1="-1.667" y2="24.296" gradientTransform="matrix(11.124296,0,0,10.602774,83.30186,-98.32982)" gradientUnits="userSpaceOnUse" xlink:href="#linearGradient4908"/><linearGradient id="linearGradient4908"><stop id="stop4912" offset="0" stop-color="#f57900"/><stop id="stop4910" offset="1" stop-color="#ce5c00"/></linearGradient><radialGradient id="radialGradient6987" cx="243.817" cy="537" r="208" fx="243.817" fy="537" gradientTransform="matrix(3.3548387,0,0,0.5,-543.96775,-426.5)" gradientUnits="userSpaceOnUse" xlink:href="#linearGradient6123"/><linearGradient id="linearGradient6123"><stop id="stop6125" offset="0" stop-color="#fff" stop-opacity="1"/><stop id="stop6127" offset="1" stop-color="#fff" stop-opacity="0"/></linearGradient><filter id="filter10257" width="1.016" height="1.023" x="-.008" y="-.012" color-interpolation-filters="sRGB"><feGaussianBlur id="feGaussianBlur10259" stdDeviation="1.408"/></filter><filter id="filter8182" width="1.153" height="1.218" x="-.077" y="-.109" color-interpolation-filters="sRGB"><feGaussianBlur id="feGaussianBlur8184" stdDeviation="14.325"/></filter><linearGradient id="linearGradient11481"><stop id="stop11485" offset="0" stop-color="#ce5c00"/><stop id="stop11483" offset="1" stop-color="#a04600"/></linearGradient><linearGradient id="linearGradient4989"><stop id="stop4991" offset="0" stop-color="#f57900"/><stop id="stop4993" offset=".068" stop-color="#fcaf3e"/><stop id="stop4995" offset=".199" stop-color="#fcaf3e"/><stop id="stop4997" offset="1" stop-color="#f57900"/></linearGradient><filter id="filter10890-6" width="1.088" height="7.324" x="-.044" y="-3.162" color-interpolation-filters="sRGB"><feGaussianBlur id="feGaussianBlur10892-2" stdDeviation="3.68"/></filter><filter id="filter10886-3" width="1.062" height="3.26" x="-.031" y="-1.13" color-interpolation-filters="sRGB"><feGaussianBlur id="feGaussianBlur10888-5" stdDeviation="5.65"/></filter><filter id="filter8424" width="1.025" height="1.896" x="-.012" y="-.448" color-interpolation-filters="sRGB"><feGaussianBlur id="feGaussianBlur8426" stdDeviation="2.24"/></filter><clipPath id="clipPath6228" clipPathUnits="userSpaceOnUse"><path id="path6230" fill="none" fill-opacity="1" fill-rule="nonzero" stroke="#3c3222" stroke-dasharray="none" stroke-dashoffset="0" stroke-linecap="butt" stroke-linejoin="miter" stroke-miterlimit="4" stroke-opacity="1" stroke-width="1" d="m 60,-20 h 109.44278 c 8.64132,-0.004 11.2047,-2.65758 15.16748,-8.5786 l 15.2868,-23.63318 C 203.16772,-57.26818 208.28276,-68 214.91244,-68 H 484 c 12,0 12,12 12,12 l -4,292 c 0,0 0,12 -12,12 H 64 C 52,248 52,236 52,236 L 48,-8 c 0,0 0,-12 12,-12 z" clip-rule="nonzero" color="#000" color-interpolation="sRGB" color-interpolation-filters="linearRGB" color-rendering="auto" display="inline" enable-background="new" image-rendering="auto" opacity="1" overflow="visible" shape-rendering="auto" text-rendering="auto" visibility="visible" style="isolation:auto;mix-blend-mode:normal;solid-color:#000;solid-opacity:1;marker:none"/></clipPath><linearGradient id="linearGradient6977" x1="280" x2="279.833" y1="-71.967" y2="247" gradientTransform="rotate(180,272,90)" gradientUnits="userSpaceOnUse" xlink:href="#linearGradient4989"/><radialGradient id="radialGradient6979" cx="206" cy="-229.881" r="224" fx="206" fy="-229.881" gradientTransform="matrix(2.0535714,0,0,0.47651455,-217.03571,57.541517)" gradientUnits="userSpaceOnUse" xlink:href="#linearGradient6123"/><radialGradient id="radialGradient6981" cx="271" cy="230" r="207" fx="271" fy="230" gradientTransform="matrix(1.5241546,0,0,0.01570048,-142.04589,238.13889)" gradientUnits="userSpaceOnUse" xlink:href="#linearGradient6123"/><linearGradient id="linearGradient6983" x1="272" x2="272" y1="241.883" y2="129.817" gradientUnits="userSpaceOnUse" xlink:href="#linearGradient7187"/><linearGradient id="linearGradient7187"><stop id="stop7189" offset="0" stop-color="#3c3222" stop-opacity="1"/><stop id="stop7191" offset="1" stop-color="#3c3222" stop-opacity=".42"/></linearGradient><filter id="filter8589" width="1.012" height="1.017" x="-.006" y="-.009" color-interpolation-filters="sRGB"><feGaussianBlur id="feGaussianBlur8591" stdDeviation="1.146"/></filter><radialGradient id="radialGradient7892-7-7" cx="239" cy="51" r="5" gradientUnits="userSpaceOnUse" xlink:href="#linearGradient6123"/><radialGradient id="radialGradient7894-2-5" cx="179.52" cy="178.16" r="68.868" gradientTransform="matrix(1.3088,0.77845,-0.34302,0.57647,-3.4812,-69.984)" gradientUnits="userSpaceOnUse"><stop id="stop15764-4-3" offset="0" stop-color="#fff"/><stop id="stop15766-7-5" offset="1" stop-color="#fff" stop-opacity="0"/></radialGradient><filter id="filter15758-4-6" width="1.203" height="1.212" x="-.101" y="-.106" color-interpolation-filters="sRGB"><feGaussianBlur id="feGaussianBlur15760-4-2" stdDeviation="4.635"/></filter></defs><metadata id="metadata4"/><g id="layer1" display="inline" transform="translate(0,212)"><g id="layer2" display="none"><text id="context" x="7.856" y="-279.7" fill="#000" fill-opacity="1" stroke="none" display="inline" enable-background="new" font-family="Cantarell" font-size="18.301" font-stretch="normal" font-style="normal" font-variant="normal" font-weight="normal" text-anchor="start" writing-mode="lr-tb" xml:space="preserve" style="line-height:125%;-inkscape-font-specification:'Cantarell, Normal';text-align:start"><tspan id="tspan2716" x="7.856" y="-279.7">apps</tspan></text><text font-size="18.301" style="line-height:125%;-inkscape-font-specification:'Cantarell, Bold';text-align:start" id="text3021" x="7.265" y="-253.901" fill="#000" fill-opacity="1" stroke="none" display="inline" enable-background="new" font-family="Cantarell" font-stretch="normal" font-style="normal" font-variant="normal" font-weight="bold" text-anchor="start" writing-mode="lr-tb" xml:space="preserve"><tspan id="tspan3023" x="7.265" y="-253.901">org.sparkleshare.SparkleShare</tspan></text><rect id="rect13805" width="512" height="512" x="0" y="-212" fill="#f0f0f0" fill-opacity="1" fill-rule="nonzero" stroke="none" stroke-width="2" display="inline" enable-background="accumulate" overflow="visible" visibility="visible" style="marker:none"/><g id="g1168"><rect id="rect1110" width="320" height="448" x="96" y="-180" fill="#2864b0" fill-opacity="1" stroke="none" stroke-dasharray="none" stroke-dashoffset="0" stroke-linecap="butt" stroke-linejoin="miter" stroke-miterlimit="4" stroke-opacity="1" stroke-width="1" marker-end="none" marker-mid="none" marker-start="none" opacity=".1" paint-order="normal" rx="32" ry="32" style="marker:none"/><rect stroke-miterlimit="4" style="marker:none" id="rect1110-8" width="416" height="416" x="48" y="-164" fill="#2864b0" fill-opacity="1" stroke="none" stroke-dasharray="none" stroke-dashoffset="0" stroke-linecap="butt" stroke-linejoin="miter" stroke-opacity="1" stroke-width="1" marker-end="none" marker-mid="none" marker-start="none" display="inline" enable-background="new" opacity=".1" paint-order="normal" rx="32" ry="32"/><rect stroke-miterlimit="4" style="marker:none" id="rect1110-8-9" width="448" height="320" x="32" y="-116" fill="#2864b0" fill-opacity="1" stroke="none" stroke-dasharray="none" stroke-dashoffset="0" stroke-linecap="butt" stroke-linejoin="miter" stroke-opacity="1" stroke-width="1" marker-end="none" marker-mid="none" marker-start="none" display="inline" enable-background="new" opacity=".1" paint-order="normal" rx="32" ry="32"/><circle id="path1142" cx="256" cy="44" r="240" fill="#2864b0" fill-opacity="1" stroke="none" stroke-dasharray="none" stroke-dashoffset="0" stroke-linecap="butt" stroke-linejoin="miter" stroke-miterlimit="4" stroke-opacity="1" stroke-width="1" marker-end="none" marker-mid="none" marker-start="none" opacity=".1" paint-order="normal" style="marker:none"/></g></g><g id="layer9" display="inline"><g id="g6962" display="inline" transform="translate(-0.5355,-0.53551)"><path id="rect1100-6" fill="#fb8c14" fill-opacity="1" stroke="none" stroke-dasharray="none" stroke-dashoffset="0" stroke-linecap="butt" stroke-linejoin="miter" stroke-miterlimit="4" stroke-opacity="1" stroke-width="26.067" marker-end="none" marker-mid="none" marker-start="none" d="m 82.72039,-164.53549 c -19.194944,-0.0941 -34.755921,15.56075 -34.755921,34.75591 V 217.7796 H 429.77938 c 19.78984,0 34.75612,-13.76588 34.75612,-34.93672 V -97.148681 c 0,-19.195149 -15.56076,-34.767409 -34.75591,-34.755899 L 224,-132 192,-164 Z" display="inline" enable-background="new" opacity="1" paint-order="normal" style="marker:none"/><path id="rect1100-0-9" fill="#fff1db" fill-opacity="1" stroke="none" stroke-dasharray="none" stroke-dashoffset="0" stroke-linecap="butt" stroke-linejoin="miter" stroke-miterlimit="4" stroke-opacity="1" stroke-width="26.067" marker-end="none" marker-mid="none" marker-start="none" d="m 256,-76 -34.75601,33.110199 H 82.72039 c -19.195174,0 -34.755921,15.56077 -34.755921,34.7559274 V 252.53551 H 429.9233 c 17.2845,0 34.6122,-14.38562 34.6122,-34.74196 V -41.139801 c 0,-19.195161 -15.56076,-34.744388 -34.75591,-34.755908 z" display="inline" enable-background="new" opacity="1" paint-order="normal" style="marker:none"/><path id="rect1100-0-9-2" fill="#fb8c14" fill-opacity="1" stroke="none" stroke-dasharray="none" stroke-dashoffset="0" stroke-linecap="butt" stroke-linejoin="miter" stroke-miterlimit="4" stroke-opacity="1" stroke-width="26.067" marker-end="none" marker-mid="none" marker-start="none" d="m 464.5355,209.09072 v 8.68888 a 34.755931,34.755931 0 0 1 -34.75591,34.75591 H 47.464469 V 243.8465 H 429.77959 a 34.755931,34.755931 0 0 0 34.75591,-34.75578 z" display="inline" enable-background="new" opacity="1" paint-order="normal" style="marker:none"/></g><g id="g7988" clip-path="url(#clipPath7991)" transform="translate(560.08618,-14.00001)"><path id="path11591" fill="url(#linearGradient6985)" fill-opacity="1" fill-rule="evenodd" stroke="none" stroke-dasharray="none" stroke-dashoffset="0" stroke-linecap="butt" stroke-linejoin="miter" stroke-miterlimit="4" stroke-opacity="1" stroke-width="1.037" d="m 76,-180 c -12,0 -12,12 -12,12 v 276 h 416 v -228 c 0,0 0,-12 -12,-12 H 280 c -3.5093,0 -9.09146,-0.51692 -13.46022,-5.3383 l -33.91554,-37.42936 C 228.8957,-178.88249 223.86532,-180 220,-180 Z" clip-rule="nonzero" color="#000" color-interpolation="sRGB" color-interpolation-filters="linearRGB" color-rendering="auto" display="inline" enable-background="accumulate" image-rendering="auto" opacity="1" overflow="visible" shape-rendering="auto" text-rendering="auto" visibility="visible" style="isolation:auto;mix-blend-mode:normal;solid-color:#000;solid-opacity:1"/><path id="path11591-6" fill="url(#radialGradient6987)" fill-opacity="1" fill-rule="evenodd" stroke="none" stroke-dasharray="none" stroke-dashoffset="0" stroke-linecap="butt" stroke-linejoin="miter" stroke-miterlimit="4" stroke-opacity="1" stroke-width="1.037" d="m 76,-178 c -12,0 -12,12 -12,12 v 2 c 0,0 0,-12 12,-12 h 144 c 3.86532,0 8.89646,1.11759 12.625,5.23242 l 33.91406,37.42969 C 270.90782,-128.51651 276.4907,-128 280,-128 h 188 c 12,0 12,12 12,12 v -2 c 0,0 0,-12 -12,-12 H 280 c -3.5093,0 -9.09218,-0.51651 -13.46094,-5.33789 L 232.625,-172.76758 C 228.89646,-176.88241 223.86532,-178 220,-178 Z" clip-rule="nonzero" color="#000" color-interpolation="sRGB" color-interpolation-filters="linearRGB" color-rendering="auto" display="inline" enable-background="accumulate" image-rendering="auto" opacity=".471" overflow="visible" shape-rendering="auto" text-rendering="auto" visibility="visible" style="isolation:auto;mix-blend-mode:normal;solid-color:#000;solid-opacity:1"/><path clip-rule="nonzero" style="isolation:auto;mix-blend-mode:normal;solid-color:#000;solid-opacity:1" id="path11593" fill="none" fill-opacity="1" fill-rule="evenodd" stroke="#000" stroke-dasharray="none" stroke-dashoffset="0" stroke-linecap="butt" stroke-linejoin="miter" stroke-miterlimit="4" stroke-opacity="1" stroke-width="1" d="m 76,-180 c -12,0 -12,12 -12,12 V 92 h 416 v -212 c 0,0 0,-12 -12,-12 H 280 c -3.5093,0 -9.09146,-0.51692 -13.46022,-5.3383 l -33.91554,-37.42936 C 228.8957,-178.88249 223.86532,-180 220,-180 Z" clip-path="none" color="#000" color-interpolation="sRGB" color-interpolation-filters="linearRGB" color-rendering="auto" display="inline" enable-background="accumulate" filter="url(#filter10257)" image-rendering="auto" opacity=".5" overflow="visible" shape-rendering="auto" text-rendering="auto" visibility="visible"/><path id="path11597-1" fill="#301e01" fill-opacity="1" fill-rule="nonzero" stroke="none" stroke-dasharray="none" stroke-dashoffset="0" stroke-linecap="butt" stroke-linejoin="miter" stroke-miterlimit="4" stroke-opacity="1" stroke-width="1.351" d="m 60,-28 h 109.44278 c 8.64132,-0.004 11.2047,-2.65758 15.16748,-8.5786 l 15.2868,-15.63318 C 204.10729,-56.517404 208.28276,-68 214.91244,-68 H 484 c 12,0 12,12 12,12 l -4,292 c 0,0 0,12 -12,12 H 64 C 52,248 52,236 52,236 L 48,-16 c 0,0 0,-12 12,-12 z" clip-rule="nonzero" color="#000" color-interpolation="sRGB" color-interpolation-filters="linearRGB" color-rendering="auto" display="inline" enable-background="new" filter="url(#filter8182)" image-rendering="auto" opacity=".257" overflow="visible" shape-rendering="auto" text-rendering="auto" visibility="visible" style="isolation:auto;mix-blend-mode:normal;solid-color:#000;solid-opacity:1;marker:none"/></g><g id="g6823" transform="translate(560.08618,-14.00001)"><rect id="rect11527" width="200.506" height="2.794" x="-158.927" y="502.985" fill="#000" fill-opacity="1" fill-rule="nonzero" stroke="none" stroke-dasharray="none" stroke-dashoffset="0" stroke-linecap="butt" stroke-linejoin="miter" stroke-miterlimit="4" stroke-opacity="1" stroke-width="1.102" marker-end="none" marker-mid="none" marker-start="none" clip-rule="nonzero" color="#000" color-interpolation="sRGB" color-interpolation-filters="linearRGB" color-rendering="auto" display="inline" enable-background="new" filter="url(#filter10890-6)" image-rendering="auto" opacity=".3" overflow="visible" paint-order="normal" rx="2.734" ry="1.386" shape-rendering="auto" text-rendering="auto" transform="matrix(2.1944501,0,0,4.2956156,400.75696,-1922.6296)" visibility="visible" style="isolation:auto;mix-blend-mode:normal;solid-color:#000;solid-opacity:1;marker:none"/><rect marker-start="none" style="isolation:auto;mix-blend-mode:normal;solid-color:#000;solid-opacity:1;marker:none" id="rect11529" width="436" height="12" x="54" y="238" fill="#000" fill-opacity="1" fill-rule="nonzero" stroke="none" stroke-dasharray="none" stroke-dashoffset="0" stroke-linecap="butt" stroke-linejoin="miter" stroke-miterlimit="4" stroke-opacity="1" stroke-width="3.384" marker-end="none" marker-mid="none" clip-rule="nonzero" color="#000" color-interpolation="sRGB" color-interpolation-filters="linearRGB" color-rendering="auto" display="inline" enable-background="new" filter="url(#filter10886-3)" image-rendering="auto" opacity=".3" overflow="visible" paint-order="normal" rx="6" ry="5.912" shape-rendering="auto" text-rendering="auto" visibility="visible"/><rect id="rect8422" width="436" height="12" x="54" y="238" fill="#000" fill-opacity="1" fill-rule="nonzero" stroke="none" stroke-dasharray="none" stroke-dashoffset="0" stroke-linecap="butt" stroke-linejoin="miter" stroke-miterlimit="4" stroke-opacity="1" stroke-width="3.384" marker-end="none" marker-mid="none" marker-start="none" clip-rule="nonzero" color="#000" color-interpolation="sRGB" color-interpolation-filters="linearRGB" color-rendering="auto" display="inline" enable-background="new" filter="url(#filter8424)" image-rendering="auto" opacity=".2" overflow="visible" paint-order="normal" rx="6" ry="5.912" shape-rendering="auto" text-rendering="auto" visibility="visible" style="isolation:auto;mix-blend-mode:normal;solid-color:#000;solid-opacity:1;marker:none"/></g><g id="g6075" clip-path="url(#clipPath6228)" transform="translate(560.08618,-14.00001)"><path id="path11597" fill="url(#linearGradient6977)" fill-opacity="1" fill-rule="nonzero" stroke="none" stroke-dasharray="none" stroke-dashoffset="0" stroke-linecap="butt" stroke-linejoin="miter" stroke-miterlimit="4" stroke-opacity="1" stroke-width="1.351" d="m 60,-20 h 109.44278 c 8.64132,-0.004 11.2047,-2.65758 15.16748,-8.5786 l 15.2868,-23.63318 C 203.16772,-57.26818 208.28276,-68 214.91244,-68 H 484 c 12,0 12,12 12,12 l -4,292 c 0,0 0,12 -12,12 H 64 C 52,248 52,236 52,236 L 48,-8 c 0,0 0,-12 12,-12 z" clip-rule="nonzero" color="#000" color-interpolation="sRGB" color-interpolation-filters="linearRGB" color-rendering="auto" display="inline" enable-background="new" image-rendering="auto" opacity="1" overflow="visible" shape-rendering="auto" text-rendering="auto" visibility="visible" style="isolation:auto;mix-blend-mode:normal;solid-color:#000;solid-opacity:1;marker:none"/><path id="path11597-3" fill="url(#radialGradient6979)" fill-opacity="1" fill-rule="nonzero" stroke="none" stroke-dasharray="none" stroke-dashoffset="0" stroke-linecap="butt" stroke-linejoin="miter" stroke-miterlimit="4" stroke-opacity="1" stroke-width="1.351" d="m 214.91211,-66 c -6.62968,0 -11.74497,10.73266 -15.01563,15.78906 l -15.2871,23.63282 c -3.96279,5.92101 -6.5247,8.57412 -15.16602,8.57812 H 60 C 48,-18 48,-6 48,-6 l 0.02344,1.47852 C 48.188797,-6.82532 49.506373,-16 60,-16 h 109.44336 c 8.64132,-0.004 11.20323,-2.65711 15.16602,-8.57812 l 15.2871,-23.63282 C 203.16714,-53.26734 208.28243,-64 214.91211,-64 H 484 c 10.65335,0 11.84435,9.41438 11.97852,11.53711 L 496,-54 c 0,0 0,-12 -12,-12 z" clip-rule="nonzero" color="#000" color-interpolation="sRGB" color-interpolation-filters="linearRGB" color-rendering="auto" display="inline" enable-background="new" image-rendering="auto" opacity="1" overflow="visible" shape-rendering="auto" text-rendering="auto" visibility="visible" style="isolation:auto;mix-blend-mode:normal;solid-color:#000;solid-opacity:1;marker:none"/><rect id="rect5882" width="631" height="6.5" x="-44.5" y="238.5" fill="url(#radialGradient6981)" fill-opacity="1" fill-rule="evenodd" stroke="none" stroke-dasharray="none" stroke-dashoffset="0" stroke-linecap="butt" stroke-linejoin="miter" stroke-miterlimit="4" stroke-opacity="1" stroke-width="1" marker-end="none" marker-mid="none" marker-start="none" clip-rule="nonzero" color="#000" color-interpolation="sRGB" color-interpolation-filters="linearRGB" color-rendering="auto" display="inline" enable-background="accumulate" image-rendering="auto" opacity=".237" overflow="visible" paint-order="normal" rx="9.145" ry="3.25" shape-rendering="auto" text-rendering="auto" visibility="visible" style="isolation:auto;mix-blend-mode:normal;solid-color:#000;solid-opacity:1;marker:none"/><path clip-rule="nonzero" style="isolation:auto;mix-blend-mode:normal;solid-color:#000;solid-opacity:1;marker:none" id="path8549" fill="none" fill-opacity="1" fill-rule="nonzero" stroke="url(#linearGradient6983)" stroke-dasharray="none" stroke-dashoffset="0" stroke-linecap="butt" stroke-linejoin="miter" stroke-miterlimit="4" stroke-opacity="1" stroke-width="1" d="m 60,-20 h 109.44278 c 8.64132,-0.004 11.2047,-2.65758 15.16748,-8.5786 l 15.2868,-23.63318 C 203.16772,-57.268176 208.28276,-68 214.91244,-68 H 483.75 c 13.5,0 12.25,7.25 12.25,12 l -4,292 c 0,0 0,12 -12,12 H 64 C 52,248 52,236 52,236 L 48,-8 c 0,-7.75 -2.75,-12 12,-12 z" clip-path="none" color="#000" color-interpolation="sRGB" color-interpolation-filters="linearRGB" color-rendering="auto" display="inline" enable-background="new" filter="url(#filter8589)" image-rendering="auto" opacity="1" overflow="visible" shape-rendering="auto" text-rendering="auto" visibility="visible"/></g><g id="g7670" fill="none" stroke="#e35e0d" stroke-linecap="round" stroke-linejoin="round" stroke-width="9.101" transform="matrix(1.757971,0,0,1.757971,-746.32781,-224.6702)"><path id="path4683" stroke="#fb8c14" stroke-dasharray="none" stroke-miterlimit="4" stroke-opacity="1" stroke-width="11.377" d="m 569.61483,133.87861 c -1.94465,0.25163 -3.66035,1.78504 -4.14052,3.6942 l -8.27628,24.93542 -1.83502,0.93045 h -25.29358 c -1.41377,0 -2.79351,0.73901 -3.67962,1.8471 -1.8648,2.09543 -1.3972,5.81324 0.91383,7.38849 l 20.69588,15.23924 0.44019,2.2166 -7.8164,24.47315 c -1.08695,3.81977 4.00934,7.65879 7.3583,5.54129 l 20.6938,-15.23819 h 2.64909 l 20.69587,15.23819 c 1.79953,1.18214 4.37854,0.97571 5.9768,-0.45803 1.35485,-1.25615 1.91904,-3.30855 1.38347,-5.08036 l -7.81837,-24.47317 c -0.74056,-0.14738 0.29163,-1.47759 0.44021,-2.2165 l 20.69276,-15.23924 c 2.31841,-1.57514 2.77756,-5.29298 0.91402,-7.38838 -0.87914,-1.108 -2.26512,-1.80129 -3.67815,-1.8471 h -25.75482 l -1.83439,-0.93043 -7.81859,-24.93545 c -0.23041,-0.8724 -0.71735,-1.68747 -1.38346,-2.30966 -0.97172,-0.94555 -2.33207,-1.46303 -3.67859,-1.389 l 0.16378,9e-4 v 1.1e-4 l -0.009,3.4e-4 z" enable-background="new"/></g><g id="g4354" display="inline" transform="translate(-1083.8231,-0.53551)"><path id="path4348" fill="#e35e0d" fill-opacity="1" stroke="none" stroke-dasharray="none" stroke-dashoffset="0" stroke-linecap="butt" stroke-linejoin="miter" stroke-miterlimit="4" stroke-opacity="1" stroke-width="26.067" marker-end="none" marker-mid="none" marker-start="none" d="m 82.72039,-164.53549 c -19.194944,-0.0941 -34.755921,15.56075 -34.755921,34.75591 V 217.7796 H 429.77938 c 19.78984,0 34.75612,-13.76588 34.75612,-34.93672 V -97.148681 c 0,-19.195149 -15.56076,-34.767409 -34.75591,-34.755899 L 224,-132 192,-164 Z" display="inline" enable-background="new" opacity="1" paint-order="normal" style="marker:none"/><path id="path4350" fill="#fb8c14" fill-opacity="1" stroke="none" stroke-dasharray="none" stroke-dashoffset="0" stroke-linecap="butt" stroke-linejoin="miter" stroke-miterlimit="4" stroke-opacity="1" stroke-width="26.067" marker-end="none" marker-mid="none" marker-start="none" d="m 256,-76 -34.75601,33.110199 H 82.72039 c -19.195174,0 -34.755921,15.56077 -34.755921,34.7559274 V 252.53551 H 429.9233 c 17.2845,0 34.6122,-14.38562 34.6122,-34.74196 V -41.139801 c 0,-19.195161 -15.56076,-34.744388 -34.75591,-34.755908 z" display="inline" enable-background="new" opacity="1" paint-order="normal" style="marker:none"/><path id="path4352" fill="#e35e0d" fill-opacity="1" stroke="none" stroke-dasharray="none" stroke-dashoffset="0" stroke-linecap="butt" stroke-linejoin="miter" stroke-miterlimit="4" stroke-opacity="1" stroke-width="26.067" marker-end="none" marker-mid="none" marker-start="none" d="m 464.5355,209.09072 v 8.68888 a 34.755931,34.755931 0 0 1 -34.75591,34.75591 H 47.464469 V 243.8465 H 429.77959 a 34.755931,34.755931 0 0 0 34.75591,-34.75578 z" display="inline" enable-background="new" opacity="1" paint-order="normal" style="marker:none"/></g><g id="g4362" fill="none" stroke-linecap="round" stroke-linejoin="round" stroke-width="8" transform="matrix(2,0,0,2,-1967.5717,-267.61655)"><path id="path4356" stroke="#fbc98d" d="m 569.63,135.6 c -1.8678,0.24167 -3.5157,1.7145 -3.9769,3.5482 l -7.9492,23.95 -1.7625,0.89368 h -24.294 c -1.3579,0 -2.6831,0.70979 -3.5342,1.7741 -1.7911,2.0126 -1.342,5.5835 0.8777,7.0965 l 19.878,14.637 0.4228,2.129 -7.5075,23.506 c -1.044,3.6688 3.8509,7.3561 7.0675,5.3223 l 19.876,-14.636 h 2.5444 l 19.878,14.636 c 1.7284,1.1354 4.2055,0.93713 5.7406,-0.43994 1.3013,-1.2065 1.8432,-3.1778 1.3288,-4.8796 l -7.5094,-23.506 c -0.7113,-0.14154 0.2801,-1.4192 0.4228,-2.1289 l 19.875,-14.637 c 2.2268,-1.5129 2.6678,-5.0838 0.8779,-7.0964 -0.8444,-1.0642 -2.1756,-1.7301 -3.5328,-1.7741 h -24.737 l -1.7619,-0.89367 -7.5096,-23.95 c -0.2213,-0.83794 -0.689,-1.6208 -1.3288,-2.2184 -0.9333,-0.90818 -2.2399,-1.4052 -3.5332,-1.3341 l 0.1573,8.6e-4 v 1.1e-4 l -0.009,3.4e-4 z" enable-background="new"/><path id="path4358" stroke="#d77711" d="m 569.63,139.475 c -1.8678,0.24167 -3.5157,1.7145 -3.9769,3.5482 l -7.9492,23.95 -1.7625,0.89368 h -24.294 c -1.3579,0 -2.6831,0.70979 -3.5342,1.7741 -1.7911,2.0126 -1.342,5.5835 0.8777,7.0965 l 19.878,14.637 0.4228,2.129 -7.5075,23.506 c -1.044,3.6688 3.8509,7.3561 7.0675,5.3223 l 19.876,-14.636 h 2.5444 l 19.878,14.636 c 1.7284,1.1354 4.2055,0.93713 5.7406,-0.43994 1.3013,-1.2065 1.8432,-3.1778 1.3288,-4.8796 l -7.5094,-23.506 c -0.7113,-0.14154 0.2801,-1.4192 0.4228,-2.1289 l 19.875,-14.637 c 2.2268,-1.5129 2.6678,-5.0838 0.8779,-7.0964 -0.8444,-1.0642 -2.1756,-1.7301 -3.5328,-1.7741 h -24.737 l -1.7619,-0.89367 -7.5096,-23.95 c -0.2213,-0.83794 -0.689,-1.6208 -1.3288,-2.2184 -0.9333,-0.90818 -2.2399,-1.4052 -3.5332,-1.3341 l 0.1573,8.6e-4 v 1.1e-4 l -0.009,3.4e-4 z" enable-background="new"/><path id="path4360" stroke="#fbc98d" d="m 569.63,135.6 c -1.8678,0.24167 -3.5157,1.7145 -3.9769,3.5482 l -7.9492,23.95 -1.7625,0.89368 h -24.294 c -1.3579,0 -2.6831,0.70979 -3.5342,1.7741 -1.7911,2.0126 -1.342,5.5835 0.8777,7.0965 l 19.878,14.637 0.4228,2.129 -7.5075,23.506 c -1.044,3.6688 3.8509,7.3561 7.0675,5.3223 l 19.876,-14.636 h 2.5444 l 19.878,14.636 c 1.7284,1.1354 4.2055,0.93713 5.7406,-0.43994 1.3013,-1.2065 1.8432,-3.1778 1.3288,-4.8796 l -7.5094,-23.506 c -0.7113,-0.14154 0.2801,-1.4192 0.4228,-2.1289 l 19.875,-14.637 c 2.2268,-1.5129 2.6678,-5.0838 0.8779,-7.0964 -0.8444,-1.0642 -2.1756,-1.7301 -3.5328,-1.7741 h -24.737 l -1.7619,-0.89367 -7.5096,-23.95 c -0.2213,-0.83794 -0.689,-1.6208 -1.3288,-2.2184 -0.9333,-0.90818 -2.2399,-1.4052 -3.5332,-1.3341 l 0.1573,8.6e-4 v 1.1e-4 l -0.009,3.4e-4 z" enable-background="new"/></g><path id="path4364" fill="#fdeddd" stroke-width="2" d="m -852.91856,147.52123 c 0,0 13.25,-6.25 25.25,0.25 l 42,30.5 c 7.75,4.25 19,-2.5 20.75,-9.75 0,0 -12.5,1.5 -17,-5.5 l -39,-29.5 c -3.25,-2.5 -8.5,-2.5 -12.5,-0.5 z" color="#000" opacity=".562"/><path id="path4366" fill="#fde6cf" stroke-width="2" d="m -870.57924,179.00145 c -6.25,-2 -8.8856,-6.0546 -5.7788,-17.6344 l 7.8532,-25.654 c 0.92424,-8.7904 0.5932,-15.7036 -10.5198,-22.016 0,0 -1.50266,12.1632 -4.4516,20.08 l -8.6334,26.872 c -0.60836,11.6004 9.5508,19.6598 21.53,18.352 z" color="#000" opacity=".562"/><path id="path4368" fill="#fff" stroke-width="2" d="m -837.56568,38.84745 c 0,0 -7.1986,12.7596 -20.748,14.3928 l -47.402,0.39264 c -11.7806,0.012 -18.8082,14.7736 -14.545,25.702 0,0 1.33252,-9.45 15.551,-9.5896 l 49.126,-0.97434 c 4.0972,0.1612 8.381,-2.8738 10.4888,-6.8182 z" color="#000" opacity=".562"/><path id="path4370" fill="#fff" stroke-width="2" d="m -837.74568,-1.26147 c 0,0 4.52,2.6858 11.2634,14.5508 l 7.4158,24.326 c 4.3274,7.707 8.2,14.5978 20.916,13.3238 0,0 -9.6332,-30.9 -15.0648,-46.17 -6.2096,-9.8172 -15.9366,-9.433 -24.53,-6.0306 z" color="#000" opacity=".562"/><g id="use6964" fill="#87bae1" display="inline" transform="translate(0.98155117,-597.27831)"><path id="path5230" fill="#6aa9da" fill-opacity="1" stroke="none" stroke-dasharray="none" stroke-dashoffset="0" stroke-linecap="butt" stroke-linejoin="miter" stroke-miterlimit="4" stroke-opacity="1" stroke-width="26.067" marker-end="none" marker-mid="none" marker-start="none" d="m 82.72039,-164.53549 c -19.194944,-0.0941 -34.755921,15.56075 -34.755921,34.75591 V 217.7796 H 429.77938 c 19.78984,0 34.75612,-13.76588 34.75612,-34.93672 V -97.148681 c 0,-19.195149 -15.56076,-34.767409 -34.75591,-34.755899 L 224,-132 192,-164 Z" display="inline" enable-background="new" opacity="1" paint-order="normal" style="marker:none"/><path id="path5232" fill="#f7fbfd" fill-opacity="1" stroke="none" stroke-dasharray="none" stroke-dashoffset="0" stroke-linecap="butt" stroke-linejoin="miter" stroke-miterlimit="4" stroke-opacity="1" stroke-width="26.067" marker-end="none" marker-mid="none" marker-start="none" d="m 256,-76 -34.75601,33.110199 H 82.72039 c -19.195174,0 -34.755921,15.56077 -34.755921,34.7559274 V 252.53551 H 429.9233 c 17.2845,0 34.6122,-14.38562 34.6122,-34.74196 V -41.139801 c 0,-19.195161 -15.56076,-34.744388 -34.75591,-34.755908 z" display="inline" enable-background="new" opacity="1" paint-order="normal" style="marker:none"/><path id="path5234" fill="#87bae1" fill-opacity="1" stroke="none" stroke-dasharray="none" stroke-dashoffset="0" stroke-linecap="butt" stroke-linejoin="miter" stroke-miterlimit="4" stroke-opacity="1" stroke-width="26.067" marker-end="none" marker-mid="none" marker-start="none" d="m 464.5355,209.09072 v 8.68888 a 34.755931,34.755931 0 0 1 -34.75591,34.75591 H 47.464469 V 243.8465 H 429.77959 a 34.755931,34.755931 0 0 0 34.75591,-34.75578 z" display="inline" enable-background="new" opacity="1" paint-order="normal" style="marker:none"/></g><g id="g6252" display="inline" transform="matrix(10,0,0,10,-5643.0185,-4413.278)"><path dominant-baseline="auto" style="line-height:normal;font-variant-ligatures:normal;font-variant-position:normal;font-variant-caps:normal;font-variant-numeric:normal;font-variant-alternates:normal;font-feature-settings:normal;text-indent:0;text-align:start;text-decoration-line:none;text-decoration-style:solid;text-decoration-color:#000;text-transform:none;text-orientation:mixed;white-space:normal;shape-padding:0;isolation:auto;mix-blend-mode:normal;solid-color:#000;solid-opacity:1;marker:none" id="path6170" fill="#87bae1" fill-opacity="1" fill-rule="nonzero" stroke="none" stroke-dasharray="none" stroke-dashoffset="0" stroke-linecap="butt" stroke-linejoin="miter" stroke-miterlimit="4" stroke-opacity="1" stroke-width="20" d="m 786.00195,236 v 20 43.41602 c -4.55549,-2.18819 -9.64361,-3.41993 -15,-3.41993 -19.2115,0 -34.99414,15.80218 -34.99414,35.01368 0,19.2115 15.78264,34.99414 34.99414,34.99414 19.16184,0 34.90683,-15.70177 34.98828,-34.84571 h 0.0117 V 256 h 60 v 43.41602 c -4.55549,-2.18819 -9.64361,-3.41993 -15,-3.41993 -19.2115,0 -34.99414,15.80218 -34.99414,35.01368 0,19.2115 15.78264,34.99414 34.99414,34.99414 19.00472,0 34.64173,-15.44682 34.97657,-34.37696 h 0.0234 V 256 236 h -20 -60 z m -15,80.00391 c 8.36251,0 14.93708,6.5416 15,14.88671 v 0.23829 c -0.0629,8.34492 -6.63749,14.86718 -15,14.86718 -8.4027,0 -15.00586,-6.58362 -15.00586,-14.98632 0,-8.4027 6.60316,-15.00586 15.00586,-15.00586 z m 80,0 c 8.36251,0 14.93708,6.5416 15,14.88671 v 0.23829 c -0.0629,8.34492 -6.63749,14.86718 -15,14.86718 -8.4027,0 -15.00586,-6.58362 -15.00586,-14.98632 0,-8.4027 6.60316,-15.00586 15.00586,-15.00586 z" baseline-shift="baseline" clip-rule="nonzero" color="#000" color-interpolation="sRGB" color-interpolation-filters="linearRGB" color-rendering="auto" direction="ltr" display="inline" enable-background="new" font-family="sans-serif" font-size="medium" font-stretch="normal" font-style="normal" font-variant="normal" font-weight="normal" image-rendering="auto" letter-spacing="normal" opacity="1" overflow="visible" shape-rendering="auto" text-anchor="start" text-decoration="none" text-rendering="auto" transform="matrix(0.1,0,0,0.1,508.4,360.39997)" visibility="visible" word-spacing="normal" writing-mode="lr-tb"/></g></g></g></svg>