<svg xmlns="http://www.w3.org/2000/svg" xmlns:svg="http://www.w3.org/2000/svg" xmlns:xlink="http://www.w3.org/1999/xlink" id="svg11300" width="128" height="128" display="inline" enable-background="new" version="1.0" viewBox="0 0 128 128"><title id="title4162">Adwaita Icon Template</title><defs id="defs3"><linearGradient id="linearGradient7726"><stop id="stop7722" offset="0" stop-color="#ac1d2e" stop-opacity="1"/><stop id="stop7724" offset="1" stop-color="#e01b24" stop-opacity="1"/></linearGradient><linearGradient id="linearGradient904"><stop id="stop900" offset="0" stop-color="#eb0000" stop-opacity="1"/><stop id="stop902" offset="1" stop-color="#b90000" stop-opacity="1"/></linearGradient><linearGradient id="linearGradient920"><stop id="stop916" offset="0" stop-color="#eeeeec" stop-opacity="1"/><stop id="stop926" offset=".043" stop-color="#fff" stop-opacity="1"/><stop id="stop924" offset=".114" stop-color="#eeeeec" stop-opacity=".882"/><stop id="stop918" offset="1" stop-color="#eeeeec" stop-opacity=".98"/></linearGradient><clipPath id="clipPath959" clipPathUnits="userSpaceOnUse"><path id="path961" fill="#c00" fill-opacity="1" stroke="none" stroke-dasharray="none" stroke-dashoffset="0" stroke-linecap="round" stroke-linejoin="miter" stroke-miterlimit="4" stroke-opacity="1" stroke-width="24" marker-end="none" marker-mid="none" marker-start="none" d="m 96,-180 v 328 h 288 c 17.728,0 32,-14.272 32,-32 v -264 c 0,-17.728 -14.272,-32 -32,-32 z" display="inline" enable-background="new" opacity="1" paint-order="normal" style="marker:none"/></clipPath><linearGradient id="linearGradient922" x1="415.917" x2="108.894" y1="221.511" y2="221.511" gradientTransform="matrix(0.25,0,0,0.25,-156,225)" gradientUnits="userSpaceOnUse" xlink:href="#linearGradient920"/><linearGradient id="linearGradient7708" x1="415.917" x2="108.894" y1="221.511" y2="221.511" gradientTransform="matrix(0.25,0,0,0.25,-356,225)" gradientUnits="userSpaceOnUse" xlink:href="#linearGradient920"/><linearGradient id="linearGradient7710" x1="341" x2="341" y1="52" y2="394" gradientTransform="matrix(0.25,0,0,0.25,-356,172)" gradientUnits="userSpaceOnUse" xlink:href="#linearGradient904"/><linearGradient id="linearGradient7728" x1="145.5" x2="381.5" y1="42.5" y2="-193.5" gradientTransform="matrix(0.25,0,0,0.25,-156,225)" gradientUnits="userSpaceOnUse" xlink:href="#linearGradient7726"/><linearGradient id="linearGradient1879"><stop id="stop1873" offset="0" stop-color="#e8e7e4" stop-opacity="1"/><stop id="stop1875" offset=".5" stop-color="#fff" stop-opacity="1"/><stop id="stop1877" offset="1" stop-color="#c9c6c1" stop-opacity="1"/></linearGradient><linearGradient id="linearGradient1037" x1="384" x2="416" y1="120" y2="120" gradientTransform="matrix(0.25,0,0,0.25,6.9488522e-8,225)" gradientUnits="userSpaceOnUse" xlink:href="#linearGradient1879"/><clipPath id="clipPath898" clipPathUnits="userSpaceOnUse"><rect id="rect900" width="126.999" height="31.75" x="140.6" y="214.223" fill="#000" fill-opacity="1" stroke="none" stroke-dasharray="none" stroke-dashoffset="0" stroke-linecap="butt" stroke-linejoin="miter" stroke-miterlimit="4" stroke-opacity="1" stroke-width="4.233" marker-end="none" marker-mid="none" marker-start="none" opacity=".1" paint-order="normal" rx="8.467" ry="8.467" style="marker:none"/></clipPath><clipPath id="clipPath920" clipPathUnits="userSpaceOnUse"><rect id="rect922" width="126.999" height="31.75" x="140.6" y="250.923" fill="#000" fill-opacity="1" stroke="none" stroke-dasharray="none" stroke-dashoffset="0" stroke-linecap="butt" stroke-linejoin="miter" stroke-miterlimit="4" stroke-opacity="1" stroke-width="4.233" marker-end="none" marker-mid="none" marker-start="none" opacity=".1" paint-order="normal" rx="8.467" ry="8.467" style="marker:none"/></clipPath><clipPath id="clipPath924" clipPathUnits="userSpaceOnUse"><rect id="rect926" width="126.999" height="31.75" x="140.6" y="288.205" fill="#000" fill-opacity="1" stroke="none" stroke-dasharray="none" stroke-dashoffset="0" stroke-linecap="butt" stroke-linejoin="miter" stroke-miterlimit="4" stroke-opacity="1" stroke-width="4.233" marker-end="none" marker-mid="none" marker-start="none" opacity=".1" paint-order="normal" rx="8.467" ry="8.467" style="marker:none"/></clipPath><clipPath id="clipPath928" clipPathUnits="userSpaceOnUse"><rect id="rect930" width="126.999" height="31.75" x="140.6" y="324.904" fill="#000" fill-opacity="1" stroke="none" stroke-dasharray="none" stroke-dashoffset="0" stroke-linecap="butt" stroke-linejoin="miter" stroke-miterlimit="4" stroke-opacity="1" stroke-width="4.233" marker-end="none" marker-mid="none" marker-start="none" opacity=".1" paint-order="normal" rx="8.467" ry="8.467" style="marker:none"/></clipPath><clipPath id="clipPath932" clipPathUnits="userSpaceOnUse"><rect id="rect934" width="126.999" height="31.75" x="140.6" y="362.186" fill="#000" fill-opacity="1" stroke="none" stroke-dasharray="none" stroke-dashoffset="0" stroke-linecap="butt" stroke-linejoin="miter" stroke-miterlimit="4" stroke-opacity="1" stroke-width="4.233" marker-end="none" marker-mid="none" marker-start="none" opacity=".1" paint-order="normal" rx="8.467" ry="8.467" style="marker:none"/></clipPath><clipPath id="clipPath936" clipPathUnits="userSpaceOnUse"><rect id="rect938" width="126.999" height="31.75" x="140.6" y="399.468" fill="#000" fill-opacity="1" stroke="none" stroke-dasharray="none" stroke-dashoffset="0" stroke-linecap="butt" stroke-linejoin="miter" stroke-miterlimit="4" stroke-opacity="1" stroke-width="4.233" marker-end="none" marker-mid="none" marker-start="none" opacity=".1" paint-order="normal" rx="8.467" ry="8.467" style="marker:none"/></clipPath><clipPath id="clipPath940" clipPathUnits="userSpaceOnUse"><rect id="rect942" width="126.999" height="31.75" x="140.6" y="436.167" fill="#000" fill-opacity="1" stroke="none" stroke-dasharray="none" stroke-dashoffset="0" stroke-linecap="butt" stroke-linejoin="miter" stroke-miterlimit="4" stroke-opacity="1" stroke-width="4.233" marker-end="none" marker-mid="none" marker-start="none" opacity=".1" paint-order="normal" rx="8.467" ry="8.467" style="marker:none"/></clipPath><clipPath id="clipPath944" clipPathUnits="userSpaceOnUse"><rect id="rect946" width="253.868" height="31.75" x="140.6" y="473.449" fill="#000" fill-opacity="1" stroke="none" stroke-dasharray="none" stroke-dashoffset="0" stroke-linecap="butt" stroke-linejoin="miter" stroke-miterlimit="4" stroke-opacity="1" stroke-width="4.233" marker-end="none" marker-mid="none" marker-start="none" opacity=".1" paint-order="normal" rx="8.467" ry="8.467" style="marker:none"/></clipPath><clipPath id="clipPath944-3" clipPathUnits="userSpaceOnUse"><rect id="rect946-6" width="253.868" height="31.75" x="140.6" y="473.449" fill="#000" fill-opacity="1" stroke="none" stroke-dasharray="none" stroke-dashoffset="0" stroke-linecap="butt" stroke-linejoin="miter" stroke-miterlimit="4" stroke-opacity="1" stroke-width="4.233" marker-end="none" marker-mid="none" marker-start="none" opacity=".1" paint-order="normal" rx="8.467" ry="8.467" style="marker:none"/></clipPath></defs><metadata id="metadata4"/><g id="layer1" display="inline" transform="translate(0,-172)"><g id="layer2" display="none"><text id="context" x="7.856" y="-279.7" fill="#000" fill-opacity="1" stroke="none" display="inline" enable-background="new" font-family="Cantarell" font-size="18.301" font-stretch="normal" font-style="normal" font-variant="normal" font-weight="normal" text-anchor="start" writing-mode="lr-tb" xml:space="preserve" style="line-height:125%;-inkscape-font-specification:'Cantarell, Normal';text-align:start"><tspan id="tspan2716" x="7.856" y="-279.7">apps</tspan></text><text font-size="18.301" style="line-height:125%;-inkscape-font-specification:'Cantarell, Bold';text-align:start" id="text3021" x="7.265" y="-253.901" fill="#000" fill-opacity="1" stroke="none" display="inline" enable-background="new" font-family="Cantarell" font-stretch="normal" font-style="normal" font-variant="normal" font-weight="bold" text-anchor="start" writing-mode="lr-tb" xml:space="preserve"><tspan id="tspan3023" x="7.265" y="-253.901">org.gnome.</tspan></text><rect id="rect13805" width="128" height="128" x="0" y="172" fill="#f0f0f0" fill-opacity="1" fill-rule="nonzero" stroke="none" stroke-width=".5" display="inline" enable-background="accumulate" overflow="visible" visibility="visible" style="marker:none"/><g id="g1168" display="inline" transform="matrix(0.25,0,0,0.25,6.9488522e-8,225)"><rect id="rect1110" width="320" height="448" x="96" y="-180" fill="#2864b0" fill-opacity="1" stroke="none" stroke-dasharray="none" stroke-dashoffset="0" stroke-linecap="butt" stroke-linejoin="miter" stroke-miterlimit="4" stroke-opacity="1" stroke-width="1" marker-end="none" marker-mid="none" marker-start="none" opacity=".1" paint-order="normal" rx="32" ry="32" style="marker:none"/><rect stroke-miterlimit="4" style="marker:none" id="rect1110-8" width="416" height="416" x="48" y="-164" fill="#2864b0" fill-opacity="1" stroke="none" stroke-dasharray="none" stroke-dashoffset="0" stroke-linecap="butt" stroke-linejoin="miter" stroke-opacity="1" stroke-width="1" marker-end="none" marker-mid="none" marker-start="none" display="inline" enable-background="new" opacity=".1" paint-order="normal" rx="32" ry="32"/><rect stroke-miterlimit="4" style="marker:none" id="rect1110-8-9" width="448" height="320" x="32" y="-116" fill="#2864b0" fill-opacity="1" stroke="none" stroke-dasharray="none" stroke-dashoffset="0" stroke-linecap="butt" stroke-linejoin="miter" stroke-opacity="1" stroke-width="1" marker-end="none" marker-mid="none" marker-start="none" display="inline" enable-background="new" opacity=".1" paint-order="normal" rx="32" ry="32"/><circle id="path1142" cx="256" cy="44" r="240" fill="#2864b0" fill-opacity="1" stroke="none" stroke-dasharray="none" stroke-dashoffset="0" stroke-linecap="butt" stroke-linejoin="miter" stroke-miterlimit="4" stroke-opacity="1" stroke-width="1" marker-end="none" marker-mid="none" marker-start="none" opacity=".1" paint-order="normal" style="marker:none"/></g></g><g id="layer3" display="none"><path id="rect909-7" fill="#000" fill-opacity="1" stroke="none" stroke-dasharray="none" stroke-dashoffset="0" stroke-linecap="round" stroke-linejoin="miter" stroke-miterlimit="4" stroke-opacity="1" stroke-width="24.003" marker-end="none" marker-mid="none" marker-start="none" d="M 104.0332,-172 C 99.612897,-172 96,-168.24264 96,-164 V 76.00781 196 243 c 0,18.282 14.69875,33 32.95703,33 h 254.00195 c 18.25828,0 32.95704,-14.718 32.95704,-33 V 166.2207 C 415.96593,165.48649 416,164.7473 416,164 v -304 c 0,-17.728 -14.272,-32 -32,-32 z" display="inline" enable-background="new" opacity=".15" paint-order="normal" style="marker:none"/></g><g id="layer9" display="inline"><rect id="rect909" width="79.979" height="58.248" x="-132" y="233.752" fill="#ac1d2e" fill-opacity="1" stroke="none" stroke-dasharray="none" stroke-dashoffset="0" stroke-linecap="round" stroke-linejoin="miter" stroke-miterlimit="4" stroke-opacity="1" stroke-width="6.001" marker-end="none" marker-mid="none" marker-start="none" opacity="1" paint-order="normal" rx="8.239" ry="8.25" style="marker:none"/><g id="g932" transform="matrix(0.25,0,0,0.25,-156,227)"><rect stroke-miterlimit="4" style="marker:none" id="rect868-3-6-3" width="312" height="400" x="104" y="-148" fill="#e01b24" fill-opacity="1" stroke="none" stroke-dasharray="none" stroke-dashoffset="0" stroke-linecap="round" stroke-linejoin="miter" stroke-opacity="1" stroke-width="24" marker-end="none" marker-mid="none" marker-start="none" display="inline" enable-background="new" opacity="1" paint-order="normal" rx="32" ry="32"/></g><rect stroke-miterlimit="4" style="marker:none" id="rect868-7-3-1" width="78" height="100" x="-130" y="188" fill="url(#linearGradient922)" fill-opacity="1" stroke="none" stroke-dasharray="none" stroke-dashoffset="0" stroke-linecap="round" stroke-linejoin="miter" stroke-opacity="1" stroke-width="9.367" marker-end="none" marker-mid="none" marker-start="none" display="inline" enable-background="new" opacity="1" paint-order="normal" rx="5.75" ry="5.75"/><path id="rect928" fill="#000" fill-opacity=".091" stroke="none" stroke-dasharray="none" stroke-dashoffset="0" stroke-linecap="round" stroke-linejoin="miter" stroke-miterlimit="4" stroke-opacity="1" stroke-width="6.001" marker-end="none" marker-mid="none" marker-start="none" d="m -121.7607,218.00208 h 61.5006 c 4.5646,0 8.2393,3.6795 8.2393,8.25 V 268 c 0,4.5705 -3.6747,8.25 -8.2393,8.25 H -130 v -49.99792 c 0,-4.5705 3.6747,-8.25 8.2393,-8.25 z" opacity="1" paint-order="normal" style="marker:none"/><path id="rect868" fill="#a40000" fill-opacity="1" stroke="none" stroke-dasharray="none" stroke-dashoffset="0" stroke-linecap="round" stroke-linejoin="miter" stroke-miterlimit="4" stroke-opacity="1" stroke-width="6" marker-end="none" marker-mid="none" marker-start="none" d="m -124,180 c -2.0371,0 -3.8903,0.75496 -5.2998,2 H -132 v 6 78 l 2,10 c 0,-1.19458 0.8429,-2 2,-2 h 28 40 c 4.432,0 8,-3.568 8,-8 v -78 c 0,-4.432 -3.568,-8 -8,-8 z" opacity="1" paint-order="normal" style="marker:none"/><path id="rect868-7" fill="#ac1d2e" fill-opacity="1" stroke="none" stroke-dasharray="none" stroke-dashoffset="0" stroke-linecap="round" stroke-linejoin="miter" stroke-miterlimit="4" stroke-opacity="1" stroke-width="6" marker-end="none" marker-mid="none" marker-start="none" d="m -132,182 v 90 h 72 c 4.432,0 8,-3.568 8,-8 v -76 c 0,-4.432 -3.568,-8 -8,-8 h -69.9917 c -1.1051,0 -2.0083,0.93934 -2.0083,2 z" display="inline" enable-background="new" opacity="1" paint-order="normal" style="marker:none"/><path id="rect889" fill="#f66151" fill-opacity="1" stroke="none" stroke-dasharray="none" stroke-dashoffset="0" stroke-linecap="butt" stroke-linejoin="miter" stroke-miterlimit="4" stroke-opacity="1" stroke-width="6" marker-end="none" marker-mid="none" marker-start="none" d="m -130,180 h 2 v 92 h -2 z" opacity="1" paint-order="normal" style="marker:none"/><path id="rect1036" fill="url(#linearGradient7728)" fill-opacity="1" stroke="none" stroke-dasharray="none" stroke-dashoffset="0" stroke-linecap="butt" stroke-linejoin="miter" stroke-miterlimit="4" stroke-opacity="1" stroke-width="8.609" marker-end="none" marker-mid="none" marker-start="none" d="m -122,180 h 62 c 4.432,0 8,3.568 8,8 v 76 c 0,4.43199 -3.568,8 -8,8 h -62 z" opacity="1" paint-order="normal" style="marker:none"/><g id="g1033" transform="matrix(0.25,0,0,0.25,-150,225)"><rect stroke-miterlimit="4" style="marker:none" id="rect868-7-3-1-7" width="8" height="24" x="-184" y="236" fill="#a40000" fill-opacity="1" stroke="none" stroke-dasharray="none" stroke-dashoffset="0" stroke-linecap="round" stroke-linejoin="miter" stroke-opacity="1" stroke-width="24" marker-end="none" marker-mid="none" marker-start="none" display="inline" enable-background="new" opacity="1" paint-order="normal" rx="0" ry="0"/><rect id="rect965" width="32" height="8" x="-184" y="148" fill="#2e3436" fill-opacity="1" stroke="none" stroke-dasharray="none" stroke-dashoffset="0" stroke-linecap="butt" stroke-linejoin="miter" stroke-miterlimit="4" stroke-opacity="1" stroke-width="24" marker-end="none" marker-mid="none" marker-start="none" opacity="1" paint-order="normal" style="marker:none"/><rect stroke-linejoin="miter" style="marker:none" id="rect965-5" width="32" height="8" x="-184" y="260" fill="#2e3436" fill-opacity="1" stroke="none" stroke-dasharray="none" stroke-dashoffset="0" stroke-linecap="butt" stroke-miterlimit="4" stroke-opacity="1" stroke-width="24" marker-end="none" marker-mid="none" marker-start="none" display="inline" enable-background="new" opacity="1" paint-order="normal"/><rect stroke-linejoin="miter" style="marker:none" id="rect965-5-6" width="8" height="120" x="-184" y="148" fill="#2e3436" fill-opacity="1" stroke="none" stroke-dasharray="none" stroke-dashoffset="0" stroke-linecap="butt" stroke-miterlimit="4" stroke-opacity="1" stroke-width="24" marker-end="none" marker-mid="none" marker-start="none" display="inline" enable-background="new" opacity="1" paint-order="normal"/><rect stroke-linejoin="miter" style="marker:none" id="rect965-2" width="32" height="328" x="-184" y="-180" fill="#555753" fill-opacity="1" stroke="none" stroke-dasharray="none" stroke-dashoffset="0" stroke-linecap="butt" stroke-miterlimit="4" stroke-opacity="1" stroke-width="24" marker-end="none" marker-mid="none" marker-start="none" display="inline" enable-background="new" opacity="1" paint-order="normal"/><rect stroke-linejoin="miter" style="marker:none" id="rect965-2-9" width="8" height="328" x="-176" y="-180" fill="#888a85" fill-opacity="1" stroke="none" stroke-dasharray="none" stroke-dashoffset="0" stroke-linecap="butt" stroke-miterlimit="4" stroke-opacity="1" stroke-width="24" marker-end="none" marker-mid="none" marker-start="none" display="inline" enable-background="new" opacity=".285" paint-order="normal"/></g><rect id="rect7674" width="79.979" height="58.248" x="-332" y="233.752" fill="#a40000" fill-opacity="1" stroke="none" stroke-dasharray="none" stroke-dashoffset="0" stroke-linecap="round" stroke-linejoin="miter" stroke-miterlimit="4" stroke-opacity="1" stroke-width="6.001" marker-end="none" marker-mid="none" marker-start="none" opacity="1" paint-order="normal" rx="8.239" ry="8.25" style="marker:none"/><g id="g7678" transform="matrix(0.25,0,0,0.25,-356,227)"><rect stroke-miterlimit="4" style="marker:none" id="rect7676" width="312" height="400" x="104" y="-148" fill="#c00" fill-opacity="1" stroke="none" stroke-dasharray="none" stroke-dashoffset="0" stroke-linecap="round" stroke-linejoin="miter" stroke-opacity="1" stroke-width="24" marker-end="none" marker-mid="none" marker-start="none" display="inline" enable-background="new" opacity="1" paint-order="normal" rx="32" ry="32"/></g><rect stroke-miterlimit="4" style="marker:none" id="rect7680" width="78" height="100" x="-330" y="188" fill="url(#linearGradient7708)" fill-opacity="1" stroke="none" stroke-dasharray="none" stroke-dashoffset="0" stroke-linecap="round" stroke-linejoin="miter" stroke-opacity="1" stroke-width="9.367" marker-end="none" marker-mid="none" marker-start="none" display="inline" enable-background="new" opacity="1" paint-order="normal" rx="5.75" ry="5.75"/><path stroke-opacity="1" style="marker:none" id="path7682" fill="#000" fill-opacity=".091" stroke="none" stroke-dasharray="none" stroke-dashoffset="0" stroke-linecap="round" stroke-linejoin="miter" stroke-miterlimit="4" stroke-width="6.001" marker-end="none" marker-mid="none" marker-start="none" d="m -321.7607,218.00208 h 61.5006 c 4.5645,0 8.2393,3.6795 8.2393,8.25 V 268 c 0,4.5705 -3.6748,8.25 -8.2393,8.25 H -330 v -49.99792 c 0,-4.5705 3.6747,-8.25 8.2393,-8.25 z" opacity="1" paint-order="normal"/><path stroke-opacity="1" style="marker:none" id="path7684" fill="#a40000" fill-opacity="1" stroke="none" stroke-dasharray="none" stroke-dashoffset="0" stroke-linecap="round" stroke-linejoin="miter" stroke-miterlimit="4" stroke-width="6" marker-end="none" marker-mid="none" marker-start="none" d="m -324,180 c -2.0371,0 -3.8903,0.75496 -5.2998,2 H -332 v 6 78 l 2,10 c 0,-1.19458 0.8428,-2 2,-2 h 28 40 c 4.432,0 8,-3.568 8,-8 v -78 c 0,-4.432 -3.568,-8 -8,-8 z" opacity="1" paint-order="normal"/><path id="path7686" fill="url(#linearGradient7710)" fill-opacity="1" stroke="none" stroke-dasharray="none" stroke-dashoffset="0" stroke-linecap="round" stroke-linejoin="miter" stroke-miterlimit="4" stroke-opacity="1" stroke-width="6" marker-end="none" marker-mid="none" marker-start="none" d="m -332,182 v 90 h 72 c 4.432,0 8,-3.568 8,-8 v -76 c 0,-4.432 -3.568,-8 -8,-8 h -69.9917 c -1.1051,0 -2.0083,0.93934 -2.0083,2 z" display="inline" enable-background="new" opacity="1" paint-order="normal" style="marker:none"/><rect stroke-linejoin="miter" style="marker:none" id="rect7688" width="34" height="92" x="-322" y="182" fill="#8b0000" fill-opacity="1" stroke="none" stroke-dasharray="none" stroke-dashoffset="0" stroke-linecap="butt" stroke-miterlimit="4" stroke-opacity="1" stroke-width="6" marker-end="none" marker-mid="none" marker-start="none" display="inline" enable-background="new" opacity="1" paint-order="normal"/><path stroke-opacity="1" style="marker:none" id="path7690" fill="#ef2929" fill-opacity="1" stroke="none" stroke-dasharray="none" stroke-dashoffset="0" stroke-linecap="butt" stroke-linejoin="miter" stroke-miterlimit="4" stroke-width="6" marker-end="none" marker-mid="none" marker-start="none" d="m -330,180 h 2 v 92 h -2 z" opacity="1" paint-order="normal"/><rect id="rect7692" width="34" height="92" x="-322" y="180" fill="#a40000" fill-opacity="1" stroke="none" stroke-dasharray="none" stroke-dashoffset="0" stroke-linecap="butt" stroke-linejoin="miter" stroke-miterlimit="4" stroke-opacity="1" stroke-width="6" marker-end="none" marker-mid="none" marker-start="none" opacity="1" paint-order="normal" style="marker:none"/><g id="g7706" stroke-width="1.018" transform="matrix(0.24146446,0,0,0.25,-369.2246,209)"><text id="text7696" x="205.48" y="44" fill="#fff" fill-opacity="1" stroke="none" stroke-width="1.018" font-family="Cantarell" font-size="150.289" font-stretch="normal" font-style="normal" font-variant="normal" font-weight="bold" letter-spacing="0" word-spacing="0" xml:space="preserve" style="line-height:125%;-inkscape-font-specification:'Cantarell Bold'"><tspan id="tspan7694" x="205.48" y="44" stroke-width="1.018">D</tspan></text><text id="text7700" x="213.48" y="44" fill="#fff" fill-opacity="1" stroke="none" stroke-width="1.018" display="inline" enable-background="new" font-family="Cantarell" font-size="150.289" font-stretch="normal" font-style="normal" font-variant="normal" font-weight="bold" letter-spacing="0" word-spacing="0" xml:space="preserve" style="line-height:125%;-inkscape-font-specification:'Cantarell Bold'"><tspan id="tspan7698" x="213.48" y="44" stroke-width="1.018">D</tspan></text><text id="text7704" x="197.48" y="44" fill="#fff" fill-opacity="1" stroke="none" stroke-width="1.018" display="inline" enable-background="new" font-family="Cantarell" font-size="150.289" font-stretch="normal" font-style="normal" font-variant="normal" font-weight="bold" letter-spacing="0" word-spacing="0" xml:space="preserve" style="line-height:125%;-inkscape-font-specification:'Cantarell Bold'"><tspan id="tspan7702" x="197.48" y="44" stroke-width="1.018">D</tspan></text></g><path id="rect954-3-1" fill="#a51d2d" fill-opacity="1" stroke="none" stroke-dasharray="none" stroke-dashoffset="0" stroke-linecap="butt" stroke-linejoin="miter" stroke-miterlimit="4" stroke-opacity="1" stroke-width="6" marker-end="none" marker-mid="none" marker-start="none" d="m 24,200 v 92 h 72 c 4.432,0 8,-3.568 8,-8 v -76 c 0,-4.432 -3.568,-8 -8,-8 z" display="inline" enable-background="new" opacity="1" paint-order="normal" style="marker:none"/><rect stroke-linejoin="miter" style="marker:none" id="rect968" width="8" height="18" x="24" y="274" fill="#191622" fill-opacity="1" stroke="none" stroke-dasharray="none" stroke-dashoffset="0" stroke-linecap="butt" stroke-miterlimit="4" stroke-opacity="1" stroke-width="6" marker-end="none" marker-mid="none" marker-start="none" display="inline" enable-background="new" opacity="1" paint-order="normal"/><path id="rect954-3-6-2" fill="url(#linearGradient1037)" fill-opacity="1" stroke="none" stroke-dasharray="none" stroke-dashoffset="0" stroke-linecap="butt" stroke-linejoin="miter" stroke-miterlimit="4" stroke-opacity="1" stroke-width="6" marker-end="none" marker-mid="none" marker-start="none" d="m 26,220 v 70 h 70 c 4.432,0 8,-3.568 8,-8 v -54 c 0,-4.432 -3.568,-8 -8,-8 z" display="inline" enable-background="new" opacity="1" paint-order="normal" style="marker:none"/><path id="rect954-3-2-7" fill="#ac1d2e" fill-opacity="1" stroke="none" stroke-dasharray="none" stroke-dashoffset="0" stroke-linecap="butt" stroke-linejoin="miter" stroke-miterlimit="4" stroke-opacity="1" stroke-width="6" marker-end="none" marker-mid="none" marker-start="none" d="m 24,200 v 76 h 72 c 4.432,0 8,-3.568 8,-8 v -60 c 0,-4.432 -3.568,-8 -8,-8 z" display="inline" enable-background="new" opacity="1" paint-order="normal" style="marker:none"/><path id="rect954-3-2-9-0-3-0" fill="#ed333b" fill-opacity="1" stroke="none" stroke-dasharray="none" stroke-dashoffset="0" stroke-linecap="butt" stroke-linejoin="miter" stroke-miterlimit="4" stroke-opacity="1" stroke-width="6" marker-end="none" marker-mid="none" marker-start="none" d="m 24,180 v 94 h 72 c 4.432,0 8,-3.568 8,-8 v -78 c 0,-4.432 -3.568,-8 -8,-8 z" display="inline" enable-background="new" opacity="1" paint-order="normal" style="marker:none"/><rect stroke-linejoin="miter" style="marker:none" id="rect970" width="8" height="94" x="24" y="180" fill="#424048" fill-opacity="1" stroke="none" stroke-dasharray="none" stroke-dashoffset="0" stroke-linecap="butt" stroke-miterlimit="4" stroke-opacity="1" stroke-width="6" marker-end="none" marker-mid="none" marker-start="none" display="inline" enable-background="new" opacity="1" paint-order="normal"/><path id="rect1366-2-9" fill="#fff" fill-opacity="1" stroke="none" stroke-dasharray="none" stroke-dashoffset="0" stroke-linecap="butt" stroke-linejoin="miter" stroke-miterlimit="4" stroke-opacity="1" stroke-width="6" marker-end="none" marker-mid="none" marker-start="none" d="m 26,180.00001 h 2 v 94 h -2 z" display="inline" enable-background="new" opacity=".223" paint-order="normal" style="marker:none"/><g id="g933"><path id="path977" fill="#fff" fill-opacity="1" stroke="none" stroke-width=".536" d="m 58,206.02051 v 5.9795 h -0.74854 c -2.18863,0 -3.26074,1.20587 -3.26074,3.30517 v 6.61621 c 0,3.08196 -0.93803,4.37761 -2.99267,5.00293 2.05464,0.62533 2.99267,1.92049 2.99267,5.00244 v 6.76807 c 0,2.0993 1.07211,3.30518 3.26074,3.30518 H 58 v 5.82763 h -1.56641 c -5.58325,0 -8.44189,-2.85852 -8.44189,-7.99511 v -7.73145 c 0,-1.42931 -0.75936,-2.10413 -1.96533,-2.09961 L 44,230.00001 v -5.9585 l 2.02637,0.002 c 1.20598,0.001 1.96533,-0.6703 1.96533,-2.09961 v -7.92827 c 0,-5.13659 2.85864,-7.99512 8.44189,-7.99512 z" font-family="Montserrat" font-size="medium" font-stretch="normal" font-style="normal" font-variant="normal" font-weight="bold" letter-spacing="0" text-anchor="start" word-spacing="0" writing-mode="lr-tb" style="line-height:1.25;-inkscape-font-specification:'Montserrat, Bold';font-variant-ligatures:normal;font-variant-caps:normal;font-variant-numeric:normal;font-feature-settings:normal;text-align:start"/><path font-stretch="normal" style="line-height:1.25;-inkscape-font-specification:'Montserrat, Bold';font-variant-ligatures:normal;font-variant-caps:normal;font-variant-numeric:normal;font-feature-settings:normal;text-align:start" id="path7718-7-0" fill="#fff" fill-opacity="1" stroke="none" stroke-width=".536" d="m 74,206.02051 v 5.9795 h 0.74853 c 2.18864,0 3.26075,1.20587 3.26075,3.30517 v 6.61621 c 0,3.08196 0.93803,4.37761 2.99267,5.00293 -2.05464,0.62533 -2.99267,1.92049 -2.99267,5.00244 v 6.76807 c 0,2.0993 -1.07211,3.30518 -3.26075,3.30518 H 74 v 5.82763 h 1.5664 c 5.58326,0 8.4419,-2.85852 8.4419,-7.99511 v -7.73145 c 0,-1.42931 0.75936,-2.10413 1.96533,-2.09961 L 88,230.00001 v -5.9585 l -2.02637,0.002 c -1.20598,0.001 -1.96533,-0.6703 -1.96533,-2.09961 v -7.92827 c 0,-5.13659 -2.85864,-7.99512 -8.4419,-7.99512 z" font-family="Montserrat" font-size="medium" font-style="normal" font-variant="normal" font-weight="bold" letter-spacing="0" text-anchor="start" word-spacing="0" writing-mode="lr-tb"/></g><rect id="rect963" width="8" height="2" x="24" y="274" fill="#191622" fill-opacity="1" stroke="none" stroke-dasharray="none" stroke-dashoffset="0" stroke-linecap="butt" stroke-linejoin="miter" stroke-miterlimit="4" stroke-opacity="1" stroke-width="6" marker-end="none" marker-mid="none" marker-start="none" opacity="1" paint-order="normal" style="marker:none"/><g id="g939" transform="translate(-156)"><path font-stretch="normal" style="line-height:1.25;-inkscape-font-specification:'Montserrat, Bold';font-variant-ligatures:normal;font-variant-caps:normal;font-variant-numeric:normal;font-feature-settings:normal;text-align:start" id="path935" fill="#fff" fill-opacity="1" stroke="none" stroke-width=".536" d="m 58,206.02051 v 5.9795 h -0.74854 c -2.18863,0 -3.26074,1.20587 -3.26074,3.30517 v 6.61621 c 0,3.08196 -0.93803,4.37761 -2.99267,5.00293 2.05464,0.62533 2.99267,1.92049 2.99267,5.00244 v 6.76807 c 0,2.0993 1.07211,3.30518 3.26074,3.30518 H 58 v 5.82763 h -1.56641 c -5.58325,0 -8.44189,-2.85852 -8.44189,-7.99511 v -7.73145 c 0,-1.42931 -0.75936,-2.10413 -1.96533,-2.09961 L 44,230.00001 v -5.9585 l 2.02637,0.002 c 1.20598,0.001 1.96533,-0.6703 1.96533,-2.09961 v -7.92827 c 0,-5.13659 2.85864,-7.99512 8.44189,-7.99512 z" font-family="Montserrat" font-size="medium" font-style="normal" font-variant="normal" font-weight="bold" letter-spacing="0" text-anchor="start" word-spacing="0" writing-mode="lr-tb"/><path id="path937" fill="#fff" fill-opacity="1" stroke="none" stroke-width=".536" d="m 74,206.02051 v 5.9795 h 0.74853 c 2.18864,0 3.26075,1.20587 3.26075,3.30517 v 6.61621 c 0,3.08196 0.93803,4.37761 2.99267,5.00293 -2.05464,0.62533 -2.99267,1.92049 -2.99267,5.00244 v 6.76807 c 0,2.0993 -1.07211,3.30518 -3.26075,3.30518 H 74 v 5.82763 h 1.5664 c 5.58326,0 8.4419,-2.85852 8.4419,-7.99511 v -7.73145 c 0,-1.42931 0.75936,-2.10413 1.96533,-2.09961 L 88,230.00001 v -5.9585 l -2.02637,0.002 c -1.20598,0.001 -1.96533,-0.6703 -1.96533,-2.09961 v -7.92827 c 0,-5.13659 -2.85864,-7.99512 -8.4419,-7.99512 z" font-family="Montserrat" font-size="medium" font-stretch="normal" font-style="normal" font-variant="normal" font-weight="bold" letter-spacing="0" text-anchor="start" word-spacing="0" writing-mode="lr-tb" style="line-height:1.25;-inkscape-font-specification:'Montserrat, Bold';font-variant-ligatures:normal;font-variant-caps:normal;font-variant-numeric:normal;font-feature-settings:normal;text-align:start"/></g></g></g></svg>