<svg xmlns="http://www.w3.org/2000/svg" xmlns:svg="http://www.w3.org/2000/svg" xmlns:xlink="http://www.w3.org/1999/xlink" id="svg11300" width="128" height="128" display="inline" enable-background="new" version="1.0" viewBox="0 0 128 128"><title id="title4162">Adwaita Icon Template</title><defs id="defs3"><linearGradient id="linearGradient1106"><stop id="stop1102" offset="0" stop-color="#26a269" stop-opacity="1"/><stop id="stop1104" offset="1" stop-color="#2ec27e" stop-opacity="1"/></linearGradient><linearGradient id="linearGradient1096"><stop id="stop1092" offset="0" stop-color="#e5a50a" stop-opacity="1"/><stop id="stop1100" offset=".256" stop-color="#f8e45c" stop-opacity="1"/><stop id="stop1094" offset="1" stop-color="#e5a50a" stop-opacity="1"/></linearGradient><linearGradient id="linearGradient1098" x1="13.916" x2="116" y1="264.001" y2="264.001" gradientTransform="matrix(1.1538452,0,0,1.0344633,-9.8460411,-6.0655371)" gradientUnits="userSpaceOnUse" xlink:href="#linearGradient1096"/><linearGradient id="linearGradient1108" x1="12" x2="19.416" y1="251.713" y2="251.713" gradientTransform="matrix(1.1538452,0,0,1.0344633,-9.8460411,-6.0655371)" gradientUnits="userSpaceOnUse" xlink:href="#linearGradient1106"/></defs><metadata id="metadata4"/><g id="layer1" display="inline" transform="translate(0,-172)"><g id="layer2" display="none"><g id="g9211" display="inline"><rect id="rect13805" width="128" height="128" x="0" y="172" fill="#f0f0f0" fill-opacity="1" fill-rule="nonzero" stroke="none" stroke-width=".5" display="inline" enable-background="accumulate" overflow="visible" visibility="visible" style="marker:none"/><circle id="circle2892" cx="64" cy="236" r="59.504" fill="none" fill-opacity="1" stroke="#000" stroke-dasharray=".99 .99" stroke-dashoffset="0" stroke-linecap="butt" stroke-linejoin="miter" stroke-miterlimit="4" stroke-opacity="1" stroke-width=".99" marker-end="none" marker-mid="none" marker-start="none" display="inline" enable-background="new" opacity=".1" paint-order="normal" vector-effect="none" style="marker:none"/><rect id="rect2894" width="87.01" height="111.01" x="20.495" y="180.495" fill="none" fill-opacity="1" stroke="#000" stroke-dasharray=".99 .99" stroke-dashoffset="0" stroke-linecap="butt" stroke-linejoin="miter" stroke-miterlimit="4" stroke-opacity="1" stroke-width=".99" marker-end="none" marker-mid="none" marker-start="none" display="inline" enable-background="new" opacity=".1" paint-order="normal" rx="8.701" ry="7.929" vector-effect="none" style="marker:none"/><rect id="rect2896" width="103.01" height="103.01" x="12.495" y="184.495" fill="none" fill-opacity="1" stroke="#000" stroke-dasharray=".99 .99" stroke-dashoffset="0" stroke-linecap="butt" stroke-linejoin="miter" stroke-miterlimit="4" stroke-opacity="1" stroke-width=".99" marker-end="none" marker-mid="none" marker-start="none" display="inline" enable-background="new" opacity=".1" paint-order="normal" rx="7.924" ry="7.924" vector-effect="none" style="marker:none"/><rect id="rect2898" width="111.01" height="87.01" x="8.495" y="200.495" fill="none" fill-opacity="1" stroke="#000" stroke-dasharray=".99 .99" stroke-dashoffset="0" stroke-linecap="butt" stroke-linejoin="miter" stroke-miterlimit="4" stroke-opacity="1" stroke-width=".99" marker-end="none" marker-mid="none" marker-start="none" display="inline" enable-background="new" opacity=".1" paint-order="normal" rx="7.929" ry="8.701" vector-effect="none" style="marker:none"/><path id="path2900" fill="none" stroke="#62a0ea" stroke-dasharray="none" stroke-linecap="butt" stroke-linejoin="miter" stroke-miterlimit="4" stroke-opacity="1" stroke-width="2" d="M 2.6203015e-5,288.99999 H 128.00003" display="inline" enable-background="new"/></g></g><g id="layer9" display="inline"><path id="path866-7-6-2-1-2-0" fill="url(#linearGradient1108)" fill-opacity="1" stroke="none" stroke-dasharray="none" stroke-linejoin="round" stroke-miterlimit="4" stroke-opacity="1" stroke-width=".433" d="m 4.0001013,231.86102 v 10.24361 0.10107 h 0.0045 c -0.00138,12.64648 4.9672147,24.88909 14.0331927,34.57774 l 6e-6,-10.34468 c -2.650757,-2.83281 1.736827,-12.74165 -0.191556,-15.9574 -4.66697,-7.78258 -13.8426131,-9.6715 -13.8416358,-18.62034 z" display="inline" enable-background="new" opacity="1"/><path id="path866-7-6-2-1-7" fill="#26a269" fill-opacity="1" stroke="none" stroke-dasharray="none" stroke-linejoin="round" stroke-miterlimit="4" stroke-opacity="1" stroke-width=".433" d="M 18.037794,276.78344 64.000052,242.20566 V 227.72317 L 18.0378,262.30091 Z" display="inline" enable-background="new" opacity="1"/><path id="path866-7-6" fill="#57e389" fill-opacity="1" stroke="none" stroke-dasharray="none" stroke-linejoin="round" stroke-miterlimit="4" stroke-opacity="1" stroke-width=".433" d="M 18.037424,266.4379 C 3.0489994,250.42352 -0.23291655,228.07412 9.621634,209.1275 c 9.85455,-18.94662 31.060565,-31.05857 54.378419,-31.05857 l 13.846141,28.96497 -13.846142,24.82712 z" display="inline" enable-background="new" opacity="1"/><g id="g967" display="inline" transform="matrix(0.25,0,0,0.25,159.72892,225.06694)"><path id="path961" fill="#949390" fill-opacity="1" stroke="none" stroke-dasharray="none" stroke-dashoffset="0" stroke-linecap="butt" stroke-linejoin="miter" stroke-miterlimit="4" stroke-opacity="1" stroke-width="26.067" marker-end="none" marker-mid="none" marker-start="none" d="m 82.72039,-164.53549 c -19.194944,-0.0941 -34.755921,15.56075 -34.755921,34.75591 V 217.7796 H 429.77938 c 19.78984,0 34.75612,-13.76588 34.75612,-34.93672 V -97.148681 c 0,-19.195149 -15.56076,-34.767409 -34.75591,-34.755899 L 224,-132 192,-164 Z" display="inline" enable-background="new" opacity="1" paint-order="normal" style="marker:none"/><path id="path963" fill="#f6f5f4" fill-opacity="1" stroke="none" stroke-dasharray="none" stroke-dashoffset="0" stroke-linecap="butt" stroke-linejoin="miter" stroke-miterlimit="4" stroke-opacity="1" stroke-width="26.067" marker-end="none" marker-mid="none" marker-start="none" d="m 256,-76 -34.75601,33.110199 H 82.72039 c -19.195174,0 -34.755921,15.56077 -34.755921,34.7559274 V 252.53551 H 429.9233 c 17.2845,0 34.6122,-14.38562 34.6122,-34.74196 V -41.139801 c 0,-19.195161 -15.56076,-34.744388 -34.75591,-34.755908 z" display="inline" enable-background="new" opacity="1" paint-order="normal" style="marker:none"/><path id="path965" fill="#949390" fill-opacity="1" stroke="none" stroke-dasharray="none" stroke-dashoffset="0" stroke-linecap="butt" stroke-linejoin="miter" stroke-miterlimit="4" stroke-opacity="1" stroke-width="26.067" marker-end="none" marker-mid="none" marker-start="none" d="m 464.5355,209.09072 v 8.68888 a 34.755931,34.755931 0 0 1 -34.75591,34.75591 H 47.464469 V 243.8465 H 429.77959 a 34.755931,34.755931 0 0 0 34.75591,-34.75578 z" display="inline" enable-background="new" opacity="1" paint-order="normal" style="marker:none"/></g><path id="path980" fill="#1c71d8" fill-opacity="1" stroke="none" stroke-dasharray="none" stroke-dashoffset="0" stroke-linecap="butt" stroke-linejoin="round" stroke-miterlimit="4" stroke-opacity="1" stroke-width=".482" d="M 224,272 A 24,24 0 0 1 200.81778,254.21166 24,24 0 0 1 212,227.21539 a 24,24 0 0 1 28.97056,3.81405 L 224,248 Z" opacity="1" vector-effect="none"/><path id="circle982" fill="#33d17a" fill-opacity="1" stroke="none" stroke-dasharray="none" stroke-dashoffset="0" stroke-linecap="butt" stroke-linejoin="round" stroke-miterlimit="4" stroke-opacity="1" stroke-width=".482" d="m 248,248 a 24,24 0 0 1 -24,24 l 0,-24 z" opacity="1" vector-effect="none"/><path id="path984" fill="#ff9533" fill-opacity="1" stroke="none" stroke-dasharray="none" stroke-dashoffset="0" stroke-linecap="butt" stroke-linejoin="round" stroke-miterlimit="4" stroke-opacity="1" stroke-width=".482" d="M 240.97056,231.02944 A 24,24 0 0 1 248,248 h -24 z" opacity="1" vector-effect="none"/><g id="g1003" display="inline" transform="matrix(0.25,0,0,0.25,319.72892,225.06694)"><path id="path997" fill="#949390" fill-opacity="1" stroke="none" stroke-dasharray="none" stroke-dashoffset="0" stroke-linecap="butt" stroke-linejoin="miter" stroke-miterlimit="4" stroke-opacity="1" stroke-width="26.067" marker-end="none" marker-mid="none" marker-start="none" d="m 82.72039,-164.53549 c -19.194944,-0.0941 -34.755921,15.56075 -34.755921,34.75591 V 217.7796 H 429.77938 c 19.78984,0 34.75612,-13.76588 34.75612,-34.93672 V -97.148681 c 0,-19.195149 -15.56076,-34.767409 -34.75591,-34.755899 L 224,-132 192,-164 Z" display="inline" enable-background="new" opacity="1" paint-order="normal" style="marker:none"/><path id="path999" fill="#f6f5f4" fill-opacity="1" stroke="none" stroke-dasharray="none" stroke-dashoffset="0" stroke-linecap="butt" stroke-linejoin="miter" stroke-miterlimit="4" stroke-opacity="1" stroke-width="26.067" marker-end="none" marker-mid="none" marker-start="none" d="m 256,-76 -34.75601,33.110199 H 82.72039 c -19.195174,0 -34.755921,15.56077 -34.755921,34.7559274 V 252.53551 H 429.9233 c 17.2845,0 34.6122,-14.38562 34.6122,-34.74196 V -41.139801 c 0,-19.195161 -15.56076,-34.744388 -34.75591,-34.755908 z" display="inline" enable-background="new" opacity="1" paint-order="normal" style="marker:none"/><path id="path1001" fill="#949390" fill-opacity="1" stroke="none" stroke-dasharray="none" stroke-dashoffset="0" stroke-linecap="butt" stroke-linejoin="miter" stroke-miterlimit="4" stroke-opacity="1" stroke-width="26.067" marker-end="none" marker-mid="none" marker-start="none" d="m 464.5355,209.09072 v 8.68888 a 34.755931,34.755931 0 0 1 -34.75591,34.75591 H 47.464469 V 243.8465 H 429.77959 a 34.755931,34.755931 0 0 0 34.75591,-34.75578 z" display="inline" enable-background="new" opacity="1" paint-order="normal" style="marker:none"/></g><path id="path1005" fill="#1c71d8" fill-opacity="1" stroke="none" stroke-dasharray="none" stroke-dashoffset="0" stroke-linecap="butt" stroke-linejoin="round" stroke-miterlimit="4" stroke-opacity="1" stroke-width=".482" d="M 384,272 A 24,24 0 0 1 360.81778,254.21166 24,24 0 0 1 372,227.21539 a 24,24 0 0 1 28.97056,3.81405" opacity="1" vector-effect="none"/><path id="path1007" fill="#ff9533" fill-opacity="1" stroke="none" stroke-dasharray="none" stroke-dashoffset="0" stroke-linecap="butt" stroke-linejoin="round" stroke-miterlimit="4" stroke-opacity="1" stroke-width=".482" d="m 408,248 a 24,24 0 0 1 -24,24 l 0,-24 z" opacity="1" vector-effect="none"/><path id="path1009" fill="#e01b24" fill-opacity="1" stroke="none" stroke-dasharray="none" stroke-dashoffset="0" stroke-linecap="butt" stroke-linejoin="round" stroke-miterlimit="4" stroke-opacity="1" stroke-width=".482" d="M 400.97056,231.02944 A 24,24 0 0 1 408,248 h -24 z" opacity="1" vector-effect="none"/><g id="g1015" stroke="#f6f5f4" stroke-opacity="1" stroke-width="4" transform="translate(320)"><path id="path1011" fill="none" stroke="#f6f5f4" stroke-linecap="round" stroke-linejoin="miter" stroke-opacity="1" stroke-width="4" d="M 80.970562,231.02944 64,248 l 10e-7,24"/><path id="path1013" fill="none" stroke="#f6f5f4" stroke-linecap="round" stroke-linejoin="miter" stroke-opacity="1" stroke-width="4" d="M 65,248 H 88"/></g><rect id="rect875" width="60" height="13.655" x="64" y="229.792" fill="#1a5fb4" fill-opacity="1" stroke="none" stroke-dasharray="none" stroke-dashoffset="0" stroke-linecap="square" stroke-linejoin="round" stroke-miterlimit="4" stroke-opacity="1" stroke-width="5.2" display="inline" enable-background="new" opacity="1"/><path id="path868" fill="#62a0ea" fill-opacity="1" stroke="none" stroke-dasharray="none" stroke-linejoin="round" stroke-miterlimit="4" stroke-opacity="1" stroke-width=".433" d="M 64.000055,176.00001 A 59.999947,53.792088 0 0 1 124,229.7921 H 64.000053 Z" display="inline" enable-background="new" opacity="1"/><path id="path886-3" fill="url(#linearGradient1098)" fill-opacity="1" stroke="none" stroke-dasharray="none" stroke-linejoin="round" stroke-miterlimit="4" stroke-opacity="1" stroke-width=".433" d="m 124,238.0678 c -0.0173,1.38143 -0.094,2.76172 -0.22987,4.13786 0.13587,-1.37614 0.21254,-2.75643 0.22987,-4.13786 z m -0.22987,4.13786 c -1.80242,21.03072 -23.823526,17.59412 -45.923936,24.82711 -23.70225,7.73475 -43.59439,22.93551 -59.808394,5.61277 v 4.13786 c 16.214004,17.32274 42.781319,23.70427 66.483569,15.96952 C 108.22372,285.0185 123.99967,264.81945 124,242.20566 Z" display="inline" enable-background="new" opacity="1"/><path id="circle984" fill="#f9f06b" fill-opacity="1" stroke="none" stroke-dasharray="none" stroke-linejoin="round" stroke-miterlimit="4" stroke-opacity="1" stroke-width=".433" d="m 124,238.0678 c 0,22.6141 -15.77606,42.81355 -39.478759,50.54802 -23.702695,7.73448 -50.270219,1.35227 -66.483817,-15.97114 L 64.000052,238.0678 Z" display="inline" enable-background="new" opacity="1"/></g></g></svg>