<?xml version="1.0" encoding="UTF-8" standalone="no"?>
<!-- Created with Inkscape (http://www.inkscape.org/) -->

<svg
   xmlns:dc="http://purl.org/dc/elements/1.1/"
   xmlns:cc="http://creativecommons.org/ns#"
   xmlns:rdf="http://www.w3.org/1999/02/22-rdf-syntax-ns#"
   xmlns:svg="http://www.w3.org/2000/svg"
   xmlns="http://www.w3.org/2000/svg"
   xmlns:sodipodi="http://sodipodi.sourceforge.net/DTD/sodipodi-0.dtd"
   xmlns:inkscape="http://www.inkscape.org/namespaces/inkscape"
   inkscape:export-ydpi="96"
   inkscape:export-xdpi="96"
   inkscape:export-filename="Template.png"
   width="128"
   height="128"
   id="svg11300"
   sodipodi:version="0.32"
   inkscape:version="0.92.3 (2405546, 2018-03-11)"
   sodipodi:docname="org.gnome.Fractal.svg"
   inkscape:output_extension="org.inkscape.output.svg.inkscape"
   version="1.0"
   style="display:inline;enable-background:new"
   viewBox="0 0 128 128">
  <title
     id="title4162">Adwaita Icon Template</title>
  <defs
     id="defs3">
    <clipPath
       clipPathUnits="userSpaceOnUse"
       id="clipPath868">
      <rect
         ry="8"
         rx="8"
         y="196"
         x="8"
         height="80"
         width="112"
         id="rect870"
         style="display:inline;opacity:1;fill:#4fd2fd;fill-opacity:1;stroke:none;stroke-width:0.25;stroke-linecap:butt;stroke-linejoin:miter;stroke-miterlimit:4;stroke-dasharray:none;stroke-dashoffset:0;stroke-opacity:1;marker:none;marker-start:none;marker-mid:none;marker-end:none;paint-order:normal;enable-background:new" />
    </clipPath>
  </defs>
  <sodipodi:namedview
     stroke="#ef2929"
     fill="#f57900"
     id="base"
     pagecolor="#ffffff"
     bordercolor="#666666"
     borderopacity="0.25490196"
     inkscape:pageopacity="0.0"
     inkscape:pageshadow="2"
     inkscape:zoom="1.4142136"
     inkscape:cx="-181.16211"
     inkscape:cy="143.58439"
     inkscape:current-layer="layer9"
     showgrid="false"
     inkscape:grid-bbox="true"
     inkscape:document-units="px"
     inkscape:showpageshadow="false"
     inkscape:window-width="1920"
     inkscape:window-height="1016"
     inkscape:window-x="1920"
     inkscape:window-y="27"
     width="400px"
     height="300px"
     inkscape:snap-nodes="true"
     inkscape:snap-bbox="false"
     objecttolerance="7"
     gridtolerance="12"
     guidetolerance="13"
     inkscape:window-maximized="1"
     inkscape:pagecheckerboard="false"
     showguides="false"
     inkscape:guide-bbox="true"
     inkscape:locked="false"
     inkscape:measure-start="0,0"
     inkscape:measure-end="0,0"
     inkscape:object-nodes="true"
     inkscape:bbox-nodes="true"
     inkscape:snap-global="true"
     inkscape:object-paths="true"
     inkscape:snap-intersection-paths="true"
     inkscape:snap-bbox-edge-midpoints="true"
     inkscape:snap-bbox-midpoints="true"
     showborder="false"
     inkscape:snap-center="true"
     inkscape:snap-object-midpoints="true"
     inkscape:snap-midpoints="true"
     inkscape:snap-smooth-nodes="true">
    <inkscape:grid
       type="xygrid"
       id="grid5883"
       spacingx="2"
       spacingy="2"
       enabled="true"
       visible="true"
       empspacing="4"
       originx="0"
       originy="0" />
    <sodipodi:guide
       position="64,8"
       orientation="0,1"
       id="guide1073"
       inkscape:locked="false"
       inkscape:label=""
       inkscape:color="rgb(0,0,255)" />
    <sodipodi:guide
       position="12,39"
       orientation="1,0"
       id="guide1075"
       inkscape:locked="false"
       inkscape:label=""
       inkscape:color="rgb(0,0,255)" />
    <sodipodi:guide
       position="72,104"
       orientation="0,1"
       id="guide1099"
       inkscape:locked="false"
       inkscape:label=""
       inkscape:color="rgb(0,0,255)" />
    <sodipodi:guide
       position="64,128"
       orientation="0,1"
       id="guide993"
       inkscape:locked="false"
       inkscape:label=""
       inkscape:color="rgb(0,0,255)" />
    <sodipodi:guide
       position="104,64"
       orientation="1,0"
       id="guide995"
       inkscape:locked="false"
       inkscape:label=""
       inkscape:color="rgb(0,0,255)" />
    <sodipodi:guide
       position="0,72"
       orientation="1,0"
       id="guide867"
       inkscape:locked="false"
       inkscape:label=""
       inkscape:color="rgb(0,0,255)" />
    <sodipodi:guide
       position="120,58"
       orientation="1,0"
       id="guide869"
       inkscape:locked="false"
       inkscape:label=""
       inkscape:color="rgb(0,0,255)" />
    <sodipodi:guide
       position="84.25,116"
       orientation="0,1"
       id="guide871"
       inkscape:locked="false"
       inkscape:label=""
       inkscape:color="rgb(0,0,255)" />
    <inkscape:grid
       type="xygrid"
       id="grid873"
       spacingx="1"
       spacingy="1"
       empspacing="8"
       color="#000000"
       opacity="0.49019608"
       empcolor="#000000"
       empopacity="0.08627451"
       dotted="true" />
    <sodipodi:guide
       position="24,37"
       orientation="1,0"
       id="guide877"
       inkscape:locked="false"
       inkscape:label=""
       inkscape:color="rgb(0,0,255)" />
    <sodipodi:guide
       position="116,58"
       orientation="1,0"
       id="guide879"
       inkscape:locked="false"
       inkscape:label=""
       inkscape:color="rgb(0,0,255)" />
    <sodipodi:guide
       position="64,120"
       orientation="0,1"
       id="guide881"
       inkscape:locked="false"
       inkscape:label=""
       inkscape:color="rgb(0,0,255)" />
    <sodipodi:guide
       position="59.75,12"
       orientation="0,1"
       id="guide883"
       inkscape:locked="false"
       inkscape:label=""
       inkscape:color="rgb(0,0,255)" />
    <sodipodi:guide
       position="8,39"
       orientation="1,0"
       id="guide885"
       inkscape:locked="false"
       inkscape:label=""
       inkscape:color="rgb(0,0,255)" />
    <sodipodi:guide
       position="128,56"
       orientation="1,0"
       id="guide887"
       inkscape:locked="false"
       inkscape:label=""
       inkscape:color="rgb(0,0,255)" />
    <sodipodi:guide
       position="64,0"
       orientation="0,1"
       id="guide897"
       inkscape:locked="false"
       inkscape:label=""
       inkscape:color="rgb(0,0,255)" />
    <sodipodi:guide
       position="56,24"
       orientation="0,1"
       id="guide899"
       inkscape:locked="false"
       inkscape:label=""
       inkscape:color="rgb(0,0,255)" />
    <sodipodi:guide
       position="256,256"
       orientation="-0.70710678,0.70710678"
       id="guide950"
       inkscape:locked="false"
       inkscape:label=""
       inkscape:color="rgb(0,0,255)" />
    <sodipodi:guide
       position="64,64"
       orientation="0.70710678,0.70710678"
       id="guide952"
       inkscape:locked="false"
       inkscape:label=""
       inkscape:color="rgb(0,0,255)" />
  </sodipodi:namedview>
  <metadata
     id="metadata4">
    <rdf:RDF>
      <cc:Work
         rdf:about="">
        <dc:format>image/svg+xml</dc:format>
        <dc:type
           rdf:resource="http://purl.org/dc/dcmitype/StillImage" />
        <dc:creator>
          <cc:Agent>
            <dc:title>GNOME Design Team</dc:title>
          </cc:Agent>
        </dc:creator>
        <dc:source />
        <cc:license
           rdf:resource="http://creativecommons.org/licenses/by-sa/4.0/" />
        <dc:title>Adwaita Icon Template</dc:title>
        <dc:subject>
          <rdf:Bag />
        </dc:subject>
        <dc:date />
        <dc:rights>
          <cc:Agent>
            <dc:title />
          </cc:Agent>
        </dc:rights>
        <dc:publisher>
          <cc:Agent>
            <dc:title />
          </cc:Agent>
        </dc:publisher>
        <dc:identifier />
        <dc:relation />
        <dc:language />
        <dc:coverage />
        <dc:description />
        <dc:contributor>
          <cc:Agent>
            <dc:title />
          </cc:Agent>
        </dc:contributor>
      </cc:Work>
      <cc:License
         rdf:about="http://creativecommons.org/licenses/by-sa/4.0/">
        <cc:permits
           rdf:resource="http://creativecommons.org/ns#Reproduction" />
        <cc:permits
           rdf:resource="http://creativecommons.org/ns#Distribution" />
        <cc:requires
           rdf:resource="http://creativecommons.org/ns#Notice" />
        <cc:requires
           rdf:resource="http://creativecommons.org/ns#Attribution" />
        <cc:permits
           rdf:resource="http://creativecommons.org/ns#DerivativeWorks" />
        <cc:requires
           rdf:resource="http://creativecommons.org/ns#ShareAlike" />
      </cc:License>
    </rdf:RDF>
  </metadata>
  <g
     id="layer1"
     inkscape:label="Icon"
     inkscape:groupmode="layer"
     style="display:inline"
     transform="translate(0,-172)">
    <g
       inkscape:groupmode="layer"
       id="layer2"
       inkscape:label="baseplate"
       style="display:none">
      <text
         xml:space="preserve"
         style="font-style:normal;font-variant:normal;font-weight:normal;font-stretch:normal;font-size:6.08791494px;line-height:125%;font-family:Cantarell;-inkscape-font-specification:'Cantarell, Normal';text-align:start;writing-mode:lr-tb;text-anchor:start;display:inline;fill:#000000;fill-opacity:1;stroke:none;stroke-width:0.33264872;enable-background:new"
         x="7.9499588"
         y="148.65199"
         id="context"
         inkscape:label="context"><tspan
           sodipodi:role="line"
           id="tspan2716"
           x="7.9499588"
           y="148.65199"
           style="stroke-width:0.33264872">apps</tspan></text>
      <text
         inkscape:label="icon-name"
         id="text3021"
         y="157.23398"
         x="7.7533054"
         style="font-style:normal;font-variant:normal;font-weight:bold;font-stretch:normal;font-size:6.08791494px;line-height:125%;font-family:Cantarell;-inkscape-font-specification:'Cantarell, Bold';text-align:start;writing-mode:lr-tb;text-anchor:start;display:inline;fill:#000000;fill-opacity:1;stroke:none;stroke-width:0.33264872;enable-background:new"
         xml:space="preserve"><tspan
           y="157.23398"
           x="7.7533054"
           id="tspan3023"
           sodipodi:role="line"
           style="stroke-width:0.33264872">org.gnome.Fractal</tspan></text>
      <g
         style="display:inline;fill:#000000;enable-background:new"
         transform="matrix(7.9911709,0,0,8.0036407,-167.7909,-4846.0776)"
         id="g12027"
         inkscape:export-xdpi="12"
         inkscape:export-ydpi="12" />
      <rect
         style="display:inline;overflow:visible;visibility:visible;fill:#f0f0f0;fill-opacity:1;fill-rule:nonzero;stroke:none;stroke-width:0.5;marker:none;enable-background:accumulate"
         id="rect13805"
         width="128"
         height="128"
         x="9.2651362e-08"
         y="172"
         inkscape:label="512x512" />
      <g
         id="g883"
         style="fill:none;fill-opacity:0.25098039;stroke:#a579b3;stroke-opacity:1"
         transform="translate(-24,24)" />
      <g
         id="g900"
         style="fill:none;fill-opacity:0.25098039;stroke:#a579b3;stroke-opacity:1"
         transform="translate(-24,24)" />
      <g
         id="g1168"
         transform="matrix(0.25,0,0,0.25,6.9488522e-8,225)">
        <circle
           cx="256"
           cy="44"
           r="240"
           id="path1142"
           style="opacity:0.1;fill:#2864b0;fill-opacity:1;stroke:none;stroke-width:1;stroke-linecap:butt;stroke-linejoin:miter;stroke-miterlimit:4;stroke-dasharray:none;stroke-dashoffset:0;stroke-opacity:1;marker:none;marker-start:none;marker-mid:none;marker-end:none;paint-order:normal" />
        <rect
           ry="32"
           rx="32"
           y="-180"
           x="96"
           height="448"
           width="319.99979"
           id="rect1110"
           style="opacity:0.1;fill:#2864b0;fill-opacity:1;stroke:none;stroke-width:1;stroke-linecap:butt;stroke-linejoin:miter;stroke-miterlimit:4;stroke-dasharray:none;stroke-dashoffset:0;stroke-opacity:1;marker:none;marker-start:none;marker-mid:none;marker-end:none;paint-order:normal" />
        <rect
           ry="32"
           rx="32"
           y="-164"
           x="48"
           height="416"
           width="416"
           id="rect1110-8"
           style="display:inline;opacity:0.1;fill:#2864b0;fill-opacity:1;stroke:none;stroke-width:1;stroke-linecap:butt;stroke-linejoin:miter;stroke-miterlimit:4;stroke-dasharray:none;stroke-dashoffset:0;stroke-opacity:1;marker:none;marker-start:none;marker-mid:none;marker-end:none;paint-order:normal;enable-background:new" />
        <rect
           ry="32"
           rx="32"
           y="-116"
           x="32"
           height="320"
           width="448"
           id="rect1110-8-9"
           style="display:inline;opacity:0.1;fill:#2864b0;fill-opacity:1;stroke:none;stroke-width:1;stroke-linecap:butt;stroke-linejoin:miter;stroke-miterlimit:4;stroke-dasharray:none;stroke-dashoffset:0;stroke-opacity:1;marker:none;marker-start:none;marker-mid:none;marker-end:none;paint-order:normal;enable-background:new" />
      </g>
    </g>
    <g
       inkscape:groupmode="layer"
       id="layer9"
       inkscape:label="hires"
       style="display:inline">
      <rect
         ry="8"
         rx="8"
         y="200"
         x="24"
         height="80"
         width="96"
         id="rect874"
         style="display:inline;opacity:1;fill:#1a5fb4;fill-opacity:1;stroke:none;stroke-width:0.25;stroke-linecap:butt;stroke-linejoin:miter;stroke-miterlimit:4;stroke-dasharray:none;stroke-dashoffset:0;stroke-opacity:1;marker:none;marker-start:none;marker-mid:none;marker-end:none;paint-order:normal;enable-background:new" />
      <path
         style="display:inline;opacity:1;fill:#53bde0;fill-opacity:1;stroke:none;stroke-width:0.25;stroke-linecap:butt;stroke-linejoin:miter;stroke-miterlimit:4;stroke-dasharray:none;stroke-dashoffset:0;stroke-opacity:1;marker:none;marker-start:none;marker-mid:none;marker-end:none;paint-order:normal;enable-background:new"
         d="m 16,24 c -4.432,0 -8,3.568 -8,8 v 4 64 c 0,4.432 3.568,8 8,8 h 16 v 16 l 16,-16 h 38 26 c 4.432,0 8,-3.568 8,-8 V 32 c 0,-4.432 -3.568,-8 -8,-8 z"
         transform="translate(0,172)"
         id="rect878"
         inkscape:connector-curvature="0"
         sodipodi:nodetypes="sscssccccsssss" />
      <path
         style="opacity:1;vector-effect:none;fill:#1a5fb4;fill-opacity:1;stroke:none;stroke-width:2;stroke-linecap:butt;stroke-linejoin:round;stroke-miterlimit:4;stroke-dasharray:none;stroke-dashoffset:0;stroke-opacity:1"
         d="M 86.150391 24 L 86.150391 108 L 112 108 C 116.432 108 120 104.432 120 100 L 120 32 C 120 27.568 116.432 24 112 24 L 86.150391 24 z "
         transform="translate(0,172)"
         id="rect875" />
      <rect
         style="opacity:1;vector-effect:none;fill:#3584e4;fill-opacity:1;stroke:none;stroke-width:1.99999988;stroke-linecap:butt;stroke-linejoin:round;stroke-miterlimit:4;stroke-dasharray:none;stroke-dashoffset:0;stroke-opacity:1"
         id="rect868"
         width="112"
         height="80"
         x="8"
         y="196"
         ry="7.9999995"
         rx="8" />
      <path
         style="fill:#81dffe;fill-rule:evenodd;stroke:none;stroke-width:1px;stroke-linecap:butt;stroke-linejoin:miter;stroke-opacity:1;fill-opacity:1"
         d="m 32,268 v 24 l 24,-24 z"
         id="path872"
         inkscape:connector-curvature="0"
         sodipodi:nodetypes="cccc" />
      <path
         mask="none"
         sodipodi:nodetypes="cccsccccccccccccccccccccccccccccccccc"
         id="path1728"
         d="m 80.444385,188.79637 0.495205,7.07806 c -19.305069,-1.33646 -39.021699,12.09163 -40.164024,32.36115 -0.78363,13.86174 8.98869,28.01959 23.624085,28.63077 9.740205,0.40688 19.691199,-6.53292 19.948849,-16.83572 0.1673,-6.64455 -4.652279,-13.44041 -11.727059,-13.48016 -4.39999,-0.0267 -8.90571,3.21758 -8.825405,7.9167 0.06692,2.79799 2.160845,5.67414 5.17559,5.54124 1.70311,-0.0743 3.464445,-1.39615 3.322575,-3.24066 -0.07361,-0.97891 -0.864605,-1.99937 -1.935995,-1.87423 -0.528665,0.0602 -1.080755,0.50457 -0.983055,1.0839 0.06692,0.25698 0.26768,0.53537 0.56213,0.46844 0.113765,-0.0267 0.23422,-0.13585 0.20076,-0.26233 0,-0.0402 -0.06692,-0.0897 -0.107075,-0.0689 0,0.003 -0.06692,0.02 0,0.0334 v 0.004 -2.1e-4 c -5e-4,-2e-4 0,0 0,-2e-4 v 0.002 -0.002 0.0335 c 0,0.0469 -0.08699,0.0469 -0.127145,0.0267 -0.113765,-0.0602 -0.107075,-0.22686 -0.06692,-0.32456 0.153915,-0.25162 0.50859,-0.21749 0.730095,-0.0689 0.488515,0.3413 0.40152,1.0471 0.06692,1.4616 -0.6692,0.84554 -1.94871,0.68098 -2.694865,0.0402 -1.40599,-1.20415 -1.09548,-3.38225 0.06692,-4.63914 2.03771,-2.2231 5.56908,-1.68291 7.58203,0.26164 3.382805,3.26536 2.49076,8.74223 -0.63574,11.83292 -5.03171,4.97042 -13.248145,3.56985 -17.83283,-1.24563 -7.110245,-7.46661 -4.98286,-19.40452 2.19163,-25.99854 10.78281,-9.90824 27.711549,-6.80102 36.968589,3.55291 13.53523,15.1397 9.09576,38.56491 -5.50081,51.25909 -10.442865,8.66285 -20.890409,14.48723 -30.942459,18.25162 -12.263085,70.84943 -70.648075,6.42143 -76.104061,-3.94079 L -16,188 Z"
         style="color:#000000;clip-rule:nonzero;display:inline;overflow:visible;visibility:visible;opacity:1;color-interpolation:sRGB;color-interpolation-filters:linearRGB;fill:#81dffe;fill-opacity:1;fill-rule:nonzero;stroke:none;stroke-width:2.294523;stroke-linecap:round;stroke-linejoin:round;stroke-miterlimit:4;stroke-dasharray:none;stroke-dashoffset:0;stroke-opacity:1;marker:none;color-rendering:auto;image-rendering:auto;shape-rendering:auto;text-rendering:auto;enable-background:accumulate"
         inkscape:connector-curvature="0"
         clip-path="url(#clipPath868)" />
      <rect
         style="display:inline;opacity:1;fill:#1a5fb4;fill-opacity:1;stroke:none;stroke-width:0.25;stroke-linecap:butt;stroke-linejoin:miter;stroke-miterlimit:4;stroke-dasharray:none;stroke-dashoffset:0;stroke-opacity:1;marker:none;marker-start:none;marker-mid:none;marker-end:none;paint-order:normal;enable-background:new"
         id="rect856"
         width="96"
         height="80"
         x="-176"
         y="200"
         rx="8"
         ry="8" />
      <path
         id="path858"
         d="m -184,200 c -4.432,0 -8,3.568 -8,8 v 64 c 0,4.432 3.568,8 8,8 h 8 v 16 l 16,-16 h 46 v -80 z"
         style="display:inline;opacity:1;fill:#0aa8dc;fill-opacity:1;stroke:none;stroke-width:0.25;stroke-linecap:butt;stroke-linejoin:miter;stroke-miterlimit:4;stroke-dasharray:none;stroke-dashoffset:0;stroke-opacity:1;marker:none;marker-start:none;marker-mid:none;marker-end:none;paint-order:normal;enable-background:new"
         inkscape:connector-curvature="0" />
      <path
         id="path860"
         d="m -168,196 c -4.432,0 -8,3.568 -8,8 v 64 c 0,4.432 3.568,8 8,8 h 80 c 4.432,0 8,-3.568 8,-8 v -54 h -46 v -18 z"
         style="display:inline;opacity:1;fill:#1a5fb4;fill-opacity:1;stroke:none;stroke-width:0.25;stroke-linecap:butt;stroke-linejoin:miter;stroke-miterlimit:4;stroke-dasharray:none;stroke-dashoffset:0;stroke-opacity:1;marker:none;marker-start:none;marker-mid:none;marker-end:none;paint-order:normal;enable-background:new"
         inkscape:connector-curvature="0" />
      <path
         inkscape:connector-curvature="0"
         id="path862"
         d="m -125.74414,200 c -16.93186,1.74468 -32.47027,14.31116 -33.48047,32.23633 -0.78363,13.86174 8.98961,28.01968 23.625,28.63086 9.74021,0.40688 19.68962,-6.53314 19.94727,-16.83594 0.1673,-6.64455 -4.65179,-13.44072 -11.72657,-13.48047 -4.39999,-0.0267 -8.90452,3.2169 -8.82422,7.91602 0.0669,2.79799 2.15909,5.67391 5.17383,5.54101 1.70311,-0.0743 3.46609,-1.39572 3.32422,-3.24023 -0.0736,-0.97891 -0.86611,-2.00014 -1.9375,-1.875 -0.52866,0.0602 -1.08012,0.50465 -0.98242,1.08398 0.0669,0.25698 0.26805,0.53568 0.5625,0.46875 0.11377,-0.0267 0.23463,-0.13524 0.20117,-0.26172 0,-0.0402 -0.0673,-0.0892 -0.10742,-0.0684 0,0.003 -0.0669,0.0198 0,0.0332 v 0.004 0.002 0.0312 c 0,0.0469 -0.0868,0.0456 -0.12695,0.0254 -0.11377,-0.0602 -0.10852,-0.22652 -0.0684,-0.32422 0.15391,-0.25162 0.50896,-0.21695 0.73047,-0.0684 0.48851,0.3413 0.40296,1.04644 0.0684,1.46094 -0.66921,0.84554 -1.94916,0.68179 -2.69532,0.041 -1.40599,-1.20415 -1.09599,-3.38178 0.0664,-4.63867 2.03771,-2.2231 5.56908,-1.68283 7.58203,0.26172 3.38281,3.26536 2.49174,8.74134 -0.63476,11.83203 -5.03171,4.97042 -13.2493,3.56939 -17.83399,-1.24609 -7.11024,-7.46661 -4.98308,-19.40403 2.19141,-25.99805 10.78281,-9.90824 27.71171,-6.8012 36.96875,3.55273 13.53523,15.1397 9.09657,38.56559 -5.5,51.25977 -1.5463,1.28273 -3.09346,2.49546 -4.63867,3.65625 H -88 c 4.432,0 8,-3.568 8,-8 v -64 c 0,-4.432 -3.568,-8 -8,-8 z"
         style="display:inline;opacity:1;fill:#3584e4;fill-opacity:1;stroke:none;stroke-width:0.25;stroke-linecap:butt;stroke-linejoin:miter;stroke-miterlimit:4;stroke-dasharray:none;stroke-dashoffset:0;stroke-opacity:1;marker:none;marker-start:none;marker-mid:none;marker-end:none;paint-order:normal;enable-background:new" />
      <path
         inkscape:connector-curvature="0"
         id="path864"
         d="m -176,268 v 24 l 24,-24 z"
         style="fill:#4fd2fd;fill-rule:evenodd;stroke:none;stroke-width:1px;stroke-linecap:butt;stroke-linejoin:miter;stroke-opacity:1" />
      <path
         clip-path="url(#clipPath868)"
         inkscape:connector-curvature="0"
         style="color:#000000;clip-rule:nonzero;display:inline;overflow:visible;visibility:visible;opacity:1;color-interpolation:sRGB;color-interpolation-filters:linearRGB;fill:#4fd2fd;fill-opacity:1;fill-rule:nonzero;stroke:none;stroke-width:2.294523;stroke-linecap:round;stroke-linejoin:round;stroke-miterlimit:4;stroke-dasharray:none;stroke-dashoffset:0;stroke-opacity:1;marker:none;color-rendering:auto;image-rendering:auto;shape-rendering:auto;text-rendering:auto;enable-background:accumulate"
         d="m 80.444385,188.79637 0.495205,7.07806 c -19.305069,-1.33646 -39.021699,12.09163 -40.164024,32.36115 -0.78363,13.86174 8.98869,28.01959 23.624085,28.63077 9.740205,0.40688 19.691199,-6.53292 19.948849,-16.83572 0.1673,-6.64455 -4.652279,-13.44041 -11.727059,-13.48016 -4.39999,-0.0267 -8.90571,3.21758 -8.825405,7.9167 0.06692,2.79799 2.160845,5.67414 5.17559,5.54124 1.70311,-0.0743 3.464445,-1.39615 3.322575,-3.24066 -0.07361,-0.97891 -0.864605,-1.99937 -1.935995,-1.87423 -0.528665,0.0602 -1.080755,0.50457 -0.983055,1.0839 0.06692,0.25698 0.26768,0.53537 0.56213,0.46844 0.113765,-0.0267 0.23422,-0.13585 0.20076,-0.26233 0,-0.0402 -0.06692,-0.0897 -0.107075,-0.0689 0,0.003 -0.06692,0.02 0,0.0334 v 0.004 -2.1e-4 c -5e-4,-2e-4 0,0 0,-2e-4 v 0.002 -0.002 0.0335 c 0,0.0469 -0.08699,0.0469 -0.127145,0.0267 -0.113765,-0.0602 -0.107075,-0.22686 -0.06692,-0.32456 0.153915,-0.25162 0.50859,-0.21749 0.730095,-0.0689 0.488515,0.3413 0.40152,1.0471 0.06692,1.4616 -0.6692,0.84554 -1.94871,0.68098 -2.694865,0.0402 -1.40599,-1.20415 -1.09548,-3.38225 0.06692,-4.63914 2.03771,-2.2231 5.56908,-1.68291 7.58203,0.26164 3.382805,3.26536 2.49076,8.74223 -0.63574,11.83292 -5.03171,4.97042 -13.248145,3.56985 -17.83283,-1.24563 -7.110245,-7.46661 -4.98286,-19.40452 2.19163,-25.99854 10.78281,-9.90824 27.711549,-6.80102 36.968589,3.55291 13.53523,15.1397 9.09576,38.56491 -5.50081,51.25909 -10.442865,8.66285 -20.890409,14.48723 -30.942459,18.25162 -12.263085,70.84943 -70.648075,6.42143 -76.104061,-3.94079 L -16,188 Z"
         id="path866"
         sodipodi:nodetypes="cccsccccccccccccccccccccccccccccccccc"
         mask="none"
         transform="translate(-200)" />
    </g>
  </g>
</svg>
