<svg xmlns="http://www.w3.org/2000/svg" xmlns:svg="http://www.w3.org/2000/svg" xmlns:xlink="http://www.w3.org/1999/xlink" id="svg11300" width="128" height="128" display="inline" enable-background="new" version="1.0" viewBox="0 0 128 128"><title id="title4162">Adwaita Icon Template</title><defs id="defs3"><linearGradient id="linearGradient976"><stop id="stop972" offset="0" stop-color="#deddda" stop-opacity="1"/><stop id="stop984" offset=".039" stop-color="#f1f0ef" stop-opacity=".996"/><stop id="stop986" offset=".096" stop-color="#deddda" stop-opacity=".992"/><stop id="stop982" offset=".606" stop-color="#deddda" stop-opacity=".969"/><stop id="stop980" offset=".856" stop-color="#dbdad6" stop-opacity=".969"/><stop id="stop988" offset=".962" stop-color="#fff" stop-opacity=".965"/><stop id="stop974" offset="1" stop-color="#deddda" stop-opacity=".966"/></linearGradient><linearGradient id="linearGradient1099" x1="32" x2="96" y1="236" y2="236" gradientTransform="translate(604.81684,170.58641)" gradientUnits="userSpaceOnUse" xlink:href="#linearGradient1036"/><linearGradient id="linearGradient1036"><stop id="stop1032" offset="0" stop-color="#d5d3cf" stop-opacity="1"/><stop id="stop1034" offset="1" stop-color="#f6f5f4" stop-opacity="1"/></linearGradient><radialGradient id="radialGradient1103" cx="-244" cy="-76" r="32" fx="-244" fy="-76" gradientTransform="matrix(0.88333331,0,0,0.88333331,-460.35018,463.11973)" gradientUnits="userSpaceOnUse" xlink:href="#linearGradient1069"/><linearGradient id="linearGradient1069"><stop id="stop1065" offset="0" stop-color="#d5d3cf" stop-opacity="1"/><stop id="stop1067-1" offset="1" stop-color="#949390" stop-opacity="1"/></linearGradient><linearGradient id="linearGradient1027" x1="64" x2="64" y1="262.5" y2="232" gradientTransform="translate(-470.5864,432.81685)" gradientUnits="userSpaceOnUse" xlink:href="#linearGradient1025"/><linearGradient id="linearGradient1025"><stop id="stop1021" offset="0" stop-color="#9a9996" stop-opacity="1"/><stop id="stop1023" offset="1" stop-color="#77767b" stop-opacity="1"/></linearGradient><linearGradient id="linearGradient39155"><stop id="stop39157" offset="0" stop-color="#fff" stop-opacity="1"/><stop id="stop39159" offset="1" stop-color="#dadada" stop-opacity="1"/></linearGradient><clipPath id="clipPath6085" clipPathUnits="userSpaceOnUse"><path id="path6087" fill="none" stroke="#954900" stroke-dasharray="none" stroke-linecap="round" stroke-linejoin="round" stroke-miterlimit="4" stroke-opacity="1" stroke-width=".208" d="m 16.048489,28.093447 c 0.0098,0.576682 0.196474,1.697902 0.471116,2.577425 0.581566,1.854137 1.56684,3.572658 2.939126,5.086496 1.407488,1.553118 3.138519,2.803227 5.139315,3.68976 2.105357,0.931573 4.384795,1.407488 6.750134,1.403741 2.365339,-0.005 4.644601,-0.488686 6.74896,-1.427017 2.00002,-0.895288 3.731043,-2.148391 5.13754,-3.705517 1.369207,-1.519844 2.352576,-3.241114 2.934089,-5.096258 0.294262,-0.938353 0.476921,-1.889392 0.553238,-2.845308 0.07331,-0.939306 0.04204,-1.883511 -0.09183,-2.823792 -0.259981,-1.835599 -0.896294,-3.556847 -1.872652,-5.12758 -0.895541,-1.441699 -2.047808,-2.70454 -3.417268,-3.766975 0,0 0.002,-0.002 0.002,-0.002 0,0 -13.828458,-10.6197195 -13.828458,-10.6197195 -0.01176,-0.00978 -0.02252,-0.019551 -0.03529,-0.028344 -0.909003,-0.6959264 -2.434775,-0.6939758 -3.431728,0.00488 -1.01067,0.7057021 -1.091821,1.8092613 -0.195527,2.5482146 1.899775,1.4997633 3.792068,3.0680399 5.702368,4.5676189 0,0 -17.551681,-0.01171 -17.551681,-0.01171 -1.994685,0 -3.1682604,0.947915 -3.4153942,2.333683 -0.2180771,1.222836 0.7479213,2.738129 2.4800212,2.738129 2.956573,0.0039 5.942111,-0.0069 8.909215,-0.01272 0,0 -15.901723,11.764162 -15.901723,11.764162 -0.020527,0.01564 -0.041053,0.02933 -0.06158,0.04497 -1.4974197,1.148389 -1.9831951,3.059322 -1.0399808,4.268393 0.9598323,1.22959 2.9977653,1.230588 4.5147288,0.006 0,0 8.677593,-7.102098 8.677593,-7.102098 0,0 -0.12511,0.959824 -0.116333,1.535532 z"/></clipPath><linearGradient id="linearGradient978" x1="12" x2="116" y1="109.846" y2="109.846" gradientUnits="userSpaceOnUse" xlink:href="#linearGradient976"/></defs><metadata id="metadata4"/><g id="layer1" display="inline" transform="translate(0,-172)"><g id="layer2" display="none"><rect id="rect13805" width="128" height="128" x="0" y="172" fill="#f0f0f0" fill-opacity="1" fill-rule="nonzero" stroke="none" stroke-width=".5" display="inline" enable-background="accumulate" overflow="visible" visibility="visible" style="marker:none"/></g><g id="layer3" display="none"><circle id="circle2892" cx="64" cy="236" r="59.504" fill="none" fill-opacity="1" stroke="#000" stroke-dasharray=".99 .99" stroke-dashoffset="0" stroke-linecap="butt" stroke-linejoin="miter" stroke-miterlimit="4" stroke-opacity="1" stroke-width=".99" marker-end="none" marker-mid="none" marker-start="none" display="inline" enable-background="new" opacity=".1" paint-order="normal" vector-effect="none" style="marker:none"/><rect id="rect2894" width="87.01" height="111.01" x="20.495" y="180.495" fill="none" fill-opacity="1" stroke="#000" stroke-dasharray=".99 .99" stroke-dashoffset="0" stroke-linecap="butt" stroke-linejoin="miter" stroke-miterlimit="4" stroke-opacity="1" stroke-width=".99" marker-end="none" marker-mid="none" marker-start="none" display="inline" enable-background="new" opacity=".1" paint-order="normal" rx="8.701" ry="7.929" vector-effect="none" style="marker:none"/><rect id="rect2896" width="103.01" height="103.01" x="12.495" y="184.495" fill="none" fill-opacity="1" stroke="#000" stroke-dasharray=".99 .99" stroke-dashoffset="0" stroke-linecap="butt" stroke-linejoin="miter" stroke-miterlimit="4" stroke-opacity="1" stroke-width=".99" marker-end="none" marker-mid="none" marker-start="none" display="inline" enable-background="new" opacity=".1" paint-order="normal" rx="7.924" ry="7.924" vector-effect="none" style="marker:none"/><rect id="rect2898" width="111.01" height="87.01" x="8.495" y="200.495" fill="none" fill-opacity="1" stroke="#000" stroke-dasharray=".99 .99" stroke-dashoffset="0" stroke-linecap="butt" stroke-linejoin="miter" stroke-miterlimit="4" stroke-opacity="1" stroke-width=".99" marker-end="none" marker-mid="none" marker-start="none" display="inline" enable-background="new" opacity=".1" paint-order="normal" rx="7.929" ry="8.701" vector-effect="none" style="marker:none"/><path id="path2900" fill="none" stroke="#62a0ea" stroke-dasharray="none" stroke-linecap="butt" stroke-linejoin="miter" stroke-miterlimit="4" stroke-opacity="1" stroke-width="2" d="M 2.6203015e-5,288.99999 H 128.00003" display="inline" enable-background="new"/></g><g id="layer9" display="inline"><g id="g951" stroke-width=".928" transform="matrix(1.0565989,0,0,1.0980778,-1.8218926,-30.35568)"><ellipse id="ellipse943" cx="78.25" cy="254.375" fill="#fff" fill-opacity="1" stroke="none" stroke-dasharray="none" stroke-dashoffset="0" stroke-linecap="square" stroke-linejoin="miter" stroke-miterlimit="4" stroke-opacity="1" stroke-width="1.857" marker-end="none" marker-mid="none" marker-start="none" opacity="1" paint-order="normal" rx="31.5" ry="28.875" vector-effect="none" style="marker:none"/><path id="path945" fill="#0d528a" fill-opacity="1" fill-rule="nonzero" stroke="none" stroke-width="1.834" d="m 63.397355,251.84499 c 0.209362,-3.73294 2.040278,-7.02345 4.797518,-9.35605 2.707861,-2.29111 6.34797,-3.69145 10.323845,-3.69145 3.969947,0 7.612032,1.40034 10.317919,3.69145 2.759215,2.3326 4.586185,5.62311 4.797515,9.35211 0.20936,3.83958 -1.33122,7.40265 -4.039073,10.04535 -2.759222,2.6881 -6.681758,4.37681 -11.076361,4.37681 -4.396571,0 -8.327019,-1.68871 -11.086233,-4.37681 -2.705887,-2.6427 -4.244489,-6.20577 -4.03513,-10.04141"/><path id="path947" fill="#f5792a" fill-opacity="1" fill-rule="nonzero" stroke="none" stroke-width="1.834" d="m 39.320892,259.39185 c 0.02567,1.46355 0.4918,4.30176 1.190986,6.5198 1.469473,4.6948 3.962049,9.03805 7.432299,12.86777 3.55913,3.93243 7.941875,7.09456 13.004056,9.3363 5.318942,2.35827 11.084259,3.55715 17.07276,3.54728 5.980605,-0.008 11.743944,-1.23247 17.064859,-3.60654 5.062178,-2.26347 9.440978,-5.43942 12.996158,-9.3758 3.46433,-3.84157 5.95492,-8.19271 7.42637,-12.88752 0.74264,-2.37407 1.20876,-4.77975 1.3964,-7.19726 0.18565,-2.38 0.10666,-4.76197 -0.23109,-7.14394 -0.65969,-4.64345 -2.26543,-8.99657 -4.73628,-12.96652 -2.26347,-3.64801 -5.17872,-6.84372 -8.64502,-9.53183 l 0.009,-0.003 -34.982967,-26.86136 c -0.02963,-0.0238 -0.0553,-0.0494 -0.08888,-0.0691 -2.29704,-1.76376 -6.156385,-1.75586 -8.678587,0.009 -2.553804,1.78352 -2.844143,4.73629 -0.574754,6.60077 l -0.0079,0.008 14.588086,11.86442 -44.469367,0.0494 c -0.02173,0 -0.04147,0 -0.05925,0 -3.67566,8.5e-4 -7.209113,2.41358 -7.906323,5.46313 -0.720913,3.10486 1.775615,5.68038 5.597432,5.69224 l -0.004,0.0143 22.537861,-0.0435 -40.220928,30.87277 c -0.04937,0.0395 -0.106656,0.0771 -0.154058,0.11662 -3.794166,2.90339 -5.018727,7.73646 -2.628857,10.79195 2.423447,3.11078 7.582408,3.1167 11.416076,0.0178 l 21.951321,-17.96395 c 0,0 -0.32194,2.42345 -0.296265,3.87909 z m 56.40884,8.12358 c -4.52495,4.60791 -10.855149,7.22097 -17.708739,7.23478 -6.861495,0.0116 -13.19169,-2.57946 -17.716643,-7.17948 -2.210136,-2.24174 -3.833668,-4.81924 -4.835044,-7.56858 -0.979648,-2.69799 -1.362818,-5.56386 -1.110006,-8.4554 0.240963,-2.82834 1.080381,-5.52238 2.425423,-7.9636 1.319365,-2.3958 3.134483,-4.56446 5.380172,-6.39735 4.394596,-3.58283 9.992027,-5.5204 15.848198,-5.52831 5.860122,-0.009 11.453602,1.91388 15.852149,5.48288 2.23977,1.82499 4.05685,3.98378 5.37622,6.37958 1.348988,2.43728 2.184468,5.12143 2.433318,7.95767 0.24689,2.8876 -0.1343,5.74951 -1.11395,8.45145 -1.003348,2.75527 -2.620958,5.33277 -4.831098,7.58636"/><path id="path949" fill="#e66100" fill-opacity="1" fill-rule="nonzero" stroke="none" stroke-width="1.975" d="m 59.001953,24.425781 c -0.379839,1.515555 0.09145,3.11622 1.490235,4.310547 l -0.0078,0.0078 15.413331,13.02888 2.363282,-0.002 -17.776613,-15.026927 0.0078,-0.0078 c -0.785542,-0.670719 -1.27423,-1.470476 -1.490235,-2.310547 z M 20.472656,47.960938 c -0.662699,3.348381 1.953085,6.102384 5.9375,6.115234 l -0.0059,0.01563 23.814202,-0.04713 2.513672,-2.005859 -26.327874,0.05299 0.0059,-0.01563 c -3.151724,-0.01017 -5.442348,-1.737419 -5.9375,-4.115235 z m 60.134766,4.060546 c -6.187624,0.0087 -12.102769,2.13804 -16.746094,6.072266 -2.372792,2.012656 -4.289554,4.392663 -5.683594,7.023438 -1.42117,2.680649 -2.309852,5.638403 -2.564453,8.74414 -0.0809,0.961616 -0.09199,1.92094 -0.05078,2.873047 0.01323,-0.290731 0.02627,-0.58172 0.05078,-0.873047 0.254601,-3.105737 1.143283,-6.063491 2.564453,-8.74414 1.39404,-2.630775 3.310802,-5.010782 5.683594,-7.023438 4.643325,-3.934226 10.55847,-6.06358 16.746094,-6.072266 6.191798,-0.0099 12.100547,2.102445 16.748047,6.021485 2.366538,2.003981 4.287591,4.375084 5.681641,7.005859 1.42534,2.676323 2.30738,5.623869 2.57031,8.738281 0.0238,0.288797 0.0361,0.577017 0.0488,0.865235 0.0418,-0.950394 0.0301,-1.905585 -0.0488,-2.865235 -0.26293,-3.114412 -1.14497,-6.061958 -2.57031,-8.738281 -1.39405,-2.630775 -3.315103,-5.001878 -5.681641,-7.005859 -4.6475,-3.91904 -10.556249,-6.031367 -16.748047,-6.021485 z M 40.255391,78.032013 16.84375,97.943359 C 12.793101,101.34619 7.3418614,101.33971 4.78125,97.923828 4.0970979,97.01479 3.7020671,95.960346 3.5566406,94.845703 c -0.2361802,1.83762 0.1406493,3.637859 1.2246094,5.078125 2.5606114,3.415882 8.011851,3.422362 12.0625,0.01953 L 40.036641,80.21756 c 0.09285,-1.153287 0.21875,-2.185547 0.21875,-2.185547 z m 81.529769,1.796112 c -0.0158,0.59172 -0.0415,1.183867 -0.0859,1.775391 -0.19826,2.654614 -0.68994,5.29543 -1.47461,7.902343 -1.55473,5.155267 -4.18725,9.934001 -7.84766,14.152341 -3.7564,4.32245 -8.38177,7.80946 -13.730466,10.29492 -5.622073,2.60692 -11.712149,3.9502 -18.03125,3.95899 -6.327443,0.0108 -12.419074,-1.30497 -18.039062,-3.89453 -5.348695,-2.46161 -9.979662,-5.93384 -13.740234,-10.25196 -3.666663,-4.205326 -6.300873,-8.973646 -7.853516,-14.128901 -0.663389,-2.187097 -1.107264,-4.867169 -1.214844,-6.566407 -0.03059,0.497642 -0.05203,0.987524 -0.04492,1.40625 h 0.002 c 0.02712,1.607092 0.519054,4.724576 1.257813,7.160157 1.552643,5.155255 4.186853,9.923571 7.853516,14.128901 3.760572,4.31812 8.391539,7.79035 13.740234,10.25196 5.619988,2.58956 11.711619,3.90537 18.039062,3.89453 6.319101,-0.009 12.409177,-1.35207 18.03125,-3.95899 5.348697,-2.48546 9.974067,-5.97247 13.730467,-10.29492 3.66041,-4.21834 6.29293,-8.997074 7.84766,-14.152341 0.78467,-2.606913 1.27635,-5.247729 1.47461,-7.902343 0.0944,-1.257908 0.12039,-2.516723 0.0859,-3.775391 z" transform="matrix(0.94643294,0,0,0.91068228,1.7242992,182.46037)"/></g><circle id="circle953" cx="224" cy="236" r="60" fill="#f6f5f4" fill-opacity="1" stroke="none" stroke-dasharray="none" stroke-dashoffset="0" stroke-linecap="square" stroke-linejoin="miter" stroke-miterlimit="4" stroke-opacity="1" stroke-width="2" marker-end="none" marker-mid="none" marker-start="none" display="inline" enable-background="new" opacity="1" paint-order="normal" vector-effect="none" style="marker:none"/><g id="g963" stroke-width="1.066" transform="matrix(0.9200304,0,0,0.95614821,157.84037,-6.7365198)"><ellipse id="ellipse955" cx="78.25" cy="254.375" fill="#fff" fill-opacity="1" stroke="none" stroke-dasharray="none" stroke-dashoffset="0" stroke-linecap="square" stroke-linejoin="miter" stroke-miterlimit="4" stroke-opacity="1" stroke-width="2.132" marker-end="none" marker-mid="none" marker-start="none" opacity="1" paint-order="normal" rx="31.5" ry="28.875" vector-effect="none" style="marker:none"/><path id="path957" fill="#0d528a" fill-opacity="1" fill-rule="nonzero" stroke="none" stroke-width="2.106" d="m 63.397355,251.84499 c 0.209362,-3.73294 2.040278,-7.02345 4.797518,-9.35605 2.707861,-2.29111 6.34797,-3.69145 10.323845,-3.69145 3.969947,0 7.612032,1.40034 10.317919,3.69145 2.759215,2.3326 4.586185,5.62311 4.797515,9.35211 0.20936,3.83958 -1.33122,7.40265 -4.039073,10.04535 -2.759222,2.6881 -6.681758,4.37681 -11.076361,4.37681 -4.396571,0 -8.327019,-1.68871 -11.086233,-4.37681 -2.705887,-2.6427 -4.244489,-6.20577 -4.03513,-10.04141"/><path id="path959" fill="#f5792a" fill-opacity="1" fill-rule="nonzero" stroke="none" stroke-width="2.106" d="m 39.320892,259.39185 c 0.02567,1.46355 0.4918,4.30176 1.190986,6.5198 1.469473,4.6948 3.962049,9.03805 7.432299,12.86777 3.55913,3.93243 7.941875,7.09456 13.004056,9.3363 5.318942,2.35827 11.084259,3.55715 17.07276,3.54728 5.980605,-0.008 11.743944,-1.23247 17.064859,-3.60654 5.062178,-2.26347 9.440978,-5.43942 12.996158,-9.3758 3.46433,-3.84157 5.95492,-8.19271 7.42637,-12.88752 0.74264,-2.37407 1.20876,-4.77975 1.3964,-7.19726 0.18565,-2.38 0.10666,-4.76197 -0.23109,-7.14394 -0.65969,-4.64345 -2.26543,-8.99657 -4.73628,-12.96652 -2.26347,-3.64801 -5.17872,-6.84372 -8.64502,-9.53183 l 0.009,-0.003 -34.982967,-26.86136 c -0.02963,-0.0238 -0.0553,-0.0494 -0.08888,-0.0691 -2.29704,-1.76376 -6.156385,-1.75586 -8.678587,0.009 -2.553804,1.78352 -2.844143,4.73629 -0.574754,6.60077 l -0.0079,0.008 14.588086,11.86442 -44.469367,0.0494 c -0.02173,0 -0.04147,0 -0.05925,0 -3.67566,8.5e-4 -7.209113,2.41358 -7.906323,5.46313 -0.720913,3.10486 1.775615,5.68038 5.597432,5.69224 l -0.004,0.0143 22.537861,-0.0435 -40.220928,30.87277 c -0.04937,0.0395 -0.106656,0.0771 -0.154058,0.11662 -3.794166,2.90339 -5.018727,7.73646 -2.628857,10.79195 2.423447,3.11078 7.582408,3.1167 11.416076,0.0178 l 21.951321,-17.96395 c 0,0 -0.32194,2.42345 -0.296265,3.87909 z m 56.40884,8.12358 c -4.52495,4.60791 -10.855149,7.22097 -17.708739,7.23478 -6.861495,0.0116 -13.19169,-2.57946 -17.716643,-7.17948 -2.210136,-2.24174 -3.833668,-4.81924 -4.835044,-7.56858 -0.979648,-2.69799 -1.362818,-5.56386 -1.110006,-8.4554 0.240963,-2.82834 1.080381,-5.52238 2.425423,-7.9636 1.319365,-2.3958 3.134483,-4.56446 5.380172,-6.39735 4.394596,-3.58283 9.992027,-5.5204 15.848198,-5.52831 5.860122,-0.009 11.453602,1.91388 15.852149,5.48288 2.23977,1.82499 4.05685,3.98378 5.37622,6.37958 1.348988,2.43728 2.184468,5.12143 2.433318,7.95767 0.24689,2.8876 -0.1343,5.74951 -1.11395,8.45145 -1.003348,2.75527 -2.620958,5.33277 -4.831098,7.58636"/><path id="path961" fill="#e66100" fill-opacity="1" fill-rule="nonzero" stroke="none" stroke-width="2.268" d="m 59.001953,24.425781 c -0.379839,1.515555 0.09145,3.11622 1.490235,4.310547 l -0.0078,0.0078 15.413331,13.02888 2.363282,-0.002 -17.776613,-15.026927 0.0078,-0.0078 c -0.785542,-0.670719 -1.27423,-1.470476 -1.490235,-2.310547 z M 20.472656,47.960938 c -0.662699,3.348381 1.953085,6.102384 5.9375,6.115234 l -0.0059,0.01563 23.814202,-0.04713 2.513672,-2.005859 -26.327874,0.05299 0.0059,-0.01563 c -3.151724,-0.01017 -5.442348,-1.737419 -5.9375,-4.115235 z m 60.134766,4.060546 c -6.187624,0.0087 -12.102769,2.13804 -16.746094,6.072266 -2.372792,2.012656 -4.289554,4.392663 -5.683594,7.023438 -1.42117,2.680649 -2.309852,5.638403 -2.564453,8.74414 -0.0809,0.961616 -0.09199,1.92094 -0.05078,2.873047 0.01323,-0.290731 0.02627,-0.58172 0.05078,-0.873047 0.254601,-3.105737 1.143283,-6.063491 2.564453,-8.74414 1.39404,-2.630775 3.310802,-5.010782 5.683594,-7.023438 4.643325,-3.934226 10.55847,-6.06358 16.746094,-6.072266 6.191798,-0.0099 12.100547,2.102445 16.748047,6.021485 2.366538,2.003981 4.287591,4.375084 5.681641,7.005859 1.42534,2.676323 2.30738,5.623869 2.57031,8.738281 0.0238,0.288797 0.0361,0.577017 0.0488,0.865235 0.0418,-0.950394 0.0301,-1.905585 -0.0488,-2.865235 -0.26293,-3.114412 -1.14497,-6.061958 -2.57031,-8.738281 -1.39405,-2.630775 -3.315103,-5.001878 -5.681641,-7.005859 -4.6475,-3.91904 -10.556249,-6.031367 -16.748047,-6.021485 z M 40.255391,78.032013 16.84375,97.943359 C 12.793101,101.34619 7.3418614,101.33971 4.78125,97.923828 4.0970979,97.01479 3.7020671,95.960346 3.5566406,94.845703 c -0.2361802,1.83762 0.1406493,3.637859 1.2246094,5.078125 2.5606114,3.415882 8.011851,3.422362 12.0625,0.01953 L 40.036641,80.21756 c 0.09285,-1.153287 0.21875,-2.185547 0.21875,-2.185547 z m 81.529769,1.796112 c -0.0158,0.59172 -0.0415,1.183867 -0.0859,1.775391 -0.19826,2.654614 -0.68994,5.29543 -1.47461,7.902343 -1.55473,5.155267 -4.18725,9.934001 -7.84766,14.152341 -3.7564,4.32245 -8.38177,7.80946 -13.730466,10.29492 -5.622073,2.60692 -11.712149,3.9502 -18.03125,3.95899 -6.327443,0.0108 -12.419074,-1.30497 -18.039062,-3.89453 -5.348695,-2.46161 -9.979662,-5.93384 -13.740234,-10.25196 -3.666663,-4.205326 -6.300873,-8.973646 -7.853516,-14.128901 -0.663389,-2.187097 -1.107264,-4.867169 -1.214844,-6.566407 -0.03059,0.497642 -0.05203,0.987524 -0.04492,1.40625 h 0.002 c 0.02712,1.607092 0.519054,4.724576 1.257813,7.160157 1.552643,5.155255 4.186853,9.923571 7.853516,14.128901 3.760572,4.31812 8.391539,7.79035 13.740234,10.25196 5.619988,2.58956 11.711619,3.90537 18.039062,3.89453 6.319101,-0.009 12.409177,-1.35207 18.03125,-3.95899 5.348697,-2.48546 9.974067,-5.97247 13.730467,-10.29492 3.66041,-4.21834 6.29293,-8.997074 7.84766,-14.152341 0.78467,-2.606913 1.27635,-5.247729 1.47461,-7.902343 0.0944,-1.257908 0.12039,-2.516723 0.0859,-3.775391 z" transform="matrix(0.94643294,0,0,0.91068228,1.7242992,182.46037)"/></g><g id="g997" transform="translate(0,160)"><rect id="rect965" width="104" height="104" x="12" y="184" fill="#f6f5f4" fill-opacity="1" stroke="none" stroke-dasharray="none" stroke-dashoffset="0" stroke-linecap="square" stroke-linejoin="miter" stroke-miterlimit="4" stroke-opacity="1" stroke-width="2" marker-end="none" marker-mid="none" marker-start="none" opacity="1" paint-order="normal" rx="8.309" ry="8.309" vector-effect="none" style="marker:none"/><g id="g919" stroke-width="1.066" transform="matrix(0.9200304,0,0,0.95614821,-2.1596281,-2.7365198)"><ellipse id="path1361" cx="78.25" cy="254.375" fill="#fff" fill-opacity="1" stroke="none" stroke-dasharray="none" stroke-dashoffset="0" stroke-linecap="square" stroke-linejoin="miter" stroke-miterlimit="4" stroke-opacity="1" stroke-width="2.132" marker-end="none" marker-mid="none" marker-start="none" opacity="1" paint-order="normal" rx="31.5" ry="28.875" vector-effect="none" style="marker:none"/><path id="path3026" fill="#0d528a" fill-opacity="1" fill-rule="nonzero" stroke="none" stroke-width="2.106" d="m 63.397355,251.84499 c 0.209362,-3.73294 2.040278,-7.02345 4.797518,-9.35605 2.707861,-2.29111 6.34797,-3.69145 10.323845,-3.69145 3.969947,0 7.612032,1.40034 10.317919,3.69145 2.759215,2.3326 4.586185,5.62311 4.797515,9.35211 0.20936,3.83958 -1.33122,7.40265 -4.039073,10.04535 -2.759222,2.6881 -6.681758,4.37681 -11.076361,4.37681 -4.396571,0 -8.327019,-1.68871 -11.086233,-4.37681 -2.705887,-2.6427 -4.244489,-6.20577 -4.03513,-10.04141"/><path id="path3028" fill="#f5792a" fill-opacity="1" fill-rule="nonzero" stroke="none" stroke-width="2.106" d="m 39.320892,259.39185 c 0.02567,1.46355 0.4918,4.30176 1.190986,6.5198 1.469473,4.6948 3.962049,9.03805 7.432299,12.86777 3.55913,3.93243 7.941875,7.09456 13.004056,9.3363 5.318942,2.35827 11.084259,3.55715 17.07276,3.54728 5.980605,-0.008 11.743944,-1.23247 17.064859,-3.60654 5.062178,-2.26347 9.440978,-5.43942 12.996158,-9.3758 3.46433,-3.84157 5.95492,-8.19271 7.42637,-12.88752 0.74264,-2.37407 1.20876,-4.77975 1.3964,-7.19726 0.18565,-2.38 0.10666,-4.76197 -0.23109,-7.14394 -0.65969,-4.64345 -2.26543,-8.99657 -4.73628,-12.96652 -2.26347,-3.64801 -5.17872,-6.84372 -8.64502,-9.53183 l 0.009,-0.003 -34.982967,-26.86136 c -0.02963,-0.0238 -0.0553,-0.0494 -0.08888,-0.0691 -2.29704,-1.76376 -6.156385,-1.75586 -8.678587,0.009 -2.553804,1.78352 -2.844143,4.73629 -0.574754,6.60077 l -0.0079,0.008 14.588086,11.86442 -44.469367,0.0494 c -0.02173,0 -0.04147,0 -0.05925,0 -3.67566,8.5e-4 -7.209113,2.41358 -7.906323,5.46313 -0.720913,3.10486 1.775615,5.68038 5.597432,5.69224 l -0.004,0.0143 22.537861,-0.0435 -40.220928,30.87277 c -0.04937,0.0395 -0.106656,0.0771 -0.154058,0.11662 -3.794166,2.90339 -5.018727,7.73646 -2.628857,10.79195 2.423447,3.11078 7.582408,3.1167 11.416076,0.0178 l 21.951321,-17.96395 c 0,0 -0.32194,2.42345 -0.296265,3.87909 z m 56.40884,8.12358 c -4.52495,4.60791 -10.855149,7.22097 -17.708739,7.23478 -6.861495,0.0116 -13.19169,-2.57946 -17.716643,-7.17948 -2.210136,-2.24174 -3.833668,-4.81924 -4.835044,-7.56858 -0.979648,-2.69799 -1.362818,-5.56386 -1.110006,-8.4554 0.240963,-2.82834 1.080381,-5.52238 2.425423,-7.9636 1.319365,-2.3958 3.134483,-4.56446 5.380172,-6.39735 4.394596,-3.58283 9.992027,-5.5204 15.848198,-5.52831 5.860122,-0.009 11.453602,1.91388 15.852149,5.48288 2.23977,1.82499 4.05685,3.98378 5.37622,6.37958 1.348988,2.43728 2.184468,5.12143 2.433318,7.95767 0.24689,2.8876 -0.1343,5.74951 -1.11395,8.45145 -1.003348,2.75527 -2.620958,5.33277 -4.831098,7.58636"/><path id="path927" fill="#e66100" fill-opacity="1" fill-rule="nonzero" stroke="none" stroke-width="2.268" d="m 59.001953,24.425781 c -0.379839,1.515555 0.09145,3.11622 1.490235,4.310547 l -0.0078,0.0078 15.413331,13.02888 2.363282,-0.002 -17.776613,-15.026927 0.0078,-0.0078 c -0.785542,-0.670719 -1.27423,-1.470476 -1.490235,-2.310547 z M 20.472656,47.960938 c -0.662699,3.348381 1.953085,6.102384 5.9375,6.115234 l -0.0059,0.01563 23.814202,-0.04713 2.513672,-2.005859 -26.327874,0.05299 0.0059,-0.01563 c -3.151724,-0.01017 -5.442348,-1.737419 -5.9375,-4.115235 z m 60.134766,4.060546 c -6.187624,0.0087 -12.102769,2.13804 -16.746094,6.072266 -2.372792,2.012656 -4.289554,4.392663 -5.683594,7.023438 -1.42117,2.680649 -2.309852,5.638403 -2.564453,8.74414 -0.0809,0.961616 -0.09199,1.92094 -0.05078,2.873047 0.01323,-0.290731 0.02627,-0.58172 0.05078,-0.873047 0.254601,-3.105737 1.143283,-6.063491 2.564453,-8.74414 1.39404,-2.630775 3.310802,-5.010782 5.683594,-7.023438 4.643325,-3.934226 10.55847,-6.06358 16.746094,-6.072266 6.191798,-0.0099 12.100547,2.102445 16.748047,6.021485 2.366538,2.003981 4.287591,4.375084 5.681641,7.005859 1.42534,2.676323 2.30738,5.623869 2.57031,8.738281 0.0238,0.288797 0.0361,0.577017 0.0488,0.865235 0.0418,-0.950394 0.0301,-1.905585 -0.0488,-2.865235 -0.26293,-3.114412 -1.14497,-6.061958 -2.57031,-8.738281 -1.39405,-2.630775 -3.315103,-5.001878 -5.681641,-7.005859 -4.6475,-3.91904 -10.556249,-6.031367 -16.748047,-6.021485 z M 40.255391,78.032013 16.84375,97.943359 C 12.793101,101.34619 7.3418614,101.33971 4.78125,97.923828 4.0970979,97.01479 3.7020671,95.960346 3.5566406,94.845703 c -0.2361802,1.83762 0.1406493,3.637859 1.2246094,5.078125 2.5606114,3.415882 8.011851,3.422362 12.0625,0.01953 L 40.036641,80.21756 c 0.09285,-1.153287 0.21875,-2.185547 0.21875,-2.185547 z m 81.529769,1.796112 c -0.0158,0.59172 -0.0415,1.183867 -0.0859,1.775391 -0.19826,2.654614 -0.68994,5.29543 -1.47461,7.902343 -1.55473,5.155267 -4.18725,9.934001 -7.84766,14.152341 -3.7564,4.32245 -8.38177,7.80946 -13.730466,10.29492 -5.622073,2.60692 -11.712149,3.9502 -18.03125,3.95899 -6.327443,0.0108 -12.419074,-1.30497 -18.039062,-3.89453 -5.348695,-2.46161 -9.979662,-5.93384 -13.740234,-10.25196 -3.666663,-4.205326 -6.300873,-8.973646 -7.853516,-14.128901 -0.663389,-2.187097 -1.107264,-4.867169 -1.214844,-6.566407 -0.03059,0.497642 -0.05203,0.987524 -0.04492,1.40625 h 0.002 c 0.02712,1.607092 0.519054,4.724576 1.257813,7.160157 1.552643,5.155255 4.186853,9.923571 7.853516,14.128901 3.760572,4.31812 8.391539,7.79035 13.740234,10.25196 5.619988,2.58956 11.711619,3.90537 18.039062,3.89453 6.319101,-0.009 12.409177,-1.35207 18.03125,-3.95899 5.348697,-2.48546 9.974067,-5.97247 13.730467,-10.29492 3.66041,-4.21834 6.29293,-8.997074 7.84766,-14.152341 0.78467,-2.606913 1.27635,-5.247729 1.47461,-7.902343 0.0944,-1.257908 0.12039,-2.516723 0.0859,-3.775391 z" transform="matrix(0.94643294,0,0,0.91068228,1.7242992,182.46037)"/></g><path id="rect967" fill="url(#linearGradient978)" fill-opacity="1" stroke="none" stroke-dasharray="none" stroke-dashoffset="0" stroke-linecap="square" stroke-linejoin="miter" stroke-miterlimit="4" stroke-opacity="1" stroke-width="2" marker-end="none" marker-mid="none" marker-start="none" d="m 12,103.69141 v 4 C 12,112.29432 15.70568,116 20.308594,116 H 107.69141 C 112.29432,116 116,112.29432 116,107.69141 v -4 C 116,108.29432 112.29432,112 107.69141,112 H 20.308594 C 15.70568,112 12,108.29432 12,103.69141 Z" opacity="1" paint-order="normal" transform="translate(0,172)" vector-effect="none" style="marker:none"/></g></g></g></svg>