<svg xmlns="http://www.w3.org/2000/svg" xmlns:svg="http://www.w3.org/2000/svg" xmlns:xlink="http://www.w3.org/1999/xlink" id="svg11300" width="128" height="128" display="inline" enable-background="new" version="1.0" viewBox="0 0 128 128"><title id="title4162">Adwaita Icon Template</title><defs id="defs3"><linearGradient id="linearGradient963"><stop id="stop959" offset="0" stop-color="#eef4fc" stop-opacity="1"/><stop id="stop961" offset="1" stop-color="#fff" stop-opacity="1"/></linearGradient><linearGradient id="linearGradient906"><stop id="stop900" offset="0" stop-color="#fdfacf" stop-opacity="1"/><stop id="stop902" offset=".4" stop-color="#f9f06b" stop-opacity="1"/><stop id="stop904" offset="1" stop-color="#f6d32d" stop-opacity="1"/></linearGradient><radialGradient id="radialGradient927" cx="280.994" cy="488.848" r="224" fx="280.994" fy="488.848" gradientTransform="matrix(0.34700543,0,0,0.3422335,-33.50647,42.517937)" gradientUnits="userSpaceOnUse" xlink:href="#linearGradient906"/><linearGradient id="linearGradient965" x1="85" x2="85" y1="107.162" y2="86" gradientTransform="translate(-6,176)" gradientUnits="userSpaceOnUse" xlink:href="#linearGradient963"/></defs><metadata id="metadata4"/><g id="layer1" display="inline" transform="translate(0,-172)"><g id="layer2" display="none"><text id="context" x="7.95" y="148.652" fill="#000" fill-opacity="1" stroke="none" stroke-width=".333" display="inline" enable-background="new" font-family="Cantarell" font-size="6.088" font-stretch="normal" font-style="normal" font-variant="normal" font-weight="normal" text-anchor="start" writing-mode="lr-tb" xml:space="preserve" style="line-height:125%;-inkscape-font-specification:'Cantarell, Normal';text-align:start"><tspan id="tspan2716" x="7.95" y="148.652" stroke-width=".333">apps</tspan></text><text id="text3021" x="7.753" y="157.234" fill="#000" fill-opacity="1" stroke="none" stroke-width=".333" display="inline" enable-background="new" font-family="Cantarell" font-size="6.088" font-stretch="normal" font-style="normal" font-variant="normal" font-weight="bold" text-anchor="start" writing-mode="lr-tb" xml:space="preserve" style="line-height:125%;-inkscape-font-specification:'Cantarell, Bold';text-align:start"><tspan id="tspan3023" x="7.753" y="157.234" stroke-width=".333">org.gnome.Weather</tspan></text><rect id="rect13805" width="128" height="128" x="0" y="172" fill="#f0f0f0" fill-opacity="1" fill-rule="nonzero" stroke="none" stroke-width=".5" display="inline" enable-background="accumulate" overflow="visible" visibility="visible" style="marker:none"/><g id="g1168" transform="matrix(0.25,0,0,0.25,6.9488522e-8,225)"><rect id="rect1110" width="320" height="448" x="96" y="-180" fill="#2864b0" fill-opacity="1" stroke="none" stroke-dasharray="none" stroke-dashoffset="0" stroke-linecap="butt" stroke-linejoin="miter" stroke-miterlimit="4" stroke-opacity="1" stroke-width="1" marker-end="none" marker-mid="none" marker-start="none" opacity=".1" paint-order="normal" rx="32" ry="32" style="marker:none"/><rect stroke-miterlimit="4" style="marker:none" id="rect1110-8" width="416" height="416" x="48" y="-164" fill="#2864b0" fill-opacity="1" stroke="none" stroke-dasharray="none" stroke-dashoffset="0" stroke-linecap="butt" stroke-linejoin="miter" stroke-opacity="1" stroke-width="1" marker-end="none" marker-mid="none" marker-start="none" display="inline" enable-background="new" opacity=".1" paint-order="normal" rx="32" ry="32"/><rect stroke-miterlimit="4" style="marker:none" id="rect1110-8-9" width="448" height="320" x="32" y="-116" fill="#2864b0" fill-opacity="1" stroke="none" stroke-dasharray="none" stroke-dashoffset="0" stroke-linecap="butt" stroke-linejoin="miter" stroke-opacity="1" stroke-width="1" marker-end="none" marker-mid="none" marker-start="none" display="inline" enable-background="new" opacity=".1" paint-order="normal" rx="32" ry="32"/><circle id="path1142" cx="256" cy="44" r="240" fill="#2864b0" fill-opacity="1" stroke="none" stroke-dasharray="none" stroke-dashoffset="0" stroke-linecap="butt" stroke-linejoin="miter" stroke-miterlimit="4" stroke-opacity="1" stroke-width="1" marker-end="none" marker-mid="none" marker-start="none" opacity=".1" paint-order="normal" style="marker:none"/></g></g><g id="layer9" display="inline"><rect id="rect915" width="88" height="88" x="20" y="192" fill="#f5c211" fill-opacity="1" stroke="none" stroke-dasharray="none" stroke-dashoffset="0" stroke-linecap="butt" stroke-linejoin="miter" stroke-miterlimit="4" stroke-opacity="1" stroke-width="8" marker-end="none" marker-mid="none" marker-start="none" display="inline" enable-background="new" opacity="1" paint-order="normal" vector-effect="none" style="marker:none"/><rect stroke-miterlimit="4" style="marker:none" id="rect917" width="87.681" height="87.681" x="77.782" y="-255.973" fill="#f6d32d" fill-opacity="1" stroke="none" stroke-dasharray="none" stroke-dashoffset="0" stroke-linecap="butt" stroke-linejoin="miter" stroke-opacity="1" stroke-width="8" marker-end="none" marker-mid="none" marker-start="none" display="inline" enable-background="new" opacity="1" paint-order="normal" transform="rotate(135.00002)" vector-effect="none"/><ellipse stroke-width=".011" style="marker:none" id="circle921" cx="64" cy="236" fill="url(#radialGradient927)" fill-opacity="1" stroke="none" stroke-dasharray="none" stroke-dashoffset="0" stroke-linecap="butt" stroke-linejoin="miter" stroke-miterlimit="4" stroke-opacity="1" marker-end="none" marker-mid="none" marker-start="none" display="inline" enable-background="new" opacity="1" paint-order="normal" rx="48" ry="48" vector-effect="none"/><path id="path1781-3" fill="#dceafa" fill-opacity="1" stroke="none" stroke-dasharray="none" stroke-dashoffset="1" stroke-linecap="round" stroke-linejoin="round" stroke-miterlimit="4" stroke-opacity="1" stroke-width=".6" d="m 90,244 c -7.812106,0.009 -14.903479,4.56615 -18.158203,11.66797 C 69.72598,254.57717 67.38044,254.00511 65,254 57.109349,254.009 50.575536,260.12876 50.050781,268.00195 50.034111,268.00124 50.01667,268.001 50,268 c -4.099536,0 -7.618346,2.46971 -9.162109,6 H 40 v 4 c 0,5.52285 4.477153,10 10,10 h 56 a 11.999999,11.999999 0 0 0 12,-12 v -4 h -0.70703 a 11.999999,11.999999 0 0 0 -7.32813,-7.3125 c 0.0154,-0.22879 0.0276,-0.45831 0.0352,-0.6875 0,-11.04569 -8.95431,-20 -20,-20 z" display="inline" enable-background="new" opacity="1"/><path id="path1781" fill="url(#linearGradient965)" fill-opacity="1" stroke="none" stroke-dasharray="none" stroke-dashoffset="1" stroke-linecap="round" stroke-linejoin="round" stroke-miterlimit="4" stroke-opacity="1" stroke-width=".6" d="m 90,240 c -7.812106,0.009 -14.903479,4.56615 -18.158203,11.66797 C 69.72598,250.57717 67.38044,250.00511 65,250 57.109349,250.009 50.575536,256.12876 50.050781,264.00195 50.034111,264.00124 50.01667,264.001 50,264 c -5.522847,0 -10,4.47715 -10,10 0,5.52285 4.477153,10 10,10 h 56 a 11.999999,11.999999 0 0 0 12,-12 11.999999,11.999999 0 0 0 -8.03516,-11.3125 c 0.0154,-0.22879 0.0276,-0.45831 0.0352,-0.6875 0,-11.04569 -8.95431,-20 -20,-20 z" display="inline" enable-background="new" opacity="1"/></g></g></svg>