<svg xmlns="http://www.w3.org/2000/svg" xmlns:svg="http://www.w3.org/2000/svg" xmlns:xlink="http://www.w3.org/1999/xlink" id="svg11300" width="128" height="128" display="inline" enable-background="new" version="1.0" viewBox="0 0 128 128"><title id="title922">Chess</title><defs id="defs3"><linearGradient id="linearGradient1466"><stop id="stop1462" offset="0" stop-color="#8c839c" stop-opacity="1"/><stop id="stop1464" offset="1" stop-color="#3d3846" stop-opacity="1"/></linearGradient><linearGradient id="linearGradient1454"><stop id="stop1450" offset="0" stop-color="#fff" stop-opacity="1"/><stop id="stop1452" offset="1" stop-color="#fff" stop-opacity="0"/></linearGradient><linearGradient id="linearGradient1272"><stop id="stop1260" offset="0" stop-color="#3d3846" stop-opacity="1"/><stop id="stop1262" offset=".038" stop-color="#9a9996" stop-opacity="1"/><stop id="stop1264" offset=".077" stop-color="#5e5c64" stop-opacity="1"/><stop id="stop1266" offset=".923" stop-color="#5e5c64" stop-opacity="1"/><stop id="stop1268" offset=".962" stop-color="#c0bfbc" stop-opacity="1"/><stop id="stop1270" offset="1" stop-color="#77767b" stop-opacity="1"/></linearGradient><linearGradient id="linearGradient1258"><stop id="stop1246" offset="0" stop-color="#77767b" stop-opacity="1"/><stop id="stop1248" offset=".038" stop-color="#c0bfbc" stop-opacity="1"/><stop id="stop1250" offset=".077" stop-color="#deddda" stop-opacity="1"/><stop id="stop1252" offset=".923" stop-color="#deddda" stop-opacity="1"/><stop id="stop1254" offset=".962" stop-color="#f6f5f4" stop-opacity="1"/><stop id="stop1256" offset="1" stop-color="#c0bfbc" stop-opacity="1"/></linearGradient><linearGradient id="linearGradient1219" x1="88.596" x2="536.596" y1="-449.394" y2="-449.394" gradientTransform="matrix(0.23214285,0,0,0.32894738,-8.56691,435.82697)" gradientUnits="userSpaceOnUse" xlink:href="#linearGradient1272"/><linearGradient id="linearGradient1243" x1="88.596" x2="536.596" y1="-449.394" y2="-449.394" gradientTransform="matrix(0.23214285,0,0,0.32894738,-8.56691,263.82697)" gradientUnits="userSpaceOnUse" xlink:href="#linearGradient1258"/><linearGradient id="linearGradient1423" x1="88.596" x2="536.596" y1="-449.394" y2="-449.394" gradientTransform="matrix(0.23214285,0,0,0.32894738,-215.04209,435.82697)" gradientUnits="userSpaceOnUse" xlink:href="#linearGradient1272"/><linearGradient id="linearGradient1425" x1="88.596" x2="536.596" y1="-449.394" y2="-449.394" gradientTransform="matrix(0.23214285,0,0,0.32894738,-215.04209,435.82697)" gradientUnits="userSpaceOnUse" xlink:href="#linearGradient1258"/><radialGradient id="radialGradient1456" cx="86" cy="218" r="20" fx="86" fy="218" gradientUnits="userSpaceOnUse" xlink:href="#linearGradient1454"/><radialGradient id="radialGradient1468" cx="30.493" cy="197.655" r="31.25" fx="30.493" fy="197.655" gradientTransform="matrix(1.5091169,0,0,2.1023584,-15.524719,-227.00355)" gradientUnits="userSpaceOnUse" xlink:href="#linearGradient1466"/></defs><metadata id="metadata4"/><g id="layer1" display="inline" transform="translate(0,-172)"><g id="layer2" display="none"><text id="context" x="-.05" y="128.652" fill="#000" fill-opacity="1" stroke="none" stroke-width=".333" display="inline" enable-background="new" font-family="Cantarell" font-size="5.333" font-stretch="normal" font-style="normal" font-variant="normal" font-weight="normal" text-anchor="start" writing-mode="lr-tb" xml:space="preserve" style="line-height:125%;-inkscape-font-specification:'Cantarell, Normal';text-align:start"><tspan id="tspan2716" x="-.05" y="128.652" stroke-width=".333" font-size="5.333">apps</tspan></text><text id="text3021" x="-.247" y="137.234" fill="#000" fill-opacity="1" stroke="none" stroke-width=".333" display="inline" enable-background="new" font-family="Cantarell" font-size="5.333" font-stretch="normal" font-style="normal" font-variant="normal" font-weight="bold" text-anchor="start" writing-mode="lr-tb" xml:space="preserve" style="line-height:125%;-inkscape-font-specification:'Cantarell, Bold';text-align:start"><tspan id="tspan3023" x="-.247" y="137.234" stroke-width=".333" font-size="5.333">org.gnome.Chess</tspan></text><rect id="rect13805" width="128" height="128" x="0" y="172" fill="#f0f0f0" fill-opacity="1" fill-rule="nonzero" stroke="none" stroke-width=".5" display="inline" enable-background="accumulate" overflow="visible" visibility="visible" style="marker:none"/><rect id="rect859" width="16" height="16" x="160" y="172" fill="#f0f0f0" fill-opacity="1" fill-rule="nonzero" stroke="none" stroke-width=".5" display="inline" enable-background="accumulate" overflow="visible" visibility="visible" style="marker:none"/><text id="text863" x="0" y="164" fill="#000" fill-opacity="1" stroke="none" stroke-width=".333" display="inline" enable-background="new" font-family="Cantarell" font-size="4" font-stretch="normal" font-style="normal" font-variant="normal" font-weight="bold" text-anchor="start" writing-mode="lr-tb" xml:space="preserve" style="line-height:125%;-inkscape-font-specification:'Cantarell, Bold';text-align:start"><tspan id="tspan861" x="0" y="164" stroke-width=".333" font-size="4">Hicolor</tspan></text><text id="text867" x="160" y="164" fill="#000" fill-opacity="1" stroke="none" stroke-width=".333" display="inline" enable-background="new" font-family="Cantarell" font-size="4" font-stretch="normal" font-style="normal" font-variant="normal" font-weight="bold" text-anchor="start" writing-mode="lr-tb" xml:space="preserve" style="line-height:125%;-inkscape-font-specification:'Cantarell, Bold';text-align:start"><tspan id="tspan865" x="160" y="164" stroke-width=".333" font-size="4">Symbolic</tspan></text><g id="g14929" display="inline" transform="translate(-137.47289,-112.98824)"><rect id="rect14931" width="16" height="16" x="297.5" y="285.016" fill="#fff" fill-opacity="1" stroke="none" display="inline" opacity="0"/><path id="rect14955" fill="#241f31" fill-opacity="1" fill-rule="nonzero" stroke="none" stroke-dasharray="none" stroke-dashoffset="0" stroke-linecap="butt" stroke-linejoin="miter" stroke-miterlimit="4" stroke-opacity="1" stroke-width="1.002" d="M 63.005859,262.98438 63,277 h 0.0059 v 0.0215 h 13.972657 v -14.0371 z m 1.003907,1.00195 h 6.017578 v 5.98633 h 5.947265 v 6.04492 H 70 V 270 h -5.990234 z" baseline-shift="baseline" clip-rule="nonzero" color="#000" color-interpolation="sRGB" color-interpolation-filters="linearRGB" color-rendering="auto" direction="ltr" display="inline" enable-background="accumulate" font-family="sans-serif" font-size="medium" font-stretch="normal" font-style="normal" font-variant="normal" font-weight="normal" image-rendering="auto" letter-spacing="normal" opacity="1" overflow="visible" paint-order="normal" shape-rendering="auto" text-anchor="start" text-decoration="none" text-rendering="auto" transform="matrix(-1,0,0,1,375.50023,23.01558)" visibility="visible" word-spacing="normal" writing-mode="lr-tb" style="line-height:normal;text-indent:0;text-align:start;text-decoration-line:none;text-decoration-style:solid;text-decoration-color:#000;text-transform:none;white-space:normal;isolation:auto;mix-blend-mode:normal;solid-color:#000;solid-opacity:1;marker:none"/></g></g><g id="layer3" display="none"><circle id="circle2892" cx="64" cy="236" r="59.504" fill="none" fill-opacity="1" stroke="#000" stroke-dasharray=".99 .99" stroke-dashoffset="0" stroke-linecap="butt" stroke-linejoin="miter" stroke-miterlimit="4" stroke-opacity="1" stroke-width=".99" marker-end="none" marker-mid="none" marker-start="none" display="inline" enable-background="new" opacity=".1" paint-order="normal" vector-effect="none" style="marker:none"/><rect id="rect2894" width="87.01" height="111.01" x="20.495" y="180.495" fill="none" fill-opacity="1" stroke="#000" stroke-dasharray=".99 .99" stroke-dashoffset="0" stroke-linecap="butt" stroke-linejoin="miter" stroke-miterlimit="4" stroke-opacity="1" stroke-width=".99" marker-end="none" marker-mid="none" marker-start="none" display="inline" enable-background="new" opacity=".1" paint-order="normal" rx="8.701" ry="7.929" vector-effect="none" style="marker:none"/><rect id="rect2896" width="103.01" height="103.01" x="12.495" y="184.495" fill="none" fill-opacity="1" stroke="#000" stroke-dasharray=".99 .99" stroke-dashoffset="0" stroke-linecap="butt" stroke-linejoin="miter" stroke-miterlimit="4" stroke-opacity="1" stroke-width=".99" marker-end="none" marker-mid="none" marker-start="none" display="inline" enable-background="new" opacity=".1" paint-order="normal" rx="7.924" ry="7.924" vector-effect="none" style="marker:none"/><rect id="rect2898" width="111.01" height="87.01" x="8.495" y="200.495" fill="none" fill-opacity="1" stroke="#000" stroke-dasharray=".99 .99" stroke-dashoffset="0" stroke-linecap="butt" stroke-linejoin="miter" stroke-miterlimit="4" stroke-opacity="1" stroke-width=".99" marker-end="none" marker-mid="none" marker-start="none" display="inline" enable-background="new" opacity=".1" paint-order="normal" rx="7.929" ry="8.701" vector-effect="none" style="marker:none"/><path id="path2900" fill="none" stroke="#62a0ea" stroke-dasharray="none" stroke-linecap="butt" stroke-linejoin="miter" stroke-miterlimit="4" stroke-opacity="1" stroke-width="2" d="M 2.6203015e-5,288.99999 H 128.00003" display="inline" enable-background="new"/></g><g id="layer9" display="inline"><path id="circle1055" fill="#77767b" fill-opacity="1" stroke="none" stroke-dasharray="none" stroke-dashoffset="0" stroke-linecap="butt" stroke-linejoin="round" stroke-miterlimit="4" stroke-opacity="1" stroke-width="1" marker-end="none" marker-mid="none" marker-start="none" d="m 234.67112,187.32349 -18.6654,0.2937 h -19.37001 c 6.06663,0.002 10.97995,4.89432 11.02661,10.95031 l -1.84951,0.006 -0.10581,43.25517 c 0.13107,0.009 2.92199,0.015 3.05318,0.0181 5.45673,7.7e-4 10.15929,-3.01817 12.67653,-7.44503 0.058,0.0995 0.11153,0.25763 0.17015,0.34054 l -0.0646,-0.0181 c 0,7.17299 -1.32348,12.88281 -7.721,16.92747 -7.09116,4.71197 -10.89736,12.4531 -10.90332,20.96704 h 25.44111 25.44697 11.15581 v -55.93756 h -0.15272 c -0.36197,-16.38755 -13.74673,-29.35045 -30.13828,-29.35739 z" opacity="1" paint-order="normal" vector-effect="none" style="marker:none"/><rect id="rect1077" width="0" height="0" x="0" y="0" fill="#77767b" fill-opacity="1" stroke="none" stroke-dasharray="none" stroke-dashoffset="0" stroke-linecap="butt" stroke-linejoin="round" stroke-miterlimit="4" stroke-opacity="1" stroke-width="1" marker-end="none" marker-mid="none" marker-start="none" opacity="1" paint-order="normal" transform="translate(0,172)" vector-effect="none" style="marker:none"/><path id="path1437" fill="#000" fill-opacity="1" stroke="none" stroke-dasharray="none" stroke-dashoffset="0" stroke-linecap="butt" stroke-linejoin="round" stroke-miterlimit="4" stroke-opacity="1" stroke-width="1" marker-end="none" marker-mid="none" marker-start="none" d="m 32.236287,180.93093 -0.0176,9.25 -7.19336,5.81055 -0.002,0.002 c -1.2403,0.89897 -2.40678,1.89564 -3.48828,2.98047 l -13.081931,7.33769 -0.234409,3.61929 4.75,9.5 11.61328,-3.93945 c 1.84934,2.33055 4.66157,3.6892 7.63672,3.68945 5.11239,-0.006 9.3523,-3.95906 9.71484,-9.05859 l 0.0117,-0.004 0.27344,9.3125 c -0.007,4.63399 -3.15231,8.21425 -7.66284,9.27681 -4.02441,0.94804 -5.302939,-0.28717 -10.13794,1.68413 -6.647379,2.71023 -11.466338,6.67798 -11.914031,13.5904 L 12.468707,248 l 9.99607,10 C 17.877642,258 12,264 12,264 v 4 h 58 v -4 c 0,0 1,-6 -9.739142,-6 l 10.457849,-10.19407 v -28.625 c 0,-15.87819 -12.87181,-28.75 -28.75,-28.75 -0.17,0.007 -0.33993,0.0154 -0.50977,0.0254 0.0251,-0.78698 -0.0504,-1.57394 -0.22461,-2.3418 -0.96186,-4.1969 -4.69233,-7.17512 -8.99804,-7.18359 z" opacity="1" paint-order="normal" vector-effect="none" style="marker:none"/><path id="path1381" fill="url(#radialGradient1468)" fill-opacity="1" stroke="none" stroke-dasharray="none" stroke-dashoffset="0" stroke-linecap="butt" stroke-linejoin="round" stroke-miterlimit="4" stroke-opacity="1" stroke-width="1" marker-end="none" marker-mid="none" marker-start="none" d="m 32.033196,178.06164 -0.0176,9.25 -23.56248,19 4.75,9.5 11.61328,-3.93945 c 1.84934,2.33055 4.66157,3.6892 7.63672,3.68945 5.11239,-0.006 9.184344,-3.95906 9.546884,-9.05859 v -0.004 9.3125 c -0.007,4.63399 -2.699214,8.21425 -7.209744,9.27681 -4.02441,0.94804 -5.30294,-0.28717 -10.13794,1.68413 -7.34814,2.99594 -12.14768,9.27428 -12.14844,17.20969 l 10.19531,10.39853 C 17.052006,254.38071 12,258.625 12,264 h 58 c 0,-6.00521 -4.498484,-9.61929 -9.504734,-9.61929 l 10.45785,-10.19407 v -28.625 c 0,-15.87819 -12.87181,-28 -28.75,-28 -0.17,0.007 -0.33993,0.0154 -0.50977,0.0254 0.0251,-0.78698 -0.0504,-1.57394 -0.22461,-2.3418 -0.96186,-4.1969 -5.12983,-7.17512 -9.43554,-7.18359 z" opacity="1" paint-order="normal" vector-effect="none" style="marker:none"/><path id="path1470" fill="#fff" fill-opacity=".071" stroke="none" stroke-dasharray="none" stroke-dashoffset="0" stroke-linecap="butt" stroke-linejoin="round" stroke-miterlimit="4" stroke-opacity="1" stroke-width="1" marker-end="none" marker-mid="none" marker-start="none" d="m 32.470703,5.3125 -0.0059,2.921875 c 2.469694,1.1913258 4.359588,3.450357 5.003906,6.261719 0.17421,0.76786 0.249709,1.554817 0.224609,2.341797 0.16984,-0.01 0.339766,-0.01839 0.509766,-0.02539 15.87819,0 28.75,12.87181 28.75,28.75 v 28.625 L 60.496094,82.380859 70.953125,72.1875 v -28.625 c 0,-15.87819 -12.87181,-28.75 -28.75,-28.75 -0.17,0.007 -0.339926,0.01539 -0.509766,0.02539 0.0251,-0.78698 -0.0504,-1.573937 -0.224609,-2.341797 C 40.50689,8.2991938 36.776413,5.32097 32.470703,5.3125 Z M 17.912109,83.578125 c -0.600277,0.319102 -1.166394,0.693931 -1.6875,1.119141 0.793186,-0.198699 1.619362,-0.316407 2.47461,-0.316407 z" opacity="1" paint-order="normal" transform="translate(0,172)" vector-effect="none" style="marker:none"/><path id="path1446" fill="#9a9996" fill-opacity="1" stroke="none" stroke-dasharray="none" stroke-dashoffset="0" stroke-linecap="butt" stroke-linejoin="round" stroke-miterlimit="4" stroke-opacity="1" stroke-width="1" marker-end="none" marker-mid="none" marker-start="none" d="m 85.821036,206.37149 c -12.312877,0 -22.029252,9.98154 -22.029252,22.29442 0.0096,9.57158 6.126283,18.06945 15.200408,21.11509 l -5.999832,27.59537 -16.897213,6.36984 v 4.37147 L 116,288.24292 V 284 l -17.528306,-6.62363 -5.560269,-27.60261 c 9.073015,-3.04355 15.191555,-11.53798 15.204015,-21.10785 0,-12.31288 -9.981537,-22.29442 -22.294404,-22.29442 z" opacity="1" paint-order="normal" vector-effect="none" style="marker:none"/><path id="path1439" fill="#deddda" fill-opacity="1" stroke="none" stroke-dasharray="none" stroke-dashoffset="0" stroke-linecap="butt" stroke-linejoin="round" stroke-miterlimit="4" stroke-opacity="1" stroke-width="1" marker-end="none" marker-mid="none" marker-start="none" d="m 85.997813,202.08373 c -12.215246,0 -22.117641,9.9024 -22.117641,22.11764 0.0095,9.4957 6.077707,17.92617 15.079881,20.94767 L 64,276 c -3.715736,0 -7.904853,4.20725 -7.904853,7.92299 L 116,284 c 0,-3.71574 -4.28426,-8 -8,-8 L 93.031981,245.14184 c 9.001069,-3.01941 15.071099,-11.44646 15.083459,-20.94047 0,-12.21524 -9.902391,-22.11764 -22.117627,-22.11764 z" opacity="1" paint-order="normal" vector-effect="none" style="marker:none"/><g id="g1435" transform="translate(-351.07852)"><rect id="rect1213" width="104" height="100" x="12" y="188" fill="url(#linearGradient1219)" fill-opacity="1" stroke="none" stroke-dasharray="none" stroke-dashoffset="0" stroke-linecap="butt" stroke-linejoin="miter" stroke-miterlimit="4" stroke-opacity="1" stroke-width=".25" marker-end="none" marker-mid="none" marker-start="none" display="inline" enable-background="new" opacity="1" paint-order="normal" rx="8" ry="8" vector-effect="none" style="marker:none"/><rect id="rect1215" width="104" height="100" x="12" y="184" fill="#deddda" fill-opacity="1" stroke="none" stroke-dasharray="none" stroke-dashoffset="0" stroke-linecap="butt" stroke-linejoin="miter" stroke-miterlimit="4" stroke-opacity="1" stroke-width=".25" marker-end="none" marker-mid="none" marker-start="none" display="inline" enable-background="new" opacity="1" paint-order="normal" rx="8" ry="8" vector-effect="none" style="marker:none"/><path id="rect1240" fill="url(#linearGradient1243)" fill-opacity="1" stroke="none" stroke-dasharray="none" stroke-dashoffset="0" stroke-linecap="butt" stroke-linejoin="miter" stroke-miterlimit="4" stroke-opacity="1" stroke-width=".25" marker-end="none" marker-mid="none" marker-start="none" d="m 64,82 v 34 h 44 c 4.432,0 8,-3.568 8,-8 V 82 Z" display="inline" enable-background="new" opacity="1" paint-order="normal" transform="translate(0,172)" vector-effect="none" style="marker:none"/><path id="rect1221" fill="#f6f5f4" fill-opacity="1" stroke="none" stroke-dasharray="none" stroke-dashoffset="0" stroke-linecap="butt" stroke-linejoin="miter" stroke-miterlimit="4" stroke-opacity="1" stroke-width=".25" marker-end="none" marker-mid="none" marker-start="none" d="m 64,234 v 50 h 44 c 4.432,0 8,-3.568 8,-8 v -42 z" display="inline" enable-background="new" opacity="1" paint-order="normal" vector-effect="none" style="marker:none"/><path id="path1228" fill="#77767b" fill-opacity="1" stroke="none" stroke-dasharray="none" stroke-dashoffset="0" stroke-linecap="butt" stroke-linejoin="miter" stroke-miterlimit="4" stroke-opacity="1" stroke-width=".25" marker-end="none" marker-mid="none" marker-start="none" d="m 64,234 v -50 h 44 c 4.432,0 8,3.568 8,8 v 42 z" display="inline" enable-background="new" opacity="1" paint-order="normal" vector-effect="none" style="marker:none"/><path id="path1234" fill="#f6f5f4" fill-opacity="1" stroke="none" stroke-dasharray="none" stroke-dashoffset="0" stroke-linecap="butt" stroke-linejoin="miter" stroke-miterlimit="4" stroke-opacity="1" stroke-width=".25" marker-end="none" marker-mid="none" marker-start="none" d="M 64,234 V 184 H 20 c -4.432,0 -8,3.568 -8,8 v 42 z" display="inline" enable-background="new" opacity="1" paint-order="normal" vector-effect="none" style="marker:none"/><path id="path1236" fill="#77767b" fill-opacity="1" stroke="none" stroke-dasharray="none" stroke-dashoffset="0" stroke-linecap="butt" stroke-linejoin="miter" stroke-miterlimit="4" stroke-opacity="1" stroke-width=".25" marker-end="none" marker-mid="none" marker-start="none" d="m 64,234 v 50 H 20 c -4.432,0 -8,-3.568 -8,-8 v -42 z" display="inline" enable-background="new" opacity="1" paint-order="normal" vector-effect="none" style="marker:none"/><path id="path1407" fill="#241f31" fill-opacity="1" stroke="none" stroke-dasharray="none" stroke-dashoffset="0" stroke-linecap="butt" stroke-linejoin="round" stroke-miterlimit="4" stroke-opacity="1" stroke-width="1" marker-end="none" marker-mid="none" marker-start="none" d="m 84.13784,239.93636 -0.008,4.28172 -3.32973,2.68966 -0.001,8.5e-4 c -0.57412,0.41613 -1.11407,0.87749 -1.61468,1.37965 l -6.16399,5.07186 2.19872,4.39745 5.37566,-1.82355 c 0.85604,1.0788 2.15779,1.7077 3.53495,1.7078 2.36647,-0.003 4.32908,-1.8326 4.49689,-4.1931 l 0.005,-8.7e-4 0.12658,4.31065 c -0.003,2.14503 -1.45917,3.80229 -3.54705,4.29413 -1.86285,0.43885 -2.45467,-0.13292 -4.69274,0.77957 -3.40137,1.38679 -5.62302,4.69677 -5.62338,8.36998 l 4.71936,4.81302 -4.04847,4.04846 h 26.4136 l -4.59995,-4.59994 v 0 l 4.57102,-4.57105 v -13.2502 c 0,-7.34982 -5.95821,-13.30805 -13.30805,-13.30805 -0.0787,0.004 -0.15735,0.009 -0.23597,0.0112 0.0117,-0.36428 -0.0233,-0.72855 -0.10396,-1.08398 -0.44523,-1.9427 -2.17203,-3.32128 -4.16509,-3.32522 z" opacity="1" paint-order="normal" vector-effect="none" style="marker:none"/></g><rect id="rect1409" width="104" height="100" x="-194.475" y="188" fill="url(#linearGradient1423)" fill-opacity="1" stroke="none" stroke-dasharray="none" stroke-dashoffset="0" stroke-linecap="butt" stroke-linejoin="miter" stroke-miterlimit="4" stroke-opacity="1" stroke-width=".25" marker-end="none" marker-mid="none" marker-start="none" display="inline" enable-background="new" opacity="1" paint-order="normal" rx="8" ry="8" vector-effect="none" style="marker:none"/><rect id="rect1411" width="104" height="100" x="-194.475" y="184" fill="#deddda" fill-opacity="1" stroke="none" stroke-dasharray="none" stroke-dashoffset="0" stroke-linecap="butt" stroke-linejoin="miter" stroke-miterlimit="4" stroke-opacity="1" stroke-width=".25" marker-end="none" marker-mid="none" marker-start="none" display="inline" enable-background="new" opacity="1" paint-order="normal" rx="8" ry="8" vector-effect="none" style="marker:none"/><path id="path1413" fill="url(#linearGradient1425)" fill-opacity="1" stroke="none" stroke-dasharray="none" stroke-dashoffset="0" stroke-linecap="butt" stroke-linejoin="miter" stroke-miterlimit="4" stroke-opacity="1" stroke-width=".25" marker-end="none" marker-mid="none" marker-start="none" d="m -142.47518,254 v 34 h 44 c 4.432,0 8,-3.568 8,-8 v -26 z" display="inline" enable-background="new" opacity="1" paint-order="normal" vector-effect="none" style="marker:none"/><path id="path1415" fill="#f6f5f4" fill-opacity="1" stroke="none" stroke-dasharray="none" stroke-dashoffset="0" stroke-linecap="butt" stroke-linejoin="miter" stroke-miterlimit="4" stroke-opacity="1" stroke-width=".25" marker-end="none" marker-mid="none" marker-start="none" d="m -142.47518,234 v 50 h 44 c 4.432,0 8,-3.568 8,-8 v -42 z" display="inline" enable-background="new" opacity="1" paint-order="normal" vector-effect="none" style="marker:none"/><path id="path1417" fill="#77767b" fill-opacity="1" stroke="none" stroke-dasharray="none" stroke-dashoffset="0" stroke-linecap="butt" stroke-linejoin="miter" stroke-miterlimit="4" stroke-opacity="1" stroke-width=".25" marker-end="none" marker-mid="none" marker-start="none" d="m -142.47518,234 v -50 h 44 c 4.432,0 8,3.568 8,8 v 42 z" display="inline" enable-background="new" opacity="1" paint-order="normal" vector-effect="none" style="marker:none"/><path id="path1419" fill="#f6f5f4" fill-opacity="1" stroke="none" stroke-dasharray="none" stroke-dashoffset="0" stroke-linecap="butt" stroke-linejoin="miter" stroke-miterlimit="4" stroke-opacity="1" stroke-width=".25" marker-end="none" marker-mid="none" marker-start="none" d="m -142.47518,234 v -50 h -44 c -4.432,0 -8,3.568 -8,8 v 42 z" display="inline" enable-background="new" opacity="1" paint-order="normal" vector-effect="none" style="marker:none"/><path id="path1421" fill="#77767b" fill-opacity="1" stroke="none" stroke-dasharray="none" stroke-dashoffset="0" stroke-linecap="butt" stroke-linejoin="miter" stroke-miterlimit="4" stroke-opacity="1" stroke-width=".25" marker-end="none" marker-mid="none" marker-start="none" d="m -142.47518,234 v 50 h -44 c -4.432,0 -8,-3.568 -8,-8 v -42 z" display="inline" enable-background="new" opacity="1" paint-order="normal" vector-effect="none" style="marker:none"/><circle id="path1448" cx="86" cy="224" r="20" fill="url(#radialGradient1456)" fill-opacity="1" stroke="none" stroke-dasharray="none" stroke-dashoffset="0" stroke-linecap="butt" stroke-linejoin="round" stroke-miterlimit="4" stroke-opacity="1" stroke-width="1" marker-end="none" marker-mid="none" marker-start="none" opacity="1" paint-order="normal" vector-effect="none" style="marker:none"/><path id="path1479" fill="#f6f5f4" fill-opacity="1" stroke="none" stroke-dasharray="none" stroke-dashoffset="0" stroke-linecap="butt" stroke-linejoin="round" stroke-miterlimit="4" stroke-opacity="1" stroke-width="1" marker-end="none" marker-mid="none" marker-start="none" d="m 116,284 c 0,-3.46523 -4.19827,-6 -8,-6 H 64 c -4.339139,0 -7.904853,2.12229 -7.904853,5.92299 C 56.095147,280.11818 59.930295,276 64,276 h 44 c 4.24356,0 8,4.00684 8,8 z" opacity="1" paint-order="normal" vector-effect="none" style="marker:none"/><path id="path1481" fill="#c0bfbc" fill-opacity="1" stroke="none" stroke-dasharray="none" stroke-dashoffset="0" stroke-linecap="butt" stroke-linejoin="round" stroke-miterlimit="4" stroke-opacity="1" stroke-width="1" marker-end="none" marker-mid="none" marker-start="none" d="M 64.097146,224.07762 A 22,21.999998 0 0 0 64,226 22,21.999998 0 0 0 86,248 22,21.999998 0 0 0 108,226 22,21.999998 0 0 0 107.9029,224.0963 22,21.999998 0 0 1 86,244.17392 22,21.999998 0 0 1 64.097146,224.07762 Z" opacity="1" paint-order="normal" vector-effect="none" style="marker:none"/></g></g></svg>