<svg xmlns="http://www.w3.org/2000/svg" xmlns:svg="http://www.w3.org/2000/svg" xmlns:xlink="http://www.w3.org/1999/xlink" id="svg11300" width="128" height="128" display="inline" enable-background="new" version="1.0" viewBox="0 0 128 128"><title id="title4162">Adwaita Icon Template</title><defs id="defs3"><linearGradient id="linearGradient1948"><stop id="stop1944" offset="0" stop-color="#2d2839" stop-opacity="1"/><stop id="stop1946" offset="1" stop-color="#282433" stop-opacity="1"/></linearGradient><linearGradient id="linearGradient1020"><stop id="stop1016" offset="0" stop-color="#fff" stop-opacity="1"/><stop id="stop1018" offset="1" stop-color="#fff" stop-opacity=".094"/></linearGradient><linearGradient id="linearGradient1001"><stop id="stop989" offset="0" stop-color="#77767b" stop-opacity="1"/><stop id="stop991" offset=".05" stop-color="#c0bfbc" stop-opacity="1"/><stop id="stop993" offset=".1" stop-color="#9a9996" stop-opacity="1"/><stop id="stop995" offset=".9" stop-color="#9a9996" stop-opacity="1"/><stop id="stop997" offset=".95" stop-color="#c0bfbc" stop-opacity="1"/><stop id="stop999" offset="1" stop-color="#77767b" stop-opacity="1"/></linearGradient><linearGradient id="linearGradient965" x1="48" x2="464" y1="44" y2="44" gradientUnits="userSpaceOnUse" xlink:href="#linearGradient1001"/><radialGradient id="radialGradient1030" cx="64" cy="194.19" r="44" fx="64" fy="194.19" gradientTransform="matrix(-4.7272726,7.935912e-7,-3.0301491e-7,-1.6363636,238.54547,49.766183)" gradientUnits="userSpaceOnUse" xlink:href="#linearGradient1020"/><linearGradient id="linearGradient870" x1="48" x2="464" y1="44" y2="44" gradientTransform="matrix(0.25,0,0,0.25,-160,225)" gradientUnits="userSpaceOnUse" xlink:href="#linearGradient1001"/><radialGradient id="radialGradient872" cx="64" cy="194.19" r="44" fx="64" fy="194.19" gradientTransform="matrix(-4.7272726,7.935912e-7,-3.0301491e-7,-1.6363636,398.54547,49.766183)" gradientUnits="userSpaceOnUse" xlink:href="#linearGradient1020"/><linearGradient id="linearGradient874" x1="70.347" x2="70.347" y1="245.395" y2="269.137" gradientTransform="translate(-160)" gradientUnits="userSpaceOnUse" xlink:href="#linearGradient1948"/></defs><metadata id="metadata4"/><g id="layer1" display="inline" transform="translate(0,-172)"><g id="layer2" display="none"><g id="g865" display="inline"><rect id="rect13805" width="128" height="128" x="0" y="172" fill="#f0f0f0" fill-opacity="1" fill-rule="nonzero" stroke="none" stroke-width=".5" display="inline" enable-background="accumulate" overflow="visible" visibility="visible" style="marker:none"/><circle id="circle2892" cx="64" cy="236" r="59.504" fill="none" fill-opacity="1" stroke="#000" stroke-dasharray=".99 .99" stroke-dashoffset="0" stroke-linecap="butt" stroke-linejoin="miter" stroke-miterlimit="4" stroke-opacity="1" stroke-width=".99" marker-end="none" marker-mid="none" marker-start="none" display="inline" enable-background="new" opacity=".1" paint-order="normal" vector-effect="none" style="marker:none"/><rect id="rect2894" width="87.01" height="111.01" x="20.495" y="180.495" fill="none" fill-opacity="1" stroke="#000" stroke-dasharray=".99 .99" stroke-dashoffset="0" stroke-linecap="butt" stroke-linejoin="miter" stroke-miterlimit="4" stroke-opacity="1" stroke-width=".99" marker-end="none" marker-mid="none" marker-start="none" display="inline" enable-background="new" opacity=".1" paint-order="normal" rx="8.701" ry="7.929" vector-effect="none" style="marker:none"/><rect id="rect2896" width="103.01" height="103.01" x="12.495" y="184.495" fill="none" fill-opacity="1" stroke="#000" stroke-dasharray=".99 .99" stroke-dashoffset="0" stroke-linecap="butt" stroke-linejoin="miter" stroke-miterlimit="4" stroke-opacity="1" stroke-width=".99" marker-end="none" marker-mid="none" marker-start="none" display="inline" enable-background="new" opacity=".1" paint-order="normal" rx="7.924" ry="7.924" vector-effect="none" style="marker:none"/><rect id="rect2898" width="111.01" height="87.01" x="8.495" y="200.495" fill="none" fill-opacity="1" stroke="#000" stroke-dasharray=".99 .99" stroke-dashoffset="0" stroke-linecap="butt" stroke-linejoin="miter" stroke-miterlimit="4" stroke-opacity="1" stroke-width=".99" marker-end="none" marker-mid="none" marker-start="none" display="inline" enable-background="new" opacity=".1" paint-order="normal" rx="7.929" ry="8.701" vector-effect="none" style="marker:none"/><path id="path2900" fill="none" stroke="#62a0ea" stroke-dasharray="none" stroke-linecap="butt" stroke-linejoin="miter" stroke-miterlimit="4" stroke-opacity="1" stroke-width="2" d="M 2.6203015e-5,288.99999 H 128.00003" display="inline" enable-background="new"/></g></g><g id="layer9" display="inline"><rect id="rect953" width="416" height="376" x="48" y="-124" fill="url(#linearGradient965)" fill-opacity="1" stroke="none" stroke-dasharray="none" stroke-dashoffset="0" stroke-linecap="butt" stroke-linejoin="miter" stroke-miterlimit="4" stroke-opacity="1" stroke-width="1" marker-end="none" marker-mid="none" marker-start="none" display="inline" enable-background="new" opacity="1" paint-order="normal" rx="32" ry="32" transform="matrix(0.25,0,0,0.25,0,225)" style="marker:none"/><rect id="rect950" width="416" height="384" x="48" y="-164" fill="#deddda" fill-opacity="1" stroke="none" stroke-dasharray="none" stroke-dashoffset="0" stroke-linecap="butt" stroke-linejoin="miter" stroke-miterlimit="4" stroke-opacity="1" stroke-width="1" marker-end="none" marker-mid="none" marker-start="none" display="inline" enable-background="new" opacity="1" paint-order="normal" rx="32" ry="32" transform="matrix(0.25,0,0,0.25,0,225)" style="marker:none"/><rect id="rect1004" width="96" height="88" x="16" y="-276" fill="#241f31" fill-opacity="1" stroke="none" stroke-dasharray="none" stroke-dashoffset="0" stroke-linecap="butt" stroke-linejoin="miter" stroke-miterlimit="4" stroke-opacity="1" stroke-width=".011" marker-end="none" marker-mid="none" marker-start="none" display="inline" enable-background="new" opacity="1" paint-order="normal" rx="4" ry="4" transform="scale(1,-1)" vector-effect="none" style="marker:none"/><rect id="rect968" width="88" height="78" x="-108" y="-272" fill="url(#radialGradient1030)" fill-opacity="1" stroke="none" stroke-dasharray="none" stroke-dashoffset="0" stroke-linecap="butt" stroke-linejoin="miter" stroke-miterlimit="4" stroke-opacity="1" stroke-width=".011" marker-end="none" marker-mid="none" marker-start="none" display="inline" enable-background="new" opacity=".05" paint-order="normal" transform="scale(-1)" vector-effect="none" style="marker:none"/><g id="g976" fill="#fff" transform="translate(-2,-2)"><path id="path972" fill="#fff" fill-opacity="1" stroke="none" stroke-width=".25" d="M 44.012301,210.88755 30,203.27182 V 208 l 9.710724,4.62951 v 0.1422 L 30,218 v 4.72818 l 14.012301,-8.21451 z" font-family="Source Code Pro" font-size="medium" font-stretch="normal" font-style="normal" font-variant="normal" font-weight="bold" letter-spacing="0" text-anchor="start" word-spacing="0" writing-mode="lr-tb" style="line-height:1.25;-inkscape-font-specification:'Source Code Pro, Bold';font-variant-ligatures:normal;font-variant-caps:normal;font-variant-numeric:normal;font-feature-settings:normal;text-align:start"/><path id="path974" fill="#fff" fill-opacity="1" stroke="none" stroke-width=".25" d="m 47.999998,226 2e-6,4 h 16.00001 l -2e-6,-4 z" font-family="Source Code Pro" font-size="medium" font-stretch="normal" font-style="normal" font-variant="normal" font-weight="bold" letter-spacing="0" text-anchor="start" word-spacing="0" writing-mode="lr-tb" style="line-height:1.25;-inkscape-font-specification:'Source Code Pro, Bold';font-variant-ligatures:normal;font-variant-caps:normal;font-variant-numeric:normal;font-feature-settings:normal;text-align:start"/></g><rect stroke-miterlimit="4" style="marker:none" id="rect854" width="104" height="94" x="-148" y="194" fill="url(#linearGradient870)" fill-opacity="1" stroke="none" stroke-dasharray="none" stroke-dashoffset="0" stroke-linecap="butt" stroke-linejoin="miter" stroke-opacity="1" stroke-width=".25" marker-end="none" marker-mid="none" marker-start="none" display="inline" enable-background="new" opacity="1" paint-order="normal" rx="8" ry="8"/><rect stroke-miterlimit="4" style="marker:none" id="rect856" width="104" height="96" x="-148" y="184" fill="#deddda" fill-opacity="1" stroke="none" stroke-dasharray="none" stroke-dashoffset="0" stroke-linecap="butt" stroke-linejoin="miter" stroke-opacity="1" stroke-width=".25" marker-end="none" marker-mid="none" marker-start="none" display="inline" enable-background="new" opacity="1" paint-order="normal" rx="8" ry="8"/><rect id="rect858" width="96" height="88" x="-144" y="-276" fill="#241f31" fill-opacity="1" stroke="none" stroke-dasharray="none" stroke-dashoffset="0" stroke-linecap="butt" stroke-linejoin="miter" stroke-miterlimit="4" stroke-opacity="1" stroke-width=".011" marker-end="none" marker-mid="none" marker-start="none" display="inline" enable-background="new" opacity="1" paint-order="normal" rx="4" ry="4" transform="scale(1,-1)" vector-effect="none" style="marker:none"/><rect id="rect860" width="88" height="78" x="52" y="-272" fill="url(#radialGradient872)" fill-opacity="1" stroke="none" stroke-dasharray="none" stroke-dashoffset="0" stroke-linecap="butt" stroke-linejoin="miter" stroke-miterlimit="4" stroke-opacity="1" stroke-width=".011" marker-end="none" marker-mid="none" marker-start="none" display="inline" enable-background="new" opacity=".05" paint-order="normal" transform="scale(-1)" vector-effect="none" style="marker:none"/><g id="g866" fill="#fff" transform="translate(-162,-2)"><path id="path862" fill="#fff" fill-opacity="1" stroke="none" stroke-width=".25" d="M 44.012301,210.88755 30,203.27182 V 208 l 9.710724,4.62951 v 0.1422 L 30,218 v 4.72818 l 14.012301,-8.21451 z" font-family="Source Code Pro" font-size="medium" font-stretch="normal" font-style="normal" font-variant="normal" font-weight="bold" letter-spacing="0" text-anchor="start" word-spacing="0" writing-mode="lr-tb" style="line-height:1.25;-inkscape-font-specification:'Source Code Pro, Bold';font-variant-ligatures:normal;font-variant-caps:normal;font-variant-numeric:normal;font-feature-settings:normal;text-align:start"/><path id="path864" fill="#fff" fill-opacity="1" stroke="none" stroke-width=".25" d="m 47.999998,226 2e-6,4 h 16.00001 l -2e-6,-4 z" font-family="Source Code Pro" font-size="medium" font-stretch="normal" font-style="normal" font-variant="normal" font-weight="bold" letter-spacing="0" text-anchor="start" word-spacing="0" writing-mode="lr-tb" style="line-height:1.25;-inkscape-font-specification:'Source Code Pro, Bold';font-variant-ligatures:normal;font-variant-caps:normal;font-variant-numeric:normal;font-feature-settings:normal;text-align:start"/></g><path id="path868" fill="url(#linearGradient874)" fill-opacity="1" stroke="none" stroke-dasharray="none" stroke-dashoffset="0" stroke-linecap="round" stroke-linejoin="round" stroke-miterlimit="4" stroke-opacity="1" stroke-width="8" marker-end="none" marker-mid="none" marker-start="none" d="m -60,244 h 4 v 4 h -4 z m -8,0 h 4 v 4 h -4 z m -8,0 h 4 v 4 h -4 z m -8,0 h 4 v 4 h -4 z m -8,0 h 4 v 4 h -4 z m -8,0 h 4 v 4 h -4 z m -8,0 h 4 v 4 h -4 z m -8,0 h 4 v 4 h -4 z m -8,0 h 4 v 4 h -4 z m -8,0 h 4 v 4 h -4 z m -8,0 h 4 v 4 h -4 z m 84,4 h 4 v 4 h -4 z m -8,0 h 4 v 4 h -4 z m -8,0 h 4 v 4 h -4 z m -8,0 h 4 v 4 h -4 z m -8,0 h 4 v 4 h -4 z m -8,0 h 4 v 4 h -4 z m -8,0 h 4 v 4 h -4 z m -8,0 h 4 v 4 h -4 z m -8,0 h 4 v 4 h -4 z m -8,0 h 4 v 4 h -4 z m -8,0 h 4 v 4 h -4 z m 76,4 h 4 v 4 h -4 z m -8,0 h 4 v 4 h -4 z m -8,0 h 4 v 4 h -4 z m -8,0 h 4 v 4 h -4 z m -8,0 h 4 v 4 h -4 z m -8,0 h 4 v 4 h -4 z m -8,0 h 4 v 4 h -4 z m -8,0 h 4 v 4 h -4 z m -8,0 h 4 v 4 h -4 z m -8,0 h 4 v 4 h -4 z m -8,0 h 4 v 4 h -4 z m 84,4 h 4 v 4 h -4 z m -8,0 h 4 v 4 h -4 z m -8,0 h 4 v 4 h -4 z m -8,0 h 4 v 4 h -4 z m -8,0 h 4 v 4 h -4 z m -8,0 h 4 v 4 h -4 z m -8,0 h 4 v 4 h -4 z m -8,0 h 4 v 4 h -4 z m -8,0 h 4 v 4 h -4 z m -8,0 h 4 v 4 h -4 z m -8,0 h 4 v 4 h -4 z m 76,4 h 4 v 4 h -4 z m -8,0 h 4 v 4 h -4 z m -8,0 h 4 v 4 h -4 z m -8,0 h 4 v 4 h -4 z m -8,0 h 4 v 4 h -4 z m -8,0 h 4 v 4 h -4 z m -8,0 h 4 v 4 h -4 z m -8,0 h 4 v 4 h -4 z m -8,0 h 4 v 4 h -4 z m -8,0 h 4 v 4 h -4 z m -8,0 h 4 v 4 h -4 z m 84,4 h 4 v 4 h -4 z m -8,0 h 4 v 4 h -4 z m -8,0 h 4 v 4 h -4 z m -8,0 h 4 v 4 h -4 z m -8,0 h 4 v 4 h -4 z m -8,0 h 4 v 4 h -4 z m -8,0 h 4 v 4 h -4 z m -8,0 h 4 v 4 h -4 z m -8,0 h 4 v 4 h -4 z m -8,0 h 4 v 4 h -4 z m -8,0 h 4 v 4 h -4 z m 76,4 h 4 v 4 h -4 z m -8,0 h 4 v 4 h -4 z m -8,0 h 4 v 4 h -4 z m -8,0 h 4 v 4 h -4 z m -8,0 h 4 v 4 h -4 z m -8,0 h 4 v 4 h -4 z m -8,0 h 4 v 4 h -4 z m -8,0 h 4 v 4 h -4 z m -8,0 h 4 v 4 h -4 z m -8,0 h 4 v 4 h -4 z m -8,0 h 4 v 4 h -4 z" opacity="1" paint-order="normal" vector-effect="none" style="marker:none"/></g></g></svg>