<svg xmlns="http://www.w3.org/2000/svg" xmlns:svg="http://www.w3.org/2000/svg" xmlns:xlink="http://www.w3.org/1999/xlink" id="svg11300" width="128" height="128" display="inline" enable-background="new" version="1.0" viewBox="0 0 128 128"><title id="title4162">Adwaita Icon Template</title><defs id="defs3"><linearGradient id="linearGradient1038"><stop id="stop1026" offset="0" stop-color="#c0bfbc" stop-opacity="1"/><stop id="stop1028" offset=".045" stop-color="#fff" stop-opacity="1"/><stop id="stop1030" offset=".091" stop-color="#deddda" stop-opacity="1"/><stop id="stop1032" offset=".909" stop-color="#deddda" stop-opacity="1"/><stop id="stop1034" offset=".955" stop-color="#fff" stop-opacity="1"/><stop id="stop1036" offset="1" stop-color="#c0bfbc" stop-opacity="1"/></linearGradient><clipPath id="clipPath2213" clipPathUnits="userSpaceOnUse"><rect id="rect2215" width="16" height="56" x="160" y="-188" fill="none" fill-opacity="1" stroke="#000" stroke-dasharray="none" stroke-dashoffset="0" stroke-linecap="butt" stroke-linejoin="miter" stroke-miterlimit="4" stroke-opacity="1" stroke-width="1" marker-end="none" marker-mid="none" marker-start="none" display="inline" enable-background="new" opacity="1" paint-order="normal" rx="8" ry="8" vector-effect="none" style="marker:none"/></clipPath><clipPath id="clipPath987" clipPathUnits="userSpaceOnUse"><rect id="rect985" width="16" height="56" x="160" y="-188" fill="none" fill-opacity="1" stroke="#000" stroke-dasharray="none" stroke-dashoffset="0" stroke-linecap="butt" stroke-linejoin="miter" stroke-miterlimit="4" stroke-opacity="1" stroke-width="1" marker-end="none" marker-mid="none" marker-start="none" display="inline" enable-background="new" opacity="1" paint-order="normal" rx="8" ry="8" vector-effect="none" style="marker:none"/></clipPath><clipPath id="clipPath991" clipPathUnits="userSpaceOnUse"><rect id="rect989" width="16" height="56" x="160" y="-188" fill="none" fill-opacity="1" stroke="#000" stroke-dasharray="none" stroke-dashoffset="0" stroke-linecap="butt" stroke-linejoin="miter" stroke-miterlimit="4" stroke-opacity="1" stroke-width="1" marker-end="none" marker-mid="none" marker-start="none" display="inline" enable-background="new" opacity="1" paint-order="normal" rx="8" ry="8" vector-effect="none" style="marker:none"/></clipPath><clipPath id="clipPath995" clipPathUnits="userSpaceOnUse"><rect id="rect993" width="16" height="56" x="160" y="-188" fill="none" fill-opacity="1" stroke="#000" stroke-dasharray="none" stroke-dashoffset="0" stroke-linecap="butt" stroke-linejoin="miter" stroke-miterlimit="4" stroke-opacity="1" stroke-width="1" marker-end="none" marker-mid="none" marker-start="none" display="inline" enable-background="new" opacity="1" paint-order="normal" rx="8" ry="8" vector-effect="none" style="marker:none"/></clipPath><clipPath id="clipPath999" clipPathUnits="userSpaceOnUse"><rect id="rect997" width="16" height="56" x="160" y="-188" fill="none" fill-opacity="1" stroke="#000" stroke-dasharray="none" stroke-dashoffset="0" stroke-linecap="butt" stroke-linejoin="miter" stroke-miterlimit="4" stroke-opacity="1" stroke-width="1" marker-end="none" marker-mid="none" marker-start="none" display="inline" enable-background="new" opacity="1" paint-order="normal" rx="8" ry="8" vector-effect="none" style="marker:none"/></clipPath><clipPath id="clipPath1003" clipPathUnits="userSpaceOnUse"><rect id="rect1001" width="16" height="56" x="160" y="-188" fill="none" fill-opacity="1" stroke="#000" stroke-dasharray="none" stroke-dashoffset="0" stroke-linecap="butt" stroke-linejoin="miter" stroke-miterlimit="4" stroke-opacity="1" stroke-width="1" marker-end="none" marker-mid="none" marker-start="none" display="inline" enable-background="new" opacity="1" paint-order="normal" rx="8" ry="8" vector-effect="none" style="marker:none"/></clipPath><linearGradient id="linearGradient1005"><stop id="stop1001" offset="0" stop-color="#d0bb8e" stop-opacity="1"/><stop id="stop1003" offset="1" stop-color="#fff" stop-opacity="1"/></linearGradient><linearGradient id="linearGradient1351-3"><stop id="stop1347" offset="0" stop-color="#d5d3cf" stop-opacity="1"/><stop id="stop1349-6" offset="1" stop-color="#fff" stop-opacity="1"/></linearGradient><clipPath id="clipPath1609" clipPathUnits="userSpaceOnUse"><path id="path1611" fill="#e74747" stroke="none" stroke-linecap="butt" stroke-linejoin="miter" stroke-opacity="1" stroke-width=".25" d="m 252,116 28,-28 v -8 h -36 v 36 z"/></clipPath><linearGradient id="linearGradient1159" x1="28" x2="116" y1="-276" y2="-276" gradientTransform="translate(-135.99999)" gradientUnits="userSpaceOnUse" xlink:href="#linearGradient1038"/><linearGradient id="linearGradient1103" x1="128.817" x2="158.518" y1="-97.698" y2="-127.399" gradientTransform="matrix(0.07621224,-0.44419723,0.44419725,-0.07621223,77.725794,331.83807)" gradientUnits="userSpaceOnUse" xlink:href="#linearGradient1005"/><clipPath id="clipPath2019-7-2" clipPathUnits="userSpaceOnUse"><path id="path2021-5-8" fill="#e74747" stroke="none" stroke-linecap="butt" stroke-linejoin="miter" stroke-opacity="1" stroke-width="1" d="M 280,124 400,4 392,-276 H 87.999995 v 400 z"/></clipPath><clipPath id="clipPath1609-7" clipPathUnits="userSpaceOnUse"><path id="path1611-5" fill="#e74747" stroke="none" stroke-linecap="butt" stroke-linejoin="miter" stroke-opacity="1" stroke-width=".25" d="m 252,116 28,-28 v -8 h -36 v 36 z"/></clipPath><linearGradient id="linearGradient1130" x1="344" x2="340" y1="76" y2="72" gradientTransform="matrix(0.25,0,0,0.25,180,83)" gradientUnits="userSpaceOnUse" xlink:href="#linearGradient1351-3"/><clipPath id="clipPath1062" clipPathUnits="userSpaceOnUse"><rect stroke-opacity="1" style="marker:none" id="rect1064" width="88" height="108" x="-108" y="-116" fill="#f6f5f4" fill-opacity="1" stroke="none" stroke-dasharray="none" stroke-dashoffset="0" stroke-linecap="butt" stroke-linejoin="miter" stroke-miterlimit="4" stroke-width="13.719" marker-end="none" marker-mid="none" marker-start="none" clip-path="none" opacity="1" paint-order="normal" rx="8" ry="8" transform="scale(-1)" vector-effect="none"/></clipPath></defs><metadata id="metadata4"/><g id="layer1" display="inline" transform="translate(0,-172)"><g id="layer2" display="none"><g id="g9211" display="inline"><rect id="rect13805" width="128" height="128" x="0" y="172" fill="#f0f0f0" fill-opacity="1" fill-rule="nonzero" stroke="none" stroke-width=".5" display="inline" enable-background="accumulate" overflow="visible" visibility="visible" style="marker:none"/><circle id="circle2892" cx="64" cy="236" r="59.504" fill="none" fill-opacity="1" stroke="#000" stroke-dasharray=".99 .99" stroke-dashoffset="0" stroke-linecap="butt" stroke-linejoin="miter" stroke-miterlimit="4" stroke-opacity="1" stroke-width=".99" marker-end="none" marker-mid="none" marker-start="none" display="inline" enable-background="new" opacity=".1" paint-order="normal" vector-effect="none" style="marker:none"/><rect id="rect2894" width="87.01" height="111.01" x="20.495" y="180.495" fill="none" fill-opacity="1" stroke="#000" stroke-dasharray=".99 .99" stroke-dashoffset="0" stroke-linecap="butt" stroke-linejoin="miter" stroke-miterlimit="4" stroke-opacity="1" stroke-width=".99" marker-end="none" marker-mid="none" marker-start="none" display="inline" enable-background="new" opacity=".1" paint-order="normal" rx="8.701" ry="7.929" vector-effect="none" style="marker:none"/><rect id="rect2896" width="103.01" height="103.01" x="12.495" y="184.495" fill="none" fill-opacity="1" stroke="#000" stroke-dasharray=".99 .99" stroke-dashoffset="0" stroke-linecap="butt" stroke-linejoin="miter" stroke-miterlimit="4" stroke-opacity="1" stroke-width=".99" marker-end="none" marker-mid="none" marker-start="none" display="inline" enable-background="new" opacity=".1" paint-order="normal" rx="7.924" ry="7.924" vector-effect="none" style="marker:none"/><rect id="rect2898" width="111.01" height="87.01" x="8.495" y="200.495" fill="none" fill-opacity="1" stroke="#000" stroke-dasharray=".99 .99" stroke-dashoffset="0" stroke-linecap="butt" stroke-linejoin="miter" stroke-miterlimit="4" stroke-opacity="1" stroke-width=".99" marker-end="none" marker-mid="none" marker-start="none" display="inline" enable-background="new" opacity=".1" paint-order="normal" rx="7.929" ry="8.701" vector-effect="none" style="marker:none"/><path id="path2900" fill="none" stroke="#62a0ea" stroke-dasharray="none" stroke-linecap="butt" stroke-linejoin="miter" stroke-miterlimit="4" stroke-opacity="1" stroke-width="2" d="M 2.6203015e-5,288.99999 H 128.00003" display="inline" enable-background="new"/></g></g><g id="layer9" display="inline"><rect id="rect1167" width="88" height="30.25" x="-108" y="-294" fill="#1a5fb4" fill-opacity="1" stroke="none" stroke-dasharray="none" stroke-dashoffset="0" stroke-linecap="butt" stroke-linejoin="miter" stroke-miterlimit="4" stroke-opacity="1" stroke-width="13.719" marker-end="none" marker-mid="none" marker-start="none" clip-path="none" opacity="1" paint-order="normal" rx="8" ry="8" transform="scale(-1)" vector-effect="none" style="marker:none"/><rect stroke-opacity="1" style="marker:none" id="rect1151" width="88" height="40" x="-108" y="-292" fill="url(#linearGradient1159)" fill-opacity="1" stroke="none" stroke-dasharray="none" stroke-dashoffset="0" stroke-linecap="butt" stroke-linejoin="miter" stroke-miterlimit="4" stroke-width="13.719" marker-end="none" marker-mid="none" marker-start="none" clip-path="none" opacity="1" paint-order="normal" rx="8" ry="8" transform="scale(-1)" vector-effect="none"/><rect id="rect1161" width="88" height="108" x="-108" y="-288" fill="#f6f5f4" fill-opacity="1" stroke="none" stroke-dasharray="none" stroke-dashoffset="0" stroke-linecap="butt" stroke-linejoin="miter" stroke-miterlimit="4" stroke-opacity="1" stroke-width="13.719" marker-end="none" marker-mid="none" marker-start="none" clip-path="none" opacity="1" paint-order="normal" rx="8" ry="8" transform="scale(-1)" vector-effect="none" style="marker:none"/><g id="g1153" transform="translate(-4,2)"><path id="path950-3-7" fill="#d5d3cf" fill-opacity="1" stroke="none" stroke-dasharray="none" stroke-dashoffset="0" stroke-linecap="square" stroke-linejoin="round" stroke-miterlimit="4" stroke-opacity="1" stroke-width="4" d="m 32,188 c -1.10457,0 -2,0.89543 -2,2 0,1.10457 0.89543,2 2,2 1.10457,0 2,-0.89543 2,-2 0,-1.10457 -0.89543,-2 -2,-2 z m 8,0 c -1.10457,0 -2,0.89543 -2,2 0,1.10457 0.89543,2 2,2 1.10457,0 2,-0.89543 2,-2 0,-1.10457 -0.89543,-2 -2,-2 z m 8,0 c -1.10457,0 -2,0.89543 -2,2 0,1.10457 0.89543,2 2,2 1.10457,0 2,-0.89543 2,-2 0,-1.10457 -0.89543,-2 -2,-2 z m 8,0 c -1.10457,0 -2,0.89543 -2,2 0,1.10457 0.89543,2 2,2 1.10457,0 2,-0.89543 2,-2 0,-1.10457 -0.89543,-2 -2,-2 z m 8,0 c -1.10457,0 -2,0.89543 -2,2 0,1.10457 0.89543,2 2,2 1.10457,0 2,-0.89543 2,-2 0,-1.10457 -0.89543,-2 -2,-2 z m 8,0 c -1.10457,0 -2,0.89543 -2,2 0,1.10457 0.89543,2 2,2 1.10457,0 2,-0.89543 2,-2 0,-1.10457 -0.89543,-2 -2,-2 z m 8,0 c -1.10457,0 -2,0.89543 -2,2 0,1.10457 0.89543,2 2,2 1.10457,0 2,-0.89543 2,-2 0,-1.10457 -0.89543,-2 -2,-2 z m 8,0 c -1.10457,0 -2,0.89543 -2,2 0,1.10457 0.89543,2 2,2 1.10457,0 2,-0.89543 2,-2 0,-1.10457 -0.89543,-2 -2,-2 z m 8,0 c -1.10457,0 -2,0.89543 -2,2 0,1.10457 0.89543,2 2,2 1.10457,0 2,-0.89543 2,-2 0,-1.10457 -0.89543,-2 -2,-2 z" display="inline" enable-background="new" opacity="1"/><circle id="path1148" cx="-104" cy="190" r="2" fill="#d5d3cf" fill-opacity="1" stroke="none" stroke-dasharray="none" stroke-dashoffset="0" stroke-linecap="butt" stroke-linejoin="round" stroke-miterlimit="4" stroke-opacity="1" stroke-width="16" opacity="1" transform="scale(-1,1)" vector-effect="none"/><path id="circle16770" fill="#d5d3cf" fill-opacity="1" stroke="none" stroke-dasharray="none" stroke-dashoffset="0" stroke-linecap="butt" stroke-linejoin="round" stroke-miterlimit="4" stroke-opacity="1" stroke-width="16" d="m 112,192 a 2,2 0 0 1 -1.73205,-1 2,2 0 0 1 0,-2 A 2,2 0 0 1 112,188" opacity="1" vector-effect="none"/><path id="circle16770-3" fill="#d5d3cf" fill-opacity="1" stroke="none" stroke-dasharray="none" stroke-dashoffset="0" stroke-linecap="butt" stroke-linejoin="round" stroke-miterlimit="4" stroke-opacity="1" stroke-width="16" d="m -24,192 a 2,2 0 0 1 -1.732051,-1 2,2 0 0 1 0,-2 A 2,2 0 0 1 -24,188" display="inline" enable-background="new" opacity="1" transform="scale(-1,1)" vector-effect="none"/></g><rect stroke-opacity="1" style="marker:none" id="rect1056-3" width="36" height="36" x="252" y="88" fill="url(#linearGradient1130)" fill-opacity="1" stroke="none" stroke-dasharray="none" stroke-dashoffset="0" stroke-linecap="butt" stroke-linejoin="miter" stroke-miterlimit="4" stroke-width=".5" marker-end="none" marker-mid="none" marker-start="none" clip-path="url(#clipPath1609-7)" display="inline" enable-background="new" opacity="1" paint-order="normal" rx="11.2" ry="11.2" transform="matrix(0,0.71428571,0.71428571,0,25.142858,88.000008)"/><path id="path1047" fill="#000" fill-opacity="1" stroke="none" stroke-dasharray="none" stroke-dashoffset="0" stroke-linecap="round" stroke-linejoin="miter" stroke-miterlimit="4" stroke-opacity="1" stroke-width="12.49" marker-end="none" marker-mid="none" marker-start="none" d="M 100,16 32,84 v 20 h 22 l 68,-68 -7.86719,-5.761719 -0.0742,-0.07227 -8.22461,-8.22461 z" clip-path="url(#clipPath1062)" opacity=".2" paint-order="normal" transform="translate(0,172)" vector-effect="none" style="marker:none"/><path id="path1038" fill="url(#linearGradient1103)" fill-opacity="1" stroke="none" stroke-dasharray="none" stroke-dashoffset="0" stroke-linecap="round" stroke-linejoin="miter" stroke-miterlimit="4" stroke-opacity="1" stroke-width="12.49" marker-end="none" marker-mid="none" marker-start="none" d="m 32,276 v -20 l 20,20 z" opacity="1" paint-order="normal" vector-effect="none" style="marker:none"/><path id="path1042" fill="#424048" fill-opacity="1" stroke="none" stroke-dasharray="none" stroke-dashoffset="0" stroke-linecap="round" stroke-linejoin="miter" stroke-miterlimit="4" stroke-opacity="1" stroke-width="12.49" marker-end="none" marker-mid="none" marker-start="none" d="m 31.999996,276 4e-6,-8 8,8 z" display="inline" enable-background="new" opacity="1" paint-order="normal" vector-effect="none" style="marker:none"/><path id="path1044" fill="#f6d32d" fill-opacity="1" stroke="none" stroke-linecap="butt" stroke-linejoin="miter" stroke-opacity="1" stroke-width=".506" d="m 50,274 -16,-16 67.94696,-67.94695 16,16 z" display="inline" enable-background="new"/><path id="path1046" fill="#f9f06b" fill-opacity="1" stroke="none" stroke-linecap="butt" stroke-linejoin="miter" stroke-opacity="1" stroke-width=".358" d="M 37.887772,261.88776 32,256 l 68.00001,-67.99999 5.83472,5.9408 z" display="inline" enable-background="new" opacity="1"/><path id="path1048" fill="#e5a50a" fill-opacity="1" stroke="none" stroke-linecap="butt" stroke-linejoin="miter" stroke-opacity="1" stroke-width=".358" d="M 46.112246,270.11223 52,276 l 68,-68 -5.9408,-5.83472 z" display="inline" enable-background="new" opacity="1"/></g></g></svg>