<svg xmlns="http://www.w3.org/2000/svg" xmlns:svg="http://www.w3.org/2000/svg" xmlns:xlink="http://www.w3.org/1999/xlink" id="svg11300" width="128" height="128" display="inline" enable-background="new" version="1.0" viewBox="0 0 128 128"><title id="title4162">Adwaita Icon Template</title><defs id="defs3"><linearGradient id="linearGradient1205"><stop id="stop1201" offset="0" stop-color="#deddda" stop-opacity="1"/><stop id="stop1203" offset="1" stop-color="#c0bfbc" stop-opacity="1"/></linearGradient><linearGradient id="linearGradient1099" x1="32" x2="96" y1="236" y2="236" gradientTransform="translate(604.81684,170.58641)" gradientUnits="userSpaceOnUse" xlink:href="#linearGradient1036"/><linearGradient id="linearGradient1036"><stop id="stop1032" offset="0" stop-color="#d5d3cf" stop-opacity="1"/><stop id="stop1034" offset="1" stop-color="#f6f5f4" stop-opacity="1"/></linearGradient><radialGradient id="radialGradient1103" cx="-244" cy="-76" r="32" fx="-244" fy="-76" gradientTransform="matrix(0.88333331,0,0,0.88333331,-460.35018,463.11973)" gradientUnits="userSpaceOnUse" xlink:href="#linearGradient1069"/><linearGradient id="linearGradient1069"><stop id="stop1065" offset="0" stop-color="#d5d3cf" stop-opacity="1"/><stop id="stop1067-1" offset="1" stop-color="#949390" stop-opacity="1"/></linearGradient><linearGradient id="linearGradient1027" x1="64" x2="64" y1="262.5" y2="232" gradientTransform="translate(-470.5864,432.81685)" gradientUnits="userSpaceOnUse" xlink:href="#linearGradient1025"/><linearGradient id="linearGradient1025"><stop id="stop1021" offset="0" stop-color="#9a9996" stop-opacity="1"/><stop id="stop1023" offset="1" stop-color="#77767b" stop-opacity="1"/></linearGradient><radialGradient id="radialGradient1191" cx="-223" cy="64" r="24" fx="-223" fy="64" gradientTransform="matrix(1.3333333,0,0,1.3333333,74.333326,124.66668)" gradientUnits="userSpaceOnUse" xlink:href="#linearGradient1110"/><linearGradient id="linearGradient1110"><stop id="stop1108" offset="0" stop-color="#c0bfbc" stop-opacity="1"/><stop id="stop1106" offset="1" stop-color="#5e5c64" stop-opacity="1"/></linearGradient><radialGradient id="radialGradient1189" cx="-223" cy="64" r="24" fx="-223" fy="64" gradientTransform="matrix(1.3333333,0,0,0.88888887,74.333326,153.77779)" gradientUnits="userSpaceOnUse" xlink:href="#linearGradient1110"/><linearGradient id="linearGradient1187" x1="60" x2="68" y1="199.856" y2="199.856" gradientTransform="matrix(0.75,0,0,0.7,-29.000004,76.000018)" gradientUnits="userSpaceOnUse" xlink:href="#linearGradient3550"/><linearGradient id="linearGradient3550"><stop id="stop3542" offset="0" stop-color="#5e5c64" stop-opacity="1"/><stop id="stop3544" offset=".351" stop-color="#c0bfbc" stop-opacity="1"/><stop id="stop3546" offset=".602" stop-color="#9a9996" stop-opacity="1"/><stop id="stop3548" offset="1" stop-color="#5e5c64" stop-opacity="1"/></linearGradient><radialGradient id="radialGradient1164" cx="-223" cy="64" r="24" fx="-223" fy="64" gradientTransform="matrix(1.3333333,0,0,1.3333333,74.333326,157.66668)" gradientUnits="userSpaceOnUse" xlink:href="#linearGradient1110"/><radialGradient id="radialGradient1149" cx="-223" cy="64" r="24" fx="-223" fy="64" gradientTransform="matrix(1.3333333,0,0,0.88888887,74.333326,186.77779)" gradientUnits="userSpaceOnUse" xlink:href="#linearGradient1110"/><linearGradient id="linearGradient3530"><stop id="stop3518" offset="0" stop-color="#5e5c64" stop-opacity="1"/><stop id="stop3520" offset=".038" stop-color="#9a9996" stop-opacity="1"/><stop id="stop3522" offset=".077" stop-color="#5e5c64" stop-opacity="1"/><stop id="stop3524" offset=".923" stop-color="#5e5c64" stop-opacity="1"/><stop id="stop3526" offset=".962" stop-color="#9a9996" stop-opacity="1"/><stop id="stop3528" offset="1" stop-color="#5e5c64" stop-opacity="1"/></linearGradient><linearGradient id="linearGradient3051"><stop id="stop3047" offset="0" stop-color="#deddda" stop-opacity="1"/><stop id="stop3049" offset="1" stop-color="#c0bfbc" stop-opacity="1"/></linearGradient><linearGradient id="linearGradient3085" x1="60" x2="68" y1="199.856" y2="199.856" gradientTransform="matrix(0.75,0,0,0.7,-29.000004,109.00001)" gradientUnits="userSpaceOnUse" xlink:href="#linearGradient3550"/><radialGradient id="radialGradient1253" cx="-223" cy="64" r="24" fx="-223" fy="64" gradientTransform="matrix(1.3333333,0,0,1.3333333,74.333333,-21.333333)" gradientUnits="userSpaceOnUse" xlink:href="#linearGradient1110"/><linearGradient id="linearGradient1336" x1="51.952" x2="108" y1="209.311" y2="260" gradientTransform="matrix(1.023256,0,0,1.1428571,-129.48839,-28.571422)" gradientUnits="userSpaceOnUse" xlink:href="#linearGradient3051"/><linearGradient id="linearGradient992" x1="48" x2="464" y1="204" y2="204" gradientTransform="matrix(0.25,0,0,0.25,-4.14e-6,225.00001)" gradientUnits="userSpaceOnUse" xlink:href="#linearGradient3530"/><radialGradient id="radialGradient1528" cx="-223" cy="64" r="24" fx="-223" fy="64" gradientTransform="matrix(1.5555546,0,0,1.5555546,126.38868,-35.555498)" gradientUnits="userSpaceOnUse" xlink:href="#linearGradient1110"/><linearGradient id="linearGradient1032" x1="48" x2="464" y1="204" y2="204" gradientTransform="matrix(0.25,0,0,0.25,-4.14e-6,225.00001)" gradientUnits="userSpaceOnUse" xlink:href="#linearGradient3530"/><linearGradient id="linearGradient1034" x1="51.952" x2="108" y1="209.311" y2="260" gradientTransform="matrix(1.023256,0,0,1.1428571,-129.48839,-28.571422)" gradientUnits="userSpaceOnUse" xlink:href="#linearGradient3051"/><radialGradient id="radialGradient1036" cx="-223" cy="64" r="24" fx="-223" fy="64" gradientTransform="matrix(1.3333333,0,0,1.3333333,74.333322,-21.333334)" gradientUnits="userSpaceOnUse" xlink:href="#linearGradient1110"/><linearGradient id="linearGradient1038" x1="60" x2="68" y1="199.856" y2="199.856" gradientTransform="matrix(0.75,0,0,0.7,-29.000004,109.00001)" gradientUnits="userSpaceOnUse" xlink:href="#linearGradient3550"/><radialGradient id="radialGradient1040" cx="-223" cy="64" r="24" fx="-223" fy="64" gradientTransform="matrix(1.3333333,0,0,1.3333333,74.333322,-21.333334)" gradientUnits="userSpaceOnUse" xlink:href="#linearGradient1110"/><radialGradient id="radialGradient1042" cx="-236" cy="-64" r="12" fx="-236" fy="-64" gradientTransform="matrix(1.4166667,0,0,1.4166667,98.33332,26.666674)" gradientUnits="userSpaceOnUse" xlink:href="#linearGradient3051"/><radialGradient id="radialGradient1044" cx="-223" cy="64" r="24" fx="-223" fy="64" gradientTransform="matrix(1.3333333,0,0,0.88888887,74.333326,186.77779)" gradientUnits="userSpaceOnUse" xlink:href="#linearGradient1110"/><radialGradient id="radialGradient1046" cx="-223" cy="64" r="24" fx="-223" fy="64" gradientTransform="matrix(1.3333333,0,0,1.3333333,74.333326,157.66668)" gradientUnits="userSpaceOnUse" xlink:href="#linearGradient1110"/><linearGradient id="linearGradient1048" x1="60" x2="68" y1="199.856" y2="199.856" gradientTransform="matrix(0.75,0,0,0.7,-29.000004,76.000018)" gradientUnits="userSpaceOnUse" xlink:href="#linearGradient3550"/><radialGradient id="radialGradient1050" cx="-223" cy="64" r="24" fx="-223" fy="64" gradientTransform="matrix(1.3333333,0,0,0.88888887,74.333326,153.77779)" gradientUnits="userSpaceOnUse" xlink:href="#linearGradient1110"/><radialGradient id="radialGradient1052" cx="-223" cy="64" r="24" fx="-223" fy="64" gradientTransform="matrix(1.3333333,0,0,1.3333333,74.333326,124.66668)" gradientUnits="userSpaceOnUse" xlink:href="#linearGradient1110"/><linearGradient id="linearGradient1160" x1="48" x2="464" y1="204" y2="204" gradientTransform="matrix(0.25,0,0,0.25,-360,225.00001)" gradientUnits="userSpaceOnUse" xlink:href="#linearGradient3530"/><linearGradient id="linearGradient1162" x1="51.952" x2="108" y1="209.311" y2="260" gradientTransform="matrix(1.023256,0,0,1.1428571,230.51161,-28.571422)" gradientUnits="userSpaceOnUse" xlink:href="#linearGradient3051"/><radialGradient id="radialGradient1165" cx="-223" cy="64" r="24" fx="-223" fy="64" gradientTransform="matrix(1.3333333,0,0,1.3333333,74.333322,-381.33333)" gradientUnits="userSpaceOnUse" xlink:href="#linearGradient1110"/><linearGradient id="linearGradient1167" x1="60" x2="68" y1="199.856" y2="199.856" gradientTransform="matrix(0.75,0,0,0.7,-389,109.00001)" gradientUnits="userSpaceOnUse" xlink:href="#linearGradient3550"/><radialGradient id="radialGradient1169" cx="-223" cy="64" r="24" fx="-223" fy="64" gradientTransform="matrix(1.3333333,0,0,0.88888887,-285.66667,186.77779)" gradientUnits="userSpaceOnUse" xlink:href="#linearGradient1110"/><radialGradient id="radialGradient1171" cx="-223" cy="64" r="24" fx="-223" fy="64" gradientTransform="matrix(1.3333333,0,0,1.3333333,-285.66667,157.66668)" gradientUnits="userSpaceOnUse" xlink:href="#linearGradient1110"/><linearGradient id="linearGradient1173" x1="60" x2="68" y1="199.856" y2="199.856" gradientTransform="matrix(0.75,0,0,0.7,-389,76.000018)" gradientUnits="userSpaceOnUse" xlink:href="#linearGradient3550"/><radialGradient id="radialGradient1175" cx="-223" cy="64" r="24" fx="-223" fy="64" gradientTransform="matrix(1.3333333,0,0,0.88888887,-285.66667,153.77779)" gradientUnits="userSpaceOnUse" xlink:href="#linearGradient1110"/><radialGradient id="radialGradient1177" cx="-223" cy="64" r="24" fx="-223" fy="64" gradientTransform="matrix(1.3333333,0,0,1.3333333,-285.66667,124.66668)" gradientUnits="userSpaceOnUse" xlink:href="#linearGradient1110"/><linearGradient id="linearGradient1207" x1="-254" x2="-206" y1="64" y2="64" gradientUnits="userSpaceOnUse" xlink:href="#linearGradient1205"/></defs><metadata id="metadata4"/><g id="layer1" display="inline" transform="translate(-9.2651362e-8,-172)"><g id="layer2" display="none"><text id="context" x="-.05" y="128.652" fill="#000" fill-opacity="1" stroke="none" stroke-width=".333" display="inline" enable-background="new" font-family="Cantarell" font-size="5.333" font-stretch="normal" font-style="normal" font-variant="normal" font-weight="normal" text-anchor="start" writing-mode="lr-tb" xml:space="preserve" style="line-height:125%;-inkscape-font-specification:'Cantarell, Normal';text-align:start"><tspan id="tspan2716" x="-.05" y="128.652" stroke-width=".333" font-size="5.333">apps</tspan></text><text id="text3021" x="-.247" y="137.234" fill="#000" fill-opacity="1" stroke="none" stroke-width=".333" display="inline" enable-background="new" font-family="Cantarell" font-size="5.333" font-stretch="normal" font-style="normal" font-variant="normal" font-weight="bold" text-anchor="start" writing-mode="lr-tb" xml:space="preserve" style="line-height:125%;-inkscape-font-specification:'Cantarell, Bold';text-align:start"><tspan id="tspan3023" x="-.247" y="137.234" stroke-width=".333" font-size="5.333">org.gnome.PasswordSafe</tspan></text><rect id="rect13805" width="128" height="128" x="0" y="172" fill="#f0f0f0" fill-opacity="1" fill-rule="nonzero" stroke="none" stroke-width=".5" display="inline" enable-background="accumulate" overflow="visible" visibility="visible" style="marker:none"/><circle id="path1142" cx="64" cy="236" r="60" fill="#2864b0" fill-opacity="1" stroke="none" stroke-dasharray="none" stroke-dashoffset="0" stroke-linecap="butt" stroke-linejoin="miter" stroke-miterlimit="4" stroke-opacity="1" stroke-width=".25" marker-end="none" marker-mid="none" marker-start="none" opacity=".1" paint-order="normal" style="marker:none"/><rect id="rect1110" width="88" height="112" x="20" y="176" fill="#2864b0" fill-opacity="1" stroke="none" stroke-dasharray="none" stroke-dashoffset="0" stroke-linecap="butt" stroke-linejoin="miter" stroke-miterlimit="4" stroke-opacity="1" stroke-width=".262" marker-end="none" marker-mid="none" marker-start="none" opacity=".1" paint-order="normal" rx="8.8" ry="8" style="marker:none"/><rect stroke-miterlimit="4" style="marker:none" id="rect1110-8" width="104" height="104" x="12" y="184" fill="#2864b0" fill-opacity="1" stroke="none" stroke-dasharray="none" stroke-dashoffset="0" stroke-linecap="butt" stroke-linejoin="miter" stroke-opacity="1" stroke-width=".25" marker-end="none" marker-mid="none" marker-start="none" display="inline" enable-background="new" opacity=".1" paint-order="normal" rx="8" ry="8"/><rect stroke-miterlimit="4" style="marker:none" id="rect1110-8-9" width="112" height="88" x="8" y="200" fill="#2864b0" fill-opacity="1" stroke="none" stroke-dasharray="none" stroke-dashoffset="0" stroke-linecap="butt" stroke-linejoin="miter" stroke-opacity="1" stroke-width=".262" marker-end="none" marker-mid="none" marker-start="none" display="inline" enable-background="new" opacity=".1" paint-order="normal" rx="8" ry="8.8"/><text id="text863" x="0" y="164" fill="#000" fill-opacity="1" stroke="none" stroke-width=".333" display="inline" enable-background="new" font-family="Cantarell" font-size="4" font-stretch="normal" font-style="normal" font-variant="normal" font-weight="bold" text-anchor="start" writing-mode="lr-tb" xml:space="preserve" style="line-height:125%;-inkscape-font-specification:'Cantarell, Bold';text-align:start"><tspan id="tspan861" x="0" y="164" stroke-width=".333" font-size="4">Hicolor</tspan></text></g><g id="layer3" display="none"><circle id="path1142-5" cx="64" cy="236" r="59.504" fill="none" fill-opacity="1" stroke="#000" stroke-dasharray="none" stroke-dashoffset="0" stroke-linecap="butt" stroke-linejoin="miter" stroke-miterlimit="4" stroke-opacity="1" stroke-width=".992" marker-end="none" marker-mid="none" marker-start="none" display="inline" enable-background="new" opacity=".1" paint-order="normal" style="marker:none"/><rect stroke-miterlimit="4" style="marker:none" id="rect1110-6" width="87.01" height="111.01" x="20.495" y="176.495" fill="none" fill-opacity="1" stroke="#000" stroke-dasharray="none" stroke-dashoffset="0" stroke-linecap="butt" stroke-linejoin="miter" stroke-opacity="1" stroke-width=".99" marker-end="none" marker-mid="none" marker-start="none" display="inline" enable-background="new" opacity=".1" paint-order="normal" rx="8.701" ry="7.929"/><rect stroke-miterlimit="4" style="marker:none" id="rect1110-8-2" width="103.01" height="103.01" x="12.495" y="184.495" fill="none" fill-opacity="1" stroke="#000" stroke-dasharray="none" stroke-dashoffset="0" stroke-linecap="butt" stroke-linejoin="miter" stroke-opacity="1" stroke-width=".99" marker-end="none" marker-mid="none" marker-start="none" display="inline" enable-background="new" opacity=".1" paint-order="normal" rx="7.924" ry="7.924"/><rect stroke-miterlimit="4" style="marker:none" id="rect1110-8-9-9" width="111.01" height="87.01" x="8.495" y="200.495" fill="none" fill-opacity="1" stroke="#000" stroke-dasharray="none" stroke-dashoffset="0" stroke-linecap="butt" stroke-linejoin="miter" stroke-opacity="1" stroke-width=".99" marker-end="none" marker-mid="none" marker-start="none" display="inline" enable-background="new" opacity=".1" paint-order="normal" rx="7.929" ry="8.701"/><path id="path2851" fill="none" stroke="#62a0ea" stroke-dasharray="none" stroke-linecap="butt" stroke-linejoin="miter" stroke-miterlimit="4" stroke-opacity="1" stroke-width="2" d="M 0,289 H 128" display="inline" enable-background="new"/></g><g id="layer9" display="inline"><rect id="rect972" width="104" height="84" x="12" y="204" fill="url(#linearGradient992)" fill-opacity="1" stroke="none" stroke-dasharray="none" stroke-dashoffset="0" stroke-linecap="butt" stroke-linejoin="miter" stroke-miterlimit="4" stroke-opacity="1" stroke-width=".25" marker-end="none" marker-mid="none" marker-start="none" display="inline" enable-background="new" opacity="1" paint-order="normal" rx="8" ry="8" style="marker:none"/><rect id="rect974" width="104" height="96" x="12" y="184" fill="#77767b" fill-opacity="1" stroke="none" stroke-dasharray="none" stroke-dashoffset="0" stroke-linecap="butt" stroke-linejoin="miter" stroke-miterlimit="4" stroke-opacity="1" stroke-width=".25" marker-end="none" marker-mid="none" marker-start="none" display="inline" enable-background="new" opacity="1" paint-order="normal" rx="8" ry="8" style="marker:none"/><g id="g3683" display="inline" transform="translate(-4.14e-6,1e-5)"><rect id="rect3432" width="88" height="80" x="-108" y="194" fill="#000" fill-opacity="1" stroke="none" stroke-dasharray="none" stroke-dashoffset="0" stroke-linecap="butt" stroke-linejoin="miter" stroke-miterlimit="4" stroke-opacity="1" stroke-width="2" marker-end="none" marker-mid="none" marker-start="none" display="inline" enable-background="new" opacity=".2" paint-order="normal" rx="3" ry="3" transform="scale(-1,1)" style="marker:none"/><rect id="rect3083-4" width="6" height="14" x="16" y="244" fill="#5e5c64" fill-opacity="1" stroke="none" stroke-dasharray="none" stroke-dashoffset="0" stroke-linecap="butt" stroke-linejoin="round" stroke-miterlimit="4" stroke-opacity="1" stroke-width="2" display="inline" enable-background="new" opacity="1" vector-effect="none"/><rect id="rect1195" width="6" height="14" x="16" y="210" fill="#5e5c64" fill-opacity="1" stroke="none" stroke-dasharray="none" stroke-dashoffset="0" stroke-linecap="butt" stroke-linejoin="round" stroke-miterlimit="4" stroke-opacity="1" stroke-width="2" display="inline" enable-background="new" opacity="1" vector-effect="none"/></g><rect id="rect1208" width="88" height="80" x="-108" y="192" fill="url(#linearGradient1336)" fill-opacity="1" stroke="none" stroke-dasharray="none" stroke-dashoffset="0" stroke-linecap="butt" stroke-linejoin="miter" stroke-miterlimit="4" stroke-opacity="1" stroke-width="2" marker-end="none" marker-mid="none" marker-start="none" display="inline" enable-background="new" opacity="1" paint-order="normal" rx="3" ry="3" transform="scale(-1,1)" style="marker:none"/><circle id="circle1197" cx="-233" cy="64" r="28" fill="#3d3846" fill-opacity="1" stroke="none" stroke-dasharray="none" stroke-dashoffset="0" stroke-linecap="round" stroke-linejoin="round" stroke-miterlimit="4" stroke-opacity="1" stroke-width="9.333" display="inline" enable-background="new" opacity="1" transform="rotate(-90)" vector-effect="none"/><circle id="path2947" cx="-231" cy="64" r="28" fill="url(#radialGradient1528)" fill-opacity="1" stroke="none" stroke-dasharray="none" stroke-dashoffset="0" stroke-linecap="round" stroke-linejoin="round" stroke-miterlimit="4" stroke-opacity="1" stroke-width="9.333" display="inline" enable-background="new" opacity="1" transform="rotate(-90)" vector-effect="none"/><path id="rect3083" fill="url(#linearGradient3085)" fill-opacity="1" stroke="none" stroke-dasharray="none" stroke-dashoffset="0" stroke-linecap="butt" stroke-linejoin="round" stroke-miterlimit="4" stroke-opacity="1" stroke-width="2" d="m 18.999996,241.00001 a 3,1 0 0 0 -3,1 v 14 h 6 v -14 a 3,1 0 0 0 -3,-1 z" display="inline" enable-background="new" opacity="1" vector-effect="none"/><path id="path1147" fill="url(#radialGradient1149)" fill-opacity="1" stroke="none" stroke-dasharray="none" stroke-dashoffset="0" stroke-linecap="round" stroke-linejoin="round" stroke-miterlimit="4" stroke-opacity="1" stroke-width="6.532" marker-end="none" marker-mid="none" marker-start="none" d="m 18.999996,255.00001 a 3,1 0 0 0 -3,1 3,1 0 0 0 3,1 3,1 0 0 0 1,-0.0586 v -0.9414 h 2 a 3,1 0 0 0 -3,-1 z" display="inline" enable-background="new" opacity="1" paint-order="normal" vector-effect="none" style="marker:none"/><path id="path1162" fill="url(#radialGradient1164)" fill-opacity="1" stroke="none" stroke-dasharray="none" stroke-dashoffset="0" stroke-linecap="round" stroke-linejoin="round" stroke-miterlimit="4" stroke-opacity="1" stroke-width="8" marker-end="none" marker-mid="none" marker-start="none" d="m 18.999996,247.00001 c -1.65685,0 -3,0.44772 -3,1 v 2 c 0,-0.55228 1.34315,-1 3,-1 1.65685,0 3,0.44772 3,1 v -2 c 0,-0.55228 -1.34315,-1 -3,-1 z m 1.19727,2.91602 c -0.0188,0.003 -0.0377,0.005 -0.0566,0.008 0.0195,-0.003 0.0374,-0.005 0.0566,-0.008 z" display="inline" enable-background="new" opacity="1" paint-order="normal" vector-effect="none" style="marker:none"/><path id="path1181" fill="url(#linearGradient1187)" fill-opacity="1" stroke="none" stroke-dasharray="none" stroke-dashoffset="0" stroke-linecap="butt" stroke-linejoin="round" stroke-miterlimit="4" stroke-opacity="1" stroke-width="2" d="m 18.999996,208.00001 a 3,1 0 0 0 -3,1 v 14 h 6 v -14 a 3,1 0 0 0 -3,-1 z" display="inline" enable-background="new" opacity="1" vector-effect="none"/><path id="path1183" fill="url(#radialGradient1189)" fill-opacity="1" stroke="none" stroke-dasharray="none" stroke-dashoffset="0" stroke-linecap="round" stroke-linejoin="round" stroke-miterlimit="4" stroke-opacity="1" stroke-width="6.532" marker-end="none" marker-mid="none" marker-start="none" d="m 18.999996,222.00001 a 3,1 0 0 0 -3,1 3,1 0 0 0 3,1 3,1 0 0 0 1,-0.0586 V 223 h 2 a 3,1 0 0 0 -3,-1 z" display="inline" enable-background="new" opacity="1" paint-order="normal" vector-effect="none" style="marker:none"/><path id="path1185" fill="url(#radialGradient1191)" fill-opacity="1" stroke="none" stroke-dasharray="none" stroke-dashoffset="0" stroke-linecap="round" stroke-linejoin="round" stroke-miterlimit="4" stroke-opacity="1" stroke-width="8" marker-end="none" marker-mid="none" marker-start="none" d="m 18.999996,214.00001 c -1.65685,0 -3,0.44772 -3,1 v 2 c 0,-0.55228 1.34315,-1 3,-1 1.65685,0 3,0.44772 3,1 v -2 c 0,-0.55228 -1.34315,-1 -3,-1 z m 1.19727,2.91602 c -0.0188,0.003 -0.0377,0.005 -0.0566,0.008 0.0195,-0.003 0.0374,-0.005 0.0566,-0.008 z" display="inline" enable-background="new" opacity="1" paint-order="normal" vector-effect="none" style="marker:none"/><g id="g1030" display="inline" transform="translate(-210)"><rect stroke-miterlimit="4" style="marker:none" id="rect931" width="104" height="84" x="12" y="204" fill="url(#linearGradient1032)" fill-opacity="1" stroke="none" stroke-dasharray="none" stroke-dashoffset="0" stroke-linecap="butt" stroke-linejoin="miter" stroke-opacity="1" stroke-width=".25" marker-end="none" marker-mid="none" marker-start="none" display="inline" enable-background="new" opacity="1" paint-order="normal" rx="8" ry="8"/><rect stroke-miterlimit="4" style="marker:none" id="rect933" width="104" height="96" x="12" y="184" fill="#77767b" fill-opacity="1" stroke="none" stroke-dasharray="none" stroke-dashoffset="0" stroke-linecap="butt" stroke-linejoin="miter" stroke-opacity="1" stroke-width=".25" marker-end="none" marker-mid="none" marker-start="none" display="inline" enable-background="new" opacity="1" paint-order="normal" rx="8" ry="8"/><g id="g941" display="inline" transform="translate(-4.14e-6,7.6e-6)"><rect id="rect935" width="88" height="80" x="-108" y="194" fill="#000" fill-opacity="1" stroke="none" stroke-dasharray="none" stroke-dashoffset="0" stroke-linecap="butt" stroke-linejoin="miter" stroke-miterlimit="4" stroke-opacity="1" stroke-width="2" marker-end="none" marker-mid="none" marker-start="none" display="inline" enable-background="new" opacity=".2" paint-order="normal" rx="3" ry="3" transform="scale(-1,1)" style="marker:none"/><rect id="rect937" width="6" height="14" x="16" y="244" fill="#5e5c64" fill-opacity="1" stroke="none" stroke-dasharray="none" stroke-dashoffset="0" stroke-linecap="butt" stroke-linejoin="round" stroke-miterlimit="4" stroke-opacity="1" stroke-width="2" display="inline" enable-background="new" opacity="1" vector-effect="none"/><rect id="rect939" width="6" height="14" x="16" y="210" fill="#5e5c64" fill-opacity="1" stroke="none" stroke-dasharray="none" stroke-dashoffset="0" stroke-linecap="butt" stroke-linejoin="round" stroke-miterlimit="4" stroke-opacity="1" stroke-width="2" display="inline" enable-background="new" opacity="1" vector-effect="none"/></g><rect id="rect943" width="88" height="80" x="-108" y="192" fill="url(#linearGradient1034)" fill-opacity="1" stroke="none" stroke-dasharray="none" stroke-dashoffset="0" stroke-linecap="butt" stroke-linejoin="miter" stroke-miterlimit="4" stroke-opacity="1" stroke-width="2" marker-end="none" marker-mid="none" marker-start="none" display="inline" enable-background="new" opacity="1" paint-order="normal" rx="3" ry="3" transform="scale(-1,1)" style="marker:none"/><circle id="circle945" cx="-232" cy="64" r="24" fill="url(#radialGradient1036)" fill-opacity="1" stroke="none" stroke-dasharray="none" stroke-dashoffset="0" stroke-linecap="round" stroke-linejoin="round" stroke-miterlimit="4" stroke-opacity="1" stroke-width="8" display="inline" enable-background="new" opacity="1" transform="rotate(-90)" vector-effect="none"/><path id="path947" fill="url(#linearGradient1038)" fill-opacity="1" stroke="none" stroke-dasharray="none" stroke-dashoffset="0" stroke-linecap="butt" stroke-linejoin="round" stroke-miterlimit="4" stroke-opacity="1" stroke-width="2" d="m 18.999996,241.00001 a 3,1 0 0 0 -3,1 v 14 h 6 v -14 a 3,1 0 0 0 -3,-1 z" display="inline" enable-background="new" opacity="1" vector-effect="none"/><g id="g979" stroke-width=".833" display="inline" opacity=".222" transform="matrix(1.2,0,0,1.2,-12.800004,-46.399992)"><g id="g977" stroke-width=".926"><path id="path949" fill="none" stroke="#000" stroke-dasharray="none" stroke-linecap="butt" stroke-linejoin="miter" stroke-miterlimit="4" stroke-opacity="1" stroke-width="1.667" d="M 64,245.33333 V 252"/><path id="path951" fill="none" stroke="#000" stroke-dasharray="none" stroke-linecap="butt" stroke-linejoin="miter" stroke-miterlimit="4" stroke-opacity="1" stroke-width="1.667" d="m 64,212 v 6.66667"/><path id="path953" fill="none" stroke="#000" stroke-dasharray="none" stroke-linecap="butt" stroke-linejoin="miter" stroke-miterlimit="4" stroke-opacity="1" stroke-width="1.667" d="M 64,244.5 V 252"/><path id="path955" fill="none" stroke="#000" stroke-dasharray="none" stroke-linecap="butt" stroke-linejoin="miter" stroke-miterlimit="4" stroke-opacity="1" stroke-width="1.667" d="m 64,212 v 6.66667"/><path id="path957" fill="none" stroke="#000" stroke-dasharray="none" stroke-linecap="butt" stroke-linejoin="miter" stroke-miterlimit="4" stroke-opacity="1" stroke-width="1.667" d="M 57.737324,242.93768 54,249.32051"/><path id="path959" fill="none" stroke="#000" stroke-dasharray="none" stroke-linecap="butt" stroke-linejoin="miter" stroke-miterlimit="4" stroke-opacity="1" stroke-width="1.667" d="M 74,214.67949 70.666665,220.453"/><path id="path961" fill="none" stroke="#000" stroke-dasharray="none" stroke-linecap="butt" stroke-linejoin="miter" stroke-miterlimit="4" stroke-opacity="1" stroke-width="1.667" d="M 52.734749,238.29912 46.679491,242"/><path id="path963" fill="none" stroke="#000" stroke-dasharray="none" stroke-linecap="butt" stroke-linejoin="miter" stroke-miterlimit="4" stroke-opacity="1" stroke-width="1.667" d="m 81.320509,222 -5.773508,3.33334"/><path id="path965" fill="none" stroke="#000" stroke-dasharray="none" stroke-linecap="butt" stroke-linejoin="miter" stroke-miterlimit="4" stroke-opacity="1" stroke-width="1.667" d="M 50.666674,232 H 43.999999"/><path id="path967" fill="none" stroke="#000" stroke-dasharray="none" stroke-linecap="butt" stroke-linejoin="miter" stroke-miterlimit="4" stroke-opacity="1" stroke-width="1.667" d="M 84.000001,232 H 77.333326"/><path id="path969" fill="none" stroke="#000" stroke-dasharray="none" stroke-linecap="butt" stroke-linejoin="miter" stroke-miterlimit="4" stroke-opacity="1" stroke-width="1.667" d="M 52.453001,225.33334 46.679491,222"/><path id="path971" fill="none" stroke="#000" stroke-dasharray="none" stroke-linecap="butt" stroke-linejoin="miter" stroke-miterlimit="4" stroke-opacity="1" stroke-width="1.667" d="m 81.320509,242 -6.191594,-3.48997"/><path id="path973" fill="none" stroke="#000" stroke-dasharray="none" stroke-linecap="butt" stroke-linejoin="miter" stroke-miterlimit="4" stroke-opacity="1" stroke-width="1.667" d="m 57.333336,220.453 -3.333337,-5.77351"/><path id="path975" fill="none" stroke="#000" stroke-dasharray="none" stroke-linecap="butt" stroke-linejoin="miter" stroke-miterlimit="4" stroke-opacity="1" stroke-width="1.667" d="m 74.000001,249.32051 -3.744721,-6.3789"/></g></g><circle id="circle981" cx="-231" cy="64" r="16" fill="url(#radialGradient1040)" fill-opacity="1" stroke="none" stroke-dasharray="none" stroke-dashoffset="0" stroke-linecap="round" stroke-linejoin="round" stroke-miterlimit="4" stroke-opacity="1" stroke-width="8" display="inline" enable-background="new" opacity="1" transform="rotate(-90)" vector-effect="none"/><circle id="circle983" cx="64" cy="232" r="12" fill="#000" fill-opacity="1" stroke="none" stroke-dasharray="none" stroke-dashoffset="0" stroke-linecap="round" stroke-linejoin="round" stroke-miterlimit="4" stroke-opacity="1" stroke-width="8" display="inline" enable-background="new" opacity=".2" vector-effect="none"/><circle id="circle985" cx="-230" cy="-64" r="12" fill="url(#radialGradient1042)" fill-opacity="1" stroke="none" stroke-dasharray="none" stroke-dashoffset="0" stroke-linecap="round" stroke-linejoin="round" stroke-miterlimit="4" stroke-opacity="1" stroke-width="8" display="inline" enable-background="new" opacity="1" transform="matrix(0,-1,-1,0,0,0)" vector-effect="none"/><path id="path987" fill="url(#radialGradient1044)" fill-opacity="1" stroke="none" stroke-dasharray="none" stroke-dashoffset="0" stroke-linecap="round" stroke-linejoin="round" stroke-miterlimit="4" stroke-opacity="1" stroke-width="6.532" marker-end="none" marker-mid="none" marker-start="none" d="m 18.999996,255.00001 a 3,1 0 0 0 -3,1 3,1 0 0 0 3,1 3,1 0 0 0 1,-0.0586 v -0.9414 h 2 a 3,1 0 0 0 -3,-1 z" display="inline" enable-background="new" opacity="1" paint-order="normal" vector-effect="none" style="marker:none"/><path id="path989" fill="url(#radialGradient1046)" fill-opacity="1" stroke="none" stroke-dasharray="none" stroke-dashoffset="0" stroke-linecap="round" stroke-linejoin="round" stroke-miterlimit="4" stroke-opacity="1" stroke-width="8" marker-end="none" marker-mid="none" marker-start="none" d="m 18.999996,247.00001 c -1.65685,0 -3,0.44772 -3,1 v 2 c 0,-0.55228 1.34315,-1 3,-1 1.65685,0 3,0.44772 3,1 v -2 c 0,-0.55228 -1.34315,-1 -3,-1 z m 1.19727,2.91602 c -0.0188,0.003 -0.0377,0.005 -0.0566,0.008 0.0195,-0.003 0.0374,-0.005 0.0566,-0.008 z" display="inline" enable-background="new" opacity="1" paint-order="normal" vector-effect="none" style="marker:none"/><path id="path991" fill="url(#linearGradient1048)" fill-opacity="1" stroke="none" stroke-dasharray="none" stroke-dashoffset="0" stroke-linecap="butt" stroke-linejoin="round" stroke-miterlimit="4" stroke-opacity="1" stroke-width="2" d="m 18.999996,208.00001 a 3,1 0 0 0 -3,1 v 14 h 6 v -14 a 3,1 0 0 0 -3,-1 z" display="inline" enable-background="new" opacity="1" vector-effect="none"/><path id="path993" fill="url(#radialGradient1050)" fill-opacity="1" stroke="none" stroke-dasharray="none" stroke-dashoffset="0" stroke-linecap="round" stroke-linejoin="round" stroke-miterlimit="4" stroke-opacity="1" stroke-width="6.532" marker-end="none" marker-mid="none" marker-start="none" d="m 18.999996,222.00001 a 3,1 0 0 0 -3,1 3,1 0 0 0 3,1 3,1 0 0 0 1,-0.0586 V 223 h 2 a 3,1 0 0 0 -3,-1 z" display="inline" enable-background="new" opacity="1" paint-order="normal" vector-effect="none" style="marker:none"/><path id="path995" fill="url(#radialGradient1052)" fill-opacity="1" stroke="none" stroke-dasharray="none" stroke-dashoffset="0" stroke-linecap="round" stroke-linejoin="round" stroke-miterlimit="4" stroke-opacity="1" stroke-width="8" marker-end="none" marker-mid="none" marker-start="none" d="m 18.999996,214.00001 c -1.65685,0 -3,0.44772 -3,1 v 2 c 0,-0.55228 1.34315,-1 3,-1 1.65685,0 3,0.44772 3,1 v -2 c 0,-0.55228 -1.34315,-1 -3,-1 z m 1.19727,2.91602 c -0.0188,0.003 -0.0377,0.005 -0.0566,0.008 0.0195,-0.003 0.0374,-0.005 0.0566,-0.008 z" display="inline" enable-background="new" opacity="1" paint-order="normal" vector-effect="none" style="marker:none"/></g><circle id="circle1121" cx="-230" cy="64" r="24" fill="url(#linearGradient1207)" fill-opacity="1" stroke="none" stroke-dasharray="none" stroke-dashoffset="0" stroke-linecap="round" stroke-linejoin="round" stroke-miterlimit="4" stroke-opacity="1" stroke-width="8" display="inline" enable-background="new" opacity="1" transform="rotate(-90)" vector-effect="none"/><path id="rect1125" fill="#3d3846" fill-opacity="1" stroke="none" stroke-dasharray="none" stroke-dashoffset="0" stroke-linecap="round" stroke-linejoin="round" stroke-miterlimit="4" stroke-opacity="1" stroke-width="1.06" d="m 68,214 h -8.000031 v 9.99999 l 4,1e-5 v 2 l -4,2 v 17.99997 H 68 v -9.99999 L 63.999969,234 l 4,-2 z" opacity="1" vector-effect="none"/><g id="g1195"><rect stroke-miterlimit="4" style="marker:none" id="rect1128" width="104" height="84" x="-348" y="204" fill="url(#linearGradient1160)" fill-opacity="1" stroke="none" stroke-dasharray="none" stroke-dashoffset="0" stroke-linecap="butt" stroke-linejoin="miter" stroke-opacity="1" stroke-width=".25" marker-end="none" marker-mid="none" marker-start="none" display="inline" enable-background="new" opacity="1" paint-order="normal" rx="8" ry="8"/><rect stroke-miterlimit="4" style="marker:none" id="rect1130" width="104" height="96" x="-348" y="184" fill="#77767b" fill-opacity="1" stroke="none" stroke-dasharray="none" stroke-dashoffset="0" stroke-linecap="butt" stroke-linejoin="miter" stroke-opacity="1" stroke-width=".25" marker-end="none" marker-mid="none" marker-start="none" display="inline" enable-background="new" opacity="1" paint-order="normal" rx="8" ry="8"/><g id="g1138" display="inline" transform="translate(-360,10e-6)"><rect id="rect1132" width="88" height="80" x="-108" y="194" fill="#000" fill-opacity="1" stroke="none" stroke-dasharray="none" stroke-dashoffset="0" stroke-linecap="butt" stroke-linejoin="miter" stroke-miterlimit="4" stroke-opacity="1" stroke-width="2" marker-end="none" marker-mid="none" marker-start="none" display="inline" enable-background="new" opacity=".2" paint-order="normal" rx="3" ry="3" transform="scale(-1,1)" style="marker:none"/><rect id="rect1134" width="6" height="14" x="16" y="244" fill="#5e5c64" fill-opacity="1" stroke="none" stroke-dasharray="none" stroke-dashoffset="0" stroke-linecap="butt" stroke-linejoin="round" stroke-miterlimit="4" stroke-opacity="1" stroke-width="2" display="inline" enable-background="new" opacity="1" vector-effect="none"/><rect id="rect1136" width="6" height="14" x="16" y="210" fill="#5e5c64" fill-opacity="1" stroke="none" stroke-dasharray="none" stroke-dashoffset="0" stroke-linecap="butt" stroke-linejoin="round" stroke-miterlimit="4" stroke-opacity="1" stroke-width="2" display="inline" enable-background="new" opacity="1" vector-effect="none"/></g><rect id="rect1140" width="88" height="80" x="252" y="192" fill="url(#linearGradient1162)" fill-opacity="1" stroke="none" stroke-dasharray="none" stroke-dashoffset="0" stroke-linecap="butt" stroke-linejoin="miter" stroke-miterlimit="4" stroke-opacity="1" stroke-width="2" marker-end="none" marker-mid="none" marker-start="none" display="inline" enable-background="new" opacity="1" paint-order="normal" rx="3" ry="3" transform="scale(-1,1)" style="marker:none"/><circle id="circle1142" cx="-232" cy="-296" r="24" fill="url(#radialGradient1165)" fill-opacity="1" stroke="none" stroke-dasharray="none" stroke-dashoffset="0" stroke-linecap="round" stroke-linejoin="round" stroke-miterlimit="4" stroke-opacity="1" stroke-width="8" display="inline" enable-background="new" opacity="1" transform="rotate(-90)" vector-effect="none"/><path id="path1144" fill="url(#linearGradient1167)" fill-opacity="1" stroke="none" stroke-dasharray="none" stroke-dashoffset="0" stroke-linecap="butt" stroke-linejoin="round" stroke-miterlimit="4" stroke-opacity="1" stroke-width="2" d="m -341,241.00001 a 3,1 0 0 0 -3,1 v 14 h 6 v -14 a 3,1 0 0 0 -3,-1 z" display="inline" enable-background="new" opacity="1" vector-effect="none"/><path id="path1146" fill="url(#radialGradient1169)" fill-opacity="1" stroke="none" stroke-dasharray="none" stroke-dashoffset="0" stroke-linecap="round" stroke-linejoin="round" stroke-miterlimit="4" stroke-opacity="1" stroke-width="6.532" marker-end="none" marker-mid="none" marker-start="none" d="m -341,255.00001 a 3,1 0 0 0 -3,1 3,1 0 0 0 3,1 3,1 0 0 0 1,-0.0586 v -0.9414 h 2 a 3,1 0 0 0 -3,-1 z" display="inline" enable-background="new" opacity="1" paint-order="normal" vector-effect="none" style="marker:none"/><path id="path1148" fill="url(#radialGradient1171)" fill-opacity="1" stroke="none" stroke-dasharray="none" stroke-dashoffset="0" stroke-linecap="round" stroke-linejoin="round" stroke-miterlimit="4" stroke-opacity="1" stroke-width="8" marker-end="none" marker-mid="none" marker-start="none" d="m -341,247.00001 c -1.65685,0 -3,0.44772 -3,1 v 2 c 0,-0.55228 1.34315,-1 3,-1 1.65685,0 3,0.44772 3,1 v -2 c 0,-0.55228 -1.34315,-1 -3,-1 z m 1.19727,2.91602 c -0.0188,0.003 -0.0377,0.005 -0.0566,0.008 0.0195,-0.003 0.0374,-0.005 0.0566,-0.008 z" display="inline" enable-background="new" opacity="1" paint-order="normal" vector-effect="none" style="marker:none"/><path id="path1150" fill="url(#linearGradient1173)" fill-opacity="1" stroke="none" stroke-dasharray="none" stroke-dashoffset="0" stroke-linecap="butt" stroke-linejoin="round" stroke-miterlimit="4" stroke-opacity="1" stroke-width="2" d="m -341,208.00001 a 3,1 0 0 0 -3,1 v 14 h 6 v -14 a 3,1 0 0 0 -3,-1 z" display="inline" enable-background="new" opacity="1" vector-effect="none"/><path id="path1152" fill="url(#radialGradient1175)" fill-opacity="1" stroke="none" stroke-dasharray="none" stroke-dashoffset="0" stroke-linecap="round" stroke-linejoin="round" stroke-miterlimit="4" stroke-opacity="1" stroke-width="6.532" marker-end="none" marker-mid="none" marker-start="none" d="m -341,222.00001 a 3,1 0 0 0 -3,1 3,1 0 0 0 3,1 3,1 0 0 0 1,-0.0586 V 223 h 2 a 3,1 0 0 0 -3,-1 z" display="inline" enable-background="new" opacity="1" paint-order="normal" vector-effect="none" style="marker:none"/><path id="path1154" fill="url(#radialGradient1177)" fill-opacity="1" stroke="none" stroke-dasharray="none" stroke-dashoffset="0" stroke-linecap="round" stroke-linejoin="round" stroke-miterlimit="4" stroke-opacity="1" stroke-width="8" marker-end="none" marker-mid="none" marker-start="none" d="m -341,214.00001 c -1.65685,0 -3,0.44772 -3,1 v 2 c 0,-0.55228 1.34315,-1 3,-1 1.65685,0 3,0.44772 3,1 v -2 c 0,-0.55228 -1.34315,-1 -3,-1 z m 1.19727,2.91602 c -0.0188,0.003 -0.0377,0.005 -0.0566,0.008 0.0195,-0.003 0.0374,-0.005 0.0566,-0.008 z" display="inline" enable-background="new" opacity="1" paint-order="normal" vector-effect="none" style="marker:none"/><circle id="circle1156" cx="-232" cy="-296" r="20" fill="#f6f5f4" fill-opacity="1" stroke="none" stroke-dasharray="none" stroke-dashoffset="0" stroke-linecap="round" stroke-linejoin="round" stroke-miterlimit="4" stroke-opacity="1" stroke-width="6.667" display="inline" enable-background="new" opacity="1" transform="rotate(-90)" vector-effect="none"/><path id="path1158" fill="#3d3846" fill-opacity="1" stroke="none" stroke-dasharray="none" stroke-dashoffset="0" stroke-linecap="round" stroke-linejoin="round" stroke-miterlimit="4" stroke-opacity="1" stroke-width="1.06" d="m -292,220 h -8.00003 v 5.99999 l 4,1e-5 v 2 l -4,2 v 13.99997 H -292 v -5.99999 L -296.00003,236 l 4,-2 z" opacity="1" vector-effect="none"/></g></g></g></svg>