<svg xmlns="http://www.w3.org/2000/svg" xmlns:svg="http://www.w3.org/2000/svg" xmlns:xlink="http://www.w3.org/1999/xlink" id="svg11300" width="128" height="128" display="inline" enable-background="new" version="1.0" viewBox="0 0 128 128"><title id="title4162">Adwaita Icon Template</title><defs id="defs3"><linearGradient id="linearGradient1223"><stop id="stop1211" offset="0" stop-color="#1a5fb4" stop-opacity="1"/><stop id="stop1213" offset=".071" stop-color="#62a0ea" stop-opacity="1"/><stop id="stop1215" offset=".143" stop-color="#3584e4" stop-opacity="1"/><stop id="stop1217" offset=".857" stop-color="#3584e4" stop-opacity="1"/><stop id="stop1219" offset=".929" stop-color="#62a0ea" stop-opacity="1"/><stop id="stop1221" offset="1" stop-color="#1a5fb4" stop-opacity="1"/></linearGradient><linearGradient id="linearGradient1053"><stop id="stop1049" offset="0" stop-color="#fff" stop-opacity="1"/><stop id="stop1051" offset="1" stop-color="#f6f5f4" stop-opacity="1"/></linearGradient><clipPath id="clipPath1609" clipPathUnits="userSpaceOnUse"><path id="path1611" fill="#e74747" stroke="none" stroke-linecap="butt" stroke-linejoin="miter" stroke-opacity="1" stroke-width=".25" d="m 252,116 28,-28 v -8 h -36 v 36 z"/></clipPath><linearGradient id="linearGradient1594" x1="344" x2="338.909" y1="76" y2="70.909" gradientTransform="matrix(0.25,0,0,0.25,180,83)" gradientUnits="userSpaceOnUse" xlink:href="#linearGradient1351-3"/><linearGradient id="linearGradient1351-3"><stop id="stop1347" offset="0" stop-color="#d5d3cf" stop-opacity="1"/><stop id="stop1349-6" offset="1" stop-color="#f6f5f4" stop-opacity="1"/></linearGradient><clipPath id="clipPath1609-3" clipPathUnits="userSpaceOnUse"><path id="path1611-6" fill="#e74747" stroke="none" stroke-linecap="butt" stroke-linejoin="miter" stroke-opacity="1" stroke-width=".25" d="m 252,116 28,-28 v -8 h -36 v 36 z"/></clipPath><linearGradient id="linearGradient1159" x1="8" x2="112" y1="-244" y2="-244" gradientTransform="translate(-613.99999,6)" gradientUnits="userSpaceOnUse" xlink:href="#linearGradient1723"/><linearGradient id="linearGradient1723"><stop id="stop1719" offset="0" stop-color="#d5d3cf" stop-opacity="1"/><stop id="stop1731" offset=".038" stop-color="#f6f5f4" stop-opacity="1"/><stop id="stop1729" offset=".077" stop-color="#d5d3cf" stop-opacity="1"/><stop id="stop1727" offset=".923" stop-color="#d5d3cf" stop-opacity="1"/><stop id="stop1733" offset=".962" stop-color="#eeeeec" stop-opacity="1"/><stop id="stop1721" offset="1" stop-color="#d5d3cf" stop-opacity="1"/></linearGradient><linearGradient id="linearGradient1055" x1="-64" x2="-64" y1="-280" y2="-182" gradientTransform="translate(-490)" gradientUnits="userSpaceOnUse" xlink:href="#linearGradient1053"/><filter id="filter1160" width="1.24" height="1.24" x="-.12" y="-.12" color-interpolation-filters="sRGB"><feGaussianBlur id="feGaussianBlur1162" stdDeviation="1.8"/></filter><linearGradient id="linearGradient1175" x1="42" x2="56" y1="243" y2="243" gradientTransform="translate(490)" gradientUnits="userSpaceOnUse" xlink:href="#linearGradient1223"/><linearGradient id="linearGradient1197" x1="74" x2="88" y1="227" y2="227" gradientTransform="translate(490)" gradientUnits="userSpaceOnUse" xlink:href="#linearGradient1223"/></defs><metadata id="metadata4"/><g id="layer1" display="inline" transform="translate(0,-172)"><g id="layer2" display="none"><text id="context" x="7.856" y="110.047" fill="#000" fill-opacity="1" stroke="none" display="inline" enable-background="new" font-family="Cantarell" font-size="18.301" font-stretch="normal" font-style="normal" font-variant="normal" font-weight="normal" text-anchor="start" writing-mode="lr-tb" xml:space="preserve" style="line-height:125%;-inkscape-font-specification:'Cantarell, Normal';text-align:start"><tspan id="tspan2716" x="7.856" y="110.047">apps</tspan></text><text font-size="18.301" style="line-height:125%;-inkscape-font-specification:'Cantarell, Bold';text-align:start" id="text3021" x="7.265" y="135.846" fill="#000" fill-opacity="1" stroke="none" display="inline" enable-background="new" font-family="Cantarell" font-stretch="normal" font-style="normal" font-variant="normal" font-weight="bold" text-anchor="start" writing-mode="lr-tb" xml:space="preserve"><tspan id="tspan3023" x="7.265" y="135.846">org.gnome.Calendar</tspan></text><rect id="rect13805" width="128" height="128" x="0" y="172" fill="#f0f0f0" fill-opacity="1" fill-rule="nonzero" stroke="none" stroke-width=".5" display="inline" enable-background="accumulate" overflow="visible" visibility="visible" style="marker:none"/><g id="g1168" display="inline" transform="matrix(0.25,0,0,0.25,6.9488522e-8,225)"><rect id="rect1110" width="320" height="448" x="96" y="-180" fill="#2864b0" fill-opacity="1" stroke="none" stroke-dasharray="none" stroke-dashoffset="0" stroke-linecap="butt" stroke-linejoin="miter" stroke-miterlimit="4" stroke-opacity="1" stroke-width="1" marker-end="none" marker-mid="none" marker-start="none" opacity=".1" paint-order="normal" rx="32" ry="32" style="marker:none"/><rect stroke-miterlimit="4" style="marker:none" id="rect1110-8" width="416" height="416" x="48" y="-164" fill="#2864b0" fill-opacity="1" stroke="none" stroke-dasharray="none" stroke-dashoffset="0" stroke-linecap="butt" stroke-linejoin="miter" stroke-opacity="1" stroke-width="1" marker-end="none" marker-mid="none" marker-start="none" display="inline" enable-background="new" opacity=".1" paint-order="normal" rx="32" ry="32"/><rect stroke-miterlimit="4" style="marker:none" id="rect1110-8-9" width="448" height="320" x="32" y="-116" fill="#2864b0" fill-opacity="1" stroke="none" stroke-dasharray="none" stroke-dashoffset="0" stroke-linecap="butt" stroke-linejoin="miter" stroke-opacity="1" stroke-width="1" marker-end="none" marker-mid="none" marker-start="none" display="inline" enable-background="new" opacity=".1" paint-order="normal" rx="32" ry="32"/><circle id="path1142" cx="256" cy="44" r="240" fill="#2864b0" fill-opacity="1" stroke="none" stroke-dasharray="none" stroke-dashoffset="0" stroke-linecap="butt" stroke-linejoin="miter" stroke-miterlimit="4" stroke-opacity="1" stroke-width="1" marker-end="none" marker-mid="none" marker-start="none" opacity=".1" paint-order="normal" style="marker:none"/></g></g><g id="layer9" display="inline"><g id="g997" transform="translate(-220)"><rect stroke-miterlimit="4" style="marker:none" id="rect941" width="104" height="96" x="232" y="194" fill="#1a5fb4" fill-opacity="1" stroke="none" stroke-dasharray="none" stroke-dashoffset="0" stroke-linecap="butt" stroke-linejoin="miter" stroke-opacity="1" stroke-width="8.025" marker-end="none" marker-mid="none" marker-start="none" display="inline" enable-background="new" opacity="1" paint-order="normal" rx="8" ry="8"/><rect stroke-miterlimit="4" style="marker:none" id="rect943" width="104" height="104" x="232" y="184" fill="#3584e4" fill-opacity="1" stroke="none" stroke-dasharray="none" stroke-dashoffset="0" stroke-linecap="butt" stroke-linejoin="miter" stroke-opacity="1" stroke-width="8.353" marker-end="none" marker-mid="none" marker-start="none" display="inline" enable-background="new" opacity="1" paint-order="normal" rx="8" ry="8"/><rect stroke-linejoin="miter" style="marker:none" id="rect945" width="88.125" height="48" x="239.937" y="212" fill="#1a5fb4" fill-opacity="1" stroke="none" stroke-dasharray="none" stroke-dashoffset="0" stroke-linecap="butt" stroke-miterlimit="4" stroke-opacity="1" stroke-width="8.025" marker-end="none" marker-mid="none" marker-start="none" display="inline" enable-background="new" opacity="1" paint-order="normal"/><path id="path947" fill="#edece9" fill-opacity="1" stroke="none" stroke-dasharray="none" stroke-dashoffset="0" stroke-linecap="butt" stroke-linejoin="miter" stroke-miterlimit="4" stroke-opacity="1" stroke-width="8.025" marker-end="none" marker-mid="none" marker-start="none" d="m 244.00006,192 h 80 c 2.216,0 4,1.784 4,4 v 36 l -4,4 h -80 l -4,-4 v -36 c 0,-2.216 1.784,-4 4,-4 z" display="inline" enable-background="new" opacity="1" paint-order="normal" style="marker:none"/><path id="path949" fill="#f3f2f0" fill-opacity="1" stroke="none" stroke-dasharray="none" stroke-dashoffset="0" stroke-linecap="butt" stroke-linejoin="miter" stroke-miterlimit="4" stroke-opacity="1" stroke-width="8.025" marker-end="none" marker-mid="none" marker-start="none" d="m 328.00006,240 v 36 c 0,2.216 -1.784,4 -4,4 h -80 c -2.216,0 -4,-1.784 -4,-4 v -36 l 4,-4 h 80 z" display="inline" enable-background="new" opacity="1" paint-order="normal" style="marker:none"/><path id="path951" fill="#000" fill-opacity="1" stroke="none" stroke-dasharray="none" stroke-dashoffset="0" stroke-linecap="butt" stroke-linejoin="miter" stroke-miterlimit="4" stroke-opacity="1" stroke-width="8.025" marker-end="none" marker-mid="none" marker-start="none" d="m 240.00006,274 v 2 c 0,2.216 1.784,4 4,4 h 80 c 2.216,0 4,-1.784 4,-4 v -2 c 0,2.216 -1.784,4 -4,4 h -80 c -2.216,0 -4,-1.784 -4,-4 z" display="inline" enable-background="new" opacity=".1" paint-order="normal" style="marker:none"/><path id="path953" fill="#241f31" fill-opacity="1" stroke="none" stroke-width=".25" d="m 256,216 -4,8 h 8 v 36 h 10 v -44 z m 21.99999,0 v 20 c 0,8 6.00001,8 10.00001,8 h 14 v 16 h 10 v -24 -20 h -10 v 20 h -12 c -2,0 -2,-2 -2,-2 v -18 z" display="inline" enable-background="new" font-family="Montserrat" font-size="medium" font-stretch="normal" font-style="normal" font-variant="normal" font-weight="bold" letter-spacing="0" text-anchor="start" word-spacing="0" writing-mode="lr-tb" style="line-height:1.25;-inkscape-font-specification:'Montserrat, Bold';font-variant-ligatures:normal;font-variant-caps:normal;font-variant-numeric:normal;font-feature-settings:normal;text-align:start"/><path id="path955" fill="#000" fill-opacity="1" stroke="none" stroke-dasharray="none" stroke-dashoffset="0" stroke-linecap="butt" stroke-linejoin="miter" stroke-miterlimit="4" stroke-opacity="1" stroke-width="8.025" marker-end="none" marker-mid="none" marker-start="none" d="m 328.00006,232 0.0625,-34 c 0.004,-2.216 -1.784,-4 -4,-4 h -80 c -2.216,0 -3.99593,1.784 -4,4 l -0.0625,34 4,4 h 80 z" display="inline" enable-background="new" opacity=".05" paint-order="normal" style="marker:none"/><path id="path957" fill="#fff" fill-opacity="1" stroke="none" stroke-dasharray="none" stroke-dashoffset="0" stroke-linecap="butt" stroke-linejoin="miter" stroke-miterlimit="4" stroke-opacity="1" stroke-width="8.025" marker-end="none" marker-mid="none" marker-start="none" d="m 328.00006,240 0.0625,34 c 0.004,2.216 -1.784,4 -4,4 h -80 c -2.216,0 -3.99593,-1.78399 -4,-4 l -0.0625,-34 4,-4 h 80 z" display="inline" enable-background="new" opacity=".2" paint-order="normal" style="marker:none"/></g><path id="path3120" fill="#a4acb7" fill-opacity="1" stroke="none" stroke-dasharray="none" stroke-dashoffset="0" stroke-linecap="butt" stroke-linejoin="miter" stroke-miterlimit="4" stroke-opacity="1" stroke-width="8.025" marker-end="none" marker-mid="none" marker-start="none" d="m -307,236 -2,40 c -0.2213,4.42647 3.568,8 8,8 h 80 c 4.432,0 8,-3.568 8,-8 l -2,-40 z" display="inline" enable-background="new" opacity="1" paint-order="normal" style="marker:none"/><path id="path3118" fill="#c9ced4" fill-opacity="1" stroke="none" stroke-dasharray="none" stroke-dashoffset="0" stroke-linecap="butt" stroke-linejoin="miter" stroke-miterlimit="4" stroke-opacity="1" stroke-width="8.025" marker-end="none" marker-mid="none" marker-start="none" d="m -307,234 -2,40 c -0.2213,4.42647 3.568,8 8,8 h 80 c 4.432,0 8,-3.568 8,-8 l -2,-40 z" display="inline" enable-background="new" opacity="1" paint-order="normal" style="marker:none"/><path id="rect3071" fill="#d6d9dc" fill-opacity="1" stroke="none" stroke-dasharray="none" stroke-dashoffset="0" stroke-linecap="butt" stroke-linejoin="miter" stroke-miterlimit="4" stroke-opacity="1" stroke-width="8.025" marker-end="none" marker-mid="none" marker-start="none" d="m -301.125,184 h 80.25 c 4.432,0 8,3.568 8,8 l -2.125,40 2.125,40 c 0.2352,4.42576 -3.568,8 -8,8 h -80.25 c -4.432,0 -8,-3.568 -8,-8 l 2.125,-40 -2.125,-40 c -0.2351,-4.42576 3.568,-8 8,-8 z" display="inline" enable-background="new" opacity="1" paint-order="normal" style="marker:none"/><path id="rect3073" fill="#e4e6e8" fill-opacity="1" stroke="none" stroke-dasharray="none" stroke-dashoffset="0" stroke-linecap="butt" stroke-linejoin="miter" stroke-miterlimit="4" stroke-opacity="1" stroke-width="8.025" marker-end="none" marker-mid="none" marker-start="none" d="m -307,232 -2,40 c -0.2213,4.42647 3.568,8 8,8 h 80 c 4.432,0 8,-3.568 8,-8 l -2,-40 z" display="inline" enable-background="new" opacity="1" paint-order="normal" style="marker:none"/><g id="text3140" fill="#000" fill-opacity="1" stroke="none" stroke-width="1" aria-label="18" display="inline" font-family="Montserrat" font-size="235.288" font-stretch="normal" font-style="normal" font-variant="normal" font-weight="bold" letter-spacing="0" text-anchor="start" transform="matrix(0.25,0,0,0.25,-325.25,221.25)" word-spacing="0" writing-mode="lr-tb" style="line-height:1.25;-inkscape-font-specification:'Montserrat, Bold';font-variant-ligatures:normal;font-variant-caps:normal;font-variant-numeric:normal;font-feature-settings:normal;text-align:start"><path id="path3142" stroke-width="1" d="M 138.22343,-35.524817 V -4.9374213 H 171.1637 V 129.17654 h 38.1166 V -35.524817 Z"/><path id="path3144" stroke-width="1" d="m 350.82421,42.590686 c 12.23496,-7.529205 19.29359,-19.058301 19.29359,-33.8814231 0,-28.9403819 -25.88164,-47.0575319 -63.76295,-47.0575319 -37.41074,0 -63.29238,18.11715 -63.29238,47.0575319 0,14.8231221 6.82334,26.3522181 19.0583,33.8814231 -15.76428,7.99978 -24.9405,21.175889 -24.9405,38.822463 0,31.057971 27.52866,50.586851 69.17458,50.586851 41.8812,0 69.64514,-19.52888 69.64514,-50.586851 0,-17.646574 -9.17622,-30.822683 -25.17578,-38.822463 z m -44.46936,-52.939723 c 15.52898,0 25.88164,7.7644923 25.88164,20.705314 0,12.470245 -10.11737,20.234738 -25.88164,20.234738 -15.52899,0 -25.41107,-7.764493 -25.41107,-20.234738 0,-12.9408217 10.11737,-20.705314 25.41107,-20.705314 z m 0,114.349797 c -18.82302,0 -30.5874,-9.176214 -30.5874,-23.764049 0,-14.587835 11.76438,-23.528766 30.5874,-23.528766 19.0583,0 31.05797,8.940931 31.05797,23.528766 0,14.587835 -11.99967,23.764049 -31.05797,23.764049 z"/></g><path id="path3122" fill="#a4acb7" fill-opacity="1" stroke="none" stroke-dasharray="none" stroke-dashoffset="0" stroke-linecap="butt" stroke-linejoin="miter" stroke-miterlimit="4" stroke-opacity="1" stroke-width="8.025" marker-end="none" marker-mid="none" marker-start="none" d="m -434.94,236 -2,40 c -0.2213,4.42647 3.568,8 8,8 h 80 c 4.432,0 8,-3.568 8,-8 l -2,-40 z" display="inline" enable-background="new" opacity="1" paint-order="normal" style="marker:none"/><path id="path3124" fill="#c9ced4" fill-opacity="1" stroke="none" stroke-dasharray="none" stroke-dashoffset="0" stroke-linecap="butt" stroke-linejoin="miter" stroke-miterlimit="4" stroke-opacity="1" stroke-width="8.025" marker-end="none" marker-mid="none" marker-start="none" d="m -434.94,234 -2,40 c -0.2213,4.42647 3.568,8 8,8 h 80 c 4.432,0 8,-3.568 8,-8 l -2,-40 z" display="inline" enable-background="new" opacity="1" paint-order="normal" style="marker:none"/><path id="path3126" fill="#d6d9dc" fill-opacity="1" stroke="none" stroke-dasharray="none" stroke-dashoffset="0" stroke-linecap="butt" stroke-linejoin="miter" stroke-miterlimit="4" stroke-opacity="1" stroke-width="8.025" marker-end="none" marker-mid="none" marker-start="none" d="m -429.065,184 h 80.25 c 4.432,0 8,3.568 8,8 l -2.125,40 2.125,40 c 0.2351,4.42576 -3.568,8 -8,8 h -80.25 c -4.432,0 -8,-3.568 -8,-8 l 2.125,-40 -2.125,-40 c -0.2351,-4.42576 3.568,-8 8,-8 z" display="inline" enable-background="new" opacity="1" paint-order="normal" style="marker:none"/><path id="path3128" fill="#e4e6e8" fill-opacity="1" stroke="none" stroke-dasharray="none" stroke-dashoffset="0" stroke-linecap="butt" stroke-linejoin="miter" stroke-miterlimit="4" stroke-opacity="1" stroke-width="8.025" marker-end="none" marker-mid="none" marker-start="none" d="m -434.94,232 -2,40 c -0.2213,4.42647 3.568,8 8,8 h 80 c 4.432,0 8,-3.568 8,-8 l -2,-40 z" display="inline" enable-background="new" opacity="1" paint-order="normal" style="marker:none"/><g id="g3134" fill="#000" fill-opacity="1" stroke="none" stroke-width=".896" aria-label="18" display="inline" font-family="Cantarell" font-size="218.099" font-stretch="normal" font-style="normal" font-variant="normal" font-weight="bold" letter-spacing="0" text-anchor="start" transform="matrix(0.27905863,0,0,0.27905863,-456.4612,220.82544)" word-spacing="0" writing-mode="lr-tb" style="line-height:1.25;-inkscape-font-specification:'Cantarell, Bold';font-variant-ligatures:normal;font-variant-caps:normal;font-variant-numeric:normal;font-feature-settings:normal;text-align:start"><path id="path3130" stroke-width=".896" d="M 199.38212,95.25323 V -31.026002 h -26.17186 l -44.71027,19.846995 8.50586,21.373687 35.55011,-15.7031173 V 95.25323 H 132.20767 V 119.8984 H 235.80463 V 95.25323 Z"/><path id="path3132" stroke-width=".896" d="m 305.20777,122.07939 c 29.66145,0 53.21612,-18.32031 53.21612,-47.109353 0,-19.192698 -11.55924,-29.007147 -25.29947,-35.332013 9.59635,-6.979163 17.44791,-19.846995 17.44791,-30.0976409 0,-29.6614431 -24.20897,-43.6197691 -47.76365,-43.6197691 -23.33657,0 -46.45505,15.485018 -46.45505,41.0025829 0,15.7031171 6.10677,25.9537631 15.04882,33.1510251 -17.44791,8.723953 -20.71939,26.171861 -20.71939,33.587222 0,31.842436 25.29947,48.417946 54.52471,48.417946 z m 4.36198,-90.947221 c -14.39453,-4.798175 -26.38996,-9.378251 -26.38996,-20.719391 0,-11.7773373 10.03255,-19.8469946 18.5384,-19.8469946 13.52213,0 22.02798,6.1067677 22.02798,20.5012916 0,8.287756 -4.58007,14.612623 -14.17642,20.065094 z m -17.01171,20.065094 c 19.1927,7.415361 39.03969,10.904942 39.03969,23.990873 0,14.176425 -11.77734,22.246082 -26.38996,22.246082 -15.26692,0 -27.69855,-9.37825 -27.69855,-25.081367 0,-6.761064 4.36198,-15.485018 15.04882,-21.155588 z"/></g><path id="path3136" fill="#e4e6e8" fill-opacity=".358" stroke="none" stroke-dasharray="none" stroke-dashoffset="0" stroke-linecap="butt" stroke-linejoin="miter" stroke-miterlimit="4" stroke-opacity="1" stroke-width="8.025" marker-end="none" marker-mid="none" marker-start="none" d="m -434.94,232 -2,40 c -0.2213,4.42647 3.568,8 8,8 h 80 c 4.432,0 8,-3.568 8,-8 l -2,-40 z" display="inline" enable-background="new" opacity="1" paint-order="normal" style="marker:none"/><path id="path902" fill="#e4e6e8" fill-opacity=".346" stroke="none" stroke-dasharray="none" stroke-dashoffset="0" stroke-linecap="butt" stroke-linejoin="miter" stroke-miterlimit="4" stroke-opacity="1" stroke-width="8.025" marker-end="none" marker-mid="none" marker-start="none" d="m -282.4589,232 v 21.54395 h 9.5293 V 232 Z m 22.5502,0 c -3.823,2.00886 -6.0463,5.26429 -6.0463,9.60352 0,7.76449 6.8824,12.64648 17.2939,12.64648 10.4703,0 17.4111,-4.88199 17.4111,-12.64648 0,-4.33916 -2.2231,-7.59465 -6.102,-9.60352 z m 11.2476,3.42676 c 4.7646,0 7.7642,2.23537 7.7642,5.88233 0,3.64695 -2.9996,5.94091 -7.7642,5.94091 -4.7058,0 -7.647,-2.29396 -7.647,-5.94091 0,-3.64696 2.9413,-5.88233 7.647,-5.88233 z" display="inline" enable-background="new" opacity="1" paint-order="normal" style="marker:none"/><rect stroke-miterlimit="4" style="marker:none" id="rect891" width="96" height="96" x="-185" y="188" fill="#2864b0" fill-opacity="1" stroke="none" stroke-dasharray="none" stroke-dashoffset="0" stroke-linecap="butt" stroke-linejoin="miter" stroke-opacity="1" stroke-width="8.025" marker-end="none" marker-mid="none" marker-start="none" display="inline" enable-background="new" opacity="1" paint-order="normal" rx="8" ry="8"/><rect stroke-miterlimit="4" style="marker:none" id="rect893" width="96" height="96" x="-185" y="186" fill="#4a86cf" fill-opacity="1" stroke="none" stroke-dasharray="none" stroke-dashoffset="0" stroke-linecap="butt" stroke-linejoin="miter" stroke-opacity="1" stroke-width="8.025" marker-end="none" marker-mid="none" marker-start="none" display="inline" enable-background="new" opacity="1" paint-order="normal" rx="8" ry="8"/><path id="path895" fill="#edece9" fill-opacity="1" stroke="none" stroke-dasharray="none" stroke-dashoffset="0" stroke-linecap="butt" stroke-linejoin="miter" stroke-miterlimit="4" stroke-opacity="1" stroke-width="8.025" marker-end="none" marker-mid="none" marker-start="none" d="m -177.00012,190 h 80 c 2.216,0 4,1.784 4,4 v 40 h -88 v -40 c 0,-2.216 1.784,-4 4,-4 z" display="inline" enable-background="new" opacity="1" paint-order="normal" style="marker:none"/><path id="path897" fill="#f3f2f0" fill-opacity="1" stroke="none" stroke-dasharray="none" stroke-dashoffset="0" stroke-linecap="butt" stroke-linejoin="miter" stroke-miterlimit="4" stroke-opacity="1" stroke-width="8.025" marker-end="none" marker-mid="none" marker-start="none" d="m -93.00012,234 v 40 c 0,2.216 -1.784,4 -4,4 h -80 c -2.216,0 -4,-1.784 -4,-4 v -39.9375 c 28.516,-0.15041 58.8234,-0.0625 88,-0.0625 z" display="inline" enable-background="new" opacity="1" paint-order="normal" style="marker:none"/><g id="g903" fill="#000" fill-opacity="1" stroke="none" stroke-width="1" aria-label="18" display="inline" font-family="Montserrat" font-size="235.288" font-stretch="normal" font-style="normal" font-variant="normal" font-weight="bold" letter-spacing="0" text-anchor="start" transform="matrix(0.25,0,0,0.25,-201.25012,223.25)" word-spacing="0" writing-mode="lr-tb" style="line-height:1.25;-inkscape-font-specification:'Montserrat, Bold';font-variant-ligatures:normal;font-variant-caps:normal;font-variant-numeric:normal;font-feature-settings:normal;text-align:start"><path id="path899" stroke-width="1" d="M 138.22343,-35.524817 V -4.9374213 H 171.1637 V 129.17654 h 38.1166 V -35.524817 Z"/><path id="path901" stroke-width="1" d="m 350.82421,42.590686 c 12.23496,-7.529205 19.29359,-19.058301 19.29359,-33.8814231 0,-28.9403819 -25.88164,-47.0575319 -63.76295,-47.0575319 -37.41074,0 -63.29238,18.11715 -63.29238,47.0575319 0,14.8231221 6.82334,26.3522181 19.0583,33.8814231 -15.76428,7.99978 -24.9405,21.175889 -24.9405,38.822463 0,31.057971 27.52866,50.586851 69.17458,50.586851 41.8812,0 69.64514,-19.52888 69.64514,-50.586851 0,-17.646574 -9.17622,-30.822683 -25.17578,-38.822463 z m -44.46936,-52.939723 c 15.52898,0 25.88164,7.7644923 25.88164,20.705314 0,12.470245 -10.11737,20.234738 -25.88164,20.234738 -15.52899,0 -25.41107,-7.764493 -25.41107,-20.234738 0,-12.9408217 10.11737,-20.705314 25.41107,-20.705314 z m 0,114.349797 c -18.82302,0 -30.5874,-9.176214 -30.5874,-23.764049 0,-14.587835 11.76438,-23.528766 30.5874,-23.528766 19.0583,0 31.05797,8.940931 31.05797,23.528766 0,14.587835 -11.99967,23.764049 -31.05797,23.764049 z"/></g><path id="path905" fill="#fff" fill-opacity="1" stroke="none" stroke-dasharray="none" stroke-dashoffset="0" stroke-linecap="butt" stroke-linejoin="miter" stroke-miterlimit="4" stroke-opacity="1" stroke-width="8.025" marker-end="none" marker-mid="none" marker-start="none" d="m -93.06262,234 0.125,38 c 0.01,2.21599 -1.784,4 -4,4 h -80 c -2.216,0 -3.9927,-1.78401 -4,-4 l -0.062,-38 z" display="inline" enable-background="new" opacity=".283" paint-order="normal" style="marker:none"/><path id="path907" fill="#c8c6c0" fill-opacity="1" stroke="none" stroke-dasharray="none" stroke-dashoffset="0" stroke-linecap="butt" stroke-linejoin="miter" stroke-miterlimit="4" stroke-opacity="1" stroke-width="8.025" marker-end="none" marker-mid="none" marker-start="none" d="m -181.00012,272 v 2 c 0,2.216 1.784,4 4,4 h 80 c 2.216,0 4,-1.784 4,-4 v -2 c 0,2.216 -1.784,4 -4,4 h -80 c -2.216,0 -4,-1.784 -4,-4 z" display="inline" enable-background="new" opacity="1" paint-order="normal" style="marker:none"/><g id="g1078" transform="translate(-100)"><rect stroke-miterlimit="4" style="marker:none" id="rect977-3" width="104" height="96" x="372" y="190" fill="#b5835a" fill-opacity="1" stroke="none" stroke-dasharray="none" stroke-dashoffset="0" stroke-linecap="butt" stroke-linejoin="miter" stroke-opacity="1" stroke-width="8.025" marker-end="none" marker-mid="none" marker-start="none" display="inline" enable-background="new" opacity="1" paint-order="normal" rx="8" ry="8"/><rect stroke-miterlimit="4" style="marker:none" id="rect929" width="104" height="96" x="372" y="188" fill="#cdab8f" fill-opacity="1" stroke="none" stroke-dasharray="none" stroke-dashoffset="0" stroke-linecap="butt" stroke-linejoin="miter" stroke-opacity="1" stroke-width="8.025" marker-end="none" marker-mid="none" marker-start="none" display="inline" enable-background="new" opacity="1" paint-order="normal" rx="8" ry="8"/><path id="rect931" fill="#3584e4" fill-opacity="1" stroke="none" stroke-dasharray="none" stroke-dashoffset="0" stroke-linecap="butt" stroke-linejoin="miter" stroke-miterlimit="4" stroke-opacity="1" stroke-width="8.025" marker-end="none" marker-mid="none" marker-start="none" d="m 380,184 c -4.432,0 -8,3.568 -8,8 v 12 h 104 v -12 c 0,-4.432 -3.568,-8 -8,-8 z" display="inline" enable-background="new" opacity="1" paint-order="normal" style="marker:none"/><path id="rect918" fill="#d5d3cf" fill-opacity="1" stroke="none" stroke-dasharray="none" stroke-dashoffset="1" stroke-linecap="round" stroke-linejoin="round" stroke-miterlimit="4" stroke-opacity="1" stroke-width=".5" d="m 378.00007,212 v 64 c 0,2.216 1.784,4 4,4 h 84 c 2.216,0 4,-1.784 4,-4 v -64 z" display="inline" enable-background="new" opacity="1"/><path id="path945" fill="#1a5fb4" fill-opacity="1" stroke="none" stroke-dasharray="none" stroke-dashoffset="0" stroke-linecap="butt" stroke-linejoin="miter" stroke-miterlimit="4" stroke-opacity="1" stroke-width="8.025" marker-end="none" marker-mid="none" marker-start="none" d="m 372,200 v 4 h 104 v -4 z" display="inline" enable-background="new" opacity="1" paint-order="normal" style="marker:none"/><path id="path948" fill="#fff" fill-opacity="1" stroke="none" stroke-dasharray="none" stroke-dashoffset="1" stroke-linecap="round" stroke-linejoin="round" stroke-miterlimit="4" stroke-opacity="1" stroke-width=".5" d="m 378.00007,202 v 72 c 0,2.216 1.784,4 4,4 h 84 c 2.216,0 4,-1.784 4,-4 v -72 z" display="inline" enable-background="new" opacity="1"/><path id="path996" fill="#241f31" fill-opacity="1" stroke="none" stroke-width=".25" d="m 396,220 -4,8 h 8 v 36 h 10 v -44 z m 21.99999,0 v 20 c 0,8 6.00001,8 10.00001,8 h 14 v 16 h 10 v -24 -20 h -10 v 20 h -12 c -2,0 -2,-2 -2,-2 v -18 z" display="inline" enable-background="new" font-family="Montserrat" font-size="medium" font-stretch="normal" font-style="normal" font-variant="normal" font-weight="bold" letter-spacing="0" text-anchor="start" word-spacing="0" writing-mode="lr-tb" style="line-height:1.25;-inkscape-font-specification:'Montserrat, Bold';font-variant-ligatures:normal;font-variant-caps:normal;font-variant-numeric:normal;font-feature-settings:normal;text-align:start"/><path id="path950" fill="#d5d3cf" fill-opacity="1" stroke="none" stroke-dasharray="none" stroke-dashoffset="0" stroke-linecap="square" stroke-linejoin="round" stroke-miterlimit="4" stroke-opacity="1" stroke-width="4" d="m 384,206 c -1.10457,0 -2,0.89543 -2,2 0,1.10457 0.89543,2 2,2 1.10457,0 2,-0.89543 2,-2 0,-1.10457 -0.89543,-2 -2,-2 z m 8,0 c -1.10457,0 -2,0.89543 -2,2 0,1.10457 0.89543,2 2,2 1.10457,0 2,-0.89543 2,-2 0,-1.10457 -0.89543,-2 -2,-2 z m 8,0 c -1.10457,0 -2,0.89543 -2,2 0,1.10457 0.89543,2 2,2 1.10457,0 2,-0.89543 2,-2 0,-1.10457 -0.89543,-2 -2,-2 z m 8,0 c -1.10457,0 -2,0.89543 -2,2 0,1.10457 0.89543,2 2,2 1.10457,0 2,-0.89543 2,-2 0,-1.10457 -0.89543,-2 -2,-2 z m 8,0 c -1.10457,0 -2,0.89543 -2,2 0,1.10457 0.89543,2 2,2 1.10457,0 2,-0.89543 2,-2 0,-1.10457 -0.89543,-2 -2,-2 z m 8,0 c -1.10457,0 -2,0.89543 -2,2 0,1.10457 0.89543,2 2,2 1.10457,0 2,-0.89543 2,-2 0,-1.10457 -0.89543,-2 -2,-2 z m 8,0 c -1.10457,0 -2,0.89543 -2,2 0,1.10457 0.89543,2 2,2 1.10457,0 2,-0.89543 2,-2 0,-1.10457 -0.89543,-2 -2,-2 z m 8,0 c -1.10457,0 -2,0.89543 -2,2 0,1.10457 0.89543,2 2,2 1.10457,0 2,-0.89543 2,-2 0,-1.10457 -0.89543,-2 -2,-2 z m 8,0 c -1.10457,0 -2,0.89543 -2,2 0,1.10457 0.89543,2 2,2 1.10457,0 2,-0.89543 2,-2 0,-1.10457 -0.89543,-2 -2,-2 z m 8,0 c -1.10457,0 -2,0.89543 -2,2 0,1.10457 0.89543,2 2,2 1.10457,0 2,-0.89543 2,-2 0,-1.10457 -0.89543,-2 -2,-2 z m 8,0 c -1.10457,0 -2,0.89543 -2,2 0,1.10457 0.89543,2 2,2 1.10457,0 2,-0.89543 2,-2 0,-1.10457 -0.89543,-2 -2,-2 z" opacity="1"/><path id="path926" fill="#f6f5f4" fill-opacity="1" stroke="none" stroke-dasharray="none" stroke-dashoffset="1" stroke-linecap="round" stroke-linejoin="round" stroke-miterlimit="4" stroke-opacity="1" stroke-width=".5" d="m 378,202 v 6 h 4 c 0,-1.10457 0.89543,-2 2,-2 1.10457,0 2,0.89543 2,2 h 4 c 0,-1.10457 0.89543,-2 2,-2 1.10457,0 2,0.89543 2,2 h 4 c 0,-1.10457 0.89543,-2 2,-2 1.10457,0 2,0.89543 2,2 h 4 c 0,-1.10457 0.89543,-2 2,-2 1.10457,0 2,0.89543 2,2 h 4 c 0,-1.10457 0.89543,-2 2,-2 1.10457,0 2,0.89543 2,2 h 4 c 0,-1.10457 0.89543,-2 2,-2 1.10457,0 2,0.89543 2,2 h 4 c 0,-1.10457 0.89543,-2 2,-2 1.10457,0 2,0.89543 2,2 h 4 c 0,-1.10457 0.89543,-2 2,-2 1.10457,0 2,0.89543 2,2 h 4 c 0,-1.10457 0.89543,-2 2,-2 1.10457,0 2,0.89543 2,2 h 4 c 0,-1.10457 0.89543,-2 2,-2 1.10457,0 2,0.89543 2,2 h 4 c 0,-1.10457 0.89543,-2 2,-2 1.10457,0 2,0.89543 2,2 h 4 v -6 z" display="inline" enable-background="new" opacity="1"/></g><g id="g1067" transform="translate(-100)"><rect id="rect1576" width="104" height="60" x="-606" y="-288" fill="#986a44" fill-opacity="1" stroke="none" stroke-dasharray="none" stroke-dashoffset="0" stroke-linecap="butt" stroke-linejoin="miter" stroke-miterlimit="4" stroke-opacity="1" stroke-width="13.578" marker-end="none" marker-mid="none" marker-start="none" clip-path="none" display="inline" enable-background="new" opacity="1" paint-order="normal" rx="8" ry="9.455" transform="scale(-1)" vector-effect="none" style="marker:none"/><rect id="rect1151" width="104" height="40" x="-606" y="-286" fill="url(#linearGradient1159)" fill-opacity="1" stroke="none" stroke-dasharray="none" stroke-dashoffset="0" stroke-linecap="butt" stroke-linejoin="miter" stroke-miterlimit="4" stroke-opacity="1" stroke-width="13.719" marker-end="none" marker-mid="none" marker-start="none" clip-path="none" display="inline" enable-background="new" opacity="1" paint-order="normal" rx="8" ry="8" transform="scale(-1)" vector-effect="none" style="marker:none"/><rect id="rect2638" width="104" height="96" x="-606" y="-280" fill="url(#linearGradient1055)" fill-opacity="1" stroke="none" stroke-dasharray="none" stroke-dashoffset="0" stroke-linecap="butt" stroke-linejoin="miter" stroke-miterlimit="4" stroke-opacity="1" stroke-width="13.578" marker-end="none" marker-mid="none" marker-start="none" clip-path="none" display="inline" enable-background="new" opacity="1" paint-order="normal" rx="8" ry="8" transform="scale(-1)" vector-effect="none" style="marker:none"/><path id="rect1042" fill="#ed333b" fill-opacity="1" stroke="none" stroke-dasharray="none" stroke-dashoffset="0" stroke-linecap="butt" stroke-linejoin="miter" stroke-miterlimit="4" stroke-opacity="1" stroke-width="13.578" marker-end="none" marker-mid="none" marker-start="none" d="m 510,184 c -4.432,0 -8,3.568 -8,8 v 14 h 104 v -14 c 0,-4.432 -3.568,-8 -8,-8 z" clip-path="none" display="inline" enable-background="new" opacity="1" paint-order="normal" vector-effect="none" style="marker:none"/><path id="path1047" fill="#a51d2d" fill-opacity="1" stroke="none" stroke-dasharray="none" stroke-dashoffset="0" stroke-linecap="butt" stroke-linejoin="miter" stroke-miterlimit="4" stroke-opacity="1" stroke-width="13.578" marker-end="none" marker-mid="none" marker-start="none" d="m 502,204 v 2 h 104 v -2 z" clip-path="none" display="inline" enable-background="new" opacity="1" paint-order="normal" vector-effect="none" style="marker:none"/><g id="g1266" fill="#a51d2d" opacity=".5" transform="translate(490)"><rect id="rect1077" width="6" height="2" x="13" y="199" fill="#a51d2d" fill-opacity="1" stroke="none" stroke-dasharray="none" stroke-dashoffset="0" stroke-linecap="square" stroke-linejoin="round" stroke-miterlimit="4" stroke-opacity="1" stroke-width="2" opacity="1" rx="1" ry="1"/><rect id="rect1079" width="6" height="2" x="21" y="199" fill="#a51d2d" fill-opacity="1" stroke="none" stroke-dasharray="none" stroke-dashoffset="0" stroke-linecap="square" stroke-linejoin="round" stroke-miterlimit="4" stroke-opacity="1" stroke-width="2" opacity="1" rx="1" ry="1"/><rect id="rect1081" width="6" height="2" x="29" y="199" fill="#a51d2d" fill-opacity="1" stroke="none" stroke-dasharray="none" stroke-dashoffset="0" stroke-linecap="square" stroke-linejoin="round" stroke-miterlimit="4" stroke-opacity="1" stroke-width="2" opacity="1" rx="1" ry="1"/><rect id="rect1083" width="6" height="2" x="37" y="199" fill="#a51d2d" fill-opacity="1" stroke="none" stroke-dasharray="none" stroke-dashoffset="0" stroke-linecap="square" stroke-linejoin="round" stroke-miterlimit="4" stroke-opacity="1" stroke-width="2" opacity="1" rx="1" ry="1"/><rect id="rect1085" width="6" height="2" x="45" y="199" fill="#a51d2d" fill-opacity="1" stroke="none" stroke-dasharray="none" stroke-dashoffset="0" stroke-linecap="square" stroke-linejoin="round" stroke-miterlimit="4" stroke-opacity="1" stroke-width="2" opacity="1" rx="1" ry="1"/><rect id="rect1087" width="6" height="2" x="53" y="199" fill="#a51d2d" fill-opacity="1" stroke="none" stroke-dasharray="none" stroke-dashoffset="0" stroke-linecap="square" stroke-linejoin="round" stroke-miterlimit="4" stroke-opacity="1" stroke-width="2" opacity="1" rx="1" ry="1"/><rect id="rect1089" width="6" height="2" x="61" y="199" fill="#a51d2d" fill-opacity="1" stroke="none" stroke-dasharray="none" stroke-dashoffset="0" stroke-linecap="square" stroke-linejoin="round" stroke-miterlimit="4" stroke-opacity="1" stroke-width="2" opacity="1" rx="1" ry="1"/><rect id="rect1091" width="6" height="2" x="69" y="199" fill="#a51d2d" fill-opacity="1" stroke="none" stroke-dasharray="none" stroke-dashoffset="0" stroke-linecap="square" stroke-linejoin="round" stroke-miterlimit="4" stroke-opacity="1" stroke-width="2" opacity="1" rx="1" ry="1"/><rect id="rect1093" width="6" height="2" x="77" y="199" fill="#a51d2d" fill-opacity="1" stroke="none" stroke-dasharray="none" stroke-dashoffset="0" stroke-linecap="square" stroke-linejoin="round" stroke-miterlimit="4" stroke-opacity="1" stroke-width="2" opacity="1" rx="1" ry="1"/><rect id="rect1095" width="6" height="2" x="85" y="199" fill="#a51d2d" fill-opacity="1" stroke="none" stroke-dasharray="none" stroke-dashoffset="0" stroke-linecap="square" stroke-linejoin="round" stroke-miterlimit="4" stroke-opacity="1" stroke-width="2" opacity="1" rx="1" ry="1"/><rect id="rect1097" width="6" height="2" x="93" y="199" fill="#a51d2d" fill-opacity="1" stroke="none" stroke-dasharray="none" stroke-dashoffset="0" stroke-linecap="square" stroke-linejoin="round" stroke-miterlimit="4" stroke-opacity="1" stroke-width="2" opacity="1" rx="1" ry="1"/><rect id="rect1099" width="6" height="2" x="101" y="199" fill="#a51d2d" fill-opacity="1" stroke="none" stroke-dasharray="none" stroke-dashoffset="0" stroke-linecap="square" stroke-linejoin="round" stroke-miterlimit="4" stroke-opacity="1" stroke-width="2" opacity="1" rx="1" ry="1"/><rect id="rect1101" width="6" height="2" x="109" y="199" fill="#a51d2d" fill-opacity="1" stroke="none" stroke-dasharray="none" stroke-dashoffset="0" stroke-linecap="square" stroke-linejoin="round" stroke-miterlimit="4" stroke-opacity="1" stroke-width="2" opacity="1" rx="1" ry="1"/></g><g id="g1176" opacity=".4" transform="translate(490)"><path id="path1057" fill="none" fill-rule="evenodd" stroke="#d5d3cf" stroke-dasharray="none" stroke-linecap="butt" stroke-linejoin="miter" stroke-miterlimit="4" stroke-opacity="1" stroke-width="2" d="M 14,267 H 94"/><path id="path1059" fill="none" fill-rule="evenodd" stroke="#d5d3cf" stroke-dasharray="none" stroke-linecap="butt" stroke-linejoin="miter" stroke-miterlimit="4" stroke-opacity="1" stroke-width="2" d="M 14,251 H 114"/><path id="path1061" fill="none" fill-rule="evenodd" stroke="#d5d3cf" stroke-dasharray="none" stroke-linecap="butt" stroke-linejoin="miter" stroke-miterlimit="4" stroke-opacity="1" stroke-width="2" d="M 14,235 H 114"/><path id="path1063" fill="none" fill-rule="evenodd" stroke="#d5d3cf" stroke-dasharray="none" stroke-linecap="butt" stroke-linejoin="miter" stroke-miterlimit="4" stroke-opacity="1" stroke-width="2" d="M 14,219 H 114"/><path id="path1103" fill="none" fill-rule="evenodd" stroke="#d5d3cf" stroke-dasharray="none" stroke-linecap="butt" stroke-linejoin="miter" stroke-miterlimit="4" stroke-opacity="1" stroke-width="2" d="M 89,278 V 208"/><path id="path1106" fill="none" fill-rule="evenodd" stroke="#d5d3cf" stroke-dasharray="none" stroke-linecap="butt" stroke-linejoin="miter" stroke-miterlimit="4" stroke-opacity="1" stroke-width="2" d="M 73,278 V 208"/><path id="path1108" fill="none" fill-rule="evenodd" stroke="#d5d3cf" stroke-dasharray="none" stroke-linecap="butt" stroke-linejoin="miter" stroke-miterlimit="4" stroke-opacity="1" stroke-width="2" d="M 41,278 V 208"/><path id="path1110" fill="none" fill-rule="evenodd" stroke="#d5d3cf" stroke-dasharray="none" stroke-linecap="butt" stroke-linejoin="miter" stroke-miterlimit="4" stroke-opacity="1" stroke-width="2" d="M 25,278 V 208"/><path id="path1118" fill="none" fill-rule="evenodd" stroke="#d5d3cf" stroke-dasharray="none" stroke-linecap="butt" stroke-linejoin="miter" stroke-miterlimit="4" stroke-opacity="1" stroke-width="2" d="M 105,258 V 208"/><path id="path1147" fill="none" fill-rule="evenodd" stroke="#d5d3cf" stroke-dasharray="none" stroke-linecap="butt" stroke-linejoin="miter" stroke-miterlimit="4" stroke-opacity="1" stroke-width="2" d="M 57,278 V 208"/></g><path id="rect1142" fill="#000" fill-opacity="1" stroke="none" stroke-dasharray="none" stroke-dashoffset="0" stroke-linecap="butt" stroke-linejoin="miter" stroke-miterlimit="4" stroke-opacity="1" stroke-width=".5" marker-end="none" marker-mid="none" marker-start="none" d="m 264.72727,88 h 15.63636 c 5.64073,0 10.18182,4.541091 10.18182,10.181818 v 15.636362 c 0,5.64073 -4.54109,10.18182 -10.18182,10.18182 h -15.63636 c -5.64073,0 -10.18182,-4.54109 -10.18182,-10.18182 V 98.181818 C 254.54545,92.541091 259.08654,88 264.72727,88 Z" clip-path="url(#clipPath1609-3)" display="inline" enable-background="new" filter="url(#filter1160)" opacity=".2" paint-order="normal" transform="matrix(0,0.78571429,0.78571429,0,514.85714,60.000001)" style="marker:none"/><rect stroke-opacity="1" style="marker:none" id="rect1498" width="36" height="36" x="252" y="88" fill="url(#linearGradient1594)" fill-opacity="1" stroke="none" stroke-dasharray="none" stroke-dashoffset="0" stroke-linecap="butt" stroke-linejoin="miter" stroke-miterlimit="4" stroke-width=".5" marker-end="none" marker-mid="none" marker-start="none" clip-path="url(#clipPath1609-3)" display="inline" enable-background="new" opacity="1" paint-order="normal" rx="10.182" ry="10.182" transform="matrix(0,0.78571429,0.78571429,0,514.85714,60.000001)"/><rect id="rect1186" width="14" height="14" x="532" y="236" fill="url(#linearGradient1175)" fill-opacity="1" stroke="none" stroke-dasharray="none" stroke-dashoffset="0" stroke-linecap="square" stroke-linejoin="round" stroke-miterlimit="4" stroke-opacity="1" stroke-width="2" opacity="1" rx="2" ry="2"/><rect id="rect1184" width="14" height="14" x="564" y="220" fill="url(#linearGradient1197)" fill-opacity="1" stroke="none" stroke-dasharray="none" stroke-dashoffset="0" stroke-linecap="square" stroke-linejoin="round" stroke-miterlimit="4" stroke-opacity="1" stroke-width="2" opacity="1" rx="2" ry="2"/><rect id="rect1188" width="14" height="14" x="532" y="234" fill="#62a0ea" fill-opacity="1" stroke="none" stroke-dasharray="none" stroke-dashoffset="0" stroke-linecap="square" stroke-linejoin="round" stroke-miterlimit="4" stroke-opacity="1" stroke-width="2" opacity="1" rx="2" ry="2"/><rect stroke-opacity="1" style="marker:none" id="rect1165" width="36" height="36" x="252" y="88" fill="#f6f5f4" fill-opacity="1" stroke="none" stroke-dasharray="none" stroke-dashoffset="0" stroke-linecap="butt" stroke-linejoin="miter" stroke-miterlimit="4" stroke-width=".5" marker-end="none" marker-mid="none" marker-start="none" clip-path="url(#clipPath1609-3)" display="inline" enable-background="new" opacity="1" paint-order="normal" rx="10.182" ry="10.182" transform="matrix(0,-0.78571429,-0.78571429,0,675.14286,478)"/><rect id="rect1207" width="14" height="14" x="564" y="218" fill="#62a0ea" fill-opacity="1" stroke="none" stroke-dasharray="none" stroke-dashoffset="0" stroke-linecap="square" stroke-linejoin="round" stroke-miterlimit="4" stroke-opacity="1" stroke-width="2" opacity="1" rx="2" ry="2"/></g></g></g></svg>