<svg xmlns="http://www.w3.org/2000/svg" xmlns:svg="http://www.w3.org/2000/svg" xmlns:xlink="http://www.w3.org/1999/xlink" id="svg11300" width="128" height="128" display="inline" enable-background="new" version="1.0" viewBox="0 0 128 128"><title id="title4162">Adwaita Icon Template</title><defs id="defs3"><linearGradient id="linearGradient1383" x2="1" gradientTransform="matrix(0,17.468323,-34.936646,0,96.936648,257.5317)" gradientUnits="userSpaceOnUse" xlink:href="#paint3_linear-2-6-5"/><linearGradient id="paint3_linear-2-6-5" x2="1" gradientTransform="matrix(0,6,-12,0,-64,209.99687)" gradientUnits="userSpaceOnUse"><stop id="stop91-0-7-4" stop-color="#C01C27"/><stop id="stop93-2-5-7" offset="1" stop-color="#E01B24"/></linearGradient><linearGradient id="linearGradient888" x2="1" gradientTransform="matrix(0,6,-12,0,-264,209.99687)" gradientUnits="userSpaceOnUse" xlink:href="#paint3_linear-2-6-5"/></defs><metadata id="metadata4"/><g id="layer1" display="inline" transform="translate(0,-172)"><g id="layer2" display="none"><text id="context" x="7.95" y="148.652" fill="#000" fill-opacity="1" stroke="none" stroke-width=".333" display="inline" enable-background="new" font-family="Cantarell" font-size="5.333" font-stretch="normal" font-style="normal" font-variant="normal" font-weight="normal" text-anchor="start" writing-mode="lr-tb" xml:space="preserve" style="line-height:125%;-inkscape-font-specification:'Cantarell, Normal';text-align:start"><tspan id="tspan2716" x="7.95" y="148.652" stroke-width=".333" font-size="5.333">apps</tspan></text><text id="text3021" x="7.753" y="157.234" fill="#000" fill-opacity="1" stroke="none" stroke-width=".333" display="inline" enable-background="new" font-family="Cantarell" font-size="5.333" font-stretch="normal" font-style="normal" font-variant="normal" font-weight="bold" text-anchor="start" writing-mode="lr-tb" xml:space="preserve" style="line-height:125%;-inkscape-font-specification:'Cantarell, Bold';text-align:start"><tspan id="tspan3023" x="7.753" y="157.234" stroke-width=".333" font-size="5.333">org.gnome.Social</tspan></text><rect id="rect13805" width="128" height="128" x="0" y="172" fill="#f0f0f0" fill-opacity="1" fill-rule="nonzero" stroke="none" stroke-width=".5" display="inline" enable-background="accumulate" overflow="visible" visibility="visible" style="marker:none"/><g id="g1168" transform="matrix(0.25,0,0,0.25,6.9488522e-8,225)"><circle id="path1142" cx="256" cy="44" r="240" fill="#2864b0" fill-opacity="1" stroke="none" stroke-dasharray="none" stroke-dashoffset="0" stroke-linecap="butt" stroke-linejoin="miter" stroke-miterlimit="4" stroke-opacity="1" stroke-width="1" marker-end="none" marker-mid="none" marker-start="none" opacity=".1" paint-order="normal" style="marker:none"/><rect id="rect1110" width="320" height="448" x="96" y="-180" fill="#2864b0" fill-opacity="1" stroke="none" stroke-dasharray="none" stroke-dashoffset="0" stroke-linecap="butt" stroke-linejoin="miter" stroke-miterlimit="4" stroke-opacity="1" stroke-width="1" marker-end="none" marker-mid="none" marker-start="none" opacity=".1" paint-order="normal" rx="32" ry="32" style="marker:none"/><rect stroke-miterlimit="4" style="marker:none" id="rect1110-8" width="416" height="416" x="48" y="-164" fill="#2864b0" fill-opacity="1" stroke="none" stroke-dasharray="none" stroke-dashoffset="0" stroke-linecap="butt" stroke-linejoin="miter" stroke-opacity="1" stroke-width="1" marker-end="none" marker-mid="none" marker-start="none" display="inline" enable-background="new" opacity=".1" paint-order="normal" rx="32" ry="32"/><rect stroke-miterlimit="4" style="marker:none" id="rect1110-8-9" width="448" height="320" x="32" y="-116" fill="#2864b0" fill-opacity="1" stroke="none" stroke-dasharray="none" stroke-dashoffset="0" stroke-linecap="butt" stroke-linejoin="miter" stroke-opacity="1" stroke-width="1" marker-end="none" marker-mid="none" marker-start="none" display="inline" enable-background="new" opacity=".1" paint-order="normal" rx="32" ry="32"/></g></g><g id="layer9" display="inline"><rect id="rect895" width="80" height="80" x="8" y="180" fill="#3584e4" stroke-width="2.857" display="inline" enable-background="new" rx="37.349" ry="37.349"/><circle id="path848" cx="-402" cy="220" r="40" fill="#1c71d8" fill-opacity="1" stroke="none" stroke-dasharray="none" stroke-dashoffset="0" stroke-linecap="round" stroke-linejoin="round" stroke-miterlimit="4" stroke-opacity="1" stroke-width="1" opacity="1" vector-effect="none"/><path id="path930" fill="#154d92" fill-opacity="1" stroke-width="3" d="m 25.999996,207 c 0,-1.65687 1.34316,-3 3,-3 1.65684,0 3,1.34313 3,3 v 5 h -6 z" display="inline" enable-background="new"/><path id="path932" fill="#154d92" fill-opacity="1" stroke-width="3" d="m 43.999998,207 c 0,-1.65687 1.34316,-3 2.999998,-3 1.65684,0 3,1.34313 3,3 v 5 h -5.999998 z" display="inline" enable-background="new"/><path id="path934" fill="#fff" fill-opacity="1" stroke="none" stroke-dasharray="none" stroke-dashoffset="0" stroke-linecap="round" stroke-linejoin="round" stroke-miterlimit="4" stroke-opacity="1" stroke-width="4" d="m 45.999996,218 a 8,8 0 0 1 -4,6.9282 8,8 0 0 1 -8,0 8,8 0 0 1 -4,-6.9282" opacity="1" vector-effect="none"/><rect id="rect1371" width="80" height="80" x="40" y="212" fill="#f5c211" stroke-width="2.857" display="inline" enable-background="new" rx="37.349" ry="37.349"/><circle id="circle850" cx="-370" cy="252" r="40" fill="#f8e45c" fill-opacity="1" stroke="none" stroke-dasharray="none" stroke-dashoffset="0" stroke-linecap="round" stroke-linejoin="round" stroke-miterlimit="4" stroke-opacity="1" stroke-width="1" opacity="1" vector-effect="none"/><g id="g886" display="inline" transform="translate(180.17784,-105.99687)"><rect id="rect876" width="28" height="28" x="-283.928" y="193.997" fill="#f5c211" display="inline" enable-background="new" rx="13.072" ry="13.072"/><path id="path878" fill="url(#linearGradient888)" d="m -276,211 h 12 v 0.99687 c 0,2.20914 -1.7909,4 -4,4 h -4 c -2.20914,0 -4,-1.79086 -4,-4 z" display="inline" enable-background="new"/><rect id="rect880" width="12" height="2" x="-276" y="209.997" fill="#fff" display="inline" enable-background="new"/><path id="path882" fill="#b45600" d="m -276,204.99687 c 0,-0.55229 0.44772,-1 1,-1 0.55228,0 1,0.44771 1,1 v 3 h -2 z" display="inline" enable-background="new"/><path id="path884" fill="#b45600" d="m -266,204.99687 c 0,-0.55229 0.44772,-1 1,-1 0.55228,0 1,0.44771 1,1 v 3 h -2 z" display="inline" enable-background="new"/></g><rect id="rect1375" width="28" height="4" x="70" y="254" fill="#fff" stroke-width="2.449" display="inline" enable-background="new"/><path id="path1377" fill="#b45600" stroke-width="3" d="m 70,239 c 0,-1.65687 1.34316,-3 3,-3 1.65684,0 3,1.34313 3,3 v 9 h -6 z" display="inline" enable-background="new"/><path id="path1379" fill="#b45600" stroke-width="3" d="m 92.000002,239 c 0,-1.65687 1.34316,-3 2.999998,-3 1.65684,0 3,1.34313 3,3 v 9 h -5.999998 z" display="inline" enable-background="new"/><g id="g906" fill="#e01b24" transform="translate(4,-4)"><path id="path897" fill="#e01b24" fill-opacity="1" stroke="none" stroke-dasharray="none" stroke-dashoffset="0" stroke-linecap="round" stroke-linejoin="round" stroke-miterlimit="4" stroke-opacity="1" stroke-width="1.6" d="M 78.017586,276 A 12,12 0 0 1 69.532304,272.48528 12,12 0 0 1 66.017586,264 l 12,0 z" opacity="1" vector-effect="none"/><path id="path899" fill="#e01b24" fill-opacity="1" stroke="none" stroke-dasharray="none" stroke-dashoffset="0" stroke-linecap="round" stroke-linejoin="round" stroke-miterlimit="4" stroke-opacity="1" stroke-width="1.6" d="M -82,276 A 12,12 0 0 1 -90.485281,272.48528 12,12 0 0 1 -94,264 l 12,0 z" opacity="1" transform="scale(-1,1)" vector-effect="none"/><rect id="rect901" width="4" height="13" x="78" y="-276" fill="#e01b24" stroke-width="2.55" display="inline" enable-background="new" transform="scale(1,-1)"/></g><rect id="rect908" width="28" height="2" x="70" y="258" fill="#e01b24" fill-opacity="1" stroke-width="1.732" display="inline" enable-background="new"/><rect id="rect961" width="80" height="80" x="-312" y="180" fill="#3584e4" stroke-width="2.857" display="inline" enable-background="new" rx="37.349" ry="37.349"/><path id="path963" fill="#1a5fb4" stroke-width="3" d="m -294,208 c 0,-1.65687 1.34316,-3 3,-3 1.65684,0 3,1.34313 3,3 v 5 h -6 z" display="inline" enable-background="new"/><path id="path965" fill="#1a5fb4" stroke-width="3" d="m -276,208 c 0,-1.65687 1.34316,-3 3,-3 1.65684,0 3,1.34313 3,3 v 5 h -6 z" display="inline" enable-background="new"/><path id="path967" fill="#fff" fill-opacity="1" stroke="none" stroke-dasharray="none" stroke-dashoffset="0" stroke-linecap="round" stroke-linejoin="round" stroke-miterlimit="4" stroke-opacity="1" stroke-width="4" d="m -274,219 a 8,8 0 0 1 -4,6.9282 8,8 0 0 1 -8,0 8,8 0 0 1 -4,-6.9282" opacity="1" vector-effect="none"/><rect id="rect969" width="80" height="80" x="-280" y="212" fill="#f5c211" stroke-width="2.857" display="inline" enable-background="new" rx="37.349" ry="37.349"/><rect id="rect971" width="36" height="4" x="-258" y="256" fill="#fff" stroke-width="2.449" display="inline" enable-background="new"/><path id="path973" fill="#b45600" stroke-width="3" d="m -258,241 c 0,-1.65687 1.34316,-3 3,-3 1.65684,0 3,1.34313 3,3 v 9 h -6 z" display="inline" enable-background="new"/><path id="path975" fill="#b45600" stroke-width="3" d="m -228,241 c 0,-1.65687 1.34316,-3 3,-3 1.65684,0 3,1.34313 3,3 v 9 h -6 z" display="inline" enable-background="new"/><g id="g983" fill="#e01b24" transform="translate(-320,-2)"><path id="path977" fill="#e01b24" fill-opacity="1" stroke="none" stroke-dasharray="none" stroke-dashoffset="0" stroke-linecap="round" stroke-linejoin="round" stroke-miterlimit="4" stroke-opacity="1" stroke-width="1.6" d="M 74.017586,276 A 12,12 0 0 1 65.532304,272.48528 12,12 0 0 1 62.017586,264 l 12,0 z" opacity="1" vector-effect="none"/><path id="path979" fill="#e01b24" fill-opacity="1" stroke="none" stroke-dasharray="none" stroke-dashoffset="0" stroke-linecap="round" stroke-linejoin="round" stroke-miterlimit="4" stroke-opacity="1" stroke-width="1.6" d="M -86,276 A 12,12 0 0 1 -94.485281,272.48528 12,12 0 0 1 -98,264 l 12,0 z" opacity="1" transform="scale(-1,1)" vector-effect="none"/><rect id="rect981" width="12" height="13" x="74" y="-276" fill="#e01b24" stroke-width="2.55" display="inline" enable-background="new" transform="scale(1,-1)"/></g><rect id="rect985" width="36" height="2" x="-258" y="260" fill="#e01b24" fill-opacity="1" stroke-width="1.732" display="inline" enable-background="new"/></g></g></svg>