<svg xmlns="http://www.w3.org/2000/svg" xmlns:svg="http://www.w3.org/2000/svg" xmlns:xlink="http://www.w3.org/1999/xlink" id="svg11300" width="128" height="128" display="inline" enable-background="new" version="1.0" viewBox="0 0 128 128"><title id="title4162">Adwaita Icon Template</title><defs id="defs3"><linearGradient id="linearGradient1398"><stop id="stop1394" offset="0" stop-color="#26a269" stop-opacity="1"/><stop id="stop1404" offset=".111" stop-color="#33d17a" stop-opacity="1"/><stop id="stop1402" offset=".222" stop-color="#26a269" stop-opacity="1"/><stop id="stop1396" offset="1" stop-color="#26a269" stop-opacity="1"/></linearGradient><linearGradient id="linearGradient1384"><stop id="stop1380" offset="0" stop-color="#1e8254" stop-opacity="1"/><stop id="stop1392" offset=".073" stop-color="#33d17a" stop-opacity="1"/><stop id="stop1388" offset=".185" stop-color="#26a269" stop-opacity="1"/><stop id="stop1390" offset=".768" stop-color="#2ec27e" stop-opacity="1"/><stop id="stop1382" offset="1" stop-color="#1e8254" stop-opacity="1"/></linearGradient><linearGradient id="linearGradient1290"><stop id="stop1286" offset="0" stop-color="#26a269" stop-opacity="0"/><stop id="stop1294" offset=".7" stop-color="#26a269" stop-opacity="0"/><stop id="stop1288" offset="1" stop-color="#26a269" stop-opacity="1"/></linearGradient><linearGradient id="linearGradient1195"><stop id="stop1191" offset="0" stop-color="#8ff0a4" stop-opacity="1"/><stop id="stop1193" offset="1" stop-color="#33d17a" stop-opacity="1"/></linearGradient><linearGradient id="linearGradient1087"><stop id="stop1083" offset="0" stop-color="#8ff0a4" stop-opacity="1"/><stop id="stop1085" offset="1" stop-color="#33d17a" stop-opacity="1"/></linearGradient><linearGradient id="linearGradient1229"><stop id="stop1217" offset="0" stop-color="#26a269" stop-opacity="1"/><stop id="stop1219" offset=".037" stop-color="#2ec27e" stop-opacity="1"/><stop id="stop1221" offset=".074" stop-color="#26a269" stop-opacity="1"/><stop id="stop1223" offset=".849" stop-color="#26a269" stop-opacity="1"/><stop id="stop1225" offset=".926" stop-color="#2ec27e" stop-opacity="1"/><stop id="stop1227" offset="1" stop-color="#26a269" stop-opacity="1"/></linearGradient><linearGradient id="linearGradient1199"><stop id="stop1195" offset="0" stop-color="#26a269" stop-opacity="1"/><stop id="stop1203" offset=".037" stop-color="#2ec27e" stop-opacity="1"/><stop id="stop1205" offset=".074" stop-color="#26a269" stop-opacity="1"/><stop id="stop1207" offset=".849" stop-color="#26a269" stop-opacity="1"/><stop id="stop1209" offset=".926" stop-color="#2ec27e" stop-opacity="1"/><stop id="stop1197" offset="1" stop-color="#26a269" stop-opacity="1"/></linearGradient><linearGradient id="linearGradient1201" x1="12" x2="120" y1="69.434" y2="69.434" gradientTransform="translate(-240,172)" gradientUnits="userSpaceOnUse" xlink:href="#linearGradient1199"/><linearGradient id="linearGradient1215" x1="76" x2="184" y1="68" y2="68" gradientTransform="translate(-240,172)" gradientUnits="userSpaceOnUse" xlink:href="#linearGradient1229"/><radialGradient id="radialGradient1089" cx="87.882" cy="15.896" r="20" fx="87.882" fy="15.896" gradientTransform="matrix(2.31875,0,0,1.2,-116.02604,168.8)" gradientUnits="userSpaceOnUse" xlink:href="#linearGradient1195"/><radialGradient id="radialGradient1089-7" cx="87.882" cy="15.896" r="20" fx="87.882" fy="15.896" gradientTransform="matrix(0,2.31875,1.2,0,-3.125818,53.97393)" gradientUnits="userSpaceOnUse" xlink:href="#linearGradient1087"/><radialGradient id="radialGradient1292" cx="87.684" cy="195.789" r="18" fx="87.684" fy="195.789" gradientTransform="matrix(1.742153,5.0633771e-7,-3.8735892e-7,1.3327834,-66.43777,-65.623181)" gradientUnits="userSpaceOnUse" xlink:href="#linearGradient1290"/><radialGradient id="radialGradient1292-1" cx="92.98" cy="192.248" r="18" fx="92.98" fy="192.248" gradientTransform="matrix(1.3956055,0,0,1.5684857,-103.83527,-41.02066)" gradientUnits="userSpaceOnUse" xlink:href="#linearGradient1290"/><linearGradient id="linearGradient1386" x1="8.074" x2="115.994" y1="246.034" y2="246.034" gradientUnits="userSpaceOnUse" xlink:href="#linearGradient1384"/><linearGradient id="linearGradient1400" x1="80" x2="116" y1="202" y2="202" gradientUnits="userSpaceOnUse" xlink:href="#linearGradient1398"/></defs><metadata id="metadata4"/><g id="layer1" display="inline" transform="translate(0,-172)"><g id="layer2" display="none"><text id="context" x="7.906" y="145.349" fill="#000" fill-opacity="1" stroke="none" stroke-width=".643" display="inline" enable-background="new" font-family="Cantarell" font-size="11.774" font-stretch="normal" font-style="normal" font-variant="normal" font-weight="normal" text-anchor="start" writing-mode="lr-tb" xml:space="preserve" style="line-height:125%;-inkscape-font-specification:'Cantarell, Normal';text-align:start"><tspan id="tspan2716" x="7.906" y="145.349" stroke-width=".643">apps</tspan></text><text id="text3021" x="7.526" y="161.946" fill="#000" fill-opacity="1" stroke="none" stroke-width=".643" display="inline" enable-background="new" font-family="Cantarell" font-size="11.774" font-stretch="normal" font-style="normal" font-variant="normal" font-weight="bold" text-anchor="start" writing-mode="lr-tb" xml:space="preserve" style="line-height:125%;-inkscape-font-specification:'Cantarell, Bold';text-align:start"><tspan id="tspan3023" x="7.526" y="161.946" stroke-width=".643">org.gnome.Calls</tspan></text><rect id="rect13805" width="128" height="128" x="0" y="172" fill="#f0f0f0" fill-opacity="1" fill-rule="nonzero" stroke="none" stroke-width=".5" display="inline" enable-background="accumulate" overflow="visible" visibility="visible" style="marker:none"/><g id="g1168" display="inline" transform="matrix(0.25,0,0,0.25,6.9488522e-8,225)"><rect id="rect1110" width="320" height="448" x="96" y="-180" fill="#2864b0" fill-opacity="1" stroke="none" stroke-dasharray="none" stroke-dashoffset="0" stroke-linecap="butt" stroke-linejoin="miter" stroke-miterlimit="4" stroke-opacity="1" stroke-width="1" marker-end="none" marker-mid="none" marker-start="none" opacity=".1" paint-order="normal" rx="32" ry="32" style="marker:none"/><rect stroke-miterlimit="4" style="marker:none" id="rect1110-8" width="416" height="416" x="48" y="-164" fill="#2864b0" fill-opacity="1" stroke="none" stroke-dasharray="none" stroke-dashoffset="0" stroke-linecap="butt" stroke-linejoin="miter" stroke-opacity="1" stroke-width="1" marker-end="none" marker-mid="none" marker-start="none" display="inline" enable-background="new" opacity=".1" paint-order="normal" rx="32" ry="32"/><rect stroke-miterlimit="4" style="marker:none" id="rect1110-8-9" width="448" height="320" x="32" y="-116" fill="#2864b0" fill-opacity="1" stroke="none" stroke-dasharray="none" stroke-dashoffset="0" stroke-linecap="butt" stroke-linejoin="miter" stroke-opacity="1" stroke-width="1" marker-end="none" marker-mid="none" marker-start="none" display="inline" enable-background="new" opacity=".1" paint-order="normal" rx="32" ry="32"/><circle id="path1142" cx="256" cy="44" r="240" fill="#2864b0" fill-opacity="1" stroke="none" stroke-dasharray="none" stroke-dashoffset="0" stroke-linecap="butt" stroke-linejoin="miter" stroke-miterlimit="4" stroke-opacity="1" stroke-width="1" marker-end="none" marker-mid="none" marker-start="none" opacity=".1" paint-order="normal" style="marker:none"/></g></g><g id="layer9" display="inline"><path id="path1166" fill="url(#linearGradient1201)" fill-opacity="1" stroke="none" stroke-dasharray="none" stroke-dashoffset="0" stroke-linecap="butt" stroke-linejoin="round" stroke-miterlimit="4" stroke-opacity="1" stroke-width="32" d="m -120.08789,190.86719 c -1.53805,51.54508 -43.52392,92.66685 -95.08984,93.13281 h -0.002 c -0.27338,0.0148 -0.54682,0.0285 -0.82032,0.041 h -4 c -4.432,0 -8,-3.568 -8,-8 V 284 c 0,4.432 3.568,8 8,8 h 4 c 0.2735,-0.0125 0.54694,-0.0262 0.82032,-0.041 h 0.002 C -162.49578,291.50773 -120.02058,248.68388 -120,196 v -4 c -0.002,-0.22957 -0.0136,-0.45894 -0.0352,-0.6875 -0.0127,-0.15008 -0.0317,-0.29787 -0.0527,-0.44531 z" opacity="1" vector-effect="none"/><path id="path1211" fill="url(#linearGradient1215)" fill-opacity="1" stroke="none" stroke-dasharray="none" stroke-dashoffset="0" stroke-linecap="butt" stroke-linejoin="round" stroke-miterlimit="4" stroke-opacity="1" stroke-width="32" d="M -164,208.04102 V 216 c 0,4.432 3.568,8 8,8 h 30.2832 c 1.22982,-3.23608 2.28233,-6.02802 2.87139,-7.95898 H -156 c -4.432,0 -8,-3.568 -8,-8 z" opacity="1" vector-effect="none"/><path id="path851" fill="#26a269" fill-opacity="1" stroke="none" stroke-dasharray="none" stroke-dashoffset="0" stroke-linecap="round" stroke-linejoin="round" stroke-miterlimit="4" stroke-opacity="1" stroke-width="4" d="m 174,236 v 2 c 0,33.24 26.76,60 60,60 33.24,0 60,-26.76 60,-60 v -2 z" opacity="1"/><circle id="circle853" cx="234" cy="236" r="60" fill="#33d17a" fill-opacity="1" stroke="none" stroke-dasharray="none" stroke-linejoin="round" stroke-miterlimit="4" stroke-opacity="1" stroke-width=".5" display="inline" enable-background="new" opacity="1"/><path id="path855" fill="#26a269" fill-opacity="1" stroke="none" stroke-dasharray="none" stroke-dashoffset="0" stroke-linecap="butt" stroke-linejoin="round" stroke-miterlimit="4" stroke-opacity="1" stroke-width="1" d="m 245.99993,206 c -2.216,0 -4,1.784 -4,4 v 6 4 c 0,2.216 1.784,4 4,4 h 2.75342 c -3.59647,14.11087 -14.64255,25.15695 -28.75342,28.75342 V 250 c 0,-2.216 -1.784,-4 -4,-4 h -6 -4 c -2.216,0 -4,1.784 -4,4 v 12 4 c 0,2.216 1.784,4 4,4 h 4 c 30.83319,0 56,-25.16681 56,-56 v -2 -2 c 0.0436,-2.21557 -1.784,-4 -4,-4 h -3.99999 z" opacity="1"/><path id="path857" fill="#fff" fill-opacity="1" stroke="none" stroke-dasharray="none" stroke-dashoffset="0" stroke-linecap="butt" stroke-linejoin="round" stroke-miterlimit="4" stroke-opacity="1" stroke-width="1" d="m 245.99993,204 c -2.216,0 -4,1.784 -4,4 v 6 4 c 0,2.216 1.784,4 4,4 h 2.75342 c -3.59647,14.11087 -14.64255,25.15695 -28.75342,28.75342 V 248 c 0,-2.216 -1.784,-4 -4,-4 h -6 -4 c -2.216,0 -4,1.784 -4,4 v 12 4 c 0,2.216 1.784,4 4,4 h 4 c 30.83319,0 56,-25.16681 56,-56 v -2 -2 c 0.0436,-2.21557 -1.784,-4 -4,-4 h -3.99999 z" opacity="1"/><g id="g993" transform="translate(350)"><g id="g980"><path id="path966" fill="#33d17a" fill-opacity="1" stroke="none" stroke-dasharray="none" stroke-dashoffset="0" stroke-linecap="butt" stroke-linejoin="round" stroke-miterlimit="4" stroke-opacity="1" stroke-width="32" d="M 96,24 A 72.000008,72.000008 0 0 1 24,96 v 24 a 96,96 0 0 0 96,-96 z" opacity="1" transform="translate(0,172)" vector-effect="none"/><circle id="circle968" cx="112" cy="192" r="8" fill="#33d17a" fill-opacity="1" stroke="none" stroke-dasharray="none" stroke-dashoffset="0" stroke-linecap="round" stroke-linejoin="round" stroke-miterlimit="4" stroke-opacity="1" stroke-width="35" opacity="1" vector-effect="none"/><rect id="rect970" width="40" height="32" x="12" y="248" fill="#33d17a" fill-opacity="1" stroke="none" stroke-dasharray="none" stroke-dashoffset="0" stroke-linecap="round" stroke-linejoin="round" stroke-miterlimit="4" stroke-opacity="1" stroke-width="35" opacity="1" rx="8" ry="8" vector-effect="none"/><rect id="rect972" width="20" height="37.375" x="12" y="-292" fill="#33d17a" fill-opacity="1" stroke="none" stroke-dasharray="none" stroke-dashoffset="0" stroke-linecap="round" stroke-linejoin="round" stroke-miterlimit="4" stroke-opacity="1" stroke-width="35" opacity="1" rx="8" ry="8" transform="scale(1,-1)" vector-effect="none"/><g id="g978" fill="#33d17a" fill-opacity="1" transform="rotate(-90,99,203)"><rect id="rect974" width="40" height="32" x="-118" y="180" fill="#33d17a" fill-opacity="1" stroke="none" stroke-dasharray="none" stroke-dashoffset="0" stroke-linecap="round" stroke-linejoin="round" stroke-miterlimit="4" stroke-opacity="1" stroke-width="35" opacity="1" rx="8" ry="8" transform="scale(-1,1)" vector-effect="none"/><rect id="rect976" width="20" height="31.492" x="-118" y="-224" fill="#33d17a" fill-opacity="1" stroke="none" stroke-dasharray="none" stroke-dashoffset="0" stroke-linecap="round" stroke-linejoin="round" stroke-miterlimit="4" stroke-opacity="1" stroke-width="35" opacity="1" rx="8" ry="8" transform="scale(-1)" vector-effect="none"/></g></g><path id="path982" fill="#26a269" fill-opacity="1" stroke="none" stroke-dasharray="none" stroke-dashoffset="0" stroke-linecap="butt" stroke-linejoin="round" stroke-miterlimit="4" stroke-opacity="1" stroke-width="32" d="m 120,22 c -0.0206,52.683882 -42.49578,95.50773 -95.177734,95.95898 h -0.002 C 24.546904,117.97382 24.273479,117.9875 24,118 h -4 c -4.432,0 -8,-3.568 -8,-8 v 2 c 0,4.432 3.568,8 8,8 h 4 c 0.273495,-0.0125 0.546934,-0.0262 0.820312,-0.041 h 0.002 C 77.504256,119.50773 119.97943,76.683873 120,24 Z M 76,42 v 2 c 0,4.432 3.568,8 8,8 h 5.361328 c 0.333186,-0.661643 0.656141,-1.328389 0.96875,-2 H 84 c -4.432,0 -8,-3.568 -8,-8 z" opacity="1" transform="translate(0,172)" vector-effect="none"/></g><path id="path893-3" fill="#33d17a" fill-opacity="1" stroke="none" stroke-dasharray="none" stroke-dashoffset="0" stroke-linecap="butt" stroke-linejoin="round" stroke-miterlimit="4" stroke-opacity="1" stroke-width="32" d="M 119.99999,-44 A 96,96 0 0 1 23.999997,52 l -3e-6,-96 z" display="inline" enable-background="new" opacity="1" vector-effect="none"/><path id="path888" fill="#f9f06b" fill-opacity="1" stroke="none" stroke-dasharray="none" stroke-dashoffset="0" stroke-linecap="butt" stroke-linejoin="round" stroke-miterlimit="4" stroke-opacity="1" stroke-width="32" d="M 95.999994,-44 A 72,72 0 0 1 23.999996,28 l -2e-6,-72 z" display="inline" enable-background="new" opacity="1" vector-effect="none"/><rect id="rect876" width="40" height="32" x="12" y="8" fill="#33d17a" fill-opacity="1" stroke="none" stroke-dasharray="none" stroke-dashoffset="0" stroke-linecap="round" stroke-linejoin="round" stroke-miterlimit="4" stroke-opacity="1" stroke-width="35" display="inline" enable-background="new" opacity="1" rx="8" ry="8" vector-effect="none"/><rect id="rect878" width="20" height="32" x="12" y="-52" fill="#33d17a" fill-opacity="1" stroke="none" stroke-dasharray="none" stroke-dashoffset="0" stroke-linecap="round" stroke-linejoin="round" stroke-miterlimit="4" stroke-opacity="1" stroke-width="35" display="inline" enable-background="new" opacity="1" rx="8" ry="8" transform="scale(1,-1)" vector-effect="none"/><circle id="path861" cx="112" cy="-48" r="8" fill="#33d17a" fill-opacity="1" stroke="none" stroke-dasharray="none" stroke-dashoffset="0" stroke-linecap="round" stroke-linejoin="round" stroke-miterlimit="4" stroke-opacity="1" stroke-width="35" display="inline" enable-background="new" opacity="1" vector-effect="none"/><g id="g886" fill="#33d17a" fill-opacity="1" display="inline" transform="rotate(-90,-21,83)"><rect id="rect880" width="40" height="32" x="-118" y="180" fill="#33d17a" fill-opacity="1" stroke="none" stroke-dasharray="none" stroke-dashoffset="0" stroke-linecap="round" stroke-linejoin="round" stroke-miterlimit="4" stroke-opacity="1" stroke-width="35" opacity="1" rx="8" ry="8" transform="scale(-1,1)" vector-effect="none"/><rect id="rect882" width="20" height="32" x="-118" y="-224" fill="#33d17a" fill-opacity="1" stroke="none" stroke-dasharray="none" stroke-dashoffset="0" stroke-linecap="round" stroke-linejoin="round" stroke-miterlimit="4" stroke-opacity="1" stroke-width="35" opacity="1" rx="8" ry="8" transform="scale(-1)" vector-effect="none"/></g><path id="path928" fill="#2ec27e" fill-opacity="1" stroke="none" stroke-dasharray="none" stroke-dashoffset="0" stroke-linecap="butt" stroke-linejoin="round" stroke-miterlimit="4" stroke-opacity="1" stroke-width="32" d="M -149.66992,222 A 72.000008,72.000008 0 0 1 -188,260.25195 v 25.52539 A 96,96 0 0 0 -124.26953,222 Z" opacity="1" vector-effect="none"/><path id="path1101" fill="#57e389" fill-opacity="1" stroke="none" stroke-dasharray="none" stroke-dashoffset="0" stroke-linecap="butt" stroke-linejoin="round" stroke-miterlimit="4" stroke-opacity="1" stroke-width="32" d="m -156,178 c -4.432,0 -8,3.568 -8,8 v 24 c 0,4.432 3.568,8 8,8 h 16 15.73047 c 2.70529,-8.80691 4.12874,-17.95739 4.22656,-27.16992 0.0279,-0.27282 0.043,-0.54966 0.043,-0.83008 v -4 c -0.002,-0.22957 -0.0136,-0.45894 -0.0352,-0.6875 -0.0135,-0.15932 -0.034,-0.31619 -0.0566,-0.47266 -0.0126,-0.094 -0.027,-0.18776 -0.043,-0.28125 -0.0328,-0.18169 -0.0743,-0.35998 -0.11914,-0.53711 -0.0196,-0.0791 -0.0405,-0.15787 -0.0625,-0.23632 -0.0556,-0.19467 -0.11979,-0.38407 -0.18945,-0.57227 -0.0183,-0.0516 -0.0372,-0.10306 -0.0566,-0.1543 -0.0925,-0.23476 -0.19522,-0.46433 -0.30859,-0.6875 v -0.002 c -0.12092,-0.2379 -0.25322,-0.4681 -0.39649,-0.6914 l -0.004,-0.006 c -1.2853,-1.99949 -3.43261,-3.38731 -5.9296,-3.63273 -0.26546,-0.0262 -0.53207,-0.0393 -0.79883,-0.039 h -12 z m -32,103.77734 V 266 256.25195 250 c 0,-4.432 -3.568,-8 -8,-8 h -24 c -4.432,0 -8,3.568 -8,8 v 6.625 9.375 12 c 0,4.432 3.568,8 8,8 h 4 c 0.27349,-0.0125 0.54693,-0.0262 0.82031,-0.041 0.003,-2.7e-4 0.005,-0.002 0.008,-0.002 9.21092,-0.0824 18.36203,-1.49006 27.17189,-4.17966 z" opacity="1" vector-effect="none"/><path id="path1047-6-9" fill="url(#linearGradient1400)" fill-opacity="1" stroke="none" stroke-dasharray="none" stroke-dashoffset="0" stroke-linecap="butt" stroke-linejoin="miter" stroke-miterlimit="4" stroke-opacity="1" stroke-width="3.81" marker-end="none" marker-mid="none" marker-start="none" d="m 88,182 c -4.432,0 -8,3.568 -8,8 v 12 12 c 0,4.432 3.568,8 8,8 h 8 c 11.04569,0 20,-8.95431 20,-20 -0.013,-10.71723 -8.47147,-19.51942 -19.17969,-19.95898 C 96.55072,182.0138 96.277,182 96,182 Z" display="inline" enable-background="new" opacity="1" paint-order="normal" vector-effect="none" style="marker:none"/><path id="path1026-5" fill="url(#linearGradient1386)" fill-opacity="1" fill-rule="nonzero" stroke="none" stroke-dasharray="none" stroke-dashoffset="0" stroke-linecap="butt" stroke-linejoin="miter" stroke-miterlimit="4" stroke-opacity="1" stroke-width="20" d="m 95.994141,202.03516 c 0,30.67714 -20.110222,56.47817 -47.919922,65.0039 V 262 c 0,-4.432 -3.568,-8 -8,-8 h -12 -12 c -4.432,0 -8.0000003,3.568 -8.0000002,8 v 8 c 0,11.02014 8.9133712,19.95676 19.9238282,19.99805 v 0.0352 c 48.481229,0 87.996093,-39.51682 87.996093,-87.99804 z" baseline-shift="baseline" clip-rule="nonzero" color="#000" color-interpolation="sRGB" color-interpolation-filters="linearRGB" color-rendering="auto" direction="ltr" display="inline" dominant-baseline="auto" enable-background="new" font-family="sans-serif" font-size="medium" font-stretch="normal" font-style="normal" font-variant="normal" font-weight="normal" image-rendering="auto" letter-spacing="normal" opacity="1" overflow="visible" paint-order="normal" shape-rendering="auto" text-anchor="start" text-decoration="none" text-rendering="auto" vector-effect="none" visibility="visible" word-spacing="normal" writing-mode="lr-tb" style="line-height:normal;font-variant-ligatures:normal;font-variant-position:normal;font-variant-caps:normal;font-variant-numeric:normal;font-variant-alternates:normal;font-feature-settings:normal;text-indent:0;text-align:start;text-decoration-line:none;text-decoration-style:solid;text-decoration-color:#000;text-transform:none;text-orientation:mixed;white-space:normal;shape-padding:0;isolation:auto;mix-blend-mode:normal;solid-color:#000;solid-opacity:1;marker:none"/><path id="path1026" fill="none" fill-opacity="1" stroke="#33d17a" stroke-dasharray="none" stroke-dashoffset="0" stroke-linecap="butt" stroke-linejoin="miter" stroke-miterlimit="4" stroke-opacity="1" stroke-width="20" marker-end="none" marker-mid="none" marker-start="none" d="m 105.99499,200.03586 a 77.997498,77.997498 0 0 1 -77.997492,77.9975" opacity="1" paint-order="normal" vector-effect="none" style="marker:none"/><path id="path1047" fill="url(#radialGradient1089)" fill-opacity="1" stroke="none" stroke-dasharray="none" stroke-dashoffset="0" stroke-linecap="butt" stroke-linejoin="miter" stroke-miterlimit="4" stroke-opacity="1" stroke-width="3.81" marker-end="none" marker-mid="none" marker-start="none" d="m 88,180 c -4.432,0 -8,3.568 -8,8 v 12 12 c 0,4.432 3.568,8 8,8 h 8 c 11.04569,0 20,-8.95431 20,-20 -0.013,-10.71723 -8.47147,-19.51942 -19.17969,-19.95898 C 96.55072,180.0138 96.277,180 96,180 Z" opacity="1" paint-order="normal" vector-effect="none" style="marker:none"/><path id="path1047-2" fill="url(#radialGradient1089-7)" fill-opacity="1" stroke="none" stroke-dasharray="none" stroke-dashoffset="0" stroke-linecap="butt" stroke-linejoin="miter" stroke-miterlimit="4" stroke-opacity="1" stroke-width="3.81" marker-end="none" marker-mid="none" marker-start="none" d="m 8.074182,259.99997 c 0,-4.432 3.583309,-7.63194 8,-8 h 12 12 c 4.432,0 8,3.568 8,8 v 8 c 0,11.04569 -8.954305,20 -20,20 -10.717229,-0.013 -19.519415,-8.47147 -19.95898,-19.17969 -0.02722,-0.26959 -0.04102,-0.54331 -0.04102,-0.82031 z" display="inline" enable-background="new" opacity="1" paint-order="normal" vector-effect="none" style="marker:none"/><path id="path1047-6" fill="url(#radialGradient1292)" fill-opacity="1" stroke="none" stroke-dasharray="none" stroke-dashoffset="0" stroke-linecap="butt" stroke-linejoin="miter" stroke-miterlimit="4" stroke-opacity="1" stroke-width="3.81" marker-end="none" marker-mid="none" marker-start="none" d="m 88,180 c -4.432,0 -8,3.568 -8,8 v 12 12 c 0,4.432 3.568,8 8,8 h 8 c 11.04569,0 20,-8.95431 20,-20 -0.013,-10.71723 -8.47147,-19.51942 -19.17969,-19.95898 C 96.55072,180.0138 96.277,180 96,180 Z" display="inline" enable-background="new" opacity=".484" paint-order="normal" vector-effect="none" style="marker:none"/><path id="path1047-6-2" fill="url(#radialGradient1292-1)" fill-opacity="1" stroke="none" stroke-dasharray="none" stroke-dashoffset="0" stroke-linecap="butt" stroke-linejoin="miter" stroke-miterlimit="4" stroke-opacity="1" stroke-width="3.81" marker-end="none" marker-mid="none" marker-start="none" d="m 48.074182,259.99997 c 0,-4.432 -3.568,-8 -8,-8 h -12 -12 c -4.432,0 -8.0000001,3.568 -8.0000001,8 v 8 c 0,11.04569 8.9543101,20 20.0000001,20 10.71723,-0.013 19.51942,-8.47147 19.95898,-19.17969 0.02722,-0.26959 0.04102,-0.54331 0.04102,-0.82031 z" display="inline" enable-background="new" opacity=".484" paint-order="normal" vector-effect="none" style="marker:none"/></g></g></svg>