<svg xmlns="http://www.w3.org/2000/svg" xmlns:svg="http://www.w3.org/2000/svg" xmlns:xlink="http://www.w3.org/1999/xlink" id="svg11300" width="128" height="128" display="inline" enable-background="new" version="1.0" viewBox="0 0 128 128"><title id="title4162">Adwaita Icon Template</title><defs id="defs3"><linearGradient id="linearGradient1458"><stop id="stop1452" offset="0" stop-color="#deddda" stop-opacity="1"/><stop id="stop1454" offset=".511" stop-color="#fff" stop-opacity="1"/><stop id="stop1456" offset="1" stop-color="#c0bfbc" stop-opacity="1"/></linearGradient><linearGradient id="linearGradient1879"><stop id="stop1873" offset="0" stop-color="#e8e7e4" stop-opacity="1"/><stop id="stop1875" offset=".511" stop-color="#fff" stop-opacity="1"/><stop id="stop1877" offset="1" stop-color="#c2bfba" stop-opacity="1"/></linearGradient><linearGradient id="linearGradient1099" x1="32" x2="96" y1="236" y2="236" gradientTransform="translate(604.81684,170.58641)" gradientUnits="userSpaceOnUse" xlink:href="#linearGradient1036"/><linearGradient id="linearGradient1036"><stop id="stop1032" offset="0" stop-color="#d5d3cf" stop-opacity="1"/><stop id="stop1034" offset="1" stop-color="#f6f5f4" stop-opacity="1"/></linearGradient><radialGradient id="radialGradient1103" cx="-244" cy="-76" r="32" fx="-244" fy="-76" gradientTransform="matrix(0.88333331,0,0,0.88333331,-460.35018,463.11973)" gradientUnits="userSpaceOnUse" xlink:href="#linearGradient1069"/><linearGradient id="linearGradient1069"><stop id="stop1065" offset="0" stop-color="#d5d3cf" stop-opacity="1"/><stop id="stop1067-1" offset="1" stop-color="#949390" stop-opacity="1"/></linearGradient><linearGradient id="linearGradient1027" x1="64" x2="64" y1="262.5" y2="232" gradientTransform="translate(-470.5864,432.81685)" gradientUnits="userSpaceOnUse" xlink:href="#linearGradient1025"/><linearGradient id="linearGradient1025"><stop id="stop1021" offset="0" stop-color="#9a9996" stop-opacity="1"/><stop id="stop1023" offset="1" stop-color="#77767b" stop-opacity="1"/></linearGradient><linearGradient id="linearGradient1053-2" x1="384" x2="416" y1="120" y2="120" gradientTransform="translate(0,640)" gradientUnits="userSpaceOnUse" xlink:href="#linearGradient1458"/><linearGradient id="linearGradient903" x1="379.206" x2="408" y1="48" y2="48" gradientTransform="matrix(0.25,0,0,0.25,-330.49999,224.5)" gradientUnits="userSpaceOnUse" xlink:href="#linearGradient901"/><linearGradient id="linearGradient901"><stop id="stop897" offset="0" stop-color="#eeeeec" stop-opacity="1"/><stop id="stop905" offset=".455" stop-color="#fff" stop-opacity="1"/><stop id="stop899" offset="1" stop-color="#babdb6" stop-opacity="1"/></linearGradient><linearGradient id="linearGradient1334" x1="384" x2="416" y1="120" y2="120" gradientTransform="translate(0,640)" gradientUnits="userSpaceOnUse" xlink:href="#linearGradient1879"/></defs><metadata id="metadata4"/><g id="layer1" display="inline" transform="translate(0,-172)"><g id="layer2" display="none"><text id="context" x="-.05" y="128.652" fill="#000" fill-opacity="1" stroke="none" stroke-width=".333" display="inline" enable-background="new" font-family="Cantarell" font-size="5.333" font-stretch="normal" font-style="normal" font-variant="normal" font-weight="normal" text-anchor="start" writing-mode="lr-tb" xml:space="preserve" style="line-height:125%;-inkscape-font-specification:'Cantarell, Normal';text-align:start"><tspan id="tspan2716" x="-.05" y="128.652" stroke-width=".333" font-size="5.333">apps</tspan></text><text id="text3021" x="-.247" y="137.234" fill="#000" fill-opacity="1" stroke="none" stroke-width=".333" display="inline" enable-background="new" font-family="Cantarell" font-size="5.333" font-stretch="normal" font-style="normal" font-variant="normal" font-weight="bold" text-anchor="start" writing-mode="lr-tb" xml:space="preserve" style="line-height:125%;-inkscape-font-specification:'Cantarell, Bold';text-align:start"><tspan id="tspan3023" x="-.247" y="137.234" stroke-width=".333" font-size="5.333">org.gnome.Contacts</tspan></text><rect id="rect13805" width="128" height="128" x="0" y="172" fill="#f0f0f0" fill-opacity="1" fill-rule="nonzero" stroke="none" stroke-width=".5" display="inline" enable-background="accumulate" overflow="visible" visibility="visible" style="marker:none"/><rect id="rect859" width="16" height="16" x="160" y="172" fill="#f0f0f0" fill-opacity="1" fill-rule="nonzero" stroke="none" stroke-width=".5" display="inline" enable-background="accumulate" overflow="visible" visibility="visible" style="marker:none"/><text id="text863" x="0" y="164" fill="#000" fill-opacity="1" stroke="none" stroke-width=".333" display="inline" enable-background="new" font-family="Cantarell" font-size="4" font-stretch="normal" font-style="normal" font-variant="normal" font-weight="bold" text-anchor="start" writing-mode="lr-tb" xml:space="preserve" style="line-height:125%;-inkscape-font-specification:'Cantarell, Bold';text-align:start"><tspan id="tspan861" x="0" y="164" stroke-width=".333" font-size="4">Hicolor</tspan></text><text id="text867" x="160" y="164" fill="#000" fill-opacity="1" stroke="none" stroke-width=".333" display="inline" enable-background="new" font-family="Cantarell" font-size="4" font-stretch="normal" font-style="normal" font-variant="normal" font-weight="bold" text-anchor="start" writing-mode="lr-tb" xml:space="preserve" style="line-height:125%;-inkscape-font-specification:'Cantarell, Bold';text-align:start"><tspan id="tspan865" x="160" y="164" stroke-width=".333" font-size="4">Symbolic</tspan></text></g><g id="layer3" display="none"><circle id="circle2892" cx="64" cy="236" r="59.504" fill="none" fill-opacity="1" stroke="#000" stroke-dasharray=".99 .99" stroke-dashoffset="0" stroke-linecap="butt" stroke-linejoin="miter" stroke-miterlimit="4" stroke-opacity="1" stroke-width=".99" marker-end="none" marker-mid="none" marker-start="none" display="inline" enable-background="new" opacity=".1" paint-order="normal" vector-effect="none" style="marker:none"/><rect id="rect2894" width="87.01" height="111.01" x="20.495" y="180.495" fill="none" fill-opacity="1" stroke="#000" stroke-dasharray=".99 .99" stroke-dashoffset="0" stroke-linecap="butt" stroke-linejoin="miter" stroke-miterlimit="4" stroke-opacity="1" stroke-width=".99" marker-end="none" marker-mid="none" marker-start="none" display="inline" enable-background="new" opacity=".1" paint-order="normal" rx="8.701" ry="7.929" vector-effect="none" style="marker:none"/><rect id="rect2896" width="103.01" height="103.01" x="12.495" y="184.495" fill="none" fill-opacity="1" stroke="#000" stroke-dasharray=".99 .99" stroke-dashoffset="0" stroke-linecap="butt" stroke-linejoin="miter" stroke-miterlimit="4" stroke-opacity="1" stroke-width=".99" marker-end="none" marker-mid="none" marker-start="none" display="inline" enable-background="new" opacity=".1" paint-order="normal" rx="7.924" ry="7.924" vector-effect="none" style="marker:none"/><rect id="rect2898" width="111.01" height="87.01" x="8.495" y="200.495" fill="none" fill-opacity="1" stroke="#000" stroke-dasharray=".99 .99" stroke-dashoffset="0" stroke-linecap="butt" stroke-linejoin="miter" stroke-miterlimit="4" stroke-opacity="1" stroke-width=".99" marker-end="none" marker-mid="none" marker-start="none" display="inline" enable-background="new" opacity=".1" paint-order="normal" rx="7.929" ry="8.701" vector-effect="none" style="marker:none"/><path id="path2900" fill="none" stroke="#62a0ea" stroke-dasharray="none" stroke-linecap="butt" stroke-linejoin="miter" stroke-miterlimit="4" stroke-opacity="1" stroke-width="2" d="M 2.6203015e-5,288.99999 H 128.00003" display="inline" enable-background="new"/></g><g id="layer9" display="inline"><g id="g1295" display="inline" transform="translate(22.50002,2.5)"><path id="rect868-3" fill="#204f8b" fill-opacity="1" stroke="none" stroke-dasharray="none" stroke-dashoffset="0" stroke-linecap="round" stroke-linejoin="miter" stroke-miterlimit="4" stroke-opacity="1" stroke-width="6" marker-end="none" marker-mid="none" marker-start="none" d="m -300.49999,185.5 c -2.03713,0 -3.89033,0.75496 -5.2998,2 h -2.7002 v 6 88 c 0,4 3.14315,8 8.08497,8 h 63.91503 c 4.432,0 8,-3.568 8,-8 v -88 c 0,-4.432 -3.568,-8 -8,-8 z" display="inline" enable-background="new" opacity="1" paint-order="normal" style="marker:none"/><path id="rect868-3-6" fill="url(#linearGradient903)" fill-opacity="1" stroke="none" stroke-dasharray="none" stroke-dashoffset="0" stroke-linecap="round" stroke-linejoin="miter" stroke-miterlimit="4" stroke-opacity="1" stroke-width="6" marker-end="none" marker-mid="none" marker-start="none" d="m -296.49999,185.5 h 60 c 4.432,0 8,3.568 8,8 v 86 c 0,4.432 -3.568,8 -8,8 h -62 c -3.45941,0 -5.89041,-1.29289 -5.89041,-4.02626 0,-1.24206 0.74969,-1.97374 1.89041,-1.97374 l -2,-88 c -0.1007,-4.43086 3.568,-8 8,-8 z" display="inline" enable-background="new" opacity="1" paint-order="normal" style="marker:none"/><path id="path891" fill="#000" fill-opacity=".078" stroke="none" stroke-linecap="butt" stroke-linejoin="miter" stroke-opacity="1" stroke-width=".25" d="m -304.0536,285.06756 c 0,0 0.42666,-1.52337 1.55361,-1.56756 h 66 c 4,0 8,-6.06672 8,-10 l -74,8 c -2.12132,-0.0331 -2.15468,2.20859 -1.55361,3.56756 z" display="inline" enable-background="new"/><path id="rect868" fill="#204f8b" fill-opacity="1" stroke="none" stroke-dasharray="none" stroke-dashoffset="0" stroke-linecap="round" stroke-linejoin="miter" stroke-miterlimit="4" stroke-opacity="1" stroke-width="6" marker-end="none" marker-mid="none" marker-start="none" d="m -300.49999,177.5 c -2.03713,0 -0.64033,0.78621 -2.0498,2.03125 l -5.9502,-0.0312 v 6 88 8 h 72 c 4.432,0 8,-3.568 8,-8 v -88 c 0,-4.432 -3.568,-8 -8,-8 z" display="inline" enable-background="new" opacity="1" paint-order="normal" style="marker:none"/><rect stroke-miterlimit="4" style="marker:none" id="rect1036" width="16" height="24" x="-236.5" y="193.5" fill="#f9f06b" fill-opacity="1" stroke="none" stroke-dasharray="none" stroke-dashoffset="0" stroke-linecap="round" stroke-linejoin="miter" stroke-opacity="1" stroke-width="6" marker-end="none" marker-mid="none" marker-start="none" display="inline" enable-background="new" opacity="1" paint-order="normal" rx="8" ry="8.003"/><rect stroke-miterlimit="4" style="marker:none" id="rect1036-3" width="16" height="24" x="-236.5" y="209.5" fill="#26a269" fill-opacity="1" stroke="none" stroke-dasharray="none" stroke-dashoffset="0" stroke-linecap="round" stroke-linejoin="miter" stroke-opacity="1" stroke-width="6" marker-end="none" marker-mid="none" marker-start="none" display="inline" enable-background="new" opacity="1" paint-order="normal" rx="8" ry="8.003"/><rect stroke-miterlimit="4" style="marker:none" id="rect1036-3-3" width="16" height="24" x="-236.5" y="225.5" fill="#4a86cf" fill-opacity="1" stroke="none" stroke-dasharray="none" stroke-dashoffset="0" stroke-linecap="round" stroke-linejoin="miter" stroke-opacity="1" stroke-width="6" marker-end="none" marker-mid="none" marker-start="none" display="inline" enable-background="new" opacity="1" paint-order="normal" rx="8" ry="8.003"/><rect stroke-miterlimit="4" style="marker:none" id="rect1036-3-3-6" width="16" height="24" x="-236.5" y="241.5" fill="#e35e0d" fill-opacity="1" stroke="none" stroke-dasharray="none" stroke-dashoffset="0" stroke-linecap="round" stroke-linejoin="miter" stroke-opacity="1" stroke-width="6" marker-end="none" marker-mid="none" marker-start="none" display="inline" enable-background="new" opacity="1" paint-order="normal" rx="8" ry="8.003"/><path id="rect868-7" fill="#4a86cf" fill-opacity="1" stroke="none" stroke-dasharray="none" stroke-dashoffset="0" stroke-linecap="round" stroke-linejoin="miter" stroke-miterlimit="4" stroke-opacity="1" stroke-width="6" marker-end="none" marker-mid="none" marker-start="none" d="m -308.49999,177.5 v 102 h 72 c 4.432,0 8,-3.568 8,-8 v -86 c 0,-4.432 -3.568,-8 -8,-8 h -68 v 2.03125 l -2,-2.03125 z" display="inline" enable-background="new" opacity="1" paint-order="normal" style="marker:none"/><g font-stretch="normal" style="line-height:1.25;-inkscape-font-specification:'sans-serif Bold'" id="text924" fill="#fff" fill-opacity="1" stroke="none" stroke-width="1" aria-label="@" display="inline" font-family="sans-serif" font-size="185.545" font-style="normal" font-variant="normal" font-weight="bold" letter-spacing="0" opacity="1" transform="matrix(0.25,0,0,0.25,-332.49999,222.5)" word-spacing="0"><path style="-inkscape-font-specification:'sans-serif Bold'" id="path882" fill="#fff" stroke-width="1" d="m 238.87855,28.360786 q 0,11.143601 4.71111,17.576086 4.80172,6.432485 12.95557,6.432485 8.06326,0 12.86497,-6.432485 4.80172,-6.523084 4.80172,-17.576086 0,-10.962405 -4.89231,-17.304291 -4.80172,-6.4324854 -12.95557,-6.4324854 -7.97266,0 -12.77438,6.4324854 -4.71111,6.341886 -4.71111,17.304291 z m 37.14534,27.270113 q -2.71796,6.432485 -8.78805,10.05642 -5.97949,3.533337 -14.04275,3.533337 -15.58292,0 -25.36754,-11.234199 -9.69403,-11.324798 -9.69403,-29.444475 0,-18.119676 9.78462,-29.44447373 9.78463,-11.32479727 25.27695,-11.32479727 8.06326,0 14.04275,3.6239348 6.07009,3.6239353 8.78805,10.0564204 V -10.415322 h 18.93506 v 62.784679 q 11.2342,-1.721369 17.66668,-10.781208 6.43249,-9.150436 6.43249,-23.374382 0,-9.0598383 -2.62736,-16.9418976 -2.62735,-7.9726576 -7.97265,-14.5863394 -8.60685,-11.053003 -21.56242,-17.032496 -12.86497,-5.979493 -27.9043,-5.979493 -10.50941,0 -20.11284,2.80855 -9.60343,2.717951 -17.75728,8.063256 -13.40856,8.878641 -20.92823,23.0119888 -7.42907,14.0427492 -7.42907,30.4410562 0,13.499159 4.80172,25.367547 4.89231,11.77779 14.04275,20.837628 9.05983,8.878641 20.74703,13.499159 11.77778,4.711116 25.09575,4.711116 11.41539,0 22.83079,-4.258124 11.4154,-4.258124 19.47865,-11.505995 l 9.69403,14.676938 q -11.3248,8.788039 -24.73336,13.408559 -13.31796,4.71112 -27.08892,4.71112 -16.7607,0 -31.61883,-5.9795 -14.85814,-5.88889 -26.45473,-17.213688 -11.59659,-11.324798 -17.66668,-26.182933 -6.0701,-14.948733 -6.0701,-32.071827 0,-16.488905 6.16069,-31.4376384 6.16069,-14.9487326 17.57609,-26.2735306 11.4154,-11.2342 26.54533,-17.39489 15.22053,-6.16069 31.52823,-6.16069 20.29404,0 36.87355,7.791461 16.5795,7.700863 27.7231,22.287202 6.79488,8.878642 10.23762,19.2974557 3.53333,10.3282155 3.53333,21.7436113 0,24.552162 -14.76753,38.141919 -14.76754,13.589758 -41.67526,13.589758 h -3.53333 z" font-family="sans-serif" font-stretch="normal" font-style="normal" font-variant="normal" font-weight="bold"/></g><path id="rect889" fill="#3465a4" fill-opacity="1" stroke="none" stroke-dasharray="none" stroke-dashoffset="0" stroke-linecap="butt" stroke-linejoin="miter" stroke-miterlimit="4" stroke-opacity="1" stroke-width="6" marker-end="none" marker-mid="none" marker-start="none" d="m -306.49999,177.5 2,2.03125 V 279.5 h -2 z" display="inline" enable-background="new" opacity="1" paint-order="normal" style="marker:none"/></g><g id="g1308" display="inline" transform="translate(192.50002,2.5)"><rect stroke-miterlimit="4" style="marker:none" id="rect1036-36" width="16" height="24" x="-92.5" y="193.5" fill="#f8e45c" fill-opacity="1" stroke="none" stroke-dasharray="none" stroke-dashoffset="0" stroke-linecap="round" stroke-linejoin="miter" stroke-opacity="1" stroke-width="6" marker-end="none" marker-mid="none" marker-start="none" display="inline" enable-background="new" opacity="1" paint-order="normal" rx="8" ry="8.003"/><rect stroke-miterlimit="4" style="marker:none" id="rect1036-3-7" width="16" height="24" x="-92.5" y="209.5" fill="#2ec27e" fill-opacity="1" stroke="none" stroke-dasharray="none" stroke-dashoffset="0" stroke-linecap="round" stroke-linejoin="miter" stroke-opacity="1" stroke-width="6" marker-end="none" marker-mid="none" marker-start="none" display="inline" enable-background="new" opacity="1" paint-order="normal" rx="8" ry="8.003"/><rect stroke-miterlimit="4" style="marker:none" id="rect1036-3-3-5" width="16" height="24" x="-92.5" y="225.5" fill="#c061cb" fill-opacity="1" stroke="none" stroke-dasharray="none" stroke-dashoffset="0" stroke-linecap="round" stroke-linejoin="miter" stroke-opacity="1" stroke-width="6" marker-end="none" marker-mid="none" marker-start="none" display="inline" enable-background="new" opacity="1" paint-order="normal" rx="8" ry="8.003"/><rect stroke-miterlimit="4" style="marker:none" id="rect1036-3-3-6-3" width="16" height="24" x="-92.5" y="241.5" fill="#f66151" fill-opacity="1" stroke="none" stroke-dasharray="none" stroke-dashoffset="0" stroke-linecap="round" stroke-linejoin="miter" stroke-opacity="1" stroke-width="6" marker-end="none" marker-mid="none" marker-start="none" display="inline" enable-background="new" opacity="1" paint-order="normal" rx="8" ry="8.003"/><g id="g1002" display="inline" transform="matrix(0.25,0,0,0.25,-188.50002,62.499999)"><path id="rect954-3" fill="#1d60b5" fill-opacity="1" stroke="none" stroke-dasharray="none" stroke-dashoffset="0" stroke-linecap="butt" stroke-linejoin="miter" stroke-miterlimit="4" stroke-opacity="1" stroke-width="24" marker-end="none" marker-mid="none" marker-start="none" d="m 64,540 v 368 h 320 c 17.728,0 32,-14.272 32,-32 V 572 c 0,-17.728 -14.272,-32 -32,-32 z" display="inline" enable-background="new" opacity="1" paint-order="normal" style="marker:none"/><path id="rect954-3-6-1" fill="url(#linearGradient1053-2)" fill-opacity="1" stroke="none" stroke-dasharray="none" stroke-dashoffset="0" stroke-linecap="butt" stroke-linejoin="miter" stroke-miterlimit="4" stroke-opacity="1" stroke-width="24" marker-end="none" marker-mid="none" marker-start="none" d="m 72,620 v 280 h 312 c 17.728,0 32,-14.272 32,-32 V 652 c 0,-17.728 -14.272,-32 -32,-32 z" display="inline" enable-background="new" opacity="1" paint-order="normal" style="marker:none"/><path id="rect954-3-2" fill="#2864b0" fill-opacity="1" stroke="none" stroke-dasharray="none" stroke-dashoffset="0" stroke-linecap="butt" stroke-linejoin="miter" stroke-miterlimit="4" stroke-opacity="1" stroke-width="24" marker-end="none" marker-mid="none" marker-start="none" d="m 64,540 v 336 h 320 c 17.728,0 32,-14.272 32,-32 V 572 c 0,-17.728 -14.272,-32 -32,-32 z" display="inline" enable-background="new" opacity="1" paint-order="normal" style="marker:none"/><path id="rect954-3-2-9-0-3" fill="#3584e4" fill-opacity="1" stroke="none" stroke-dasharray="none" stroke-dashoffset="0" stroke-linecap="butt" stroke-linejoin="miter" stroke-miterlimit="4" stroke-opacity="1" stroke-width="24" marker-end="none" marker-mid="none" marker-start="none" d="m 64,460 v 408 h 320 c 17.728,0 32,-14.272 32,-32 V 492 c 0,-17.728 -14.272,-32 -32,-32 z" display="inline" enable-background="new" opacity="1" paint-order="normal" style="marker:none"/><path id="rect1366-2" fill="#fff" fill-opacity="1" stroke="none" stroke-dasharray="none" stroke-dashoffset="0" stroke-linecap="butt" stroke-linejoin="miter" stroke-miterlimit="4" stroke-opacity="1" stroke-width="24" marker-end="none" marker-mid="none" marker-start="none" d="m 72,460.00003 h 8 v 408 h -8 z" display="inline" enable-background="new" opacity=".187" paint-order="normal" style="marker:none"/></g><path font-size="185.545" style="line-height:1.25;-inkscape-font-specification:'sans-serif Bold'" id="path882-5" fill="#fff" fill-opacity="1" stroke="none" stroke-width=".25" d="m -132.75814,229.59019 q 0,2.7859 1.17777,4.39403 1.20043,1.60812 3.2389,1.60812 2.01581,0 3.21624,-1.60812 1.20043,-1.63077 1.20043,-4.39403 0,-2.7406 -1.22308,-4.32607 -1.20043,-1.60812 -3.23889,-1.60812 -1.99317,0 -3.1936,1.60812 -1.17777,1.58547 -1.17777,4.32607 z m 9.28633,6.81753 q -0.67949,1.60813 -2.19701,2.51411 -1.49487,0.88333 -3.51069,0.88333 -3.89573,0 -6.34188,-2.80855 -2.42351,-2.8312 -2.42351,-7.36112 0,-4.52992 2.44615,-7.36112 2.44616,-2.83119 6.31924,-2.83119 2.01582,0 3.51069,0.90598 1.51752,0.90598 2.19701,2.5141 v -2.96709 h 4.73377 v 15.69617 q 2.80855,-0.43034 4.41667,-2.6953 1.60812,-2.28761 1.60812,-5.8436 0,-2.26496 -0.65684,-4.23547 -0.65684,-1.99317 -1.99316,-3.64659 -2.15172,-2.76325 -5.39061,-4.25812 -3.21624,-1.49488 -6.97607,-1.49488 -2.62736,0 -5.02821,0.70214 -2.40086,0.67949 -4.43932,2.01581 -3.35214,2.21967 -5.23206,5.753 -1.85727,3.51069 -1.85727,7.61027 0,3.37479 1.20043,6.34188 1.22308,2.94445 3.51069,5.20941 2.26496,2.21966 5.18676,3.37479 2.94444,1.17778 6.27393,1.17778 2.85385,0 5.7077,-1.06453 2.85385,-1.06453 4.86966,-2.8765 l 2.42351,3.66923 q -2.8312,2.19701 -6.18334,3.35214 -3.32949,1.17778 -6.77223,1.17778 -4.19017,0 -7.90471,-1.49487 -3.71453,-1.47222 -6.61368,-4.30342 -2.89915,-2.8312 -4.41667,-6.54574 -1.51752,-3.73718 -1.51752,-8.01795 0,-4.12223 1.54017,-7.85941 1.54017,-3.73719 4.39402,-6.56839 2.85385,-2.80855 6.63633,-4.34872 3.80514,-1.54017 7.88206,-1.54017 5.07351,0 9.21839,1.94786 4.14487,1.92522 6.93077,5.5718 1.69872,2.21967 2.55941,4.82437 0.88333,2.58205 0.88333,5.4359 0,6.13804 -3.69188,9.53548 -3.69189,3.39744 -10.41882,3.39744 h -0.88333 z" display="inline" enable-background="new" font-family="sans-serif" font-stretch="normal" font-style="normal" font-variant="normal" font-weight="bold" letter-spacing="0" opacity="1" word-spacing="0"/></g><g id="g1332" display="inline" transform="translate(2.50002,2.5)"><rect stroke-miterlimit="4" style="marker:none" id="rect1310" width="16" height="24" x="-92.5" y="193.5" fill="#f9f06b" fill-opacity="1" stroke="none" stroke-dasharray="none" stroke-dashoffset="0" stroke-linecap="round" stroke-linejoin="miter" stroke-opacity="1" stroke-width="6" marker-end="none" marker-mid="none" marker-start="none" display="inline" enable-background="new" opacity="1" paint-order="normal" rx="8" ry="8.003"/><rect stroke-miterlimit="4" style="marker:none" id="rect1312" width="16" height="24" x="-92.5" y="209.5" fill="#26a269" fill-opacity="1" stroke="none" stroke-dasharray="none" stroke-dashoffset="0" stroke-linecap="round" stroke-linejoin="miter" stroke-opacity="1" stroke-width="6" marker-end="none" marker-mid="none" marker-start="none" display="inline" enable-background="new" opacity="1" paint-order="normal" rx="8" ry="8.003"/><rect stroke-miterlimit="4" style="marker:none" id="rect1314" width="16" height="24" x="-92.5" y="225.5" fill="#8f5aa0" fill-opacity="1" stroke="none" stroke-dasharray="none" stroke-dashoffset="0" stroke-linecap="round" stroke-linejoin="miter" stroke-opacity="1" stroke-width="6" marker-end="none" marker-mid="none" marker-start="none" display="inline" enable-background="new" opacity="1" paint-order="normal" rx="8" ry="8.003"/><rect stroke-miterlimit="4" style="marker:none" id="rect1316" width="16" height="24" x="-92.5" y="241.5" fill="#f66151" fill-opacity="1" stroke="none" stroke-dasharray="none" stroke-dashoffset="0" stroke-linecap="round" stroke-linejoin="miter" stroke-opacity="1" stroke-width="6" marker-end="none" marker-mid="none" marker-start="none" display="inline" enable-background="new" opacity="1" paint-order="normal" rx="8" ry="8.003"/><g id="g1328" display="inline" transform="matrix(0.25,0,0,0.25,-188.50002,62.499999)"><path id="path1318" fill="#1d60b5" fill-opacity="1" stroke="none" stroke-dasharray="none" stroke-dashoffset="0" stroke-linecap="butt" stroke-linejoin="miter" stroke-miterlimit="4" stroke-opacity="1" stroke-width="24" marker-end="none" marker-mid="none" marker-start="none" d="m 96,540 v 368 h 288 c 17.728,0 32,-14.272 32,-32 V 572 c 0,-17.728 -14.272,-32 -32,-32 z" display="inline" enable-background="new" opacity="1" paint-order="normal" style="marker:none"/><path id="path1320" fill="url(#linearGradient1334)" fill-opacity="1" stroke="none" stroke-dasharray="none" stroke-dashoffset="0" stroke-linecap="butt" stroke-linejoin="miter" stroke-miterlimit="4" stroke-opacity="1" stroke-width="24" marker-end="none" marker-mid="none" marker-start="none" d="m 104,620 v 280 h 280 c 17.728,0 32,-14.272 32,-32 V 652 c 0,-17.728 -14.272,-32 -32,-32 z" display="inline" enable-background="new" opacity="1" paint-order="normal" style="marker:none"/><path id="path1322" fill="#2864b0" fill-opacity="1" stroke="none" stroke-dasharray="none" stroke-dashoffset="0" stroke-linecap="butt" stroke-linejoin="miter" stroke-miterlimit="4" stroke-opacity="1" stroke-width="24" marker-end="none" marker-mid="none" marker-start="none" d="m 96,540 v 336 h 288 c 17.728,0 32,-14.272 32,-32 V 572 c 0,-17.728 -14.272,-32 -32,-32 z" display="inline" enable-background="new" opacity="1" paint-order="normal" style="marker:none"/><path id="path1324" fill="#3584e4" fill-opacity="1" stroke="none" stroke-dasharray="none" stroke-dashoffset="0" stroke-linecap="butt" stroke-linejoin="miter" stroke-miterlimit="4" stroke-opacity="1" stroke-width="24" marker-end="none" marker-mid="none" marker-start="none" d="m 96,460 v 408 h 288 c 17.728,0 32,-14.272 32,-32 V 492 c 0,-17.728 -14.272,-32 -32,-32 z" display="inline" enable-background="new" opacity="1" paint-order="normal" style="marker:none"/><path id="path1326" fill="#fff" fill-opacity="1" stroke="none" stroke-dasharray="none" stroke-dashoffset="0" stroke-linecap="butt" stroke-linejoin="miter" stroke-miterlimit="4" stroke-opacity="1" stroke-width="24" marker-end="none" marker-mid="none" marker-start="none" d="m 104,460.00003 h 8 v 408 h -8 z" display="inline" enable-background="new" opacity=".187" paint-order="normal" style="marker:none"/></g><path font-size="185.545" style="line-height:1.25;-inkscape-font-specification:'sans-serif Bold'" id="path1330" fill="#fff" fill-opacity="1" stroke="none" stroke-width=".25" d="m -126.75814,229.59019 q 0,2.7859 1.17777,4.39403 1.20043,1.60812 3.2389,1.60812 2.01581,0 3.21624,-1.60812 1.20043,-1.63077 1.20043,-4.39403 0,-2.7406 -1.22308,-4.32607 -1.20043,-1.60812 -3.23889,-1.60812 -1.99317,0 -3.1936,1.60812 -1.17777,1.58547 -1.17777,4.32607 z m 9.28633,6.81753 q -0.67949,1.60813 -2.19701,2.51411 -1.49487,0.88333 -3.51069,0.88333 -3.89573,0 -6.34188,-2.80855 -2.42351,-2.8312 -2.42351,-7.36112 0,-4.52992 2.44615,-7.36112 2.44616,-2.83119 6.31924,-2.83119 2.01582,0 3.51069,0.90598 1.51752,0.90598 2.19701,2.5141 v -2.96709 h 4.73377 v 15.69617 q 2.80855,-0.43034 4.41667,-2.6953 1.60812,-2.28761 1.60812,-5.8436 0,-2.26496 -0.65684,-4.23547 -0.65684,-1.99317 -1.99316,-3.64659 -2.15172,-2.76325 -5.39061,-4.25812 -3.21624,-1.49488 -6.97607,-1.49488 -2.62736,0 -5.02821,0.70214 -2.40086,0.67949 -4.43932,2.01581 -3.35214,2.21967 -5.23206,5.753 -1.85727,3.51069 -1.85727,7.61027 0,3.37479 1.20043,6.34188 1.22308,2.94445 3.51069,5.20941 2.26496,2.21966 5.18676,3.37479 2.94444,1.17778 6.27393,1.17778 2.85385,0 5.7077,-1.06453 2.85385,-1.06453 4.86966,-2.8765 l 2.42351,3.66923 q -2.8312,2.19701 -6.18334,3.35214 -3.32949,1.17778 -6.77223,1.17778 -4.19017,0 -7.90471,-1.49487 -3.71453,-1.47222 -6.61368,-4.30342 -2.89915,-2.8312 -4.41667,-6.54574 -1.51752,-3.73718 -1.51752,-8.01795 0,-4.12223 1.54017,-7.85941 1.54017,-3.73719 4.39402,-6.56839 2.85385,-2.80855 6.63633,-4.34872 3.80514,-1.54017 7.88206,-1.54017 5.07351,0 9.21839,1.94786 4.14487,1.92522 6.93077,5.5718 1.69872,2.21967 2.55941,4.82437 0.88333,2.58205 0.88333,5.4359 0,6.13804 -3.69188,9.53548 -3.69189,3.39744 -10.41882,3.39744 h -0.88333 z" display="inline" enable-background="new" font-family="sans-serif" font-stretch="normal" font-style="normal" font-variant="normal" font-weight="bold" letter-spacing="0" opacity="1" word-spacing="0"/></g></g></g></svg>