<svg xmlns="http://www.w3.org/2000/svg" xmlns:svg="http://www.w3.org/2000/svg" xmlns:xlink="http://www.w3.org/1999/xlink" id="svg11300" width="128" height="128" display="inline" enable-background="new" version="1.0" viewBox="0 0 128 128"><title id="title4162">Adwaita Icon Template</title><defs id="defs3"><linearGradient id="linearGradient931"><stop id="stop927" offset="0" stop-color="#deddda" stop-opacity="1"/><stop id="stop929" offset="1" stop-color="#9a9996" stop-opacity="1"/></linearGradient><clipPath id="clipPath9814-1" clipPathUnits="userSpaceOnUse"><path id="path9816-0" fill="#fff" fill-opacity="1" fill-rule="evenodd" stroke="none" stroke-linecap="butt" stroke-linejoin="miter" stroke-opacity="1" stroke-width=".045" d="M 596.05078,612 C 591.59109,612 588,615.59109 588,620.05078 v 15.89844 c 0,4.44257 3.56412,8.0214 8,8.04883 V 652 l 8,-8 h 19.94922 C 628.40891,644 632,640.40891 632,635.94922 V 620.05078 C 632,615.59109 628.40891,612 623.94922,612 Z"/></clipPath><clipPath id="clipPath1132" clipPathUnits="userSpaceOnUse"><path id="path1130" fill="#fff" fill-opacity="1" fill-rule="evenodd" stroke="none" stroke-linecap="butt" stroke-linejoin="miter" stroke-opacity="1" stroke-width=".045" d="M 596.05078,612 C 591.59109,612 588,615.59109 588,620.05078 v 15.89844 c 0,4.44257 3.56412,8.0214 8,8.04883 V 652 l 8,-8 h 19.94922 C 628.40891,644 632,640.40891 632,635.94922 V 620.05078 C 632,615.59109 628.40891,612 623.94922,612 Z"/></clipPath><clipPath id="clipPath1136" clipPathUnits="userSpaceOnUse"><path id="path1134" fill="#fff" fill-opacity="1" fill-rule="evenodd" stroke="none" stroke-linecap="butt" stroke-linejoin="miter" stroke-opacity="1" stroke-width=".045" d="M 596.05078,612 C 591.59109,612 588,615.59109 588,620.05078 v 15.89844 c 0,4.44257 3.56412,8.0214 8,8.04883 V 652 l 8,-8 h 19.94922 C 628.40891,644 632,640.40891 632,635.94922 V 620.05078 C 632,615.59109 628.40891,612 623.94922,612 Z"/></clipPath><clipPath id="clipPath1144" clipPathUnits="userSpaceOnUse"><path id="path1142-3" fill="#fff" fill-opacity="1" fill-rule="evenodd" stroke="none" stroke-linecap="butt" stroke-linejoin="miter" stroke-opacity="1" stroke-width=".045" d="M 596.05078,612 C 591.59109,612 588,615.59109 588,620.05078 v 15.89844 c 0,4.44257 3.56412,8.0214 8,8.04883 V 652 l 8,-8 h 19.94922 C 628.40891,644 632,640.40891 632,635.94922 V 620.05078 C 632,615.59109 628.40891,612 623.94922,612 Z"/></clipPath><clipPath id="clipPath1152" clipPathUnits="userSpaceOnUse"><path id="path1150" fill="#fff" fill-opacity="1" fill-rule="evenodd" stroke="none" stroke-linecap="butt" stroke-linejoin="miter" stroke-opacity="1" stroke-width=".045" d="M 596.05078,612 C 591.59109,612 588,615.59109 588,620.05078 v 15.89844 c 0,4.44257 3.56412,8.0214 8,8.04883 V 652 l 8,-8 h 19.94922 C 628.40891,644 632,640.40891 632,635.94922 V 620.05078 C 632,615.59109 628.40891,612 623.94922,612 Z"/></clipPath><linearGradient id="linearGradient933" x1="28" x2="40" y1="220" y2="220" gradientTransform="translate(186,-254)" gradientUnits="userSpaceOnUse" xlink:href="#linearGradient931"/><linearGradient id="linearGradient937" x1="28" x2="40" y1="220" y2="220" gradientTransform="translate(186,-272)" gradientUnits="userSpaceOnUse" xlink:href="#linearGradient931"/><linearGradient id="linearGradient941" x1="28" x2="40" y1="220" y2="220" gradientTransform="translate(186,-290)" gradientUnits="userSpaceOnUse" xlink:href="#linearGradient931"/></defs><metadata id="metadata4"/><g id="layer1" display="inline" transform="translate(0,-172)"><g id="layer2" display="none"><text id="context" x="7.95" y="148.652" fill="#000" fill-opacity="1" stroke="none" stroke-width=".333" display="inline" enable-background="new" font-family="Cantarell" font-size="6.088" font-stretch="normal" font-style="normal" font-variant="normal" font-weight="normal" text-anchor="start" writing-mode="lr-tb" xml:space="preserve" style="line-height:125%;-inkscape-font-specification:'Cantarell, Normal';text-align:start"><tspan id="tspan2716" x="7.95" y="148.652" stroke-width=".333">apps</tspan></text><text id="text3021" x="7.753" y="157.234" fill="#000" fill-opacity="1" stroke="none" stroke-width=".333" display="inline" enable-background="new" font-family="Cantarell" font-size="6.088" font-stretch="normal" font-style="normal" font-variant="normal" font-weight="bold" text-anchor="start" writing-mode="lr-tb" xml:space="preserve" style="line-height:125%;-inkscape-font-specification:'Cantarell, Bold';text-align:start"><tspan id="tspan3023" x="7.753" y="157.234" stroke-width=".333">org.gnome.Messages</tspan></text><rect id="rect13805" width="128" height="128" x="0" y="172" fill="#f0f0f0" fill-opacity="1" fill-rule="nonzero" stroke="none" stroke-width=".5" display="inline" enable-background="accumulate" overflow="visible" visibility="visible" style="marker:none"/><g id="g1168" transform="matrix(0.25,0,0,0.25,6.9488522e-8,225)"><rect id="rect1110" width="320" height="448" x="96" y="-180" fill="#2864b0" fill-opacity="1" stroke="none" stroke-dasharray="none" stroke-dashoffset="0" stroke-linecap="butt" stroke-linejoin="miter" stroke-miterlimit="4" stroke-opacity="1" stroke-width="1" marker-end="none" marker-mid="none" marker-start="none" opacity=".1" paint-order="normal" rx="32" ry="32" style="marker:none"/><rect stroke-miterlimit="4" style="marker:none" id="rect1110-8" width="416" height="416" x="48" y="-164" fill="#2864b0" fill-opacity="1" stroke="none" stroke-dasharray="none" stroke-dashoffset="0" stroke-linecap="butt" stroke-linejoin="miter" stroke-opacity="1" stroke-width="1" marker-end="none" marker-mid="none" marker-start="none" display="inline" enable-background="new" opacity=".1" paint-order="normal" rx="32" ry="32"/><rect stroke-miterlimit="4" style="marker:none" id="rect1110-8-9" width="448" height="320" x="32" y="-116" fill="#2864b0" fill-opacity="1" stroke="none" stroke-dasharray="none" stroke-dashoffset="0" stroke-linecap="butt" stroke-linejoin="miter" stroke-opacity="1" stroke-width="1" marker-end="none" marker-mid="none" marker-start="none" display="inline" enable-background="new" opacity=".1" paint-order="normal" rx="32" ry="32"/><circle id="path1142" cx="256" cy="44" r="240" fill="#2864b0" fill-opacity="1" stroke="none" stroke-dasharray="none" stroke-dashoffset="0" stroke-linecap="butt" stroke-linejoin="miter" stroke-miterlimit="4" stroke-opacity="1" stroke-width="1" marker-end="none" marker-mid="none" marker-start="none" opacity=".1" paint-order="normal" style="marker:none"/></g></g><g id="layer9" display="inline"><path id="path975" fill="#1a5fb4" fill-opacity="1" fill-rule="evenodd" stroke="none" stroke-linecap="butt" stroke-linejoin="miter" stroke-opacity="1" stroke-width=".011" d="M 40 87 L 40 88 L 40 89 L 40 90 C 40 98.86401 47.136004 106 56 106 L 88 106 L 104 122 L 104 121 L 104 120 L 104 119 L 88 103 L 56 103 C 47.136004 103 40 95.86401 40 87 z M 120 87 C 120 95.86401 112.864 103 104 103 L 104 104 L 104 105 L 104 106 C 112.864 106 120 98.86401 120 90 L 120 89 L 120 88 L 120 87 z" transform="translate(0,172)"/><path id="path970" fill="#c0bfbc" fill-opacity="1" fill-rule="evenodd" stroke="none" stroke-linecap="butt" stroke-linejoin="miter" stroke-opacity="1" stroke-width=".011" d="M 8 63 L 8 64 L 8 65 L 8 66 C 8 74.86401 15.136004 82 24 82 L 24 81 L 24 80 L 24 79 C 15.136004 79 8 71.86401 8 63 z M 40 79 L 24 95 L 24 96 L 24 97 L 24 98 L 40 82 L 40 81 L 40 80 L 40 79 z" opacity="1" transform="translate(0,172)"/><g id="g1093" fill="#3584e4" fill-opacity="1" stroke-width=".125" display="inline" opacity="1" transform="matrix(-2.0000003,0,0,2.0000003,1296.0002,-1012.0002)"><path id="path1087" fill="#3584e4" fill-opacity="1" fill-rule="evenodd" stroke="none" stroke-linecap="butt" stroke-linejoin="miter" stroke-opacity="1" stroke-width=".006" d="m 596.00006,639 v 12.99997 L 609.00001,639 Z"/><rect clip-rule="nonzero" style="marker:none" id="rect1089" width="40" height="32" x="-628" y="612" fill="#3584e4" fill-opacity="1" fill-rule="nonzero" stroke="none" stroke-dasharray="none" stroke-dashoffset="0" stroke-linecap="round" stroke-linejoin="round" stroke-miterlimit="4" stroke-opacity="1" stroke-width=".017" color="#000" color-interpolation="sRGB" color-interpolation-filters="linearRGB" color-rendering="auto" display="inline" enable-background="accumulate" image-rendering="auto" opacity="1" overflow="visible" rx="8" ry="8" shape-rendering="auto" text-rendering="auto" transform="scale(-1,1)" visibility="visible"/></g><path color="#000" style="marker:none" id="rect990" fill="#000" fill-opacity="1" fill-rule="nonzero" stroke="none" stroke-dasharray="none" stroke-dashoffset="0" stroke-linecap="round" stroke-linejoin="round" stroke-miterlimit="4" stroke-opacity="1" stroke-width=".034" d="M 40 56 L 40 82 L 72 82 C 80.863996 82 88 74.864008 88 66 L 88 56 L 40 56 z" clip-rule="nonzero" color-interpolation="sRGB" color-interpolation-filters="linearRGB" color-rendering="auto" display="inline" enable-background="accumulate" image-rendering="auto" opacity=".1" overflow="visible" shape-rendering="auto" text-rendering="auto" transform="translate(0,172)" visibility="visible"/><path id="path2779" fill="#f6f5f4" fill-opacity="1" fill-rule="evenodd" stroke="none" stroke-linecap="butt" stroke-linejoin="miter" stroke-opacity="1" stroke-width=".011" d="m 24.000059,241.99999 v 25.99995 l 25.999924,-25.99995 z"/><rect id="rect2781" width="80" height="64" x="8" y="188" fill="#f6f5f4" fill-opacity="1" fill-rule="nonzero" stroke="none" stroke-dasharray="none" stroke-dashoffset="0" stroke-linecap="round" stroke-linejoin="round" stroke-miterlimit="4" stroke-opacity="1" stroke-width=".034" clip-rule="nonzero" color="#000" color-interpolation="sRGB" color-interpolation-filters="linearRGB" color-rendering="auto" display="inline" enable-background="accumulate" image-rendering="auto" opacity="1" overflow="visible" rx="16" ry="16" shape-rendering="auto" text-rendering="auto" visibility="visible" style="marker:none"/><g id="g932" fill="#c0bfbc" transform="matrix(1,0,0,-1,-4.0000157,439.99998)"><circle id="path923" cx="220" cy="-34" r="6" fill="url(#linearGradient933)" fill-opacity="1" stroke="none" stroke-dasharray="none" stroke-dashoffset="0" stroke-linecap="square" stroke-linejoin="round" stroke-miterlimit="4" stroke-opacity="1" stroke-width="2" opacity="1" transform="rotate(90)" vector-effect="none"/><circle id="circle935" cx="220" cy="-52" r="6" fill="url(#linearGradient937)" fill-opacity="1" stroke="none" stroke-dasharray="none" stroke-dashoffset="0" stroke-linecap="square" stroke-linejoin="round" stroke-miterlimit="4" stroke-opacity="1" stroke-width="2" opacity="1" transform="rotate(90)" vector-effect="none"/><circle id="circle939" cx="220" cy="-70" r="6" fill="url(#linearGradient941)" fill-opacity="1" stroke="none" stroke-dasharray="none" stroke-dashoffset="0" stroke-linecap="square" stroke-linejoin="round" stroke-miterlimit="4" stroke-opacity="1" stroke-width="2" opacity="1" transform="rotate(90)" vector-effect="none"/></g></g></g></svg>