<?xml version="1.0" encoding="UTF-8" standalone="no"?>
<!-- Created with Inkscape (http://www.inkscape.org/) -->

<svg
   xmlns:dc="http://purl.org/dc/elements/1.1/"
   xmlns:cc="http://creativecommons.org/ns#"
   xmlns:rdf="http://www.w3.org/1999/02/22-rdf-syntax-ns#"
   xmlns:svg="http://www.w3.org/2000/svg"
   xmlns="http://www.w3.org/2000/svg"
   xmlns:xlink="http://www.w3.org/1999/xlink"
   xmlns:sodipodi="http://sodipodi.sourceforge.net/DTD/sodipodi-0.dtd"
   xmlns:inkscape="http://www.inkscape.org/namespaces/inkscape"
   inkscape:export-ydpi="96"
   inkscape:export-xdpi="96"
   inkscape:export-filename="Template.png"
   width="128"
   height="128"
   id="svg11300"
   sodipodi:version="0.32"
   inkscape:version="0.92.2 2405546, 2018-03-11"
   sodipodi:docname="org.gnome.Terminal.svg"
   inkscape:output_extension="org.inkscape.output.svg.inkscape"
   version="1.0"
   style="display:inline;enable-background:new"
   viewBox="0 0 128 128">
  <title
     id="title4162">Adwaita Icon Template</title>
  <defs
     id="defs3">
    <linearGradient
       inkscape:collect="always"
       id="linearGradient1948">
      <stop
         style="stop-color:#2d2839;stop-opacity:1;"
         offset="0"
         id="stop1944" />
      <stop
         style="stop-color:#282433;stop-opacity:1"
         offset="1"
         id="stop1946" />
    </linearGradient>
    <linearGradient
       inkscape:collect="always"
       id="linearGradient1020">
      <stop
         style="stop-color:#ffffff;stop-opacity:1;"
         offset="0"
         id="stop1016" />
      <stop
         style="stop-color:#ffffff;stop-opacity:0.09411765"
         offset="1"
         id="stop1018" />
    </linearGradient>
    <linearGradient
       inkscape:collect="always"
       id="linearGradient1001">
      <stop
         style="stop-color:#77767b;stop-opacity:1"
         offset="0"
         id="stop989" />
      <stop
         id="stop991"
         offset="0.05"
         style="stop-color:#c0bfbc;stop-opacity:1" />
      <stop
         style="stop-color:#9a9996;stop-opacity:1"
         offset="0.09999998"
         id="stop993" />
      <stop
         id="stop995"
         offset="0.89999938"
         style="stop-color:#9a9996;stop-opacity:1" />
      <stop
         style="stop-color:#c0bfbc;stop-opacity:1"
         offset="0.94999999"
         id="stop997" />
      <stop
         style="stop-color:#77767b;stop-opacity:1"
         offset="1"
         id="stop999" />
    </linearGradient>
    <linearGradient
       inkscape:collect="always"
       xlink:href="#linearGradient1001"
       id="linearGradient965"
       x1="48"
       y1="44"
       x2="464"
       y2="44"
       gradientUnits="userSpaceOnUse" />
    <radialGradient
       inkscape:collect="always"
       xlink:href="#linearGradient1020"
       id="radialGradient1030"
       cx="63.999996"
       cy="194.19048"
       fx="63.999996"
       fy="194.19048"
       r="44"
       gradientTransform="matrix(-4.7272726,7.935912e-7,-3.0301491e-7,-1.6363636,238.54547,49.766183)"
       gradientUnits="userSpaceOnUse" />
    <linearGradient
       inkscape:collect="always"
       xlink:href="#linearGradient1001"
       id="linearGradient870"
       gradientUnits="userSpaceOnUse"
       x1="48"
       y1="44"
       x2="464"
       y2="44"
       gradientTransform="matrix(0.25,0,0,0.25,-160,225)" />
    <radialGradient
       inkscape:collect="always"
       xlink:href="#linearGradient1020"
       id="radialGradient872"
       gradientUnits="userSpaceOnUse"
       gradientTransform="matrix(-4.7272726,7.935912e-7,-3.0301491e-7,-1.6363636,398.54547,49.766183)"
       cx="63.999996"
       cy="194.19048"
       fx="63.999996"
       fy="194.19048"
       r="44" />
    <linearGradient
       inkscape:collect="always"
       xlink:href="#linearGradient1948"
       id="linearGradient874"
       gradientUnits="userSpaceOnUse"
       x1="70.346565"
       y1="245.39511"
       x2="70.346565"
       y2="269.13693"
       gradientTransform="translate(-160)" />
  </defs>
  <sodipodi:namedview
     stroke="#ef2929"
     fill="#f57900"
     id="base"
     pagecolor="#ffffff"
     bordercolor="#666666"
     borderopacity="0.25490196"
     inkscape:pageopacity="0"
     inkscape:pageshadow="2"
     inkscape:zoom="1"
     inkscape:cx="8.181344"
     inkscape:cy="77.533396"
     inkscape:current-layer="layer9"
     showgrid="false"
     inkscape:grid-bbox="true"
     inkscape:document-units="px"
     inkscape:showpageshadow="false"
     inkscape:window-width="3440"
     inkscape:window-height="1376"
     inkscape:window-x="0"
     inkscape:window-y="27"
     width="400px"
     height="300px"
     inkscape:snap-nodes="true"
     inkscape:snap-bbox="true"
     objecttolerance="7"
     gridtolerance="12"
     guidetolerance="13"
     inkscape:window-maximized="1"
     inkscape:pagecheckerboard="true"
     showguides="false"
     inkscape:guide-bbox="true"
     inkscape:locked="false"
     inkscape:measure-start="0,0"
     inkscape:measure-end="0,0"
     inkscape:object-nodes="true"
     inkscape:bbox-nodes="true"
     inkscape:snap-global="true"
     inkscape:object-paths="true"
     inkscape:snap-intersection-paths="true"
     inkscape:snap-bbox-edge-midpoints="true"
     inkscape:snap-bbox-midpoints="true"
     showborder="false"
     inkscape:snap-smooth-nodes="true">
    <inkscape:grid
       type="xygrid"
       id="grid5883"
       spacingx="2"
       spacingy="2"
       enabled="true"
       visible="true"
       empspacing="4"
       originx="0"
       originy="0"
       dotted="false" />
    <sodipodi:guide
       position="216,216"
       orientation="0,1"
       id="guide1073"
       inkscape:locked="false" />
    <sodipodi:guide
       position="216.00001,216"
       orientation="1,0"
       id="guide1075"
       inkscape:locked="false" />
    <sodipodi:guide
       position="212.48559,512"
       orientation="0,1"
       id="guide1099"
       inkscape:locked="false" />
    <sodipodi:guide
       position="424,272"
       orientation="0,1"
       id="guide993"
       inkscape:locked="false" />
    <sodipodi:guide
       position="424.00001,272"
       orientation="1,0"
       id="guide995"
       inkscape:locked="false" />
    <inkscape:grid
       type="xygrid"
       id="grid1001"
       empcolor="#3f3fff"
       empopacity="0"
       dotted="true"
       empspacing="4" />
  </sodipodi:namedview>
  <metadata
     id="metadata4">
    <rdf:RDF>
      <cc:Work
         rdf:about="">
        <dc:format>image/svg+xml</dc:format>
        <dc:type
           rdf:resource="http://purl.org/dc/dcmitype/StillImage" />
        <dc:creator>
          <cc:Agent>
            <dc:title>GNOME Design Team</dc:title>
          </cc:Agent>
        </dc:creator>
        <dc:source />
        <cc:license
           rdf:resource="http://creativecommons.org/licenses/by-sa/4.0/" />
        <dc:title>Adwaita Icon Template</dc:title>
        <dc:subject>
          <rdf:Bag />
        </dc:subject>
        <dc:date />
        <dc:rights>
          <cc:Agent>
            <dc:title />
          </cc:Agent>
        </dc:rights>
        <dc:publisher>
          <cc:Agent>
            <dc:title />
          </cc:Agent>
        </dc:publisher>
        <dc:identifier />
        <dc:relation />
        <dc:language />
        <dc:coverage />
        <dc:description />
        <dc:contributor>
          <cc:Agent>
            <dc:title />
          </cc:Agent>
        </dc:contributor>
      </cc:Work>
      <cc:License
         rdf:about="http://creativecommons.org/licenses/by-sa/4.0/">
        <cc:permits
           rdf:resource="http://creativecommons.org/ns#Reproduction" />
        <cc:permits
           rdf:resource="http://creativecommons.org/ns#Distribution" />
        <cc:requires
           rdf:resource="http://creativecommons.org/ns#Notice" />
        <cc:requires
           rdf:resource="http://creativecommons.org/ns#Attribution" />
        <cc:permits
           rdf:resource="http://creativecommons.org/ns#DerivativeWorks" />
        <cc:requires
           rdf:resource="http://creativecommons.org/ns#ShareAlike" />
      </cc:License>
    </rdf:RDF>
  </metadata>
  <g
     id="layer1"
     inkscape:label="Terminal"
     inkscape:groupmode="layer"
     style="display:inline"
     transform="translate(0,-172)">
    <g
       inkscape:groupmode="layer"
       id="layer2"
       inkscape:label="baseplate"
       style="display:none">
      <g
         style="display:inline;enable-background:new"
         id="g865">
        <rect
           inkscape:label="512x512"
           y="172"
           x="9.2651362e-08"
           height="128"
           width="128"
           id="rect13805"
           style="display:inline;overflow:visible;visibility:visible;fill:#f0f0f0;fill-opacity:1;fill-rule:nonzero;stroke:none;stroke-width:0.5;marker:none;enable-background:accumulate" />
        <circle
           style="display:inline;opacity:0.1;vector-effect:none;fill:none;fill-opacity:1;stroke:#000000;stroke-width:0.99000001;stroke-linecap:butt;stroke-linejoin:miter;stroke-miterlimit:4;stroke-dasharray:0.99000001, 0.99000001;stroke-dashoffset:0;stroke-opacity:1;marker:none;marker-start:none;marker-mid:none;marker-end:none;paint-order:normal;enable-background:new"
           id="circle2892"
           r="59.504131"
           cy="236"
           cx="64.000031" />
        <rect
           style="display:inline;opacity:0.1;vector-effect:none;fill:none;fill-opacity:1;stroke:#000000;stroke-width:0.99000001;stroke-linecap:butt;stroke-linejoin:miter;stroke-miterlimit:4;stroke-dasharray:0.99000001, 0.99000001;stroke-dashoffset:0;stroke-opacity:1;marker:none;marker-start:none;marker-mid:none;marker-end:none;paint-order:normal;enable-background:new"
           id="rect2894"
           width="87.009987"
           height="111.01005"
           x="20.495007"
           y="180.49496"
           rx="8.701004"
           ry="7.9292889" />
        <rect
           style="display:inline;opacity:0.1;vector-effect:none;fill:none;fill-opacity:1;stroke:#000000;stroke-width:0.99000001;stroke-linecap:butt;stroke-linejoin:miter;stroke-miterlimit:4;stroke-dasharray:0.99000001, 0.99000001;stroke-dashoffset:0;stroke-opacity:1;marker:none;marker-start:none;marker-mid:none;marker-end:none;paint-order:normal;enable-background:new"
           id="rect2896"
           width="103.00952"
           height="103.00952"
           x="12.495266"
           y="184.49524"
           rx="7.9238095"
           ry="7.9238095" />
        <rect
           style="display:inline;opacity:0.1;vector-effect:none;fill:none;fill-opacity:1;stroke:#000000;stroke-width:0.99000001;stroke-linecap:butt;stroke-linejoin:miter;stroke-miterlimit:4;stroke-dasharray:0.99000001, 0.99000001;stroke-dashoffset:0;stroke-opacity:1;marker:none;marker-start:none;marker-mid:none;marker-end:none;paint-order:normal;enable-background:new"
           id="rect2898"
           width="111.01004"
           height="87.010048"
           x="8.4950066"
           y="200.49496"
           rx="7.9292889"
           ry="8.701005" />
        <path
           style="display:inline;fill:none;stroke:#62a0ea;stroke-width:2;stroke-linecap:butt;stroke-linejoin:miter;stroke-miterlimit:4;stroke-dasharray:none;stroke-opacity:1;enable-background:new"
           d="M 2.6203015e-5,288.99999 H 128.00003"
           id="path2900"
           inkscape:connector-curvature="0" />
      </g>
    </g>
    <g
       inkscape:groupmode="layer"
       id="layer9"
       inkscape:label="hires"
       style="display:inline">
      <g
         style="display:inline;enable-background:new"
         id="g1710"
         transform="rotate(-30,420.69873,288.4192)"
         inkscape:transform-center-y="101.02853"
         inkscape:transform-center-x="-56.112896" />
      <rect
         ry="32"
         rx="32"
         y="-124"
         x="48"
         height="376"
         width="416"
         id="rect953"
         style="display:inline;opacity:1;fill:url(#linearGradient965);fill-opacity:1;stroke:none;stroke-width:1;stroke-linecap:butt;stroke-linejoin:miter;stroke-miterlimit:4;stroke-dasharray:none;stroke-dashoffset:0;stroke-opacity:1;marker:none;marker-start:none;marker-mid:none;marker-end:none;paint-order:normal;enable-background:new"
         transform="matrix(0.25,0,0,0.25,0,225)" />
      <rect
         transform="matrix(0.25,0,0,0.25,0,225)"
         style="display:inline;opacity:1;fill:#deddda;fill-opacity:1;stroke:none;stroke-width:1;stroke-linecap:butt;stroke-linejoin:miter;stroke-miterlimit:4;stroke-dasharray:none;stroke-dashoffset:0;stroke-opacity:1;marker:none;marker-start:none;marker-mid:none;marker-end:none;paint-order:normal;enable-background:new"
         id="rect950"
         width="416"
         height="384"
         x="48"
         y="-164"
         rx="32"
         ry="32" />
      <rect
         style="display:inline;opacity:1;vector-effect:none;fill:#241f31;fill-opacity:1;stroke:none;stroke-width:0.01121096px;stroke-linecap:butt;stroke-linejoin:miter;stroke-miterlimit:4;stroke-dasharray:none;stroke-dashoffset:0;stroke-opacity:1;marker:none;marker-start:none;marker-mid:none;marker-end:none;paint-order:normal;enable-background:new"
         id="rect1004"
         width="96"
         height="87.999969"
         x="16"
         y="-276"
         rx="4"
         ry="3.9999695"
         transform="scale(1,-1)" />
      <rect
         y="-272"
         x="-108"
         height="78"
         width="88"
         id="rect968"
         style="display:inline;opacity:0.05;vector-effect:none;fill:url(#radialGradient1030);fill-opacity:1;stroke:none;stroke-width:0.01121096px;stroke-linecap:butt;stroke-linejoin:miter;stroke-miterlimit:4;stroke-dasharray:none;stroke-dashoffset:0;stroke-opacity:1;marker:none;marker-start:none;marker-mid:none;marker-end:none;paint-order:normal;enable-background:new"
         transform="scale(-1)" />
      <g
         style="fill:#ffffff"
         transform="translate(-2,-2)"
         id="g976">
        <path
           inkscape:connector-curvature="0"
           id="path972"
           style="font-style:normal;font-variant:normal;font-weight:bold;font-stretch:normal;font-size:medium;line-height:1.25;font-family:'Source Code Pro';-inkscape-font-specification:'Source Code Pro, Bold';font-variant-ligatures:normal;font-variant-caps:normal;font-variant-numeric:normal;font-feature-settings:normal;text-align:start;letter-spacing:0px;word-spacing:0px;writing-mode:lr-tb;text-anchor:start;fill:#ffffff;fill-opacity:1;stroke:none;stroke-width:0.24999999"
           d="M 44.012301,210.88755 30,203.27182 V 208 l 9.710724,4.62951 v 0.1422 L 30,218 v 4.72818 l 14.012301,-8.21451 z"
           sodipodi:nodetypes="ccccccccc" />
        <path
           sodipodi:nodetypes="ccccc"
           inkscape:connector-curvature="0"
           id="path974"
           style="font-style:normal;font-variant:normal;font-weight:bold;font-stretch:normal;font-size:medium;line-height:1.25;font-family:'Source Code Pro';-inkscape-font-specification:'Source Code Pro, Bold';font-variant-ligatures:normal;font-variant-caps:normal;font-variant-numeric:normal;font-feature-settings:normal;text-align:start;letter-spacing:0px;word-spacing:0px;writing-mode:lr-tb;text-anchor:start;fill:#ffffff;fill-opacity:1;stroke:none;stroke-width:0.24999999"
           d="m 47.999998,226 2e-6,4 h 16.00001 l -2e-6,-4 z" />
      </g>
      <rect
         style="display:inline;opacity:1;fill:url(#linearGradient870);fill-opacity:1;stroke:none;stroke-width:0.25;stroke-linecap:butt;stroke-linejoin:miter;stroke-miterlimit:4;stroke-dasharray:none;stroke-dashoffset:0;stroke-opacity:1;marker:none;marker-start:none;marker-mid:none;marker-end:none;paint-order:normal;enable-background:new"
         id="rect854"
         width="104"
         height="94"
         x="-148"
         y="194"
         rx="8"
         ry="8" />
      <rect
         ry="8"
         rx="8"
         y="184"
         x="-148"
         height="96"
         width="104"
         id="rect856"
         style="display:inline;opacity:1;fill:#deddda;fill-opacity:1;stroke:none;stroke-width:0.25;stroke-linecap:butt;stroke-linejoin:miter;stroke-miterlimit:4;stroke-dasharray:none;stroke-dashoffset:0;stroke-opacity:1;marker:none;marker-start:none;marker-mid:none;marker-end:none;paint-order:normal;enable-background:new" />
      <rect
         transform="scale(1,-1)"
         ry="3.9999695"
         rx="4"
         y="-276"
         x="-144"
         height="87.999969"
         width="96"
         id="rect858"
         style="display:inline;opacity:1;vector-effect:none;fill:#241f31;fill-opacity:1;stroke:none;stroke-width:0.01121096px;stroke-linecap:butt;stroke-linejoin:miter;stroke-miterlimit:4;stroke-dasharray:none;stroke-dashoffset:0;stroke-opacity:1;marker:none;marker-start:none;marker-mid:none;marker-end:none;paint-order:normal;enable-background:new" />
      <rect
         transform="scale(-1)"
         style="display:inline;opacity:0.05;vector-effect:none;fill:url(#radialGradient872);fill-opacity:1;stroke:none;stroke-width:0.01121096px;stroke-linecap:butt;stroke-linejoin:miter;stroke-miterlimit:4;stroke-dasharray:none;stroke-dashoffset:0;stroke-opacity:1;marker:none;marker-start:none;marker-mid:none;marker-end:none;paint-order:normal;enable-background:new"
         id="rect860"
         width="88"
         height="78"
         x="52"
         y="-272" />
      <g
         id="g866"
         transform="translate(-162,-2)"
         style="fill:#ffffff">
        <path
           sodipodi:nodetypes="ccccccccc"
           d="M 44.012301,210.88755 30,203.27182 V 208 l 9.710724,4.62951 v 0.1422 L 30,218 v 4.72818 l 14.012301,-8.21451 z"
           style="font-style:normal;font-variant:normal;font-weight:bold;font-stretch:normal;font-size:medium;line-height:1.25;font-family:'Source Code Pro';-inkscape-font-specification:'Source Code Pro, Bold';font-variant-ligatures:normal;font-variant-caps:normal;font-variant-numeric:normal;font-feature-settings:normal;text-align:start;letter-spacing:0px;word-spacing:0px;writing-mode:lr-tb;text-anchor:start;fill:#ffffff;fill-opacity:1;stroke:none;stroke-width:0.24999999"
           id="path862"
           inkscape:connector-curvature="0" />
        <path
           d="m 47.999998,226 2e-6,4 h 16.00001 l -2e-6,-4 z"
           style="font-style:normal;font-variant:normal;font-weight:bold;font-stretch:normal;font-size:medium;line-height:1.25;font-family:'Source Code Pro';-inkscape-font-specification:'Source Code Pro, Bold';font-variant-ligatures:normal;font-variant-caps:normal;font-variant-numeric:normal;font-feature-settings:normal;text-align:start;letter-spacing:0px;word-spacing:0px;writing-mode:lr-tb;text-anchor:start;fill:#ffffff;fill-opacity:1;stroke:none;stroke-width:0.24999999"
           id="path864"
           inkscape:connector-curvature="0"
           sodipodi:nodetypes="ccccc" />
      </g>
      <path
         d="m -60,244 h 4 v 4 h -4 z m -8,0 h 4 v 4 h -4 z m -8,0 h 4 v 4 h -4 z m -8,0 h 4 v 4 h -4 z m -8,0 h 4 v 4 h -4 z m -8,0 h 4 v 4 h -4 z m -8,0 h 4 v 4 h -4 z m -8,0 h 4 v 4 h -4 z m -8,0 h 4 v 4 h -4 z m -8,0 h 4 v 4 h -4 z m -8,0 h 4 v 4 h -4 z m 84,4 h 4 v 4 h -4 z m -8,0 h 4 v 4 h -4 z m -8,0 h 4 v 4 h -4 z m -8,0 h 4 v 4 h -4 z m -8,0 h 4 v 4 h -4 z m -8,0 h 4 v 4 h -4 z m -8,0 h 4 v 4 h -4 z m -8,0 h 4 v 4 h -4 z m -8,0 h 4 v 4 h -4 z m -8,0 h 4 v 4 h -4 z m -8,0 h 4 v 4 h -4 z m 76,4 h 4 v 4 h -4 z m -8,0 h 4 v 4 h -4 z m -8,0 h 4 v 4 h -4 z m -8,0 h 4 v 4 h -4 z m -8,0 h 4 v 4 h -4 z m -8,0 h 4 v 4 h -4 z m -8,0 h 4 v 4 h -4 z m -8,0 h 4 v 4 h -4 z m -8,0 h 4 v 4 h -4 z m -8,0 h 4 v 4 h -4 z m -8,0 h 4 v 4 h -4 z m 84,4 h 4 v 4 h -4 z m -8,0 h 4 v 4 h -4 z m -8,0 h 4 v 4 h -4 z m -8,0 h 4 v 4 h -4 z m -8,0 h 4 v 4 h -4 z m -8,0 h 4 v 4 h -4 z m -8,0 h 4 v 4 h -4 z m -8,0 h 4 v 4 h -4 z m -8,0 h 4 v 4 h -4 z m -8,0 h 4 v 4 h -4 z m -8,0 h 4 v 4 h -4 z m 76,4 h 4 v 4 h -4 z m -8,0 h 4 v 4 h -4 z m -8,0 h 4 v 4 h -4 z m -8,0 h 4 v 4 h -4 z m -8,0 h 4 v 4 h -4 z m -8,0 h 4 v 4 h -4 z m -8,0 h 4 v 4 h -4 z m -8,0 h 4 v 4 h -4 z m -8,0 h 4 v 4 h -4 z m -8,0 h 4 v 4 h -4 z m -8,0 h 4 v 4 h -4 z m 84,4 h 4 v 4 h -4 z m -8,0 h 4 v 4 h -4 z m -8,0 h 4 v 4 h -4 z m -8,0 h 4 v 4 h -4 z m -8,0 h 4 v 4 h -4 z m -8,0 h 4 v 4 h -4 z m -8,0 h 4 v 4 h -4 z m -8,0 h 4 v 4 h -4 z m -8,0 h 4 v 4 h -4 z m -8,0 h 4 v 4 h -4 z m -8,0 h 4 v 4 h -4 z m 76,4 h 4 v 4 h -4 z m -8,0 h 4 v 4 h -4 z m -8,0 h 4 v 4 h -4 z m -8,0 h 4 v 4 h -4 z m -8,0 h 4 v 4 h -4 z m -8,0 h 4 v 4 h -4 z m -8,0 h 4 v 4 h -4 z m -8,0 h 4 v 4 h -4 z m -8,0 h 4 v 4 h -4 z m -8,0 h 4 v 4 h -4 z m -8,0 h 4 v 4 h -4 z"
         style="opacity:1;vector-effect:none;fill:url(#linearGradient874);fill-opacity:1;stroke:none;stroke-width:8;stroke-linecap:round;stroke-linejoin:round;stroke-miterlimit:4;stroke-dasharray:none;stroke-dashoffset:0;stroke-opacity:1;marker:none;marker-start:none;marker-mid:none;marker-end:none;paint-order:normal"
         id="path868"
         inkscape:connector-curvature="0" />
    </g>
  </g>
</svg>
