<?xml version="1.0" encoding="UTF-8" standalone="no"?>
<!-- Created with Inkscape (http://www.inkscape.org/) -->

<svg
   xmlns:dc="http://purl.org/dc/elements/1.1/"
   xmlns:cc="http://creativecommons.org/ns#"
   xmlns:rdf="http://www.w3.org/1999/02/22-rdf-syntax-ns#"
   xmlns:svg="http://www.w3.org/2000/svg"
   xmlns="http://www.w3.org/2000/svg"
   xmlns:xlink="http://www.w3.org/1999/xlink"
   xmlns:sodipodi="http://sodipodi.sourceforge.net/DTD/sodipodi-0.dtd"
   xmlns:inkscape="http://www.inkscape.org/namespaces/inkscape"
   inkscape:export-ydpi="96"
   inkscape:export-xdpi="96"
   inkscape:export-filename="Template.png"
   width="128"
   height="128"
   id="svg11300"
   sodipodi:version="0.32"
   inkscape:version="0.92.3 (2405546, 2018-03-11)"
   sodipodi:docname="org.gnome.Contacts.svg"
   inkscape:output_extension="org.inkscape.output.svg.inkscape"
   version="1.0"
   style="display:inline;enable-background:new"
   viewBox="0 0 128 128">
  <title
     id="title4162">Adwaita Icon Template</title>
  <defs
     id="defs3">
    <linearGradient
       inkscape:collect="always"
       id="linearGradient1458">
      <stop
         style="stop-color:#deddda;stop-opacity:1"
         offset="0"
         id="stop1452" />
      <stop
         id="stop1454"
         offset="0.51104856"
         style="stop-color:#ffffff;stop-opacity:1" />
      <stop
         style="stop-color:#c0bfbc;stop-opacity:1"
         offset="1"
         id="stop1456" />
    </linearGradient>
    <linearGradient
       id="linearGradient1879"
       inkscape:collect="always">
      <stop
         id="stop1873"
         offset="0"
         style="stop-color:#e8e7e4;stop-opacity:1" />
      <stop
         style="stop-color:#ffffff;stop-opacity:1"
         offset="0.51104856"
         id="stop1875" />
      <stop
         id="stop1877"
         offset="1"
         style="stop-color:#c2bfba;stop-opacity:1" />
    </linearGradient>
    <linearGradient
       y2="236"
       x2="96"
       y1="236"
       x1="32"
       gradientTransform="translate(604.81684,170.58641)"
       gradientUnits="userSpaceOnUse"
       id="linearGradient1099"
       xlink:href="#linearGradient1036" />
    <linearGradient
       id="linearGradient1036">
      <stop
         id="stop1032"
         offset="0"
         style="stop-color:#d5d3cf;stop-opacity:1;" />
      <stop
         id="stop1034"
         offset="1"
         style="stop-color:#f6f5f4;stop-opacity:1" />
    </linearGradient>
    <radialGradient
       r="32"
       fy="-76"
       fx="-244"
       cy="-76"
       cx="-244"
       gradientTransform="matrix(0.88333331,0,0,0.88333331,-460.35018,463.11973)"
       gradientUnits="userSpaceOnUse"
       id="radialGradient1103"
       xlink:href="#linearGradient1069" />
    <linearGradient
       id="linearGradient1069">
      <stop
         id="stop1065"
         offset="0"
         style="stop-color:#d5d3cf;stop-opacity:1" />
      <stop
         id="stop1067-1"
         offset="1"
         style="stop-color:#949390;stop-opacity:1" />
    </linearGradient>
    <linearGradient
       gradientUnits="userSpaceOnUse"
       y2="232"
       x2="64"
       y1="262.5"
       x1="64"
       id="linearGradient1027"
       xlink:href="#linearGradient1025"
       gradientTransform="translate(-470.5864,432.81685)" />
    <linearGradient
       id="linearGradient1025">
      <stop
         id="stop1021"
         offset="0"
         style="stop-color:#9a9996;stop-opacity:1" />
      <stop
         id="stop1023"
         offset="1"
         style="stop-color:#77767b;stop-opacity:1" />
    </linearGradient>
    <inkscape:path-effect
       effect="spiro"
       id="path-effect35304-9"
       is_visible="true" />
    <linearGradient
       inkscape:collect="always"
       xlink:href="#linearGradient1458"
       id="linearGradient1053-2"
       x1="384"
       y1="120"
       x2="416"
       y2="120"
       gradientUnits="userSpaceOnUse"
       gradientTransform="translate(0,640)" />
    <linearGradient
       inkscape:collect="always"
       xlink:href="#linearGradient901"
       id="linearGradient903"
       x1="379.20563"
       y1="48"
       x2="408"
       y2="48"
       gradientUnits="userSpaceOnUse"
       gradientTransform="matrix(0.25,0,0,0.25,-330.49999,224.5)" />
    <linearGradient
       inkscape:collect="always"
       id="linearGradient901">
      <stop
         style="stop-color:#eeeeec;stop-opacity:1"
         offset="0"
         id="stop897" />
      <stop
         id="stop905"
         offset="0.45497873"
         style="stop-color:#ffffff;stop-opacity:1" />
      <stop
         style="stop-color:#babdb6;stop-opacity:1"
         offset="1"
         id="stop899" />
    </linearGradient>
    <linearGradient
       inkscape:collect="always"
       xlink:href="#linearGradient1879"
       id="linearGradient1334"
       gradientUnits="userSpaceOnUse"
       gradientTransform="translate(0,640)"
       x1="384"
       y1="120"
       x2="416"
       y2="120" />
  </defs>
  <sodipodi:namedview
     stroke="#ef2929"
     fill="#f57900"
     id="base"
     pagecolor="#ffffff"
     bordercolor="#666666"
     borderopacity="0.25490196"
     inkscape:pageopacity="0.0"
     inkscape:pageshadow="2"
     inkscape:zoom="0.70710678"
     inkscape:cx="-201.49547"
     inkscape:cy="-26.561037"
     inkscape:current-layer="layer2"
     showgrid="false"
     inkscape:grid-bbox="true"
     inkscape:document-units="px"
     inkscape:showpageshadow="false"
     inkscape:window-width="1920"
     inkscape:window-height="1016"
     inkscape:window-x="1600"
     inkscape:window-y="27"
     width="400px"
     height="300px"
     inkscape:snap-nodes="true"
     inkscape:snap-bbox="true"
     objecttolerance="7"
     gridtolerance="12"
     guidetolerance="13"
     inkscape:window-maximized="1"
     inkscape:pagecheckerboard="false"
     showguides="false"
     inkscape:guide-bbox="true"
     inkscape:locked="false"
     inkscape:measure-start="0,0"
     inkscape:measure-end="0,0"
     inkscape:object-nodes="true"
     inkscape:bbox-nodes="true"
     inkscape:snap-global="true"
     inkscape:object-paths="true"
     inkscape:snap-intersection-paths="true"
     inkscape:snap-bbox-edge-midpoints="true"
     inkscape:snap-bbox-midpoints="true"
     showborder="false"
     inkscape:snap-center="true"
     inkscape:snap-object-midpoints="true"
     inkscape:snap-midpoints="true"
     inkscape:snap-smooth-nodes="true"
     inkscape:snap-text-baseline="true">
    <inkscape:grid
       type="xygrid"
       id="grid5883"
       spacingx="2"
       spacingy="2"
       enabled="true"
       visible="true"
       empspacing="4"
       originx="0"
       originy="0" />
    <sodipodi:guide
       position="64,8"
       orientation="0,1"
       id="guide1073"
       inkscape:locked="false"
       inkscape:label=""
       inkscape:color="rgb(0,0,255)" />
    <sodipodi:guide
       position="12,64"
       orientation="1,0"
       id="guide1075"
       inkscape:locked="false"
       inkscape:label=""
       inkscape:color="rgb(0,0,255)" />
    <sodipodi:guide
       position="64,104"
       orientation="0,1"
       id="guide1099"
       inkscape:locked="false"
       inkscape:label=""
       inkscape:color="rgb(0,0,255)" />
    <sodipodi:guide
       position="64,128"
       orientation="0,1"
       id="guide993"
       inkscape:locked="false"
       inkscape:label=""
       inkscape:color="rgb(0,0,255)" />
    <sodipodi:guide
       position="104,64"
       orientation="1,0"
       id="guide995"
       inkscape:locked="false"
       inkscape:label=""
       inkscape:color="rgb(0,0,255)" />
    <sodipodi:guide
       position="9.2651362e-08,64"
       orientation="1,0"
       id="guide867"
       inkscape:locked="false"
       inkscape:label=""
       inkscape:color="rgb(0,0,255)" />
    <sodipodi:guide
       position="120,64"
       orientation="1,0"
       id="guide869"
       inkscape:locked="false"
       inkscape:label=""
       inkscape:color="rgb(0,0,255)" />
    <sodipodi:guide
       position="64,116"
       orientation="0,1"
       id="guide871"
       inkscape:locked="false"
       inkscape:label=""
       inkscape:color="rgb(0,0,255)" />
    <inkscape:grid
       type="xygrid"
       id="grid873"
       spacingx="1"
       spacingy="1"
       empspacing="8"
       color="#000000"
       opacity="0.49019608"
       empcolor="#000000"
       empopacity="0.08627451"
       dotted="true" />
    <sodipodi:guide
       position="24,64"
       orientation="1,0"
       id="guide877"
       inkscape:locked="false"
       inkscape:label=""
       inkscape:color="rgb(0,0,255)" />
    <sodipodi:guide
       position="116,64"
       orientation="1,0"
       id="guide879"
       inkscape:locked="false"
       inkscape:label=""
       inkscape:color="rgb(0,0,255)" />
    <sodipodi:guide
       position="64,120"
       orientation="0,1"
       id="guide881"
       inkscape:locked="false"
       inkscape:label=""
       inkscape:color="rgb(0,0,255)" />
    <sodipodi:guide
       position="64,12"
       orientation="0,1"
       id="guide883"
       inkscape:locked="false"
       inkscape:label=""
       inkscape:color="rgb(0,0,255)" />
    <sodipodi:guide
       position="8,64"
       orientation="1,0"
       id="guide885"
       inkscape:locked="false"
       inkscape:label=""
       inkscape:color="rgb(0,0,255)" />
    <sodipodi:guide
       position="128,64"
       orientation="1,0"
       id="guide887"
       inkscape:locked="false"
       inkscape:label=""
       inkscape:color="rgb(0,0,255)" />
    <sodipodi:guide
       position="64,0"
       orientation="0,1"
       id="guide897"
       inkscape:locked="false"
       inkscape:label=""
       inkscape:color="rgb(0,0,255)" />
    <sodipodi:guide
       position="64,24"
       orientation="0,1"
       id="guide899"
       inkscape:locked="false"
       inkscape:label=""
       inkscape:color="rgb(0,0,255)" />
    <sodipodi:guide
       position="256,256"
       orientation="-0.70710678,0.70710678"
       id="guide950"
       inkscape:locked="false"
       inkscape:label=""
       inkscape:color="rgb(0,0,255)" />
    <sodipodi:guide
       position="64,64"
       orientation="0.70710678,0.70710678"
       id="guide952"
       inkscape:locked="false"
       inkscape:label=""
       inkscape:color="rgb(0,0,255)" />
  </sodipodi:namedview>
  <metadata
     id="metadata4">
    <rdf:RDF>
      <cc:Work
         rdf:about="">
        <dc:format>image/svg+xml</dc:format>
        <dc:type
           rdf:resource="http://purl.org/dc/dcmitype/StillImage" />
        <dc:creator>
          <cc:Agent>
            <dc:title>GNOME Design Team</dc:title>
          </cc:Agent>
        </dc:creator>
        <dc:source />
        <cc:license
           rdf:resource="http://creativecommons.org/licenses/by-sa/4.0/" />
        <dc:title>Adwaita Icon Template</dc:title>
        <dc:subject>
          <rdf:Bag />
        </dc:subject>
        <dc:date />
        <dc:rights>
          <cc:Agent>
            <dc:title />
          </cc:Agent>
        </dc:rights>
        <dc:publisher>
          <cc:Agent>
            <dc:title />
          </cc:Agent>
        </dc:publisher>
        <dc:identifier />
        <dc:relation />
        <dc:language />
        <dc:coverage />
        <dc:description />
        <dc:contributor>
          <cc:Agent>
            <dc:title />
          </cc:Agent>
        </dc:contributor>
      </cc:Work>
      <cc:License
         rdf:about="http://creativecommons.org/licenses/by-sa/4.0/">
        <cc:permits
           rdf:resource="http://creativecommons.org/ns#Reproduction" />
        <cc:permits
           rdf:resource="http://creativecommons.org/ns#Distribution" />
        <cc:requires
           rdf:resource="http://creativecommons.org/ns#Notice" />
        <cc:requires
           rdf:resource="http://creativecommons.org/ns#Attribution" />
        <cc:permits
           rdf:resource="http://creativecommons.org/ns#DerivativeWorks" />
        <cc:requires
           rdf:resource="http://creativecommons.org/ns#ShareAlike" />
      </cc:License>
    </rdf:RDF>
  </metadata>
  <g
     id="layer1"
     inkscape:label="App Icon"
     inkscape:groupmode="layer"
     style="display:inline"
     transform="translate(0,-172)">
    <g
       inkscape:groupmode="layer"
       id="layer2"
       inkscape:label="baseplate"
       style="display:none"
       sodipodi:insensitive="true">
      <text
         xml:space="preserve"
         style="font-style:normal;font-variant:normal;font-weight:normal;font-stretch:normal;font-size:5.33333349px;line-height:125%;font-family:Cantarell;-inkscape-font-specification:'Cantarell, Normal';text-align:start;writing-mode:lr-tb;text-anchor:start;display:inline;fill:#000000;fill-opacity:1;stroke:none;stroke-width:0.33264872;enable-background:new"
         x="-0.050041199"
         y="128.65199"
         id="context"
         inkscape:label="context"><tspan
           sodipodi:role="line"
           id="tspan2716"
           x="-0.050041199"
           y="128.65199"
           style="font-size:5.33333349px;stroke-width:0.33264872">apps</tspan></text>
      <text
         inkscape:label="icon-name"
         id="text3021"
         y="137.23398"
         x="-0.24669456"
         style="font-style:normal;font-variant:normal;font-weight:bold;font-stretch:normal;font-size:5.33333349px;line-height:125%;font-family:Cantarell;-inkscape-font-specification:'Cantarell, Bold';text-align:start;writing-mode:lr-tb;text-anchor:start;display:inline;fill:#000000;fill-opacity:1;stroke:none;stroke-width:0.33264872;enable-background:new"
         xml:space="preserve"><tspan
           y="137.23398"
           x="-0.24669456"
           id="tspan3023"
           sodipodi:role="line"
           style="font-size:5.33333349px;stroke-width:0.33264872">org.gnome.Contacts</tspan></text>
      <g
         style="display:inline;fill:#000000;enable-background:new"
         transform="matrix(7.9911709,0,0,8.0036407,-167.7909,-4846.0776)"
         id="g12027"
         inkscape:export-xdpi="12"
         inkscape:export-ydpi="12" />
      <rect
         style="display:inline;overflow:visible;visibility:visible;fill:#f0f0f0;fill-opacity:1;fill-rule:nonzero;stroke:none;stroke-width:0.5;marker:none;enable-background:accumulate"
         id="rect13805"
         width="128"
         height="128"
         x="9.2651362e-08"
         y="172"
         inkscape:label="512x512" />
      <g
         id="g883"
         style="fill:none;fill-opacity:0.25098039;stroke:#a579b3;stroke-opacity:1"
         transform="translate(-24,24)" />
      <g
         id="g900"
         style="fill:none;fill-opacity:0.25098039;stroke:#a579b3;stroke-opacity:1"
         transform="translate(-24,24)" />
      <rect
         inkscape:label="512x512"
         y="172"
         x="160"
         height="16"
         width="16"
         id="rect859"
         style="display:inline;overflow:visible;visibility:visible;fill:#f0f0f0;fill-opacity:1;fill-rule:nonzero;stroke:none;stroke-width:0.5;marker:none;enable-background:accumulate" />
      <text
         xml:space="preserve"
         style="font-style:normal;font-variant:normal;font-weight:bold;font-stretch:normal;font-size:4px;line-height:125%;font-family:Cantarell;-inkscape-font-specification:'Cantarell, Bold';text-align:start;writing-mode:lr-tb;text-anchor:start;display:inline;fill:#000000;fill-opacity:1;stroke:none;stroke-width:0.33264872;enable-background:new"
         x="0"
         y="164"
         id="text863"
         inkscape:label="icon-name"><tspan
           style="font-size:4px;stroke-width:0.33264872"
           sodipodi:role="line"
           id="tspan861"
           x="0"
           y="164">Hicolor</tspan></text>
      <text
         inkscape:label="icon-name"
         id="text867"
         y="164"
         x="160"
         style="font-style:normal;font-variant:normal;font-weight:bold;font-stretch:normal;font-size:4px;line-height:125%;font-family:Cantarell;-inkscape-font-specification:'Cantarell, Bold';text-align:start;writing-mode:lr-tb;text-anchor:start;display:inline;fill:#000000;fill-opacity:1;stroke:none;stroke-width:0.33264872;enable-background:new"
         xml:space="preserve"><tspan
           y="164"
           x="160"
           id="tspan865"
           sodipodi:role="line"
           style="font-size:4px;stroke-width:0.33264872">Symbolic</tspan></text>
    </g>
    <g
       inkscape:groupmode="layer"
       id="layer3"
       inkscape:label="hairlines"
       style="display:none"
       sodipodi:insensitive="true">
      <circle
         cx="64.000031"
         cy="236"
         r="59.504131"
         id="circle2892"
         style="display:inline;opacity:0.1;vector-effect:none;fill:none;fill-opacity:1;stroke:#000000;stroke-width:0.99000001;stroke-linecap:butt;stroke-linejoin:miter;stroke-miterlimit:4;stroke-dasharray:0.99000001, 0.99000001;stroke-dashoffset:0;stroke-opacity:1;marker:none;marker-start:none;marker-mid:none;marker-end:none;paint-order:normal;enable-background:new" />
      <rect
         ry="7.9292889"
         rx="8.701004"
         y="180.49496"
         x="20.495007"
         height="111.01005"
         width="87.009987"
         id="rect2894"
         style="display:inline;opacity:0.1;vector-effect:none;fill:none;fill-opacity:1;stroke:#000000;stroke-width:0.99000001;stroke-linecap:butt;stroke-linejoin:miter;stroke-miterlimit:4;stroke-dasharray:0.99000001, 0.99000001;stroke-dashoffset:0;stroke-opacity:1;marker:none;marker-start:none;marker-mid:none;marker-end:none;paint-order:normal;enable-background:new" />
      <rect
         ry="7.9238095"
         rx="7.9238095"
         y="184.49524"
         x="12.495266"
         height="103.00952"
         width="103.00952"
         id="rect2896"
         style="display:inline;opacity:0.1;vector-effect:none;fill:none;fill-opacity:1;stroke:#000000;stroke-width:0.99000001;stroke-linecap:butt;stroke-linejoin:miter;stroke-miterlimit:4;stroke-dasharray:0.99000001, 0.99000001;stroke-dashoffset:0;stroke-opacity:1;marker:none;marker-start:none;marker-mid:none;marker-end:none;paint-order:normal;enable-background:new" />
      <rect
         ry="8.701005"
         rx="7.9292889"
         y="200.49496"
         x="8.4950066"
         height="87.010048"
         width="111.01004"
         id="rect2898"
         style="display:inline;opacity:0.1;vector-effect:none;fill:none;fill-opacity:1;stroke:#000000;stroke-width:0.99000001;stroke-linecap:butt;stroke-linejoin:miter;stroke-miterlimit:4;stroke-dasharray:0.99000001, 0.99000001;stroke-dashoffset:0;stroke-opacity:1;marker:none;marker-start:none;marker-mid:none;marker-end:none;paint-order:normal;enable-background:new" />
      <path
         inkscape:connector-curvature="0"
         id="path2900"
         d="M 2.6203015e-5,288.99999 H 128.00003"
         style="display:inline;fill:none;stroke:#62a0ea;stroke-width:2;stroke-linecap:butt;stroke-linejoin:miter;stroke-miterlimit:4;stroke-dasharray:none;stroke-opacity:1;enable-background:new" />
    </g>
    <g
       inkscape:groupmode="layer"
       id="layer9"
       inkscape:label="icons"
       style="display:inline">
      <g
         style="display:inline;enable-background:new"
         id="g1295"
         transform="translate(22.50002,2.5)">
        <path
           sodipodi:nodetypes="sccccccssss"
           inkscape:connector-curvature="0"
           id="rect868-3"
           d="m -300.49999,185.5 c -2.03713,0 -3.89033,0.75496 -5.2998,2 h -2.7002 v 6 88 c 0,4 3.14315,8 8.08497,8 h 63.91503 c 4.432,0 8,-3.568 8,-8 v -88 c 0,-4.432 -3.568,-8 -8,-8 z"
           style="display:inline;opacity:1;fill:#204f8b;fill-opacity:1;stroke:none;stroke-width:5.99999952;stroke-linecap:round;stroke-linejoin:miter;stroke-miterlimit:4;stroke-dasharray:none;stroke-dashoffset:0;stroke-opacity:1;marker:none;marker-start:none;marker-mid:none;marker-end:none;paint-order:normal;enable-background:new" />
        <path
           sodipodi:nodetypes="ssssssscss"
           inkscape:connector-curvature="0"
           id="rect868-3-6"
           d="m -296.49999,185.5 h 60 c 4.432,0 8,3.568 8,8 v 86 c 0,4.432 -3.568,8 -8,8 h -62 c -3.45941,0 -5.89041,-1.29289 -5.89041,-4.02626 0,-1.24206 0.74969,-1.97374 1.89041,-1.97374 l -2,-88 c -0.1007,-4.43086 3.568,-8 8,-8 z"
           style="display:inline;opacity:1;fill:url(#linearGradient903);fill-opacity:1;stroke:none;stroke-width:5.99999952;stroke-linecap:round;stroke-linejoin:miter;stroke-miterlimit:4;stroke-dasharray:none;stroke-dashoffset:0;stroke-opacity:1;marker:none;marker-start:none;marker-mid:none;marker-end:none;paint-order:normal;enable-background:new" />
        <path
           sodipodi:nodetypes="cccccc"
           inkscape:connector-curvature="0"
           id="path891"
           d="m -304.0536,285.06756 c 0,0 0.42666,-1.52337 1.55361,-1.56756 h 66 c 4,0 8,-6.06672 8,-10 l -74,8 c -2.12132,-0.0331 -2.15468,2.20859 -1.55361,3.56756 z"
           style="display:inline;fill:#000000;fill-opacity:0.07843137;stroke:none;stroke-width:0.25px;stroke-linecap:butt;stroke-linejoin:miter;stroke-opacity:1;enable-background:new" />
        <path
           sodipodi:nodetypes="sccccccssss"
           inkscape:connector-curvature="0"
           id="rect868"
           d="m -300.49999,177.5 c -2.03713,0 -0.64033,0.78621 -2.0498,2.03125 l -5.9502,-0.0312 v 6 88 8 h 72 c 4.432,0 8,-3.568 8,-8 v -88 c 0,-4.432 -3.568,-8 -8,-8 z"
           style="display:inline;opacity:1;fill:#204f8b;fill-opacity:1;stroke:none;stroke-width:5.99999952;stroke-linecap:round;stroke-linejoin:miter;stroke-miterlimit:4;stroke-dasharray:none;stroke-dashoffset:0;stroke-opacity:1;marker:none;marker-start:none;marker-mid:none;marker-end:none;paint-order:normal;enable-background:new" />
        <rect
           ry="8.0034189"
           rx="8"
           y="193.5"
           x="-236.49998"
           height="24"
           width="16"
           id="rect1036"
           style="display:inline;opacity:1;fill:#f9f06b;fill-opacity:1;stroke:none;stroke-width:5.99999952;stroke-linecap:round;stroke-linejoin:miter;stroke-miterlimit:4;stroke-dasharray:none;stroke-dashoffset:0;stroke-opacity:1;marker:none;marker-start:none;marker-mid:none;marker-end:none;paint-order:normal;enable-background:new" />
        <rect
           ry="8.0034189"
           rx="8"
           y="209.5"
           x="-236.49998"
           height="24"
           width="16"
           id="rect1036-3"
           style="display:inline;opacity:1;fill:#26a269;fill-opacity:1;stroke:none;stroke-width:5.99999952;stroke-linecap:round;stroke-linejoin:miter;stroke-miterlimit:4;stroke-dasharray:none;stroke-dashoffset:0;stroke-opacity:1;marker:none;marker-start:none;marker-mid:none;marker-end:none;paint-order:normal;enable-background:new" />
        <rect
           ry="8.0034189"
           rx="8"
           y="225.5"
           x="-236.49998"
           height="24"
           width="16"
           id="rect1036-3-3"
           style="display:inline;opacity:1;fill:#4a86cf;fill-opacity:1;stroke:none;stroke-width:5.99999952;stroke-linecap:round;stroke-linejoin:miter;stroke-miterlimit:4;stroke-dasharray:none;stroke-dashoffset:0;stroke-opacity:1;marker:none;marker-start:none;marker-mid:none;marker-end:none;paint-order:normal;enable-background:new" />
        <rect
           ry="8.0034189"
           rx="8"
           y="241.5"
           x="-236.49998"
           height="24"
           width="16"
           id="rect1036-3-3-6"
           style="display:inline;opacity:1;fill:#e35e0d;fill-opacity:1;stroke:none;stroke-width:5.99999952;stroke-linecap:round;stroke-linejoin:miter;stroke-miterlimit:4;stroke-dasharray:none;stroke-dashoffset:0;stroke-opacity:1;marker:none;marker-start:none;marker-mid:none;marker-end:none;paint-order:normal;enable-background:new" />
        <path
           sodipodi:nodetypes="cccssccccc"
           inkscape:connector-curvature="0"
           id="rect868-7"
           d="m -308.49999,177.5 v 102 h 72 c 4.432,0 8,-3.568 8,-8 v -86 c 0,-4.432 -3.568,-8 -8,-8 h -68 v 2.03125 l -2,-2.03125 z"
           style="display:inline;opacity:1;fill:#4a86cf;fill-opacity:1;stroke:none;stroke-width:5.99999952;stroke-linecap:round;stroke-linejoin:miter;stroke-miterlimit:4;stroke-dasharray:none;stroke-dashoffset:0;stroke-opacity:1;marker:none;marker-start:none;marker-mid:none;marker-end:none;paint-order:normal;enable-background:new" />
        <g
           transform="matrix(0.25,0,0,0.25,-332.49999,222.5)"
           id="text924"
           style="font-style:normal;font-variant:normal;font-weight:bold;font-stretch:normal;font-size:185.54548645px;line-height:1.25;font-family:sans-serif;-inkscape-font-specification:'sans-serif Bold';letter-spacing:0px;word-spacing:0px;display:inline;opacity:1;fill:#ffffff;fill-opacity:1;stroke:none;stroke-width:0.99999994;enable-background:new"
           aria-label="@">
          <path
             inkscape:connector-curvature="0"
             id="path882"
             style="font-style:normal;font-variant:normal;font-weight:bold;font-stretch:normal;font-family:sans-serif;-inkscape-font-specification:'sans-serif Bold';fill:#ffffff;stroke-width:0.99999994"
             d="m 238.87855,28.360786 q 0,11.143601 4.71111,17.576086 4.80172,6.432485 12.95557,6.432485 8.06326,0 12.86497,-6.432485 4.80172,-6.523084 4.80172,-17.576086 0,-10.962405 -4.89231,-17.304291 -4.80172,-6.4324854 -12.95557,-6.4324854 -7.97266,0 -12.77438,6.4324854 -4.71111,6.341886 -4.71111,17.304291 z m 37.14534,27.270113 q -2.71796,6.432485 -8.78805,10.05642 -5.97949,3.533337 -14.04275,3.533337 -15.58292,0 -25.36754,-11.234199 -9.69403,-11.324798 -9.69403,-29.444475 0,-18.119676 9.78462,-29.44447373 9.78463,-11.32479727 25.27695,-11.32479727 8.06326,0 14.04275,3.6239348 6.07009,3.6239353 8.78805,10.0564204 V -10.415322 h 18.93506 v 62.784679 q 11.2342,-1.721369 17.66668,-10.781208 6.43249,-9.150436 6.43249,-23.374382 0,-9.0598383 -2.62736,-16.9418976 -2.62735,-7.9726576 -7.97265,-14.5863394 -8.60685,-11.053003 -21.56242,-17.032496 -12.86497,-5.979493 -27.9043,-5.979493 -10.50941,0 -20.11284,2.80855 -9.60343,2.717951 -17.75728,8.063256 -13.40856,8.878641 -20.92823,23.0119888 -7.42907,14.0427492 -7.42907,30.4410562 0,13.499159 4.80172,25.367547 4.89231,11.77779 14.04275,20.837628 9.05983,8.878641 20.74703,13.499159 11.77778,4.711116 25.09575,4.711116 11.41539,0 22.83079,-4.258124 11.4154,-4.258124 19.47865,-11.505995 l 9.69403,14.676938 q -11.3248,8.788039 -24.73336,13.408559 -13.31796,4.71112 -27.08892,4.71112 -16.7607,0 -31.61883,-5.9795 -14.85814,-5.88889 -26.45473,-17.213688 -11.59659,-11.324798 -17.66668,-26.182933 -6.0701,-14.948733 -6.0701,-32.071827 0,-16.488905 6.16069,-31.4376384 6.16069,-14.9487326 17.57609,-26.2735306 11.4154,-11.2342 26.54533,-17.39489 15.22053,-6.16069 31.52823,-6.16069 20.29404,0 36.87355,7.791461 16.5795,7.700863 27.7231,22.287202 6.79488,8.878642 10.23762,19.2974557 3.53333,10.3282155 3.53333,21.7436113 0,24.552162 -14.76753,38.141919 -14.76754,13.589758 -41.67526,13.589758 h -3.53333 z" />
        </g>
        <path
           sodipodi:nodetypes="ccccc"
           inkscape:connector-curvature="0"
           id="rect889"
           d="m -306.49999,177.5 2,2.03125 V 279.5 h -2 z"
           style="display:inline;opacity:1;fill:#3465a4;fill-opacity:1;stroke:none;stroke-width:5.99999952;stroke-linecap:butt;stroke-linejoin:miter;stroke-miterlimit:4;stroke-dasharray:none;stroke-dashoffset:0;stroke-opacity:1;marker:none;marker-start:none;marker-mid:none;marker-end:none;paint-order:normal;enable-background:new" />
      </g>
      <g
         style="display:inline;enable-background:new"
         id="g1308"
         transform="translate(192.50002,2.5)">
        <rect
           ry="8.0034189"
           rx="8"
           y="193.5"
           x="-92.500015"
           height="24"
           width="16"
           id="rect1036-36"
           style="display:inline;opacity:1;fill:#f8e45c;fill-opacity:1;stroke:none;stroke-width:5.99999952;stroke-linecap:round;stroke-linejoin:miter;stroke-miterlimit:4;stroke-dasharray:none;stroke-dashoffset:0;stroke-opacity:1;marker:none;marker-start:none;marker-mid:none;marker-end:none;paint-order:normal;enable-background:new" />
        <rect
           ry="8.0034189"
           rx="8"
           y="209.5"
           x="-92.500015"
           height="24"
           width="16"
           id="rect1036-3-7"
           style="display:inline;opacity:1;fill:#2ec27e;fill-opacity:1;stroke:none;stroke-width:5.99999952;stroke-linecap:round;stroke-linejoin:miter;stroke-miterlimit:4;stroke-dasharray:none;stroke-dashoffset:0;stroke-opacity:1;marker:none;marker-start:none;marker-mid:none;marker-end:none;paint-order:normal;enable-background:new" />
        <rect
           ry="8.0034189"
           rx="8"
           y="225.5"
           x="-92.500015"
           height="24"
           width="16"
           id="rect1036-3-3-5"
           style="display:inline;opacity:1;fill:#c061cb;fill-opacity:1;stroke:none;stroke-width:5.99999952;stroke-linecap:round;stroke-linejoin:miter;stroke-miterlimit:4;stroke-dasharray:none;stroke-dashoffset:0;stroke-opacity:1;marker:none;marker-start:none;marker-mid:none;marker-end:none;paint-order:normal;enable-background:new" />
        <rect
           ry="8.0034189"
           rx="8"
           y="241.5"
           x="-92.500015"
           height="24"
           width="16"
           id="rect1036-3-3-6-3"
           style="display:inline;opacity:1;fill:#f66151;fill-opacity:1;stroke:none;stroke-width:5.99999952;stroke-linecap:round;stroke-linejoin:miter;stroke-miterlimit:4;stroke-dasharray:none;stroke-dashoffset:0;stroke-opacity:1;marker:none;marker-start:none;marker-mid:none;marker-end:none;paint-order:normal;enable-background:new" />
        <g
           transform="matrix(0.25,0,0,0.25,-188.50002,62.499999)"
           id="g1002"
           style="display:inline;enable-background:new">
          <path
             style="display:inline;opacity:1;fill:#1d60b5;fill-opacity:1;stroke:none;stroke-width:24;stroke-linecap:butt;stroke-linejoin:miter;stroke-miterlimit:4;stroke-dasharray:none;stroke-dashoffset:0;stroke-opacity:1;marker:none;marker-start:none;marker-mid:none;marker-end:none;paint-order:normal;enable-background:new"
             d="m 64,540 v 368 h 320 c 17.728,0 32,-14.272 32,-32 V 572 c 0,-17.728 -14.272,-32 -32,-32 z"
             id="rect954-3"
             inkscape:connector-curvature="0"
             sodipodi:nodetypes="cccsscc" />
          <path
             style="display:inline;opacity:1;fill:url(#linearGradient1053-2);fill-opacity:1;stroke:none;stroke-width:24;stroke-linecap:butt;stroke-linejoin:miter;stroke-miterlimit:4;stroke-dasharray:none;stroke-dashoffset:0;stroke-opacity:1;marker:none;marker-start:none;marker-mid:none;marker-end:none;paint-order:normal;enable-background:new"
             d="m 72,620 v 280 h 312 c 17.728,0 32,-14.272 32,-32 V 652 c 0,-17.728 -14.272,-32 -32,-32 z"
             id="rect954-3-6-1"
             inkscape:connector-curvature="0"
             sodipodi:nodetypes="cccsscc" />
          <path
             style="display:inline;opacity:1;fill:#2864b0;fill-opacity:1;stroke:none;stroke-width:24;stroke-linecap:butt;stroke-linejoin:miter;stroke-miterlimit:4;stroke-dasharray:none;stroke-dashoffset:0;stroke-opacity:1;marker:none;marker-start:none;marker-mid:none;marker-end:none;paint-order:normal;enable-background:new"
             d="m 64,540 v 336 h 320 c 17.728,0 32,-14.272 32,-32 V 572 c 0,-17.728 -14.272,-32 -32,-32 z"
             id="rect954-3-2"
             inkscape:connector-curvature="0"
             sodipodi:nodetypes="cccsscc" />
          <path
             style="display:inline;opacity:1;fill:#3584e4;fill-opacity:1;stroke:none;stroke-width:24;stroke-linecap:butt;stroke-linejoin:miter;stroke-miterlimit:4;stroke-dasharray:none;stroke-dashoffset:0;stroke-opacity:1;marker:none;marker-start:none;marker-mid:none;marker-end:none;paint-order:normal;enable-background:new"
             d="m 64,460 v 408 h 320 c 17.728,0 32,-14.272 32,-32 V 492 c 0,-17.728 -14.272,-32 -32,-32 z"
             id="rect954-3-2-9-0-3"
             inkscape:connector-curvature="0"
             sodipodi:nodetypes="cccsscc" />
          <path
             sodipodi:nodetypes="ccccc"
             inkscape:connector-curvature="0"
             id="rect1366-2"
             d="m 72,460.00003 h 8 v 408 h -8 z"
             style="display:inline;opacity:0.18699999;fill:#ffffff;fill-opacity:1;stroke:none;stroke-width:24;stroke-linecap:butt;stroke-linejoin:miter;stroke-miterlimit:4;stroke-dasharray:none;stroke-dashoffset:0;stroke-opacity:1;marker:none;marker-start:none;marker-mid:none;marker-end:none;paint-order:normal;enable-background:new" />
        </g>
        <path
           inkscape:connector-curvature="0"
           id="path882-5"
           style="font-style:normal;font-variant:normal;font-weight:bold;font-stretch:normal;font-size:185.54548645px;line-height:1.25;font-family:sans-serif;-inkscape-font-specification:'sans-serif Bold';letter-spacing:0px;word-spacing:0px;display:inline;opacity:1;fill:#ffffff;fill-opacity:1;stroke:none;stroke-width:0.24999999;enable-background:new"
           d="m -132.75814,229.59019 q 0,2.7859 1.17777,4.39403 1.20043,1.60812 3.2389,1.60812 2.01581,0 3.21624,-1.60812 1.20043,-1.63077 1.20043,-4.39403 0,-2.7406 -1.22308,-4.32607 -1.20043,-1.60812 -3.23889,-1.60812 -1.99317,0 -3.1936,1.60812 -1.17777,1.58547 -1.17777,4.32607 z m 9.28633,6.81753 q -0.67949,1.60813 -2.19701,2.51411 -1.49487,0.88333 -3.51069,0.88333 -3.89573,0 -6.34188,-2.80855 -2.42351,-2.8312 -2.42351,-7.36112 0,-4.52992 2.44615,-7.36112 2.44616,-2.83119 6.31924,-2.83119 2.01582,0 3.51069,0.90598 1.51752,0.90598 2.19701,2.5141 v -2.96709 h 4.73377 v 15.69617 q 2.80855,-0.43034 4.41667,-2.6953 1.60812,-2.28761 1.60812,-5.8436 0,-2.26496 -0.65684,-4.23547 -0.65684,-1.99317 -1.99316,-3.64659 -2.15172,-2.76325 -5.39061,-4.25812 -3.21624,-1.49488 -6.97607,-1.49488 -2.62736,0 -5.02821,0.70214 -2.40086,0.67949 -4.43932,2.01581 -3.35214,2.21967 -5.23206,5.753 -1.85727,3.51069 -1.85727,7.61027 0,3.37479 1.20043,6.34188 1.22308,2.94445 3.51069,5.20941 2.26496,2.21966 5.18676,3.37479 2.94444,1.17778 6.27393,1.17778 2.85385,0 5.7077,-1.06453 2.85385,-1.06453 4.86966,-2.8765 l 2.42351,3.66923 q -2.8312,2.19701 -6.18334,3.35214 -3.32949,1.17778 -6.77223,1.17778 -4.19017,0 -7.90471,-1.49487 -3.71453,-1.47222 -6.61368,-4.30342 -2.89915,-2.8312 -4.41667,-6.54574 -1.51752,-3.73718 -1.51752,-8.01795 0,-4.12223 1.54017,-7.85941 1.54017,-3.73719 4.39402,-6.56839 2.85385,-2.80855 6.63633,-4.34872 3.80514,-1.54017 7.88206,-1.54017 5.07351,0 9.21839,1.94786 4.14487,1.92522 6.93077,5.5718 1.69872,2.21967 2.55941,4.82437 0.88333,2.58205 0.88333,5.4359 0,6.13804 -3.69188,9.53548 -3.69189,3.39744 -10.41882,3.39744 h -0.88333 z" />
      </g>
      <g
         style="display:inline;enable-background:new"
         transform="translate(2.50002,2.5)"
         id="g1332">
        <rect
           style="display:inline;opacity:1;fill:#f9f06b;fill-opacity:1;stroke:none;stroke-width:5.99999952;stroke-linecap:round;stroke-linejoin:miter;stroke-miterlimit:4;stroke-dasharray:none;stroke-dashoffset:0;stroke-opacity:1;marker:none;marker-start:none;marker-mid:none;marker-end:none;paint-order:normal;enable-background:new"
           id="rect1310"
           width="16"
           height="24"
           x="-92.500015"
           y="193.5"
           rx="8"
           ry="8.0034189" />
        <rect
           style="display:inline;opacity:1;fill:#26a269;fill-opacity:1;stroke:none;stroke-width:5.99999952;stroke-linecap:round;stroke-linejoin:miter;stroke-miterlimit:4;stroke-dasharray:none;stroke-dashoffset:0;stroke-opacity:1;marker:none;marker-start:none;marker-mid:none;marker-end:none;paint-order:normal;enable-background:new"
           id="rect1312"
           width="16"
           height="24"
           x="-92.500015"
           y="209.5"
           rx="8"
           ry="8.0034189" />
        <rect
           style="display:inline;opacity:1;fill:#8f5aa0;fill-opacity:1;stroke:none;stroke-width:5.99999952;stroke-linecap:round;stroke-linejoin:miter;stroke-miterlimit:4;stroke-dasharray:none;stroke-dashoffset:0;stroke-opacity:1;marker:none;marker-start:none;marker-mid:none;marker-end:none;paint-order:normal;enable-background:new"
           id="rect1314"
           width="16"
           height="24"
           x="-92.500015"
           y="225.5"
           rx="8"
           ry="8.0034189" />
        <rect
           style="display:inline;opacity:1;fill:#f66151;fill-opacity:1;stroke:none;stroke-width:5.99999952;stroke-linecap:round;stroke-linejoin:miter;stroke-miterlimit:4;stroke-dasharray:none;stroke-dashoffset:0;stroke-opacity:1;marker:none;marker-start:none;marker-mid:none;marker-end:none;paint-order:normal;enable-background:new"
           id="rect1316"
           width="16"
           height="24"
           x="-92.500015"
           y="241.5"
           rx="8"
           ry="8.0034189" />
        <g
           style="display:inline;enable-background:new"
           id="g1328"
           transform="matrix(0.25,0,0,0.25,-188.50002,62.499999)">
          <path
             sodipodi:nodetypes="cccsscc"
             inkscape:connector-curvature="0"
             id="path1318"
             d="m 96,540 v 368 h 288 c 17.728,0 32,-14.272 32,-32 V 572 c 0,-17.728 -14.272,-32 -32,-32 z"
             style="display:inline;opacity:1;fill:#1d60b5;fill-opacity:1;stroke:none;stroke-width:24;stroke-linecap:butt;stroke-linejoin:miter;stroke-miterlimit:4;stroke-dasharray:none;stroke-dashoffset:0;stroke-opacity:1;marker:none;marker-start:none;marker-mid:none;marker-end:none;paint-order:normal;enable-background:new" />
          <path
             sodipodi:nodetypes="cccsscc"
             inkscape:connector-curvature="0"
             id="path1320"
             d="m 104,620 v 280 h 280 c 17.728,0 32,-14.272 32,-32 V 652 c 0,-17.728 -14.272,-32 -32,-32 z"
             style="display:inline;opacity:1;fill:url(#linearGradient1334);fill-opacity:1;stroke:none;stroke-width:24;stroke-linecap:butt;stroke-linejoin:miter;stroke-miterlimit:4;stroke-dasharray:none;stroke-dashoffset:0;stroke-opacity:1;marker:none;marker-start:none;marker-mid:none;marker-end:none;paint-order:normal;enable-background:new" />
          <path
             sodipodi:nodetypes="cccsscc"
             inkscape:connector-curvature="0"
             id="path1322"
             d="m 96,540 v 336 h 288 c 17.728,0 32,-14.272 32,-32 V 572 c 0,-17.728 -14.272,-32 -32,-32 z"
             style="display:inline;opacity:1;fill:#2864b0;fill-opacity:1;stroke:none;stroke-width:24;stroke-linecap:butt;stroke-linejoin:miter;stroke-miterlimit:4;stroke-dasharray:none;stroke-dashoffset:0;stroke-opacity:1;marker:none;marker-start:none;marker-mid:none;marker-end:none;paint-order:normal;enable-background:new" />
          <path
             sodipodi:nodetypes="cccsscc"
             inkscape:connector-curvature="0"
             id="path1324"
             d="m 96,460 v 408 h 288 c 17.728,0 32,-14.272 32,-32 V 492 c 0,-17.728 -14.272,-32 -32,-32 z"
             style="display:inline;opacity:1;fill:#3584e4;fill-opacity:1;stroke:none;stroke-width:24;stroke-linecap:butt;stroke-linejoin:miter;stroke-miterlimit:4;stroke-dasharray:none;stroke-dashoffset:0;stroke-opacity:1;marker:none;marker-start:none;marker-mid:none;marker-end:none;paint-order:normal;enable-background:new" />
          <path
             style="display:inline;opacity:0.18699999;fill:#ffffff;fill-opacity:1;stroke:none;stroke-width:24;stroke-linecap:butt;stroke-linejoin:miter;stroke-miterlimit:4;stroke-dasharray:none;stroke-dashoffset:0;stroke-opacity:1;marker:none;marker-start:none;marker-mid:none;marker-end:none;paint-order:normal;enable-background:new"
             d="m 104,460.00003 h 8 v 408 h -8 z"
             id="path1326"
             inkscape:connector-curvature="0"
             sodipodi:nodetypes="ccccc" />
        </g>
        <path
           d="m -126.75814,229.59019 q 0,2.7859 1.17777,4.39403 1.20043,1.60812 3.2389,1.60812 2.01581,0 3.21624,-1.60812 1.20043,-1.63077 1.20043,-4.39403 0,-2.7406 -1.22308,-4.32607 -1.20043,-1.60812 -3.23889,-1.60812 -1.99317,0 -3.1936,1.60812 -1.17777,1.58547 -1.17777,4.32607 z m 9.28633,6.81753 q -0.67949,1.60813 -2.19701,2.51411 -1.49487,0.88333 -3.51069,0.88333 -3.89573,0 -6.34188,-2.80855 -2.42351,-2.8312 -2.42351,-7.36112 0,-4.52992 2.44615,-7.36112 2.44616,-2.83119 6.31924,-2.83119 2.01582,0 3.51069,0.90598 1.51752,0.90598 2.19701,2.5141 v -2.96709 h 4.73377 v 15.69617 q 2.80855,-0.43034 4.41667,-2.6953 1.60812,-2.28761 1.60812,-5.8436 0,-2.26496 -0.65684,-4.23547 -0.65684,-1.99317 -1.99316,-3.64659 -2.15172,-2.76325 -5.39061,-4.25812 -3.21624,-1.49488 -6.97607,-1.49488 -2.62736,0 -5.02821,0.70214 -2.40086,0.67949 -4.43932,2.01581 -3.35214,2.21967 -5.23206,5.753 -1.85727,3.51069 -1.85727,7.61027 0,3.37479 1.20043,6.34188 1.22308,2.94445 3.51069,5.20941 2.26496,2.21966 5.18676,3.37479 2.94444,1.17778 6.27393,1.17778 2.85385,0 5.7077,-1.06453 2.85385,-1.06453 4.86966,-2.8765 l 2.42351,3.66923 q -2.8312,2.19701 -6.18334,3.35214 -3.32949,1.17778 -6.77223,1.17778 -4.19017,0 -7.90471,-1.49487 -3.71453,-1.47222 -6.61368,-4.30342 -2.89915,-2.8312 -4.41667,-6.54574 -1.51752,-3.73718 -1.51752,-8.01795 0,-4.12223 1.54017,-7.85941 1.54017,-3.73719 4.39402,-6.56839 2.85385,-2.80855 6.63633,-4.34872 3.80514,-1.54017 7.88206,-1.54017 5.07351,0 9.21839,1.94786 4.14487,1.92522 6.93077,5.5718 1.69872,2.21967 2.55941,4.82437 0.88333,2.58205 0.88333,5.4359 0,6.13804 -3.69188,9.53548 -3.69189,3.39744 -10.41882,3.39744 h -0.88333 z"
           style="font-style:normal;font-variant:normal;font-weight:bold;font-stretch:normal;font-size:185.54548645px;line-height:1.25;font-family:sans-serif;-inkscape-font-specification:'sans-serif Bold';letter-spacing:0px;word-spacing:0px;display:inline;opacity:1;fill:#ffffff;fill-opacity:1;stroke:none;stroke-width:0.24999999;enable-background:new"
           id="path1330"
           inkscape:connector-curvature="0" />
      </g>
    </g>
  </g>
</svg>
