<svg xmlns="http://www.w3.org/2000/svg" xmlns:svg="http://www.w3.org/2000/svg" xmlns:xlink="http://www.w3.org/1999/xlink" id="svg11300" width="128" height="128" display="inline" enable-background="new" version="1.0" viewBox="0 0 128 128"><title id="title4162">Adwaita Icon Template</title><defs id="defs3"><linearGradient id="linearGradient39320"><stop id="stop39312" offset="0" stop-color="#26a269" stop-opacity="1"/><stop id="stop39314" offset=".103" stop-color="#3ad18b" stop-opacity=".988"/><stop id="stop39316" offset=".23" stop-color="#2aa16b" stop-opacity=".941"/><stop id="stop39318" offset="1" stop-color="#239360" stop-opacity=".878"/></linearGradient><linearGradient id="linearGradient38686"><stop id="stop38682" offset="0" stop-color="#26a269" stop-opacity="1"/><stop id="stop38690" offset=".103" stop-color="#3ad18b" stop-opacity=".988"/><stop id="stop38692" offset=".23" stop-color="#31bd7d" stop-opacity=".941"/><stop id="stop38684" offset="1" stop-color="#26a269" stop-opacity=".88"/></linearGradient><linearGradient id="linearGradient1115"><stop id="stop1103" offset="0" stop-color="#686764" stop-opacity="1"/><stop id="stop1105" offset=".038" stop-color="#a09d92" stop-opacity="1"/><stop id="stop1107" offset=".077" stop-color="#807f7b" stop-opacity="1"/><stop id="stop1109" offset=".923" stop-color="#71706d" stop-opacity="1"/><stop id="stop1111" offset=".962" stop-color="#b0ada4" stop-opacity="1"/><stop id="stop1113" offset="1" stop-color="#9a9996" stop-opacity="1"/></linearGradient><linearGradient id="linearGradient38688" x1="12" x2="62" y1="276" y2="276" gradientUnits="userSpaceOnUse" xlink:href="#linearGradient39320"/><linearGradient id="linearGradient38763" x1="43.844" x2="-60" y1="234" y2="234" gradientTransform="matrix(1.0015061,0,0,0.99993452,-80.90963,56.01519)" gradientUnits="userSpaceOnUse" xlink:href="#linearGradient1115"/><linearGradient id="linearGradient38765" x1="12" x2="62" y1="276" y2="276" gradientTransform="translate(-153)" gradientUnits="userSpaceOnUse" xlink:href="#linearGradient38686"/><linearGradient id="linearGradient974"><stop id="stop962" offset="0" stop-color="#babdb6" stop-opacity="1"/><stop id="stop964" offset=".042" stop-color="#f6f5f4" stop-opacity="1"/><stop id="stop966" offset=".083" stop-color="#d5d3cf" stop-opacity="1"/><stop id="stop968" offset=".917" stop-color="#deddda" stop-opacity="1"/><stop id="stop970" offset=".958" stop-color="#f6f5f4" stop-opacity="1"/><stop id="stop972" offset="1" stop-color="#babdb6" stop-opacity="1"/></linearGradient><linearGradient id="linearGradient1042-6" x1="48" x2="464" y1="44" y2="44" gradientTransform="matrix(0.25,0,0,0.20238167,-12.000005,17.00006)" gradientUnits="userSpaceOnUse" xlink:href="#linearGradient974"/><linearGradient id="linearGradient39296" x1="-1029.631" x2="-617.101" y1="44" y2="44" gradientTransform="matrix(0.25,0,0,0.20238167,270.00027,237.00006)" gradientUnits="userSpaceOnUse" xlink:href="#linearGradient974"/><clipPath id="clipPath1027" clipPathUnits="userSpaceOnUse"><rect id="rect1029" width="104" height="100" x="74.579" y="215.113" fill="#f6f5f4" fill-opacity="1" stroke="none" stroke-dasharray="none" stroke-dashoffset="0" stroke-linecap="butt" stroke-linejoin="miter" stroke-miterlimit="4" stroke-opacity="1" stroke-width=".25" marker-end="none" marker-mid="none" marker-start="none" opacity="1" paint-order="normal" rx="8" ry="8" vector-effect="none" style="marker:none"/></clipPath><linearGradient id="linearGradient941" x1="-1029.631" x2="-617.101" y1="44" y2="44" gradientTransform="matrix(0.25,0,0,0.20238167,270.00027,77.00006)" gradientUnits="userSpaceOnUse" xlink:href="#linearGradient974"/><linearGradient id="linearGradient943" x1="12" x2="62" y1="276" y2="276" gradientTransform="translate(0,-160)" gradientUnits="userSpaceOnUse" xlink:href="#linearGradient39320"/></defs><metadata id="metadata4"/><g id="layer1" display="inline" transform="translate(0,-172)"><g id="layer2" display="none"><g id="g38080" display="inline"><rect id="rect13805-1" width="128" height="128" x="0" y="172" fill="#f0f0f0" fill-opacity="1" fill-rule="nonzero" stroke="none" stroke-width=".5" display="inline" enable-background="accumulate" overflow="visible" visibility="visible" style="marker:none"/><circle id="circle2892" cx="64" cy="236" r="59.504" fill="none" fill-opacity="1" stroke="#000" stroke-dasharray=".99 .99" stroke-dashoffset="0" stroke-linecap="butt" stroke-linejoin="miter" stroke-miterlimit="4" stroke-opacity="1" stroke-width=".99" marker-end="none" marker-mid="none" marker-start="none" display="inline" enable-background="new" opacity=".1" paint-order="normal" vector-effect="none" style="marker:none"/><rect id="rect2894" width="87.01" height="111.01" x="20.495" y="180.495" fill="none" fill-opacity="1" stroke="#000" stroke-dasharray=".99 .99" stroke-dashoffset="0" stroke-linecap="butt" stroke-linejoin="miter" stroke-miterlimit="4" stroke-opacity="1" stroke-width=".99" marker-end="none" marker-mid="none" marker-start="none" display="inline" enable-background="new" opacity=".1" paint-order="normal" rx="8.701" ry="7.929" vector-effect="none" style="marker:none"/><rect id="rect2896" width="103.01" height="103.01" x="12.495" y="184.495" fill="none" fill-opacity="1" stroke="#000" stroke-dasharray=".99 .99" stroke-dashoffset="0" stroke-linecap="butt" stroke-linejoin="miter" stroke-miterlimit="4" stroke-opacity="1" stroke-width=".99" marker-end="none" marker-mid="none" marker-start="none" display="inline" enable-background="new" opacity=".1" paint-order="normal" rx="7.924" ry="7.924" vector-effect="none" style="marker:none"/><rect id="rect2898" width="111.01" height="87.01" x="8.495" y="200.495" fill="none" fill-opacity="1" stroke="#000" stroke-dasharray=".99 .99" stroke-dashoffset="0" stroke-linecap="butt" stroke-linejoin="miter" stroke-miterlimit="4" stroke-opacity="1" stroke-width=".99" marker-end="none" marker-mid="none" marker-start="none" display="inline" enable-background="new" opacity=".1" paint-order="normal" rx="7.929" ry="8.701" vector-effect="none" style="marker:none"/><path id="path2900" fill="none" stroke="#62a0ea" stroke-dasharray="none" stroke-linecap="butt" stroke-linejoin="miter" stroke-miterlimit="4" stroke-opacity="1" stroke-width="2" d="M 2.6203015e-5,288.99999 H 128.00003" display="inline" enable-background="new"/></g></g><g id="layer9" display="inline"><rect id="rect1091" width="104" height="48" x="12" y="240" fill="url(#linearGradient39296)" fill-opacity="1" stroke="none" stroke-dasharray="none" stroke-dashoffset="0" stroke-linecap="butt" stroke-linejoin="miter" stroke-miterlimit="4" stroke-opacity="1" stroke-width=".25" marker-end="none" marker-mid="none" marker-start="none" display="inline" enable-background="new" opacity="1" paint-order="normal" rx="8" ry="8" vector-effect="none" style="font-variant-east_asian:normal;marker:none"/><rect id="rect38696" width="104" height="100" x="12" y="184" fill="#f6f5f4" fill-opacity="1" stroke="none" stroke-dasharray="none" stroke-dashoffset="0" stroke-linecap="butt" stroke-linejoin="miter" stroke-miterlimit="4" stroke-opacity="1" stroke-width=".25" marker-end="none" marker-mid="none" marker-start="none" opacity="1" paint-order="normal" rx="8" ry="8" vector-effect="none" style="font-variant-east_asian:normal;marker:none"/><path id="rect1183" fill="#deddda" fill-opacity="1" stroke="none" stroke-dasharray="none" stroke-dashoffset="0" stroke-linecap="butt" stroke-linejoin="miter" stroke-miterlimit="4" stroke-opacity="1" stroke-width="2.5" d="m 20,12 c -4.432,0 -8,3.568 -8,8 v 84 c 0,4.432 3.568,8 8,8 H 66 V 64 h 50 V 20 c 0,-4.432 -3.568,-8 -8,-8 z" opacity=".2" transform="translate(0,172)" vector-effect="none" style="marker:none"/><path id="path38767" fill="#d46400" fill-opacity="1" stroke="none" stroke-dasharray="none" stroke-dashoffset="0" stroke-linecap="butt" stroke-linejoin="round" stroke-miterlimit="4" stroke-opacity="1" stroke-width=".5" d="m 20,184 c -4.432,0 -8,3.568 -8,8 v 40 h 50 v -48 z" opacity="1" vector-effect="none"/><path id="path38673" fill="#ff7800" fill-opacity="1" stroke="none" stroke-dasharray="none" stroke-dashoffset="0" stroke-linecap="butt" stroke-linejoin="round" stroke-miterlimit="4" stroke-opacity="1" stroke-width=".5" d="m 20,182 c -4.432,0 -8,3.568 -8,8 v 40 h 50 v -48 z" opacity="1" vector-effect="none"/><path id="path38769" fill="#1860b7" fill-opacity="1" stroke="none" stroke-dasharray="none" stroke-dashoffset="0" stroke-linecap="butt" stroke-linejoin="round" stroke-miterlimit="4" stroke-opacity="1" stroke-width=".5" d="m 66,284 v -48 h 50 v 40 c 0,4.432 -3.568,8 -8,8 z" opacity="1" vector-effect="none"/><rect id="rect947" width="4" height="54" x="232" y="-66" fill="#deddda" fill-opacity="1" stroke="none" stroke-dasharray="none" stroke-dashoffset="0" stroke-linecap="butt" stroke-linejoin="miter" stroke-miterlimit="4" stroke-opacity="1" stroke-width="3" opacity="1" transform="rotate(90)" vector-effect="none" style="marker:none"/><path id="path38671" fill="#3584e4" fill-opacity="1" stroke="none" stroke-dasharray="none" stroke-dashoffset="0" stroke-linecap="butt" stroke-linejoin="round" stroke-miterlimit="4" stroke-opacity="1" stroke-width=".5" d="m 66,281.99998 v -48 h 50 v 40 c 0,4.432 -3.568,8 -8,8 z" opacity="1" vector-effect="none"/><path id="path38680" fill="url(#linearGradient38688)" fill-opacity="1" stroke="none" stroke-dasharray="none" stroke-dashoffset="0" stroke-linecap="butt" stroke-linejoin="round" stroke-miterlimit="4" stroke-opacity="1" stroke-width=".5" d="m 12,236 v 40 c 0,4.432 3.568,8 8,8 h 42 v -2 -46 z" opacity="1" vector-effect="none"/><path id="rect38115" fill="#2ec27e" fill-opacity="1" stroke="none" stroke-dasharray="none" stroke-dashoffset="0" stroke-linecap="butt" stroke-linejoin="round" stroke-miterlimit="4" stroke-opacity="1" stroke-width=".5" d="m 12,234 v 40 c 0,4.432 3.568,8 8,8 h 42 v -28 -20 z" opacity="1" vector-effect="none"/><g id="text36795" fill="#fff" fill-opacity="1" stroke="none" stroke-linecap="butt" stroke-linejoin="miter" stroke-opacity="1" stroke-width="1" aria-label="2" font-family="Cantarell" font-size="37.337" font-stretch="normal" font-style="normal" font-variant="normal" font-weight="800" letter-spacing="0" text-anchor="start" word-spacing="0" writing-mode="lr-tb" style="line-height:23.33540344px;-inkscape-font-specification:'Cantarell, Ultra-Bold';font-variant-ligatures:normal;font-variant-caps:normal;font-variant-numeric:normal;font-feature-settings:normal;text-align:start"><path id="path38708" fill="#fff" fill-opacity="1" stroke-width="1" d="m 39.034847,214.292 c 5.077784,-3.62166 7.990043,-7.80336 7.990043,-12.35843 0,-5.22713 -3.733665,-8.32608 -10.006222,-8.32608 -3.173616,0 -6.235221,0.78407 -8.92346,2.2402 l 1.45613,4.8911 c 2.464219,-1.12009 4.331051,-1.60547 6.12321,-1.60547 2.949596,0 4.629745,1.30678 4.629745,3.65899 0,2.98693 -2.613566,6.30989 -11.238332,13.03049 v 4.0697 h 18.668326 v -5.6005 z"/></g><g id="text38702" fill="#fff" fill-opacity="1" stroke="none" stroke-linecap="butt" stroke-linejoin="miter" stroke-opacity="1" stroke-width="1" aria-label="8" font-family="Cantarell" font-size="37.337" font-stretch="normal" font-style="normal" font-variant="normal" font-weight="800" letter-spacing="0" text-anchor="start" transform="translate(53.033009)" word-spacing="0" writing-mode="lr-tb" style="line-height:23.33540344px;-inkscape-font-specification:'Cantarell, Ultra-Bold';font-variant-ligatures:normal;font-variant-caps:normal;font-variant-numeric:normal;font-feature-settings:normal;text-align:start"><path id="path38711" fill="#fff" fill-opacity="1" stroke-width="1" d="m 42.469819,257.20456 c 2.613565,-1.34412 4.032358,-3.3603 4.032358,-5.74985 0,-3.92035 -3.771002,-6.53391 -9.334163,-6.53391 -5.899191,0 -9.819539,3.17361 -9.819539,7.91537 0,2.87492 1.456129,4.59241 3.434972,5.78718 -2.650902,1.1201 -4.144368,3.13628 -4.144368,5.67517 0,4.36839 4.107031,7.28065 10.267579,7.28065 6.272557,0 10.454262,-3.21095 10.454262,-8.06472 0,-3.39763 -2.240199,-5.15246 -4.891101,-6.30989 z m -5.525825,-6.75794 c 1.754823,0 2.912259,0.85875 2.912259,2.20287 0,1.34411 -0.970753,2.42688 -2.464219,2.80024 -1.941506,-0.70939 -3.397635,-1.45613 -3.397635,-2.83758 0,-1.30678 1.157436,-2.16553 2.949595,-2.16553 z m 0.298694,15.60672 c -2.389546,0 -3.957685,-1.15743 -3.957685,-2.87492 0,-1.23211 0.784069,-2.20286 2.128189,-2.6509 2.800248,0.89608 5.301804,1.56814 5.301804,3.32296 0,1.30678 -1.418793,2.20286 -3.472308,2.20286 z"/></g><g id="text38706" fill="#fff" fill-opacity="1" stroke="none" stroke-linecap="butt" stroke-linejoin="miter" stroke-opacity="1" stroke-width="1" aria-label="4" font-family="Cantarell" font-size="37.337" font-stretch="normal" font-style="normal" font-variant="normal" font-weight="800" letter-spacing="0" text-anchor="start" transform="translate(-49.884926,50.84182)" word-spacing="0" writing-mode="lr-tb" style="line-height:23.33540344px;-inkscape-font-specification:'Cantarell, Ultra-Bold';font-variant-ligatures:normal;font-variant-caps:normal;font-variant-numeric:normal;font-feature-settings:normal;text-align:start"><path id="path38714" fill="#fff" fill-opacity="1" stroke-width="1" d="M 99.822075,209.21421 H 96.31243 v -15.42004 h -6.197884 l -12.059738,15.42004 v 5.6005 h 11.761045 v 5.07778 h 6.496577 v -5.07778 h 3.509645 z m -15.868077,-0.0747 5.861855,-7.65402 v 7.69136 z"/></g><rect id="rect38727" width="104" height="48" x="-141" y="240" fill="url(#linearGradient38763)" fill-opacity="1" stroke-width="1" display="inline" enable-background="new" rx="8" ry="8"/><rect id="rect38729" width="104" height="100" x="-141" y="184" fill="#c2c1bf" fill-opacity=".988" stroke="none" stroke-dasharray="none" stroke-dashoffset="0" stroke-linecap="butt" stroke-linejoin="round" stroke-miterlimit="4" stroke-opacity="1" stroke-width=".5" opacity="1" rx="8" ry="8" vector-effect="none"/><path id="path38731" fill="#e66100" fill-opacity="1" fill-rule="evenodd" stroke="none" stroke-dasharray="none" stroke-dashoffset="0" stroke-linecap="butt" stroke-linejoin="miter" stroke-miterlimit="4" stroke-opacity="1" stroke-width="2" d="m -141,230 v 2 h 52 l -2,-2 z" baseline-shift="baseline" clip-rule="nonzero" color="#000" color-interpolation="sRGB" color-interpolation-filters="linearRGB" color-rendering="auto" direction="ltr" display="inline" dominant-baseline="auto" enable-background="new" font-family="sans-serif" font-size="medium" font-stretch="normal" font-style="normal" font-variant="normal" font-weight="normal" image-rendering="auto" letter-spacing="normal" opacity="1" overflow="visible" shape-rendering="auto" text-anchor="start" text-decoration="none" text-rendering="auto" vector-effect="none" visibility="visible" word-spacing="normal" writing-mode="lr-tb" style="line-height:normal;font-variant-ligatures:normal;font-variant-position:normal;font-variant-caps:normal;font-variant-numeric:normal;font-variant-alternates:normal;font-feature-settings:normal;text-indent:0;text-align:start;text-decoration-line:none;text-decoration-style:solid;text-decoration-color:#000;text-transform:none;text-orientation:mixed;white-space:normal;shape-padding:0;isolation:auto;mix-blend-mode:normal;solid-color:#000;solid-opacity:1"/><path id="path38733" fill="#ff7800" fill-opacity="1" stroke="none" stroke-dasharray="none" stroke-dashoffset="0" stroke-linecap="butt" stroke-linejoin="round" stroke-miterlimit="4" stroke-opacity="1" stroke-width=".5" d="m -133,182 c -4.432,0 -8,3.568 -8,8 v 40 h 50 v -48 z" opacity="1" vector-effect="none"/><path id="path38735" fill="#3584e4" fill-opacity="1" stroke="none" stroke-dasharray="none" stroke-dashoffset="0" stroke-linecap="butt" stroke-linejoin="round" stroke-miterlimit="4" stroke-opacity="1" stroke-width=".5" d="m -87,182 v 48 h 50 v -40 c 0,-4.432 -3.568,-8 -8,-8 z" opacity="1" vector-effect="none"/><path id="path38737" fill="url(#linearGradient38765)" fill-opacity="1" stroke="none" stroke-dasharray="none" stroke-dashoffset="0" stroke-linecap="butt" stroke-linejoin="round" stroke-miterlimit="4" stroke-opacity="1" stroke-width=".5" d="m -141,236 v 40 c 0,4.432 3.568,8 8,8 h 44 l -2,-2 v -46 z" opacity="1" vector-effect="none"/><path id="path38739" fill="#2ec27e" fill-opacity="1" stroke="none" stroke-dasharray="none" stroke-dashoffset="0" stroke-linecap="butt" stroke-linejoin="round" stroke-miterlimit="4" stroke-opacity="1" stroke-width=".5" d="m -141,234 v 40 c 0,4.432 3.568,8 8,8 h 42 v -28 -20 z" opacity="1" vector-effect="none"/><g id="g38743" fill="#fff" fill-opacity="1" stroke="none" stroke-linecap="butt" stroke-linejoin="miter" stroke-opacity="1" stroke-width="1" aria-label="2" font-family="Cantarell" font-size="37.337" font-stretch="normal" font-style="normal" font-variant="normal" font-weight="800" letter-spacing="0" text-anchor="start" transform="translate(-153)" word-spacing="0" writing-mode="lr-tb" style="line-height:23.33540344px;-inkscape-font-specification:'Cantarell, Ultra-Bold';font-variant-ligatures:normal;font-variant-caps:normal;font-variant-numeric:normal;font-feature-settings:normal;text-align:start"><path id="path38741" fill="#fff" fill-opacity="1" stroke-width="1" d="m 38.120099,265.79199 c 5.077784,-3.62166 7.990043,-7.80336 7.990043,-12.35843 0,-5.22713 -3.733665,-8.32608 -10.006222,-8.32608 -3.173616,0 -6.235221,0.78407 -8.92346,2.2402 l 1.45613,4.8911 c 2.464219,-1.12009 4.331051,-1.60547 6.12321,-1.60547 2.949596,0 4.629745,1.30678 4.629745,3.65899 0,2.98693 -2.613566,6.30989 -11.238332,13.03049 v 4.0697 h 18.668326 v -5.6005 z"/></g><path id="path38745" fill="#1a5fb4" fill-opacity="1" fill-rule="evenodd" stroke="none" stroke-dasharray="none" stroke-dashoffset="0" stroke-linecap="butt" stroke-linejoin="miter" stroke-miterlimit="4" stroke-opacity="1" stroke-width="2" d="m -87,230 -2,2 h 52 v -2 z" baseline-shift="baseline" clip-rule="nonzero" color="#000" color-interpolation="sRGB" color-interpolation-filters="linearRGB" color-rendering="auto" direction="ltr" display="inline" dominant-baseline="auto" enable-background="new" font-family="sans-serif" font-size="medium" font-stretch="normal" font-style="normal" font-variant="normal" font-weight="normal" image-rendering="auto" letter-spacing="normal" opacity="1" overflow="visible" shape-rendering="auto" text-anchor="start" text-decoration="none" text-rendering="auto" vector-effect="none" visibility="visible" word-spacing="normal" writing-mode="lr-tb" style="line-height:normal;font-variant-ligatures:normal;font-variant-position:normal;font-variant-caps:normal;font-variant-numeric:normal;font-variant-alternates:normal;font-feature-settings:normal;text-indent:0;text-align:start;text-decoration-line:none;text-decoration-style:solid;text-decoration-color:#000;text-transform:none;text-orientation:mixed;white-space:normal;shape-padding:0;isolation:auto;mix-blend-mode:normal;solid-color:#000;solid-opacity:1"/><g id="g38749" fill="#fff" fill-opacity="1" stroke="none" stroke-linecap="butt" stroke-linejoin="miter" stroke-opacity="1" stroke-width="1" aria-label="8" font-family="Cantarell" font-size="37.337" font-stretch="normal" font-style="normal" font-variant="normal" font-weight="800" letter-spacing="0" text-anchor="start" transform="translate(-153)" word-spacing="0" writing-mode="lr-tb" style="line-height:23.33540344px;-inkscape-font-specification:'Cantarell, Ultra-Bold';font-variant-ligatures:normal;font-variant-caps:normal;font-variant-numeric:normal;font-feature-settings:normal;text-align:start"><path id="path38747" fill="#fff" fill-opacity="1" stroke-width="1" d="m 43.384567,205.70457 c 2.613565,-1.34412 4.032358,-3.3603 4.032358,-5.74985 0,-3.92035 -3.771002,-6.53391 -9.334163,-6.53391 -5.899191,0 -9.819539,3.17361 -9.819539,7.91537 0,2.87492 1.456129,4.59241 3.434972,5.78718 -2.650902,1.1201 -4.144368,3.13628 -4.144368,5.67517 0,4.36839 4.107031,7.28065 10.267579,7.28065 6.272557,0 10.454262,-3.21095 10.454262,-8.06472 0,-3.39763 -2.240199,-5.15246 -4.891101,-6.30989 z m -5.525825,-6.75794 c 1.754823,0 2.912259,0.85875 2.912259,2.20287 0,1.34411 -0.970753,2.42688 -2.464219,2.80024 -1.941506,-0.70939 -3.397635,-1.45613 -3.397635,-2.83758 0,-1.30678 1.157436,-2.16553 2.949595,-2.16553 z m 0.298694,15.60672 c -2.389546,0 -3.957685,-1.15743 -3.957685,-2.87492 0,-1.23211 0.784069,-2.20286 2.128189,-2.6509 2.800248,0.89608 5.301804,1.56814 5.301804,3.32296 0,1.30678 -1.418793,2.20286 -3.472308,2.20286 z"/></g><g id="g38753" fill="#fff" fill-opacity="1" stroke="none" stroke-linecap="butt" stroke-linejoin="miter" stroke-opacity="1" stroke-width="1" aria-label="4" font-family="Cantarell" font-size="37.337" font-stretch="normal" font-style="normal" font-variant="normal" font-weight="800" letter-spacing="0" text-anchor="start" transform="translate(-153)" word-spacing="0" writing-mode="lr-tb" style="line-height:23.33540344px;-inkscape-font-specification:'Cantarell, Ultra-Bold';font-variant-ligatures:normal;font-variant-caps:normal;font-variant-numeric:normal;font-feature-settings:normal;text-align:start"><path id="path38751" fill="#fff" fill-opacity="1" stroke-width="1" d="M 99.822075,209.21421 H 96.31243 v -15.42004 h -6.197884 l -12.059738,15.42004 v 5.6005 h 11.761045 v 5.07778 h 6.496577 v -5.07778 h 3.509645 z m -15.868077,-0.0747 5.861855,-7.65402 v 7.69136 z"/></g><path id="path38755" fill="#62a0ea" fill-opacity="1" stroke="none" stroke-linecap="butt" stroke-linejoin="miter" stroke-opacity="1" stroke-width="1" d="m -89,232 2,-2 v -48 l -2,2 z"/><path id="path38757" fill="#f56800" fill-opacity="1" stroke="none" stroke-linecap="butt" stroke-linejoin="miter" stroke-opacity="1" stroke-width="1" d="m -89,232 -2,-2 v -48 l 2,2 z"/><path id="path38759" fill="#48d493" fill-opacity="1" fill-rule="evenodd" stroke="none" stroke-dasharray="none" stroke-dashoffset="0" stroke-linecap="butt" stroke-linejoin="miter" stroke-miterlimit="4" stroke-opacity="1" stroke-width="2" d="m -141,234 v -2 h 52 l -2,2 z" baseline-shift="baseline" clip-rule="nonzero" color="#000" color-interpolation="sRGB" color-interpolation-filters="linearRGB" color-rendering="auto" direction="ltr" display="inline" dominant-baseline="auto" enable-background="new" font-family="sans-serif" font-size="medium" font-stretch="normal" font-style="normal" font-variant="normal" font-weight="normal" image-rendering="auto" letter-spacing="normal" opacity="1" overflow="visible" shape-rendering="auto" text-anchor="start" text-decoration="none" text-rendering="auto" vector-effect="none" visibility="visible" word-spacing="normal" writing-mode="lr-tb" style="line-height:normal;font-variant-ligatures:normal;font-variant-position:normal;font-variant-caps:normal;font-variant-numeric:normal;font-variant-alternates:normal;font-feature-settings:normal;text-indent:0;text-align:start;text-decoration-line:none;text-decoration-style:solid;text-decoration-color:#000;text-transform:none;text-orientation:mixed;white-space:normal;shape-padding:0;isolation:auto;mix-blend-mode:normal;solid-color:#000;solid-opacity:1"/><path id="path38761" fill="#34a26f" fill-opacity="1" stroke="none" stroke-linecap="butt" stroke-linejoin="miter" stroke-opacity="1" stroke-width="1" d="m -89,232 -2,2 v 48 l 2,1.99997 z"/><rect id="rect911" width="104" height="48" x="12" y="80" fill="url(#linearGradient941)" fill-opacity="1" stroke="none" stroke-dasharray="none" stroke-dashoffset="0" stroke-linecap="butt" stroke-linejoin="miter" stroke-miterlimit="4" stroke-opacity="1" stroke-width=".25" marker-end="none" marker-mid="none" marker-start="none" display="inline" enable-background="new" opacity="1" paint-order="normal" rx="8" ry="8" vector-effect="none" style="marker:none"/><rect id="rect913" width="104" height="100" x="12" y="24" fill="#f6f5f4" fill-opacity="1" stroke="none" stroke-dasharray="none" stroke-dashoffset="0" stroke-linecap="butt" stroke-linejoin="miter" stroke-miterlimit="4" stroke-opacity="1" stroke-width=".25" marker-end="none" marker-mid="none" marker-start="none" opacity="1" paint-order="normal" rx="8" ry="8" vector-effect="none" style="marker:none"/><path id="path915" fill="#241c1c" fill-opacity="1" stroke="none" stroke-dasharray="none" stroke-dashoffset="0" stroke-linecap="butt" stroke-linejoin="miter" stroke-miterlimit="4" stroke-opacity="1" stroke-width="2.5" d="m 20,24 c -4.432,0 -8,3.568 -8,8 v 84 c 0,4.432 3.568,8 8,8 H 66 V 76 h 50 V 32 c 0,-4.432 -3.568,-8 -8,-8 z" opacity=".2" vector-effect="none" style="marker:none"/><path id="path917" fill="#d46400" fill-opacity="1" stroke="none" stroke-dasharray="none" stroke-dashoffset="0" stroke-linecap="butt" stroke-linejoin="round" stroke-miterlimit="4" stroke-opacity="1" stroke-width=".5" d="m 20,24 c -4.432,0 -8,3.568 -8,8 V 72 H 62 V 24 Z" opacity="1" vector-effect="none"/><path id="path919" fill="#ff7800" fill-opacity="1" stroke="none" stroke-dasharray="none" stroke-dashoffset="0" stroke-linecap="butt" stroke-linejoin="round" stroke-miterlimit="4" stroke-opacity="1" stroke-width=".5" d="m 20,22 c -4.432,0 -8,3.568 -8,8 V 70 H 62 V 22 Z" opacity="1" vector-effect="none"/><path id="path921" fill="#1860b7" fill-opacity="1" stroke="none" stroke-dasharray="none" stroke-dashoffset="0" stroke-linecap="butt" stroke-linejoin="round" stroke-miterlimit="4" stroke-opacity="1" stroke-width=".5" d="m 66,24 v 48 h 50 V 32 c 0,-4.432 -3.568,-8 -8,-8 z" opacity="1" vector-effect="none"/><path id="path923" fill="#3584e4" fill-opacity="1" stroke="none" stroke-dasharray="none" stroke-dashoffset="0" stroke-linecap="butt" stroke-linejoin="round" stroke-miterlimit="4" stroke-opacity="1" stroke-width=".5" d="m 66,22 v 48 h 50 V 30 c 0,-4.432 -3.568,-8 -8,-8 z" opacity="1" vector-effect="none"/><path id="path925" fill="url(#linearGradient943)" fill-opacity="1" stroke="none" stroke-dasharray="none" stroke-dashoffset="0" stroke-linecap="butt" stroke-linejoin="round" stroke-miterlimit="4" stroke-opacity="1" stroke-width=".5" d="m 12,76 v 40 c 0,4.432 3.568,8 8,8 h 42 v -2 -46 z" opacity="1" vector-effect="none"/><path id="path927" fill="#2ec27e" fill-opacity="1" stroke="none" stroke-dasharray="none" stroke-dashoffset="0" stroke-linecap="butt" stroke-linejoin="round" stroke-miterlimit="4" stroke-opacity="1" stroke-width=".5" d="m 12,74 v 40 c 0,4.432 3.568,8 8,8 H 62 V 94 74 Z" opacity="1" vector-effect="none"/><g id="g931" fill="#fff" fill-opacity="1" stroke="none" stroke-linecap="butt" stroke-linejoin="miter" stroke-opacity="1" stroke-width="1" aria-label="2" font-family="Cantarell" font-size="37.337" font-stretch="normal" font-style="normal" font-variant="normal" font-weight="800" letter-spacing="0" text-anchor="start" transform="translate(0,-160)" word-spacing="0" writing-mode="lr-tb" style="line-height:23.33540344px;-inkscape-font-specification:'Cantarell, Ultra-Bold';font-variant-ligatures:normal;font-variant-caps:normal;font-variant-numeric:normal;font-feature-settings:normal;text-align:start"><path id="path929" fill="#fff" fill-opacity="1" stroke-width="1" d="m 39.034847,214.292 c 5.077784,-3.62166 7.990043,-7.80336 7.990043,-12.35843 0,-5.22713 -3.733665,-8.32608 -10.006222,-8.32608 -3.173616,0 -6.235221,0.78407 -8.92346,2.2402 l 1.45613,4.8911 c 2.464219,-1.12009 4.331051,-1.60547 6.12321,-1.60547 2.949596,0 4.629745,1.30678 4.629745,3.65899 0,2.98693 -2.613566,6.30989 -11.238332,13.03049 v 4.0697 h 18.668326 v -5.6005 z"/></g><g id="g935" fill="#fff" fill-opacity="1" stroke="none" stroke-linecap="butt" stroke-linejoin="miter" stroke-opacity="1" stroke-width="1" aria-label="8" font-family="Cantarell" font-size="37.337" font-stretch="normal" font-style="normal" font-variant="normal" font-weight="800" letter-spacing="0" text-anchor="start" transform="translate(0,-160)" word-spacing="0" writing-mode="lr-tb" style="line-height:23.33540344px;-inkscape-font-specification:'Cantarell, Ultra-Bold';font-variant-ligatures:normal;font-variant-caps:normal;font-variant-numeric:normal;font-feature-settings:normal;text-align:start"><path id="path933" fill="#fff" fill-opacity="1" stroke-width="1" d="m 42.469819,257.20456 c 2.613565,-1.34412 4.032358,-3.3603 4.032358,-5.74985 0,-3.92035 -3.771002,-6.53391 -9.334163,-6.53391 -5.899191,0 -9.819539,3.17361 -9.819539,7.91537 0,2.87492 1.456129,4.59241 3.434972,5.78718 -2.650902,1.1201 -4.144368,3.13628 -4.144368,5.67517 0,4.36839 4.107031,7.28065 10.267579,7.28065 6.272557,0 10.454262,-3.21095 10.454262,-8.06472 0,-3.39763 -2.240199,-5.15246 -4.891101,-6.30989 z m -5.525825,-6.75794 c 1.754823,0 2.912259,0.85875 2.912259,2.20287 0,1.34411 -0.970753,2.42688 -2.464219,2.80024 -1.941506,-0.70939 -3.397635,-1.45613 -3.397635,-2.83758 0,-1.30678 1.157436,-2.16553 2.949595,-2.16553 z m 0.298694,15.60672 c -2.389546,0 -3.957685,-1.15743 -3.957685,-2.87492 0,-1.23211 0.784069,-2.20286 2.128189,-2.6509 2.800248,0.89608 5.301804,1.56814 5.301804,3.32296 0,1.30678 -1.418793,2.20286 -3.472308,2.20286 z"/></g><g id="g939" fill="#fff" fill-opacity="1" stroke="none" stroke-linecap="butt" stroke-linejoin="miter" stroke-opacity="1" stroke-width="1" aria-label="4" font-family="Cantarell" font-size="37.337" font-stretch="normal" font-style="normal" font-variant="normal" font-weight="800" letter-spacing="0" text-anchor="start" transform="translate(0,-160)" word-spacing="0" writing-mode="lr-tb" style="line-height:23.33540344px;-inkscape-font-specification:'Cantarell, Ultra-Bold';font-variant-ligatures:normal;font-variant-caps:normal;font-variant-numeric:normal;font-feature-settings:normal;text-align:start"><path id="path937" fill="#fff" fill-opacity="1" stroke-width="1" d="M 99.822075,209.21421 H 96.31243 v -15.42004 h -6.197884 l -12.059738,15.42004 v 5.6005 h 11.761045 v 5.07778 h 6.496577 v -5.07778 h 3.509645 z m -15.868077,-0.0747 5.861855,-7.65402 v 7.69136 z"/></g><rect id="rect945" width="4" height="100" x="62" y="184" fill="#deddda" fill-opacity="1" stroke="none" stroke-dasharray="none" stroke-dashoffset="0" stroke-linecap="butt" stroke-linejoin="miter" stroke-miterlimit="4" stroke-opacity="1" stroke-width="3" opacity="1" vector-effect="none" style="marker:none"/></g></g></svg>