<svg xmlns="http://www.w3.org/2000/svg" xmlns:svg="http://www.w3.org/2000/svg" xmlns:xlink="http://www.w3.org/1999/xlink" id="svg11300" width="128" height="128" display="inline" enable-background="new" version="1.0" viewBox="0 0 128 128"><title id="title4162">Adwaita Icon Template</title><defs id="defs3"><linearGradient id="linearGradient950"><stop id="stop946" offset="0" stop-color="#9a9996" stop-opacity="1"/><stop id="stop948" offset="1" stop-color="#77767b" stop-opacity="1"/></linearGradient><linearGradient id="linearGradient1107" x1="1660.659" x2="1662.755" y1="806.689" y2="814.236" gradientTransform="matrix(7.3175747,-3.2639777,3.2639777,7.3175747,-14582.252,-496.6629)" gradientUnits="userSpaceOnUse" xlink:href="#linearGradient10876"/><linearGradient id="linearGradient10876"><stop id="stop10872" offset="0" stop-color="#949390" stop-opacity="1"/><stop id="stop10874" offset="1" stop-color="#68676b" stop-opacity="1"/></linearGradient><linearGradient id="linearGradient984" x1="1655.08" x2="1662.218" y1="824.406" y2="817.831" gradientTransform="matrix(7.3175747,-3.2639777,3.2639777,7.3175747,-16113.167,-496.41052)" gradientUnits="userSpaceOnUse" xlink:href="#linearGradient10868"/><linearGradient id="linearGradient10868"><stop id="stop10864" offset="0" stop-color="#f66151" stop-opacity="1"/><stop id="stop10866" offset="1" stop-color="#e01b24" stop-opacity="1"/></linearGradient><linearGradient id="linearGradient982" x1="1660.659" x2="1662.755" y1="806.689" y2="814.236" gradientTransform="matrix(7.3175747,-3.2639777,3.2639777,7.3175747,-16113.167,-496.41052)" gradientUnits="userSpaceOnUse" xlink:href="#linearGradient10876"/><radialGradient id="radialGradient936" cx="256.043" cy="183.748" r="200" fx="256.043" fy="183.748" gradientTransform="matrix(1.7228329,0,0,1.7228329,-185.07643,-138.44912)" gradientUnits="userSpaceOnUse" xlink:href="#linearGradient934"/><linearGradient id="linearGradient934"><stop id="stop930" offset="0" stop-color="#fff" stop-opacity="1"/><stop id="stop932" offset="1" stop-color="#f6f5f4" stop-opacity="1"/></linearGradient><linearGradient id="linearGradient10878" x1="1660.659" x2="1662.755" y1="806.689" y2="814.236" gradientTransform="matrix(7.3175747,-3.2639777,3.2639777,7.3175747,-15523.167,-496.41052)" gradientUnits="userSpaceOnUse" xlink:href="#linearGradient10876"/><linearGradient id="linearGradient1001" x1="1660.857" x2="1662.99" y1="806.297" y2="812.882" gradientTransform="matrix(1.8293937,-0.81599442,0.81599442,1.8293937,-3645.9624,100.02949)" gradientUnits="userSpaceOnUse" xlink:href="#linearGradient950"/><clipPath id="clipPath898" clipPathUnits="userSpaceOnUse"><rect id="rect900" width="126.999" height="31.75" x="140.6" y="214.223" fill="#000" fill-opacity="1" stroke="none" stroke-dasharray="none" stroke-dashoffset="0" stroke-linecap="butt" stroke-linejoin="miter" stroke-miterlimit="4" stroke-opacity="1" stroke-width="4.233" marker-end="none" marker-mid="none" marker-start="none" opacity=".1" paint-order="normal" rx="8.467" ry="8.467" style="marker:none"/></clipPath><clipPath id="clipPath920" clipPathUnits="userSpaceOnUse"><rect id="rect922" width="126.999" height="31.75" x="140.6" y="250.923" fill="#000" fill-opacity="1" stroke="none" stroke-dasharray="none" stroke-dashoffset="0" stroke-linecap="butt" stroke-linejoin="miter" stroke-miterlimit="4" stroke-opacity="1" stroke-width="4.233" marker-end="none" marker-mid="none" marker-start="none" opacity=".1" paint-order="normal" rx="8.467" ry="8.467" style="marker:none"/></clipPath><clipPath id="clipPath924" clipPathUnits="userSpaceOnUse"><rect id="rect926" width="126.999" height="31.75" x="140.6" y="288.205" fill="#000" fill-opacity="1" stroke="none" stroke-dasharray="none" stroke-dashoffset="0" stroke-linecap="butt" stroke-linejoin="miter" stroke-miterlimit="4" stroke-opacity="1" stroke-width="4.233" marker-end="none" marker-mid="none" marker-start="none" opacity=".1" paint-order="normal" rx="8.467" ry="8.467" style="marker:none"/></clipPath><clipPath id="clipPath928" clipPathUnits="userSpaceOnUse"><rect id="rect930" width="126.999" height="31.75" x="140.6" y="324.904" fill="#000" fill-opacity="1" stroke="none" stroke-dasharray="none" stroke-dashoffset="0" stroke-linecap="butt" stroke-linejoin="miter" stroke-miterlimit="4" stroke-opacity="1" stroke-width="4.233" marker-end="none" marker-mid="none" marker-start="none" opacity=".1" paint-order="normal" rx="8.467" ry="8.467" style="marker:none"/></clipPath><clipPath id="clipPath932" clipPathUnits="userSpaceOnUse"><rect id="rect934" width="126.999" height="31.75" x="140.6" y="362.186" fill="#000" fill-opacity="1" stroke="none" stroke-dasharray="none" stroke-dashoffset="0" stroke-linecap="butt" stroke-linejoin="miter" stroke-miterlimit="4" stroke-opacity="1" stroke-width="4.233" marker-end="none" marker-mid="none" marker-start="none" opacity=".1" paint-order="normal" rx="8.467" ry="8.467" style="marker:none"/></clipPath><clipPath id="clipPath936" clipPathUnits="userSpaceOnUse"><rect id="rect938" width="126.999" height="31.75" x="140.6" y="399.468" fill="#000" fill-opacity="1" stroke="none" stroke-dasharray="none" stroke-dashoffset="0" stroke-linecap="butt" stroke-linejoin="miter" stroke-miterlimit="4" stroke-opacity="1" stroke-width="4.233" marker-end="none" marker-mid="none" marker-start="none" opacity=".1" paint-order="normal" rx="8.467" ry="8.467" style="marker:none"/></clipPath><clipPath id="clipPath940" clipPathUnits="userSpaceOnUse"><rect id="rect942" width="126.999" height="31.75" x="140.6" y="436.167" fill="#000" fill-opacity="1" stroke="none" stroke-dasharray="none" stroke-dashoffset="0" stroke-linecap="butt" stroke-linejoin="miter" stroke-miterlimit="4" stroke-opacity="1" stroke-width="4.233" marker-end="none" marker-mid="none" marker-start="none" opacity=".1" paint-order="normal" rx="8.467" ry="8.467" style="marker:none"/></clipPath><clipPath id="clipPath944" clipPathUnits="userSpaceOnUse"><rect id="rect946" width="253.868" height="31.75" x="140.6" y="473.449" fill="#000" fill-opacity="1" stroke="none" stroke-dasharray="none" stroke-dashoffset="0" stroke-linecap="butt" stroke-linejoin="miter" stroke-miterlimit="4" stroke-opacity="1" stroke-width="4.233" marker-end="none" marker-mid="none" marker-start="none" opacity=".1" paint-order="normal" rx="8.467" ry="8.467" style="marker:none"/></clipPath></defs><metadata id="metadata4"/><g id="layer1" display="inline" transform="translate(0,-172)"><g id="layer2" display="none"><text id="context" x="7.933" y="112.086" fill="#000" fill-opacity="1" stroke="none" stroke-width=".454" display="inline" enable-background="new" font-family="Cantarell" font-size="8.305" font-stretch="normal" font-style="normal" font-variant="normal" font-weight="normal" text-anchor="start" writing-mode="lr-tb" xml:space="preserve" style="line-height:125%;-inkscape-font-specification:'Cantarell, Normal';text-align:start"><tspan id="tspan2716" x="7.933" y="112.086" stroke-width=".454">apps</tspan></text><text id="text3021" x="7.665" y="123.794" fill="#000" fill-opacity="1" stroke="none" stroke-width=".454" display="inline" enable-background="new" font-family="Cantarell" font-size="8.305" font-stretch="normal" font-style="normal" font-variant="normal" font-weight="bold" text-anchor="start" writing-mode="lr-tb" xml:space="preserve" style="line-height:125%;-inkscape-font-specification:'Cantarell, Bold';text-align:start"><tspan id="tspan3023" x="7.665" y="123.794" stroke-width=".454">org.gnome.Clocks</tspan></text><rect id="rect13805" width="128" height="128" x="0" y="172" fill="#f0f0f0" fill-opacity="1" fill-rule="nonzero" stroke="none" stroke-width=".5" display="inline" enable-background="accumulate" overflow="visible" visibility="visible" style="marker:none"/><g id="g1168" display="inline" transform="matrix(0.25,0,0,0.25,6.9488522e-8,225)"><rect id="rect1110" width="320" height="448" x="96" y="-180" fill="#2864b0" fill-opacity="1" stroke="none" stroke-dasharray="none" stroke-dashoffset="0" stroke-linecap="butt" stroke-linejoin="miter" stroke-miterlimit="4" stroke-opacity="1" stroke-width="1" marker-end="none" marker-mid="none" marker-start="none" opacity=".1" paint-order="normal" rx="32" ry="32" style="marker:none"/><rect stroke-miterlimit="4" style="marker:none" id="rect1110-8" width="416" height="416" x="48" y="-164" fill="#2864b0" fill-opacity="1" stroke="none" stroke-dasharray="none" stroke-dashoffset="0" stroke-linecap="butt" stroke-linejoin="miter" stroke-opacity="1" stroke-width="1" marker-end="none" marker-mid="none" marker-start="none" display="inline" enable-background="new" opacity=".1" paint-order="normal" rx="32" ry="32"/><rect stroke-miterlimit="4" style="marker:none" id="rect1110-8-9" width="448" height="320" x="32" y="-116" fill="#2864b0" fill-opacity="1" stroke="none" stroke-dasharray="none" stroke-dashoffset="0" stroke-linecap="butt" stroke-linejoin="miter" stroke-opacity="1" stroke-width="1" marker-end="none" marker-mid="none" marker-start="none" display="inline" enable-background="new" opacity=".1" paint-order="normal" rx="32" ry="32"/><circle id="path1142" cx="256" cy="44" r="240" fill="#2864b0" fill-opacity="1" stroke="none" stroke-dasharray="none" stroke-dashoffset="0" stroke-linecap="butt" stroke-linejoin="miter" stroke-miterlimit="4" stroke-opacity="1" stroke-width="1" marker-end="none" marker-mid="none" marker-start="none" opacity=".1" paint-order="normal" style="marker:none"/></g></g><g id="layer9" display="inline"><path id="path945" fill="#deddda" fill-opacity="1" stroke="none" stroke-dasharray="none" stroke-dashoffset="0" stroke-linecap="butt" stroke-linejoin="miter" stroke-miterlimit="4" stroke-opacity="1" stroke-width=".011" marker-end="none" marker-mid="none" marker-start="none" d="M 123.99993,237 A 59.999995,59.999995 0 0 1 63.999945,297 59.999995,59.999995 0 0 1 3.9999381,237 59.999995,59.999995 0 0 1 63.999945,177.00001 59.999995,59.999995 0 0 1 123.99993,237 Z" display="inline" enable-background="new" opacity="1" paint-order="normal" style="marker:none"/><rect stroke-miterlimit="4" style="marker:none" id="rect939-3" width="448" height="456" x="-908" y="-180" fill="#d5d3cf" fill-opacity="1" stroke="none" stroke-dasharray="none" stroke-dashoffset="0" stroke-linecap="butt" stroke-linejoin="miter" stroke-opacity="1" stroke-width=".045" marker-end="none" marker-mid="none" marker-start="none" display="inline" enable-background="new" opacity="1" paint-order="normal" rx="224" ry="224"/><path id="path951" fill="#f6f5f4" fill-opacity="1" stroke="none" stroke-dasharray="none" stroke-dashoffset="0" stroke-linecap="butt" stroke-linejoin="miter" stroke-miterlimit="4" stroke-opacity="1" stroke-width=".045" marker-end="none" marker-mid="none" marker-start="none" d="M -460.0006,43.99998 A 223.99985,223.99985 0 0 1 -684.0004,267.99984 223.99985,223.99985 0 0 1 -908.0003,43.99998 223.99985,223.99985 0 0 1 -684.0004,-179.99987 223.99985,223.99985 0 0 1 -460.0006,43.99998 Z" display="inline" enable-background="new" opacity="1" paint-order="normal" style="marker:none"/><circle id="path951-6" cx="-684" cy="44" r="200" fill="#424048" fill-opacity="1" stroke="none" stroke-dasharray="none" stroke-dashoffset="0" stroke-linecap="butt" stroke-linejoin="miter" stroke-miterlimit="4" stroke-opacity="1" stroke-width=".045" marker-end="none" marker-mid="none" marker-start="none" display="inline" enable-background="new" opacity="1" paint-order="normal" style="marker:none"/><path id="path7817-9-6" fill="#000" fill-opacity="1" fill-rule="evenodd" stroke="none" stroke-dasharray="none" stroke-dashoffset="0" stroke-linecap="round" stroke-linejoin="miter" stroke-miterlimit="4" stroke-opacity="1" stroke-width="16.025" d="m -580.2307,-66.3633 a 4.0066596,4.0066596 0 0 0 -3.0899,1.35937 l -87.8906,97.12696 a 23.316622,23.316622 0 0 0 -20.6816,-2.64453 l -57.0918,-65.35157 a 8.0133192,8.0133192 0 0 0 -6.375,-2.82226 8.0133192,8.0133192 0 0 0 -5.6934,13.36523 l 56.7793,64.99414 a 23.316622,23.316622 0 0 0 -1.2207,21.30664 23.316622,23.316622 0 0 0 9.7012,10.69727 L -745.93,195.81442 a 4.0066596,4.0066596 0 1 0 7.4297,3 l 50.2344,-124.38866 a 23.316622,23.316622 0 0 0 13.5645,-1.66016 23.316622,23.316622 0 0 0 11.7949,-30.79296 23.316622,23.316622 0 0 0 -2.5274,-4.29102 l 88.0547,-97.30859 a 4.0066596,4.0066596 0 0 0 -2.8515,-6.73633 z" baseline-shift="baseline" clip-rule="nonzero" color="#000" color-interpolation="sRGB" color-interpolation-filters="linearRGB" color-rendering="auto" direction="ltr" display="inline" dominant-baseline="auto" enable-background="new" font-family="sans-serif" font-size="medium" font-stretch="normal" font-style="normal" font-variant="normal" font-weight="normal" image-rendering="auto" letter-spacing="normal" opacity=".2" overflow="visible" shape-rendering="auto" text-anchor="start" text-decoration="none" text-rendering="auto" visibility="visible" word-spacing="normal" writing-mode="lr-tb" style="line-height:normal;font-variant-ligatures:normal;font-variant-position:normal;font-variant-caps:normal;font-variant-numeric:normal;font-variant-alternates:normal;font-feature-settings:normal;text-indent:0;text-align:start;text-decoration-line:none;text-decoration-style:solid;text-decoration-color:#000;text-transform:none;text-orientation:mixed;white-space:normal;shape-padding:0;isolation:auto;mix-blend-mode:normal;solid-color:#000;solid-opacity:1"/><path id="path7817-9" fill="none" fill-rule="evenodd" stroke="url(#linearGradient10878)" stroke-linecap="round" stroke-linejoin="miter" stroke-opacity="1" stroke-width="16.025" d="m -683.3171,43.47151 -71.7024,-82.07255" display="inline" enable-background="new"/><path id="path7819-4" fill="none" fill-rule="evenodd" stroke="#fff" stroke-linecap="round" stroke-linejoin="miter" stroke-opacity="1" stroke-width="8.013" d="M -683.3171,43.47151 -580.3498,-70.31595" display="inline" enable-background="new"/><path id="path7821-6" fill="none" fill-rule="evenodd" stroke="#e01b24" stroke-linecap="round" stroke-linejoin="miter" stroke-opacity="1" stroke-width="8.013" d="m -683.3171,43.47151 -58.8984,145.84224" display="inline" enable-background="new"/><circle id="circle7823-9" cx="-642.567" cy="-239.015" r="23.317" fill="#d5d3cf" fill-opacity="1" fill-rule="nonzero" stroke="none" stroke-dasharray="none" stroke-dashoffset="0" stroke-linecap="round" stroke-linejoin="round" stroke-miterlimit="4" stroke-opacity="1" stroke-width="31.089" clip-rule="nonzero" color="#000" color-interpolation="sRGB" color-interpolation-filters="linearRGB" color-rendering="auto" display="inline" enable-background="accumulate" image-rendering="auto" opacity="1" overflow="visible" shape-rendering="auto" text-rendering="auto" transform="rotate(-24.039088)" visibility="visible" style="marker:none"/><circle id="circle7825-2" cx="-683.884" cy="44" r="8.013" fill="#131c1a" fill-opacity="1" fill-rule="nonzero" stroke="none" stroke-dasharray="none" stroke-dashoffset="0" stroke-linecap="round" stroke-linejoin="round" stroke-miterlimit="4" stroke-opacity="1" stroke-width="32.05" clip-rule="nonzero" color="#000" color-interpolation="sRGB" color-interpolation-filters="linearRGB" color-rendering="auto" display="inline" enable-background="accumulate" image-rendering="auto" opacity="1" overflow="visible" shape-rendering="auto" text-rendering="auto" visibility="visible" style="marker:none"/><circle id="circle7843-2" cx="-683.884" cy="44" r="8.013" fill="#131c1a" fill-opacity="1" fill-rule="nonzero" stroke="none" stroke-dasharray="none" stroke-dashoffset="0" stroke-linecap="round" stroke-linejoin="round" stroke-miterlimit="4" stroke-opacity="1" stroke-width="32.05" clip-rule="nonzero" color="#000" color-interpolation="sRGB" color-interpolation-filters="linearRGB" color-rendering="auto" display="inline" enable-background="accumulate" image-rendering="auto" opacity="1" overflow="visible" shape-rendering="auto" text-rendering="auto" visibility="visible" style="marker:none"/><path id="path951-6-9" fill="#000" fill-opacity="1" stroke="none" stroke-dasharray="none" stroke-dashoffset="0" stroke-linecap="butt" stroke-linejoin="miter" stroke-miterlimit="4" stroke-opacity="1" stroke-width=".045" marker-end="none" marker-mid="none" marker-start="none" d="m -684.0003,-156.00002 a 200.00015,200.00015 0 0 0 -200,200 200.00015,200.00015 0 0 0 0.1661,4.68555 200.00015,200.00015 0 0 1 199.8339,-196.68555 200.00015,200.00015 0 0 1 199.834,195.31836 200.00015,200.00015 0 0 0 0.166,-3.31836 200.00015,200.00015 0 0 0 -200,-200 z" display="inline" enable-background="new" opacity=".1" paint-order="normal" style="marker:none"/><g id="g998" display="inline" transform="translate(-2110.0435,0.25238921)"><rect stroke-miterlimit="4" style="marker:none" id="rect939-3-7" width="448" height="456" x="32.043" y="-180.252" fill="#2864b0" fill-opacity="1" stroke="none" stroke-dasharray="none" stroke-dashoffset="0" stroke-linecap="butt" stroke-linejoin="miter" stroke-opacity="1" stroke-width=".045" marker-end="none" marker-mid="none" marker-start="none" display="inline" enable-background="new" opacity="1" paint-order="normal" rx="224" ry="224"/><path id="path951-0" fill="#4a86cf" fill-opacity="1" stroke="none" stroke-dasharray="none" stroke-dashoffset="0" stroke-linecap="butt" stroke-linejoin="miter" stroke-miterlimit="4" stroke-opacity="1" stroke-width=".045" marker-end="none" marker-mid="none" marker-start="none" d="M 480.043,43.747592 A 223.99985,223.99985 0 0 1 256.04316,267.74744 223.99985,223.99985 0 0 1 32.04331,43.747592 223.99985,223.99985 0 0 1 256.04316,-180.25226 223.99985,223.99985 0 0 1 480.043,43.747592 Z" display="inline" enable-background="new" opacity="1" paint-order="normal" style="marker:none"/><circle id="path951-6-93" cx="256.043" cy="43.748" r="191.957" fill="url(#radialGradient936)" fill-opacity="1" stroke="none" stroke-dasharray="none" stroke-dashoffset="0" stroke-linecap="butt" stroke-linejoin="miter" stroke-miterlimit="4" stroke-opacity="1" stroke-width=".045" marker-end="none" marker-mid="none" marker-start="none" display="inline" enable-background="new" opacity="1" paint-order="normal" style="marker:none"/><path id="path7817-9-6-6" fill="#000" fill-opacity="1" fill-rule="evenodd" stroke="none" stroke-dasharray="none" stroke-dashoffset="0" stroke-linecap="round" stroke-linejoin="miter" stroke-miterlimit="4" stroke-opacity="1" stroke-width="16.025" d="m 359.81284,-66.615688 a 4.0066596,4.0066596 0 0 0 -3.08984,1.35937 l -87.89063,97.12696 a 23.316622,23.316622 0 0 0 -20.68164,-2.64453 l -57.0918,-65.35157 a 8.0133192,8.0133192 0 0 0 -6.375,-2.82226 8.0133192,8.0133192 0 0 0 -5.69335,13.36523 l 56.77929,64.99414 a 23.316622,23.316622 0 0 0 -1.2207,21.30664 23.316622,23.316622 0 0 0 9.70117,10.69727 L 194.11362,195.56204 a 4.0066596,4.0066596 0 1 0 7.42969,3 L 251.77769,74.173372 a 23.316622,23.316622 0 0 0 13.56445,-1.66016 23.316622,23.316622 0 0 0 11.79492,-30.79296 23.316622,23.316622 0 0 0 -2.52734,-4.29102 l 88.05468,-97.30859 a 4.0066596,4.0066596 0 0 0 -2.85156,-6.73633 z" baseline-shift="baseline" clip-rule="nonzero" color="#000" color-interpolation="sRGB" color-interpolation-filters="linearRGB" color-rendering="auto" direction="ltr" display="inline" dominant-baseline="auto" enable-background="new" font-family="sans-serif" font-size="medium" font-stretch="normal" font-style="normal" font-variant="normal" font-weight="normal" image-rendering="auto" letter-spacing="normal" opacity=".2" overflow="visible" shape-rendering="auto" text-anchor="start" text-decoration="none" text-rendering="auto" visibility="visible" word-spacing="normal" writing-mode="lr-tb" style="line-height:normal;font-variant-ligatures:normal;font-variant-position:normal;font-variant-caps:normal;font-variant-numeric:normal;font-variant-alternates:normal;font-feature-settings:normal;text-indent:0;text-align:start;text-decoration-line:none;text-decoration-style:solid;text-decoration-color:#000;text-transform:none;text-orientation:mixed;white-space:normal;shape-padding:0;isolation:auto;mix-blend-mode:normal;solid-color:#000;solid-opacity:1"/><path id="path7817-9-0" fill="none" fill-rule="evenodd" stroke="#68676b" stroke-linecap="round" stroke-linejoin="miter" stroke-opacity="1" stroke-width="16.025" d="m 256.72647,43.219122 -71.70243,-82.07255" display="inline" enable-background="new"/><path id="path7819-4-6" fill="#424048" fill-rule="evenodd" stroke="#424048" stroke-linecap="round" stroke-linejoin="miter" stroke-opacity="1" stroke-width="8.013" d="M 256.72647,43.219122 359.69374,-70.568338" display="inline" enable-background="new"/><path id="path7821-6-2" fill="none" fill-rule="evenodd" stroke="#f66151" stroke-linecap="round" stroke-linejoin="miter" stroke-opacity="1" stroke-width="8.013" d="M 256.72647,43.219122 197.82805,189.06137" display="inline" enable-background="new"/><circle id="circle7823-9-6" cx="216.047" cy="143.691" r="23.317" fill="#68676b" fill-opacity="1" fill-rule="nonzero" stroke="none" stroke-dasharray="none" stroke-dashoffset="0" stroke-linecap="round" stroke-linejoin="round" stroke-miterlimit="4" stroke-opacity="1" stroke-width="31.089" clip-rule="nonzero" color="#000" color-interpolation="sRGB" color-interpolation-filters="linearRGB" color-rendering="auto" display="inline" enable-background="accumulate" image-rendering="auto" opacity="1" overflow="visible" shape-rendering="auto" text-rendering="auto" transform="rotate(-24.039088)" visibility="visible" style="marker:none"/><circle id="circle7825-2-1" cx="256.16" cy="43.748" r="8.013" fill="#131c1a" fill-opacity="1" fill-rule="nonzero" stroke="none" stroke-dasharray="none" stroke-dashoffset="0" stroke-linecap="round" stroke-linejoin="round" stroke-miterlimit="4" stroke-opacity="1" stroke-width="32.05" clip-rule="nonzero" color="#000" color-interpolation="sRGB" color-interpolation-filters="linearRGB" color-rendering="auto" display="inline" enable-background="accumulate" image-rendering="auto" opacity="1" overflow="visible" shape-rendering="auto" text-rendering="auto" visibility="visible" style="marker:none"/><circle id="circle7843-2-8" cx="256.16" cy="43.748" r="8.013" fill="#131c1a" fill-opacity="1" fill-rule="nonzero" stroke="none" stroke-dasharray="none" stroke-dashoffset="0" stroke-linecap="round" stroke-linejoin="round" stroke-miterlimit="4" stroke-opacity="1" stroke-width="32.05" clip-rule="nonzero" color="#000" color-interpolation="sRGB" color-interpolation-filters="linearRGB" color-rendering="auto" display="inline" enable-background="accumulate" image-rendering="auto" opacity="1" overflow="visible" shape-rendering="auto" text-rendering="auto" visibility="visible" style="marker:none"/><path id="path951-6-5" fill="#000" fill-opacity="1" stroke="none" stroke-dasharray="none" stroke-dashoffset="0" stroke-linecap="butt" stroke-linejoin="miter" stroke-miterlimit="4" stroke-opacity="1" stroke-width=".045" marker-end="none" marker-mid="none" marker-start="none" d="M 256.04297,63.791016 A 191.95685,191.95685 0 0 0 64.085938,255.74805 191.95685,191.95685 0 0 0 64.251953,260.43359 191.95685,191.95685 0 0 1 256.04297,71.791016 191.95685,191.95685 0 0 1 447.83398,259.0625 191.95685,191.95685 0 0 0 448,255.74805 191.95685,191.95685 0 0 0 256.04297,63.791016 Z" display="inline" enable-background="new" opacity=".1" paint-order="normal" transform="translate(0,-212)" style="marker:none"/></g><rect stroke-miterlimit="4" style="marker:none" id="rect960" width="448" height="456" x="-1498" y="-180" fill="#d5d3cf" fill-opacity="1" stroke="none" stroke-dasharray="none" stroke-dashoffset="0" stroke-linecap="butt" stroke-linejoin="miter" stroke-opacity="1" stroke-width=".045" marker-end="none" marker-mid="none" marker-start="none" display="inline" enable-background="new" opacity="1" paint-order="normal" rx="224" ry="224"/><path id="path962" fill="#f6f5f4" fill-opacity="1" stroke="none" stroke-dasharray="none" stroke-dashoffset="0" stroke-linecap="butt" stroke-linejoin="miter" stroke-miterlimit="4" stroke-opacity="1" stroke-width=".045" marker-end="none" marker-mid="none" marker-start="none" d="m -1050.0006,43.99998 a 223.99985,223.99985 0 0 1 -223.9999,223.99986 223.99985,223.99985 0 0 1 -223.9998,-223.99986 223.99985,223.99985 0 0 1 223.9998,-223.99985 223.99985,223.99985 0 0 1 223.9999,223.99985 z" display="inline" enable-background="new" opacity="1" paint-order="normal" style="marker:none"/><circle id="circle964" cx="-1274.001" cy="44" r="200" fill="#2864b0" fill-opacity="1" stroke="none" stroke-dasharray="none" stroke-dashoffset="0" stroke-linecap="butt" stroke-linejoin="miter" stroke-miterlimit="4" stroke-opacity="1" stroke-width=".045" marker-end="none" marker-mid="none" marker-start="none" display="inline" enable-background="new" opacity="1" paint-order="normal" style="marker:none"/><path id="path966" fill="#000" fill-opacity="1" fill-rule="evenodd" stroke="none" stroke-dasharray="none" stroke-dashoffset="0" stroke-linecap="round" stroke-linejoin="miter" stroke-miterlimit="4" stroke-opacity="1" stroke-width="16.025" d="m -1170.2308,-66.3633 a 4.0066596,4.0066596 0 0 0 -3.0898,1.35937 l -87.8906,97.12696 a 23.316622,23.316622 0 0 0 -20.6817,-2.64453 l -57.0918,-65.35157 a 8.0133192,8.0133192 0 0 0 -6.375,-2.82226 8.0133192,8.0133192 0 0 0 -5.6933,13.36523 l 56.7793,64.99414 a 23.316622,23.316622 0 0 0 -1.2207,21.30664 23.316622,23.316622 0 0 0 9.7011,10.69727 l -50.1367,124.14647 a 4.0066596,4.0066596 0 1 0 7.4297,3 l 50.2344,-124.38866 a 23.316622,23.316622 0 0 0 13.5644,-1.66016 23.316622,23.316622 0 0 0 11.7949,-30.79296 23.316622,23.316622 0 0 0 -2.5273,-4.29102 l 88.0547,-97.30859 a 4.0066596,4.0066596 0 0 0 -2.8516,-6.73633 z" baseline-shift="baseline" clip-rule="nonzero" color="#000" color-interpolation="sRGB" color-interpolation-filters="linearRGB" color-rendering="auto" direction="ltr" display="inline" dominant-baseline="auto" enable-background="new" font-family="sans-serif" font-size="medium" font-stretch="normal" font-style="normal" font-variant="normal" font-weight="normal" image-rendering="auto" letter-spacing="normal" opacity=".2" overflow="visible" shape-rendering="auto" text-anchor="start" text-decoration="none" text-rendering="auto" visibility="visible" word-spacing="normal" writing-mode="lr-tb" style="line-height:normal;font-variant-ligatures:normal;font-variant-position:normal;font-variant-caps:normal;font-variant-numeric:normal;font-variant-alternates:normal;font-feature-settings:normal;text-indent:0;text-align:start;text-decoration-line:none;text-decoration-style:solid;text-decoration-color:#000;text-transform:none;text-orientation:mixed;white-space:normal;shape-padding:0;isolation:auto;mix-blend-mode:normal;solid-color:#000;solid-opacity:1"/><path id="path968" fill="none" fill-rule="evenodd" stroke="url(#linearGradient982)" stroke-linecap="round" stroke-linejoin="miter" stroke-opacity="1" stroke-width="16.025" d="m -1273.3172,43.47151 -71.7024,-82.07255" display="inline" enable-background="new"/><path id="path970" fill="none" fill-rule="evenodd" stroke="#fff" stroke-linecap="round" stroke-linejoin="miter" stroke-opacity="1" stroke-width="8.013" d="m -1273.3172,43.47151 102.9673,-113.78746" display="inline" enable-background="new"/><path id="path972" fill="none" fill-rule="evenodd" stroke="url(#linearGradient984)" stroke-linecap="round" stroke-linejoin="miter" stroke-opacity="1" stroke-width="8.013" d="m -1273.3172,43.47151 -58.8984,145.84224" display="inline" enable-background="new"/><circle id="circle974" cx="-1181.394" cy="-479.357" r="23.317" fill="#d5d3cf" fill-opacity="1" fill-rule="nonzero" stroke="none" stroke-dasharray="none" stroke-dashoffset="0" stroke-linecap="round" stroke-linejoin="round" stroke-miterlimit="4" stroke-opacity="1" stroke-width="31.089" clip-rule="nonzero" color="#000" color-interpolation="sRGB" color-interpolation-filters="linearRGB" color-rendering="auto" display="inline" enable-background="accumulate" image-rendering="auto" opacity="1" overflow="visible" shape-rendering="auto" text-rendering="auto" transform="rotate(-24.039088)" visibility="visible" style="marker:none"/><circle id="circle976" cx="-1273.884" cy="44" r="8.013" fill="#131c1a" fill-opacity="1" fill-rule="nonzero" stroke="none" stroke-dasharray="none" stroke-dashoffset="0" stroke-linecap="round" stroke-linejoin="round" stroke-miterlimit="4" stroke-opacity="1" stroke-width="32.05" clip-rule="nonzero" color="#000" color-interpolation="sRGB" color-interpolation-filters="linearRGB" color-rendering="auto" display="inline" enable-background="accumulate" image-rendering="auto" opacity="1" overflow="visible" shape-rendering="auto" text-rendering="auto" visibility="visible" style="marker:none"/><circle id="circle978" cx="-1273.884" cy="44" r="8.013" fill="#131c1a" fill-opacity="1" fill-rule="nonzero" stroke="none" stroke-dasharray="none" stroke-dashoffset="0" stroke-linecap="round" stroke-linejoin="round" stroke-miterlimit="4" stroke-opacity="1" stroke-width="32.05" clip-rule="nonzero" color="#000" color-interpolation="sRGB" color-interpolation-filters="linearRGB" color-rendering="auto" display="inline" enable-background="accumulate" image-rendering="auto" opacity="1" overflow="visible" shape-rendering="auto" text-rendering="auto" visibility="visible" style="marker:none"/><path id="path980" fill="#000" fill-opacity="1" stroke="none" stroke-dasharray="none" stroke-dashoffset="0" stroke-linecap="butt" stroke-linejoin="miter" stroke-miterlimit="4" stroke-opacity="1" stroke-width=".045" marker-end="none" marker-mid="none" marker-start="none" d="m -1274.0003,-156.00002 a 200.00015,200.00015 0 0 0 -200,200 200.00015,200.00015 0 0 0 0.166,4.68555 200.00015,200.00015 0 0 1 199.834,-196.68555 200.00015,200.00015 0 0 1 199.834,195.31836 200.00015,200.00015 0 0 0 0.166,-3.31836 200.00015,200.00015 0 0 0 -200,-200 z" display="inline" enable-background="new" opacity=".1" paint-order="normal" style="marker:none"/><g id="g1105" display="inline" transform="translate(-940.9154,-576.74675)"><rect stroke-miterlimit="4" style="marker:none" id="rect1072" width="448" height="456" x="32.915" y="-180.252" fill="#d5d3cf" fill-opacity="1" stroke="none" stroke-dasharray="none" stroke-dashoffset="0" stroke-linecap="butt" stroke-linejoin="miter" stroke-opacity="1" stroke-width=".045" marker-end="none" marker-mid="none" marker-start="none" display="inline" enable-background="new" opacity="1" paint-order="normal" rx="224" ry="224"/><path id="path1074" fill="#f6f5f4" fill-opacity="1" stroke="none" stroke-dasharray="none" stroke-dashoffset="0" stroke-linecap="butt" stroke-linejoin="miter" stroke-miterlimit="4" stroke-opacity="1" stroke-width=".045" marker-end="none" marker-mid="none" marker-start="none" d="M 480.91478,43.747592 A 223.99985,223.99985 0 0 1 256.91494,267.74744 223.99985,223.99985 0 0 1 32.91509,43.747592 223.99985,223.99985 0 0 1 256.91494,-180.25226 223.99985,223.99985 0 0 1 480.91478,43.747592 Z" display="inline" enable-background="new" opacity="1" paint-order="normal" style="marker:none"/><circle id="circle1076" cx="256.915" cy="43.748" r="200" fill="#9059a1" fill-opacity="1" stroke="none" stroke-dasharray="none" stroke-dashoffset="0" stroke-linecap="butt" stroke-linejoin="miter" stroke-miterlimit="4" stroke-opacity="1" stroke-width=".045" marker-end="none" marker-mid="none" marker-start="none" display="inline" enable-background="new" opacity="1" paint-order="normal" style="marker:none"/><path id="path1078" fill="#000" fill-opacity="1" fill-rule="evenodd" stroke="none" stroke-dasharray="none" stroke-dashoffset="0" stroke-linecap="round" stroke-linejoin="miter" stroke-miterlimit="4" stroke-opacity="1" stroke-width="16.025" d="m 360.68462,-66.615688 a 4.0066596,4.0066596 0 0 0 -3.08984,1.35937 l -87.89063,97.12696 a 23.316622,23.316622 0 0 0 -20.68164,-2.64453 l -57.0918,-65.35157 a 8.0133192,8.0133192 0 0 0 -6.375,-2.82226 8.0133192,8.0133192 0 0 0 -5.69335,13.36523 l 56.77929,64.99414 a 23.316622,23.316622 0 0 0 -1.2207,21.30664 23.316622,23.316622 0 0 0 9.70117,10.69727 L 194.9854,195.56204 a 4.0066596,4.0066596 0 1 0 7.42969,3 L 252.64947,74.173372 a 23.316622,23.316622 0 0 0 13.56445,-1.66016 23.316622,23.316622 0 0 0 11.79492,-30.79296 23.316622,23.316622 0 0 0 -2.52734,-4.29102 l 88.05468,-97.30859 a 4.0066596,4.0066596 0 0 0 -2.85156,-6.73633 z" baseline-shift="baseline" clip-rule="nonzero" color="#000" color-interpolation="sRGB" color-interpolation-filters="linearRGB" color-rendering="auto" direction="ltr" display="inline" dominant-baseline="auto" enable-background="new" font-family="sans-serif" font-size="medium" font-stretch="normal" font-style="normal" font-variant="normal" font-weight="normal" image-rendering="auto" letter-spacing="normal" opacity=".2" overflow="visible" shape-rendering="auto" text-anchor="start" text-decoration="none" text-rendering="auto" visibility="visible" word-spacing="normal" writing-mode="lr-tb" style="line-height:normal;font-variant-ligatures:normal;font-variant-position:normal;font-variant-caps:normal;font-variant-numeric:normal;font-variant-alternates:normal;font-feature-settings:normal;text-indent:0;text-align:start;text-decoration-line:none;text-decoration-style:solid;text-decoration-color:#000;text-transform:none;text-orientation:mixed;white-space:normal;shape-padding:0;isolation:auto;mix-blend-mode:normal;solid-color:#000;solid-opacity:1"/><path id="path1080" fill="none" fill-rule="evenodd" stroke="url(#linearGradient1107)" stroke-linecap="round" stroke-linejoin="miter" stroke-opacity="1" stroke-width="16.025" d="m 257.59825,43.219122 -71.70243,-82.07255" display="inline" enable-background="new"/><path id="path1082" fill="none" fill-rule="evenodd" stroke="#fff" stroke-linecap="round" stroke-linejoin="miter" stroke-opacity="1" stroke-width="8.013" d="M 257.59825,43.219122 360.56552,-70.568338" display="inline" enable-background="new"/><path id="path1084" fill="none" fill-rule="evenodd" stroke="#5e3f7f" stroke-linecap="round" stroke-linejoin="miter" stroke-opacity="1" stroke-width="8.013" d="M 257.59825,43.219122 198.69983,189.06137" display="inline" enable-background="new"/><circle id="circle1086" cx="216.843" cy="144.046" r="23.317" fill="#d5d3cf" fill-opacity="1" fill-rule="nonzero" stroke="none" stroke-dasharray="none" stroke-dashoffset="0" stroke-linecap="round" stroke-linejoin="round" stroke-miterlimit="4" stroke-opacity="1" stroke-width="31.089" clip-rule="nonzero" color="#000" color-interpolation="sRGB" color-interpolation-filters="linearRGB" color-rendering="auto" display="inline" enable-background="accumulate" image-rendering="auto" opacity="1" overflow="visible" shape-rendering="auto" text-rendering="auto" transform="rotate(-24.039088)" visibility="visible" style="marker:none"/><circle id="circle1088" cx="257.032" cy="43.748" r="8.013" fill="#131c1a" fill-opacity="1" fill-rule="nonzero" stroke="none" stroke-dasharray="none" stroke-dashoffset="0" stroke-linecap="round" stroke-linejoin="round" stroke-miterlimit="4" stroke-opacity="1" stroke-width="32.05" clip-rule="nonzero" color="#000" color-interpolation="sRGB" color-interpolation-filters="linearRGB" color-rendering="auto" display="inline" enable-background="accumulate" image-rendering="auto" opacity="1" overflow="visible" shape-rendering="auto" text-rendering="auto" visibility="visible" style="marker:none"/><circle id="circle1090" cx="257.032" cy="43.748" r="8.013" fill="#131c1a" fill-opacity="1" fill-rule="nonzero" stroke="none" stroke-dasharray="none" stroke-dashoffset="0" stroke-linecap="round" stroke-linejoin="round" stroke-miterlimit="4" stroke-opacity="1" stroke-width="32.05" clip-rule="nonzero" color="#000" color-interpolation="sRGB" color-interpolation-filters="linearRGB" color-rendering="auto" display="inline" enable-background="accumulate" image-rendering="auto" opacity="1" overflow="visible" shape-rendering="auto" text-rendering="auto" visibility="visible" style="marker:none"/><path id="path1092" fill="#000" fill-opacity="1" stroke="none" stroke-dasharray="none" stroke-dashoffset="0" stroke-linecap="butt" stroke-linejoin="miter" stroke-miterlimit="4" stroke-opacity="1" stroke-width=".045" marker-end="none" marker-mid="none" marker-start="none" d="m 256.91509,-156.25241 a 200.00015,200.00015 0 0 0 -200,200.000002 200.00015,200.00015 0 0 0 0.16602,4.68555 200.00015,200.00015 0 0 1 199.83398,-196.685552 200.00015,200.00015 0 0 1 199.83398,195.318362 200.00015,200.00015 0 0 0 0.16602,-3.31836 200.00015,200.00015 0 0 0 -200,-200.000002 z" display="inline" enable-background="new" opacity=".1" paint-order="normal" style="marker:none"/></g><rect stroke-miterlimit="4" style="marker:none" id="rect978" width="112" height="114" x="8" y="179" fill="#d5d3cf" fill-opacity="1" stroke="none" stroke-dasharray="none" stroke-dashoffset="0" stroke-linecap="butt" stroke-linejoin="miter" stroke-opacity="1" stroke-width=".011" marker-end="none" marker-mid="none" marker-start="none" display="inline" enable-background="new" opacity="1" paint-order="normal" rx="56" ry="56"/><path id="path981" fill="#f6f5f4" fill-opacity="1" stroke="none" stroke-dasharray="none" stroke-dashoffset="0" stroke-linecap="butt" stroke-linejoin="miter" stroke-miterlimit="4" stroke-opacity="1" stroke-width=".011" marker-end="none" marker-mid="none" marker-start="none" d="M 123.99993,235 A 59.999995,59.999995 0 0 1 63.999945,294.99999 59.999995,59.999995 0 0 1 3.9999381,235 59.999995,59.999995 0 0 1 63.999945,175 59.999995,59.999995 0 0 1 123.99993,235 Z" display="inline" enable-background="new" opacity="1" paint-order="normal" style="marker:none"/><circle id="circle983" cx="64" cy="235" r="54" fill="#3d3846" fill-opacity="1" stroke="none" stroke-dasharray="none" stroke-dashoffset="0" stroke-linecap="butt" stroke-linejoin="miter" stroke-miterlimit="4" stroke-opacity="1" stroke-width=".011" marker-end="none" marker-mid="none" marker-start="none" display="inline" enable-background="new" opacity="1" paint-order="normal" style="marker:none"/><path id="path928" fill="#000" fill-opacity="1" fill-rule="evenodd" stroke="none" stroke-dasharray="none" stroke-dashoffset="0" stroke-linecap="round" stroke-linejoin="miter" stroke-miterlimit="4" stroke-opacity="1" stroke-width="4.006" d="m 90.034858,207.99195 a 1.0016649,1.0016649 0 0 0 -0.77686,0.33008 L 67.283393,231.98707 A 5.9999995,5.9999995 0 0 0 61.70136,231.46461 L 47.480658,215.66382 a 2.0033298,2.0033298 0 0 0 -1.603515,-0.68212 2.0033298,2.0033298 0 0 0 -1.374025,3.36181 l 14.21924,15.79932 a 5.9999995,5.9999995 0 0 0 -0.209963,5.30517 5.9999995,5.9999995 0 0 0 2.404298,2.69922 l -11.8584,30.49366 a 1.0016649,1.0016649 0 1 0 1.86719,0.72558 l 11.85742,-30.49121 a 5.9999995,5.9999995 0 0 0 3.65332,-0.39209 5.9999995,5.9999995 0 0 0 3.035157,-7.92383 5.9999995,5.9999995 0 0 0 -0.725097,-1.2041 l 21.979495,-23.66992 a 1.0016649,1.0016649 0 0 0 -0.69092,-1.69336 z" baseline-shift="baseline" clip-rule="nonzero" color="#000" color-interpolation="sRGB" color-interpolation-filters="linearRGB" color-rendering="auto" direction="ltr" display="inline" dominant-baseline="auto" enable-background="new" font-family="sans-serif" font-size="medium" font-stretch="normal" font-style="normal" font-variant="normal" font-weight="normal" image-rendering="auto" letter-spacing="normal" opacity=".2" overflow="visible" shape-rendering="auto" text-anchor="start" text-decoration="none" text-rendering="auto" visibility="visible" word-spacing="normal" writing-mode="lr-tb" style="line-height:normal;font-variant-ligatures:normal;font-variant-position:normal;font-variant-caps:normal;font-variant-numeric:normal;font-variant-alternates:normal;font-feature-settings:normal;text-indent:0;text-align:start;text-decoration-line:none;text-decoration-style:solid;text-decoration-color:#000;text-transform:none;text-orientation:mixed;white-space:normal;shape-padding:0;isolation:auto;mix-blend-mode:normal;solid-color:#000;solid-opacity:1"/><path id="path987" fill="#c0bfbc" fill-rule="evenodd" stroke="url(#linearGradient1001)" stroke-linecap="round" stroke-linejoin="miter" stroke-opacity="1" stroke-width="4.006" d="m 64.000045,235 -18,-20" display="inline" enable-background="new"/><path id="path989" fill="none" fill-rule="evenodd" stroke="#fff" stroke-linecap="round" stroke-linejoin="miter" stroke-opacity="1" stroke-width="2.003" d="M 64.000045,235 90.000048,207" display="inline" enable-background="new"/><path id="path991" fill="none" fill-rule="evenodd" stroke="#ed333b" stroke-linecap="round" stroke-linejoin="miter" stroke-opacity="1" stroke-width="2.003" d="m 64.000045,235 -14,36" display="inline" enable-background="new"/><circle id="circle993" cx="-37.28" cy="240.689" r="6" fill="#d5d3cf" fill-opacity="1" fill-rule="nonzero" stroke="none" stroke-dasharray="none" stroke-dashoffset="0" stroke-linecap="round" stroke-linejoin="round" stroke-miterlimit="4" stroke-opacity="1" stroke-width="7.772" clip-rule="nonzero" color="#000" color-interpolation="sRGB" color-interpolation-filters="linearRGB" color-rendering="auto" display="inline" enable-background="accumulate" image-rendering="auto" opacity="1" overflow="visible" shape-rendering="auto" text-rendering="auto" transform="rotate(-24.039088)" visibility="visible" style="marker:none"/><circle id="circle995" cx="64.029" cy="235" r="2.003" fill="#131c1a" fill-opacity="1" fill-rule="nonzero" stroke="none" stroke-dasharray="none" stroke-dashoffset="0" stroke-linecap="round" stroke-linejoin="round" stroke-miterlimit="4" stroke-opacity="1" stroke-width="8.013" clip-rule="nonzero" color="#000" color-interpolation="sRGB" color-interpolation-filters="linearRGB" color-rendering="auto" display="inline" enable-background="accumulate" image-rendering="auto" opacity="1" overflow="visible" shape-rendering="auto" text-rendering="auto" visibility="visible" style="marker:none"/><circle id="circle997" cx="64.029" cy="235" r="2" fill="#131c1a" fill-opacity="1" fill-rule="nonzero" stroke="none" stroke-dasharray="none" stroke-dashoffset="0" stroke-linecap="round" stroke-linejoin="round" stroke-miterlimit="4" stroke-opacity="1" stroke-width="8.013" clip-rule="nonzero" color="#000" color-interpolation="sRGB" color-interpolation-filters="linearRGB" color-rendering="auto" display="inline" enable-background="accumulate" image-rendering="auto" opacity="1" overflow="visible" shape-rendering="auto" text-rendering="auto" visibility="visible" style="marker:none"/><path id="circle1003" fill="#000" fill-opacity="1" stroke="none" stroke-dasharray="none" stroke-dashoffset="0" stroke-linecap="butt" stroke-linejoin="miter" stroke-miterlimit="4" stroke-opacity="1" stroke-width=".011" marker-end="none" marker-mid="none" marker-start="none" d="m 64.000045,181 a 54,54 0 0 0 -54,54 54,54 0 0 0 0.0415,1.1709 A 54,54 0 0 1 64.000045,183 54,54 0 0 1 117.95854,235.82813 54,54 0 0 0 118.00004,235 54,54 0 0 0 64.000035,181 Z" display="inline" enable-background="new" opacity=".1" paint-order="normal" style="marker:none"/></g></g></svg>