<svg xmlns="http://www.w3.org/2000/svg" xmlns:svg="http://www.w3.org/2000/svg" xmlns:xlink="http://www.w3.org/1999/xlink" id="svg11300" width="128" height="128" display="inline" enable-background="new" version="1.0" viewBox="0 0 128 128"><title id="title4162">Adwaita Icon Template</title><defs id="defs3"><linearGradient id="linearGradient1053" x1="384" x2="416" y1="120" y2="120" gradientTransform="matrix(0.25,0,0,0.25,12.000001,221)" gradientUnits="userSpaceOnUse" xlink:href="#linearGradient1879"/><linearGradient id="linearGradient1879"><stop id="stop1873" offset="0" stop-color="#e8e7e4" stop-opacity="1"/><stop id="stop1875" offset=".511" stop-color="#fff" stop-opacity="1"/><stop id="stop1877" offset="1" stop-color="#c2bfba" stop-opacity="1"/></linearGradient></defs><metadata id="metadata4"/><g id="layer1" display="inline" transform="translate(0,-172)"><g id="layer2" display="none"><text id="context" x="7.95" y="148.652" fill="#000" fill-opacity="1" stroke="none" stroke-width=".333" display="inline" enable-background="new" font-family="Cantarell" font-size="5.333" font-stretch="normal" font-style="normal" font-variant="normal" font-weight="normal" text-anchor="start" writing-mode="lr-tb" xml:space="preserve" style="line-height:125%;-inkscape-font-specification:'Cantarell, Normal';text-align:start"><tspan id="tspan2716" x="7.95" y="148.652" stroke-width=".333" font-size="5.333">apps</tspan></text><text id="text3021" x="7.753" y="157.234" fill="#000" fill-opacity="1" stroke="none" stroke-width=".333" display="inline" enable-background="new" font-family="Cantarell" font-size="5.333" font-stretch="normal" font-style="normal" font-variant="normal" font-weight="bold" text-anchor="start" writing-mode="lr-tb" xml:space="preserve" style="line-height:125%;-inkscape-font-specification:'Cantarell, Bold';text-align:start"><tspan id="tspan3023" x="7.753" y="157.234" stroke-width=".333" font-size="5.333">org.gnome.IconBrowser</tspan></text><rect id="rect13805" width="128" height="128" x="0" y="172" fill="#f0f0f0" fill-opacity="1" fill-rule="nonzero" stroke="none" stroke-width=".5" display="inline" enable-background="accumulate" overflow="visible" visibility="visible" style="marker:none"/><g id="g1168" transform="matrix(0.25,0,0,0.25,6.9488522e-8,225)"><circle id="path1142" cx="256" cy="44" r="240" fill="#2864b0" fill-opacity="1" stroke="none" stroke-dasharray="none" stroke-dashoffset="0" stroke-linecap="butt" stroke-linejoin="miter" stroke-miterlimit="4" stroke-opacity="1" stroke-width="1" marker-end="none" marker-mid="none" marker-start="none" opacity=".1" paint-order="normal" style="marker:none"/><rect id="rect1110" width="320" height="448" x="96" y="-180" fill="#2864b0" fill-opacity="1" stroke="none" stroke-dasharray="none" stroke-dashoffset="0" stroke-linecap="butt" stroke-linejoin="miter" stroke-miterlimit="4" stroke-opacity="1" stroke-width="1" marker-end="none" marker-mid="none" marker-start="none" opacity=".1" paint-order="normal" rx="32" ry="32" style="marker:none"/><rect stroke-miterlimit="4" style="marker:none" id="rect1110-8" width="416" height="416" x="48" y="-164" fill="#2864b0" fill-opacity="1" stroke="none" stroke-dasharray="none" stroke-dashoffset="0" stroke-linecap="butt" stroke-linejoin="miter" stroke-opacity="1" stroke-width="1" marker-end="none" marker-mid="none" marker-start="none" display="inline" enable-background="new" opacity=".1" paint-order="normal" rx="32" ry="32"/><rect stroke-miterlimit="4" style="marker:none" id="rect1110-8-9" width="448" height="320" x="32" y="-116" fill="#2864b0" fill-opacity="1" stroke="none" stroke-dasharray="none" stroke-dashoffset="0" stroke-linecap="butt" stroke-linejoin="miter" stroke-opacity="1" stroke-width="1" marker-end="none" marker-mid="none" marker-start="none" display="inline" enable-background="new" opacity=".1" paint-order="normal" rx="32" ry="32"/></g></g><g id="layer9" display="inline"><path id="rect970" fill="#63452c" fill-opacity="1" stroke="none" stroke-dasharray="none" stroke-linejoin="round" stroke-miterlimit="4" stroke-opacity="1" stroke-width=".377" d="m 12,32 v 84 h 96 c 4.432,0 8,-3.568 8,-8 V 40 c 0,-4.432 -3.568,-8 -8,-8 z" display="inline" enable-background="new" opacity="1" transform="translate(0,172)"/><path id="rect954-3-6" fill="url(#linearGradient1053)" fill-opacity="1" stroke="none" stroke-dasharray="none" stroke-dashoffset="0" stroke-linecap="butt" stroke-linejoin="miter" stroke-miterlimit="4" stroke-opacity="1" stroke-width="6" marker-end="none" marker-mid="none" marker-start="none" d="m 14.000001,216 v 70 H 108 c 4.432,0 8,-3.568 8,-8 v -54 c 0,-4.432 -3.568,-8 -8,-8 z" display="inline" enable-background="new" opacity="1" paint-order="normal" style="marker:none"/><path id="rect970-5-3" fill="#63452c" fill-opacity="1" stroke="none" stroke-dasharray="none" stroke-linejoin="round" stroke-miterlimit="4" stroke-opacity="1" stroke-width=".377" d="m 12,206 v 74 h 96 c 4.432,0 8,-3.568 8,-8 v -58 c 0,-4.432 -3.568,-8 -8,-8 z" display="inline" enable-background="new" opacity="1"/><path id="rect970-5" fill="#865e3c" fill-opacity="1" stroke="none" stroke-dasharray="none" stroke-linejoin="round" stroke-miterlimit="4" stroke-opacity="1" stroke-width=".377" d="m 12,184 v 94 h 96 c 4.432,0 8,-3.568 8,-8 v -78 c 0,-4.432 -3.568,-8 -8,-8 z" display="inline" enable-background="new" opacity="1"/><g id="g907" fill="#63452c" fill-opacity="1"><path id="path1079-3" fill="#63452c" fill-opacity="1" fill-rule="nonzero" stroke="none" stroke-dasharray="none" stroke-dashoffset="0" stroke-linecap="butt" stroke-linejoin="miter" stroke-miterlimit="4" stroke-opacity="1" stroke-width="2" d="m 39,198.00759 c -2.76142,0 -5,2.23858 -5,5 0,2.76142 2.23858,5 5,5 0.89216,0 1.71236,-0.27804 2.4375,-0.6875 l 3.9375,3.6875 -3.9375,3.6875 c -0.72514,-0.40946 -1.54534,-0.6875 -2.4375,-0.6875 -2.76142,0 -5,2.23858 -5,5 0,2.76142 2.23858,5 5,5 2.76142,0 5,-2.23858 5,-5 0,-0.45832 -0.072,-0.89082 -0.1874,-1.3125 l 4.25,-4.125 8.9374,8.4375 h 3 v -2 l -16.1875,-15.6875 c 0.1156,-0.42168 0.1874,-0.85418 0.1874,-1.3125 0,-2.76142 -2.23858,-5 -5,-5 z m 0,3 c 1.10456,0 2,0.89544 2,2 0,1.10456 -0.89544,2 -2,2 -1.10456,0 -2,-0.89544 -2,-2 0,-1.10456 0.89544,-2 2,-2 z m 18,-1 -7.875,7.4375 2.625,2.5625 8.25,-8 v -2 z m -18,17 c 1.10456,0 2,0.89544 2,2 0,1.10456 -0.89544,2 -2,2 -1.10456,0 -2,-0.89544 -2,-2 0,-1.10456 0.89544,-2 2,-2 z" clip-rule="nonzero" color="#000" color-interpolation="sRGB" color-interpolation-filters="linearRGB" color-rendering="auto" display="inline" enable-background="accumulate" image-rendering="auto" opacity="1" overflow="visible" shape-rendering="auto" text-rendering="auto" visibility="visible" style="isolation:auto;mix-blend-mode:normal;solid-color:#000;solid-opacity:1"/><path color="#bebebe" style="marker:none" id="path1039-2" fill="#63452c" fill-opacity="1" fill-rule="nonzero" stroke="none" stroke-width="1.5" d="m 94.00003,233.99376 v 2.96142 c 2.52932,3.03856 4,6.43874 4,11.03858 0,4.59984 -1.55906,8.00001 -4,11.03857 v 2.96143 h 2.762695 c 2.9315,-3.28088 5.237305,-8.37156 5.237305,-14 0,-5.62844 -1.99976,-10.34346 -5.170897,-14 z m -11.09375,1.99951 -5.9375,5.99951 h -4.96875 v 11.99902 h 4.96875 l 6.080568,6.00147 0.950682,-0.002 v -23.9985 z m 7.09375,2.00049 v 4 c 1.21304,1.57756 2,3.51774 2,6 0,2.48226 -0.78696,4.43876 -2,6 v 4 h 2 c 2.4458,-1.98956 4,-5.7468 4,-10 0,-4.33328 -1.47756,-8.03964 -4,-10 z m -4,4 v 12 h 2 c 1.34412,-1.6738 2,-3.48534 2,-6 0,-2.51466 -0.6233,-4.43142 -2,-6 z" display="inline" enable-background="new" overflow="visible" transform="translate(-2,2)" visibility="visible"/><path id="path1061-7" fill="#63452c" fill-opacity="1" fill-rule="nonzero" stroke="none" stroke-dasharray="none" stroke-dashoffset="0" stroke-linecap="round" stroke-linejoin="round" stroke-miterlimit="4" stroke-opacity="1" stroke-width="3.994" d="m 86.021092,196.03759 a 1.9973018,1.9973018 0 0 0 -1.197263,0.37061 l -13.980114,9.98535 a 1.9980483,1.9980483 0 0 0 -0.834989,1.62646 v 0 1.99706 H 71.9565 a 1.9980483,1.9980483 0 0 0 0.02396,0 h 0.02397 v -5e-4 a 1.9980483,1.9980483 0 0 0 1.161115,-0.36962 l 0.834988,-0.59668 v 10.95263 a 1.9973018,1.9973018 0 0 0 1.997102,1.99708 h 5.991706 5.991706 7.987809 a 1.9973018,1.9973018 0 0 0 1.997102,-1.99708 v -10.95506 l 0.838383,0.59911 a 1.9980483,1.9980483 0 0 0 1.159118,0.37012 h 1.997501 v -1.96924 a 1.9980483,1.9980483 0 0 0 -0.83598,-1.6543 l -13.979521,-9.98535 a 1.9973018,1.9973018 0 0 0 -1.12337,-0.37061 z m -0.03794,4.45069 7.988208,5.70654 v 11.81104 h -5.990707 v -7.98879 h -5.991706 v 7.98879 h -3.994603 v -11.80959 z" baseline-shift="baseline" clip-rule="nonzero" color="#000" color-interpolation="sRGB" color-interpolation-filters="linearRGB" color-rendering="auto" direction="ltr" display="inline" dominant-baseline="auto" enable-background="accumulate" font-family="sans-serif" font-size="medium" font-stretch="normal" font-style="normal" font-variant="normal" font-weight="normal" image-rendering="auto" letter-spacing="normal" opacity="1" overflow="visible" shape-rendering="auto" text-anchor="start" text-decoration="none" text-rendering="auto" vector-effect="none" visibility="visible" word-spacing="normal" writing-mode="lr-tb" style="line-height:normal;font-variant-ligatures:normal;font-variant-position:normal;font-variant-caps:normal;font-variant-numeric:normal;font-variant-alternates:normal;font-feature-settings:normal;text-indent:0;text-align:start;text-decoration-line:none;text-decoration-style:solid;text-decoration-color:#000;text-transform:none;text-orientation:mixed;white-space:normal;shape-padding:0;isolation:auto;mix-blend-mode:normal;solid-color:#000;solid-opacity:1"/><path id="rect5922-7-6" fill="#63452c" fill-opacity="1" stroke="none" stroke-width="2" d="m 56.0625,235.99999 c 1.06806,0 1.9375,0.85398 1.9375,1.9375 v 0.125 c -0.03428,13.22562 -10.76634,23.9375 -24,23.9375 h -0.0624 c -1.08966,0 -1.9376,-0.892 -1.9376,-2 v -2 -4 c 0,-1.108 0.892,-2 2,-2 h 4 c 1.108,0 2,0.892 2,2 v 0.9375 c 5.11372,-1.80776 9.12974,-5.82378 10.9375,-10.9375 H 50 c -1.10802,0 -2,-0.89198 -2,-2 v -4 c 0,-1.10802 0.89198,-2 2,-2 h 2 2 1.9375 0.0624 0.0624 z" opacity="1"/></g><g id="g926" fill="#f6f5f4" display="inline" transform="translate(-2,2)"><path id="path1039" fill="#f6f5f4" fill-opacity="1" fill-rule="nonzero" stroke="none" stroke-width="1.5" d="m 93.999998,235.99376 v 2.96142 c 2.52932,3.03856 4,6.43874 4,11.03858 0,4.59984 -1.55906,8.00001 -4,11.03857 v 2.96143 h 2.762695 c 2.9315,-3.28088 5.237307,-8.37156 5.237307,-14 0,-5.62844 -1.99976,-10.34346 -5.170899,-14 z m -11.09375,1.99951 -5.9375,5.99951 h -4.96875 v 11.99902 h 4.96875 l 6.080568,6.00147 0.950682,-0.002 v -23.9985 z m 7.09375,2.00049 v 4 c 1.21304,1.57756 2,3.51774 2,6 0,2.48226 -0.78696,4.43876 -2,6 v 4 h 2 c 2.4458,-1.98956 4,-5.7468 4,-10 0,-4.33328 -1.47756,-8.03964 -4,-10 z m -4,4 v 12 h 2 c 1.34412,-1.6738 2,-3.48534 2,-6 0,-2.51466 -0.6233,-4.43142 -2,-6 z" color="#bebebe" display="inline" overflow="visible" visibility="visible" style="marker:none"/></g><path id="rect5922-7" fill="#f6f5f4" fill-opacity="1" stroke="none" stroke-width="2" d="m 56.0625,237.99999 c 1.06806,0 1.9375,0.85398 1.9375,1.9375 v 0.125 c -0.03428,13.22562 -10.76634,23.9375 -24,23.9375 h -0.0624 c -1.08966,0 -1.9376,-0.892 -1.9376,-2 v -2 -4 c 0,-1.108 0.892,-2 2,-2 h 4 c 1.108,0 2,0.892 2,2 v 0.9375 c 5.11372,-1.80776 9.12974,-5.82378 10.9375,-10.9375 H 50 c -1.10802,0 -2,-0.89198 -2,-2 v -4 c 0,-1.10802 0.89198,-2 2,-2 h 2 2 1.9375 0.0624 0.0624 z" opacity="1"/><g id="g904" fill="#f6f5f4" transform="translate(2,2)"><path id="path1079" fill="#f6f5f4" fill-opacity="1" fill-rule="nonzero" stroke="none" stroke-dasharray="none" stroke-dashoffset="0" stroke-linecap="butt" stroke-linejoin="miter" stroke-miterlimit="4" stroke-opacity="1" stroke-width="2" d="m 37,198.00759 c -2.76142,0 -5,2.23858 -5,5 0,2.76142 2.23858,5 5,5 0.89216,0 1.71236,-0.27804 2.4375,-0.6875 l 3.9375,3.6875 -3.9375,3.6875 c -0.72514,-0.40946 -1.54534,-0.6875 -2.4375,-0.6875 -2.76142,0 -5,2.23858 -5,5 0,2.76142 2.23858,5 5,5 2.76142,0 5,-2.23858 5,-5 0,-0.45832 -0.072,-0.89082 -0.1874,-1.3125 l 4.25,-4.125 8.9374,8.4375 h 3 v -2 l -16.1875,-15.6875 c 0.1156,-0.42168 0.1874,-0.85418 0.1874,-1.3125 0,-2.76142 -2.23858,-5 -5,-5 z m 0,3 c 1.10456,0 2,0.89544 2,2 0,1.10456 -0.89544,2 -2,2 -1.10456,0 -2,-0.89544 -2,-2 0,-1.10456 0.89544,-2 2,-2 z m 18,-1 -7.875,7.4375 2.625,2.5625 8.25,-8 v -2 z m -18,17 c 1.10456,0 2,0.89544 2,2 0,1.10456 -0.89544,2 -2,2 -1.10456,0 -2,-0.89544 -2,-2 0,-1.10456 0.89544,-2 2,-2 z" clip-rule="nonzero" color="#000" color-interpolation="sRGB" color-interpolation-filters="linearRGB" color-rendering="auto" display="inline" enable-background="accumulate" image-rendering="auto" opacity="1" overflow="visible" shape-rendering="auto" text-rendering="auto" visibility="visible" style="isolation:auto;mix-blend-mode:normal;solid-color:#000;solid-opacity:1"/></g><g id="g943" fill="#f6f5f4" transform="translate(-2,2)"><g id="g1075" fill="#f6f5f4" display="inline" transform="matrix(1.9971021,0,0,1.9971021,-726.8351,277.91882)"><path id="path1061" fill="#f6f5f4" fill-opacity="1" fill-rule="nonzero" stroke="none" stroke-dasharray="none" stroke-dashoffset="0" stroke-linecap="round" stroke-linejoin="round" stroke-miterlimit="4" stroke-opacity="1" stroke-width="2" d="m 408.01922,-41.000014 a 1.0001,1.0001 0 0 0 -0.5995,0.185571 l -7.00013,4.999921 a 1.0004738,1.0004738 0 0 0 -0.41809,0.814413 h -0.001 v 0.999984 h 0.97529 a 1.0004738,1.0004738 0 0 0 0.0125,0 h 0.0125 v -2.51e-4 a 1.0004738,1.0004738 0 0 0 0.58141,-0.185082 l 0.41809,-0.298773 v 5.484265 a 1.0001,1.0001 0 0 0 0.99998,0.999984 h 3.0002 3.00019 3.9997 a 1.0001,1.0001 0 0 0 0.99998,-0.999984 v -5.485488 l 0.4198,0.299996 a 1.0004738,1.0004738 0 0 0 0.58043,0.185328 h 1.00023 v -0.986049 a 1.0004738,1.0004738 0 0 0 -0.41858,-0.828348 l -6.99989,-4.999921 a 1.0001,1.0001 0 0 0 -0.56258,-0.185571 z m -0.0193,2.22857 3.99993,2.857412 v 5.914088 h -2.9997 v -4.000181 h -3.0002 v 4.000181 h -2.00021 v -5.913355 z" baseline-shift="baseline" clip-rule="nonzero" color="#000" color-interpolation="sRGB" color-interpolation-filters="linearRGB" color-rendering="auto" direction="ltr" display="inline" dominant-baseline="auto" enable-background="accumulate" font-family="sans-serif" font-size="medium" font-stretch="normal" font-style="normal" font-variant="normal" font-weight="normal" image-rendering="auto" letter-spacing="normal" opacity="1" overflow="visible" shape-rendering="auto" text-anchor="start" text-decoration="none" text-rendering="auto" vector-effect="none" visibility="visible" word-spacing="normal" writing-mode="lr-tb" style="line-height:normal;font-variant-ligatures:normal;font-variant-position:normal;font-variant-caps:normal;font-variant-numeric:normal;font-variant-alternates:normal;font-feature-settings:normal;text-indent:0;text-align:start;text-decoration-line:none;text-decoration-style:solid;text-decoration-color:#000;text-transform:none;text-orientation:mixed;white-space:normal;shape-padding:0;isolation:auto;mix-blend-mode:normal;solid-color:#000;solid-opacity:1"/></g></g><rect id="rect1073" width="8" height="94" x="12" y="184" fill="#3d3846" fill-opacity="1" stroke="none" stroke-dasharray="none" stroke-dashoffset="0" stroke-linecap="round" stroke-linejoin="round" stroke-miterlimit="4" stroke-opacity="1" stroke-width="4" display="inline" enable-background="new" opacity="1"/><path id="rect1201" fill="#241f31" fill-opacity="1" stroke="none" stroke-dasharray="none" stroke-dashoffset="0" stroke-linecap="round" stroke-linejoin="round" stroke-miterlimit="4" stroke-opacity="1" stroke-width="4" d="m 12,278.00001 v 10 h 8 v -2 h -6 v -6 h 6 v -2 z" display="inline" enable-background="new" opacity="1"/><path id="path1217" fill="none" fill-rule="evenodd" stroke="#fff" stroke-dasharray="none" stroke-linecap="butt" stroke-linejoin="miter" stroke-miterlimit="4" stroke-opacity="1" stroke-width="2" d="m 15,278.00001 v -94" display="inline" enable-background="new" opacity=".15"/></g></g></svg>