<svg xmlns="http://www.w3.org/2000/svg" xmlns:svg="http://www.w3.org/2000/svg" xmlns:xlink="http://www.w3.org/1999/xlink" id="svg11300" width="128" height="128" display="inline" enable-background="new" version="1.0" viewBox="0 0 128 128"><title id="title4162">Adwaita Icon Template</title><defs id="defs3"><linearGradient id="linearGradient1149"><stop id="stop1137" offset="0" stop-color="#3584e4" stop-opacity="1"/><stop id="stop1139" offset=".038" stop-color="#62a0ea" stop-opacity="1"/><stop id="stop1141" offset=".077" stop-color="#1c71d8" stop-opacity="1"/><stop id="stop1143" offset=".923" stop-color="#1c71d8" stop-opacity="1"/><stop id="stop1145" offset=".962" stop-color="#62a0ea" stop-opacity="1"/><stop id="stop1147" offset="1" stop-color="#1c71d8" stop-opacity="1"/></linearGradient><linearGradient id="linearGradient1125"><stop id="stop1113" offset="0" stop-color="#3584e4" stop-opacity="1"/><stop id="stop1115" offset=".042" stop-color="#62a0ea" stop-opacity="1"/><stop id="stop1117" offset=".083" stop-color="#1c71d8" stop-opacity="1"/><stop id="stop1119" offset=".917" stop-color="#1c71d8" stop-opacity="1"/><stop id="stop1121" offset=".958" stop-color="#62a0ea" stop-opacity="1"/><stop id="stop1123" offset="1" stop-color="#1c71d8" stop-opacity="1"/></linearGradient><linearGradient id="linearGradient1071"><stop id="stop1059" offset="0" stop-color="#3584e4" stop-opacity="1"/><stop id="stop1061" offset=".042" stop-color="#98c1f1" stop-opacity="1"/><stop id="stop1063" offset=".083" stop-color="#62a0ea" stop-opacity="1"/><stop id="stop1065" offset=".917" stop-color="#62a0ea" stop-opacity="1"/><stop id="stop1067" offset=".958" stop-color="#98c1f1" stop-opacity="1"/><stop id="stop1069" offset="1" stop-color="#3584e4" stop-opacity="1"/></linearGradient><linearGradient id="linearGradient1014"><stop id="stop1010" offset="0" stop-color="#bbdef9" stop-opacity="1"/><stop id="stop1012" offset="1" stop-color="#deeffb" stop-opacity="1"/></linearGradient><linearGradient id="linearGradient898"><stop id="stop894" offset="0" stop-color="#fed5ae" stop-opacity="1"/><stop id="stop896" offset="1" stop-color="#feddbe" stop-opacity="1"/></linearGradient><linearGradient id="linearGradient1494"><stop id="stop1490" offset="0" stop-color="#babdb6" stop-opacity="1"/><stop id="stop1492" offset="1" stop-color="#babdb6" stop-opacity="0"/></linearGradient><linearGradient id="linearGradient1496" x1="280" x2="280" y1="172" y2="20" gradientUnits="userSpaceOnUse" xlink:href="#linearGradient1494"/><clipPath id="clipPath940" clipPathUnits="userSpaceOnUse"><rect id="rect942" width="126.999" height="31.75" x="140.6" y="436.167" fill="#000" fill-opacity="1" stroke="none" stroke-dasharray="none" stroke-dashoffset="0" stroke-linecap="butt" stroke-linejoin="miter" stroke-miterlimit="4" stroke-opacity="1" stroke-width="4.233" marker-end="none" marker-mid="none" marker-start="none" opacity=".1" paint-order="normal" rx="8.467" ry="8.467" style="marker:none"/></clipPath><clipPath id="clipPath920" clipPathUnits="userSpaceOnUse"><rect id="rect922" width="126.999" height="31.75" x="140.6" y="250.923" fill="#000" fill-opacity="1" stroke="none" stroke-dasharray="none" stroke-dashoffset="0" stroke-linecap="butt" stroke-linejoin="miter" stroke-miterlimit="4" stroke-opacity="1" stroke-width="4.233" marker-end="none" marker-mid="none" marker-start="none" opacity=".1" paint-order="normal" rx="8.467" ry="8.467" style="marker:none"/></clipPath><clipPath id="clipPath936" clipPathUnits="userSpaceOnUse"><rect id="rect938" width="126.999" height="31.75" x="140.6" y="399.468" fill="#000" fill-opacity="1" stroke="none" stroke-dasharray="none" stroke-dashoffset="0" stroke-linecap="butt" stroke-linejoin="miter" stroke-miterlimit="4" stroke-opacity="1" stroke-width="4.233" marker-end="none" marker-mid="none" marker-start="none" opacity=".1" paint-order="normal" rx="8.467" ry="8.467" style="marker:none"/></clipPath><clipPath id="clipPath898" clipPathUnits="userSpaceOnUse"><rect id="rect900" width="126.999" height="31.75" x="140.6" y="214.223" fill="#000" fill-opacity="1" stroke="none" stroke-dasharray="none" stroke-dashoffset="0" stroke-linecap="butt" stroke-linejoin="miter" stroke-miterlimit="4" stroke-opacity="1" stroke-width="4.233" marker-end="none" marker-mid="none" marker-start="none" opacity=".1" paint-order="normal" rx="8.467" ry="8.467" style="marker:none"/></clipPath><clipPath id="clipPath924" clipPathUnits="userSpaceOnUse"><rect id="rect926" width="126.999" height="31.75" x="140.6" y="288.205" fill="#000" fill-opacity="1" stroke="none" stroke-dasharray="none" stroke-dashoffset="0" stroke-linecap="butt" stroke-linejoin="miter" stroke-miterlimit="4" stroke-opacity="1" stroke-width="4.233" marker-end="none" marker-mid="none" marker-start="none" opacity=".1" paint-order="normal" rx="8.467" ry="8.467" style="marker:none"/></clipPath><clipPath id="clipPath928" clipPathUnits="userSpaceOnUse"><rect id="rect930" width="126.999" height="31.75" x="140.6" y="324.904" fill="#000" fill-opacity="1" stroke="none" stroke-dasharray="none" stroke-dashoffset="0" stroke-linecap="butt" stroke-linejoin="miter" stroke-miterlimit="4" stroke-opacity="1" stroke-width="4.233" marker-end="none" marker-mid="none" marker-start="none" opacity=".1" paint-order="normal" rx="8.467" ry="8.467" style="marker:none"/></clipPath><clipPath id="clipPath932" clipPathUnits="userSpaceOnUse"><rect id="rect934" width="126.999" height="31.75" x="140.6" y="362.186" fill="#000" fill-opacity="1" stroke="none" stroke-dasharray="none" stroke-dashoffset="0" stroke-linecap="butt" stroke-linejoin="miter" stroke-miterlimit="4" stroke-opacity="1" stroke-width="4.233" marker-end="none" marker-mid="none" marker-start="none" opacity=".1" paint-order="normal" rx="8.467" ry="8.467" style="marker:none"/></clipPath><clipPath id="clipPath944" clipPathUnits="userSpaceOnUse"><rect id="rect946" width="253.868" height="31.75" x="140.6" y="473.449" fill="#000" fill-opacity="1" stroke="none" stroke-dasharray="none" stroke-dashoffset="0" stroke-linecap="butt" stroke-linejoin="miter" stroke-miterlimit="4" stroke-opacity="1" stroke-width="4.233" marker-end="none" marker-mid="none" marker-start="none" opacity=".1" paint-order="normal" rx="8.467" ry="8.467" style="marker:none"/></clipPath><clipPath id="clipPath898-3" clipPathUnits="userSpaceOnUse"><rect id="rect900-6" width="126.999" height="31.75" x="140.6" y="214.223" fill="#000" fill-opacity="1" stroke="none" stroke-dasharray="none" stroke-dashoffset="0" stroke-linecap="butt" stroke-linejoin="miter" stroke-miterlimit="4" stroke-opacity="1" stroke-width="4.233" marker-end="none" marker-mid="none" marker-start="none" opacity=".1" paint-order="normal" rx="8.467" ry="8.467" style="marker:none"/></clipPath><clipPath id="clipPath920-7" clipPathUnits="userSpaceOnUse"><rect id="rect922-5" width="126.999" height="31.75" x="140.6" y="250.923" fill="#000" fill-opacity="1" stroke="none" stroke-dasharray="none" stroke-dashoffset="0" stroke-linecap="butt" stroke-linejoin="miter" stroke-miterlimit="4" stroke-opacity="1" stroke-width="4.233" marker-end="none" marker-mid="none" marker-start="none" opacity=".1" paint-order="normal" rx="8.467" ry="8.467" style="marker:none"/></clipPath><clipPath id="clipPath924-3" clipPathUnits="userSpaceOnUse"><rect id="rect926-5" width="126.999" height="31.75" x="140.6" y="288.205" fill="#000" fill-opacity="1" stroke="none" stroke-dasharray="none" stroke-dashoffset="0" stroke-linecap="butt" stroke-linejoin="miter" stroke-miterlimit="4" stroke-opacity="1" stroke-width="4.233" marker-end="none" marker-mid="none" marker-start="none" opacity=".1" paint-order="normal" rx="8.467" ry="8.467" style="marker:none"/></clipPath><clipPath id="clipPath928-6" clipPathUnits="userSpaceOnUse"><rect id="rect930-2" width="126.999" height="31.75" x="140.6" y="324.904" fill="#000" fill-opacity="1" stroke="none" stroke-dasharray="none" stroke-dashoffset="0" stroke-linecap="butt" stroke-linejoin="miter" stroke-miterlimit="4" stroke-opacity="1" stroke-width="4.233" marker-end="none" marker-mid="none" marker-start="none" opacity=".1" paint-order="normal" rx="8.467" ry="8.467" style="marker:none"/></clipPath><clipPath id="clipPath932-9" clipPathUnits="userSpaceOnUse"><rect id="rect934-1" width="126.999" height="31.75" x="140.6" y="362.186" fill="#000" fill-opacity="1" stroke="none" stroke-dasharray="none" stroke-dashoffset="0" stroke-linecap="butt" stroke-linejoin="miter" stroke-miterlimit="4" stroke-opacity="1" stroke-width="4.233" marker-end="none" marker-mid="none" marker-start="none" opacity=".1" paint-order="normal" rx="8.467" ry="8.467" style="marker:none"/></clipPath><clipPath id="clipPath936-2" clipPathUnits="userSpaceOnUse"><rect id="rect938-7" width="126.999" height="31.75" x="140.6" y="399.468" fill="#000" fill-opacity="1" stroke="none" stroke-dasharray="none" stroke-dashoffset="0" stroke-linecap="butt" stroke-linejoin="miter" stroke-miterlimit="4" stroke-opacity="1" stroke-width="4.233" marker-end="none" marker-mid="none" marker-start="none" opacity=".1" paint-order="normal" rx="8.467" ry="8.467" style="marker:none"/></clipPath><clipPath id="clipPath940-0" clipPathUnits="userSpaceOnUse"><rect id="rect942-9" width="126.999" height="31.75" x="140.6" y="436.167" fill="#000" fill-opacity="1" stroke="none" stroke-dasharray="none" stroke-dashoffset="0" stroke-linecap="butt" stroke-linejoin="miter" stroke-miterlimit="4" stroke-opacity="1" stroke-width="4.233" marker-end="none" marker-mid="none" marker-start="none" opacity=".1" paint-order="normal" rx="8.467" ry="8.467" style="marker:none"/></clipPath><clipPath id="clipPath944-3" clipPathUnits="userSpaceOnUse"><rect id="rect946-6" width="253.868" height="31.75" x="140.6" y="473.449" fill="#000" fill-opacity="1" stroke="none" stroke-dasharray="none" stroke-dashoffset="0" stroke-linecap="butt" stroke-linejoin="miter" stroke-miterlimit="4" stroke-opacity="1" stroke-width="4.233" marker-end="none" marker-mid="none" marker-start="none" opacity=".1" paint-order="normal" rx="8.467" ry="8.467" style="marker:none"/></clipPath><linearGradient id="linearGradient1232-8" x1="256.043" x2="256.043" y1="-148.252" y2="203.748" gradientTransform="matrix(1,0,0,0.99916076,-63.999999,148.17114)" gradientUnits="userSpaceOnUse" xlink:href="#linearGradient1014"/><linearGradient id="linearGradient900-7" x1="256.043" x2="256.043" y1="-204.096" y2="186.227" gradientTransform="matrix(0.24999998,0,0,0.24999998,-16.0109,37.06311)" gradientUnits="userSpaceOnUse" xlink:href="#linearGradient898"/><clipPath id="clipPath901" clipPathUnits="userSpaceOnUse"><path id="path903" fill="#81dffe" fill-opacity="1" stroke="none" stroke-dasharray="none" stroke-dashoffset="0" stroke-linecap="butt" stroke-linejoin="miter" stroke-miterlimit="4" stroke-opacity="1" stroke-width=".005" marker-end="none" marker-mid="none" marker-start="none" d="m 12,20 v 88 8 h 104 v -8 -88 z" display="inline" enable-background="new" opacity="1" paint-order="normal" style="marker:none"/></clipPath><clipPath id="clipPath2417" clipPathUnits="userSpaceOnUse"><rect id="rect2419" width="72" height="26" x="28" y="198" fill="#3584e4" fill-opacity="1" stroke="none" stroke-dasharray="none" stroke-dashoffset="0" stroke-linecap="round" stroke-linejoin="round" stroke-miterlimit="4" stroke-opacity="1" stroke-width="16" opacity="1" ry="5.345"/></clipPath><clipPath id="clipPath1024" clipPathUnits="userSpaceOnUse"><rect id="rect1022" width="72" height="26" x="28" y="198" fill="#3584e4" fill-opacity="1" stroke="none" stroke-dasharray="none" stroke-dashoffset="0" stroke-linecap="round" stroke-linejoin="round" stroke-miterlimit="4" stroke-opacity="1" stroke-width="16" opacity="1" ry="5.345"/></clipPath><linearGradient id="linearGradient1057" x1="12" x2="116" y1="280" y2="280" gradientTransform="translate(0,140)" gradientUnits="userSpaceOnUse" xlink:href="#linearGradient1125"/><linearGradient id="linearGradient1111" x1="12" x2="116" y1="280" y2="280" gradientUnits="userSpaceOnUse" xlink:href="#linearGradient1071"/><linearGradient id="linearGradient1288" x1="12" x2="116" y1="266" y2="266" gradientUnits="userSpaceOnUse" xlink:href="#linearGradient1149"/></defs><metadata id="metadata4"/><g id="layer1" display="inline" transform="translate(0,-172)"><g id="layer2" display="none"><text id="context" x="7.955" y="143.545" fill="#000" fill-opacity="1" stroke="none" stroke-width=".601" display="inline" enable-background="new" font-family="Cantarell" font-size="10.993" font-stretch="normal" font-style="normal" font-variant="normal" font-weight="normal" text-anchor="start" writing-mode="lr-tb" xml:space="preserve" style="line-height:125%;-inkscape-font-specification:'Cantarell, Normal';text-align:start"><tspan id="tspan2716" x="7.955" y="143.545" stroke-width=".601">apps</tspan></text><text id="text3021" x="7.6" y="159.042" fill="#000" fill-opacity="1" stroke="none" stroke-width=".601" display="inline" enable-background="new" font-family="Cantarell" font-size="10.993" font-stretch="normal" font-style="normal" font-variant="normal" font-weight="bold" text-anchor="start" writing-mode="lr-tb" xml:space="preserve" style="line-height:125%;-inkscape-font-specification:'Cantarell, Bold';text-align:start"><tspan id="tspan3023" x="7.6" y="159.042" stroke-width=".601">org.gnome.Software</tspan></text><rect id="rect13805" width="128" height="128" x="0" y="172" fill="#f0f0f0" fill-opacity="1" fill-rule="nonzero" stroke="none" stroke-width=".5" display="inline" enable-background="accumulate" overflow="visible" visibility="visible" style="marker:none"/><g id="g1168" display="inline" transform="matrix(0.25,0,0,0.25,6.9488522e-8,225)"><rect id="rect1110" width="320" height="448" x="96" y="-180" fill="#2864b0" fill-opacity="1" stroke="none" stroke-dasharray="none" stroke-dashoffset="0" stroke-linecap="butt" stroke-linejoin="miter" stroke-miterlimit="4" stroke-opacity="1" stroke-width="1" marker-end="none" marker-mid="none" marker-start="none" opacity=".1" paint-order="normal" rx="32" ry="32" style="marker:none"/><rect stroke-miterlimit="4" style="marker:none" id="rect1110-8" width="416" height="416" x="48" y="-164" fill="#2864b0" fill-opacity="1" stroke="none" stroke-dasharray="none" stroke-dashoffset="0" stroke-linecap="butt" stroke-linejoin="miter" stroke-opacity="1" stroke-width="1" marker-end="none" marker-mid="none" marker-start="none" display="inline" enable-background="new" opacity=".1" paint-order="normal" rx="32" ry="32"/><rect stroke-miterlimit="4" style="marker:none" id="rect1110-8-9" width="448" height="320" x="32" y="-116" fill="#2864b0" fill-opacity="1" stroke="none" stroke-dasharray="none" stroke-dashoffset="0" stroke-linecap="butt" stroke-linejoin="miter" stroke-opacity="1" stroke-width="1" marker-end="none" marker-mid="none" marker-start="none" display="inline" enable-background="new" opacity=".1" paint-order="normal" rx="32" ry="32"/><circle id="path1142" cx="256" cy="44" r="240" fill="#2864b0" fill-opacity="1" stroke="none" stroke-dasharray="none" stroke-dashoffset="0" stroke-linecap="butt" stroke-linejoin="miter" stroke-miterlimit="4" stroke-opacity="1" stroke-width="1" marker-end="none" marker-mid="none" marker-start="none" opacity=".1" paint-order="normal" style="marker:none"/></g></g><g id="layer3" display="none"><path id="path965" fill="#000" fill-opacity="1" stroke="none" stroke-dasharray="none" stroke-dashoffset="0" stroke-linecap="butt" stroke-linejoin="miter" stroke-miterlimit="4" stroke-opacity="1" stroke-width=".045" marker-end="none" marker-mid="none" marker-start="none" d="M 448.04311,-108.42702 V 243.74755 H 64.223298 l -0.18019,-352.17457 z" display="inline" enable-background="new" opacity=".15" paint-order="normal" style="marker:none"/><path id="rect932-6" fill="#000" fill-opacity="1" stroke="none" stroke-dasharray="none" stroke-dashoffset="0" stroke-linecap="butt" stroke-linejoin="miter" stroke-miterlimit="4" stroke-opacity="1" stroke-width=".045" marker-end="none" marker-mid="none" marker-start="none" d="m 216.04311,-207.25245 h 80 l 32,32 h -144 z" display="inline" enable-background="new" opacity=".15" paint-order="normal" style="marker:none"/></g><g id="layer9" display="inline"><rect id="rect1127" width="104" height="44" x="12" y="244" fill="#98c1f1" fill-opacity="1" stroke="none" stroke-dasharray="none" stroke-dashoffset="0" stroke-linecap="round" stroke-linejoin="round" stroke-miterlimit="4" stroke-opacity=".673" stroke-width="8" opacity="1" rx="8" ry="8" vector-effect="none"/><rect id="rect1051" width="104" height="88" x="12" y="192" fill="#e7f0fc" fill-opacity="1" stroke="none" stroke-dasharray="none" stroke-dashoffset="0" stroke-linecap="butt" stroke-linejoin="round" stroke-miterlimit="4" stroke-opacity="1" stroke-width="27.713" marker-end="none" marker-mid="none" marker-start="none" opacity="1" paint-order="normal" vector-effect="none" style="marker:none"/><g id="g1292"><circle id="path1047" cx="50" cy="201" r="5" fill="#1a5fb4" fill-opacity="1" stroke="none" stroke-dasharray="none" stroke-dashoffset="0" stroke-linecap="round" stroke-linejoin="round" stroke-miterlimit="4" stroke-opacity="1" stroke-width="4" opacity="1"/><circle id="circle1049" cx="78" cy="201" r="5" fill="#1a5fb4" fill-opacity="1" stroke="none" stroke-dasharray="none" stroke-dashoffset="0" stroke-linecap="round" stroke-linejoin="round" stroke-miterlimit="4" stroke-opacity="1" stroke-width="4" opacity="1"/></g><path id="rect1044" fill="none" fill-opacity="1" stroke="#62a0ea" stroke-dasharray="none" stroke-dashoffset="0" stroke-linecap="round" stroke-linejoin="round" stroke-miterlimit="4" stroke-opacity="1" stroke-width="4" d="m 50,200 v -8 c 0,-7.756 6.244,-14 14,-14 7.756,0 14,6.244 14,14 v 8" opacity="1"/><path id="path920" fill="#3584e4" fill-opacity="1" stroke="none" stroke-dasharray="none" stroke-dashoffset="0" stroke-linecap="butt" stroke-linejoin="miter" stroke-miterlimit="4" stroke-opacity="1" stroke-width=".011" marker-end="none" marker-mid="none" marker-start="none" d="m 64,216 a 20,20.000002 0 0 0 -20,20 20,20.000002 0 0 0 20,20 20,20.000002 0 0 0 20,-20 20,20.000002 0 0 0 -20,-20 z m -8,10 a 1.9999997,2 0 0 1 2,2 1.9999997,2 0 0 1 -2,2 1.9999997,2 0 0 1 -2,-2 1.9999997,2 0 0 1 2,-2 z m 8,0 a 1.9999997,2 0 0 1 2,2 1.9999997,2 0 0 1 -2,2 1.9999997,2 0 0 1 -2,-2 1.9999997,2 0 0 1 2,-2 z m 8,0 a 1.9999997,2 0 0 1 2,2 1.9999997,2 0 0 1 -2,2 1.9999997,2 0 0 1 -2,-2 1.9999997,2 0 0 1 2,-2 z m -16,8 a 1.9999997,2 0 0 1 2,2 1.9999997,2 0 0 1 -2,2 1.9999997,2 0 0 1 -2,-2 1.9999997,2 0 0 1 2,-2 z m 8,0 a 1.9999997,2 0 0 1 2,2 1.9999997,2 0 0 1 -2,2 1.9999997,2 0 0 1 -2,-2 1.9999997,2 0 0 1 2,-2 z m 8,0 a 1.9999997,2 0 0 1 2,2 1.9999997,2 0 0 1 -2,2 1.9999997,2 0 0 1 -2,-2 1.9999997,2 0 0 1 2,-2 z m -16,8 a 1.9999997,2 0 0 1 2,2 1.9999997,2 0 0 1 -2,2 1.9999997,2 0 0 1 -2,-2 1.9999997,2 0 0 1 2,-2 z m 8,0 a 1.9999997,2 0 0 1 2,2 1.9999997,2 0 0 1 -2,2 1.9999997,2 0 0 1 -2,-2 1.9999997,2 0 0 1 2,-2 z m 8,0 a 1.9999997,2 0 0 1 2,2 1.9999997,2 0 0 1 -2,2 1.9999997,2 0 0 1 -2,-2 1.9999997,2 0 0 1 2,-2 z" display="inline" enable-background="new" opacity="1" paint-order="normal" style="marker:none"/><rect stroke-miterlimit="4" style="marker:none" id="rect895" width="104" height="8" x="-178" y="280" fill="#98c1f1" fill-opacity="1" stroke="none" stroke-dasharray="none" stroke-dashoffset="0" stroke-linecap="butt" stroke-linejoin="miter" stroke-opacity="1" stroke-width=".005" marker-end="none" marker-mid="none" marker-start="none" display="inline" enable-background="new" opacity="1" paint-order="normal" rx="0" ry="0"/><rect id="rect897" width="104" height="88" x="-178" y="192" fill="#e7f0fc" fill-opacity="1" stroke="none" stroke-dasharray="none" stroke-dashoffset="0" stroke-linecap="butt" stroke-linejoin="round" stroke-miterlimit="4" stroke-opacity="1" stroke-width="27.713" marker-end="none" marker-mid="none" marker-start="none" opacity="1" paint-order="normal" vector-effect="none" style="marker:none"/><path id="path900" fill="#1a5fb4" fill-opacity="1" stroke="none" stroke-linecap="butt" stroke-linejoin="miter" stroke-opacity="1" stroke-width=".667" d="m -178,280 h 104 l -4,4 h -96 z" opacity=".2"/><circle id="circle902" cx="-140" cy="200" r="4" fill="#1c71d8" fill-opacity="1" stroke="none" stroke-dasharray="none" stroke-dashoffset="0" stroke-linecap="round" stroke-linejoin="round" stroke-miterlimit="4" stroke-opacity="1" stroke-width="4" opacity="1"/><circle id="circle904" cx="-112" cy="200" r="4" fill="#1c71d8" fill-opacity="1" stroke="none" stroke-dasharray="none" stroke-dashoffset="0" stroke-linecap="round" stroke-linejoin="round" stroke-miterlimit="4" stroke-opacity="1" stroke-width="4" opacity="1"/><path id="path906" fill="none" fill-opacity="1" stroke="#62a0ea" stroke-dasharray="none" stroke-dashoffset="0" stroke-linecap="round" stroke-linejoin="round" stroke-miterlimit="4" stroke-opacity="1" stroke-width="4" d="m -140,200 v -8 c 0,-7.756 6.244,-14 14,-14 7.756,0 14,6.244 14,14 v 8" opacity="1"/><path id="path908" fill="#3584e4" fill-opacity="1" stroke="none" stroke-dasharray="none" stroke-dashoffset="0" stroke-linecap="butt" stroke-linejoin="miter" stroke-miterlimit="4" stroke-opacity="1" stroke-width=".011" marker-end="none" marker-mid="none" marker-start="none" d="m -126,216 a 20,20.000002 0 0 0 -20,20 20,20.000002 0 0 0 20,20 20,20.000002 0 0 0 20,-20 20,20.000002 0 0 0 -20,-20 z m -8,10 a 1.9999997,2 0 0 1 2,2 1.9999997,2 0 0 1 -2,2 1.9999997,2 0 0 1 -2,-2 1.9999997,2 0 0 1 2,-2 z m 8,0 a 1.9999997,2 0 0 1 2,2 1.9999997,2 0 0 1 -2,2 1.9999997,2 0 0 1 -2,-2 1.9999997,2 0 0 1 2,-2 z m 8,0 a 1.9999997,2 0 0 1 2,2 1.9999997,2 0 0 1 -2,2 1.9999997,2 0 0 1 -2,-2 1.9999997,2 0 0 1 2,-2 z m -16,8 a 1.9999997,2 0 0 1 2,2 1.9999997,2 0 0 1 -2,2 1.9999997,2 0 0 1 -2,-2 1.9999997,2 0 0 1 2,-2 z m 8,0 a 1.9999997,2 0 0 1 2,2 1.9999997,2 0 0 1 -2,2 1.9999997,2 0 0 1 -2,-2 1.9999997,2 0 0 1 2,-2 z m 8,0 a 1.9999997,2 0 0 1 2,2 1.9999997,2 0 0 1 -2,2 1.9999997,2 0 0 1 -2,-2 1.9999997,2 0 0 1 2,-2 z m -16,8 a 1.9999997,2 0 0 1 2,2 1.9999997,2 0 0 1 -2,2 1.9999997,2 0 0 1 -2,-2 1.9999997,2 0 0 1 2,-2 z m 8,0 a 1.9999997,2 0 0 1 2,2 1.9999997,2 0 0 1 -2,2 1.9999997,2 0 0 1 -2,-2 1.9999997,2 0 0 1 2,-2 z m 8,0 a 1.9999997,2 0 0 1 2,2 1.9999997,2 0 0 1 -2,2 1.9999997,2 0 0 1 -2,-2 1.9999997,2 0 0 1 2,-2 z" display="inline" enable-background="new" opacity=".93" paint-order="normal" style="marker:none"/><path id="path910" fill="#fff" fill-opacity="1" stroke="none" stroke-linecap="butt" stroke-linejoin="miter" stroke-opacity="1" stroke-width=".667" d="m -178,288 h 104 l -4,-4 h -96 z" opacity=".1"/><path id="path912" fill="#3584e4" fill-opacity="1" stroke="none" stroke-linecap="butt" stroke-linejoin="miter" stroke-opacity="1" stroke-width=".667" d="m -178,280 v 8 l 4,-4 z" opacity=".1"/><path id="path914" fill="#3584e4" fill-opacity="1" stroke="none" stroke-linecap="butt" stroke-linejoin="miter" stroke-opacity="1" stroke-width=".667" d="m -74,280 v 8 l -4,-4 z" opacity=".1"/><g id="g969" transform="translate(-320)"><rect stroke-miterlimit="4" style="marker:none" id="rect927" width="104" height="8" x="12" y="280" fill="#98c1f1" fill-opacity="1" stroke="none" stroke-dasharray="none" stroke-dashoffset="0" stroke-linecap="butt" stroke-linejoin="miter" stroke-opacity="1" stroke-width=".005" marker-end="none" marker-mid="none" marker-start="none" display="inline" enable-background="new" opacity="1" paint-order="normal" rx="0" ry="0"/><rect id="rect929" width="104" height="88" x="12" y="192" fill="#e7f0fc" fill-opacity="1" stroke="none" stroke-dasharray="none" stroke-dashoffset="0" stroke-linecap="butt" stroke-linejoin="round" stroke-miterlimit="4" stroke-opacity="1" stroke-width="27.713" marker-end="none" marker-mid="none" marker-start="none" opacity="1" paint-order="normal" vector-effect="none" style="marker:none"/><path id="path931" fill="#3584e4" fill-opacity="1" stroke="none" stroke-linecap="butt" stroke-linejoin="miter" stroke-opacity="1" stroke-width=".667" d="m 12,280 h 104 l -4,4 H 16 Z" opacity=".4"/><circle id="circle933" cx="50" cy="200" r="4" fill="#1c71d8" fill-opacity="1" stroke="none" stroke-dasharray="none" stroke-dashoffset="0" stroke-linecap="round" stroke-linejoin="round" stroke-miterlimit="4" stroke-opacity="1" stroke-width="4" opacity="1"/><circle id="circle935" cx="78" cy="200" r="4" fill="#1c71d8" fill-opacity="1" stroke="none" stroke-dasharray="none" stroke-dashoffset="0" stroke-linecap="round" stroke-linejoin="round" stroke-miterlimit="4" stroke-opacity="1" stroke-width="4" opacity="1"/><path id="path937" fill="none" fill-opacity="1" stroke="#62a0ea" stroke-dasharray="none" stroke-dashoffset="0" stroke-linecap="round" stroke-linejoin="round" stroke-miterlimit="4" stroke-opacity="1" stroke-width="4" d="m 50,200 v -8 c 0,-7.756 6.244,-14 14,-14 7.756,0 14,6.244 14,14 v 8" opacity="1"/><circle id="circle939" cx="64" cy="236" r="20" fill="#3584e4" fill-opacity="1" stroke="none" stroke-dasharray="none" stroke-dashoffset="0" stroke-linecap="square" stroke-linejoin="round" stroke-miterlimit="4" stroke-opacity="1" stroke-width="2" opacity="1" vector-effect="none"/><path id="path941" fill="#fff" fill-opacity="1" stroke="none" stroke-linecap="butt" stroke-linejoin="miter" stroke-opacity="1" stroke-width=".667" d="m 12,288 h 104 l -4,-4 H 16 Z" opacity=".1"/><path id="path943" fill="#3584e4" fill-opacity="1" stroke="none" stroke-linecap="butt" stroke-linejoin="miter" stroke-opacity="1" stroke-width=".667" d="m 12,280 v 8 l 4,-4 z" opacity=".1"/><path id="path945" fill="#3584e4" fill-opacity="1" stroke="none" stroke-linecap="butt" stroke-linejoin="miter" stroke-opacity="1" stroke-width=".667" d="m 116,280 v 8 l -4,-4 z" opacity=".1"/><circle id="circle947" cx="59" cy="231" r="3" fill="#fff" fill-opacity="1" stroke="none" stroke-dasharray="none" stroke-dashoffset="0" stroke-linecap="square" stroke-linejoin="round" stroke-miterlimit="4" stroke-opacity="1" stroke-width="2" opacity="1" vector-effect="none"/><circle id="circle949" cx="69" cy="231" r="3" fill="#fff" fill-opacity="1" stroke="none" stroke-dasharray="none" stroke-dashoffset="0" stroke-linecap="square" stroke-linejoin="round" stroke-miterlimit="4" stroke-opacity="1" stroke-width="2" opacity="1" vector-effect="none"/><circle id="circle951" cx="59" cy="241" r="3" fill="#fff" fill-opacity="1" stroke="none" stroke-dasharray="none" stroke-dashoffset="0" stroke-linecap="square" stroke-linejoin="round" stroke-miterlimit="4" stroke-opacity="1" stroke-width="2" opacity="1" vector-effect="none"/><circle id="circle953" cx="69" cy="241" r="3" fill="#fff" fill-opacity="1" stroke="none" stroke-dasharray="none" stroke-dashoffset="0" stroke-linecap="square" stroke-linejoin="round" stroke-miterlimit="4" stroke-opacity="1" stroke-width="2" opacity="1" vector-effect="none"/></g><g id="g1013" transform="translate(-450)"><rect stroke-miterlimit="4" style="marker:none" id="rect971" width="104" height="8" x="12" y="280" fill="#98c1f1" fill-opacity="1" stroke="none" stroke-dasharray="none" stroke-dashoffset="0" stroke-linecap="butt" stroke-linejoin="miter" stroke-opacity="1" stroke-width=".005" marker-end="none" marker-mid="none" marker-start="none" display="inline" enable-background="new" opacity="1" paint-order="normal" rx="0" ry="0"/><rect id="rect973" width="104" height="88" x="12" y="192" fill="#e7f0fc" fill-opacity="1" stroke="none" stroke-dasharray="none" stroke-dashoffset="0" stroke-linecap="butt" stroke-linejoin="round" stroke-miterlimit="4" stroke-opacity="1" stroke-width="27.713" marker-end="none" marker-mid="none" marker-start="none" opacity="1" paint-order="normal" vector-effect="none" style="marker:none"/><path id="path975" fill="#3584e4" fill-opacity="1" stroke="none" stroke-linecap="butt" stroke-linejoin="miter" stroke-opacity="1" stroke-width=".667" d="m 12,280 h 104 l -4,4 H 16 Z" opacity=".4"/><circle id="circle977" cx="50" cy="200" r="4" fill="#1c71d8" fill-opacity="1" stroke="none" stroke-dasharray="none" stroke-dashoffset="0" stroke-linecap="round" stroke-linejoin="round" stroke-miterlimit="4" stroke-opacity="1" stroke-width="4" opacity="1"/><circle id="circle979" cx="78" cy="200" r="4" fill="#1c71d8" fill-opacity="1" stroke="none" stroke-dasharray="none" stroke-dashoffset="0" stroke-linecap="round" stroke-linejoin="round" stroke-miterlimit="4" stroke-opacity="1" stroke-width="4" opacity="1"/><path id="path981" fill="none" fill-opacity="1" stroke="#62a0ea" stroke-dasharray="none" stroke-dashoffset="0" stroke-linecap="round" stroke-linejoin="round" stroke-miterlimit="4" stroke-opacity="1" stroke-width="4" d="m 50,200 v -8 c 0,-7.756 6.244,-14 14,-14 7.756,0 14,6.244 14,14 v 8" opacity="1"/><circle id="circle983" cx="64" cy="236" r="24" fill="#3584e4" fill-opacity="1" stroke="none" stroke-dasharray="none" stroke-dashoffset="0" stroke-linecap="square" stroke-linejoin="round" stroke-miterlimit="4" stroke-opacity="1" stroke-width="2" opacity="1" vector-effect="none"/><path id="path985" fill="#fff" fill-opacity="1" stroke="none" stroke-linecap="butt" stroke-linejoin="miter" stroke-opacity="1" stroke-width=".667" d="m 12,288 h 104 l -4,-4 H 16 Z" opacity=".1"/><path id="path987" fill="#3584e4" fill-opacity="1" stroke="none" stroke-linecap="butt" stroke-linejoin="miter" stroke-opacity="1" stroke-width=".667" d="m 12,280 v 8 l 4,-4 z" opacity=".1"/><path id="path989" fill="#3584e4" fill-opacity="1" stroke="none" stroke-linecap="butt" stroke-linejoin="miter" stroke-opacity="1" stroke-width=".667" d="m 116,280 v 8 l -4,-4 z" opacity=".1"/><circle id="circle991" cx="57" cy="229" r="3" fill="#fff" fill-opacity="1" stroke="none" stroke-dasharray="none" stroke-dashoffset="0" stroke-linecap="square" stroke-linejoin="round" stroke-miterlimit="4" stroke-opacity="1" stroke-width="2" opacity="1" vector-effect="none"/><circle id="circle993" cx="71" cy="229" r="3" fill="#fff" fill-opacity="1" stroke="none" stroke-dasharray="none" stroke-dashoffset="0" stroke-linecap="square" stroke-linejoin="round" stroke-miterlimit="4" stroke-opacity="1" stroke-width="2" opacity="1" vector-effect="none"/><circle id="circle995" cx="57" cy="243" r="3" fill="#fff" fill-opacity="1" stroke="none" stroke-dasharray="none" stroke-dashoffset="0" stroke-linecap="square" stroke-linejoin="round" stroke-miterlimit="4" stroke-opacity="1" stroke-width="2" opacity="1" vector-effect="none"/><circle id="circle997" cx="71" cy="243" r="3" fill="#fff" fill-opacity="1" stroke="none" stroke-dasharray="none" stroke-dashoffset="0" stroke-linecap="square" stroke-linejoin="round" stroke-miterlimit="4" stroke-opacity="1" stroke-width="2" opacity="1" vector-effect="none"/></g><g id="g1049" transform="translate(-510)"><rect id="rect1013" width="104" height="76" x="-58" y="192" fill="#e7f0fc" fill-opacity="1" stroke="none" stroke-dasharray="none" stroke-dashoffset="0" stroke-linecap="butt" stroke-linejoin="round" stroke-miterlimit="4" stroke-opacity="1" stroke-width="27.713" marker-end="none" marker-mid="none" marker-start="none" opacity="1" paint-order="normal" vector-effect="none" style="marker:none"/><circle id="circle1015" cx="-20" cy="200" r="4" fill="#1c71d8" fill-opacity="1" stroke="none" stroke-dasharray="none" stroke-dashoffset="0" stroke-linecap="round" stroke-linejoin="round" stroke-miterlimit="4" stroke-opacity="1" stroke-width="4" opacity="1"/><circle id="circle1017" cx="8" cy="200" r="4" fill="#1c71d8" fill-opacity="1" stroke="none" stroke-dasharray="none" stroke-dashoffset="0" stroke-linecap="round" stroke-linejoin="round" stroke-miterlimit="4" stroke-opacity="1" stroke-width="4" opacity="1"/><path id="path1019" fill="none" fill-opacity="1" stroke="#98c1f1" stroke-dasharray="none" stroke-dashoffset="0" stroke-linecap="round" stroke-linejoin="round" stroke-miterlimit="4" stroke-opacity="1" stroke-width="4" d="m -20,200 v -8 c 0,-7.756 6.244,-14 14,-14 7.756,0 14,6.244 14,14 v 8" opacity="1"/><circle id="circle1021" cx="-6" cy="236" r="24" fill="#3584e4" fill-opacity="1" stroke="none" stroke-dasharray="none" stroke-dashoffset="0" stroke-linecap="square" stroke-linejoin="round" stroke-miterlimit="4" stroke-opacity="1" stroke-width="2" opacity="1" vector-effect="none"/><g id="g1031" transform="translate(-70)"><circle id="circle1023" cx="58" cy="230" r="4" fill="#e7f0fc" fill-opacity="1" stroke="none" stroke-dasharray="none" stroke-dashoffset="0" stroke-linecap="square" stroke-linejoin="round" stroke-miterlimit="4" stroke-opacity="1" stroke-width="2" opacity="1" vector-effect="none"/><circle id="circle1025" cx="70" cy="230" r="4" fill="#e7f0fc" fill-opacity="1" stroke="none" stroke-dasharray="none" stroke-dashoffset="0" stroke-linecap="square" stroke-linejoin="round" stroke-miterlimit="4" stroke-opacity="1" stroke-width="2" opacity="1" vector-effect="none"/><circle id="circle1027" cx="58" cy="242" r="4" fill="#e7f0fc" fill-opacity="1" stroke="none" stroke-dasharray="none" stroke-dashoffset="0" stroke-linecap="square" stroke-linejoin="round" stroke-miterlimit="4" stroke-opacity="1" stroke-width="2" opacity="1" vector-effect="none"/><circle id="circle1029" cx="70" cy="242" r="4" fill="#e7f0fc" fill-opacity="1" stroke="none" stroke-dasharray="none" stroke-dashoffset="0" stroke-linecap="square" stroke-linejoin="round" stroke-miterlimit="4" stroke-opacity="1" stroke-width="2" opacity="1" vector-effect="none"/></g><path id="path1033" fill="#e7f0fc" fill-opacity="1" stroke="none" stroke-dasharray="none" stroke-dashoffset="0" stroke-linecap="round" stroke-linejoin="round" stroke-miterlimit="4" stroke-opacity=".673" stroke-width="8" d="m 46,264 v 8 c 0,4.432 -3.568,8 -8,8 h -88 c -4.432,0 -8,-3.568 -8,-8 v -8 z" opacity="1" vector-effect="none"/><path id="path1035" fill="#62a0ea" fill-opacity="1" stroke="none" stroke-dasharray="none" stroke-dashoffset="0" stroke-linecap="round" stroke-linejoin="round" stroke-miterlimit="4" stroke-opacity=".673" stroke-width="8" d="m -58,272 v 8 c 0,4.432 3.568,8 8,8 h 88 c 4.432,0 8,-3.568 8,-8 v -8 c 0,4.432 -3.568,8 -8,8 h -88 c -4.432,0 -8,-3.568 -8,-8 z" opacity="1" vector-effect="none"/></g><g id="g1109" transform="translate(-700)"><rect id="rect1073" width="104" height="76" x="12" y="192" fill="#e7f0fc" fill-opacity="1" stroke="none" stroke-dasharray="none" stroke-dashoffset="0" stroke-linecap="butt" stroke-linejoin="round" stroke-miterlimit="4" stroke-opacity="1" stroke-width="27.713" marker-end="none" marker-mid="none" marker-start="none" opacity="1" paint-order="normal" vector-effect="none" style="marker:none"/><circle id="circle1075" cx="50" cy="200" r="4" fill="#1c71d8" fill-opacity="1" stroke="none" stroke-dasharray="none" stroke-dashoffset="0" stroke-linecap="round" stroke-linejoin="round" stroke-miterlimit="4" stroke-opacity="1" stroke-width="4" opacity="1"/><circle id="circle1077" cx="78" cy="200" r="4" fill="#1c71d8" fill-opacity="1" stroke="none" stroke-dasharray="none" stroke-dashoffset="0" stroke-linecap="round" stroke-linejoin="round" stroke-miterlimit="4" stroke-opacity="1" stroke-width="4" opacity="1"/><path id="path1079" fill="none" fill-opacity="1" stroke="#98c1f1" stroke-dasharray="none" stroke-dashoffset="0" stroke-linecap="round" stroke-linejoin="round" stroke-miterlimit="4" stroke-opacity="1" stroke-width="4" d="m 50,200 v -8 c 0,-7.756 6.244,-14 14,-14 7.756,0 14,6.244 14,14 v 8" opacity="1"/><path id="path1081" fill="#e7f0fc" fill-opacity="1" stroke="none" stroke-dasharray="none" stroke-dashoffset="0" stroke-linecap="round" stroke-linejoin="round" stroke-miterlimit="4" stroke-opacity=".673" stroke-width="8" d="m 116,254 v 18 c 0,4.432 -3.568,8 -8,8 H 20 c -4.432,0 -8,-3.568 -8,-8 v -18 z" opacity="1" vector-effect="none"/><path id="path1083" fill="url(#linearGradient1111)" fill-opacity="1" stroke="none" stroke-dasharray="none" stroke-dashoffset="0" stroke-linecap="round" stroke-linejoin="round" stroke-miterlimit="4" stroke-opacity=".673" stroke-width="8" d="m 12,272 v 8 c 0,4.432 3.568,8 8,8 h 88 c 4.432,0 8,-3.568 8,-8 v -8 c 0,4.432 -3.568,8 -8,8 H 20 c -4.432,0 -8,-3.568 -8,-8 z" opacity="1" vector-effect="none"/><circle id="circle1085" cx="64" cy="236" r="24" fill="#3584e4" fill-opacity="1" stroke="none" stroke-dasharray="none" stroke-dashoffset="0" stroke-linecap="square" stroke-linejoin="round" stroke-miterlimit="4" stroke-opacity="1" stroke-width="2" opacity="1" vector-effect="none"/><g id="g1095"><circle id="circle1087" cx="58" cy="230" r="4" fill="#e7f0fc" fill-opacity="1" stroke="none" stroke-dasharray="none" stroke-dashoffset="0" stroke-linecap="square" stroke-linejoin="round" stroke-miterlimit="4" stroke-opacity="1" stroke-width="2" opacity="1" vector-effect="none"/><circle id="circle1089" cx="70" cy="230" r="4" fill="#e7f0fc" fill-opacity="1" stroke="none" stroke-dasharray="none" stroke-dashoffset="0" stroke-linecap="square" stroke-linejoin="round" stroke-miterlimit="4" stroke-opacity="1" stroke-width="2" opacity="1" vector-effect="none"/><circle id="circle1091" cx="58" cy="242" r="4" fill="#e7f0fc" fill-opacity="1" stroke="none" stroke-dasharray="none" stroke-dashoffset="0" stroke-linecap="square" stroke-linejoin="round" stroke-miterlimit="4" stroke-opacity="1" stroke-width="2" opacity="1" vector-effect="none"/><circle id="circle1093" cx="70" cy="242" r="4" fill="#e7f0fc" fill-opacity="1" stroke="none" stroke-dasharray="none" stroke-dashoffset="0" stroke-linecap="square" stroke-linejoin="round" stroke-miterlimit="4" stroke-opacity="1" stroke-width="2" opacity="1" vector-effect="none"/></g></g><path id="rect1151" fill="#a2c7f2" fill-opacity="1" stroke="none" stroke-dasharray="none" stroke-dashoffset="0" stroke-linecap="butt" stroke-linejoin="miter" stroke-miterlimit="4" stroke-opacity="1" stroke-width=".005" marker-end="none" marker-mid="none" marker-start="none" d="m -438,420 h 104 c 0,3.97477 -4.01639,8 -8,8 h -88 c -4.94975,0 -8,-3.40041 -8,-8 z" display="inline" enable-background="new" opacity="1" paint-order="normal" style="marker:none"/><rect id="rect1153" width="104" height="88" x="-438" y="332" fill="#e7f0fc" fill-opacity="1" stroke="none" stroke-dasharray="none" stroke-dashoffset="0" stroke-linecap="butt" stroke-linejoin="round" stroke-miterlimit="4" stroke-opacity="1" stroke-width="27.713" marker-end="none" marker-mid="none" marker-start="none" opacity="1" paint-order="normal" vector-effect="none" style="marker:none"/><circle id="circle1157" cx="-400" cy="340" r="4" fill="#1c71d8" fill-opacity="1" stroke="none" stroke-dasharray="none" stroke-dashoffset="0" stroke-linecap="round" stroke-linejoin="round" stroke-miterlimit="4" stroke-opacity="1" stroke-width="4" opacity="1"/><circle id="circle1159" cx="-372" cy="340" r="4" fill="#1c71d8" fill-opacity="1" stroke="none" stroke-dasharray="none" stroke-dashoffset="0" stroke-linecap="round" stroke-linejoin="round" stroke-miterlimit="4" stroke-opacity="1" stroke-width="4" opacity="1"/><path id="path1161" fill="none" fill-opacity="1" stroke="#62a0ea" stroke-dasharray="none" stroke-dashoffset="0" stroke-linecap="round" stroke-linejoin="round" stroke-miterlimit="4" stroke-opacity="1" stroke-width="4" d="m -400,340 v -8 c 0,-7.756 6.244,-14 14,-14 7.756,0 14,6.244 14,14 v 8" opacity="1"/><circle id="circle1163" cx="-386" cy="376" r="24" fill="#3584e4" fill-opacity="1" stroke="none" stroke-dasharray="none" stroke-dashoffset="0" stroke-linecap="square" stroke-linejoin="round" stroke-miterlimit="4" stroke-opacity="1" stroke-width="2" opacity="1" vector-effect="none"/><circle id="circle1171" cx="-393" cy="369" r="3" fill="#fff" fill-opacity="1" stroke="none" stroke-dasharray="none" stroke-dashoffset="0" stroke-linecap="square" stroke-linejoin="round" stroke-miterlimit="4" stroke-opacity="1" stroke-width="2" opacity="1" vector-effect="none"/><circle id="circle1173" cx="-379" cy="369" r="3" fill="#fff" fill-opacity="1" stroke="none" stroke-dasharray="none" stroke-dashoffset="0" stroke-linecap="square" stroke-linejoin="round" stroke-miterlimit="4" stroke-opacity="1" stroke-width="2" opacity="1" vector-effect="none"/><circle id="circle1175" cx="-393" cy="383" r="3" fill="#fff" fill-opacity="1" stroke="none" stroke-dasharray="none" stroke-dashoffset="0" stroke-linecap="square" stroke-linejoin="round" stroke-miterlimit="4" stroke-opacity="1" stroke-width="2" opacity="1" vector-effect="none"/><circle id="circle1177" cx="-379" cy="383" r="3" fill="#fff" fill-opacity="1" stroke="none" stroke-dasharray="none" stroke-dashoffset="0" stroke-linecap="square" stroke-linejoin="round" stroke-miterlimit="4" stroke-opacity="1" stroke-width="2" opacity="1" vector-effect="none"/><g id="g1286" transform="translate(-820)"><rect id="rect1250" width="104" height="44" x="12" y="244" fill="url(#linearGradient1288)" fill-opacity="1" stroke="none" stroke-dasharray="none" stroke-dashoffset="0" stroke-linecap="round" stroke-linejoin="round" stroke-miterlimit="4" stroke-opacity=".673" stroke-width="8" opacity="1" rx="8" ry="8" vector-effect="none"/><rect id="rect1252" width="104" height="76" x="12" y="192" fill="#3584e4" fill-opacity="1" stroke="none" stroke-dasharray="none" stroke-dashoffset="0" stroke-linecap="butt" stroke-linejoin="round" stroke-miterlimit="4" stroke-opacity="1" stroke-width="27.713" marker-end="none" marker-mid="none" marker-start="none" opacity="1" paint-order="normal" vector-effect="none" style="marker:none"/><circle id="circle1254" cx="50" cy="201" r="5" fill="#1a5fb4" fill-opacity="1" stroke="none" stroke-dasharray="none" stroke-dashoffset="0" stroke-linecap="round" stroke-linejoin="round" stroke-miterlimit="4" stroke-opacity="1" stroke-width="4" opacity="1"/><circle id="circle1256" cx="78" cy="201" r="5" fill="#1a5fb4" fill-opacity="1" stroke="none" stroke-dasharray="none" stroke-dashoffset="0" stroke-linecap="round" stroke-linejoin="round" stroke-miterlimit="4" stroke-opacity="1" stroke-width="4" opacity="1"/><path id="path1258" fill="none" fill-opacity="1" stroke="#e7f0fc" stroke-dasharray="none" stroke-dashoffset="0" stroke-linecap="round" stroke-linejoin="round" stroke-miterlimit="4" stroke-opacity="1" stroke-width="4" d="m 50,200 v -8 c 0,-7.756 6.244,-14 14,-14 7.756,0 14,6.244 14,14 v 8" opacity="1"/><path id="path1260" fill="#3584e4" fill-opacity="1" stroke="none" stroke-dasharray="none" stroke-dashoffset="0" stroke-linecap="round" stroke-linejoin="round" stroke-miterlimit="4" stroke-opacity=".673" stroke-width="8" d="m 116,254 v 18 c 0,4.432 -3.568,8 -8,8 H 20 c -4.432,0 -8,-3.568 -8,-8 v -18 z" opacity="1" vector-effect="none"/><circle id="circle1262" cx="64" cy="236" r="24" fill="#e7f0fc" fill-opacity="1" stroke="none" stroke-dasharray="none" stroke-dashoffset="0" stroke-linecap="square" stroke-linejoin="round" stroke-miterlimit="4" stroke-opacity="1" stroke-width="2" opacity="1" vector-effect="none"/><g id="g1272"><circle id="circle1264" cx="58" cy="230" r="4" fill="#3584e4" fill-opacity="1" stroke="none" stroke-dasharray="none" stroke-dashoffset="0" stroke-linecap="square" stroke-linejoin="round" stroke-miterlimit="4" stroke-opacity="1" stroke-width="2" opacity="1" vector-effect="none"/><circle id="circle1266" cx="70" cy="230" r="4" fill="#3584e4" fill-opacity="1" stroke="none" stroke-dasharray="none" stroke-dashoffset="0" stroke-linecap="square" stroke-linejoin="round" stroke-miterlimit="4" stroke-opacity="1" stroke-width="2" opacity="1" vector-effect="none"/><circle id="circle1268" cx="58" cy="242" r="4" fill="#3584e4" fill-opacity="1" stroke="none" stroke-dasharray="none" stroke-dashoffset="0" stroke-linecap="square" stroke-linejoin="round" stroke-miterlimit="4" stroke-opacity="1" stroke-width="2" opacity="1" vector-effect="none"/><circle id="circle1270" cx="70" cy="242" r="4" fill="#3584e4" fill-opacity="1" stroke="none" stroke-dasharray="none" stroke-dashoffset="0" stroke-linecap="square" stroke-linejoin="round" stroke-miterlimit="4" stroke-opacity="1" stroke-width="2" opacity="1" vector-effect="none"/></g></g><g id="g1332" transform="translate(-940)"><rect id="rect1296" width="104" height="44" x="12" y="244" fill="#98c1f1" fill-opacity="1" stroke="none" stroke-dasharray="none" stroke-dashoffset="0" stroke-linecap="round" stroke-linejoin="round" stroke-miterlimit="4" stroke-opacity=".673" stroke-width="8" opacity="1" rx="8" ry="8" vector-effect="none"/><rect id="rect1298" width="104" height="88" x="12" y="192" fill="#e7f0fc" fill-opacity="1" stroke="none" stroke-dasharray="none" stroke-dashoffset="0" stroke-linecap="butt" stroke-linejoin="round" stroke-miterlimit="4" stroke-opacity="1" stroke-width="27.713" marker-end="none" marker-mid="none" marker-start="none" opacity="1" paint-order="normal" vector-effect="none" style="marker:none"/><g id="g1304"><circle id="circle1300" cx="50" cy="201" r="5" fill="#1a5fb4" fill-opacity="1" stroke="none" stroke-dasharray="none" stroke-dashoffset="0" stroke-linecap="round" stroke-linejoin="round" stroke-miterlimit="4" stroke-opacity="1" stroke-width="4" opacity="1"/><circle id="circle1302" cx="78" cy="201" r="5" fill="#1a5fb4" fill-opacity="1" stroke="none" stroke-dasharray="none" stroke-dashoffset="0" stroke-linecap="round" stroke-linejoin="round" stroke-miterlimit="4" stroke-opacity="1" stroke-width="4" opacity="1"/></g><path id="path1306" fill="none" fill-opacity="1" stroke="#62a0ea" stroke-dasharray="none" stroke-dashoffset="0" stroke-linecap="round" stroke-linejoin="round" stroke-miterlimit="4" stroke-opacity="1" stroke-width="4" d="m 50,200 v -8 c 0,-7.756 6.244,-14 14,-14 7.756,0 14,6.244 14,14 v 8" opacity="1"/><circle id="circle1308" cx="64" cy="236" r="24" fill="#3584e4" fill-opacity="1" stroke="none" stroke-dasharray="none" stroke-dashoffset="0" stroke-linecap="square" stroke-linejoin="round" stroke-miterlimit="4" stroke-opacity="1" stroke-width="2" opacity="1" vector-effect="none"/><g id="g1318" fill="#e7f0fc" fill-opacity="1"><circle id="circle1310" cx="58" cy="230" r="4" fill="#e7f0fc" fill-opacity="1" stroke="none" stroke-dasharray="none" stroke-dashoffset="0" stroke-linecap="square" stroke-linejoin="round" stroke-miterlimit="4" stroke-opacity="1" stroke-width="2" opacity="1" vector-effect="none"/><circle id="circle1312" cx="70" cy="230" r="4" fill="#e7f0fc" fill-opacity="1" stroke="none" stroke-dasharray="none" stroke-dashoffset="0" stroke-linecap="square" stroke-linejoin="round" stroke-miterlimit="4" stroke-opacity="1" stroke-width="2" opacity="1" vector-effect="none"/><circle id="circle1314" cx="58" cy="242" r="4" fill="#e7f0fc" fill-opacity="1" stroke="none" stroke-dasharray="none" stroke-dashoffset="0" stroke-linecap="square" stroke-linejoin="round" stroke-miterlimit="4" stroke-opacity="1" stroke-width="2" opacity="1" vector-effect="none"/><circle id="circle1316" cx="70" cy="242" r="4" fill="#e7f0fc" fill-opacity="1" stroke="none" stroke-dasharray="none" stroke-dashoffset="0" stroke-linecap="square" stroke-linejoin="round" stroke-miterlimit="4" stroke-opacity="1" stroke-width="2" opacity="1" vector-effect="none"/></g></g><g id="g1361" transform="translate(206)"><circle id="circle1357" cx="64" cy="236" r="24" fill="#3584e4" fill-opacity="1" stroke="none" stroke-dasharray="none" stroke-dashoffset="0" stroke-linecap="square" stroke-linejoin="round" stroke-miterlimit="4" stroke-opacity="1" stroke-width="2" opacity="1" vector-effect="none"/><path id="path1359" fill="#e7f0fc" fill-opacity="1" stroke="none" stroke-dasharray="none" stroke-dashoffset="0" stroke-linecap="butt" stroke-linejoin="miter" stroke-miterlimit="4" stroke-opacity="1" stroke-width=".011" marker-end="none" marker-mid="none" marker-start="none" d="m 56,226 c 1.104569,0 2,0.89543 2,2 0,1.10457 -0.895431,2 -2,2 -1.104569,0 -2,-0.89543 -2,-2 0,-1.10457 0.895431,-2 2,-2 z m 8,0 c 1.104569,0 2,0.89543 2,2 0,1.10457 -0.895431,2 -2,2 -1.104569,0 -2,-0.89543 -2,-2 0,-1.10457 0.895431,-2 2,-2 z m 8,0 c 1.104569,0 2,0.89543 2,2 0,1.10457 -0.895431,2 -2,2 -1.104569,0 -2,-0.89543 -2,-2 0,-1.10457 0.895431,-2 2,-2 z m -16,8 c 1.104569,0 2,0.89543 2,2 0,1.10457 -0.895431,2 -2,2 -1.104569,0 -2,-0.89543 -2,-2 0,-1.10457 0.895431,-2 2,-2 z m 8,0 c 1.104569,0 2,0.89543 2,2 0,1.10457 -0.895431,2 -2,2 -1.104569,0 -2,-0.89543 -2,-2 0,-1.10457 0.895431,-2 2,-2 z m 8,0 c 1.104569,0 2,0.89543 2,2 0,1.10457 -0.895431,2 -2,2 -1.104569,0 -2,-0.89543 -2,-2 0,-1.10457 0.895431,-2 2,-2 z m -16,8 c 1.104569,0 2,0.89543 2,2 0,1.10457 -0.895431,2 -2,2 -1.104569,0 -2,-0.89543 -2,-2 0,-1.10457 0.895431,-2 2,-2 z m 8,0 c 1.104569,0 2,0.89543 2,2 0,1.10457 -0.895431,2 -2,2 -1.104569,0 -2,-0.89543 -2,-2 0,-1.10457 0.895431,-2 2,-2 z m 8,0 c 1.104569,0 2,0.89543 2,2 0,1.10457 -0.895431,2 -2,2 -1.104569,0 -2,-0.89543 -2,-2 0,-1.10457 0.895431,-2 2,-2 z" display="inline" enable-background="new" opacity="1" paint-order="normal" style="marker:none"/></g></g></g></svg>