<?xml version="1.0" encoding="UTF-8" standalone="no"?>
<!-- Created with Inkscape (http://www.inkscape.org/) -->

<svg
   xmlns:dc="http://purl.org/dc/elements/1.1/"
   xmlns:cc="http://creativecommons.org/ns#"
   xmlns:rdf="http://www.w3.org/1999/02/22-rdf-syntax-ns#"
   xmlns:svg="http://www.w3.org/2000/svg"
   xmlns="http://www.w3.org/2000/svg"
   xmlns:xlink="http://www.w3.org/1999/xlink"
   xmlns:sodipodi="http://sodipodi.sourceforge.net/DTD/sodipodi-0.dtd"
   xmlns:inkscape="http://www.inkscape.org/namespaces/inkscape"
   inkscape:export-ydpi="96"
   inkscape:export-xdpi="96"
   inkscape:export-filename="Template.png"
   width="128"
   height="128"
   id="svg11300"
   sodipodi:version="0.32"
   inkscape:version="0.92.2 2405546, 2018-03-11"
   sodipodi:docname="org.gnome.Notes.svg"
   inkscape:output_extension="org.inkscape.output.svg.inkscape"
   version="1.0"
   style="display:inline;enable-background:new"
   viewBox="0 0 128 128">
  <title
     id="title4162">Adwaita Icon Template</title>
  <defs
     id="defs3">
    <linearGradient
       inkscape:collect="always"
       id="linearGradient987">
      <stop
         style="stop-color:#f5c211;stop-opacity:1"
         offset="0"
         id="stop975" />
      <stop
         id="stop977"
         offset="0.04166667"
         style="stop-color:#f8e45c;stop-opacity:1" />
      <stop
         style="stop-color:#f6d32d;stop-opacity:1"
         offset="0.08333334"
         id="stop979" />
      <stop
         id="stop981"
         offset="0.91666669"
         style="stop-color:#f5c211;stop-opacity:1" />
      <stop
         style="stop-color:#f8e45c;stop-opacity:1"
         offset="0.95833331"
         id="stop983" />
      <stop
         style="stop-color:#f5c211;stop-opacity:1"
         offset="1"
         id="stop985" />
    </linearGradient>
    <linearGradient
       y2="236"
       x2="96"
       y1="236"
       x1="32"
       gradientTransform="translate(604.81684,170.58641)"
       gradientUnits="userSpaceOnUse"
       id="linearGradient1099"
       xlink:href="#linearGradient1036" />
    <linearGradient
       id="linearGradient1036">
      <stop
         id="stop1032"
         offset="0"
         style="stop-color:#d5d3cf;stop-opacity:1;" />
      <stop
         id="stop1034"
         offset="1"
         style="stop-color:#f6f5f4;stop-opacity:1" />
    </linearGradient>
    <radialGradient
       r="32"
       fy="-76"
       fx="-244"
       cy="-76"
       cx="-244"
       gradientTransform="matrix(0.88333331,0,0,0.88333331,-460.35018,463.11973)"
       gradientUnits="userSpaceOnUse"
       id="radialGradient1103"
       xlink:href="#linearGradient1069" />
    <linearGradient
       id="linearGradient1069">
      <stop
         id="stop1065"
         offset="0"
         style="stop-color:#d5d3cf;stop-opacity:1" />
      <stop
         id="stop1067-1"
         offset="1"
         style="stop-color:#949390;stop-opacity:1" />
    </linearGradient>
    <linearGradient
       gradientUnits="userSpaceOnUse"
       y2="232"
       x2="64"
       y1="262.5"
       x1="64"
       id="linearGradient1027"
       xlink:href="#linearGradient1025"
       gradientTransform="translate(-470.5864,432.81685)" />
    <linearGradient
       id="linearGradient1025">
      <stop
         id="stop1021"
         offset="0"
         style="stop-color:#9a9996;stop-opacity:1" />
      <stop
         id="stop1023"
         offset="1"
         style="stop-color:#77767b;stop-opacity:1" />
    </linearGradient>
    <inkscape:path-effect
       effect="spiro"
       id="path-effect35304-9"
       is_visible="true" />
    <clipPath
       clipPathUnits="userSpaceOnUse"
       id="clipPath1609-7">
      <path
         sodipodi:nodetypes="cccccc"
         inkscape:connector-curvature="0"
         id="path1611-5"
         d="m 252,116 28,-28 v -8 h -36 v 36 z"
         style="fill:#e74747;stroke:none;stroke-width:0.25px;stroke-linecap:butt;stroke-linejoin:miter;stroke-opacity:1" />
    </clipPath>
    <linearGradient
       inkscape:collect="always"
       xlink:href="#linearGradient885"
       id="linearGradient887"
       x1="512.87469"
       y1="281.1026"
       x2="-308.78336"
       y2="-24.367531"
       gradientUnits="userSpaceOnUse" />
    <linearGradient
       inkscape:collect="always"
       id="linearGradient885">
      <stop
         style="stop-color:#f6d32d;stop-opacity:1;"
         offset="0"
         id="stop881" />
      <stop
         style="stop-color:#e5a50a;stop-opacity:1"
         offset="1"
         id="stop883" />
    </linearGradient>
    <radialGradient
       inkscape:collect="always"
       xlink:href="#linearGradient897"
       id="radialGradient902"
       gradientUnits="userSpaceOnUse"
       gradientTransform="matrix(1.4599987,-1.4599987,0.02960147,0.02960147,-490.51932,677.57967)"
       cx="405"
       cy="151.00006"
       fx="405"
       fy="151.00006"
       r="48" />
    <linearGradient
       inkscape:collect="always"
       id="linearGradient897">
      <stop
         style="stop-color:#f6d32d;stop-opacity:1"
         offset="0"
         id="stop893" />
      <stop
         style="stop-color:#fcf9c0;stop-opacity:1"
         offset="1"
         id="stop895" />
    </linearGradient>
    <clipPath
       clipPathUnits="userSpaceOnUse"
       id="clipPath2213">
      <rect
         style="display:inline;opacity:1;vector-effect:none;fill:none;fill-opacity:1;stroke:#000000;stroke-width:1;stroke-linecap:butt;stroke-linejoin:miter;stroke-miterlimit:4;stroke-dasharray:none;stroke-dashoffset:0;stroke-opacity:1;marker:none;marker-start:none;marker-mid:none;marker-end:none;paint-order:normal;enable-background:new"
         id="rect2215"
         width="16"
         height="56"
         x="160"
         y="-188"
         rx="8"
         ry="8" />
    </clipPath>
    <clipPath
       clipPathUnits="userSpaceOnUse"
       id="clipPath902">
      <rect
         style="display:inline;opacity:1;vector-effect:none;fill:none;fill-opacity:1;stroke:#000000;stroke-width:1;stroke-linecap:butt;stroke-linejoin:miter;stroke-miterlimit:4;stroke-dasharray:none;stroke-dashoffset:0;stroke-opacity:1;marker:none;marker-start:none;marker-mid:none;marker-end:none;paint-order:normal;enable-background:new"
         id="rect900"
         width="16"
         height="56"
         x="160"
         y="-188"
         rx="8"
         ry="8" />
    </clipPath>
    <clipPath
       clipPathUnits="userSpaceOnUse"
       id="clipPath906">
      <rect
         style="display:inline;opacity:1;vector-effect:none;fill:none;fill-opacity:1;stroke:#000000;stroke-width:1;stroke-linecap:butt;stroke-linejoin:miter;stroke-miterlimit:4;stroke-dasharray:none;stroke-dashoffset:0;stroke-opacity:1;marker:none;marker-start:none;marker-mid:none;marker-end:none;paint-order:normal;enable-background:new"
         id="rect904"
         width="16"
         height="56"
         x="160"
         y="-188"
         rx="8"
         ry="8" />
    </clipPath>
    <clipPath
       clipPathUnits="userSpaceOnUse"
       id="clipPath910">
      <rect
         style="display:inline;opacity:1;vector-effect:none;fill:none;fill-opacity:1;stroke:#000000;stroke-width:1;stroke-linecap:butt;stroke-linejoin:miter;stroke-miterlimit:4;stroke-dasharray:none;stroke-dashoffset:0;stroke-opacity:1;marker:none;marker-start:none;marker-mid:none;marker-end:none;paint-order:normal;enable-background:new"
         id="rect908"
         width="16"
         height="56"
         x="160"
         y="-188"
         rx="8"
         ry="8" />
    </clipPath>
    <clipPath
       clipPathUnits="userSpaceOnUse"
       id="clipPath914">
      <rect
         style="display:inline;opacity:1;vector-effect:none;fill:none;fill-opacity:1;stroke:#000000;stroke-width:1;stroke-linecap:butt;stroke-linejoin:miter;stroke-miterlimit:4;stroke-dasharray:none;stroke-dashoffset:0;stroke-opacity:1;marker:none;marker-start:none;marker-mid:none;marker-end:none;paint-order:normal;enable-background:new"
         id="rect912"
         width="16"
         height="56"
         x="160"
         y="-188"
         rx="8"
         ry="8" />
    </clipPath>
    <clipPath
       clipPathUnits="userSpaceOnUse"
       id="clipPath918">
      <rect
         style="display:inline;opacity:1;vector-effect:none;fill:none;fill-opacity:1;stroke:#000000;stroke-width:1;stroke-linecap:butt;stroke-linejoin:miter;stroke-miterlimit:4;stroke-dasharray:none;stroke-dashoffset:0;stroke-opacity:1;marker:none;marker-start:none;marker-mid:none;marker-end:none;paint-order:normal;enable-background:new"
         id="rect916"
         width="16"
         height="56"
         x="160"
         y="-188"
         rx="8"
         ry="8" />
    </clipPath>
    <radialGradient
       inkscape:collect="always"
       xlink:href="#linearGradient897"
       id="radialGradient890"
       gradientUnits="userSpaceOnUse"
       gradientTransform="matrix(5.839995,-5.839995,0.11840586,0.11840586,-1978.0773,2498.3187)"
       cx="405"
       cy="151.00006"
       fx="405"
       fy="151.00006"
       r="48" />
    <linearGradient
       inkscape:collect="always"
       xlink:href="#linearGradient974"
       id="linearGradient992"
       gradientUnits="userSpaceOnUse"
       x1="48"
       y1="44"
       x2="464"
       y2="44"
       gradientTransform="matrix(0.25,0,0,0.25,158.25,254.25)" />
    <linearGradient
       id="linearGradient974"
       inkscape:collect="always">
      <stop
         id="stop962"
         offset="0"
         style="stop-color:#babdb6;stop-opacity:1" />
      <stop
         style="stop-color:#f6f5f4;stop-opacity:1"
         offset="0.04166667"
         id="stop964" />
      <stop
         id="stop966"
         offset="0.08333334"
         style="stop-color:#d5d3cf;stop-opacity:1" />
      <stop
         style="stop-color:#deddda;stop-opacity:1"
         offset="0.91666669"
         id="stop968" />
      <stop
         id="stop970"
         offset="0.95833331"
         style="stop-color:#f6f5f4;stop-opacity:1" />
      <stop
         id="stop972"
         offset="1"
         style="stop-color:#babdb6;stop-opacity:1" />
    </linearGradient>
    <linearGradient
       inkscape:collect="always"
       xlink:href="#linearGradient885"
       id="linearGradient969"
       gradientUnits="userSpaceOnUse"
       x1="512.87469"
       y1="281.1026"
       x2="-308.78336"
       y2="-24.367531" />
    <radialGradient
       inkscape:collect="always"
       xlink:href="#linearGradient897"
       id="radialGradient971"
       gradientUnits="userSpaceOnUse"
       gradientTransform="matrix(1.4599987,-1.4599987,0.02960147,0.02960147,-490.51932,677.57967)"
       cx="405"
       cy="151.00006"
       fx="405"
       fy="151.00006"
       r="48" />
    <linearGradient
       inkscape:collect="always"
       xlink:href="#linearGradient987"
       id="linearGradient973"
       gradientUnits="userSpaceOnUse"
       x1="461.96304"
       y1="204"
       x2="45.963043"
       y2="204" />
  </defs>
  <sodipodi:namedview
     stroke="#ef2929"
     fill="#f57900"
     id="base"
     pagecolor="#ffffff"
     bordercolor="#666666"
     borderopacity="0.25490196"
     inkscape:pageopacity="0.0"
     inkscape:pageshadow="2"
     inkscape:zoom="1"
     inkscape:cx="37.965446"
     inkscape:cy="75.449196"
     inkscape:current-layer="layer9"
     showgrid="false"
     inkscape:grid-bbox="true"
     inkscape:document-units="px"
     inkscape:showpageshadow="false"
     inkscape:window-width="1920"
     inkscape:window-height="1016"
     inkscape:window-x="0"
     inkscape:window-y="27"
     width="400px"
     height="300px"
     inkscape:snap-nodes="true"
     inkscape:snap-bbox="true"
     objecttolerance="7"
     gridtolerance="12"
     guidetolerance="13"
     inkscape:window-maximized="1"
     inkscape:pagecheckerboard="false"
     showguides="false"
     inkscape:guide-bbox="true"
     inkscape:locked="false"
     inkscape:measure-start="0,0"
     inkscape:measure-end="0,0"
     inkscape:object-nodes="true"
     inkscape:bbox-nodes="true"
     inkscape:snap-global="true"
     inkscape:object-paths="true"
     inkscape:snap-intersection-paths="true"
     inkscape:snap-bbox-edge-midpoints="true"
     inkscape:snap-bbox-midpoints="true"
     showborder="false"
     inkscape:snap-center="true"
     inkscape:snap-object-midpoints="true"
     inkscape:snap-midpoints="true"
     inkscape:snap-smooth-nodes="true"
     inkscape:snap-text-baseline="true">
    <inkscape:grid
       type="xygrid"
       id="grid5883"
       spacingx="2"
       spacingy="2"
       enabled="true"
       visible="true"
       empspacing="4"
       originx="0"
       originy="0" />
    <sodipodi:guide
       position="64,8"
       orientation="0,1"
       id="guide1073"
       inkscape:locked="false"
       inkscape:label=""
       inkscape:color="rgb(0,0,255)" />
    <sodipodi:guide
       position="12,64"
       orientation="1,0"
       id="guide1075"
       inkscape:locked="false"
       inkscape:label=""
       inkscape:color="rgb(0,0,255)" />
    <sodipodi:guide
       position="64,104"
       orientation="0,1"
       id="guide1099"
       inkscape:locked="false"
       inkscape:label=""
       inkscape:color="rgb(0,0,255)" />
    <sodipodi:guide
       position="64,128"
       orientation="0,1"
       id="guide993"
       inkscape:locked="false"
       inkscape:label=""
       inkscape:color="rgb(0,0,255)" />
    <sodipodi:guide
       position="104,64"
       orientation="1,0"
       id="guide995"
       inkscape:locked="false"
       inkscape:label=""
       inkscape:color="rgb(0,0,255)" />
    <sodipodi:guide
       position="9.2651362e-08,64"
       orientation="1,0"
       id="guide867"
       inkscape:locked="false"
       inkscape:label=""
       inkscape:color="rgb(0,0,255)" />
    <sodipodi:guide
       position="120,64"
       orientation="1,0"
       id="guide869"
       inkscape:locked="false"
       inkscape:label=""
       inkscape:color="rgb(0,0,255)" />
    <sodipodi:guide
       position="64,116"
       orientation="0,1"
       id="guide871"
       inkscape:locked="false"
       inkscape:label=""
       inkscape:color="rgb(0,0,255)" />
    <inkscape:grid
       type="xygrid"
       id="grid873"
       spacingx="1"
       spacingy="1"
       empspacing="8"
       color="#000000"
       opacity="0.49019608"
       empcolor="#000000"
       empopacity="0.08627451"
       dotted="true" />
    <sodipodi:guide
       position="24,64"
       orientation="1,0"
       id="guide877"
       inkscape:locked="false"
       inkscape:label=""
       inkscape:color="rgb(0,0,255)" />
    <sodipodi:guide
       position="116,64"
       orientation="1,0"
       id="guide879"
       inkscape:locked="false"
       inkscape:label=""
       inkscape:color="rgb(0,0,255)" />
    <sodipodi:guide
       position="64,120"
       orientation="0,1"
       id="guide881"
       inkscape:locked="false"
       inkscape:label=""
       inkscape:color="rgb(0,0,255)" />
    <sodipodi:guide
       position="64,12"
       orientation="0,1"
       id="guide883"
       inkscape:locked="false"
       inkscape:label=""
       inkscape:color="rgb(0,0,255)" />
    <sodipodi:guide
       position="8,64"
       orientation="1,0"
       id="guide885"
       inkscape:locked="false"
       inkscape:label=""
       inkscape:color="rgb(0,0,255)" />
    <sodipodi:guide
       position="128,64"
       orientation="1,0"
       id="guide887"
       inkscape:locked="false"
       inkscape:label=""
       inkscape:color="rgb(0,0,255)" />
    <sodipodi:guide
       position="64,0"
       orientation="0,1"
       id="guide897"
       inkscape:locked="false"
       inkscape:label=""
       inkscape:color="rgb(0,0,255)" />
    <sodipodi:guide
       position="64,24"
       orientation="0,1"
       id="guide899"
       inkscape:locked="false"
       inkscape:label=""
       inkscape:color="rgb(0,0,255)" />
    <sodipodi:guide
       position="256,256"
       orientation="-0.70710678,0.70710678"
       id="guide950"
       inkscape:locked="false"
       inkscape:label=""
       inkscape:color="rgb(0,0,255)" />
    <sodipodi:guide
       position="64,64"
       orientation="0.70710678,0.70710678"
       id="guide952"
       inkscape:locked="false"
       inkscape:label=""
       inkscape:color="rgb(0,0,255)" />
  </sodipodi:namedview>
  <metadata
     id="metadata4">
    <rdf:RDF>
      <cc:Work
         rdf:about="">
        <dc:format>image/svg+xml</dc:format>
        <dc:type
           rdf:resource="http://purl.org/dc/dcmitype/StillImage" />
        <dc:creator>
          <cc:Agent>
            <dc:title>GNOME Design Team</dc:title>
          </cc:Agent>
        </dc:creator>
        <dc:source />
        <cc:license
           rdf:resource="http://creativecommons.org/licenses/by-sa/4.0/" />
        <dc:title>Adwaita Icon Template</dc:title>
        <dc:subject>
          <rdf:Bag />
        </dc:subject>
        <dc:date />
        <dc:rights>
          <cc:Agent>
            <dc:title />
          </cc:Agent>
        </dc:rights>
        <dc:publisher>
          <cc:Agent>
            <dc:title />
          </cc:Agent>
        </dc:publisher>
        <dc:identifier />
        <dc:relation />
        <dc:language />
        <dc:coverage />
        <dc:description />
        <dc:contributor>
          <cc:Agent>
            <dc:title />
          </cc:Agent>
        </dc:contributor>
      </cc:Work>
      <cc:License
         rdf:about="http://creativecommons.org/licenses/by-sa/4.0/">
        <cc:permits
           rdf:resource="http://creativecommons.org/ns#Reproduction" />
        <cc:permits
           rdf:resource="http://creativecommons.org/ns#Distribution" />
        <cc:requires
           rdf:resource="http://creativecommons.org/ns#Notice" />
        <cc:requires
           rdf:resource="http://creativecommons.org/ns#Attribution" />
        <cc:permits
           rdf:resource="http://creativecommons.org/ns#DerivativeWorks" />
        <cc:requires
           rdf:resource="http://creativecommons.org/ns#ShareAlike" />
      </cc:License>
    </rdf:RDF>
  </metadata>
  <g
     id="layer1"
     inkscape:label="App Icon"
     inkscape:groupmode="layer"
     style="display:inline"
     transform="translate(0,-172)">
    <g
       inkscape:groupmode="layer"
       id="layer2"
       inkscape:label="baseplate"
       style="display:none"
       sodipodi:insensitive="true">
      <text
         xml:space="preserve"
         style="font-style:normal;font-variant:normal;font-weight:normal;font-stretch:normal;font-size:5.33333349px;line-height:125%;font-family:Cantarell;-inkscape-font-specification:'Cantarell, Normal';text-align:start;writing-mode:lr-tb;text-anchor:start;display:inline;fill:#000000;fill-opacity:1;stroke:none;stroke-width:0.33264872;enable-background:new"
         x="-0.050041199"
         y="128.65199"
         id="context"
         inkscape:label="context"><tspan
           sodipodi:role="line"
           id="tspan2716"
           x="-0.050041199"
           y="128.65199"
           style="font-size:5.33333349px;stroke-width:0.33264872">apps</tspan></text>
      <text
         inkscape:label="icon-name"
         id="text3021"
         y="137.23398"
         x="-0.24669456"
         style="font-style:normal;font-variant:normal;font-weight:bold;font-stretch:normal;font-size:5.33333349px;line-height:125%;font-family:Cantarell;-inkscape-font-specification:'Cantarell, Bold';text-align:start;writing-mode:lr-tb;text-anchor:start;display:inline;fill:#000000;fill-opacity:1;stroke:none;stroke-width:0.33264872;enable-background:new"
         xml:space="preserve"><tspan
           y="137.23398"
           x="-0.24669456"
           id="tspan3023"
           sodipodi:role="line"
           style="font-size:5.33333349px;stroke-width:0.33264872">org.gnome.Notes</tspan></text>
      <g
         style="display:inline;fill:#000000;enable-background:new"
         transform="matrix(7.9911709,0,0,8.0036407,-167.7909,-4846.0776)"
         id="g12027"
         inkscape:export-xdpi="12"
         inkscape:export-ydpi="12" />
      <rect
         style="display:inline;overflow:visible;visibility:visible;fill:#f0f0f0;fill-opacity:1;fill-rule:nonzero;stroke:none;stroke-width:0.5;marker:none;enable-background:accumulate"
         id="rect13805"
         width="128"
         height="128"
         x="9.2651362e-08"
         y="172"
         inkscape:label="512x512" />
      <g
         id="g883"
         style="fill:none;fill-opacity:0.25098039;stroke:#a579b3;stroke-opacity:1"
         transform="translate(-24,24)" />
      <g
         id="g900"
         style="fill:none;fill-opacity:0.25098039;stroke:#a579b3;stroke-opacity:1"
         transform="translate(-24,24)" />
      <rect
         inkscape:label="512x512"
         y="172"
         x="160"
         height="16"
         width="16"
         id="rect859"
         style="display:inline;overflow:visible;visibility:visible;fill:#f0f0f0;fill-opacity:1;fill-rule:nonzero;stroke:none;stroke-width:0.5;marker:none;enable-background:accumulate" />
      <text
         xml:space="preserve"
         style="font-style:normal;font-variant:normal;font-weight:bold;font-stretch:normal;font-size:4px;line-height:125%;font-family:Cantarell;-inkscape-font-specification:'Cantarell, Bold';text-align:start;writing-mode:lr-tb;text-anchor:start;display:inline;fill:#000000;fill-opacity:1;stroke:none;stroke-width:0.33264872;enable-background:new"
         x="0"
         y="164"
         id="text863"
         inkscape:label="icon-name"><tspan
           style="font-size:4px;stroke-width:0.33264872"
           sodipodi:role="line"
           id="tspan861"
           x="0"
           y="164">Hicolor</tspan></text>
      <text
         inkscape:label="icon-name"
         id="text867"
         y="164"
         x="160"
         style="font-style:normal;font-variant:normal;font-weight:bold;font-stretch:normal;font-size:4px;line-height:125%;font-family:Cantarell;-inkscape-font-specification:'Cantarell, Bold';text-align:start;writing-mode:lr-tb;text-anchor:start;display:inline;fill:#000000;fill-opacity:1;stroke:none;stroke-width:0.33264872;enable-background:new"
         xml:space="preserve"><tspan
           y="164"
           x="160"
           id="tspan865"
           sodipodi:role="line"
           style="font-size:4px;stroke-width:0.33264872">Symbolic</tspan></text>
    </g>
    <g
       inkscape:groupmode="layer"
       id="layer3"
       inkscape:label="hairlines"
       style="display:none"
       sodipodi:insensitive="true">
      <circle
         cx="64.000031"
         cy="236"
         r="59.504131"
         id="circle2892"
         style="display:inline;opacity:0.1;vector-effect:none;fill:none;fill-opacity:1;stroke:#000000;stroke-width:0.99000001;stroke-linecap:butt;stroke-linejoin:miter;stroke-miterlimit:4;stroke-dasharray:0.99000001, 0.99000001;stroke-dashoffset:0;stroke-opacity:1;marker:none;marker-start:none;marker-mid:none;marker-end:none;paint-order:normal;enable-background:new" />
      <rect
         ry="7.9292889"
         rx="8.701004"
         y="180.49496"
         x="20.495007"
         height="111.01005"
         width="87.009987"
         id="rect2894"
         style="display:inline;opacity:0.1;vector-effect:none;fill:none;fill-opacity:1;stroke:#000000;stroke-width:0.99000001;stroke-linecap:butt;stroke-linejoin:miter;stroke-miterlimit:4;stroke-dasharray:0.99000001, 0.99000001;stroke-dashoffset:0;stroke-opacity:1;marker:none;marker-start:none;marker-mid:none;marker-end:none;paint-order:normal;enable-background:new" />
      <rect
         ry="7.9238095"
         rx="7.9238095"
         y="184.49524"
         x="12.495266"
         height="103.00952"
         width="103.00952"
         id="rect2896"
         style="display:inline;opacity:0.1;vector-effect:none;fill:none;fill-opacity:1;stroke:#000000;stroke-width:0.99000001;stroke-linecap:butt;stroke-linejoin:miter;stroke-miterlimit:4;stroke-dasharray:0.99000001, 0.99000001;stroke-dashoffset:0;stroke-opacity:1;marker:none;marker-start:none;marker-mid:none;marker-end:none;paint-order:normal;enable-background:new" />
      <rect
         ry="8.701005"
         rx="7.9292889"
         y="200.49496"
         x="8.4950066"
         height="87.010048"
         width="111.01004"
         id="rect2898"
         style="display:inline;opacity:0.1;vector-effect:none;fill:none;fill-opacity:1;stroke:#000000;stroke-width:0.99000001;stroke-linecap:butt;stroke-linejoin:miter;stroke-miterlimit:4;stroke-dasharray:0.99000001, 0.99000001;stroke-dashoffset:0;stroke-opacity:1;marker:none;marker-start:none;marker-mid:none;marker-end:none;paint-order:normal;enable-background:new" />
      <path
         inkscape:connector-curvature="0"
         id="path2900"
         d="M 2.6203015e-5,288.99999 H 128.00003"
         style="display:inline;fill:none;stroke:#62a0ea;stroke-width:2;stroke-linecap:butt;stroke-linejoin:miter;stroke-miterlimit:4;stroke-dasharray:none;stroke-opacity:1;enable-background:new" />
    </g>
    <g
       inkscape:groupmode="layer"
       id="layer9"
       inkscape:label="icons"
       style="display:inline">
      <g
         transform="matrix(0.25,0,0,0.25,0.5092392,225)"
         style="display:inline;enable-background:new"
         id="g899">
        <rect
           style="opacity:1;vector-effect:none;fill:url(#linearGradient973);fill-opacity:1.0;stroke:none;stroke-width:24.00000191;stroke-linecap:round;stroke-linejoin:miter;stroke-miterlimit:4;stroke-dasharray:none;stroke-dashoffset:0;stroke-opacity:1;marker:none;marker-start:none;marker-mid:none;marker-end:none;paint-order:normal"
           id="rect884"
           width="416"
           height="400"
           x="45.963039"
           y="-148"
           rx="32"
           ry="32" />
        <rect
           style="display:inline;opacity:1;vector-effect:none;fill:#f9f06b;fill-opacity:1;stroke:none;stroke-width:24;stroke-linecap:round;stroke-linejoin:miter;stroke-miterlimit:4;stroke-dasharray:none;stroke-dashoffset:0;stroke-opacity:1;marker:none;marker-start:none;marker-mid:none;marker-end:none;paint-order:normal;enable-background:new"
           id="rect886"
           width="416"
           height="367.99997"
           x="45.963043"
           y="-164"
           rx="32"
           ry="32" />
        <g
           id="g892"
           transform="translate(13.96304,-1e-5)"
           style="stroke-width:0.99999994">
          <path
             inkscape:connector-curvature="0"
             style="display:inline;opacity:1;vector-effect:none;fill:#f8ed4a;fill-opacity:1;stroke:none;stroke-width:5.99999952;stroke-linecap:round;stroke-linejoin:miter;stroke-miterlimit:4;stroke-dasharray:none;stroke-dashoffset:0;stroke-opacity:1;marker:none;marker-start:none;marker-mid:none;marker-end:none;paint-order:normal;enable-background:new"
             d="m 116,80 -24,24 h 16 c 4.432,0 8,-3.568 8,-8 z"
             transform="matrix(4,0,0,4,-16,-211.99999)"
             id="path888" />
          <path
             inkscape:connector-curvature="0"
             style="display:inline;opacity:1;vector-effect:none;fill:url(#radialGradient902);fill-opacity:1;stroke:none;stroke-width:5.99999952;stroke-linecap:round;stroke-linejoin:miter;stroke-miterlimit:4;stroke-dasharray:none;stroke-dashoffset:0;stroke-opacity:1;marker:none;marker-start:none;marker-mid:none;marker-end:none;paint-order:normal;enable-background:new"
             d="m 100,80 c -4.432,0 -8,3.568 -8,8 v 16 l 24,-24 z"
             transform="matrix(4,0,0,4,-16,-211.99999)"
             id="path890" />
        </g>
      </g>
      <g
         id="g884"
         style="display:inline;enable-background:new"
         transform="matrix(0.25,0,0,0.25,-179.49076,225)">
        <rect
           ry="0"
           rx="0"
           y="-148"
           x="45.963039"
           height="400"
           width="416"
           id="rect872"
           style="opacity:1;vector-effect:none;fill:url(#linearGradient887);fill-opacity:1;stroke:none;stroke-width:24.00000191;stroke-linecap:round;stroke-linejoin:miter;stroke-miterlimit:4;stroke-dasharray:none;stroke-dashoffset:0;stroke-opacity:1;marker:none;marker-start:none;marker-mid:none;marker-end:none;paint-order:normal" />
        <rect
           ry="0"
           rx="0"
           y="-164"
           x="45.963043"
           height="367.99997"
           width="416"
           id="rect874"
           style="display:inline;opacity:1;vector-effect:none;fill:#f9f06b;fill-opacity:1;stroke:none;stroke-width:24;stroke-linecap:round;stroke-linejoin:miter;stroke-miterlimit:4;stroke-dasharray:none;stroke-dashoffset:0;stroke-opacity:1;marker:none;marker-start:none;marker-mid:none;marker-end:none;paint-order:normal;enable-background:new" />
        <g
           style="stroke-width:0.99999994"
           transform="translate(13.96304,-1e-5)"
           id="g880">
          <path
             style="display:inline;opacity:1;vector-effect:none;fill:#f8ed4a;fill-opacity:1;stroke:none;stroke-width:23.99999809;stroke-linecap:round;stroke-linejoin:miter;stroke-miterlimit:4;stroke-dasharray:none;stroke-dashoffset:0;stroke-opacity:1;marker:none;marker-start:none;marker-mid:none;marker-end:none;paint-order:normal;enable-background:new"
             d="m 448,108.00001 v 96 h -96 z"
             id="path876"
             inkscape:connector-curvature="0"
             sodipodi:nodetypes="cccc" />
          <path
             style="display:inline;opacity:1;vector-effect:none;fill:url(#radialGradient890);fill-opacity:1;stroke:none;stroke-width:23.99999809;stroke-linecap:round;stroke-linejoin:miter;stroke-miterlimit:4;stroke-dasharray:none;stroke-dashoffset:0;stroke-opacity:1;marker:none;marker-start:none;marker-mid:none;marker-end:none;paint-order:normal;enable-background:new"
             d="m 352,204.00001 v -96 h 96 z"
             id="path878"
             inkscape:connector-curvature="0"
             sodipodi:nodetypes="cccc" />
        </g>
        <rect
           ry="0"
           rx="0"
           y="-164"
           x="45.963043"
           height="63.999996"
           width="416"
           id="rect882"
           style="display:inline;opacity:1;vector-effect:none;fill:#faf385;fill-opacity:1;stroke:none;stroke-width:23.99999809;stroke-linecap:round;stroke-linejoin:miter;stroke-miterlimit:4;stroke-dasharray:none;stroke-dashoffset:0;stroke-opacity:1;marker:none;marker-start:none;marker-mid:none;marker-end:none;paint-order:normal;enable-background:new" />
      </g>
      <path
         id="path886"
         d="m -146.88867,196.56055 c -0.0405,0.0101 -0.06,0.0663 -0.0215,0.20507 0.45803,0.15308 0.14295,-0.2353 0.0215,-0.20507 z m 4.26562,0 c -0.0405,0.0101 -0.058,0.0663 -0.0195,0.20507 0.45803,0.15308 0.141,-0.2353 0.0195,-0.20507 z m 28.65235,0.39843 c -0.22518,0.0605 -0.53675,0.30988 -0.94532,0.82813 -0.30739,0.47428 -0.55606,0.98448 -0.78125,1.50195 -0.15989,0.15477 -0.26736,0.28888 -0.34765,0.41211 -0.38718,-1.47285 -3.60658,-0.56248 -1.37696,0.78125 0.39349,0.17988 1.54013,0.99332 1.37696,-0.0898 0.38534,0.32194 1.37154,0.26804 1.73047,0.15234 0.0141,0.22074 0.0646,0.45925 0.20703,0.74219 -1.46572,0.29441 -2.09804,1.5608 -2.08008,2.36914 0.76704,-0.88483 2.23246,-1.20749 0.61914,0.18945 -0.15321,0.11478 -0.32296,0.20407 -0.48437,0.30664 0.26957,0.38824 0.9264,0.2575 1.89257,-1.14257 0.73536,-1.04564 1.68949,-2.22605 3.07032,-2.31641 3.13921,-1.40644 -3.08236,-2.48961 -3.22461,-0.30664 -0.15702,-0.0346 -0.42953,-0.0634 -0.87305,-0.0742 1.53538,-0.33002 2.19258,-3.6158 1.2168,-3.35352 z m -2.08203,7.19336 c -0.0847,-0.12203 -0.13026,-0.29286 -0.13477,-0.49609 -0.2138,0.24664 -0.3829,0.52932 -0.4043,0.83984 0.18663,-0.10319 0.35905,-0.22935 0.53907,-0.34375 z m -18.53321,-6.58398 c -0.4179,0.10159 -1.1481,0.58642 -1.57812,1.11914 -1.53004,1.60886 -4.14624,3.27049 -4.00782,5.66797 0.0937,-0.25369 0.17941,-0.50915 0.29493,-0.75391 0.87699,-1.59739 0.92361,-0.49047 0.42968,0.40235 1.45005,-1.295 2.60833,-3.08524 4.30079,-4.01563 -0.43196,-0.0929 -0.54351,-0.55058 0.26171,-1.24023 0.82125,-0.9995 0.71673,-1.28129 0.29883,-1.17969 z m -0.56054,2.41992 c 0.30238,0.065 0.75495,-0.0559 1.1875,-0.41797 -0.7604,1.43585 0.89402,2.01475 1.69335,0.38281 -0.14473,-0.69896 -0.92889,-1.75647 -1.5039,-0.71875 -0.0702,0.0946 -0.0974,0.17496 -0.14844,0.26368 -0.4467,0.10391 -0.84736,0.2807 -1.22851,0.49023 z m -4.30079,4.01563 c -0.22966,0.20511 -0.46244,0.40265 -0.71093,0.57617 -0.01,-0.0765 -0.009,-0.14962 -0.0137,-0.22461 -0.0555,0.15037 -0.12331,0.29517 -0.17383,0.44726 0.39148,-0.074 0.6879,-0.41826 0.89844,-0.79882 z m 37.81446,-6.40821 c -0.15392,-0.0287 -0.40805,0.008 -0.79492,0.13086 -2.75625,1.26727 -0.80983,4.09514 1.48437,2.8125 0.85229,0.0564 1.692458,0.17524 2.568359,0.25 1.30432,-1.34452 -3.333979,-1.9702 -3.962889,-0.27539 -0.7694,-0.46049 1.58552,-2.75361 0.70508,-2.91797 z m -12.18555,0.004 c 0.31621,0.10081 0.30479,0.68611 -0.98047,1.45508 0.0204,-1.1722 0.66426,-1.55589 0.98047,-1.45508 z m 18.082031,1.21094 c -0.156747,0.0358 -0.313277,0.16439 -0.457031,0.42382 -1.247813,1.68249 0.644795,2.47671 1.505859,0.71875 -0.108547,-0.52422 -0.578588,-1.24989 -1.048828,-1.14257 z m -57.537111,0.0371 c -0.79141,0.0785 -0.90446,0.51095 -0.66797,0.99609 0.0267,-0.23221 0.0846,-0.45686 0.23438,-0.64063 1.45307,-0.77546 1.60731,1.3958 0.25976,1.28516 0.38055,0.36405 0.88652,0.67546 1.39649,0.81445 -0.90414,0.94083 -1.63191,2.05469 -2.08594,3.24219 1.26543,-0.54141 1.97504,-2.07974 2.89453,-3.20312 0.38888,-0.0826 0.71496,-0.35053 0.91211,-0.86719 0.43352,-0.28432 0.93137,-0.44518 1.54492,-0.39063 1.31216,1.51105 1.74371,-1.27559 0.25586,-1.0957 -0.78051,0.27107 -1.5146,0.67933 -2.19531,1.16992 -1.43985,0.63988 -1.48275,-0.78653 -1.90234,-1.30664 -0.25232,-0.0221 -0.4666,-0.0217 -0.64649,-0.004 z m -0.17383,1.64062 c -0.21933,-0.20982 -0.38966,-0.43021 -0.49414,-0.64453 -0.0199,0.17318 -0.0271,0.3494 -0.0234,0.51562 0.19385,0.0804 0.36348,0.11626 0.51758,0.12891 z m 23.125,-1.54492 c -0.85906,0.008 -1.64043,0.68696 -0.22656,1.53906 0.39554,0.18081 1.55476,1.00521 1.37695,-0.10351 0.0173,-0.0777 0.0162,-0.14227 0.0234,-0.21289 1.6103,-1.53819 3.15873,1.52304 5.14258,0.39648 -1.10438,-1.37912 -3.85738,-2.0226 -5.13281,-0.66211 -0.0545,-0.68419 -0.63099,-0.96232 -1.18359,-0.95703 z m -13.93945,0.0449 c -2.53045,0.8788 -4.65542,3.06671 -5.60742,5.55664 2.13715,-0.91438 2.67052,-4.6993 5.35156,-4.46094 1.31216,1.51105 1.74371,-1.27559 0.25586,-1.0957 z m 22.78906,0.13867 c -0.0782,0.0322 -0.11998,0.15791 -0.0625,0.44532 0.85406,0.20826 0.29706,-0.5419 0.0625,-0.44532 z m -0.32617,0.004 c -0.85567,1.41124 2.30769,3.51969 3.20508,1.15625 -0.32715,-0.40637 -0.9644,-0.14163 -1.37305,-0.082 -1.60509,0.77972 -1.40055,0.0239 -1.83203,-1.07422 z m 31.207032,0.2168 c -1.144937,-0.0118 -2.338584,0.22125 -3.296875,0.56836 2.138829,0.10863 4.22526,1.71272 6.300781,0.33593 -0.761966,-0.63431 -1.858969,-0.89247 -3.003906,-0.90429 z m -42.740232,0.10156 c 0.0993,-0.0403 0.24401,0.0768 0.42773,0.5039 -0.62245,1.15544 -0.72559,-0.38308 -0.42773,-0.5039 z m 37.57617,0 c 0.09929,-0.0403 0.244012,0.0768 0.427734,0.5039 -0.622456,1.15544 -0.725595,-0.38308 -0.427734,-0.5039 z m 10.648437,0.0527 c -0.839676,0.0685 -1.638918,0.37889 -1.871094,1.01758 1.357317,-0.0793 2.616509,0.15444 3.964844,0.26953 0.816278,-0.84144 -0.69429,-1.40125 -2.09375,-1.28711 z m -16.230467,1.00977 c 0.009,3.5e-4 0.0182,0.002 0.0273,0.002 -0.53832,0.12001 -0.84463,0.10269 -1.01758,0.006 0.33455,-0.019 0.66465,-0.0202 0.99023,-0.008 z m -39.0918,11.54883 c -0.49879,-0.0508 -1.88648,0.66402 -2.16797,1.4414 -1.44382,2.4003 1.52409,2.68048 2.97461,1.51758 0.0204,1.70973 2.25917,1.46186 1.02149,-0.12695 -0.27185,-0.14298 -0.58469,-0.0864 -0.86914,0.002 0.0993,-0.0941 0.18992,-0.19509 0.26757,-0.30469 -1.77485,0.19843 -3.81158,0.59685 -1.71875,-1.46093 0.77037,-0.73199 0.79147,-1.03788 0.49219,-1.06836 z m 11.51563,0 c -0.4988,-0.0508 -1.88649,0.66402 -2.16797,1.4414 -1.567,2.60505 2.06119,2.71456 3.30664,1.18946 -0.50142,1.34538 2.18708,3.09256 3.16406,1.21679 0.94398,0.0453 1.86569,0.18509 2.83203,0.26758 1.19319,-1.23 -2.5787,-1.85371 -3.71289,-0.6543 -0.1289,0.0282 -0.26981,0.0547 -0.37695,0.0703 -1.6051,0.77972 -1.40056,0.0239 -1.83203,-1.07422 -0.0154,0.0254 -0.0204,0.0523 -0.0332,0.0781 -1.76327,0.20001 -3.74597,0.57256 -1.67188,-1.46679 0.77036,-0.73199 0.79147,-1.03788 0.49219,-1.06836 z m -9.32617,1.04297 c -0.27346,0.0242 -0.37285,0.20692 0.25195,0.6621 1.14105,-0.30351 0.20381,-0.70243 -0.25195,-0.6621 z m 5.41015,0 c -0.27346,0.0242 -0.3748,0.20692 0.25,0.6621 1.14105,-0.30351 0.20576,-0.70243 -0.25,-0.6621 z m -20.44336,1.13085 c -0.79141,0.0785 -0.90446,0.51096 -0.66797,0.9961 0.0267,-0.23222 0.0846,-0.45882 0.23438,-0.64258 1.45307,-0.77546 1.60731,1.39774 0.25976,1.28711 0.94308,0.9022 2.68766,1.5069 3.17969,-0.19141 0.54004,-0.43118 -0.88401,-1.02496 -1.52734,-0.082 -0.44665,-0.2881 -0.55713,-1.02253 -0.83203,-1.36328 -0.25232,-0.0221 -0.4666,-0.0217 -0.64649,-0.004 z m -0.17383,1.64051 c -0.21933,-0.20983 -0.38966,-0.43021 -0.49414,-0.64453 -0.0199,0.17318 -0.0271,0.3494 -0.0234,0.51562 0.19385,0.0804 0.36348,0.11626 0.51758,0.12891 z m 5.00391,-1.47461 c -0.4779,0.0437 -0.55198,1.08678 -0.44336,2.01172 0.70289,0.004 1.40185,-0.61625 1.36524,-1.34766 -0.40404,-0.49794 -0.70465,-0.68393 -0.92188,-0.66406 z m 21.07031,0.11328 c -0.0782,0.0322 -0.12193,0.15791 -0.0644,0.44531 0.85406,0.20827 0.29902,-0.54189 0.0644,-0.44531 z m -7.125,0.0879 c -0.28751,-0.002 -0.57565,0.0163 -0.85937,0.0723 -1.35666,0.32702 -2.43276,1.56826 -3.16992,2.85742 1.2766,-0.58548 1.28132,0.15308 0.77734,1.0293 1.2609,-1.01617 2.40653,-2.18791 3.54687,-3.33985 0.18312,1.48938 2.19938,1.19646 1.01172,-0.32812 -0.1966,-0.10341 -0.41381,-0.0951 -0.6289,-0.0566 0.0612,-0.0613 0.12228,-0.12454 0.18359,-0.18555 -0.28548,-0.0253 -0.57382,-0.0467 -0.86133,-0.0488 z m -3.25195,3.95898 c -0.55712,0.44899 -1.13194,0.87129 -1.74609,1.24023 0.17582,-0.63226 0.50596,-1.4602 0.96875,-2.26953 -0.0166,0.008 -0.0279,0.01 -0.0449,0.0176 -0.74415,0.77949 -1.11444,1.82549 -1.41602,2.83789 0.75057,0.0334 1.74016,-0.96014 2.23828,-1.82617 z m -5.32031,-3.37891 c -0.16268,-0.0205 -0.29976,0.11976 -0.15625,0.60156 0.76934,-0.0872 0.42737,-0.56745 0.15625,-0.60156 z m 11.51562,0 c -0.16267,-0.0205 -0.29976,0.11976 -0.15625,0.60156 0.76934,-0.0872 0.42738,-0.56745 0.15625,-0.60156 z"
         style="font-style:normal;font-variant:normal;font-weight:normal;font-stretch:normal;font-size:medium;line-height:125%;font-family:'SANTOS DUMONT';-inkscape-font-specification:'SANTOS DUMONT';text-align:start;letter-spacing:0px;word-spacing:0px;writing-mode:lr-tb;text-anchor:start;display:inline;opacity:0.8;fill:#865e3c;fill-opacity:1;stroke:none;stroke-width:0.38647205;enable-background:new"
         inkscape:connector-curvature="0" />
      <rect
         style="display:inline;opacity:1;vector-effect:none;fill:#f8e45c;fill-opacity:1;stroke:none;stroke-width:7.90183401;stroke-linecap:round;stroke-linejoin:round;stroke-miterlimit:4;stroke-dasharray:none;stroke-dashoffset:0;stroke-opacity:1;marker:none;marker-start:none;marker-mid:none;marker-end:none;paint-order:normal;enable-background:new"
         id="rect892"
         width="79.999947"
         height="8"
         x="24"
         y="196" />
      <rect
         y="212"
         x="24"
         height="8"
         width="42"
         id="rect894"
         style="display:inline;opacity:1;vector-effect:none;fill:#f8e45c;fill-opacity:1;stroke:none;stroke-width:5.72542477;stroke-linecap:round;stroke-linejoin:round;stroke-miterlimit:4;stroke-dasharray:none;stroke-dashoffset:0;stroke-opacity:1;marker:none;marker-start:none;marker-mid:none;marker-end:none;paint-order:normal;enable-background:new" />
      <path
         style="display:inline;fill:#000000;fill-opacity:0.05905512;stroke:none;stroke-width:1px;stroke-linecap:butt;stroke-linejoin:miter;stroke-opacity:1;enable-background:new"
         d="M 116,272.6543 C 115.9178,276.74491 112.61929,280 108.50781,280 h -0.5 v 1 h 0.5 c 3.24611,0 6.0601,-1.81286 7.49219,-4.48242 z M 73.999999,280 108,281 v -1 z"
         id="path1247"
         inkscape:connector-curvature="0"
         sodipodi:nodetypes="csccscccccc" />
      <path
         style="display:inline;fill:#000000;fill-opacity:0.04313726;stroke:none;stroke-width:1px;stroke-linecap:butt;stroke-linejoin:miter;stroke-opacity:1;enable-background:new"
         d="M 116,276.6543 C 115.9178,280.74491 112.61929,284 108.50781,284 h -0.5 v 1 h 0.5 c 3.22393,0 6.02184,-1.7881 7.46289,-4.42773 C 115.9841,280.38252 116,280.19325 116,280 Z M 73.999999,284 108,285 v -1 z"
         id="path1245"
         inkscape:connector-curvature="0"
         sodipodi:nodetypes="csccscsccccc" />
      <g
         id="g967"
         transform="translate(-300)">
        <g
           transform="matrix(0.25,0,0,0.25,0.5092392,225)"
           style="display:inline;enable-background:new"
           id="g947">
          <rect
             style="opacity:1;vector-effect:none;fill:url(#linearGradient969);fill-opacity:1;stroke:none;stroke-width:24.00000191;stroke-linecap:round;stroke-linejoin:miter;stroke-miterlimit:4;stroke-dasharray:none;stroke-dashoffset:0;stroke-opacity:1;marker:none;marker-start:none;marker-mid:none;marker-end:none;paint-order:normal"
             id="rect937"
             width="416"
             height="400"
             x="45.963039"
             y="-148"
             rx="32"
             ry="32" />
          <rect
             style="display:inline;opacity:1;vector-effect:none;fill:#f9f06b;fill-opacity:1;stroke:none;stroke-width:24;stroke-linecap:round;stroke-linejoin:miter;stroke-miterlimit:4;stroke-dasharray:none;stroke-dashoffset:0;stroke-opacity:1;marker:none;marker-start:none;marker-mid:none;marker-end:none;paint-order:normal;enable-background:new"
             id="rect939"
             width="416"
             height="367.99997"
             x="45.963043"
             y="-164"
             rx="32"
             ry="32" />
          <g
             id="g945"
             transform="translate(13.96304,-1e-5)"
             style="stroke-width:0.99999994">
            <path
               inkscape:connector-curvature="0"
               style="display:inline;opacity:1;vector-effect:none;fill:#f8ed4a;fill-opacity:1;stroke:none;stroke-width:5.99999952;stroke-linecap:round;stroke-linejoin:miter;stroke-miterlimit:4;stroke-dasharray:none;stroke-dashoffset:0;stroke-opacity:1;marker:none;marker-start:none;marker-mid:none;marker-end:none;paint-order:normal;enable-background:new"
               d="m 116,80 -24,24 h 16 c 4.432,0 8,-3.568 8,-8 z"
               transform="matrix(4,0,0,4,-16,-211.99999)"
               id="path941" />
            <path
               inkscape:connector-curvature="0"
               style="display:inline;opacity:1;vector-effect:none;fill:url(#radialGradient971);fill-opacity:1;stroke:none;stroke-width:5.99999952;stroke-linecap:round;stroke-linejoin:miter;stroke-miterlimit:4;stroke-dasharray:none;stroke-dashoffset:0;stroke-opacity:1;marker:none;marker-start:none;marker-mid:none;marker-end:none;paint-order:normal;enable-background:new"
               d="m 100,80 c -4.432,0 -8,3.568 -8,8 v 16 l 24,-24 z"
               transform="matrix(4,0,0,4,-16,-211.99999)"
               id="path943" />
          </g>
        </g>
        <rect
           style="display:inline;opacity:1;vector-effect:none;fill:#f8e45c;fill-opacity:1;stroke:none;stroke-width:7.90183401;stroke-linecap:round;stroke-linejoin:round;stroke-miterlimit:4;stroke-dasharray:none;stroke-dashoffset:0;stroke-opacity:1;marker:none;marker-start:none;marker-mid:none;marker-end:none;paint-order:normal;enable-background:new"
           id="rect949"
           width="79.999947"
           height="8"
           x="24"
           y="196" />
        <rect
           y="212"
           x="24"
           height="8"
           width="42"
           id="rect951"
           style="display:inline;opacity:1;vector-effect:none;fill:#f8e45c;fill-opacity:1;stroke:none;stroke-width:5.72542477;stroke-linecap:round;stroke-linejoin:round;stroke-miterlimit:4;stroke-dasharray:none;stroke-dashoffset:0;stroke-opacity:1;marker:none;marker-start:none;marker-mid:none;marker-end:none;paint-order:normal;enable-background:new" />
        <path
           style="display:inline;fill:#000000;fill-opacity:0.0590551;stroke:none;stroke-width:1px;stroke-linecap:butt;stroke-linejoin:miter;stroke-opacity:1;enable-background:new"
           d="M 116,272.6543 C 115.9178,276.74491 112.61929,280 108.50781,280 h -0.5 v 1 h 0.5 c 3.24611,0 6.0601,-1.81286 7.49219,-4.48242 z M 73.999999,280 108,281 v -1 z"
           id="path953"
           inkscape:connector-curvature="0"
           sodipodi:nodetypes="csccscccccc" />
        <path
           style="display:inline;fill:#000000;fill-opacity:0.04313725;stroke:none;stroke-width:1px;stroke-linecap:butt;stroke-linejoin:miter;stroke-opacity:1;enable-background:new"
           d="M 116,276.6543 C 115.9178,280.74491 112.61929,284 108.50781,284 h -0.5 v 1 h 0.5 c 3.22393,0 6.02184,-1.7881 7.46289,-4.42773 C 115.9841,280.38252 116,280.19325 116,280 Z M 73.999999,284 108,285 v -1 z"
           id="path955"
           inkscape:connector-curvature="0"
           sodipodi:nodetypes="csccscsccccc" />
      </g>
    </g>
    <g
       style="display:inline;enable-background:new"
       id="g8005"
       clip-path="url(#clipPath2213)"
       transform="matrix(0.25,0,0,0.25,-382.99076,301.93045)" />
    <g
       style="display:inline;enable-background:new"
       id="g8015"
       clip-path="url(#clipPath2213)"
       transform="matrix(0.25,0,0,0.25,-432.99076,301.93045)" />
    <g
       style="display:inline;enable-background:new"
       id="g8025"
       clip-path="url(#clipPath2213)"
       transform="matrix(0.25,0,0,0.25,-422.99076,301.93045)" />
    <g
       style="display:inline;enable-background:new"
       id="g8035"
       clip-path="url(#clipPath2213)"
       transform="matrix(0.25,0,0,0.25,-412.99076,301.93045)" />
    <g
       style="display:inline;enable-background:new"
       id="g8045"
       clip-path="url(#clipPath2213)"
       transform="matrix(0.25,0,0,0.25,-402.99076,301.93045)" />
    <g
       style="display:inline;enable-background:new"
       id="g8055"
       clip-path="url(#clipPath2213)"
       transform="matrix(0.25,0,0,0.25,-392.99076,301.93045)" />
    <rect
       style="display:inline;opacity:1;fill:url(#linearGradient992);fill-opacity:1;stroke:none;stroke-width:0.25;stroke-linecap:butt;stroke-linejoin:miter;stroke-miterlimit:4;stroke-dasharray:none;stroke-dashoffset:0;stroke-opacity:1;marker:none;marker-start:none;marker-mid:none;marker-end:none;paint-order:normal;enable-background:new"
       id="rect972"
       width="104"
       height="83.999992"
       x="170.25"
       y="233.25"
       rx="8"
       ry="8" />
  </g>
</svg>
