<svg xmlns="http://www.w3.org/2000/svg" xmlns:svg="http://www.w3.org/2000/svg" xmlns:xlink="http://www.w3.org/1999/xlink" id="svg11300" width="128" height="128" display="inline" enable-background="new" version="1.0" viewBox="0 0 128 128"><title id="title4162">Adwaita Icon Template</title><defs id="defs3"><linearGradient id="linearGradient882"><stop id="stop878" offset="0" stop-color="#fff" stop-opacity="1"/><stop id="stop880" offset="1" stop-color="#fff" stop-opacity=".28"/></linearGradient><clipPath id="clipPath1015" clipPathUnits="userSpaceOnUse"><path id="path1017" fill="none" fill-opacity="1" stroke="#000" stroke-dasharray="none" stroke-dashoffset="0" stroke-linecap="butt" stroke-linejoin="miter" stroke-miterlimit="4" stroke-opacity="1" stroke-width="2" marker-end="none" marker-mid="none" marker-start="none" d="m 64,176 a 60,60 0 0 0 -60,60 60,60 0 0 0 60,60 60,60 0 0 0 60,-60 60,60 0 0 0 -60,-60 z m 0,26 a 34,34 0 0 1 34,34 34,34 0 0 1 -34,34 34,34 0 0 1 -34,-34 34,34 0 0 1 34,-34 z" display="inline" enable-background="new" opacity="1" paint-order="normal" style="marker:none"/></clipPath><linearGradient id="linearGradient884" x1="64.016" x2="64.016" y1="189.811" y2="312.888" gradientTransform="matrix(1.04,0,0,1.04,-2.5768079,-9.403474)" gradientUnits="userSpaceOnUse" xlink:href="#linearGradient882"/><linearGradient id="linearGradient892" x1="-80" x2="-80" y1="-274.09" y2="-244" gradientUnits="userSpaceOnUse" xlink:href="#linearGradient882"/><filter id="filter1031" width="1.24" height="1.24" x="-.12" y="-.12" color-interpolation-filters="sRGB"><feGaussianBlur id="feGaussianBlur1033" stdDeviation="4.2"/></filter><filter id="filter1047" width="1.192" height="1.192" x="-.096" y="-.096" color-interpolation-filters="sRGB"><feGaussianBlur id="feGaussianBlur1049" stdDeviation="4.16"/></filter></defs><metadata id="metadata4"/><g id="layer1" display="inline" transform="translate(0,-172)"><g id="layer2" display="none"><text id="context" x="7.95" y="148.652" fill="#000" fill-opacity="1" stroke="none" stroke-width=".333" display="inline" enable-background="new" font-family="Cantarell" font-size="5.333" font-stretch="normal" font-style="normal" font-variant="normal" font-weight="normal" text-anchor="start" writing-mode="lr-tb" xml:space="preserve" style="line-height:125%;-inkscape-font-specification:'Cantarell, Normal';text-align:start"><tspan id="tspan2716" x="7.95" y="148.652" stroke-width=".333" font-size="5.333">apps</tspan></text><text id="text3021" x="7.753" y="157.234" fill="#000" fill-opacity="1" stroke="none" stroke-width=".333" display="inline" enable-background="new" font-family="Cantarell" font-size="5.333" font-stretch="normal" font-style="normal" font-variant="normal" font-weight="bold" text-anchor="start" writing-mode="lr-tb" xml:space="preserve" style="line-height:125%;-inkscape-font-specification:'Cantarell, Bold';text-align:start"><tspan id="tspan3023" x="7.753" y="157.234" stroke-width=".333" font-size="5.333">org.gnome.Help</tspan></text><rect id="rect13805" width="128" height="128" x="0" y="172" fill="#f0f0f0" fill-opacity="1" fill-rule="nonzero" stroke="none" stroke-width=".5" display="inline" enable-background="accumulate" overflow="visible" visibility="visible" style="marker:none"/><g id="g1168" transform="matrix(0.25,0,0,0.25,6.9488522e-8,225)"><circle id="path1142" cx="256" cy="44" r="240" fill="#2864b0" fill-opacity="1" stroke="none" stroke-dasharray="none" stroke-dashoffset="0" stroke-linecap="butt" stroke-linejoin="miter" stroke-miterlimit="4" stroke-opacity="1" stroke-width="1" marker-end="none" marker-mid="none" marker-start="none" opacity=".1" paint-order="normal" style="marker:none"/><rect id="rect1110" width="320" height="448" x="96" y="-180" fill="#2864b0" fill-opacity="1" stroke="none" stroke-dasharray="none" stroke-dashoffset="0" stroke-linecap="butt" stroke-linejoin="miter" stroke-miterlimit="4" stroke-opacity="1" stroke-width="1" marker-end="none" marker-mid="none" marker-start="none" opacity=".1" paint-order="normal" rx="32" ry="32" style="marker:none"/><rect stroke-miterlimit="4" style="marker:none" id="rect1110-8" width="416" height="416" x="48" y="-164" fill="#2864b0" fill-opacity="1" stroke="none" stroke-dasharray="none" stroke-dashoffset="0" stroke-linecap="butt" stroke-linejoin="miter" stroke-opacity="1" stroke-width="1" marker-end="none" marker-mid="none" marker-start="none" display="inline" enable-background="new" opacity=".1" paint-order="normal" rx="32" ry="32"/><rect stroke-miterlimit="4" style="marker:none" id="rect1110-8-9" width="448" height="320" x="32" y="-116" fill="#2864b0" fill-opacity="1" stroke="none" stroke-dasharray="none" stroke-dashoffset="0" stroke-linecap="butt" stroke-linejoin="miter" stroke-opacity="1" stroke-width="1" marker-end="none" marker-mid="none" marker-start="none" display="inline" enable-background="new" opacity=".1" paint-order="normal" rx="32" ry="32"/></g></g><g id="layer9" display="inline"><use id="use1199" width="100%" height="100%" x="0" y="0" stroke-width=".957" display="inline" enable-background="new" transform="matrix(-1,0,0,1,128.00252,-2.7346626e-8)" xlink:href="#path1082"/><use id="use1199-0" width="100%" height="100%" x="0" y="0" stroke-width=".957" display="inline" enable-background="new" transform="rotate(-180,64.00127,236.00577)" xlink:href="#path1082"/><use id="use1201" width="100%" height="100%" x="0" y="0" stroke-width=".957" display="inline" enable-background="new" transform="matrix(1,0,0,-1,-5.2272824e-6,472.01152)" xlink:href="#path1082"/><path id="path1082" fill="none" fill-opacity="1" stroke="#ddc6b3" stroke-dasharray="none" stroke-dashoffset="0" stroke-linecap="butt" stroke-linejoin="miter" stroke-miterlimit="4" stroke-opacity="1" stroke-width="4" marker-end="none" marker-mid="none" marker-start="none" d="m 16.641596,237.3929 a 34.500065,34.500065 0 0 1 0.26206,-46.9655 34.500065,34.500065 0 0 1 46.858115,-3.18498" display="inline" enable-background="new" opacity="1" paint-order="normal" vector-effect="none" style="marker:none"/><g id="g1013" clip-path="url(#clipPath1015)"><rect id="rect13805-5" width="128" height="128" x="0" y="172" fill="#f6f5f4" fill-opacity="1" fill-rule="nonzero" stroke="none" stroke-width=".5" display="inline" enable-background="accumulate" overflow="visible" visibility="visible" style="marker:none"/><path id="rect913-3" fill="#e01b24" fill-opacity="1" stroke="none" stroke-dasharray="none" stroke-dashoffset="0" stroke-linecap="butt" stroke-linejoin="miter" stroke-miterlimit="4" stroke-opacity="1" stroke-width="4" marker-end="none" marker-mid="none" marker-start="none" d="M 48.001953,4.0058594 V 48 H 4.0019531 V 80.011719 H 48.001953 V 124.00586 H 80 V 80.011719 h 44.00195 V 48 H 80 V 4.0058594 Z" display="inline" enable-background="new" opacity="1" paint-order="normal" transform="translate(0,172)" vector-effect="none" style="marker:none"/><path id="rect13805-5-6" fill="#000" fill-opacity="1" fill-rule="nonzero" stroke="none" stroke-dasharray="none" stroke-miterlimit="4" stroke-width="2" d="M 0,168 V 296 H 128 V 168 Z m 64,4 a 60,60 0 0 1 60,60 60,60 0 0 1 -60,60 60,60 0 0 1 -60,-60 60,60 0 0 1 60,-60 z m 0,26 a 34,34 0 0 0 -34,34 34,34 0 0 0 34,34 34,34 0 0 0 34,-34 34,34 0 0 0 -34,-34 z" display="inline" enable-background="accumulate" opacity=".15" overflow="visible" visibility="visible" style="marker:none"/><circle id="circle864" cx="64.42" cy="235.087" r="52" fill="none" fill-opacity="1" stroke="url(#linearGradient884)" stroke-dasharray="none" stroke-dashoffset="0" stroke-linecap="butt" stroke-linejoin="miter" stroke-miterlimit="4" stroke-opacity="1" stroke-width="4" marker-end="none" marker-mid="none" marker-start="none" display="inline" enable-background="new" filter="url(#filter1047)" opacity="1" paint-order="normal" vector-effect="none" style="marker:none"/><circle id="path866" cx="-64.42" cy="-235.087" r="42" fill="none" fill-opacity="1" stroke="url(#linearGradient892)" stroke-dasharray="none" stroke-dashoffset="0" stroke-linecap="butt" stroke-linejoin="miter" stroke-miterlimit="4" stroke-opacity="1" stroke-width="4" marker-end="none" marker-mid="none" marker-start="none" display="inline" enable-background="new" filter="url(#filter1031)" opacity="1" paint-order="normal" transform="rotate(180,0,1)" vector-effect="none" style="marker:none"/></g></g></g></svg>