<svg xmlns="http://www.w3.org/2000/svg" xmlns:svg="http://www.w3.org/2000/svg" xmlns:xlink="http://www.w3.org/1999/xlink" id="svg11300" width="128" height="128" display="inline" enable-background="new" version="1.0" viewBox="0 0 128 128"><title id="title4162">Adwaita Icon Template</title><defs id="defs3"><linearGradient id="linearGradient1099" x1="32" x2="96" y1="236" y2="236" gradientTransform="translate(604.81684,170.58641)" gradientUnits="userSpaceOnUse" xlink:href="#linearGradient1036"/><linearGradient id="linearGradient1036"><stop id="stop1032" offset="0" stop-color="#d5d3cf" stop-opacity="1"/><stop id="stop1034" offset="1" stop-color="#f6f5f4" stop-opacity="1"/></linearGradient><radialGradient id="radialGradient1103" cx="-244" cy="-76" r="32" fx="-244" fy="-76" gradientTransform="matrix(0.88333331,0,0,0.88333331,-460.35018,463.11973)" gradientUnits="userSpaceOnUse" xlink:href="#linearGradient1069"/><linearGradient id="linearGradient1069"><stop id="stop1065" offset="0" stop-color="#d5d3cf" stop-opacity="1"/><stop id="stop1067-1" offset="1" stop-color="#949390" stop-opacity="1"/></linearGradient><linearGradient id="linearGradient1027" x1="64" x2="64" y1="262.5" y2="232" gradientTransform="translate(-470.5864,432.81685)" gradientUnits="userSpaceOnUse" xlink:href="#linearGradient1025"/><linearGradient id="linearGradient1025"><stop id="stop1021" offset="0" stop-color="#9a9996" stop-opacity="1"/><stop id="stop1023" offset="1" stop-color="#77767b" stop-opacity="1"/></linearGradient><clipPath id="clipPath1609-7" clipPathUnits="userSpaceOnUse"><path id="path1611-5" fill="#e74747" stroke="none" stroke-linecap="butt" stroke-linejoin="miter" stroke-opacity="1" stroke-width=".25" d="m 252,116 28,-28 v -8 h -36 v 36 z"/></clipPath><linearGradient id="linearGradient1336" x1="32" x2="480" y1="172" y2="172" gradientUnits="userSpaceOnUse" xlink:href="#linearGradient1334"/><linearGradient id="linearGradient1334"><stop id="stop1330" offset="0" stop-color="#2ec27e" stop-opacity="1"/><stop id="stop1338" offset=".036" stop-color="#57e389" stop-opacity="1"/><stop id="stop1340" offset=".071" stop-color="#2ec27e" stop-opacity="1"/><stop id="stop1342" offset=".929" stop-color="#2ec27e" stop-opacity="1"/><stop id="stop1344" offset=".964" stop-color="#57e389" stop-opacity="1"/><stop id="stop1332" offset="1" stop-color="#2ec27e" stop-opacity="1"/></linearGradient><radialGradient id="radialGradient1219" cx="448.01" cy="51.544" r="224" fx="448.01" fy="51.544" gradientTransform="matrix(0.44857616,0.00153269,-8.6514773e-4,0.25320457,255.0461,109.25428)" gradientUnits="userSpaceOnUse" xlink:href="#linearGradient1217"/><linearGradient id="linearGradient1217"><stop id="stop1213" offset="0" stop-color="#000" stop-opacity="1"/><stop id="stop1215" offset="1" stop-color="#000" stop-opacity="0"/></linearGradient><linearGradient id="linearGradient964" x1="32" x2="480" y1="172" y2="172" gradientTransform="translate(0,40)" gradientUnits="userSpaceOnUse" xlink:href="#linearGradient1334"/><radialGradient id="radialGradient966" cx="448.01" cy="51.544" r="224" fx="448.01" fy="51.544" gradientTransform="matrix(0.18727869,0,0,0.10571185,30.089287,82.299228)" gradientUnits="userSpaceOnUse" xlink:href="#linearGradient1217"/></defs><metadata id="metadata4"/><g id="layer1" display="inline" transform="translate(0,-172)"><g id="layer2" display="none"><rect id="rect13805" width="128" height="128" x="0" y="172" fill="#f0f0f0" fill-opacity="1" fill-rule="nonzero" stroke="none" stroke-width=".5" display="inline" enable-background="accumulate" overflow="visible" visibility="visible" style="marker:none"/><rect id="rect859" width="16" height="16" x="160" y="172" fill="#f0f0f0" fill-opacity="1" fill-rule="nonzero" stroke="none" stroke-width=".5" display="inline" enable-background="accumulate" overflow="visible" visibility="visible" style="marker:none"/><text id="text863" x="0" y="164" fill="#000" fill-opacity="1" stroke="none" stroke-width=".333" display="inline" enable-background="new" font-family="Cantarell" font-size="4" font-stretch="normal" font-style="normal" font-variant="normal" font-weight="bold" text-anchor="start" writing-mode="lr-tb" xml:space="preserve" style="line-height:125%;-inkscape-font-specification:'Cantarell, Bold';text-align:start"><tspan id="tspan861" x="0" y="164" stroke-width=".333" font-size="4">Hicolor</tspan></text><text id="text867" x="160" y="164" fill="#000" fill-opacity="1" stroke="none" stroke-width=".333" display="inline" enable-background="new" font-family="Cantarell" font-size="4" font-stretch="normal" font-style="normal" font-variant="normal" font-weight="bold" text-anchor="start" writing-mode="lr-tb" xml:space="preserve" style="line-height:125%;-inkscape-font-specification:'Cantarell, Bold';text-align:start"><tspan id="tspan865" x="160" y="164" stroke-width=".333" font-size="4">Symbolic</tspan></text></g><g id="layer3" display="none"><circle id="circle2892" cx="64" cy="236" r="59.504" fill="none" fill-opacity="1" stroke="#000" stroke-dasharray=".99 .99" stroke-dashoffset="0" stroke-linecap="butt" stroke-linejoin="miter" stroke-miterlimit="4" stroke-opacity="1" stroke-width=".99" marker-end="none" marker-mid="none" marker-start="none" display="inline" enable-background="new" opacity=".1" paint-order="normal" vector-effect="none" style="marker:none"/><rect id="rect2894" width="87.01" height="111.01" x="20.495" y="180.495" fill="none" fill-opacity="1" stroke="#000" stroke-dasharray=".99 .99" stroke-dashoffset="0" stroke-linecap="butt" stroke-linejoin="miter" stroke-miterlimit="4" stroke-opacity="1" stroke-width=".99" marker-end="none" marker-mid="none" marker-start="none" display="inline" enable-background="new" opacity=".1" paint-order="normal" rx="8.701" ry="7.929" vector-effect="none" style="marker:none"/><rect id="rect2896" width="103.01" height="103.01" x="12.495" y="184.495" fill="none" fill-opacity="1" stroke="#000" stroke-dasharray=".99 .99" stroke-dashoffset="0" stroke-linecap="butt" stroke-linejoin="miter" stroke-miterlimit="4" stroke-opacity="1" stroke-width=".99" marker-end="none" marker-mid="none" marker-start="none" display="inline" enable-background="new" opacity=".1" paint-order="normal" rx="7.924" ry="7.924" vector-effect="none" style="marker:none"/><rect id="rect2898" width="111.01" height="87.01" x="8.495" y="200.495" fill="none" fill-opacity="1" stroke="#000" stroke-dasharray=".99 .99" stroke-dashoffset="0" stroke-linecap="butt" stroke-linejoin="miter" stroke-miterlimit="4" stroke-opacity="1" stroke-width=".99" marker-end="none" marker-mid="none" marker-start="none" display="inline" enable-background="new" opacity=".1" paint-order="normal" rx="7.929" ry="8.701" vector-effect="none" style="marker:none"/><path id="path2900" fill="none" stroke="#62a0ea" stroke-dasharray="none" stroke-linecap="butt" stroke-linejoin="miter" stroke-miterlimit="4" stroke-opacity="1" stroke-width="2" d="M 2.6203015e-5,288.99999 H 128.00003" display="inline" enable-background="new"/></g><g id="layer9" display="inline"><g id="g43044" display="inline" transform="matrix(0.25,0,0,0.25,-240,225)"><rect id="rect1003" width="448" height="240" x="32" y="-36" fill="url(#linearGradient1336)" fill-opacity="1" stroke="none" stroke-dasharray="4 2" stroke-dashoffset="0" stroke-linejoin="round" stroke-miterlimit="4" stroke-opacity="1" stroke-width="1" opacity="1" rx="32" ry="32"/><rect id="rect1131" width="448" height="240" x="32" y="-116" fill="#57e389" fill-opacity="1" stroke="none" stroke-dasharray="4 2" stroke-dashoffset="0" stroke-linejoin="round" stroke-miterlimit="4" stroke-opacity="1" stroke-width="1" opacity="1" rx="32" ry="32"/><rect id="rect1133" width="384" height="176" x="64" y="-84" fill="#2ec27e" fill-opacity="1" stroke="none" stroke-dasharray="4 2" stroke-dashoffset="0" stroke-linejoin="round" stroke-miterlimit="4" stroke-opacity="1" stroke-width="1" opacity="1"/><circle id="path1226" cx="256" cy="4" r="56" fill="#57e389" fill-opacity="1" stroke="none" stroke-dasharray="4 2" stroke-dashoffset="0" stroke-linejoin="round" stroke-miterlimit="4" stroke-opacity="1" stroke-width="1" opacity="1"/><g id="g1042"><circle id="circle1019" cx="64" cy="-84" r="32" fill="#57e389" fill-opacity="1" stroke="none" stroke-dasharray="4 2" stroke-dashoffset="0" stroke-linejoin="round" stroke-miterlimit="4" stroke-opacity="1" stroke-width="1" opacity="1"/><circle id="circle1021" cx="64" cy="92" r="32" fill="#57e389" fill-opacity="1" stroke="none" stroke-dasharray="4 2" stroke-dashoffset="0" stroke-linejoin="round" stroke-miterlimit="4" stroke-opacity="1" stroke-width="1" opacity="1"/><circle id="circle1027" cx="448" cy="-84" r="32" fill="#57e389" fill-opacity="1" stroke="none" stroke-dasharray="4 2" stroke-dashoffset="0" stroke-linejoin="round" stroke-miterlimit="4" stroke-opacity="1" stroke-width="1" opacity="1"/><circle id="circle1030" cx="448" cy="92" r="32" fill="#57e389" fill-opacity="1" stroke="none" stroke-dasharray="4 2" stroke-dashoffset="0" stroke-linejoin="round" stroke-miterlimit="4" stroke-opacity="1" stroke-width="1" opacity="1"/></g><rect id="rect1413" width="192" height="80" x="160" y="-36" fill="#57e389" fill-opacity="1" stroke="none" stroke-dasharray="4 2" stroke-dashoffset="0" stroke-linejoin="round" stroke-miterlimit="4" stroke-opacity="1" stroke-width="1" opacity="1" rx="24" ry="24"/><g id="g1380" fill="#f6f5f4" stroke-width="1.414" transform="matrix(0.5,0,0,1,128,0)"><rect id="rect1348" width="192" height="320" x="160" y="-116" fill="#f6f5f4" fill-opacity="1" stroke="none" stroke-dasharray="5.657 2.828" stroke-dashoffset="0" stroke-linejoin="round" stroke-miterlimit="4" stroke-opacity="1" stroke-width="1.414" opacity="1"/><rect id="rect1350" width="192" height="80" x="160" y="124" fill="#d5d3cf" fill-opacity="1" stroke="none" stroke-dasharray="5.657 2.828" stroke-dashoffset="0" stroke-linejoin="round" stroke-miterlimit="4" stroke-opacity="1" stroke-width="1.414" opacity="1"/></g><path id="circle1030-3-2" fill="#000" fill-opacity="1" stroke="none" stroke-dasharray="4 2" stroke-dashoffset="0" stroke-linejoin="round" stroke-miterlimit="4" stroke-opacity="1" stroke-width="1" d="m 440,68 c -17.67311,0 -37.58873,15.233816 -32,32 l 8,24 56,-56 z" display="inline" enable-background="new" opacity=".1"/><path id="circle1030-3" fill="#8ff0a4" fill-opacity="1" stroke="none" stroke-dasharray="4 2" stroke-dashoffset="0" stroke-linejoin="round" stroke-miterlimit="4" stroke-opacity="1" stroke-width="1" d="m 448,272 c -17.67311,0 -32,14.32689 -32,32 v 32 l 64,-64 z" display="inline" enable-background="new" opacity="1" transform="translate(0,-212)"/><path id="rect1003-1-7-6" fill="url(#radialGradient1219)" fill-opacity="1" stroke="none" stroke-dasharray="4 2" stroke-dashoffset="0" stroke-linejoin="round" stroke-miterlimit="4" stroke-opacity="1" stroke-width="1" d="m 32,92 v 8 c 0,17.728 14.272,32 32,32 h 384 c 17.728,0 32,-14.272 32,-32 v -8 c 0,17.728 -14.272,32 -32,32 H 64 C 46.272,124 32,109.728 32,92 Z m 0,16 v 8 c 0,17.728 14.272,32 32,32 h 384 c 17.728,0 32,-14.272 32,-32 v -8 c 0,17.728 -14.272,32 -32,32 H 64 C 46.272,140 32,125.728 32,108 Z m 0,16 v 8 c 0,17.728 14.272,32 32,32 h 384 c 17.728,0 32,-14.272 32,-32 v -8 c 0,17.728 -14.272,32 -32,32 H 64 C 46.272,156 32,141.728 32,124 Z m 0,16 v 8 c 0,17.728 14.272,32 32,32 h 384 c 17.728,0 32,-14.272 32,-32 v -8 c 0,17.728 -14.272,32 -32,32 H 64 C 46.272,172 32,157.728 32,140 Z m 0,16 v 8 c 0,17.728 14.272,32 32,32 h 384 c 17.728,0 32,-14.272 32,-32 v -8 c 0,17.728 -14.272,32 -32,32 H 64 C 46.272,188 32,173.728 32,156 Z" display="inline" enable-background="new" opacity=".104"/></g><g id="g962" display="inline" transform="matrix(0.25,0,0,0.25,9.2651362e-8,229)"><rect id="rect930" width="448" height="240" x="32" y="4" fill="url(#linearGradient964)" fill-opacity="1" stroke="none" stroke-dasharray="4 2" stroke-dashoffset="0" stroke-linejoin="round" stroke-miterlimit="4" stroke-opacity="1" stroke-width="1" opacity="1" rx="32" ry="32"/><rect id="rect932" width="448" height="240" x="32" y="-116" fill="#57e389" fill-opacity="1" stroke="none" stroke-dasharray="4 2" stroke-dashoffset="0" stroke-linejoin="round" stroke-miterlimit="4" stroke-opacity="1" stroke-width="1" opacity="1" rx="32" ry="32"/><rect id="rect934" width="384" height="176" x="64" y="-84" fill="#2ec27e" fill-opacity="1" stroke="none" stroke-dasharray="4 2" stroke-dashoffset="0" stroke-linejoin="round" stroke-miterlimit="4" stroke-opacity="1" stroke-width="1" opacity="1"/><circle id="circle936" cx="256" cy="4" r="56" fill="#57e389" fill-opacity="1" stroke="none" stroke-dasharray="4 2" stroke-dashoffset="0" stroke-linejoin="round" stroke-miterlimit="4" stroke-opacity="1" stroke-width="1" opacity="1"/><g id="g946"><circle id="circle938" cx="64" cy="-84" r="32" fill="#57e389" fill-opacity="1" stroke="none" stroke-dasharray="4 2" stroke-dashoffset="0" stroke-linejoin="round" stroke-miterlimit="4" stroke-opacity="1" stroke-width="1" opacity="1"/><circle id="circle940" cx="64" cy="92" r="32" fill="#57e389" fill-opacity="1" stroke="none" stroke-dasharray="4 2" stroke-dashoffset="0" stroke-linejoin="round" stroke-miterlimit="4" stroke-opacity="1" stroke-width="1" opacity="1"/><circle id="circle942" cx="448" cy="-84" r="32" fill="#57e389" fill-opacity="1" stroke="none" stroke-dasharray="4 2" stroke-dashoffset="0" stroke-linejoin="round" stroke-miterlimit="4" stroke-opacity="1" stroke-width="1" opacity="1"/><circle id="circle944" cx="448" cy="92" r="32" fill="#57e389" fill-opacity="1" stroke="none" stroke-dasharray="4 2" stroke-dashoffset="0" stroke-linejoin="round" stroke-miterlimit="4" stroke-opacity="1" stroke-width="1" opacity="1"/></g><rect id="rect948" width="192" height="80" x="160" y="-36" fill="#57e389" fill-opacity="1" stroke="none" stroke-dasharray="4 2" stroke-dashoffset="0" stroke-linejoin="round" stroke-miterlimit="4" stroke-opacity="1" stroke-width="1" opacity="1" rx="24" ry="24"/><g id="g954" fill="#f6f5f4" stroke-width="1.414" transform="matrix(0.5,0,0,1,128,0)"><rect id="rect950" width="192" height="360" x="160" y="-116" fill="#f6f5f4" fill-opacity="1" stroke="none" stroke-dasharray="6 3" stroke-dashoffset="0" stroke-linejoin="round" stroke-miterlimit="4" stroke-opacity="1" stroke-width="1.5" opacity="1"/><rect id="rect952" width="192" height="120" x="160" y="124" fill="#d5d3cf" fill-opacity="1" stroke="none" stroke-dasharray="6.928 3.464" stroke-dashoffset="0" stroke-linejoin="round" stroke-miterlimit="4" stroke-opacity="1" stroke-width="1.732" opacity="1"/></g><path id="path956" fill="#000" fill-opacity="1" stroke="none" stroke-dasharray="4 2" stroke-dashoffset="0" stroke-linejoin="round" stroke-miterlimit="4" stroke-opacity="1" stroke-width="1" d="m 440,68 c -17.67311,0 -37.58873,15.233816 -32,32 l 8,24 56,-56 z" display="inline" enable-background="new" opacity=".1"/><path id="path958" fill="#8ff0a4" fill-opacity="1" stroke="none" stroke-dasharray="4 2" stroke-dashoffset="0" stroke-linejoin="round" stroke-miterlimit="4" stroke-opacity="1" stroke-width="1" d="m 448,272 c -17.67311,0 -32,14.32689 -32,32 v 32 l 64,-64 z" display="inline" enable-background="new" opacity="1" transform="translate(0,-212)"/><path id="path960" fill="url(#radialGradient966)" fill-opacity="1" stroke="none" stroke-dasharray="1 .5" stroke-dashoffset="0" stroke-linejoin="round" stroke-miterlimit="4" stroke-opacity="1" stroke-width=".25" d="m 8,80 v 2 c 0,4.432 3.568,8 8,8 h 96 c 4.432,0 8,-3.568 8,-8 v -2 c 0,4.432 -3.568,8 -8,8 H 16 C 11.568,88 8,84.432 8,80 Z m 0,4 v 2 c 0,4.432 3.568,8 8,8 h 96 c 4.432,0 8,-3.568 8,-8 v -2 c 0,4.432 -3.568,8 -8,8 H 16 C 11.568,92 8,88.432 8,84 Z m 0,4 v 2 c 0,4.432 3.568,8 8,8 h 96 c 4.432,0 8,-3.568 8,-8 v -2 c 0,4.432 -3.568,8 -8,8 H 16 C 11.568,96 8,92.432 8,88 Z m 0,4 v 2 c 0,4.432 3.568,8 8,8 h 96 c 4.432,0 8,-3.568 8,-8 v -2 c 0,4.432 -3.568,8 -8,8 H 16 c -4.432,0 -8,-3.568 -8,-8 z m 0,4 v 2 c 0,4.432 3.568,8 8,8 h 96 c 4.432,0 8,-3.568 8,-8 v -2 c 0,4.432 -3.568,8 -8,8 H 16 c -4.432,0 -8,-3.568 -8,-8 z m 0,4 v 2 c 0,4.432 3.568,8 8,8 h 96 c 4.432,0 8,-3.568 8,-8 v -2 c 0,4.432 -3.568,8 -8,8 H 16 c -4.432,0 -8,-3.568 -8,-8 z m 0,4 v 2 c 0,4.432 3.568,8 8,8 h 96 c 4.432,0 8,-3.568 8,-8 v -2 c 0,4.432 -3.568,8 -8,8 H 16 c -4.432,0 -8,-3.568 -8,-8 z m 0,4 v 2 c 0,4.432 3.568,8 8,8 h 96 c 4.432,0 8,-3.568 8,-8 v -2 c 0,4.432 -3.568,8 -8,8 H 16 c -4.432,0 -8,-3.568 -8,-8 z" display="inline" enable-background="new" opacity=".104" transform="matrix(4,0,0,4,-3.7060545e-7,-228)"/></g></g></g></svg>