<svg xmlns="http://www.w3.org/2000/svg" xmlns:svg="http://www.w3.org/2000/svg" id="svg11300" width="128" height="128" display="inline" enable-background="new" version="1.0" viewBox="0 0 128 128"><title id="title4162">Adwaita Icon Template</title><defs id="defs3"><clipPath id="clipPath868" clipPathUnits="userSpaceOnUse"><rect stroke-miterlimit="4" style="marker:none" id="rect870" width="112" height="80" x="8" y="196" fill="#4fd2fd" fill-opacity="1" stroke="none" stroke-dasharray="none" stroke-dashoffset="0" stroke-linecap="butt" stroke-linejoin="miter" stroke-opacity="1" stroke-width=".25" marker-end="none" marker-mid="none" marker-start="none" display="inline" enable-background="new" opacity="1" paint-order="normal" rx="8" ry="8"/></clipPath></defs><metadata id="metadata4"/><g id="layer1" display="inline" transform="translate(0,-172)"><g id="layer2" display="none"><text id="context" x="7.95" y="148.652" fill="#000" fill-opacity="1" stroke="none" stroke-width=".333" display="inline" enable-background="new" font-family="Cantarell" font-size="6.088" font-stretch="normal" font-style="normal" font-variant="normal" font-weight="normal" text-anchor="start" writing-mode="lr-tb" xml:space="preserve" style="line-height:125%;-inkscape-font-specification:'Cantarell, Normal';text-align:start"><tspan id="tspan2716" x="7.95" y="148.652" stroke-width=".333">apps</tspan></text><text id="text3021" x="7.753" y="157.234" fill="#000" fill-opacity="1" stroke="none" stroke-width=".333" display="inline" enable-background="new" font-family="Cantarell" font-size="6.088" font-stretch="normal" font-style="normal" font-variant="normal" font-weight="bold" text-anchor="start" writing-mode="lr-tb" xml:space="preserve" style="line-height:125%;-inkscape-font-specification:'Cantarell, Bold';text-align:start"><tspan id="tspan3023" x="7.753" y="157.234" stroke-width=".333">org.gnome.Fractal</tspan></text><rect id="rect13805" width="128" height="128" x="0" y="172" fill="#f0f0f0" fill-opacity="1" fill-rule="nonzero" stroke="none" stroke-width=".5" display="inline" enable-background="accumulate" overflow="visible" visibility="visible" style="marker:none"/><g id="g1168" transform="matrix(0.25,0,0,0.25,6.9488522e-8,225)"><circle id="path1142" cx="256" cy="44" r="240" fill="#2864b0" fill-opacity="1" stroke="none" stroke-dasharray="none" stroke-dashoffset="0" stroke-linecap="butt" stroke-linejoin="miter" stroke-miterlimit="4" stroke-opacity="1" stroke-width="1" marker-end="none" marker-mid="none" marker-start="none" opacity=".1" paint-order="normal" style="marker:none"/><rect id="rect1110" width="320" height="448" x="96" y="-180" fill="#2864b0" fill-opacity="1" stroke="none" stroke-dasharray="none" stroke-dashoffset="0" stroke-linecap="butt" stroke-linejoin="miter" stroke-miterlimit="4" stroke-opacity="1" stroke-width="1" marker-end="none" marker-mid="none" marker-start="none" opacity=".1" paint-order="normal" rx="32" ry="32" style="marker:none"/><rect stroke-miterlimit="4" style="marker:none" id="rect1110-8" width="416" height="416" x="48" y="-164" fill="#2864b0" fill-opacity="1" stroke="none" stroke-dasharray="none" stroke-dashoffset="0" stroke-linecap="butt" stroke-linejoin="miter" stroke-opacity="1" stroke-width="1" marker-end="none" marker-mid="none" marker-start="none" display="inline" enable-background="new" opacity=".1" paint-order="normal" rx="32" ry="32"/><rect stroke-miterlimit="4" style="marker:none" id="rect1110-8-9" width="448" height="320" x="32" y="-116" fill="#2864b0" fill-opacity="1" stroke="none" stroke-dasharray="none" stroke-dashoffset="0" stroke-linecap="butt" stroke-linejoin="miter" stroke-opacity="1" stroke-width="1" marker-end="none" marker-mid="none" marker-start="none" display="inline" enable-background="new" opacity=".1" paint-order="normal" rx="32" ry="32"/></g></g><g id="layer9" display="inline"><rect stroke-miterlimit="4" style="marker:none" id="rect874" width="96" height="80" x="24" y="200" fill="#1a5fb4" fill-opacity="1" stroke="none" stroke-dasharray="none" stroke-dashoffset="0" stroke-linecap="butt" stroke-linejoin="miter" stroke-opacity="1" stroke-width=".25" marker-end="none" marker-mid="none" marker-start="none" display="inline" enable-background="new" opacity="1" paint-order="normal" rx="8" ry="8"/><path id="rect878" fill="#53bde0" fill-opacity="1" stroke="none" stroke-dasharray="none" stroke-dashoffset="0" stroke-linecap="butt" stroke-linejoin="miter" stroke-miterlimit="4" stroke-opacity="1" stroke-width=".25" marker-end="none" marker-mid="none" marker-start="none" d="m 16,24 c -4.432,0 -8,3.568 -8,8 v 4 64 c 0,4.432 3.568,8 8,8 h 16 v 16 l 16,-16 h 38 26 c 4.432,0 8,-3.568 8,-8 V 32 c 0,-4.432 -3.568,-8 -8,-8 z" display="inline" enable-background="new" opacity="1" paint-order="normal" transform="translate(0,172)" style="marker:none"/><path id="rect875" fill="#1a5fb4" fill-opacity="1" stroke="none" stroke-dasharray="none" stroke-dashoffset="0" stroke-linecap="butt" stroke-linejoin="round" stroke-miterlimit="4" stroke-opacity="1" stroke-width="2" d="M 86.150391 24 L 86.150391 108 L 112 108 C 116.432 108 120 104.432 120 100 L 120 32 C 120 27.568 116.432 24 112 24 L 86.150391 24 z" opacity="1" transform="translate(0,172)" vector-effect="none"/><rect id="rect868" width="112" height="80" x="8" y="196" fill="#3584e4" fill-opacity="1" stroke="none" stroke-dasharray="none" stroke-dashoffset="0" stroke-linecap="butt" stroke-linejoin="round" stroke-miterlimit="4" stroke-opacity="1" stroke-width="2" opacity="1" rx="8" ry="8" vector-effect="none"/><path id="path872" fill="#81dffe" fill-opacity="1" fill-rule="evenodd" stroke="none" stroke-linecap="butt" stroke-linejoin="miter" stroke-opacity="1" stroke-width="1" d="m 32,268 v 24 l 24,-24 z"/><path clip-rule="nonzero" style="marker:none" id="path1728" fill="#81dffe" fill-opacity="1" fill-rule="nonzero" stroke="none" stroke-dasharray="none" stroke-dashoffset="0" stroke-linecap="round" stroke-linejoin="round" stroke-miterlimit="4" stroke-opacity="1" stroke-width="2.295" d="m 80.444385,188.79637 0.495205,7.07806 c -19.305069,-1.33646 -39.021699,12.09163 -40.164024,32.36115 -0.78363,13.86174 8.98869,28.01959 23.624085,28.63077 9.740205,0.40688 19.691199,-6.53292 19.948849,-16.83572 0.1673,-6.64455 -4.652279,-13.44041 -11.727059,-13.48016 -4.39999,-0.0267 -8.90571,3.21758 -8.825405,7.9167 0.06692,2.79799 2.160845,5.67414 5.17559,5.54124 1.70311,-0.0743 3.464445,-1.39615 3.322575,-3.24066 -0.07361,-0.97891 -0.864605,-1.99937 -1.935995,-1.87423 -0.528665,0.0602 -1.080755,0.50457 -0.983055,1.0839 0.06692,0.25698 0.26768,0.53537 0.56213,0.46844 0.113765,-0.0267 0.23422,-0.13585 0.20076,-0.26233 0,-0.0402 -0.06692,-0.0897 -0.107075,-0.0689 0,0.003 -0.06692,0.02 0,0.0334 v 0.004 -2.1e-4 c -5e-4,-2e-4 0,0 0,-2e-4 v 0.002 -0.002 0.0335 c 0,0.0469 -0.08699,0.0469 -0.127145,0.0267 -0.113765,-0.0602 -0.107075,-0.22686 -0.06692,-0.32456 0.153915,-0.25162 0.50859,-0.21749 0.730095,-0.0689 0.488515,0.3413 0.40152,1.0471 0.06692,1.4616 -0.6692,0.84554 -1.94871,0.68098 -2.694865,0.0402 -1.40599,-1.20415 -1.09548,-3.38225 0.06692,-4.63914 2.03771,-2.2231 5.56908,-1.68291 7.58203,0.26164 3.382805,3.26536 2.49076,8.74223 -0.63574,11.83292 -5.03171,4.97042 -13.248145,3.56985 -17.83283,-1.24563 -7.110245,-7.46661 -4.98286,-19.40452 2.19163,-25.99854 10.78281,-9.90824 27.711549,-6.80102 36.968589,3.55291 13.53523,15.1397 9.09576,38.56491 -5.50081,51.25909 -10.442865,8.66285 -20.890409,14.48723 -30.942459,18.25162 -12.263085,70.84943 -70.648075,6.42143 -76.104061,-3.94079 L -16,188 Z" clip-path="url(#clipPath868)" color="#000" color-interpolation="sRGB" color-interpolation-filters="linearRGB" color-rendering="auto" display="inline" enable-background="accumulate" image-rendering="auto" mask="none" opacity="1" overflow="visible" shape-rendering="auto" text-rendering="auto" visibility="visible"/><rect stroke-miterlimit="4" style="marker:none" id="rect856" width="96" height="80" x="-176" y="200" fill="#1a5fb4" fill-opacity="1" stroke="none" stroke-dasharray="none" stroke-dashoffset="0" stroke-linecap="butt" stroke-linejoin="miter" stroke-opacity="1" stroke-width=".25" marker-end="none" marker-mid="none" marker-start="none" display="inline" enable-background="new" opacity="1" paint-order="normal" rx="8" ry="8"/><path id="path858" fill="#0aa8dc" fill-opacity="1" stroke="none" stroke-dasharray="none" stroke-dashoffset="0" stroke-linecap="butt" stroke-linejoin="miter" stroke-miterlimit="4" stroke-opacity="1" stroke-width=".25" marker-end="none" marker-mid="none" marker-start="none" d="m -184,200 c -4.432,0 -8,3.568 -8,8 v 64 c 0,4.432 3.568,8 8,8 h 8 v 16 l 16,-16 h 46 v -80 z" display="inline" enable-background="new" opacity="1" paint-order="normal" style="marker:none"/><path id="path860" fill="#1a5fb4" fill-opacity="1" stroke="none" stroke-dasharray="none" stroke-dashoffset="0" stroke-linecap="butt" stroke-linejoin="miter" stroke-miterlimit="4" stroke-opacity="1" stroke-width=".25" marker-end="none" marker-mid="none" marker-start="none" d="m -168,196 c -4.432,0 -8,3.568 -8,8 v 64 c 0,4.432 3.568,8 8,8 h 80 c 4.432,0 8,-3.568 8,-8 v -54 h -46 v -18 z" display="inline" enable-background="new" opacity="1" paint-order="normal" style="marker:none"/><path id="path862" fill="#3584e4" fill-opacity="1" stroke="none" stroke-dasharray="none" stroke-dashoffset="0" stroke-linecap="butt" stroke-linejoin="miter" stroke-miterlimit="4" stroke-opacity="1" stroke-width=".25" marker-end="none" marker-mid="none" marker-start="none" d="m -125.74414,200 c -16.93186,1.74468 -32.47027,14.31116 -33.48047,32.23633 -0.78363,13.86174 8.98961,28.01968 23.625,28.63086 9.74021,0.40688 19.68962,-6.53314 19.94727,-16.83594 0.1673,-6.64455 -4.65179,-13.44072 -11.72657,-13.48047 -4.39999,-0.0267 -8.90452,3.2169 -8.82422,7.91602 0.0669,2.79799 2.15909,5.67391 5.17383,5.54101 1.70311,-0.0743 3.46609,-1.39572 3.32422,-3.24023 -0.0736,-0.97891 -0.86611,-2.00014 -1.9375,-1.875 -0.52866,0.0602 -1.08012,0.50465 -0.98242,1.08398 0.0669,0.25698 0.26805,0.53568 0.5625,0.46875 0.11377,-0.0267 0.23463,-0.13524 0.20117,-0.26172 0,-0.0402 -0.0673,-0.0892 -0.10742,-0.0684 0,0.003 -0.0669,0.0198 0,0.0332 v 0.004 0.002 0.0312 c 0,0.0469 -0.0868,0.0456 -0.12695,0.0254 -0.11377,-0.0602 -0.10852,-0.22652 -0.0684,-0.32422 0.15391,-0.25162 0.50896,-0.21695 0.73047,-0.0684 0.48851,0.3413 0.40296,1.04644 0.0684,1.46094 -0.66921,0.84554 -1.94916,0.68179 -2.69532,0.041 -1.40599,-1.20415 -1.09599,-3.38178 0.0664,-4.63867 2.03771,-2.2231 5.56908,-1.68283 7.58203,0.26172 3.38281,3.26536 2.49174,8.74134 -0.63476,11.83203 -5.03171,4.97042 -13.2493,3.56939 -17.83399,-1.24609 -7.11024,-7.46661 -4.98308,-19.40403 2.19141,-25.99805 10.78281,-9.90824 27.71171,-6.8012 36.96875,3.55273 13.53523,15.1397 9.09657,38.56559 -5.5,51.25977 -1.5463,1.28273 -3.09346,2.49546 -4.63867,3.65625 H -88 c 4.432,0 8,-3.568 8,-8 v -64 c 0,-4.432 -3.568,-8 -8,-8 z" display="inline" enable-background="new" opacity="1" paint-order="normal" style="marker:none"/><path id="path864" fill="#4fd2fd" fill-rule="evenodd" stroke="none" stroke-linecap="butt" stroke-linejoin="miter" stroke-opacity="1" stroke-width="1" d="m -176,268 v 24 l 24,-24 z"/><path color="#000" style="marker:none" id="path866" fill="#4fd2fd" fill-opacity="1" fill-rule="nonzero" stroke="none" stroke-dasharray="none" stroke-dashoffset="0" stroke-linecap="round" stroke-linejoin="round" stroke-miterlimit="4" stroke-opacity="1" stroke-width="2.295" d="m 80.444385,188.79637 0.495205,7.07806 c -19.305069,-1.33646 -39.021699,12.09163 -40.164024,32.36115 -0.78363,13.86174 8.98869,28.01959 23.624085,28.63077 9.740205,0.40688 19.691199,-6.53292 19.948849,-16.83572 0.1673,-6.64455 -4.652279,-13.44041 -11.727059,-13.48016 -4.39999,-0.0267 -8.90571,3.21758 -8.825405,7.9167 0.06692,2.79799 2.160845,5.67414 5.17559,5.54124 1.70311,-0.0743 3.464445,-1.39615 3.322575,-3.24066 -0.07361,-0.97891 -0.864605,-1.99937 -1.935995,-1.87423 -0.528665,0.0602 -1.080755,0.50457 -0.983055,1.0839 0.06692,0.25698 0.26768,0.53537 0.56213,0.46844 0.113765,-0.0267 0.23422,-0.13585 0.20076,-0.26233 0,-0.0402 -0.06692,-0.0897 -0.107075,-0.0689 0,0.003 -0.06692,0.02 0,0.0334 v 0.004 -2.1e-4 c -5e-4,-2e-4 0,0 0,-2e-4 v 0.002 -0.002 0.0335 c 0,0.0469 -0.08699,0.0469 -0.127145,0.0267 -0.113765,-0.0602 -0.107075,-0.22686 -0.06692,-0.32456 0.153915,-0.25162 0.50859,-0.21749 0.730095,-0.0689 0.488515,0.3413 0.40152,1.0471 0.06692,1.4616 -0.6692,0.84554 -1.94871,0.68098 -2.694865,0.0402 -1.40599,-1.20415 -1.09548,-3.38225 0.06692,-4.63914 2.03771,-2.2231 5.56908,-1.68291 7.58203,0.26164 3.382805,3.26536 2.49076,8.74223 -0.63574,11.83292 -5.03171,4.97042 -13.248145,3.56985 -17.83283,-1.24563 -7.110245,-7.46661 -4.98286,-19.40452 2.19163,-25.99854 10.78281,-9.90824 27.711549,-6.80102 36.968589,3.55291 13.53523,15.1397 9.09576,38.56491 -5.50081,51.25909 -10.442865,8.66285 -20.890409,14.48723 -30.942459,18.25162 -12.263085,70.84943 -70.648075,6.42143 -76.104061,-3.94079 L -16,188 Z" clip-path="url(#clipPath868)" clip-rule="nonzero" color-interpolation="sRGB" color-interpolation-filters="linearRGB" color-rendering="auto" display="inline" enable-background="accumulate" image-rendering="auto" mask="none" opacity="1" overflow="visible" shape-rendering="auto" text-rendering="auto" transform="translate(-200)" visibility="visible"/></g></g></svg>