<svg class="symbolic" viewbox="0 0 16 16" width="16" height="16"><g fill="#474747"><path d="M3.197 0A2.217 2.217 0 0 0 1 2.201V13.8c0 1.199.995 2.2 2.197 2.2h9.607A2.215 2.215 0 0 0 15 13.799V2.2c0-1.199-.994-2.2-2.196-2.2zm0 2h9.607c.124 0 .196.07.196.201V13.8c0 .13-.072.201-.196.201H3.197C3.073 14 3 13.93 3 13.799V2.2c0-.13.073-.201.197-.201z"/><path d="M7.844 3c-.266.01-.545.059-.813.125a3.99 3.99 0 0 0-2.906 4.844 3.985 3.985 0 0 0 4.373 2.994l-.388-2.98A.39.39 0 0 1 8 8a1 1 0 1 1 1-1 .797.797 0 0 1-.073.325l2.701 1.387c.386-.83.47-1.78.247-2.68A3.985 3.985 0 0 0 7.844 3z"/><path d="M8.661 8L10 12c.734 2.056 3 .384 1.497-1z"/></g></svg>