<svg class="symbolic" viewbox="0 0 16 16" width="16" height="16"><defs><clipPath id="a"><path fill="#474747" stroke-width="2" d="M26.85 220.75h3.825v6.375H26.85z"/></clipPath><clipPath id="b"><path fill="#474747" stroke-width="2" d="M26.966 221.282h2.898v5.313h-2.898z"/></clipPath><clipPath id="c"><path fill="#474747" stroke-width="2" d="M26.999 221.502h1.876v4.878h-1.876z"/></clipPath></defs><g fill="#474747"><path transform="matrix(0 -.78431 .94118 0 -202.765 31.059)" clip-path="url(#a)" d="M27.18 220.508a1.164 1.164 0 0 0-.81 1.998c.379.38.59.894.59 1.432 0 .537-.211 1.051-.59 1.431a1.164 1.164 0 1 0 1.644 1.645 4.352 4.352 0 0 0 1.275-3.077c0-1.153-.46-2.26-1.275-3.076a1.164 1.164 0 0 0-.834-.353z" /><path transform="matrix(0 -1.72549 1.88219 0 -413.493 54.529)" clip-path="url(#b)" d="M27.186 221.123a.555.555 0 0 0-.387.953 2.632 2.632 0 0 1 0 3.723.555.555 0 1 0 .785.785 3.743 3.743 0 0 0 0-5.293.555.555 0 0 0-.398-.168z" /><path transform="matrix(0 -2.66667 2.86852 0 -634.374 78)" clip-path="url(#c)" d="M27.188 221.318a.362.362 0 0 0-.252.621 2.825 2.825 0 0 1 0 3.997.362.362 0 1 0 .511.511 3.55 3.55 0 0 0 0-5.02.362.362 0 0 0-.26-.109z" /><path d="M10 13a2 2 0 0 1-2 2 2 2 0 0 1-2-2 2 2 0 0 1 2-2 2 2 0 0 1 2 2z"/></g></svg>