<svg class="symbolic" viewbox="0 0 16 16" width="16" height="16"><g fill="#474747"><path d="M5 5v2h6V5zm0 3v2h4l1-1 1-1zm0 3v2h3v-2z"/><path d="M5.469.012c-.49 0-.796.215-1.032.455C4.202.707 4 1.023 4 1.497V2H2v14h8v-2H4V4h2V2.012h4V4h2v3h2V2h-2v-.395l-.002-.027a1.622 1.622 0 0 0-.416-1.014c-.236-.279-.62-.584-1.2-.552z"/><path d="M12.957 8.002a1 1 0 0 0-.664.291l-3 3A1 1 0 0 0 10 13h2.104l-.96 1.404a1 1 0 0 0 1.524 1.28l3.031-2.97A1 1 0 0 0 15 11h-2.13l.962-1.445a1 1 0 0 0-.875-1.553z"/><path d="M15 11h1v1h-1zm-6 1h1v1H9zm4-4h1v1h-1zm-2.031 6.968h1v1h-1z"/></g></svg>