<svg class="symbolic" viewbox="0 0 16 16" width="16" height="16"><path class="error" d="M5 11v2h2v-2z" fill="#c00"/><path d="M5.469.012c-.49 0-.796.215-1.032.455C4.202.707 4 1.023 4 1.497V2H2v14h5v-2H4V4h2V2.012h4V4h2v3h2V2h-2v-.395l-.002-.027a1.622 1.622 0 0 0-.416-1.014c-.236-.278-.62-.584-1.2-.552z" fill="#474747"/><path class="warning" d="M8.875 8A.863.863 0 0 0 8 8.875v6.25c0 .492.383.875.875.875h6.25a.863.863 0 0 0 .875-.875v-6.25A.863.863 0 0 0 15.125 8zM11 9h2v4h-2zm0 5h2v1h-2z" fill="#f57900"/></svg>