<svg class="symbolic" viewbox="0 0 16 16" width="16" height="16"><g fill="#2e3436"><path d="M.5 13h2c.277 0 .5.223.5.5v1c0 .277-.223.5-.5.5h-2a.499.499 0 0 1-.5-.5v-1c0-.277.223-.5.5-.5zm13 0h2c.277 0 .5.223.5.5v1c0 .277-.223.5-.5.5h-2a.499.499 0 0 1-.5-.5v-1c0-.277.223-.5.5-.5zm-2.318-3.596l1.414-1.415a.499.499 0 0 1 .707 0l.707.708a.499.499 0 0 1 0 .707l-1.414 1.414a.499.499 0 0 1-.707 0l-.707-.707a.499.499 0 0 1 0-.707zM9 8.5v-4c0-.277-.223-.5-.5-.5h-1c-.277 0-.5.223-.5.5v4c0 .277.223.5.5.5h1c.277 0 .5-.223.5-.5zm-5.596 2.318L1.989 9.404a.499.499 0 0 1 0-.707l.708-.707a.499.499 0 0 1 .707 0l1.414 1.414a.499.499 0 0 1 0 .707l-.707.707a.499.499 0 0 1-.707 0z"/><path d="M8 10c-2.197 0-4 1.803-4 4a1 1 0 0 0 1 1h6a1 1 0 0 0 1-1c0-2.197-1.803-4-4-4zm0 2c.723 0 1.239.436 1.59 1H6.41c.351-.564.867-1 1.59-1zM8 1.586L5.293 4.293l1.414 1.414L8 4.414l1.293 1.293 1.414-1.414z"/><path d="M10 5v1h1V5zM5 5v1h1V5z"/><path d="M5 5c0 .554.446 1 1 1s1-.446 1-1-.446-1-1-1-1 .446-1 1zm4 0c0 .554.446 1 1 1s1-.446 1-1-.446-1-1-1-1 .446-1 1zm-4 9a3 3 0 0 1 3-3 3 3 0 0 1 3 3H8z"/></g></svg>