<svg class="symbolic" viewbox="0 0 16 16" width="16" height="16"><g fill="#474747"><path d="M.5 7h2c.277 0 .5.223.5.5v1c0 .277-.223.5-.5.5h-2a.499.499 0 0 1-.5-.5v-1c0-.277.223-.5.5-.5zm13 0h2c.277 0 .5.223.5.5v1c0 .277-.223.5-.5.5h-2a.499.499 0 0 1-.5-.5v-1c0-.277.223-.5.5-.5zM1.99 12.596l1.414-1.414a.499.499 0 0 1 .707 0l.707.707a.499.499 0 0 1 0 .707L3.404 14.01a.499.499 0 0 1-.707 0l-.707-.707a.499.499 0 0 1 0-.707zm9.192-9.192l1.414-1.415a.499.499 0 0 1 .707 0l.707.708a.499.499 0 0 1 0 .707l-1.414 1.414a.499.499 0 0 1-.707 0l-.707-.707a.499.499 0 0 1 0-.707zM7 15.5v-2c0-.277.223-.5.5-.5h1c.277 0 .5.223.5.5v2c0 .277-.223.5-.5.5h-1a.499.499 0 0 1-.5-.5zm0-13v-2c0-.277.223-.5.5-.5h1c.277 0 .5.223.5.5v2c0 .277-.223.5-.5.5h-1a.499.499 0 0 1-.5-.5zm5.596 11.51l-1.414-1.414a.499.499 0 0 1 0-.707l.707-.707a.499.499 0 0 1 .707 0l1.414 1.414a.499.499 0 0 1 0 .707l-.707.707a.499.499 0 0 1-.707 0zM3.404 4.818L1.989 3.404a.499.499 0 0 1 0-.707l.708-.707a.499.499 0 0 1 .707 0l1.414 1.414a.499.499 0 0 1 0 .707l-.707.707a.499.499 0 0 1-.707 0z"/><path d="M8 4C5.803 4 4 5.803 4 8s1.803 4 4 4 4-1.803 4-4-1.803-4-4-4zm0 2c1.117 0 2 .884 2 2s-.883 2-2 2c-1.116 0-2-.884-2-2s.884-2 2-2z"/></g></svg>