<svg width="16" height="16.001" class="symbolic" viewbox="0 0 16 16"><g fill="#474747"><path d="M5.985 5.015A1 1 0 0 1 5 4c0-1.426.76-2.748 1.992-3.463a3.985 3.985 0 0 1 3.993 0A4.006 4.006 0 0 1 12.979 4a1 1 0 1 1-2 0c0-.717-.38-1.375-.996-1.732a1.975 1.975 0 0 0-1.987 0A1.998 1.998 0 0 0 7 4a1 1 0 0 1-1.015 1.014zM7.5 12.001a2.515 2.515 0 0 1-2.5-2.5 1 1 0 1 1 2 0c0 .288.212.5.5.5.288 0 .5-.212.5-.5a1 1 0 1 1 2 0c0 1.37-1.13 2.5-2.5 2.5z"/><path d="M8.985 4.988A1 1 0 0 0 8 6v3.47a1 1 0 1 0 2 0V6.001a1 1 0 0 0-1.015-1.013zm3-2A1 1 0 0 0 11 4v6.817a1 1 0 1 0 2 0V4a1 1 0 0 0-1.015-1.013zm-6 0A1 1 0 0 0 5 4v5.406a1 1 0 1 0 2 0V4.001a1 1 0 0 0-1.015-1.013zm-3 1A1 1 0 0 0 2 5v6a1 1 0 1 0 2 0V5a1 1 0 0 0-1.015-1.013z"/><path d="M12.037 9.99a1 1 0 0 0-.838.412l-2.699 3.6H6.494l-2.699-3.544a1 1 0 1 0-1.59 1.211l3 3.938A1 1 0 0 0 6 16h3a1 1 0 0 0 .8-.4l3-4a1 1 0 0 0-.763-1.611z"/></g></svg>