<svg class="symbolic" viewbox="0 0 16 16" width="16" height="16"><g fill="#474747" stroke="#474747"><path d="M15 4h-3c-1.108 0-2 .892-2 2v4c0 1.108-.892 2-2 2H2" fill="none" stroke-width="2"/><path d="M4 10l-2 2 2 2M4 2L2 4l2 2" fill="none" stroke-width="2" stroke-linecap="round"/><path d="M8 3c.23 0 .44.044.656.094-.481.55-.861 1.177-1.031 1.906H2V3h6zm7 8v2h-3c-.23 0-.44-.044-.656-.094.481-.55.861-1.177 1.031-1.906z" stroke="none"/><path d="M5 9H4v1h1zm0 5H4v1h1zM5 1H4v1h1zm0 5H4v1h1z" stroke="none"/></g></svg>