<svg class="symbolic" viewbox="0 0 16 16" width="16" height="16"><g fill="#474747"><path d="M5.99 8.99a1 1 0 0 0-.697 1.717L6.586 12l-1.293 1.293a1 1 0 1 0 1.414 1.414L9.414 12 6.707 9.293a1 1 0 0 0-.717-.303z"/><path d="M15 9.005V10c0 1.645-1.355 3-3 3h-1v-2h1c.572 0 1-.429 1-1v-.983zM6.993 5H4c-.571 0-1 .429-1 1v4c0 .571.429 1 1 1h4v2H4c-1.644 0-3-1.355-3-3V6c0-1.645 1.356-3 3-3h2.982z"/><path d="M6 9H5v1h1zm0 5H5v1h1zm6-14a4 4 0 1 0 0 8 4 4 0 0 0 0-8zm-1 2h2v4h-2l-.004-1.989L10 4V3z"/></g></svg>