<svg class="symbolic" viewbox="0 0 16 16" width="16" height="16"><defs><clipPath id="a"><path fill="none" stroke="#fff" stroke-width="2" stroke-linecap="round" stroke-linejoin="round" d="M21 281h14v11H21z"/></clipPath></defs><g fill="#474747"><path d="M13 1a2 2 0 1 0 0 4 2 2 0 0 0 0-4zm0 1a1 1 0 1 1 0 2 1 1 0 0 1 0-2z" opacity=".5"/><path d="M5.5 1C6.885 1 8 2.115 8 3.5v5C8 9.885 6.885 11 5.5 11A2.494 2.494 0 0 1 3 8.5v-5C3 2.115 4.115 1 5.5 1z"/><path transform="matrix(.99397 0 0 1 -22.293 -275.486)" clip-path="url(#a)" d="M27.969 273.629a4.535 4.535 0 0 0-4.533 4.533v5.807a4.535 4.535 0 0 0 4.533 4.533 4.535 4.535 0 0 0 4.533-4.533v-5.807a4.535 4.535 0 0 0-4.533-4.533zm0 1.004a3.51 3.51 0 0 1 3.529 3.53v5.806a3.51 3.51 0 0 1-3.53 3.53 3.51 3.51 0 0 1-3.529-3.53v-5.807a3.51 3.51 0 0 1 3.53-3.53z"/><path d="M2 5.5a.5.5 0 0 1-.5.5.5.5 0 0 1-.5-.5.5.5 0 0 1 .5-.5.5.5 0 0 1 .5.5zm8 0a.5.5 0 0 1-.5.5.5.5 0 0 1-.5-.5.5.5 0 0 1 .5-.5.5.5 0 0 1 .5.5z"/><path d="M2 14a1 1 0 1 0 0 2h7a1 1 0 1 0 0-2z"/><path d="M1 15h9v1H1z"/><path d="M4 12h3v4H4z"/><path d="M15 13a2 2 0 0 1-2 2 2 2 0 0 1-2-2 2 2 0 0 1 2-2 2 2 0 0 1 2 2z"/><path d="M13 6a2 2 0 1 0 0 4 2 2 0 0 0 0-4zm0 1a1 1 0 1 1 0 2 1 1 0 0 1 0-2z" opacity=".5"/></g></svg>