<svg xmlns="http://www.w3.org/2000/svg" class="symbolic" width="16" height="16"><path style="marker:none" d="M2.063 0C.911 0 0 .912 0 2.062v11.875C0 15.088.912 16 2.063 16h11.874C15.088 16 16 15.088 16 13.937V2.063C16 .912 15.088 0 13.937 0zM2 3h3s.459-.014.947.23C6.436 3.475 7 4.167 7 5v2.5a1 1 0 0 1-.24.65L4.316 11H7v2H3a1 1 0 0 1-1-1v-1a1 1 0 0 1 .24-.65L5 7.13V5H2zm8.063.031h1.906c.003 0-.003.032 0 .031.527-.02 1.072.076 1.5.47.415.38.593 1.007.562 1.593h.031V6h-2v-.968c-.017-.003.003-.003-.03 0H10.03c-.006.003-.029-.004-.03 0-.008.022.006.046 0 .062v5.843c-.025-.021 0 .063 0 .063h1.968c.007-.02.03-.016.031 0V9.03h-1v-2h3v3.938c0 .562-.227 1-.562 1.375a1.966 1.966 0 0 1-1.47.625V13H10c-.625 0-.994-.241-1.344-.563A1.863 1.863 0 0 1 8.031 11c0-.002-.031.002-.03 0V4.937c.062-.437.204-.889.562-1.28.357-.393.946-.626 1.5-.626z" color="#bebebe" overflow="visible" fill="#2e3436"/></svg>