<svg class="symbolic" viewbox="0 0 16 16" width="16" height="16"><path d="M8.033 0a1 1 0 0 0-.976.67L5.54 5H1.25a1 1 0 0 0-.594 1.805l3.528 2.597-1.15 4.342a1 1 0 0 0 1.532 1.08L8 12.463l3.434 2.361a1 1 0 0 0 1.533-1.082l-1.155-4.34 3.53-2.597A1 1 0 0 0 14.75 5h-4.291L8.943.67a1 1 0 0 0-.91-.67zM8 4.025l.807 2.305A1 1 0 0 0 9.75 7h1.953l-1.625 1.195a1 1 0 0 0-.373 1.063l.635 2.387-1.774-1.22a1 1 0 0 0-1.132 0l-1.776 1.221.633-2.39a1 1 0 0 0-.373-1.06L4.295 7H6.25a1 1 0 0 0 .943-.67z" fill="#2e3436"/></svg>