<svg xmlns="http://www.w3.org/2000/svg" class="symbolic" width="16.042" height="16.064"><path d="M8.116 1.002a7.013 7.013 0 0 0-7.086 7.61A7.013 7.013 0 0 0 8.003 15a1 1 0 1 0 0-2 4.987 4.987 0 0 1-4.98-4.565 4.986 4.986 0 0 1 4.11-5.36A4.976 4.976 0 0 1 12.571 6h-1.568c-.554 0-1 .446-1 1v1h6V2h-1c-.554 0-1 .446-1 1v1.396A7.027 7.027 0 0 0 8.116 1z" style="line-height:normal;font-variant-ligatures:normal;font-variant-position:normal;font-variant-caps:normal;font-variant-numeric:normal;font-variant-alternates:normal;font-feature-settings:normal;text-indent:0;text-align:start;text-decoration-line:none;text-decoration-style:solid;text-decoration-color:#000;text-transform:none;text-orientation:mixed;white-space:normal;shape-padding:0;isolation:auto;mix-blend-mode:normal;solid-color:#000;solid-opacity:1" color="#000" font-weight="400" font-family="sans-serif" overflow="visible" fill="#2e3436" fill-rule="evenodd"/><path style="line-height:normal;-inkscape-font-specification:Sans;text-indent:0;text-align:start;text-decoration-line:none;text-transform:none;marker:none" d="M13.034 8.939c-1.089 0-2 .879-2 1.969v1.094h-.969v4.062h5.97v-4.063h-1.032v-1.093c0-1.09-.88-1.969-1.969-1.969zm0 1c.546 0 .969.417.969.969v1.094h-1.969v-1.094c0-.552.454-.969 1-.969z" color="#000" font-weight="400" font-family="Sans" overflow="visible" fill="#2e3436"/></svg>