<svg width="16" height="16" class="symbolic" viewbox="0 0 16 16"><g fill="#2e3436"><path d="M8.033 0a1 1 0 0 0-.976.67L5.54 5H1.25a1 1 0 0 0-.592 1.805l3.53 2.597-1.155 4.34a1 1 0 0 0 1.533 1.082L8 12.463l3.434 2.361a1 1 0 0 0 1.533-1.08l-1.15-4.342 3.527-2.597A1 1 0 0 0 14.75 5h-4.291L8.943.67a1 1 0 0 0-.91-.67zM8 4.025l.807 2.305A1 1 0 0 0 9.75 7h1.955l-1.623 1.195a1 1 0 0 0-.373 1.06l.633 2.391-1.776-1.22a1 1 0 0 0-1.132 0L5.66 11.645l.635-2.387a1 1 0 0 0-.373-1.063L4.297 7H6.25a1 1 0 0 0 .943-.67z"/><path d="M8 1l1.75 5h5l-4.074 3L12 14l-4-2.75z"/></g></svg>