<svg xmlns="http://www.w3.org/2000/svg" xmlns:svg="http://www.w3.org/2000/svg" id="svg3393" width="64" height="64" version="1.1"><defs id="defs3395"><clipPath id="clipPath6262-0" clipPathUnits="userSpaceOnUse"><rect id="rect6264-6" width="3.825" height="6.375" x="26.85" y="220.75" fill="#bebebe" fill-opacity="1" fill-rule="nonzero" stroke="none" stroke-width="2" color="#bebebe" display="inline" overflow="visible" visibility="visible" style="marker:none"/></clipPath><clipPath id="clipPath6258-0" clipPathUnits="userSpaceOnUse"><rect id="rect6260-6" width="2.898" height="5.313" x="26.966" y="221.282" fill="#bebebe" fill-opacity="1" fill-rule="nonzero" stroke="none" stroke-width="2" color="#bebebe" display="inline" overflow="visible" visibility="visible" style="marker:none"/></clipPath><clipPath id="clipPath6254-6" clipPathUnits="userSpaceOnUse"><rect id="rect6256-6" width="1.876" height="4.878" x="26.999" y="221.502" fill="#bebebe" fill-opacity="1" stroke="none" stroke-width="2" color="#bebebe" display="inline" overflow="visible" visibility="visible" style="marker:none"/></clipPath><clipPath id="clipPath8028-3" clipPathUnits="userSpaceOnUse"><path id="path8030-6" fill="none" stroke="#000" stroke-linecap="butt" stroke-linejoin="miter" stroke-opacity="1" stroke-width="1" d="m -73,-30 -7,-7 v -4.5 h 16.5 v 4.5 l -7.5,7 z"/></clipPath><clipPath id="clipPath6810-7-87-7" clipPathUnits="userSpaceOnUse"><rect id="rect6812-2-4-5" width="14" height="11" x="21" y="281" fill="none" stroke="#fff" stroke-dasharray="none" stroke-dashoffset="0" stroke-linecap="round" stroke-linejoin="round" stroke-miterlimit="4" stroke-opacity="1" stroke-width="2" color="#bebebe" display="inline" overflow="visible" visibility="visible" style="marker:none"/></clipPath><clipPath id="clipPath6262" clipPathUnits="userSpaceOnUse"><rect id="rect6264" width="3.825" height="6.375" x="26.85" y="220.75" fill="#bebebe" fill-opacity="1" fill-rule="nonzero" stroke="none" stroke-width="2" color="#bebebe" display="inline" overflow="visible" visibility="visible" style="marker:none"/></clipPath><clipPath id="clipPath6258" clipPathUnits="userSpaceOnUse"><rect id="rect6260" width="2.898" height="5.313" x="26.966" y="221.282" fill="#bebebe" fill-opacity="1" fill-rule="nonzero" stroke="none" stroke-width="2" color="#bebebe" display="inline" overflow="visible" visibility="visible" style="marker:none"/></clipPath><clipPath id="clipPath6254" clipPathUnits="userSpaceOnUse"><rect id="rect6256" width="1.876" height="4.878" x="26.999" y="221.502" fill="#bebebe" fill-opacity="1" stroke="none" stroke-width="2" color="#bebebe" display="inline" overflow="visible" visibility="visible" style="marker:none"/></clipPath></defs><metadata id="metadata3398"/><g id="layer1"><g id="g19245" display="inline" transform="matrix(4,0,0,4,-79.702662,-0.35415646)"><g id="g19251" transform="translate(-323.02908,-649.02581)"><path id="path19253" fill="#c3c3c3" fill-opacity="1" fill-rule="nonzero" stroke="none" stroke-width="2" d="m 331.9377,653 c 0.0187,0.16677 0.0625,0.32822 0.0625,0.5 0,2.48528 -2.01472,4.5 -4.5,4.5 -0.11769,0 -0.22834,-0.0224 -0.34375,-0.0312 v 2.21875 c 0,1.00412 0.80838,1.8125 1.8125,1.8125 l 1.54511,-5e-5 2,2.04688 2.0625,-2.04688 h 1.61114 c 1.00413,0 1.8125,-0.80838 1.8125,-1.8125 v -5.375 c 0,-1.00412 -0.80837,-1.8125 -1.8125,-1.8125 z" color="#000" display="inline" enable-background="accumulate" opacity=".5" overflow="visible" visibility="visible" style="marker:none"/><path id="path19255" fill="#bebebe" fill-opacity="1" fill-rule="nonzero" stroke="none" d="m 327.5002,650 c -1.933,0 -3.5,1.567 -3.5,3.5 0,1.933 1.567,3.5 3.5,3.5 1.933,0 3.5,-1.567 3.5,-3.5 0,-1.933 -1.567,-3.5 -3.5,-3.5 z m -0.53125,1 h 1.03125 l -0.0625,1.375 a 0.19951718,0.19951718 0 0 0 0,0.0625 0.19951718,0.19951718 0 0 0 0,0.0312 0.19951718,0.19951718 0 0 0 0.125,0.125 0.19951718,0.19951718 0 0 0 0.0312,0 0.19951718,0.19951718 0 0 0 0.0625,0 0.19951718,0.19951718 0 0 0 0.0625,0 0.19951718,0.19951718 0 0 0 0.0312,-0.0312 l 1.15625,-0.75 0.5,0.90625 -1.21875,0.625 a 0.19951718,0.19951718 0 0 0 -0.0312,0 0.19951718,0.19951718 0 0 0 -0.0312,0.0312 0.19951718,0.19951718 0 0 0 -0.0312,0.0937 0.19951718,0.19951718 0 0 0 0,0.0625 0.19951718,0.19951718 0 0 0 0,0.0312 0.19951718,0.19951718 0 0 0 0.0312,0.0625 0.19951718,0.19951718 0 0 0 0.0312,0.0312 0.19951718,0.19951718 0 0 0 0.0312,0.0312 l 1.25,0.625 -0.53125,0.90625 -1.15625,-0.781 a 0.19951718,0.19951718 0 0 0 -0.0312,0 0.19951718,0.19951718 0 0 0 -0.0625,-0.0312 0.19951718,0.19951718 0 0 0 -0.0625,0 0.19951718,0.19951718 0 0 0 -0.125,0.0937 0.19951718,0.19951718 0 0 0 -0.0312,0.0312 0.19951718,0.19951718 0 0 0 0,0.0312 0.19951718,0.19951718 0 0 0 0,0.0625 L 328.0002,656 h -1.03125 l 0.0937,-1.375 a 0.19951718,0.19951718 0 0 0 -0.0312,-0.0937 0.19951718,0.19951718 0 0 0 -0.0312,-0.0625 0.19951718,0.19951718 0 0 0 -0.0625,-0.0312 0.19951718,0.19951718 0 0 0 -0.0625,-0.0312 0.19951718,0.19951718 0 0 0 -0.0312,0 0.19951718,0.19951718 0 0 0 -0.0937,0.0312 l -1.1875,0.78125 -0.5,-0.90625 1.25,-0.625 a 0.19951718,0.19951718 0 0 0 0.0312,-0.0312 0.19951718,0.19951718 0 0 0 0.0312,-0.0312 0.19951718,0.19951718 0 0 0 0.0312,-0.0625 0.19951718,0.19951718 0 0 0 0,-0.0312 0.19951718,0.19951718 0 0 0 0,-0.0625 0.19951718,0.19951718 0 0 0 0,-0.0312 0.19951718,0.19951718 0 0 0 -0.0312,-0.0625 0.19951718,0.19951718 0 0 0 -0.0312,-0.0312 0.19951718,0.19951718 0 0 0 -0.0312,0 l -1.25,-0.625 0.5,-0.90625 1.1875,0.75 a 0.19951718,0.19951718 0 0 0 0.0312,0.0312 0.19951718,0.19951718 0 0 0 0.0625,0 0.19951718,0.19951718 0 0 0 0.0625,0 0.19951718,0.19951718 0 0 0 0.0312,0 0.19951718,0.19951718 0 0 0 0.0312,-0.0312 0.19951718,0.19951718 0 0 0 0.0312,-0.0312 0.19951718,0.19951718 0 0 0 0.0312,-0.0312 0.19951718,0.19951718 0 0 0 0,-0.0312 0.19951718,0.19951718 0 0 0 0.0312,-0.0625 0.19951718,0.19951718 0 0 0 0,-0.0312 z" color="#000" display="inline" enable-background="accumulate" overflow="visible" visibility="visible" style="marker:none"/></g></g><g id="g13967" fill="#bebebe" fill-opacity="1" stroke="none" stroke-dasharray="none" stroke-dashoffset="0" stroke-linecap="butt" stroke-linejoin="miter" stroke-miterlimit="4" stroke-opacity="1" stroke-width="1" opacity="1" transform="matrix(4,0,0,4,-1044.0008,-2172)" style="marker:none"><path id="path40220" fill="#bebebe" fill-opacity="1" stroke="none" stroke-dasharray="none" stroke-dashoffset="0" stroke-linecap="butt" stroke-linejoin="miter" stroke-miterlimit="4" stroke-opacity="1" stroke-width="1" d="m 268.94244,544.94838 c -2.20914,0 -3.33013,1.5 -4,4 l -1,5 c -0.10831,0.54156 -0.44772,1 -1,1 v 1 h 12 v -1 c -0.55229,0 -0.89169,-0.45844 -1,-1 l -1,-5 c -0.53033,-2.5 -1.79086,-4 -4,-4 z" opacity="1" paint-order="normal" vector-effect="none" style="marker:none"/><path id="path40774" fill="#bebebe" fill-opacity="1" stroke="none" stroke-dasharray="none" stroke-dashoffset="0" stroke-linecap="butt" stroke-linejoin="miter" stroke-miterlimit="4" stroke-opacity="1" stroke-width="1" d="m 269.11822,556.94838 a 1.5,1.5 0 0 0 1.41211,1 1.5,1.5 0 0 0 1.41211,-1 z" opacity="1" paint-order="normal" vector-effect="none" style="marker:none"/></g></g></svg>