<svg class="symbolic" viewbox="0 0 16 16" width="16" height="16"><g fill="#474747"><path d="M3.5 8A3.515 3.515 0 0 0 0 11.5C0 13.421 1.58 15 3.5 15 5.423 15 7 13.421 7 11.5S5.423 8 3.5 8zm0 2c.841 0 1.5.66 1.5 1.5S4.342 13 3.5 13c-.84 0-1.5-.66-1.5-1.5S2.66 10 3.5 10zm8-2A3.515 3.515 0 0 0 8 11.5c0 1.921 1.58 3.5 3.5 3.5 1.922 0 3.5-1.579 3.5-3.5S13.423 8 11.5 8zm0 2c.841 0 1.5.66 1.5 1.5s-.659 1.5-1.5 1.5c-.84 0-1.5-.66-1.5-1.5s.66-1.5 1.5-1.5z"/><path d="M5 2h2v9.516H5zm8 0h2v9.563h-2z"/><path d="M5 2h10v2H5z"/></g></svg>