<svg width="16" height="16.007" class="symbolic" viewbox="0 0 16 16"><g fill="#474747"><path d="M5.5 6.007a.5.5 0 1 0 0 1h6a.5.5 0 1 0 0-1zm0 2a.5.5 0 1 0 0 1h5a.5.5 0 1 0 0-1zm0 2a.5.5 0 1 0 0 1h6a.5.5 0 1 0 0-1zm0 2a.5.5 0 1 0 0 1h3a.5.5 0 1 0 0-1z"/><path d="M4 1.007c-1.09 0-2 .91-2 2v11c0 1.09.91 2 2 2h9c1.09 0 2-.91 2-2v-11c0-1.09-.91-2-2-2v13H4v-13z"/><path d="M5.492 0A.5.5 0 0 0 5 .506v3a.5.5 0 1 0 1 0v-3A.5.5 0 0 0 5.492 0zm2 0A.5.5 0 0 0 7 .506v3a.5.5 0 1 0 1 0v-3A.5.5 0 0 0 7.492 0zm2 0A.5.5 0 0 0 9 .506v3a.5.5 0 1 0 1 0v-3A.5.5 0 0 0 9.492 0zm2 0A.5.5 0 0 0 11 .506v3a.5.5 0 1 0 1 0v-3A.5.5 0 0 0 11.492 0z"/></g></svg>