<svg class="symbolic" viewbox="0 0 16 16" height="16" width="16"><path d="M4.502 4.012c-.83 0-1.496.666-1.496 1.496v6.006c0 .83.667 1.498 1.496 1.498.83 0 1.498-.669 1.498-1.498V8.979h4v2.533c0 .83.669 1.5 1.5 1.5s1.5-.67 1.5-1.5v-6c0-.831-.669-1.5-1.5-1.5s-1.5.669-1.5 1.5V8H6V5.508c0-.83-.669-1.496-1.498-1.496zM1.506 6.01a.494.494 0 0 0-.5.5v1.5h-1v1h1v1.468c0 .277.223.508.5.5l.5-.014V6.013zm12.994 0c.277-.007.5.224.5.5v1.5h1v1h-1v1.468a.494.494 0 0 1-.5.5l-.5-.014V6.013z" fill="#474747"/></svg>