<svg class="symbolic" viewbox="0 0 16 16" height="16.005" width="16.001"><path d="M12 6.006h1v1h-1zm-1 1h1v1h-1zm2 0h1v1h-1zm-1 .999h1v1h-1zm-1 .999h1v1h-1zm2 0h1v.153l-.355.847H13zm1-2.998h1v.73l-.105.27H14zm-2 3.998h1v1h-1zm-1 .999h1v1h-1zm1 1h.817l-.41.999H12zm-1 .999h1v.96l-.012.04H11z" fill="#474747"/><path d="M13 11.003h.235l-.235.558zm1-2.998h.473l-.414 1H14zm1-2.998h.721l-.42 1h-.3z" fill="#bdbdbd" fill-opacity=".365"/><path d="M15 3.008h.543c.219.193.43.573.45 1H15zm-1-.738l1 .418v.32h-1zm-3-1.26l1 .421v.578h-1z" fill="#474747"/><path d="M11 15h.574c-.146.372-.45.65-.582.723z" fill="#bdbdbd" fill-opacity=".365"/><path d="M12 2.009h1v1h-1zm-1 .999h1v1h-1zm2 0h1v1h-1zm-1 1h1v.999h-1zm2 0h1v.999h-1zm-1 .999h1v1h-1zm-2 0h1v1h-1zM1.25.01C.542.168 0 .874 0 1.697v12.585C0 15.222.735 16 1.594 16h7.812c.86 0 1.594-.778 1.594-1.718V1.697C11 .757 10.265.01 9.406.01H1.594c-.108 0-.243-.022-.344 0zm1.063 1h.375L4 4.008h-.594l-.406-1H2l-.375 1H1L2.313 1.01zm.187.624l-.406 1h.812l-.406-1zm1.25 3.373c.967 0 1.75.742 1.75 1.686 0-.944.784-1.686 1.75-1.686.967 0 1.75.742 1.75 1.686 0 .45-.18.882-.469 1.187l-.03.031-3 3.092-2.845-2.998c-.12-.098-.19-.218-.28-.343C2.174 7.384 2 7.059 2 6.693c0-.944.784-1.686 1.75-1.686zM7 12.003h.625l.375.999h1l.406-1H10l-1.312 2.999h-.375L7 12.003zm1.094 1.374l.406 1 .406-1h-.812z" fill="#474747"/><path d="M13 2.009h.375L13 1.853 10.406.76 10.531 15l-1.015.953c.94.159 1.723-.146 2.047-.921l4.312-10.4c.324-.775-.045-1.621-.781-1.905l-1.719-.718m-.375 0v-.156" fill="#bdbdbd" fill-opacity=".365"/><path d="M11 15s.004-.12 0-1.007c0 .667-.05.767-.156 1.008z" fill="#bdbdbd" fill-opacity=".365"/><path d="M10.281.406v.532l.031 13.687-1.062.719-.906.594L9.406 16s.239.01.531 0c.293-.01.647-.048.938-.156.474-.177.9-.501 1.094-1l3.906-10.031c.348-.895-.055-1.883-.875-2.25-.007-.003.007-.028 0-.032h-.031l-1.532-.687-.343-.156L10.75.625l-.47-.219zm.688 1.063l1.843.844.344.156 1.531.687h.032c.477.198.728.82.5 1.407l-3.875 10.03c-.047.12-.23.18-.344.282v-.031l-.031-13.375z" fill="#474747"/></svg>