<svg class="symbolic" viewbox="0 0 16 16" height="16" width="16"><g fill="#474747"><path d="M7.97.123c-1.5.006-2.9.404-4.092 1.138C4.32 2.518 5.17 3.492 5.585 4c.543-.121 1.11-.085 1.415 0 .61-1.884.754-2.8.754-2.8zm.03 0l.492.984c.623 1.288.828 2.208.892 2.861.028.284.045.508.031.677.661.12 1.252.285 1.6.553.43.333.636.737.861 1.139.45.803.931 1.686 3.322 2.737l.123.062.093.123c.104.199.153.388.215.584a7.733 7.733 0 0 0 .246-1.845A7.875 7.875 0 0 0 8 .123zM2.648 2.215A7.864 7.864 0 0 0 .125 7.998a7.81 7.81 0 0 0 1.477 4.583c.178-.733.174-2.126.277-3.599.1-1.433.34-2.939 1.107-4.153-.473-.787-.51-1.707-.37-2.46a8.3 8.3 0 0 1 .032-.154zm6.49 10.582c-.043.262.019.622.154 1.046.166.519.477 1.129.8 1.753a7.97 7.97 0 0 0 2.522-1.23c-1.693-1.256-2.677-1.546-3.445-1.57 0 .004-.03-.002-.03 0z" fill-opacity=".365"/><path d="M3.663 3.137L4 5c-.18 1.23-.797 2.268-1 3.503-.126 1.65-.359 4.238.002 4.862.408.422 1.013.85 1.768 1.185 1.006.446 2.231.662 3.446.646l-.339-.615a.584.584 0 0 1-.062-.277l.031-1.784a.585.585 0 0 1 .123-.37l.216-.276a.597.597 0 0 1 .615-.185l2.645.77a.585.585 0 0 1 .154.06l1.446.893.707-.523 1.077-1.938-.492-1.23-2.4-1.385a.585.585 0 0 1-.184-.184L10.43 5.967l-1.569-.645a.592.592 0 0 1-.338-.4L8 3l-.48 2C6.55 4.836 5.624 5 5 5L3.663 3.137z"/></g></svg>