<svg class="symbolic" viewbox="0 0 16 16" height="16" width="16"><defs><clipPath id="a"><path color="#474747" fill="#474747" stroke-width="2" d="M26.966 221.33h2.898v5.216h-2.898z"/></clipPath></defs><g fill="#474747"><path d="M1.563.031C.706.031 0 .721 0 1.58v9.88c0 1.612 1.487 2.537 2.344 2.54H5v-4h2l2-2h3V4.027l-9.437-.031c-1.953.03-2.235-2.942 0-2.974H12s.125-1.022-1-.99H1.563z"/><path d="M.99 4.363h10.813c-1.462-.577-1.36-2.643 0-3.26H.99z" opacity=".3"/><path clip-path="url(#a)" d="M27.125 221.094a.58.58 0 0 0-.344 1 2.598 2.598 0 0 1 0 3.687.58.58 0 1 0 .813.813 3.758 3.758 0 0 0 0-5.313.58.58 0 0 0-.469-.187z" transform="matrix(1.13607 0 0 .95029 -17.6 -200.278)"/><path d="M6.005 11h1.652l1.951-2.018.364.01v6.949h-.316l-2.021-1.905H5.983L6.005 11z" color="#474747"/><path d="M11 11h.79c.41 1 .418 2 .038 3H11z"/></g></svg>