<svg class="symbolic" viewbox="0 0 16 16" height="16" width="16.002"><g transform="translate(-523 165)"><circle cx="534.503" cy="153.5" r="4.5" transform="scale(1 -1)" fill="#bfbfbf" fill-opacity=".298"/><path d="M523.469-165a.48.48 0 0 0-.469.469v12.062c0 .259.21.469.469.469h5.75a5.414 5.414 0 0 1-.219-1.5 5.5 5.5 0 0 1 5.5-5.5c.898 0 1.752.212 2.5.594v-2.125c0-.25-.218-.438-.469-.438l-.03-.03H525v6.5c0 .268-.23.5-.5.5a.51.51 0 0 1-.5-.5v-7c0-.31.154-.5.5-.5H535v-.5a.49.49 0 0 0-.5-.5H528v-1.532a.48.48 0 0 0-.468-.469h-4.063zm11.312 7a4.53 4.53 0 0 0-4.625 3.344 4.491 4.491 0 0 0 3.188 5.5 4.491 4.491 0 0 0 5.5-3.188c.057-.214.1-.438.126-.656h-4.49l.53-4.978a3.196 3.196 0 0 0-.229-.022z" fill="#474747"/><circle cx="532.588" cy="152.776" r="3.09" transform="scale(1 -1)" fill="none"/></g></svg>