<svg class="symbolic" viewbox="0 0 16 16" height="16" width="16"><path d="M7.835 2.15a.936.936 0 0 0-.625.376.967.967 0 0 0 .219 1.344l1.687 1.218H3.053c-.557 0-1.03.443-1.03 1 0 .558.473 1 1.03 1h2.904l-4.432 5.089c-.42.483-.639 1.143-.19 1.599.449.456 1.143.452 1.563-.031l2.437-2.813a4.895 4.895 0 0 0 3.219 2.969c2.64.782 5.458-.614 6.281-3.125.629-1.92-.1-3.933-1.656-5.125L8.554 2.307a.953.953 0 0 0-.719-.156zm2.188 4c1.656 0 3 1.305 3 2.938 0 1.633-1.344 2.97-3 2.97-1.657 0-3-1.337-3-2.97 0-1.633 1.343-2.937 3-2.937z" fill="#474747"/><path d="M11.472 9.057a1.465 1.433 0 1 1-2.929 0 1.465 1.433 0 1 1 2.93 0z" fill="#bdbdbd"/></svg>