<svg class="symbolic" viewbox="0 0 16 16" height="16" width="16"><path d="M8.009 1.005c-3.866 0-7 3.15-7 7.032 0 3.88 3.134 7.03 7 7.03s7-3.15 7-7.03c0-3.882-3.134-7.032-7-7.032zM5.79 2.63c.75 0 1.344.594 1.344 1.344 0 .75-.593 1.375-1.344 1.375-.24 0-.46-.079-.656-.187-.193.2-.379.416-.532.656a4.009 4.009 0 0 0 1.22 5.531c1.44.919 3.235.778 4.53-.187l.594.78c-1.618 1.201-3.86 1.395-5.656.25a5.004 5.004 0 0 1-1.531-6.905c.212-.333.477-.611.75-.875a1.375 1.375 0 0 1-.094-.438c0-.75.624-1.344 1.375-1.344zm2.125 3.344c.383-.012.776.094 1.125.313a1.99 1.99 0 0 1 .625 2.75 1.99 1.99 0 0 1-2.75.625 1.99 1.99 0 0 1-.625-2.75c.369-.58.986-.918 1.625-.938z" fill="#474747"/></svg>