<svg class="symbolic" viewbox="0 0 16 16" height="16" width="16"><g fill="#474747"><path d="M3.484 12.59L2.06 14l-.909.22c-.088.028-.156.135-.156.257V16H8v-1.545c0-.144-.07-.2-.2-.234L7.026 14 5.48 12.6a3.328 3.328 0 0 1-.98.152 3.328 3.328 0 0 1-1.016-.162zm4.11-9.6a1.528 1.528 0 0 0-1.528 1.528 1.528 1.528 0 0 0 .121.593L4.69 6.934a2.5 2.5 0 0 0-.189-.01 2.5 2.5 0 0 0-2.5 2.5 2.5 2.5 0 0 0 2.5 2.5 2.5 2.5 0 0 0 2.5-2.5 2.5 2.5 0 0 0-.293-1.174l.877-2.205a1.528 1.528 0 0 0 .01 0 1.528 1.528 0 0 0 1.355-.827l1.954.45a1.528 1.528 0 0 0 1.507 1.304 1.528 1.528 0 0 0 1.53-1.527 1.528 1.528 0 0 0-1.53-1.527 1.528 1.528 0 0 0-1.367.851l-1.941-.496A1.528 1.528 0 0 0 7.594 2.99z"/><path d="M11 9l-1.066 1.91.982 2.09h.531L11 10.531l1.453-.265-.02 1.73.576-.004.444-1.68.578.156-.015 2.5.562.032.828-2.563-1.395-1.445-.006-.986L11.012 8z"/></g></svg>