<svg class="symbolic" viewbox="0 0 16 16" height="16" width="16"><g fill="#474747"><path d="M13 10.5a.513.5 0 1 1-1.026 0 .513.5 0 1 1 1.026 0z"/><path d="M10 16h5s.335-1 0-2c-.18.157-1.566 1-2.5 1-.934 0-2.14-.686-2.5-1-.312 1.226 0 2 0 2z"/><path d="M0 0v16h8.5v-2H2V2h12v4h2V0z"/><path d="M2 6v2.219c0 2.318 2.781 4.586 6.563 4.75-.625-.741-1.032-1.672-1.032-2.719C7.531 9.004 8.15 7.778 9 7c-6 .765-7-1-7-1zm5-1C5.333 3.563 3.667 3.606 2 5c0-1.105 1.12-2 2.5-2S7 3.895 7 5zm2 0c1.667-1.437 3.333-1.394 5 0 0-1.105-1.12-2-2.5-2S9 3.895 9 5zm3.5 2a3.5 3.5 0 1 0 0 7 3.5 3.5 0 0 0 0-7zm0 2a1.5 1.5 0 1 1 .001 2.999A1.5 1.5 0 0 1 12.5 9z"/></g></svg>