<svg class="symbolic" viewbox="0 0 16 16" height="16" width="16"><g transform="translate(-143 -235)" fill="#474747"><path d="M143 249h2v2h-2zm3 0h4v2h-4zm5 0h2v2h-2zm-1-3h3v2h-3z"/><rect height="2" rx=".5" ry="0" width="2" x="147" y="246"/><rect height="2" rx=".5" ry="0" width="2" x="143" y="243"/><rect height="2" rx="0" width="3" x="143" y="246"/><path d="M146 243h4v2h-4zm5 0h2v2h-2z"/><path d="M155 246v3h4v-2l-1-1z" color="#474747"/><path d="M149 235c-1.108 0-2 .892-2 2v4h2v-4h8v5h-2v2h2c1.108 0 2-.892 2-2v-5c0-1.108-.892-2-2-2z"/></g></svg>