<svg class="symbolic" viewbox="0 0 16 16" height="16" width="16"><g transform="translate(-283 -215)" fill="#474747"><path d="M286.156 216c-1.187 0-2.156.892-2.156 2v10c0 1.108.97 2 2.156 2H297s1 0 1-1v-12c0-1-1-1-1-1zm.22 1h10.25c.21 0 .374.176.374.406v11.188c0 .23-.163.406-.375.406h-10.25c-.211 0-.375-.176-.375-.406v-11.188c0-.23.164-.406.375-.406zm1 1c-.208 0-.345.175-.345.406v9.188c0 .23.137.406.344.406h8.25c.207 0 .375-.175.375-.406v-9.188c0-.23-.168-.406-.375-.406zm4.062 2c.479-.015.938.102 1.375.375l.03.031a2.48 2.48 0 0 1 .75 3.438 2.48 2.48 0 0 1-3.437.75 2.48 2.48 0 0 1-.75-3.438 2.497 2.497 0 0 1 2.032-1.156zm-.063 1.5a.936.936 0 0 0-.656.438.92.92 0 0 0 .281 1.28.92.92 0 0 0 1.281-.28.92.92 0 0 0-.28-1.282.983.983 0 0 0-.345-.156.967.967 0 0 0-.28 0z"/><rect height="2" rx=".416" ry=".416" width="2.004" x="283" y="219"/><rect height="2" rx=".416" ry=".416" width="2.004" x="283" y="225"/></g></svg>