<svg class="symbolic" viewbox="0 0 16 16" height="16" width="16"><path d="M4.39 1.063c-.858.003-2.359.913-2.359 2.521v9.854A1.57 1.57 0 0 0 3.594 15h9.437c1.125.031.934-.989.934-.989l-9.336.026c-2.283.006-2.084-2.992-.037-2.994L14 11.03l.031-10zm.638 1.875h2.687c3.317 0 4.272 1.263 4.25 3.03-.03 2.469-2.19 3.013-4.814 3.104-.622.022-1.506.022-2.123.022zM7.059 4v4.031c1.943.023 2.998-.683 3-2.062.003-1.769-1.24-1.939-3-1.969z" fill="#474747"/><path d="M2.52 11.063h10.45c-1.184.492-1.296 2.458 0 3H2.52z" opacity=".3" fill="#474747"/></svg>