<svg class="symbolic" viewbox="0 0 16 16" height="16" width="16"><path d="M3.344 0A3.326 3.326 0 0 0 0 3.344v5.312A3.326 3.326 0 0 0 3.344 12H9v4l3-4h.656A3.326 3.326 0 0 0 16 8.656V3.344A3.326 3.326 0 0 0 12.656 0zM8 2a4 4 0 1 1 0 8 4 4 0 0 1 0-8zM6.5 3.36c-.276 0-.5.316-.5.687v.656c0 .371.224.656.5.656s.5-.285.5-.656v-.656c0-.371-.224-.688-.5-.688zm3 0c-.276 0-.5.316-.5.687v.656c0 .371.225.656.5.656s.5-.285.5-.656v-.656c0-.371-.224-.688-.5-.688zM5 5.557v.817C5 6.735 5.642 8 7.969 8 10.464 8 11 6.836 11 6.375v-.773c-.473.804-1.075 1.31-3.031 1.31-2.011 0-2.54-.626-2.969-1.354z" fill="#474747"/></svg>