<svg class="symbolic" viewbox="0 0 16 16" height="16" width="16"><path d="M10.5 6A4.515 4.515 0 0 0 6 10.5c0 2.473 2.026 4.5 4.5 4.5.877 0 1.684-.277 2.375-.719l1.313 1.313c.341.442 1.078.497 1.482.11.404-.386.381-1.124-.045-1.485l-1.344-1.344A4.364 4.364 0 0 0 15 10.5C15 8.027 12.974 6 10.5 6zm0 1.656a2.819 2.819 0 0 1 2.844 2.844 2.85 2.85 0 0 1-.75 1.938 1.001 1.001 0 0 0-.219.218 2.751 2.751 0 0 1-.5.344h-.031a2.83 2.83 0 0 1-1.344.344c-1.59 0-2.875-1.254-2.875-2.844 0-1.59 1.284-2.844 2.875-2.844z" fill="#474747"/><path d="M1.469 0C.657 0 0 .657 0 1.469V12.53c0 .812.658 1.5 1.469 1.469l3.062.031v-2L1.75 12a.763.763 0 0 1-.75-.75v-8.5A.76.76 0 0 1 1.75 2h10.5c.407 0 .754.343.75.75V5h1V1.469C14 .657 13.343 0 12.531 0z" fill="#474747"/><path d="M7.063 3.031C5.793 3.018 5.905 4.236 6 4.47c-.207-.208-.623-1.424-1.656-.907-1.038.52-.021 1.559.093 1.72-.305-.127-2.248-1.031-2.375.187-.098.943 1.716 1.198 1.844 1.218-.074-.064-2.218.189-1.844 1.344.323.997 2.19.13 2.375 0-.189.088-1.803 1-.656 1.688.401.24.844.127 1.219-.094a5.588 5.588 0 0 1 .437-1.5c-.714-.331-1.187-.898-1.187-1.531C4.25 5.567 5.487 4.72 7 4.72c.686 0 1.305.18 1.781.469.008.005.024-.005.031 0a5.4 5.4 0 0 1 1.282-.22c.309-.403.497-.935-.094-1.312-1.015-.647-1.825.599-2.031.938.204-.342.357-1.55-.907-1.563zM11 9.094v.156a.732.732 0 0 1-.719.75H8.875c-.1.211-.156.44-.156.688 0 .537.243 1.005.656 1.312h1.188c.806 0 1.437-.657 1.437-1.469v-.656a1.761 1.761 0 0 0-1-.781z" fill="#bfbfbf" fill-opacity=".298"/></svg>