<svg class="symbolic" viewbox="0 0 16 16" height="16" width="16"><g fill="#474747"><path d="M.494 12.84a21.93 21.93 0 0 0 7.282-3.657c.737-.563 1.453-1.192 1.903-2.004.224-.406.378-.855.418-1.317a2.49 2.49 0 0 0-.251-1.35 2.411 2.411 0 0 0-.778-.869 2.957 2.957 0 0 0-1.08-.45c-.768-.159-1.573-.04-2.318.21-1.006.336-1.942.919-2.619 1.736-.677.818-1.08 1.878-1.026 2.937.059 1.154.653 2.243 1.498 3.03.845.787 1.925 1.29 3.043 1.582a9.764 9.764 0 0 0 5.006-.029 9.763 9.763 0 0 0 4.327-2.518l-.013-3.105a8.985 8.985 0 0 1-4.467 3.544c-1.371.493-2.9.639-4.291.205A4.982 4.982 0 0 1 5.24 9.716a4.238 4.238 0 0 1-1.176-1.814c-.257-.803-.24-1.712.145-2.463a2.57 2.57 0 0 1 .823-.945 2.26 2.26 0 0 1 1.183-.4c.282-.01.568.036.828.146.26.11.493.285.665.51.197.258.308.577.336.901.028.324-.025.653-.131.96-.213.615-.631 1.135-1.066 1.62a18.794 18.794 0 0 1-6.354 4.608"/><path d="M1.5 0C.693 0 .031.662.031 1.469V14.5c0 .807.662 1.5 1.469 1.5h13.031c.807 0 1.469-.693 1.469-1.5V1.469C16 .662 15.338 0 14.531 0H1.5zm0 1h13.031c.27 0 .469.198.469.469V14.5c0 .27-.198.5-.469.5H1.5c-.27 0-.469-.23-.469-.5V1.469c0-.27.199-.469.469-.469z"/></g></svg>