<svg class="symbolic" viewbox="0 0 16 16" height="16.001" width="16"><g fill="#474747"><path d="M7.875.001a1.007 1.007 0 0 0-.5.25l-4.906 4-.062.031s-.326.298-.657.75c-.463.582-.666 1.072-.75 1.907V7a1.019 1.019 0 0 0 0 .156V15c0 .524.477 1 1 1h7.193c-.757-.404-1.448-1.326-1.755-2H3V7.376l4.032 3.031.441-.887c-1.358-1.094-2.769-2.123-4.16-3.175.026-.04.035-.087.062-.125.191-.262.319-.414.344-.438l.031-.03L8 2.281l4.313 3.532.03.03c.022.026.181.25.345.5l-1.385 1.1c.602-.16 1.12-.109 1.604.023l.598-.454.018.426c.446.243.87.464 1.477.867 0-2.089-.371-2.99-1.375-3.992a1.02 1.02 0 0 0-.03-.032L8.624.252a1.01 1.01 0 0 0-.656-.25 1.464 1.464 0 0 0-.094 0z"/><path d="M5.938 9.126l-3.032 5.125.875.531 3.032-5.156-.875-.5z"/><path d="M12 8.032c-2.207 0-4.016 1.777-4.016 3.985C7.984 14.224 9.793 16 12 16a3.976 3.976 0 0 0 3.985-3.984A3.976 3.976 0 0 0 12 8.032zm-.557.958c.298-.058.611.222.587.525v2.81l1.328 1.329c.372.372-.342 1.086-.71.71l-1.483-1.482-.124-.155V9.515a.509.509 0 0 1 .34-.495.488.488 0 0 1 .062-.03z"/></g></svg>