<svg class="symbolic" viewbox="0 0 16 16" height="16" width="16"><path d="M3.562 1A1.57 1.57 0 0 0 2 2.563v9.843c0 1.608 1.487 2.529 2.344 2.532l9.656.03V5l-9.438-.031C2.61 5 2.342 2.03 4.578 2H14s.125-1.031-1-1zM8.5 6a3.5 3.5 0 1 1 0 7H5.782A.773.773 0 0 1 5 12.219V9.5A3.502 3.502 0 0 1 8.5 6z" fill="#474747"/><path d="M3 5h10c-1.352-.531-1.257-2.433 0-3H3z" opacity=".3" fill="#474747"/><path d="M9.528 6.827c-.908 0-1.644.737-1.644 1.645v.87h-.867a1.64 1.64 0 0 0-1.644 1.641 1.644 1.644 0 1 0 3.288 0v-.875h.867c.908 0 1.644-.728 1.644-1.636 0-.908-.736-1.645-1.644-1.645zm-1.644 4.158a.868.868 0 0 1-.867.866.87.87 0 1 1 0-1.743h.744c.068 0 .123.055.123.123v.754zm1.644-1.642h-.744a.122.122 0 0 1-.123-.123v-.75c0-.479.389-.866.867-.866a.87.87 0 0 1 .872.868c0 .479-.392.87-.872.87z" fill="#bfbfbf" fill-opacity=".298"/><path d="M7.884 9.343v-.871c0-.908.736-1.645 1.644-1.645.138 0 .236.016.364.05.186.048.337.2.338.378 0 .214-.156.37-.388.37-.111 0-.151-.021-.314-.021a.868.868 0 0 0-.867.866v.75c0 .068.055.123.122.123h.57a.382.382 0 1 1 0 .765h-.692v.875c0 .908-.736 1.644-1.644 1.644-.138 0-.236-.015-.363-.048-.186-.05-.338-.202-.338-.379 0-.214.155-.37.388-.37.11 0 .15.021.313.021a.868.868 0 0 0 .868-.866v-.754a.122.122 0 0 0-.123-.123h-.57a.382.382 0 1 1 .004-.765h.688z" fill="#474747"/></svg>