<svg class="symbolic" viewbox="0 0 16 16" height="16" width="16"><path d="M5.5 2.014c-.823 0-1.5.677-1.5 1.5 0 .651.414 1.2 1 1.406-.003.043 0 .082 0 .125v.969H3v-3H2v1H1v1h1v2h3v1H2v2H1v1h1v1h1v-3h2v1.969c0 1.13.902 2.03 2.031 2.03h.938c1.13 0 2.031-.9 2.031-2.03v-1.97h2v3h1v-1h1v-1h-1v-2h-3l.031-1H13v-2h1v-1h-1v-1h-1v3h-2v-.968c0-.043.003-.082 0-.125.583-.206 1-.755 1-1.406 0-.823-.678-1.5-1.5-1.5-.651 0-1.2.417-1.406 1H6.906c-.203-.583-.755-1-1.406-1zm0 1c.282 0 .5.218.5.5 0 .282-.218.5-.5.5a.493.493 0 0 1-.5-.5c0-.282.218-.5.5-.5zm4 0c.282 0 .5.218.5.5 0 .282-.218.5-.5.5a.493.493 0 0 1-.5-.5c0-.282.218-.5.5-.5zm-2 3a.5.5 0 1 1 0 1 .5.5 0 0 1 0-1zm0 2a.5.5 0 1 1 0 1 .5.5 0 0 1 0-1zm0 2a.5.5 0 1 1 0 1 .5.5 0 0 1 0-1z" fill="#474747"/></svg>