<svg class="symbolic" viewbox="0 0 16 16" height="16" width="15.999"><g fill="#474747"><path d="M15.78 0s-.114 4.062-5.844 4.03C5.071 4.005 4.968 1 4.968 1c.53 5-1 7-1 7s-.108.715-2.406.593c1.216 1.734 5.823 5.161 9.538 4.25-.543-.402-.789-.79-1.101-1.133-.083.011-.008.007-.094.008-2.15.01-3.968-1.781-3.968-1.781s4.05 1.922 5.655-.531l-.843-.907c.91.022 2.097.978 2.02 2.27-.545-.618-.49-.551-.49-.551s-.218.221-.53.531c.717.368.944.584 1.6 1.022C16.55 9.408 16 4.998 15.779 0zm-4.276 5.007c.848 0 1.547.696 1.547 1.547 0 .85-.699 1.546-1.547 1.546a1.553 1.553 0 0 1-1.547-1.546c0-.851.699-1.547 1.547-1.547zM7.53 5C8.356 5 9 5.67 9 6.5 9 7.328 8.357 8 7.531 8a1.501 1.501 0 0 1 0-3z"/><path d="M7.545 5.998A.538.538 0 0 0 7 6.53c0 .293.244.53.545.53a.538.538 0 0 0 .546-.53.538.538 0 0 0-.546-.53zm4.472.532a.508.5 0 1 1-1.017 0 .508.5 0 1 1 1.017 0z"/><path d="M3.753 7.497A2.224 1.746 45.007 1 1 .247 8.534a2.224 1.746 45.007 1 1 3.506-1.037z"/><path d="M13.513 13.999l.485-.606c-.95-1.223-2.96-2.436-2.96-2.436-.33-.283-.539.055-.336.357 0 0 1.506 1.899 2.811 2.685z"/><path d="M15.998 15.998c-.054-1.668-.775-3.114-2.14-2.992-1.1.099-1.236 1.777.14 1.993 2.1.329 2 1 2 1z"/></g></svg>