<svg class="symbolic" viewbox="0 0 16 16" height="16" width="16"><path d="M8 .078c-.25 0-.507.09-.706.276l-2.2 2.052 1.75 1.75C7.041 4.061 7.267 4 7.5 4A1.5 1.5 0 0 1 9 5.5c0 .233-.061.46-.156.656l1.448 1.448a1.52 1.52 0 0 1 .656-.157 1.5 1.5 0 1 1-1.5 1.5c0-.222.07-.435.156-.625L8.125 6.844c-.042.02-.08.047-.125.062v3.188c.587.203 1 .75 1 1.406a1.5 1.5 0 1 1-3 0 1.48 1.48 0 0 1 1-1.406V6.906A1.48 1.48 0 0 1 6 5.5c0-.218.042-.439.125-.625l-1.75-1.75L.357 7.29a1.014 1.014 0 0 0 0 1.412l6.937 6.938a1.008 1.008 0 0 0 1.412 0l6.937-6.938a1.008 1.008 0 0 0 0-1.412L8.706.354A.993.993 0 0 0 8 .078z" fill="#474747"/></svg>