<svg class="symbolic" viewbox="0 0 16 16" height="16" width="16.038"><g fill="#474747"><path d="M3.452 1.012c-1.089 0-2.083.702-2.218 1.711L.051 10.44C-.18 12.172.35 14.025 2.107 14l10.822-.156c1.758-.026 2.33-1.673 2.092-3.404l-1.219-7.68c-.144-1.045-1.11-1.748-2.217-1.748zm-.122.993l8.207.004.485 4.768-.303.787.469.626.503 3.808H2.363l.44-3.905.485-.597-.377-.537z"  color="#474747"/><path d="M11.063 4.03l-3.002-.012.043 1.02h1.944l-2.01 4.937 1.3-.04 1.725-4.698zM4.53 5.649c1.156-.897 1.575-.231 1.136.771L4.059 9.437v.55l2.985-.012.033-.986-1.484.013.881-1.829c1.419-2.296-.37-4.356-2.338-2.584z"/></g></svg>