<svg width="16" height="16" class="symbolic" viewbox="0 0 16 16"><g fill="#474747"><path d="M3.702 1C2.17 1 .984 2.32.984 3.844v8.344c0 1.524 1.185 2.843 2.718 2.843h8.58c1.532 0 2.75-1.32 2.75-2.844V3.845c0-1.525-1.218-2.844-2.75-2.844zm.782 1.031c3.526.256 5.317.134 7.047 0 .754-.058 1.531.616 1.531 1.438v7.375c0 .665-.53 1.095-1.187 1.187-2.836.397-4.753.44-7.673 0-.655-.099-1.187-.522-1.187-1.187V3.5c0-.822.714-1.524 1.469-1.469z" color="#474747"/><path d="M10.564 5.977l-2.94.044.016 1 2.88-.042c.2.017.33.075.396.134.067.06.105.121.105.293l-.008.604H8.517l.037.002a1.457 1.457 0 0 0-1.164.43 1.558 1.558 0 0 0-.416 1.023c-.013.367.091.75.352 1.053.26.303.687.496 1.162.482h3.482l.051-3.59v-.004c0-.402-.16-.786-.435-1.035-.276-.249-.631-.364-.999-.392l-.023-.002zM8.48 9.01h2.518l-.014.99H8.457c-.22.006-.302-.052-.371-.133a.553.553 0 0 1-.112-.367.587.587 0 0 1 .14-.371c.08-.083.166-.134.366-.12zm2.862-5.985l-3 1 .316.95 3-1-.316-.95z"/></g></svg>