<svg class="symbolic" viewbox="0 0 16 16" height="16.01" width="16"><path d="M2.25.01C1.542.168 1 .875 1 1.697v12.594c0 .94 1.141 1.714 2 1.719h2c-1 0-1-1-1-1H3v-1H2v-1h1v-1H2v-1h1v-1H2v-1h1v-1H2v-1h1v-1H2v-1h1v-1H2v-1h1v-1H2v-1h1v1h1v-1s0-1 1-1H3c-.267 0-.722-.006-.75 0zm.75 3v1h1v-1zm0 2v1h1v-1zm0 2v1h1v-1zm0 2v1h1v-1zm0 2v1h1v-1zm0 2v1h1v-1zm3.25-13C5.542.168 5 .874 5 1.696v12.586C5 15.222 5.735 16 6.594 16h7.812c.86 0 1.594-.778 1.594-1.718V1.696C16 .756 15.265.01 14.406.01H6.594c-.108 0-.243-.023-.344 0zm2.5 4.997c.967 0 1.75.742 1.75 1.686 0-.944.784-1.686 1.75-1.686.967 0 1.75.742 1.75 1.686 0 .449-.18.882-.469 1.187l-.03.031-3 3.092-2.845-2.998c-.12-.098-.19-.218-.28-.344C7.174 7.383 7 7.06 7 6.693c0-.944.784-1.686 1.75-1.686z" fill="#474747"/></svg>