<svg class="symbolic" viewbox="0 0 16 16" height="16" width="16"><path d="M3 1v2h-.375C1.732 3 1 3.782 1 4.75v7.5c0 .968.732 1.75 1.625 1.75h9.75c.893 0 1.625-.782 1.625-1.75v-7.5C14 3.782 13.268 3 12.375 3H12V1h-2v2H5V1H3zm.313 3h8.375C12.408 4 13 4.592 13 5.313V8c-.148.563-.644 1-1.25 1h-8.5C2.644 9 2.148 8.563 2 8V5.312C2 4.593 2.592 4 3.313 4zM4 5v2H3v1h2V6h2v2h5V7H8V5H4zm.5 5a1.5 1.5 0 1 1 0 3 1.5 1.5 0 0 1 0-3zm6 0c.832 0 1.5.672 1.5 1.5s-.668 1.5-1.5 1.5S9 12.328 9 11.5s.668-1.5 1.5-1.5zM3 15v1h2v-1H3zm7 0v1h2v-1h-2z" fill="#474747"/></svg>