<svg class="symbolic" viewbox="0 0 16 16" height="16" width="16"><g fill="#474747"><path d="M2 12.969v2C2 15.54 2.46 16 3.031 16h8.938C12.54 16 13 15.54 13 14.969v-2C13 13.54 12.54 14 11.969 14H3.03C2.46 14 2 13.54 2 12.969z" opacity=".3"/><path d="M3.031 0C2.46 0 2 .46 2 1.031V12.97c0 .57.46 1.03 1.031 1.03h8.938C12.54 14 13 13.54 13 12.969V1.03C13 .46 12.54 0 11.969 0H3.03zM6 2h3L8 3.063V4h3v2.156L9.156 8H8v4l-1 1V8h-.656L3.562 5.094 7 4.125V3.062L6 2zm2 3v2h.75L10 5.75V5H8zm-1 .125l-1.563.469L6.75 7H7V5.125z"/></g></svg>