<svg class="symbolic" viewbox="0 0 16 16" height="16" width="16"><path d="M7.062 3c-3.313 0-6 1.567-6 3.5.001.042.004.083.008.125h-.008c0 3.5 1 7.25 6 7.25 2.898 0 4.446-1.263 5.24-3.004.252.12.528.191.823.191a1.945 1.945 0 0 0 1.937-1.937 1.945 1.945 0 0 0-1.937-1.938c-.03 0-.057.007-.086.008.006-.19.023-.38.023-.57h-.01c.005-.041.008-.083.01-.125 0-1.933-2.686-3.5-6-3.5zM7 4.14c2.503 0 4.532 1.063 4.531 2.376 0 1.311-2.03 2.375-4.531 2.375-2.502 0-4.53-1.064-4.531-2.375C2.468 5.203 4.497 4.14 7 4.14zm6.125 4.047a.93.93 0 0 1 .937.938.93.93 0 0 1-.937.937.917.917 0 0 1-.469-.14c.158-.545.252-1.12.315-1.703.052-.01.099-.031.154-.031z" fill="#474747"/></svg>