<svg class="symbolic" viewbox="0 0 16 16" height="16" width="16"><path d="M2.188 0A2.197 2.197 0 0 0 0 2.188v11.624C0 15.012.986 16 2.188 16h7.28l-2.03-2h-5.25C2.063 14 2 13.943 2 13.812V2.188C2 2.056 2.064 2 2.188 2h9.624c.124 0 .188.057.188.188V7.03l2 .438V2.187A2.197 2.197 0 0 0 11.812 0zM7 3a4 4 0 0 0-.031 8c.204-.985.509-1.512 1.031-2.281l1.406 1.469.75-.75L8.75 7.875C9.446 7.421 10.327 7.098 11 7a4 4 0 0 0-4-4zm0 3a1 1 0 1 1 0 2 1 1 0 0 1 0-2zm4.469 2c-.407 0-.793.092-1.156.219l1.906 1.906a.984.984 0 0 1 0 1.406l-.719.75a.986.986 0 0 1-1.406 0l-1.938-1.937a3.52 3.52 0 0 0-.219 1.156 3.54 3.54 0 0 0 3.532 3.531 3.5 3.5 0 0 0 1.156-.219L13.844 16h.062L16 13.906l-1.219-1.219c.127-.362.219-.782.219-1.187C15 9.56 13.415 8 11.469 8z"  fill="#474747"/></svg>