<svg width="16" height="16" class="symbolic" viewbox="0 0 16 16"><g fill="#474747" transform="translate(-443 125)"><path d="M451-122c-2.75 0-5 2.25-5 5 0 1.783.958 3.363 2.375 4.25a3.4 3.4 0 0 1 .531-.188c.229-1.816 1.72-3.25 3.594-3.25 1.003 0 1.839.474 2.5 1.126.175-.034.308-.126.5-.126h.125c.224-.566.375-1.17.375-1.812 0-2.75-2.25-5-5-5z" color="#474747"/><rect width="2" height="2" x="443" y="-118" color="#474747" rx=".563" ry=".563"/><rect width="2" height="2" x="457" y="-118" color="#474747" rx=".563" ry=".563"/><rect width="2" height="2" x="-125" y="-452" color="#474747" rx=".563" ry=".563" transform="rotate(90)"/><rect width="2" height="2" x="-409.637" y="-237.174" color="#474747" rx=".563" ry=".563" transform="rotate(135)"/><rect width="2" height="2" x="-395.637" y="-237.174" color="#474747" rx=".563" ry=".563" transform="rotate(135)"/><rect width="2" height="2" x="228.174" y="-402.637" color="#474747" rx=".563" ry=".563" transform="rotate(45)"/><path d="M452.5-115a2.5 2.5 0 0 0-2.5 2.5c0 .218.041.423.094.625a1.549 1.549 0 0 0-.594-.125 1.5 1.5 0 1 0 0 3h8a1.5 1.5 0 1 0 0-3 2 2 0 0 0-2-2c-.316 0-.61.088-.875.219A2.47 2.47 0 0 0 452.5-115z"/></g></svg>