<svg class="symbolic" viewbox="0 0 16 16" height="16.031" width="16"><g transform="translate(-444 35)" fill="#474747"><path d="M446.219-34c-.648 0-1.188.54-1.188 1.188v4.624c0 .648.54 1.188 1.188 1.188h11.656c.648 0 1.156-.54 1.156-1.188v-4.625c0-.647-.508-1.187-1.156-1.187h-11.656zm0 1h11.656c.111 0 .156.076.156.188v4.624c0 .112-.045.188-.156.188h-11.656a.179.179 0 0 1-.188-.188v-4.625a.18.18 0 0 1 .188-.187z"/><path d="M454-32v1.031l1.531 1.375 1.47-1.406v-1h-.759l-.738.746-.726-.746zm-7.781 6c-.648 0-1.188.54-1.188 1.188v4.656c0 .648.54 1.187 1.188 1.187h11.656c.648 0 1.156-.54 1.156-1.187v-4.657c0-.647-.508-1.187-1.156-1.187h-11.656zm0 1h11.656c.111 0 .156.076.156.188v4.656c0 .11-.045.187-.156.187h-11.656a.179.179 0 0 1-.188-.187v-4.657a.18.18 0 0 1 .188-.187z"/><rect height="2" rx="0" ry="0" width="8" x="448" y="-24"/><rect height="1" rx="0" ry="0" width="12.861" x="445.531" y="-29" opacity=".3"/><rect height="1" rx="0" ry="0" width="12.861" x="445.531" y="-20.969" opacity=".3"/></g></svg>