<svg class="symbolic" viewbox="0 0 16 16" height="16" width="16"><path d="M4.016 16v-4h6v4zm1-1h1v-1h-1zm3 0h1v-1h-1z" fill="#474747"/><path d="M8.516 0a5.503 5.503 0 0 0-5.5 5.5v4.271c.002.69.54 1.229 1.229 1.229h4.271a5.5 5.5 0 1 0 0-11zm1.19 2.1c1.22 0 2.21.99 2.21 2.21 0 1.222-.99 2.202-2.21 2.202H8.538V7.69a2.21 2.21 0 0 1-4.422 0c0-1.222.99-2.208 2.21-2.208h1.169V4.311A2.21 2.21 0 0 1 9.705 2.1zm0 1.045c-.644 0-1.167.52-1.168 1.164v1.01c0 .09.075.163.166.163h1.002c.644 0 1.172-.527 1.172-1.171a1.17 1.17 0 0 0-1.172-1.166zm-3.38 3.367a1.18 1.18 0 0 0-1.171 1.177 1.17 1.17 0 0 0 2.34.002V6.678a.167.167 0 0 0-.166-.166H6.327z" fill="#bfbfbf" fill-opacity=".298"/><path d="M7.494 5.483V4.312a2.21 2.21 0 0 1 2.211-2.211c.186 0 .317.02.489.065.25.066.454.27.454.51 0 .287-.21.497-.522.497-.149 0-.203-.029-.42-.029-.645 0-1.167.522-1.168 1.166v1.008c0 .092.074.165.165.165h.767a.514.514 0 1 1 0 1.03h-.932V7.69a2.21 2.21 0 0 1-2.21 2.211 1.76 1.76 0 0 1-.489-.066c-.25-.065-.454-.27-.454-.509 0-.288.209-.498.522-.498.148 0 .202.03.42.03.644 0 1.166-.522 1.167-1.166V6.678a.165.165 0 0 0-.164-.165h-.767a.514.514 0 1 1 .005-1.03h.926z" fill="#474747" fill-opacity=".941"/></svg>