<svg class="symbolic" viewbox="0 0 16 16" width="16" height="16"><g fill="#474747"><path d="M4.517 10.995h7c.831 0 1.5.446 1.5 1s-.669 1-1.5 1h-7c-.83 0-1.5-.446-1.5-1s.67-1 1.5-1z" opacity=".3"/><path d="M3.017.995c-1.108 0-2 .892-2 2v10c0 1.108.892 2 2 2h10c1.108 0 2-.892 2-2v-10c0-1.108-.892-2-2-2zm.596 2h8.809c.33 0 .595.266.595.596V11l-2-.004v2H5.033l-.016-2-2 .004V3.591c0-.33.266-.596.596-.596z"/><path d="M2.707 3.865a.5.5 0 0 0-.34.86L6.134 8.41c.549.549 1.319.711 2.018.684.699-.027 1.353-.214 1.793-.654l-.002.004 3.76-3.711A.5.5 0 1 0 13 4.02L9.24 7.73h-.002c-.133.133-.62.343-1.125.362-.506.02-1.001-.12-1.272-.39L6.838 7.7l-3.77-3.69a.5.5 0 0 0-.36-.146z"/><path d="M10.4 6.933a.5.5 0 0 0-.294.896l2.701 2.13a.5.5 0 1 0 .62-.786l-2.702-2.129a.5.5 0 0 0-.324-.111zM5.42 6.933a.5.5 0 0 0-.308.111l-2.703 2.13a.5.5 0 1 0 .619.784L5.73 7.83a.5.5 0 0 0-.31-.896z"/></g></svg>