<svg class="symbolic" viewbox="0 0 16 16" width="16" height="16"><g><path d="M6.998 2.994v2h2.92c-.055 0 .082.161.082.084V6H8.06C6.344 6 5.028 7.125 5.004 8.484c-.013.68.306 1.363.861 1.823.555.459 1.317.699 2.195.699H12V5.078c0-1.171-.885-2.084-2.082-2.084zM8.06 8H10v1.006H8.06c-.52 0-.793-.136-.92-.24-.126-.105-.138-.173-.136-.245C7.007 8.378 7.09 8 8.06 8zM3 2.97v11.005h1V2.97z" fill="#2e3436"/><path d="M2.008 12v1H13v-1z" fill="#2e3436"/><path d="M13.024 14.974l-.031-4.948 2.514 2.485zM5.974 2.976l-4.948.031L3.51.493z" fill="#474747"/></g></svg>