<svg class="symbolic" viewbox="0 0 16 16" width="16" height="16"><g fill="#474747"><path d="M2.188 2C.982 2 0 3.018 0 4.219v7.562C0 12.982.982 14 2.188 14h11.624C15.018 14 16 12.982 16 11.781V4.22C16 3.018 15.018 2 13.812 2zm0 2h11.624c.12 0 .188.08.188.219v7.562c0 .139-.067.219-.188.219H2.188c-.12 0-.188-.08-.188-.219V4.22c0-.14.067-.22.188-.22z"/><path d="M7.486 5a.5.5 0 0 0-.447.309L5.916 8H3v1h3.25a.5.5 0 0 0 .46-.309l.62-1.488.68 3.395a.5.5 0 0 0 .89.203L10.25 9H13V8h-3a.5.5 0 0 0-.4.2l-.83 1.104-.78-3.902A.5.5 0 0 0 7.486 5z" /></g></svg>