<svg class="symbolic" viewbox="0 0 16 16" width="16" height="16"><g fill="#474747"><path d="M5.973 6A.97.97 0 0 0 5 6.973v7.054a.97.97 0 0 0 .973.973h4.054a.97.97 0 0 0 .973-.973V6.973A.97.97 0 0 0 10.027 6H9.021v1.016a.97.97 0 0 1-.972.972h-.067a.97.97 0 0 1-.972-.972V6zm.28 6h3.493c.279 0 .504.225.504.504v.992a.503.503 0 0 1-.504.504H6.254a.503.503 0 0 1-.504-.504v-.992c0-.279.225-.504.504-.504z"/><path d="M3.96 1.004a.97.97 0 0 0-.972.973v9.058a.97.97 0 0 0 .973.973H4V5.973A.97.97 0 0 1 4.973 5H7V3.957a.97.97 0 0 1 .973-.973h.054A.97.97 0 0 1 9 3.957V5h2.027a.97.97 0 0 1 .973.973v6.035h.07a.97.97 0 0 0 .973-.973V1.977a.97.97 0 0 0-.973-.973z"/></g></svg>