<svg class="symbolic" viewbox="0 0 16 16" width="16" height="16"><g fill="#474747"><path d="M3.715 1A2.732 2.732 0 0 0 1 3.715v8.57A2.732 2.732 0 0 0 3.715 15h8.57A2.732 2.732 0 0 0 15 12.285v-8.57A2.732 2.732 0 0 0 12.285 1zm0 2h8.57c.413 0 .715.302.715.715v3.62L12.336 8l.664.664v3.621a.693.693 0 0 1-.715.715h-8.57A.693.693 0 0 1 3 12.285V8.707L3.707 8 3 7.293V3.715C3 3.302 3.302 3 3.715 3z" /><path d="M4.518 5L4 6.036h1.014V11H7V5zm3.437 0v3.213c0 1.036.777 1.036 1.295 1.036h.756V11H12V5h-1.994v3H9.28c-.259 0-.259-.259-.259-.259V5z"/></g></svg>