<svg class="symbolic" width="16" height="16.004" viewbox="0 0 16 16"><path d="M2.871.861a8.011 8.011 0 0 0 0 10.285l1.533-1.285a5.991 5.991 0 0 1 0-7.715L2.871.861zm6.002.145A5.015 5.015 0 0 0 4.24 4.47a5.01 5.01 0 0 0 2.506 5.996l.037.02.037.015c.535.217.644.417.834.867.19.45.327 1.152.803 1.893.775 1.207 2.12 1.723 3.305 1.496C12.947 14.53 14 13.432 14 12.004v-1h-2v1c0 .572-.233.716-.615.789-.383.073-.887-.052-1.246-.611-.222-.346-.35-.898-.643-1.59-.293-.693-.885-1.522-1.922-1.944l.074.034a2.989 2.989 0 0 1-1.503-3.598 2.988 2.988 0 0 1 3.32-2.043A2.989 2.989 0 0 1 12 6.004h2a5.012 5.012 0 0 0-5.127-4.998zM9 4.004a2 2 0 0 0-2 2 2 2 0 0 0 2 2 2 2 0 0 0 2-2 2 2 0 0 0-2-2z" fill="#000"/></svg>