<svg class="symbolic" viewbox="0 0 16 16" width="16" height="16"><g fill="#474747"><path d="M5.969 7.969A2.969 2.969 0 0 1 3 10.937 2.969 2.969 0 0 1 .031 7.97 2.969 2.969 0 0 1 3.001 5a2.969 2.969 0 0 1 2.968 2.969zm9.969 5a2.969 2.969 0 0 1-2.97 2.969A2.969 2.969 0 0 1 10 12.967 2.969 2.969 0 0 1 12.969 10a2.969 2.969 0 0 1 2.969 2.969zm0-10a2.969 2.969 0 0 1-2.97 2.969A2.969 2.969 0 0 1 10 2.967 2.969 2.969 0 0 1 12.969 0a2.969 2.969 0 0 1 2.969 2.969z"/><path d="M12.613 2.146L.748 7.924l11.854 5.969.9-1.788-8.248-4.15 8.234-4.012z"/></g></svg>