<svg class="symbolic" viewbox="0 0 16 16" width="16" height="16"><g fill="#474747"><path d="M8 1C5.797 1 4 2.797 4 5c0 2.203 1.797 4 4 4 2.203 0 4-1.797 4-4 0-2.203-1.797-4-4-4zm0 1.066A2.926 2.926 0 0 1 10.934 5 2.926 2.926 0 0 1 8 7.934 2.926 2.926 0 0 1 5.067 5 2.926 2.926 0 0 1 8 2.066z"/><path d="M4 8c-2.203 0-4 1.797-4 4 0 2.203 1.797 4 4 4 2.203 0 4-1.797 4-4 0-2.203-1.797-4-4-4zm0 1.066A2.926 2.926 0 0 1 6.934 12 2.926 2.926 0 0 1 4 14.934 2.926 2.926 0 0 1 1.067 12 2.926 2.926 0 0 1 4 9.066z"/><path d="M15.998 12A4 4 0 0 1 12 16a4 4 0 0 1-4-4 4 4 0 0 1 4-4 4 4 0 0 1 3.998 4z"/><path d="M7.467 12A3.467 3.467 0 0 1 4 15.467 3.467 3.467 0 0 1 .534 12 3.467 3.467 0 0 1 4 8.533 3.467 3.467 0 0 1 7.467 12z" opacity=".5"/></g></svg>