<svg class="symbolic" viewbox="0 0 16 16" height="16" width="16"><g fill="#474747"><path d="M11.499.007a3.503 3.503 0 1 0 0 7.006 3.503 3.503 0 0 0 0-7.006zM9.527 2.01c.277 0 .502.22.502.493a.497.497 0 0 1-.502.493.497.497 0 0 1-.501-.493c0-.272.224-.493.501-.493z" fill-opacity=".365"/><path d="M3.503.007a3.503 3.503 0 1 0 0 7.006 3.503 3.503 0 0 0 0-7.006zM1.5 2.01c.27 0 .49.22.49.493s-.22.493-.49.493-.49-.22-.49-.493c0-.272.22-.493.49-.493z"/><path d="M11.499 8.004a3.503 3.503 0 1 0 0 7.005 3.503 3.503 0 0 0 0-7.005zm-2 2.002a.5.5 0 1 1-.501.499.5.5 0 0 1 .501-.5zM3.503 8.004a3.503 3.503 0 1 0 0 7.005 3.503 3.503 0 0 0 0-7.005zM1.5 10a.5.5 0 1 1-.502.5.5.5 0 0 1 .502-.5z" fill-opacity=".365"/></g></svg>