<svg class="symbolic" viewbox="0 0 16 16" width="16" height="16"><g fill="#474747"><path d="M2.195 0C.99 0 0 1.008 0 2.209v10.582C0 13.991.99 15 2.195 15h11.61C15.01 15 16 13.992 16 12.791V2.209C16 1.009 15.01 0 13.805 0zm0 2h11.61c.12 0 .195.07.195.209v10.582c0 .139-.075.209-.195.209H2.195c-.12 0-.195-.07-.195-.209V2.209C2 2.07 2.075 2 2.195 2z"/><path d="M9.451 3.957a.5.5 0 0 0-.469.363l-1.714 6.06-.866-1.176A.5.5 0 0 0 6 9H3v1h2.746l1.32 1.797a.5.5 0 0 0 .885-.16L9.482 6.23l1.04 3.416A.5.5 0 0 0 11 10h2V9h-1.629l-1.43-4.69a.5.5 0 0 0-.49-.353z" /></g></svg>