<svg xmlns="http://www.w3.org/2000/svg" xmlns:xlink="http://www.w3.org/1999/xlink" width="820" height="660"><defs><linearGradient xlink:href="#a" id="b" x1="665" y1="831.52" x2="665" y2="412.52" gradientUnits="userSpaceOnUse" gradientTransform="translate(0 -882)"/><linearGradient id="a"><stop offset="0" stop-color="#f6f5f4"/><stop offset="1" stop-color="#2ec27e"/></linearGradient></defs><g transform="translate(-91 630.432)"><rect ry="9" rx="9" y="-621.929" x="91.5" height="93.997" width="819" style="marker:none" fill="#dddad6" stroke="#919191" stroke-width=".993"/><path style="marker:none" fill="url(#b)" stroke="#c0bfbc" d="M91.5-574.932h819v604h-819z"/><path style="marker:none;font-variant-east_asian:normal" fill="#f6f5f4" stroke="#c0bfbc" d="M91.5-574.932h819v604h-819z"/><path d="M881.002-602.432h1.03c.256.011.51.129.688.313l2.282 2.28 2.312-2.28c.266-.231.447-.306.688-.313h1v1c0 .286-.035.55-.25.75l-2.282 2.281 2.25 2.25c.189.188.282.454.282.719v1h-1c-.266 0-.53-.093-.72-.281l-2.28-2.282-2.282 2.282a1.015 1.015 0 0 1-.718.281h-1v-1c0-.265.093-.53.28-.719l2.282-2.25-2.281-2.281a.909.909 0 0 1-.281-.75z" style="line-height:normal;-inkscape-font-specification:'Andale Mono';text-indent:0;text-align:start;text-decoration-line:none;text-transform:none;marker:none" color="#bebebe" font-weight="400" font-family="Andale Mono" overflow="visible" fill="#888a85"/><text y="-593.59" x="504.927" style="line-height:125%;-inkscape-font-specification:'Cantarell, Normal';font-variant-ligatures:normal;font-variant-caps:normal;font-variant-numeric:normal;font-feature-settings:normal;text-align:center" font-weight="400" font-size="14.3" font-family="Cantarell" letter-spacing="0" word-spacing="0" text-anchor="middle"><tspan style="-inkscape-font-specification:'Cantarell Bold'" y="-593.59" x="504.927" font-weight="700" font-size="14.667">Initial Setup</tspan></text></g></svg>