<svg xmlns="http://www.w3.org/2000/svg" xmlns:xlink="http://www.w3.org/1999/xlink" width="128" height="128" version="1.0"><defs><linearGradient id="a"><stop offset="0" stop-color="#d5d3cf"/><stop offset="1" stop-color="#f6f5f4"/></linearGradient><linearGradient id="b"><stop offset="0" stop-color="#d5d3cf"/><stop offset="1" stop-color="#949390"/></linearGradient><linearGradient id="c"><stop offset="0" stop-color="#9a9996"/><stop offset="1" stop-color="#77767b"/></linearGradient><linearGradient gradientTransform="translate(0 12)" xlink:href="#d" id="e" x1="8" y1="264" x2="120" y2="264" gradientUnits="userSpaceOnUse"/><linearGradient id="d"><stop offset="0" stop-color="#a51d2d"/><stop offset=".034" stop-color="#ed333b"/><stop offset=".071" stop-color="#c01c28"/><stop offset=".928" stop-color="#c01c28"/><stop offset=".964" stop-color="#ed333b"/><stop offset="1" stop-color="#c01c28"/></linearGradient><clipPath clipPathUnits="userSpaceOnUse" id="f"><path fill="#949390" stroke-width="16" stroke-linecap="round" stroke-linejoin="round" stroke-dashoffset="11.2" d="M208 4h96v48h-96z"/></clipPath></defs><g transform="translate(0 -172)"><rect width="112" height="24" x="8" y="264" rx="8" ry="8" fill="url(#e)"/><rect ry="8.842" rx="8" y="200" x="8" height="84" width="112" fill="#ed333b"/><path d="M36 282h56l-4-10H40z" fill="#5e5c64" stroke="#5e5c64" stroke-width="8" stroke-linecap="round" stroke-linejoin="round"/><path fill="#424048" d="M32 282h64v6H32z"/><path d="M24 208h80l8 8v52H16v-52z" fill="#f6f5f4"/><g transform="translate(0 8)"><path fill="#424048" d="M16 216h96v32H16z"/><circle cx="40" cy="232" r="6" fill="#f6f5f4"/><circle r="6" cy="232" cx="88" fill="#f6f5f4"/><path fill="#949390" d="M52 226h24v12H52z"/><path transform="matrix(.25 0 0 .25 0 225)" clip-path="url(#f)" d="M272 28c0 61.856-50.144 112-112 112S48 89.856 48 28 98.144-84 160-84 272-33.856 272 28z" opacity=".5" fill="#424048"/></g></g></svg>